<?xml version="1.0" standalone="no"?>
<!DOCTYPE svg PUBLIC "-//W3C//DTD SVG 1.1//EN" "http://www.w3.org/Graphics/SVG/1.1/DTD/svg11.dtd" >
<svg xmlns="http://www.w3.org/2000/svg" xmlns:xlink="http://www.w3.org/1999/xlink" version="1.1">
<metadata>
Created by FontForge 20150913 at Sat Feb 27 13:29:27 2016
 By Emil Björklund
Copyright (c) 2013 by Juan Pablo del Peral (huertatipografica.com)
</metadata>
<defs>
<font id="AlegreyaSansSC-BlackItalic" horiz-adv-x="390" >
  <font-face 
    font-family="AlegreyaSansSC-BlackItalic"
    font-weight="900"
    font-style="italic"
    font-stretch="normal"
    units-per-em="1000"
    panose-1="0 0 10 0 0 0 0 0 0 0"
    ascent="800"
    descent="-200"
    x-height="513"
    cap-height="647"
    bbox="-255 -311 1246 1115"
    underline-thickness="80"
    underline-position="-250"
    slope="-7"
    unicode-range="U+0020-F6D8"
  />
<missing-glyph horiz-adv-x="135" 
 />
    <glyph glyph-name="Idieresis" unicode="&#xa8;I" horiz-adv-x="327" 
d="M142 890q38 0 59.5 -21.5t21.5 -60.5q0 -41 -24 -65.5t-64 -24.5q-39 0 -60 21t-21 61q0 42 23.5 66t64.5 24zM326 890q38 0 59 -21.5t21 -60.5q0 -41 -23.5 -65.5t-63.5 -24.5q-82 0 -82 82q0 42 24 66t65 24zM249 210l-18 -210h-200l34 190l46 457h203z" />
    <glyph glyph-name="Odieresis" unicode="&#xa8;O" horiz-adv-x="658" 
d="M305 890q38 0 59.5 -21t21.5 -60q0 -42 -23.5 -66.5t-64.5 -24.5q-81 0 -81 83q0 42 23.5 65.5t64.5 23.5zM499 890q38 0 59 -21.5t21 -59.5q0 -42 -23.5 -66.5t-63.5 -24.5t-61 21.5t-21 61.5q0 42 24 65.5t65 23.5zM380 659q131 0 202.5 -70.5t71.5 -214.5
q0 -172 -93.5 -279t-261.5 -107q-131 0 -203 71.5t-72 216.5q0 171 94 277t262 106zM357 500q-61 0 -92.5 -47t-31.5 -180q0 -79 17.5 -108.5t69.5 -29.5q29 0 49.5 9t38.5 32t27 69.5t9 116.5q0 79 -17.5 108.5t-69.5 29.5z" />
    <glyph glyph-name="Yacute" unicode="&#xb4;Y" horiz-adv-x="594" 
d="M256 716l-30 79q114 56 225 122l17 -4l49 -116l-6 -16q-132 -42 -238 -69zM379 204l-6 -34l-12 -170h-199l30 170l3 37l-152 440h208l9 -54l49 -196h12l109 189l30 61h204z" />
    <glyph glyph-name="idieresis" unicode="&#xa8;i" horiz-adv-x="304" 
d="M107 756q38 0 59.5 -21.5t21.5 -60.5q0 -41 -24 -65.5t-64 -24.5q-39 0 -60 21t-21 61q0 42 23.5 66t64.5 24zM291 756q38 0 59 -21.5t21 -60.5q0 -41 -23.5 -65.5t-63.5 -24.5q-82 0 -82 82q0 42 24 66t65 24zM222 168l-12 -168h-185l27 149l36 364h188z" />
    <glyph glyph-name="odieresis" unicode="&#xa8;o" horiz-adv-x="568" 
d="M238 756q38 0 59.5 -21t21.5 -60q0 -42 -23.5 -66.5t-64.5 -24.5q-81 0 -81 83q0 42 23.5 65.5t64.5 23.5zM432 756q38 0 59 -21.5t21 -59.5q0 -42 -23.5 -66.5t-63.5 -24.5t-61 21.5t-21 61.5q0 42 24 65.5t65 23.5zM318 523q113 0 174.5 -57.5t61.5 -173.5
q0 -134 -80 -218.5t-221 -84.5q-113 0 -174.5 58t-61.5 175q0 135 79.5 218t221.5 83zM295 377q-21 0 -34.5 -5t-26 -20t-18.5 -46.5t-6 -81.5q0 -61 13 -80t54 -19q21 0 34 5t25 20t18 47t6 82q0 59 -12.5 78.5t-52.5 19.5z" />
    <glyph glyph-name="yacute" unicode="&#xb4;y" horiz-adv-x="524" 
d="M214 563l-44 72q99 73 201 160l17 -1l69 -106l-3 -17q-142 -72 -223 -109zM330 150l-4 -19l-8 -131h-184l25 131l2 21l-130 361h193l8 -47l37 -134h10l76 127l27 54h188z" />
    <glyph glyph-name="Itilde" unicode="&#x7e;I" horiz-adv-x="327" 
d="M402 858v-16l-72 -111l-15 -6q-23 4 -68 18t-55 14q-12 0 -23.5 -9.5t-17.5 -18t-19 -28.5h-16l-56 55v16l72 110l15 6q23 -4 68 -18t55 -14q12 0 23.5 9.5t17.5 18t19 28.5h16zM249 210l-18 -210h-200l34 190l46 457h203z" />
    <glyph glyph-name="itilde" unicode="&#x7e;i" horiz-adv-x="304" 
d="M367 724v-16l-72 -111l-15 -6q-23 4 -68 18t-55 14q-12 0 -23.5 -9.5t-17.5 -18t-19 -28.5h-16l-56 55v16l72 110l15 6q23 -4 68 -18t55 -14q12 0 23.5 9.5t17.5 18t19 28.5h16zM222 168l-12 -168h-185l27 149l36 364h188z" />
    <glyph glyph-name="Utilde" unicode="&#x7e;U" horiz-adv-x="653" 
d="M593 861v-16l-81 -113l-16 -6q-26 3 -83 18.5t-70 15.5q-4 0 -8 -1t-8.5 -3t-8 -4t-8 -6.5l-7 -7t-7.5 -8.5t-7 -9t-7.5 -9.5t-7.5 -9.5h-16l-57 55v16l81 112l16 6q26 -3 83 -18.5t70 -15.5q4 0 8 1t8.5 3t8 4t8 6.5l7 7t7.5 8.5t7 9t7.5 9.5t7.5 9.5h16zM610 319
l-13 -103q-14 -111 -90 -169.5t-210 -58.5q-119 0 -185.5 48t-66.5 137q0 21 3 43l15 103l34 328h200l-58 -404q-2 -20 -2 -27q0 -37 18 -54t59 -17q47 0 71 23t29 75l40 404h203z" />
    <glyph glyph-name="utilde" unicode="&#x7e;u" horiz-adv-x="566" 
d="M530 727v-16l-81 -113l-16 -6q-26 3 -83 18.5t-70 15.5q-4 0 -8 -1t-8.5 -3t-8 -4t-8 -6.5l-7 -7t-7.5 -8.5t-7 -9t-7.5 -9.5t-7.5 -9.5h-16l-57 55v16l81 112l16 6q26 -3 83 -18.5t70 -15.5q4 0 8 1t8.5 3t8 4t8 6.5l7 7t7.5 8.5t7 9t7.5 9.5t7.5 9.5h16zM519 253
l-11 -84q-11 -88 -76.5 -134t-181.5 -46q-102 0 -159 38t-57 109q0 16 3 33l12 83l27 261h184l-47 -319q-1 -6 -1 -16q0 -24 13 -34t44 -10q35 0 51 14t19 46l31 319h187z" />
    <glyph glyph-name="Etilde" unicode="&#x7e;E" horiz-adv-x="540" 
d="M218 702l-57 55v16l81 112l16 6q26 -3 83 -18.5t70 -15.5q4 0 8 1t8.5 3t8 4t8 6.5l7 7t7.5 8.5t7 9t7.5 9.5t7.5 9.5h16l57 -54v-16l-81 -113l-16 -6q-26 3 -83 18.5t-70 15.5q-4 0 -8 -1t-8.5 -3t-8 -4t-8 -6.5l-7 -7t-7.5 -8.5t-7 -9t-7.5 -9.5t-7.5 -9.5h-16z
M291 494l-13 -92h98l105 3l9 -14l-30 -146l-115 3h-90l-6 -38l-5 -57h96l167 6l9 -14l-30 -145h-455l33 190l47 457h463l9 -14l-31 -145l-158 6h-103z" />
    <glyph glyph-name="etilde" unicode="&#x7e;e" horiz-adv-x="480" 
d="M152 568l-57 55v16l81 112l16 6q26 -3 83 -18.5t70 -15.5q4 0 8 1t8.5 3t8 4t8 6.5l7 7t7.5 8.5t7 9t7.5 9.5t7.5 9.5h16l57 -54v-16l-81 -113l-16 -6q-26 3 -83 18.5t-70 15.5q-4 0 -8 -1t-8.5 -3t-8 -4t-8 -6.5l-7 -7t-7.5 -8.5t-7 -9t-7.5 -9.5t-7.5 -9.5h-16z
M253 372l-7 -45h80l88 3l8 -13l-27 -135l-97 3h-73l-3 -17l-2 -27h79l140 5l9 -12l-28 -134h-396l28 149l35 364h403l9 -13l-28 -134l-133 6h-85z" />
    <glyph glyph-name="Ytilde" unicode="&#x7e;Y" horiz-adv-x="594" 
d="M229 702l-57 55v16l81 112l16 6q26 -3 83 -18.5t70 -15.5q4 0 8 1t8.5 3t8 4t8 6.5l7 7t7.5 8.5t7 9t7.5 9.5t7.5 9.5h16l57 -54v-16l-81 -113l-16 -6q-26 3 -83 18.5t-70 15.5q-4 0 -8 -1t-8.5 -3t-8 -4t-8 -6.5l-7 -7t-7.5 -8.5t-7 -9t-7.5 -9.5t-7.5 -9.5h-16z
M379 204l-6 -34l-12 -170h-199l30 170l3 37l-152 440h208l9 -54l49 -196h12l109 189l30 61h204z" />
    <glyph glyph-name="ytilde" unicode="&#x7e;y" horiz-adv-x="524" 
d="M174 568l-57 55v16l81 112l16 6q26 -3 83 -18.5t70 -15.5q4 0 8 1t8.5 3t8 4t8 6.5l7 7t7.5 8.5t7 9t7.5 9.5t7.5 9.5h16l57 -54v-16l-81 -113l-16 -6q-26 3 -83 18.5t-70 15.5q-4 0 -8 -1t-8.5 -3t-8 -4t-8 -6.5l-7 -7t-7.5 -8.5t-7 -9t-7.5 -9.5t-7.5 -9.5h-16z
M330 150l-4 -19l-8 -131h-184l25 131l2 21l-130 361h193l8 -47l37 -134h10l76 127l27 54h188z" />
    <glyph glyph-name="Gtilde" unicode="&#x7e;G" horiz-adv-x="599" 
d="M592 861v-16l-81 -113l-16 -6q-26 3 -83 18.5t-70 15.5q-4 0 -8 -1t-8.5 -3t-8 -4t-8 -6.5l-7 -7t-7.5 -8.5t-7 -9t-7.5 -9.5t-7.5 -9.5h-16l-57 55v16l81 112l16 6q26 -3 83 -18.5t70 -15.5q4 0 8 1t8.5 3t8 4t8 6.5l7 7t7.5 8.5t7 9t7.5 9.5t7.5 9.5h16zM426 658
q117 0 193 -30l-64 -176h-16q-88 47 -160 47q-36 0 -60.5 -9t-45 -34t-30.5 -73.5t-10 -122.5q0 -69 25 -95.5t85 -26.5q14 0 36 4l4 33l10 109l184 13l-14 -88l-22 -177q-119 -44 -225 -44q-141 0 -216.5 71t-75.5 199q0 193 103.5 296.5t298.5 103.5z" />
    <glyph glyph-name="gtilde" unicode="&#x7e;g" horiz-adv-x="515" 
d="M512 727v-16l-81 -113l-16 -6q-26 3 -83 18.5t-70 15.5q-4 0 -8 -1t-8.5 -3t-8 -4t-8 -6.5l-7 -7t-7.5 -8.5t-7 -9t-7.5 -9.5t-7.5 -9.5h-16l-57 55v16l81 112l16 6q26 -3 83 -18.5t70 -15.5q4 0 8 1t8.5 3t8 4t8 6.5l7 7t7.5 8.5t7 9t7.5 9.5t7.5 9.5h16zM359 522
q87 0 164 -20l-60 -162h-14q-75 36 -136 36q-53 0 -78 -30t-25 -126q0 -54 15 -73.5t67 -19.5h7.5t5 0.5t2.5 0.5h2h1l3 13l8 91l170 11l-11 -70l-18 -147q-102 -37 -192 -37q-123 0 -188 61.5t-65 180.5q0 138 87.5 214.5t254.5 76.5z" />
    <glyph glyph-name=".notdef" horiz-adv-x="135" 
 />
    <glyph glyph-name=".null" horiz-adv-x="0" 
 />
    <glyph glyph-name="nonmarkingreturn" horiz-adv-x="333" 
 />
    <glyph glyph-name="space" unicode=" " horiz-adv-x="127" 
 />
    <glyph glyph-name="exclam" unicode="!" horiz-adv-x="286" 
d="M310 649l-100 -390l-110 -16l-17 18l30 378l19 22l158 11zM134 189q44 0 68 -25t24 -69q0 -48 -27 -76t-73 -28t-70 24.5t-24 70.5q0 47 27.5 75t74.5 28z" />
    <glyph glyph-name="quotedbl" unicode="&#x22;" horiz-adv-x="436" 
d="M262 634l-81 -261l-88 -14l-14 11l23 267l151 9zM448 634l-80 -261l-89 -14l-14 11l23 267l151 9z" />
    <glyph glyph-name="numbersign" unicode="#" horiz-adv-x="587" 
d="M467 346l-14 -90h72l11 -12l-8 -96h-92l-19 -117h-111l-8 12l17 105h-92l-19 -117h-110l-9 12l17 105h-71l-11 11l8 97h91l14 90h-72l-11 12l8 97h92l19 117h108l12 -13l-17 -104h91l19 117h107l12 -13l-17 -104h71l11 -12l-8 -97h-91zM346 346h-92l-14 -90h92z" />
    <glyph glyph-name="dollar" unicode="$" horiz-adv-x="469" 
d="M235 371q0 -12 20 -22.5t48.5 -21.5t56.5 -26.5t48 -45.5t20 -71q0 -61 -39 -113t-117 -72l-15 -139h-96l-11 14l12 114q-88 4 -162 28l44 160l18 13q36 -31 80 -51t74 -20q26 0 26 19q0 12 -20 22t-48.5 21t-57 26.5t-48.5 46t-20 72.5q0 69 46 120.5t127 69.5l14 130
h95l14 -14l-12 -109q64 -6 120 -26l-43 -153l-26 -7q-32 23 -68.5 37t-57.5 14q-22 0 -22 -16z" />
    <glyph glyph-name="percent" unicode="%" horiz-adv-x="896" 
d="M746 647l7 -24l-551 -717l-75 50l-4 17l552 721zM253 655q66 0 101 -37.5t35 -107.5q0 -107 -54 -168t-151 -61q-67 0 -102.5 37.5t-35.5 108.5q0 106 54.5 167t152.5 61zM225 536q-31 0 -46.5 -20t-15.5 -71q0 -28 10 -41t34 -13q39 0 52 22.5t13 68.5q0 28 -11 41
t-36 13zM734 367q66 0 101 -37.5t35 -108.5q0 -106 -54 -167t-151 -61q-67 0 -102 37.5t-35 107.5q0 107 54 168t152 61zM706 247q-31 0 -46.5 -19.5t-15.5 -71.5q0 -28 10 -40.5t34 -12.5q39 0 52.5 23t13.5 68q0 28 -11 40.5t-37 12.5z" />
    <glyph glyph-name="ampersand" unicode="&#x26;" horiz-adv-x="681" 
d="M688 279l11 -14l-12 -119h-145q-64 -159 -253 -159q-131 0 -202 69.5t-71 197.5q0 124 64.5 196.5t179.5 72.5q68 0 103 -24.5t38 -67.5q167 134 233 281h15q57 -52 74 -119q-30 -82 -190 -215.5t-331 -215.5q30 -42 99 -42q64 0 99 36.5t44 112.5l13 10h231zM254 403
q-72 0 -78 -111q35 16 87 45q22 15 22 40q0 26 -31 26z" />
    <glyph glyph-name="quotesingle" unicode="'" horiz-adv-x="249" 
d="M262 634l-81 -261l-88 -14l-14 11l23 267l151 9z" />
    <glyph glyph-name="parenleft" unicode="(" horiz-adv-x="307" 
d="M348 602l-2 -15q-52 -49 -85 -138t-43 -163.5t-10 -145.5q0 -134 58 -205l-2 -15l-76 -57h-17q-117 95 -117 285q0 69 10 135.5t32.5 137t66.5 133t106 105.5h17z" />
    <glyph glyph-name="parenright" unicode=")" horiz-adv-x="307" 
d="M-35 -80l2 15q52 49 85 138t43 163.5t10 145.5q0 134 -58 205l2 15l76 57h17q117 -95 117 -285q0 -69 -10 -135.5t-32.5 -137t-66.5 -133t-106 -105.5h-17z" />
    <glyph glyph-name="asterisk" unicode="*" horiz-adv-x="394" 
d="M301 741l-36 -127l-51 -6l-9 8l-6 118q43 15 97 17zM193 605l-9 -51l-11 -5l-114 30q-1 44 13 97l12 3zM279 606l112 42q27 -39 45 -87l-7 -8l-132 -4l-23 46zM293 533l75 -93q-24 -33 -69 -70l-10 4l-45 125l37 35zM225 509l2 -11l-64 -100q-38 11 -89 42l1 12l104 81z
" />
    <glyph glyph-name="plus" unicode="+" horiz-adv-x="477" 
d="M332 469l-18 -149h147l11 -13l-24 -117h-150l-19 -152l-118 -9l-12 12l19 149h-149l-10 13l23 117h152l18 152l118 9z" />
    <glyph glyph-name="comma" unicode="," horiz-adv-x="229" 
d="M147 182q47 -46 47 -106q0 -113 -151 -218l-61 53l-2 14q56 49 56 109q0 42 -33 74l1 16q72 40 143 58z" />
    <glyph glyph-name="hyphen" unicode="-" horiz-adv-x="300" 
d="M284 326l-13 -120l-240 -38l-12 14l14 120l239 38z" />
    <glyph glyph-name="period" unicode="." horiz-adv-x="230" 
d="M101 189q44 0 68 -25t24 -69q0 -48 -27 -76t-73 -28t-70 24.5t-24 70.5q0 47 27.5 75t74.5 28z" />
    <glyph glyph-name="slash" unicode="/" horiz-adv-x="280" 
d="M353 667l-263 -785h-135l-10 15l263 786h131z" />
    <glyph glyph-name="zero" unicode="0" horiz-adv-x="517" 
d="M296 524q95 0 146 -56.5t51 -168.5q0 -138 -72.5 -224.5t-194.5 -86.5q-96 0 -147 57.5t-51 168.5q0 136 72.5 223t195.5 87zM269 343q-50 0 -69 -25t-19 -78q0 -44 14.5 -63t54.5 -19q90 0 90 105q0 45 -15.5 62.5t-55.5 17.5z" />
    <glyph glyph-name="one" unicode="1" horiz-adv-x="379" 
d="M335 502l-46 -292l-18 -210h-197l32 190l13 110l-96 -20l-11 9l19 157l278 76z" />
    <glyph glyph-name="two" unicode="2" horiz-adv-x="490" 
d="M274 522q79 0 129.5 -34.5t50.5 -96.5q0 -40 -29.5 -83t-101.5 -109l-50 -47l3 -5h78l98 10l8 -12l-40 -153l-143 8h-230l-37 -3l-8 7l15 117l140 111q97 76 97 104q0 22 -33 22q-58 0 -133 -50h-21l-14 151q120 63 221 63z" />
    <glyph glyph-name="three" unicode="3" horiz-adv-x="453" 
d="M244 524q84 0 138 -37.5t54 -95.5q0 -42 -29 -87t-79 -69v-6q41 -23 60 -49.5t19 -68.5q0 -91 -80 -147.5t-213 -56.5q-71 0 -126 11l7 143l15 12q66 -20 119 -20q91 0 91 51q0 30 -43 30h-84l-6 12l21 134l60 3q22 1 42.5 17t20.5 37q0 30 -41 30q-42 0 -115 -33h-20
l-12 135q104 55 201 55z" />
    <glyph glyph-name="four" unicode="4" horiz-adv-x="528" 
d="M473 28l-69 2l-6 -103l-12 -13l-153 -9l-8 12l19 115h-130l-113 -4l-10 16l15 123l279 347h179l-45 -333h69l9 -17zM175 181h92l15 120h-11z" />
    <glyph glyph-name="five" unicode="5" horiz-adv-x="448" 
d="M456 510l-36 -147l-15 -14l-109 15h-80l-8 -62l59 -13q140 -31 140 -145q0 -106 -84.5 -172.5t-216.5 -66.5q-60 0 -127 14l7 139l13 13q64 -19 127 -19q44 0 68.5 15t24.5 42q0 34 -56 43l-107 18l-10 14l39 314l21 20l63 -4h161l117 8z" />
    <glyph glyph-name="six" unicode="6" horiz-adv-x="500" 
d="M311 376q75 0 119 -52t44 -122q0 -85 -64 -149.5t-178 -64.5q-102 0 -159.5 56t-57.5 154q0 121 88 225t246 175h9l113 -86l-2 -18q-157 -46 -222 -122l5 -7q29 11 59 11zM239 112q28 0 43 20t15 53q0 56 -50 56q-25 0 -56 -10q-1 -11 -1 -34q0 -46 11 -65.5t38 -19.5z
" />
    <glyph glyph-name="seven" unicode="7" horiz-adv-x="450" 
d="M193 514h210l58 2l-18 -141l-167 -287l-93 -185l-149 43l-9 30l228 378h-110l-113 -12l-7 15l32 162z" />
    <glyph glyph-name="eight" unicode="8" horiz-adv-x="516" 
d="M297 598q90 0 141 -39t51 -106q0 -85 -95 -140l-1 -8q81 -49 81 -132t-63 -134t-168 -51q-102 0 -160.5 40t-58.5 107q0 51 28.5 84.5t88.5 55.5l1 8q-74 46 -74 132q0 82 62.5 132.5t166.5 50.5zM283 467q-27 0 -41.5 -12.5t-14.5 -31.5q0 -21 16 -35t50 -28
q42 33 42 65q0 42 -52 42zM243 225q-57 -21 -57 -60q0 -50 61 -50q33 0 50.5 14t17.5 33q0 21 -18.5 35t-53.5 28z" />
    <glyph glyph-name="nine" unicode="9" horiz-adv-x="500" 
d="M273 525q102 0 159.5 -56t57.5 -154q0 -121 -88 -225t-246 -175h-9l-113 86l2 18q157 46 222 122l-5 7q-29 -11 -59 -11q-75 0 -119 52t-44 122q0 85 64 149.5t178 64.5zM258 272q25 0 56 10q1 11 1 34q0 46 -11 65.5t-38 19.5q-28 0 -43 -20t-15 -53q0 -56 50 -56z" />
    <glyph glyph-name="colon" unicode=":" horiz-adv-x="230" 
d="M134 444q44 0 68 -25t24 -69q0 -48 -27 -76t-73 -28t-70 24.5t-24 70.5q0 47 27.5 75t74.5 28zM102 189q44 0 68 -25t24 -69q0 -48 -27 -76t-73 -28t-70 24.5t-24 70.5q0 47 27.5 75t74.5 28z" />
    <glyph glyph-name="semicolon" unicode=";" horiz-adv-x="229" 
d="M127 444q44 0 68.5 -25t24.5 -69q0 -48 -27 -76t-74 -28q-93 0 -93 95q0 47 27 75t74 28zM142 182q48 -45 48 -106q0 -113 -152 -218l-61 53l-2 14q56 49 56 109q0 42 -33 74l1 16q72 40 143 58z" />
    <glyph glyph-name="less" unicode="&#x3c;" horiz-adv-x="492" 
d="M471 369l-9 -12l-288 -93l-1 -9l265 -91l-39 -108l-18 -13l-350 135l19 155l14 17l381 130z" />
    <glyph glyph-name="equal" unicode="=" horiz-adv-x="478" 
d="M481 413l-9 -117h-430l-12 13l9 117h430zM455 200l-9 -116h-430l-12 13l9 116h430z" />
    <glyph glyph-name="greater" unicode="&#x3e;" horiz-adv-x="503" 
d="M461 350l10 -17l-19 -155l-383 -135l-15 13l-12 108l288 91l1 9l-267 93l-5 12l53 111z" />
    <glyph glyph-name="question" unicode="?" horiz-adv-x="352" 
d="M119 668l18 9q136 -6 208.5 -45.5t72.5 -108.5q0 -47 -31 -88t-86 -68l-63 -30l-3 -6l-2 -71l-138 -20l-11 12l4 136l8 11l88 36q55 22 55 59q0 25 -34 38.5t-120 19.5l-12 17zM158 189q43 0 67.5 -25t24.5 -69q0 -48 -27 -76t-73 -28t-70 24.5t-24 70.5q0 47 27.5 75
t74.5 28z" />
    <glyph glyph-name="at" unicode="@" horiz-adv-x="866" 
d="M855 327q0 -157 -108.5 -241t-310.5 -84l14 104h-15q-36 -70 -71 -111h-21q-74 18 -102 57t-28 102q0 94 58 179.5t169 122.5h6l91 -15l103 21l11 -8l-43 -322q56 13 89.5 65t33.5 124q0 105 -72 164.5t-192 54.5q-145 -6 -233.5 -100t-88.5 -236q0 -152 103 -237.5
t276 -85.5l6 -17l-49 -89q-213 0 -337.5 106.5t-124.5 301.5q0 204 130.5 340t341.5 136q166 0 265 -88.5t99 -243.5zM388 149q27 0 87 147l3 22l-64 16q-46 0 -46 -111q0 -74 20 -74z" />
    <glyph glyph-name="A" unicode="A" horiz-adv-x="626" 
d="M587 0h-202l-4 107v4l-99 2l-83 -4l-31 -109h-195l276 647h241zM368 256l-18 213h-12l-83 -213l57 -1z" />
    <glyph glyph-name="B" unicode="B" horiz-adv-x="630" 
d="M497 333q57 -23 80.5 -54t23.5 -83q0 -101 -84 -152t-266 -51q-57 0 -218 7l33 190l46 457l278 1q104 0 164.5 -38.5t60.5 -112.5q0 -51 -30 -95t-88 -69zM268 383l75 -3q66 19 66 80q0 32 -21.5 44t-82.5 12h-18zM299 124q46 0 73 20.5t27 55.5q0 22 -12 34t-39 22
l-99 -2l-6 -44l-7 -82q50 -4 63 -4z" />
    <glyph glyph-name="C" unicode="C" horiz-adv-x="516" 
d="M396 658q95 0 168 -27l-53 -159l-14 -7q-54 31 -119 31q-76 0 -107.5 -48t-31.5 -153q0 -73 26.5 -107t82.5 -34q66 0 127 21l14 -9l-35 -158q-62 -19 -132 -19q-144 0 -220.5 71t-76.5 203q0 186 96.5 290.5t274.5 104.5z" />
    <glyph glyph-name="D" unicode="D" horiz-adv-x="668" 
d="M111 647l283 4q128 0 199.5 -66t71.5 -188q0 -191 -98 -298.5t-282 -107.5q-114 0 -253 9l33 190zM331 139q123 0 123 229q0 69 -20.5 98.5t-66.5 29.5q-37 0 -76 -4l-42 -282l-5 -63q60 -8 87 -8z" />
    <glyph glyph-name="E" unicode="E" horiz-adv-x="540" 
d="M291 494l-13 -92h98l105 3l9 -14l-30 -146l-115 3h-90l-6 -38l-5 -57h96l167 6l9 -14l-30 -145h-455l33 190l47 457h463l9 -14l-31 -145l-158 6h-103z" />
    <glyph glyph-name="F" unicode="F" horiz-adv-x="480" 
d="M291 494l-17 -117h67l117 3l9 -14l-30 -145l-127 3h-59l-2 -14l-18 -210h-200l33 190l47 457h431l9 -14l-31 -145l-158 6h-71z" />
    <glyph glyph-name="G" unicode="G" horiz-adv-x="599" 
d="M426 658q117 0 193 -30l-64 -176h-16q-88 47 -160 47q-36 0 -60.5 -9t-45 -34t-30.5 -73.5t-10 -122.5q0 -69 25 -95.5t85 -26.5q14 0 36 4l4 33l10 109l184 13l-14 -88l-22 -177q-119 -44 -225 -44q-141 0 -216.5 71t-75.5 199q0 193 103.5 296.5t298.5 103.5z" />
    <glyph glyph-name="H" unicode="H" horiz-adv-x="711" 
d="M700 647l-65 -437l-18 -210h-200l34 190l5 50l-108 2l-95 -3l-4 -29l-18 -210h-200l34 190l46 457h203l-36 -245l101 -2l93 2l25 245h203z" />
    <glyph glyph-name="I" unicode="I" horiz-adv-x="327" 
d="M249 210l-18 -210h-200l34 190l46 457h203z" />
    <glyph glyph-name="J" unicode="J" horiz-adv-x="362" 
d="M348 647l-66 -434l-8 -89q-13 -94 -67.5 -146.5t-183.5 -89.5l-40 103l2 15q53 25 76.5 52.5t28.5 71.5l8 63l33 314l-83 -3l-9 13l24 130h285z" />
    <glyph glyph-name="K" unicode="K" horiz-adv-x="629" 
d="M677 647l-229 -317q69 -128 174 -288l-5 -22q-109 -24 -203 -32l-21 12q-80 175 -131 298l-13 -88l-18 -210h-200l34 190l46 457h203l-40 -271l149 201l43 70h211z" />
    <glyph glyph-name="L" unicode="L" horiz-adv-x="452" 
d="M441 149l-29 -149h-385l33 190l46 457h203l-64 -437l-4 -47h191z" />
    <glyph glyph-name="M" unicode="M" horiz-adv-x="806" 
d="M746 0h-176l20 196l9 165h-12l-143 -300h-150l-50 300h-12l-33 -146l-35 -215h-167l142 647h231l8 -92l29 -236h12l91 229l36 99h227z" />
    <glyph glyph-name="N" unicode="N" horiz-adv-x="710" 
d="M636 211l-18 -211h-217l-140 348h-12l-15 -114l-21 -234h-181l33 190l46 457h217l141 -348h12l36 341l184 11z" />
    <glyph glyph-name="O" unicode="O" horiz-adv-x="658" 
d="M380 659q131 0 202.5 -70.5t71.5 -214.5q0 -172 -93.5 -279t-261.5 -107q-131 0 -203 71.5t-72 216.5q0 171 94 277t262 106zM357 500q-61 0 -92.5 -47t-31.5 -180q0 -79 17.5 -108.5t69.5 -29.5q29 0 49.5 9t38.5 32t27 69.5t9 116.5q0 79 -17.5 108.5t-69.5 29.5z" />
    <glyph glyph-name="P" unicode="P" horiz-adv-x="593" 
d="M111 647l296 1q100 0 156.5 -46.5t56.5 -130.5q0 -128 -86.5 -208t-227.5 -80h-58l-16 -183h-200l33 190zM267 327l74 -4q67 34 67 115q0 68 -78 72l-37 -3z" />
    <glyph glyph-name="Q" unicode="Q" horiz-adv-x="662" 
d="M698 -61l6 -18q-50 -77 -111 -126l-14 -7q-159 85 -280 200h-3q-131 0 -201.5 71.5t-70.5 216.5q0 171 95 277t264 106q131 0 201 -70.5t70 -214.5q0 -114 -43.5 -202.5t-124.5 -136.5q100 -57 212 -96zM233 273q0 -79 17.5 -108.5t69.5 -29.5q29 0 49.5 9t38.5 32
t27 69.5t9 116.5q0 79 -17.5 108.5t-69.5 29.5q-61 0 -92.5 -47t-31.5 -180z" />
    <glyph glyph-name="R" unicode="R" horiz-adv-x="630" 
d="M622 475q0 -68 -34.5 -126.5t-97.5 -98.5q61 -115 116 -203l-5 -22q-106 -31 -205 -37l-17 16q-51 150 -63 189h-68l-17 -193h-200l34 190l46 457l296 1q100 0 157.5 -45.5t57.5 -127.5zM408 442q0 34 -18.5 50t-59.5 18l-37 -3l-25 -168l73 -4q67 28 67 107z" />
    <glyph glyph-name="S" unicode="S" horiz-adv-x="528" 
d="M350 659q96 0 185 -35l-50 -162l-28 -12q-85 56 -143 56q-25 0 -39.5 -10.5t-14.5 -25.5q0 -19 25 -35.5t61 -33t72 -37t61 -57.5t25 -85q0 -98 -83 -166t-213 -68q-103 0 -211 38l48 173l21 12q43 -36 93 -56t86 -20q55 0 55 36q0 20 -25 37.5t-60 33t-70.5 36t-60.5 57
t-25 85.5q0 101 83 170t208 69z" />
    <glyph glyph-name="T" unicode="T" horiz-adv-x="518" 
d="M560 633l-28 -145l-131 6h-13l-40 -284l-18 -210h-199l34 190l32 304h-13l-134 -6l-10 14l29 145h482z" />
    <glyph glyph-name="U" unicode="U" horiz-adv-x="653" 
d="M610 319l-13 -103q-14 -111 -90 -169.5t-210 -58.5q-119 0 -185.5 48t-66.5 137q0 21 3 43l15 103l34 328h200l-58 -404q-2 -20 -2 -27q0 -37 18 -54t59 -17q47 0 71 23t29 75l40 404h203z" />
    <glyph glyph-name="V" unicode="V" horiz-adv-x="615" 
d="M394 0h-241l-98 647h202l5 -107l32 -362h11l135 350l34 119h195z" />
    <glyph glyph-name="W" unicode="W" horiz-adv-x="914" 
d="M694 0h-212l-32 234h-11l-86 -234h-213l-72 647h194l-2 -100l21 -346h11l111 296l-16 150h203l-1 -121l28 -325h11l120 334l32 112h184z" />
    <glyph glyph-name="X" unicode="X" horiz-adv-x="634" 
d="M459 332l150 -332h-235l-24 79l-45 106l-89 -116l-41 -69h-202l230 321l-153 326h236l25 -81l44 -103l80 114l39 70h208z" />
    <glyph glyph-name="Y" unicode="Y" horiz-adv-x="594" 
d="M379 204l-6 -34l-12 -170h-199l30 170l3 37l-152 440h208l9 -54l49 -196h12l109 189l30 61h204z" />
    <glyph glyph-name="Z" unicode="Z" horiz-adv-x="569" 
d="M570 505l-319 -358h161l124 9l5 -9l-35 -152l-176 5h-230l-102 -6l18 142l325 364h-158l-121 -10l-6 8l33 152l150 -3h274l75 1z" />
    <glyph glyph-name="bracketleft" unicode="[" horiz-adv-x="302" 
d="M361 640l-11 -86l-97 -14l-67 -554l93 -15l-11 -85l-8 -9l-244 10l57 376l36 376l246 10z" />
    <glyph glyph-name="backslash" unicode="\" horiz-adv-x="455" 
d="M203 683l208 -786l-11 -15h-134l-208 785l15 16h130z" />
    <glyph glyph-name="bracketright" unicode="]" horiz-adv-x="302" 
d="M-52 -114l11 85l96 15l68 554l-93 14l11 86l8 9l244 -10l-57 -376l-36 -376l-246 -10z" />
    <glyph glyph-name="asciicircum" unicode="^" horiz-adv-x="460" 
d="M440 161l-15 -16l-111 -26l-60 252h-9l-124 -253l-14 -7l-105 40l172 340l18 11h155z" />
    <glyph glyph-name="underscore" unicode="_" horiz-adv-x="438" 
d="M411 -104l-22 -106h-447l-10 13l22 106h447z" />
    <glyph glyph-name="grave" unicode="`" 
d="M167 753l17 1q102 -87 201 -160l-44 -72l-17 -1q-81 37 -223 109l-3 17z" />
    <glyph glyph-name="a" unicode="a" horiz-adv-x="549" 
d="M321 0l-2 74l-79 2l-65 -3l-20 -73h-177l224 513h220l83 -513h-184zM266 205l42 1l-14 146h-11l-58 -146z" />
    <glyph glyph-name="b" unicode="b" horiz-adv-x="558" 
d="M436 263q42 -20 62.5 -48t20.5 -75q0 -71 -70.5 -108.5t-205.5 -37.5q-77 0 -219 6l28 149l35 364h259q87 0 137 -31.5t50 -89.5q0 -86 -97 -129zM239 310l65 -3q34 15 34 50q0 20 -11.5 26t-43.5 6h-33zM265 116q29 0 46.5 12t17.5 33q0 17 -19 31l-88 -2l-3 -22l-4 -49
q30 -3 50 -3z" />
    <glyph glyph-name="c" unicode="c" horiz-adv-x="448" 
d="M335 522q79 0 140 -16l-49 -151l-13 -8q-42 26 -101 26q-50 0 -73 -29t-23 -94q0 -56 18.5 -82t66.5 -26q51 0 99 15l14 -8l-33 -151q-45 -8 -94 -8q-139 0 -204 58.5t-65 175.5q0 137 82.5 217.5t234.5 80.5z" />
    <glyph glyph-name="d" unicode="d" horiz-adv-x="576" 
d="M87 513l244 3q109 0 170.5 -53t61.5 -150q0 -152 -82 -236.5t-238 -84.5q-83 0 -219 8l27 149zM284 128q40 0 62 34.5t22 122.5q0 48 -14.5 68t-46.5 20q-23 0 -54 -3l-32 -202l-2 -32q46 -8 65 -8z" />
    <glyph glyph-name="e" unicode="e" horiz-adv-x="480" 
d="M253 372l-7 -45h80l88 3l8 -13l-27 -135l-97 3h-73l-3 -17l-2 -27h79l140 5l9 -12l-28 -134h-396l28 149l35 364h403l9 -13l-28 -134l-133 6h-85z" />
    <glyph glyph-name="f" unicode="f" horiz-adv-x="426" 
d="M249 372l-10 -67h53l98 3l9 -13l-28 -135l-110 3h-43l-13 -163h-185l28 149l35 364h375l9 -13l-29 -134l-134 6h-55z" />
    <glyph glyph-name="g" unicode="g" horiz-adv-x="515" 
d="M359 522q87 0 164 -20l-60 -162h-14q-75 36 -136 36q-53 0 -78 -30t-25 -126q0 -54 15 -73.5t67 -19.5h7.5t5 0.5t2.5 0.5h2h1l3 13l8 91l170 11l-11 -70l-18 -147q-102 -37 -192 -37q-123 0 -188 61.5t-65 180.5q0 138 87.5 214.5t254.5 76.5z" />
    <glyph glyph-name="h" unicode="h" horiz-adv-x="615" 
d="M596 513l-53 -345l-13 -168h-185l27 149l3 29l-80 2l-71 -2l-2 -10l-12 -168h-185l27 149l36 364h188l-29 -185l76 -2l67 2l18 185h188z" />
    <glyph glyph-name="i" unicode="i" horiz-adv-x="304" 
d="M222 168l-12 -168h-185l27 149l36 364h188z" />
    <glyph glyph-name="j" unicode="j" horiz-adv-x="345" 
d="M307 513l-51 -345l-6 -69q-10 -76 -58 -119.5t-163 -78.5l-39 95l1 14q45 17 64 37t23 53l7 50l23 228l-79 -2l-8 11l26 126h260z" />
    <glyph glyph-name="k" unicode="k" horiz-adv-x="555" 
d="M581 513l-180 -247q49 -91 139 -227l-6 -20q-98 -22 -187 -29l-20 11q-58 132 -96 225l-9 -58l-13 -168h-185l27 149l36 364h188l-32 -207l109 148l35 59h194z" />
    <glyph glyph-name="l" unicode="l" horiz-adv-x="403" 
d="M380 138l-28 -138h-333l28 149l35 364h188l-53 -345l-1 -18h156z" />
    <glyph glyph-name="m" unicode="m" horiz-adv-x="692" 
d="M634 0h-163l18 155l4 93h-10l-102 -204h-139l-35 204h-11l-18 -75l-28 -173h-155l115 513h215l5 -72l16 -157h11l59 149l29 80h210z" />
    <glyph glyph-name="n" unicode="n" horiz-adv-x="616" 
d="M544 171l-14 -171h-198l-109 241h-9l-8 -52l-17 -189h-165l28 150l35 363h198l110 -242h11l22 235l169 10z" />
    <glyph glyph-name="o" unicode="o" horiz-adv-x="568" 
d="M318 523q113 0 174.5 -57.5t61.5 -173.5q0 -134 -80 -218.5t-221 -84.5q-113 0 -174.5 58t-61.5 175q0 135 79.5 218t221.5 83zM295 377q-21 0 -34.5 -5t-26 -20t-18.5 -46.5t-6 -81.5q0 -61 13 -80t54 -19q21 0 34 5t25 20t18 47t6 82q0 59 -12.5 78.5t-52.5 19.5z" />
    <glyph glyph-name="p" unicode="p" horiz-adv-x="526" 
d="M87 513h253q87 0 141 -43t54 -120q0 -94 -77.5 -154.5t-197.5 -60.5h-41l-10 -135h-185l27 149zM237 267l59 -4q42 31 42 77q0 23 -9 33.5t-36 13.5l-38 -3z" />
    <glyph glyph-name="q" unicode="q" horiz-adv-x="573" 
d="M588 -36l5 -16q-45 -71 -100 -113l-13 -7q-122 71 -220 161h-7q-113 0 -174.5 58t-61.5 175q0 135 79.5 218t221.5 83q113 0 174.5 -57.5t61.5 -173.5q0 -86 -34.5 -154t-98.5 -107q75 -37 167 -67zM210 224q0 -61 13 -80t54 -19q21 0 34 5t25 20t18 47t6 82
q0 59 -12.5 78.5t-52.5 19.5q-21 0 -34.5 -5t-26 -20t-18.5 -46.5t-6 -81.5z" />
    <glyph glyph-name="r" unicode="r" horiz-adv-x="556" 
d="M536 365q0 -101 -104 -168q44 -79 95 -154l-6 -20q-97 -27 -184 -33l-22 19q-24 70 -44 133h-52l-10 -142h-185l27 149l36 364h263q85 0 135.5 -39.5t50.5 -108.5zM255 384l-17 -108l59 -4q41 20 41 65q0 26 -10.5 37t-35.5 13z" />
    <glyph glyph-name="s" unicode="s" horiz-adv-x="468" 
d="M299 523q80 0 154 -27l-43 -153l-26 -7q-32 23 -68.5 37t-57.5 14q-22 0 -22 -16q0 -12 20 -22.5t48 -21.5t56.5 -26.5t48.5 -45.5t20 -71q0 -79 -62.5 -137.5t-187.5 -58.5q-91 0 -178 28l44 160l18 13q36 -31 80 -51t74 -20q26 0 26 19q0 12 -20 22t-48.5 21t-57 26.5
t-48.5 46t-20 72.5q0 85 67.5 141.5t182.5 56.5z" />
    <glyph glyph-name="t" unicode="t" horiz-adv-x="457" 
d="M475 500l-26 -134l-112 6h-4l-29 -204l-13 -168h-184l27 149l23 223h-4l-115 -6l-9 13l27 134h412z" />
    <glyph glyph-name="u" unicode="u" horiz-adv-x="566" 
d="M519 253l-11 -84q-11 -88 -76.5 -134t-181.5 -46q-102 0 -159 38t-57 109q0 16 3 33l12 83l27 261h184l-47 -319q-1 -6 -1 -16q0 -24 13 -34t44 -10q35 0 51 14t19 46l31 319h187z" />
    <glyph glyph-name="v" unicode="v" horiz-adv-x="539" 
d="M347 0h-224l-80 513h186l4 -95l22 -256h11l94 245l29 106h180z" />
    <glyph glyph-name="w" unicode="w" horiz-adv-x="780" 
d="M596 0h-200l-22 151h-11l-52 -151h-200l-56 513h182l-3 -89l8 -237h11l77 210l-11 116h190l-1 -109l15 -217h11l78 226l27 100h172z" />
    <glyph glyph-name="x" unicode="x" horiz-adv-x="554" 
d="M393 262l135 -262h-217l-21 69l-29 64l-60 -74l-35 -59h-189l196 252l-140 261h218l21 -71l31 -65l53 76l33 60h194z" />
    <glyph glyph-name="y" unicode="y" horiz-adv-x="524" 
d="M330 150l-4 -19l-8 -131h-184l25 131l2 21l-130 361h193l8 -47l37 -134h10l76 127l27 54h188z" />
    <glyph glyph-name="z" unicode="z" horiz-adv-x="499" 
d="M484 382l-248 -247h118l108 8l4 -7l-31 -141l-159 5h-185l-90 -5l16 130l252 252h-115l-108 -9l-5 7l30 140l134 -2h294z" />
    <glyph glyph-name="braceleft" unicode="{" horiz-adv-x="303" 
d="M271 659q41 0 78 -12l5 -13l-26 -95q-18 5 -33 5q-25 0 -38.5 -15.5t-13.5 -41.5q0 -14 6 -46t6 -48q0 -34 -21.5 -64t-61.5 -48l-1 -7q58 -30 58 -91q0 -25 -20.5 -68t-20.5 -63q0 -41 42 -41q14 0 34 5l3 -95l-9 -13q-40 -12 -81 -12q-70 0 -107.5 28.5t-37.5 80.5
q0 37 20.5 91.5t20.5 74.5q0 42 -47 63l11 87q64 26 64 83q0 13 -3.5 49t-3.5 57q0 72 46 110.5t131 38.5z" />
    <glyph glyph-name="bar" unicode="|" horiz-adv-x="300" 
d="M295 797l-67 -503l-65 -539l-133 -11l-13 16l65 519l64 520l137 11z" />
    <glyph glyph-name="braceright" unicode="}" horiz-adv-x="302" 
d="M42 -104q-40 0 -78 12l-5 13l26 95q18 -5 33 -5q52 0 52 57q0 14 -6.5 46t-6.5 48q0 34 21.5 64t61.5 48l1 7q-58 30 -58 91q0 26 20.5 68t20.5 62q0 42 -41 42q-14 0 -34 -5l-3 95l9 13q41 12 81 12q70 0 107.5 -28.5t37.5 -80.5q0 -37 -20.5 -91.5t-20.5 -74.5
q0 -42 47 -63l-11 -87q-64 -26 -64 -83q0 -13 3 -49t3 -57q0 -72 -45.5 -110.5t-130.5 -38.5z" />
    <glyph glyph-name="asciitilde" unicode="~" horiz-adv-x="480" 
d="M148 212q-13 0 -29.5 -10.5t-24.5 -18.5l-31 -31h-16l-44 62l2 16l107 115l16 7q26 -5 109 -31t101 -26q5 0 10.5 1.5t12 5.5t11.5 7t13 10.5t11.5 11t13.5 13t13 12.5h16l42 -63l-2 -16l-105 -115l-17 -5q-30 4 -111.5 29.5t-97.5 25.5z" />
    <glyph glyph-name="nbspace" unicode="&#xa0;" horiz-adv-x="135" 
 />
    <glyph glyph-name="exclamdown" unicode="&#xa1;" horiz-adv-x="286" 
d="M164 286q-44 0 -68.5 25t-24.5 69q0 48 27 76t74 28q45 0 69 -24.5t24 -70.5q0 -47 -27 -75t-74 -28zM-13 -174l100 390l111 16l16 -18l-30 -378l-19 -22l-158 -11z" />
    <glyph glyph-name="cent" unicode="&#xa2;" horiz-adv-x="384" 
d="M311 231l54 -65q-50 -84 -121 -119l-25 -174h-97l-11 14l21 152q-63 19 -91 64t-28 121q0 101 47.5 177t140.5 103l22 156h94l15 -14l-19 -134l73 -20l6 -17l-45 -118l-36 -1q-18 20 -30.5 28.5t-29.5 8.5q-81 0 -81 -137q0 -46 11 -67t36 -21q35 0 73 64z" />
    <glyph glyph-name="sterling" unicode="&#xa3;" horiz-adv-x="479" 
d="M381 597q60 0 119 -13l-25 -134l-14 -8q-67 32 -111 32q-58 0 -65 -51l-10 -70h126l4 -9l-19 -95h-125l-5 -33q-6 -57 -47 -85v-5h120l111 8l4 -8l-28 -131l-154 5h-272l-5 9l20 107q41 10 60 31.5t24 59.5l5 42h-74l-3 9l18 95h71l4 39q11 99 82 152t189 53z" />
    <glyph glyph-name="currency" unicode="&#xa4;" horiz-adv-x="434" 
d="M474 490l-2 -16l-79 -61q9 -26 9 -57q0 -40 -22 -82l65 -55l1 -17l-95 -88h-16l-50 71q-37 -19 -78 -19q-33 0 -66 15l-62 -70l-18 -3l-78 83l3 16l77 59q-9 24 -9 56q0 44 23 85l-63 55v17l94 89l16 -1l51 -71q37 16 74 16q32 0 63 -13l66 72l18 3zM237 411
q-37 0 -59.5 -22.5t-22.5 -59.5q0 -29 16.5 -45.5t47.5 -16.5q37 0 59.5 22.5t22.5 59.5q0 29 -17 45.5t-47 16.5z" />
    <glyph glyph-name="yen" unicode="&#xa5;" horiz-adv-x="585" 
d="M553 326l7 -7l-16 -79h-129l-38 -55h158l7 -7l-14 -79h-182l-7 -99h-169l19 99h-164l-5 9l14 77h150l-22 55h-120l-5 9l15 77h77l-72 185h178l9 -45l51 -145h10l96 139l26 51h173l-127 -185h80z" />
    <glyph glyph-name="brokenbar" unicode="&#xa6;" horiz-adv-x="300" 
d="M295 797l-55 -415l-135 -17l-11 11l52 423l137 11zM210 145l-47 -390l-133 -11l-13 16l48 386l132 15z" />
    <glyph glyph-name="section" unicode="&#xa7;" horiz-adv-x="465" 
d="M247 517q0 -14 32.5 -30.5t71.5 -31.5t71.5 -49.5t32.5 -81.5q0 -48 -31.5 -90.5t-85.5 -67.5q51 -39 51 -94q0 -71 -66 -119.5t-163 -48.5q-87 0 -169 28l37 135l17 11q33 -28 73.5 -45t70.5 -17q21 0 31.5 7.5t10.5 17.5q0 12 -21.5 24t-52 24.5t-61 29.5t-52 46.5
t-21.5 68.5q0 48 30.5 91t82.5 69q-48 38 -48 93q0 71 67.5 121t165.5 50q77 0 140 -25l-34 -129l-22 -7q-65 43 -118 43q-18 0 -29 -7t-11 -16zM182 281q0 -32 62 -64q51 25 51 60q0 20 -16 34.5t-47 29.5q-50 -24 -50 -60z" />
    <glyph glyph-name="dieresis" unicode="&#xa8;" 
d="M150 715q38 0 59.5 -21t21.5 -60q0 -42 -23.5 -66.5t-64.5 -24.5q-81 0 -81 83q0 42 23.5 65.5t64.5 23.5zM344 715q38 0 59 -21.5t21 -59.5q0 -42 -23.5 -66.5t-63.5 -24.5t-61 21.5t-21 61.5q0 42 24 65.5t65 23.5z" />
    <glyph glyph-name="copyright" unicode="&#xa9;" horiz-adv-x="695" 
d="M354 598q137 0 221 -84t84 -221t-84 -221t-221 -84t-220.5 84t-83.5 221t83.5 221t220.5 84zM354 537q-108 0 -175 -67.5t-67 -176.5t67 -176.5t175 -67.5q109 0 176 67.5t67 176.5t-67 176.5t-176 67.5zM384 464q37 0 84 -9l-22 -100l-7 -5q-25 12 -60 12
q-26 0 -36.5 -11.5t-10.5 -43.5q0 -40 13 -58t43 -18t58 5l10 -6l-10 -99q-12 -2 -68 -2q-179 0 -179 163q0 81 48.5 126.5t136.5 45.5z" />
    <glyph glyph-name="ordfeminine" unicode="&#xaa;" horiz-adv-x="337" 
d="M350 646l-33 -247l-3 -75l-110 -7l12 95h-10q-32 -62 -66 -99h-15q-50 13 -69.5 41t-19.5 73q0 72 43 134.5t125 86.5h5l67 -11l66 14zM155 411q24 0 78 125l3 22l-48 11q-50 0 -50 -98q0 -60 17 -60z" />
    <glyph glyph-name="guillemetleft" unicode="&#xab;" horiz-adv-x="466" 
d="M29 221l4 27l147 177l85 -47l2 -17l-96 -131l64 -130l-6 -17l-96 -47zM234 221l4 27l147 177l85 -47l2 -17l-96 -131l64 -130l-6 -17l-96 -47z" />
    <glyph glyph-name="logicalnot" unicode="&#xac;" horiz-adv-x="481" 
d="M450 311l-34 -273l-117 -9l-12 12l19 149h-284l-11 13l24 117h410z" />
    <glyph glyph-name="softhyphen" unicode="&#xad;" horiz-adv-x="300" 
d="M284 326l-13 -120l-240 -38l-12 14l14 120l239 38z" />
    <glyph glyph-name="registered" unicode="&#xae;" horiz-adv-x="454" 
d="M227 703q86 0 139 -53t53 -139t-53 -139t-139 -53t-139 53t-53 139t53 139t139 53zM227 361q67 0 108.5 41.5t41.5 108.5t-41.5 108.5t-108.5 41.5t-108.5 -41.5t-41.5 -108.5t41.5 -108.5t108.5 -41.5zM320 553q0 -36 -36 -58q25 -35 48 -62l-1 -7q-19 -7 -62 -11l-8 5
q-17 30 -29 56h-25l3 -57h-64l3 56l-3 140l100 1q35 0 54.5 -16.5t19.5 -46.5zM253 548q0 21 -30 22l-14 -1l-1 -48l27 -2q18 11 18 29z" />
    <glyph glyph-name="macron" unicode="&#xaf;" 
d="M392 678l-9 -107h-276l-12 13l9 106h276z" />
    <glyph glyph-name="degree" unicode="&#xb0;" horiz-adv-x="293" 
d="M198 659q52 0 86 -35t34 -86q0 -61 -46 -105t-107 -44q-51 0 -85 35t-34 86q0 61 45.5 105t106.5 44zM189 580q-28 0 -46 -17.5t-18 -45.5q0 -23 13.5 -36t36.5 -13q27 0 45 17.5t18 45.5q0 22 -13.5 35.5t-35.5 13.5z" />
    <glyph glyph-name="plusminus" unicode="&#xb1;" horiz-adv-x="479" 
d="M333 469l-18 -149h147l11 -13l-24 -117h-150l-19 -152l-118 -9l-12 12l19 149h-149l-10 13l23 117h152l18 152l118 9zM427 -28l-9 -116h-430l-12 12l9 117h430z" />
    <glyph glyph-name="twosuperior" unicode="&#xb2;" horiz-adv-x="375" 
d="M250 707q55 0 90 -24t35 -68q0 -32 -22 -67t-75 -89l-40 -41l2 -3h57l72 7l6 -9l-29 -112l-108 6h-170l-26 -2l-6 5l10 84l101 89q60 54 69 70q6 10 6 18q0 18 -24 18q-43 0 -96 -40h-16l-12 108q98 50 176 50z" />
    <glyph glyph-name="threesuperior" unicode="&#xb3;" horiz-adv-x="337" 
d="M218 708q61 0 98 -25.5t37 -66.5q0 -64 -73 -100v-4q58 -19 58 -77q0 -62 -60 -99t-157 -37q-45 0 -85 8l3 102l11 8q46 -13 86 -13q61 0 61 26q0 15 -26 15h-62l-6 8l13 95l33 2q51 2 51 30q0 16 -29 16q-26 0 -80 -19h-15l-12 95q75 36 154 36z" />
    <glyph glyph-name="acute" unicode="&#xb4;" 
d="M316 753l69 -106l-3 -17q-142 -72 -223 -109l-17 1l-44 72q99 73 201 160z" />
    <glyph glyph-name="micro" unicode="&#xb5;" horiz-adv-x="522" 
d="M506 476l-47 -360l-4 -109l-177 -11l16 121h-13q-47 -64 -100 -116l-10 -75l-4 -109l-177 -11l72 546l4 113l177 11l-36 -277q-3 -23 18 -23q29 0 89 95l11 81l4 113z" />
    <glyph glyph-name="paragraph" unicode="&#xb6;" horiz-adv-x="564" 
d="M605 634l-29 -134h-59l-43 -287l-6 -69q-11 -88 -68.5 -142.5t-191.5 -96.5l-39 89l2 16q56 26 81 54t31 73l7 56l31 308h-32q-49 -22 -49 -105q0 -60 34 -109l-81 -97q-78 22 -120 74.5t-42 126.5q0 121 80 188.5t224 67.5h260z" />
    <glyph glyph-name="periodcentered" unicode="&#xb7;" horiz-adv-x="230" 
d="M122 359q44 0 68 -24.5t24 -69.5q0 -48 -27 -76t-73 -28t-70 24.5t-24 70.5q0 48 27.5 75.5t74.5 27.5z" />
    <glyph glyph-name="cedilla" unicode="&#xb8;" 
d="M170 -43l34 -19q44 -23 44 -63q0 -37 -29.5 -60.5t-80.5 -23.5q-49 0 -92 24l11 75l8 3q33 -28 60 -28q16 0 16 14q0 9 -12 15l-50 27l22 112h83z" />
    <glyph glyph-name="onesuperior" unicode="&#xb9;" horiz-adv-x="295" 
d="M292 692l-37 -244l-11 -141h-149l21 127l14 114l-81 -12l-9 6l14 112l219 52z" />
    <glyph glyph-name="ordmasculine" unicode="&#xba;" horiz-adv-x="323" 
d="M227 651l11 -1q102 -20 102 -121q0 -98 -50.5 -155t-139.5 -62l-10 2q-102 19 -102 128q0 92 51 148t138 61zM207 570q-36 0 -49.5 -30t-13.5 -99q0 -28 6 -39t22 -11q35 0 48 30.5t13 99.5q0 28 -5.5 38.5t-20.5 10.5z" />
    <glyph glyph-name="guillemetright" unicode="&#xbb;" horiz-adv-x="466" 
d="M232 243l-4 -27l-147 -177l-85 47l-2 17l96 131l-64 130l6 17l96 47zM437 243l-4 -27l-147 -177l-84 47l-2 17l96 131l-64 130l6 17l96 47z" />
    <glyph glyph-name="onequarter" unicode="&#xbc;" horiz-adv-x="816" 
d="M670 623l-551 -717l-75 50l-4 17l552 721l71 -47zM44 483l-9 6l14 112l219 52l19 -14l-37 -244l-11 -141h-149l21 127l14 114zM772 69l-46 1l-3 -61l-9 -9l-115 -6l-7 8l11 70h-86l-84 -3l-7 11l10 88l194 225h135l-30 -215h49l6 -12zM561 178h58l7 65h-8z" />
    <glyph glyph-name="onehalf" unicode="&#xbd;" horiz-adv-x="807" 
d="M664 647l7 -24l-551 -717l-75 50l-4 17l552 721zM287 639l-37 -244l-11 -141h-149l21 127l14 114l-81 -12l-9 6l14 112l219 52zM645 400q55 0 90 -24t35 -68q0 -32 -22 -67t-75 -89l-40 -41l2 -3h57l72 7l6 -9l-29 -112l-108 6h-170l-26 -2l-6 5l10 84l101 89
q60 54 69 70q6 10 6 18q0 18 -24 18q-43 0 -96 -40h-16l-12 108q98 50 176 50z" />
    <glyph glyph-name="threequarters" unicode="&#xbe;" horiz-adv-x="858" 
d="M712 623l-551 -717l-75 50l-4 17l552 721l71 -47zM333 382q0 -62 -60 -99t-157 -37q-45 0 -85 8l3 102l11 8q46 -13 86 -13q61 0 61 26q0 15 -26 15h-62l-6 8l13 95l33 2q51 2 51 30q0 16 -29 16q-26 0 -80 -19h-15l-12 95q75 36 154 36q61 0 98 -25.5t37 -66.5
q0 -63 -73 -100v-4q58 -19 58 -77zM814 69l-46 1l-3 -61l-9 -9l-115 -6l-7 8l11 70h-86l-84 -3l-7 11l10 88l194 225h135l-30 -215h49l6 -12zM603 178h58l7 65h-8z" />
    <glyph glyph-name="questiondown" unicode="&#xbf;" horiz-adv-x="351" 
d="M199 286q-44 0 -68 25t-24 69q0 48 27 76t73 28t70 -24.5t24 -70.5q0 -47 -27.5 -75t-74.5 -28zM238 -193l-18 -9q-137 6 -209.5 45.5t-72.5 108.5q0 47 31 88t87 68l62 30l3 6l3 71l138 20l11 -12l-4 -137l-8 -11l-88 -35q-56 -22 -56 -59q0 -25 34 -38.5t121 -19.5
l12 -18z" />
    <glyph glyph-name="Agrave" unicode="&#xc0;" horiz-adv-x="626" 
d="M501 716l-17 -4q-106 27 -238 69l-6 16l49 116l17 4q95 -56 225 -122zM587 0h-202l-4 107v4l-99 2l-83 -4l-31 -109h-195l276 647h241zM368 256l-18 213h-12l-83 -213l57 -1z" />
    <glyph glyph-name="Aacute" unicode="&#xc1;" horiz-adv-x="626" 
d="M273 716l-30 79q114 56 225 122l17 -4l49 -116l-6 -16q-132 -42 -238 -69zM587 0h-202l-4 107v4l-99 2l-83 -4l-31 -109h-195l276 647h241zM368 256l-18 213h-12l-83 -213l57 -1z" />
    <glyph glyph-name="Acircumflex" unicode="&#xc2;" horiz-adv-x="626" 
d="M241 720l-25 76q99 67 158 118h34q58 -55 148 -118l-43 -76h-18q-19 10 -54 30t-54 30q-21 -10 -64 -30t-64 -30h-18zM587 0h-202l-4 107v4l-99 2l-83 -4l-31 -109h-195l276 647h241zM368 256l-18 213h-12l-83 -213l57 -1z" />
    <glyph glyph-name="Atilde" unicode="&#xc3;" horiz-adv-x="626" 
d="M246 702l-57 55v16l81 112l16 6q26 -3 83 -18.5t70 -15.5q4 0 8 1t8.5 3t8 4t8 6.5l7 7t7.5 8.5t7 9t7.5 9.5t7.5 9.5h16l57 -54v-16l-81 -113l-16 -6q-26 3 -83 18.5t-70 15.5q-4 0 -8 -1t-8.5 -3t-8 -4t-8 -6.5l-7 -7t-7.5 -8.5t-7 -9t-7.5 -9.5t-7.5 -9.5h-16zM587 0
h-202l-4 107v4l-99 2l-83 -4l-31 -109h-195l276 647h241zM368 256l-18 213h-12l-83 -213l57 -1z" />
    <glyph glyph-name="Adieresis" unicode="&#xc4;" horiz-adv-x="626" 
d="M284 718q-81 0 -81 83q0 42 23.5 65.5t64.5 23.5q38 0 59.5 -21t21.5 -60q0 -42 -23.5 -66.5t-64.5 -24.5zM478 718q-40 0 -61 21.5t-21 61.5q0 42 24 65.5t65 23.5q38 0 59 -21.5t21 -59.5q0 -42 -23.5 -66.5t-63.5 -24.5zM587 0h-202l-4 107v4l-99 2l-83 -4l-31 -109
h-195l276 647h241zM368 256l-18 213h-12l-83 -213l57 -1z" />
    <glyph glyph-name="Aring" unicode="&#xc5;" horiz-adv-x="626" 
d="M382 713q-106 0 -106 107q0 110 114 110q106 0 106 -103q0 -55 -29 -84.5t-85 -29.5zM385 853q-19 0 -26.5 -6.5t-7.5 -23.5q0 -19 8 -26.5t28 -7.5q19 0 26.5 7t7.5 24q0 18 -8 25.5t-28 7.5zM587 0h-202l-4 107v4l-99 2l-83 -4l-31 -109h-195l276 647h241zM368 256
l-18 213h-12l-83 -213l57 -1z" />
    <glyph glyph-name="AE" unicode="&#xc6;" horiz-adv-x="838" 
d="M817 159l10 -14l-30 -145h-435l8 107l3 67l-178 -52l-1 -3l-48 -119h-195l355 647h518l9 -14l-30 -145l-149 6h-75l-6 -114l175 53l13 -11l1 -138l-197 -55l-4 -76h91zM379 322l6 147h-12l-90 -175z" />
    <glyph glyph-name="Ccedilla" unicode="&#xc7;" horiz-adv-x="516" 
d="M396 658q95 0 168 -27l-53 -159l-14 -7q-54 31 -119 31q-76 0 -107.5 -48t-31.5 -153q0 -73 26.5 -107t82.5 -34q66 0 127 21l14 -9l-35 -158q-53 -16 -108 -19l-6 -31l34 -19q44 -23 44 -63q0 -37 -29.5 -60.5t-80.5 -23.5q-49 0 -92 24l11 75l8 3q33 -28 60 -28
q16 0 16 14q0 9 -12 15l-50 27l14 70q-116 14 -177 83.5t-61 187.5q0 186 96.5 290.5t274.5 104.5z" />
    <glyph glyph-name="Egrave" unicode="&#xc8;" horiz-adv-x="540" 
d="M473 716l-17 -4q-106 27 -238 69l-6 16l49 116l17 4q95 -56 225 -122zM291 494l-13 -92h98l105 3l9 -14l-30 -146l-115 3h-90l-6 -38l-5 -57h96l167 6l9 -14l-30 -145h-455l33 190l47 457h463l9 -14l-31 -145l-158 6h-103z" />
    <glyph glyph-name="Eacute" unicode="&#xc9;" horiz-adv-x="540" 
d="M245 716l-30 79q114 56 225 122l17 -4l49 -116l-6 -16q-132 -42 -238 -69zM291 494l-13 -92h98l105 3l9 -14l-30 -146l-115 3h-90l-6 -38l-5 -57h96l167 6l9 -14l-30 -145h-455l33 190l47 457h463l9 -14l-31 -145l-158 6h-103z" />
    <glyph glyph-name="Ecircumflex" unicode="&#xca;" horiz-adv-x="540" 
d="M213 720l-25 76q99 67 158 118h34q58 -55 148 -118l-43 -76h-18q-19 10 -54 30t-54 30q-21 -10 -64 -30t-64 -30h-18zM291 494l-13 -92h98l105 3l9 -14l-30 -146l-115 3h-90l-6 -38l-5 -57h96l167 6l9 -14l-30 -145h-455l33 190l47 457h463l9 -14l-31 -145l-158 6h-103z
" />
    <glyph glyph-name="Edieresis" unicode="&#xcb;" horiz-adv-x="540" 
d="M256 718q-81 0 -81 83q0 42 23.5 65.5t64.5 23.5q38 0 59.5 -21t21.5 -60q0 -42 -23.5 -66.5t-64.5 -24.5zM450 718q-40 0 -61 21.5t-21 61.5q0 42 24 65.5t65 23.5q38 0 59 -21.5t21 -59.5q0 -42 -23.5 -66.5t-63.5 -24.5zM291 494l-13 -92h98l105 3l9 -14l-30 -146
l-115 3h-90l-6 -38l-5 -57h96l167 6l9 -14l-30 -145h-455l33 190l47 457h463l9 -14l-31 -145l-158 6h-103z" />
    <glyph glyph-name="Igrave" unicode="&#xcc;" horiz-adv-x="327" 
d="M135 913l17 4q95 -56 225 -122l-30 -79l-17 -4q-106 27 -238 69l-6 16zM249 210l-18 -210h-200l34 190l46 457h203z" />
    <glyph glyph-name="Iacute" unicode="&#xcd;" horiz-adv-x="327" 
d="M331 913l49 -116l-6 -16q-132 -42 -238 -69l-17 4l-30 79q114 56 225 122zM249 210l-18 -210h-200l34 190l46 457h203z" />
    <glyph glyph-name="Icircumflex" unicode="&#xce;" horiz-adv-x="327" 
d="M87 720l-25 76q99 67 158 118h34q58 -55 148 -118l-43 -76h-18q-19 10 -54 30t-54 30q-21 -10 -64 -30t-64 -30h-18zM249 210l-18 -210h-200l34 190l46 457h203z" />
    <glyph glyph-name="Eth" unicode="&#xd0;" horiz-adv-x="698" 
d="M142 647l283 4q128 0 199.5 -66t71.5 -188q0 -191 -98 -298.5t-282 -107.5q-114 0 -253 9l33 190l6 59h-76l-8 13l18 117h79zM361 139q124 0 124 229q0 69 -20.5 98.5t-66.5 29.5q-37 0 -76 -4l-17 -113h76l7 -13l-17 -117h-85l-6 -39l-5 -63q60 -8 86 -8z" />
    <glyph glyph-name="Ntilde" unicode="&#xd1;" horiz-adv-x="710" 
d="M622 861v-16l-81 -113l-16 -6q-26 3 -83 18.5t-70 15.5q-4 0 -8 -1t-8.5 -3t-8 -4t-8 -6.5l-7 -7t-7.5 -8.5t-7 -9t-7.5 -9.5t-7.5 -9.5h-16l-57 55v16l81 112l16 6q26 -3 83 -18.5t70 -15.5q4 0 8 1t8.5 3t8 4t8 6.5l7 7t7.5 8.5t7 9t7.5 9.5t7.5 9.5h16zM636 211
l-18 -211h-217l-140 348h-12l-15 -114l-21 -234h-181l33 190l46 457h217l141 -348h12l36 341l184 11z" />
    <glyph glyph-name="Ograve" unicode="&#xd2;" horiz-adv-x="658" 
d="M303 913l17 4q95 -56 225 -122l-30 -79l-17 -4q-106 27 -238 69l-6 16zM380 659q131 0 202.5 -70.5t71.5 -214.5q0 -172 -93.5 -279t-261.5 -107q-131 0 -203 71.5t-72 216.5q0 171 94 277t262 106zM357 500q-61 0 -92.5 -47t-31.5 -180q0 -79 17.5 -108.5t69.5 -29.5
q29 0 49.5 9t38.5 32t27 69.5t9 116.5q0 79 -17.5 108.5t-69.5 29.5z" />
    <glyph glyph-name="Oacute" unicode="&#xd3;" horiz-adv-x="658" 
d="M499 913l49 -116l-6 -16q-132 -42 -238 -69l-17 4l-30 79q114 56 225 122zM380 659q131 0 202.5 -70.5t71.5 -214.5q0 -172 -93.5 -279t-261.5 -107q-131 0 -203 71.5t-72 216.5q0 171 94 277t262 106zM357 500q-61 0 -92.5 -47t-31.5 -180q0 -79 17.5 -108.5t69.5 -29.5
q29 0 49.5 9t38.5 32t27 69.5t9 116.5q0 79 -17.5 108.5t-69.5 29.5z" />
    <glyph glyph-name="Ocircumflex" unicode="&#xd4;" horiz-adv-x="658" 
d="M255 720l-25 76q99 67 158 118h34q58 -55 148 -118l-43 -76h-18q-19 10 -54.5 30t-53.5 30q-20 -10 -64 -30t-64 -30h-18zM380 659q131 0 202.5 -70.5t71.5 -214.5q0 -172 -93.5 -279t-261.5 -107q-131 0 -203 71.5t-72 216.5q0 171 94 277t262 106zM357 500
q-61 0 -92.5 -47t-31.5 -180q0 -79 17.5 -108.5t69.5 -29.5q29 0 49.5 9t38.5 32t27 69.5t9 116.5q0 79 -17.5 108.5t-69.5 29.5z" />
    <glyph glyph-name="Otilde" unicode="&#xd5;" horiz-adv-x="658" 
d="M595 861v-16l-81 -113l-16 -6q-26 3 -83 18.5t-70 15.5q-4 0 -8 -1t-8.5 -3t-8 -4t-8 -6.5l-7 -7t-7.5 -8.5t-7 -9t-7.5 -9.5t-7.5 -9.5h-16l-57 55v16l81 112l16 6q26 -3 83 -18.5t70 -15.5q4 0 8 1t8.5 3t8 4t8 6.5l7 7t7.5 8.5t7 9t7.5 9.5t7.5 9.5h16zM380 659
q131 0 202.5 -70.5t71.5 -214.5q0 -172 -93.5 -279t-261.5 -107q-131 0 -203 71.5t-72 216.5q0 171 94 277t262 106zM357 500q-61 0 -92.5 -47t-31.5 -180q0 -79 17.5 -108.5t69.5 -29.5q29 0 49.5 9t38.5 32t27 69.5t9 116.5q0 79 -17.5 108.5t-69.5 29.5z" />
    <glyph glyph-name="multiply" unicode="&#xd7;" horiz-adv-x="481" 
d="M455 378l-1 -18l-118 -105l91 -105l-2 -18l-99 -76l-93 108l-122 -109l-79 77l2 17l119 106l-93 105l2 18l98 76l95 -107l120 107z" />
    <glyph glyph-name="Oslash" unicode="&#xd8;" horiz-adv-x="658" 
d="M633 687l-56 -93q77 -72 77 -220q0 -172 -93.5 -279t-261.5 -107q-42 0 -82 8l-79 -131l-98 47l-6 17l73 120q-83 74 -83 227q0 171 94 277t262 106q48 0 88 -9l62 102l94 -46zM320 135q29 0 49.5 9t38.5 32t27 69.5t9 116.5q0 79 -17.5 108.5t-69.5 29.5
q-61 0 -92.5 -47t-31.5 -180q0 -79 17.5 -108.5t69.5 -29.5z" />
    <glyph glyph-name="Ugrave" unicode="&#xd9;" horiz-adv-x="653" 
d="M301 913l17 4q95 -56 225 -122l-30 -79l-17 -4q-106 27 -238 69l-6 16zM610 319l-13 -103q-14 -111 -90 -169.5t-210 -58.5q-119 0 -185.5 48t-66.5 137q0 21 3 43l15 103l34 328h200l-58 -404q-2 -20 -2 -27q0 -37 18 -54t59 -17q47 0 71 23t29 75l40 404h203z" />
    <glyph glyph-name="Uacute" unicode="&#xda;" horiz-adv-x="653" 
d="M497 913l49 -116l-6 -16q-132 -42 -238 -69l-17 4l-30 79q114 56 225 122zM610 319l-13 -103q-14 -111 -90 -169.5t-210 -58.5q-119 0 -185.5 48t-66.5 137q0 21 3 43l15 103l34 328h200l-58 -404q-2 -20 -2 -27q0 -37 18 -54t59 -17q47 0 71 23t29 75l40 404h203z" />
    <glyph glyph-name="Ucircumflex" unicode="&#xdb;" horiz-adv-x="653" 
d="M253 720l-25 76q99 67 158 118h34q58 -55 148 -118l-43 -76h-18q-18 10 -53.5 30t-54.5 30q-21 -10 -64 -30t-64 -30h-18zM610 319l-13 -103q-14 -111 -90 -169.5t-210 -58.5q-119 0 -185.5 48t-66.5 137q0 21 3 43l15 103l34 328h200l-58 -404q-2 -20 -2 -27
q0 -37 18 -54t59 -17q47 0 71 23t29 75l40 404h203z" />
    <glyph glyph-name="Udieresis" unicode="&#xdc;" horiz-adv-x="653" 
d="M303 890q38 0 59.5 -21t21.5 -60q0 -42 -23.5 -66.5t-64.5 -24.5q-81 0 -81 83q0 42 23.5 65.5t64.5 23.5zM497 890q38 0 59 -21.5t21 -59.5q0 -42 -23.5 -66.5t-63.5 -24.5t-61 21.5t-21 61.5q0 42 24 65.5t65 23.5zM610 319l-13 -103q-14 -111 -90 -169.5t-210 -58.5
q-119 0 -185.5 48t-66.5 137q0 21 3 43l15 103l34 328h200l-58 -404q-2 -20 -2 -27q0 -37 18 -54t59 -17q47 0 71 23t29 75l40 404h203z" />
    <glyph glyph-name="Thorn" unicode="&#xde;" horiz-adv-x="603" 
d="M302 556h105q98 0 153.5 -45t55.5 -128q0 -126 -85 -204t-223 -78h-66l-9 -101h-202l34 190l46 457h205zM256 242l86 -5q66 32 66 114q0 34 -18.5 50.5t-57.5 18.5l-50 -4z" />
    <glyph glyph-name="germandbls" unicode="&#xdf;" horiz-adv-x="624" 
d="M352 523q112 0 242 -60l5 -20l-114 -134q71 -53 95.5 -82t24.5 -65q0 -88 -66.5 -130.5t-163.5 -42.5q-83 0 -155 29l45 160l15 9q58 -53 100 -53q23 0 23 16q0 4 -2 8t-7.5 8.5t-12 9t-18.5 12t-23.5 14.5t-31.5 19t-38 23l-1 17l95 112q-24 6 -48 6q-42 0 -60 -14
t-22 -50l-23 -147l-13 -168h-185l28 150l16 165q12 97 87.5 152.5t207.5 55.5z" />
    <glyph glyph-name="agrave" unicode="&#xe0;" horiz-adv-x="549" 
d="M408 563l-17 -1q-81 37 -223 109l-3 17l69 106l17 1q102 -87 201 -160zM321 0l-2 74l-79 2l-65 -3l-20 -73h-177l224 513h220l83 -513h-184zM266 205l42 1l-14 146h-11l-58 -146z" />
    <glyph glyph-name="aacute" unicode="&#xe1;" horiz-adv-x="549" 
d="M228 563l-44 72q99 73 201 160l17 -1l69 -106l-3 -17q-142 -72 -223 -109zM321 0l-2 74l-79 2l-65 -3l-20 -73h-177l224 513h220l83 -513h-184zM266 205l42 1l-14 146h-11l-58 -146z" />
    <glyph glyph-name="acircumflex" unicode="&#xe2;" horiz-adv-x="549" 
d="M186 571l-38 72q56 43 178 149h34q52 -59 147 -149l-56 -72h-18q-74 52 -105 78q-36 -26 -124 -78h-18zM422 513l83 -513h-184l-2 74l-79 2l-65 -3l-20 -73h-177l224 513h220zM266 205l42 1l-14 146h-11l-58 -146z" />
    <glyph glyph-name="atilde" unicode="&#xe3;" horiz-adv-x="549" 
d="M523 727v-16l-81 -113l-16 -6q-26 3 -83 18.5t-70 15.5q-4 0 -8 -1t-8.5 -3t-8 -4t-8 -6.5l-7 -7t-7.5 -8.5t-7 -9t-7.5 -9.5t-7.5 -9.5h-16l-57 55v16l81 112l16 6q26 -3 83 -18.5t70 -15.5q4 0 8 1t8.5 3t8 4t8 6.5l7 7t7.5 8.5t7 9t7.5 9.5t7.5 9.5h16zM422 513
l83 -513h-184l-2 74l-79 2l-65 -3l-20 -73h-177l224 513h220zM266 205l42 1l-14 146h-11l-58 -146z" />
    <glyph glyph-name="adieresis" unicode="&#xe4;" horiz-adv-x="549" 
d="M226 584q-81 0 -81 83q0 42 23.5 65.5t64.5 23.5q38 0 59.5 -21t21.5 -60q0 -42 -23.5 -66.5t-64.5 -24.5zM420 584q-40 0 -61 21.5t-21 61.5q0 42 24 65.5t65 23.5q38 0 59 -21.5t21 -59.5q0 -42 -23.5 -66.5t-63.5 -24.5zM422 513l83 -513h-184l-2 74l-79 2l-65 -3
l-20 -73h-177l224 513h220zM266 205l42 1l-14 146h-11l-58 -146z" />
    <glyph glyph-name="aring" unicode="&#xe5;" horiz-adv-x="549" 
d="M324 579q-106 0 -106 107q0 110 114 110q106 0 106 -103q0 -55 -29 -84.5t-85 -29.5zM327 719q-19 0 -26.5 -6.5t-7.5 -23.5q0 -19 8 -26.5t28 -7.5q19 0 26.5 7t7.5 24q0 18 -8 25.5t-28 7.5zM321 0l-2 74l-79 2l-65 -3l-20 -73h-177l224 513h220l83 -513h-184zM266 205
l42 1l-14 146h-11l-58 -146z" />
    <glyph glyph-name="ae" unicode="&#xe6;" horiz-adv-x="724" 
d="M705 133l7 -12l-25 -121h-371l8 88l1 45l-165 -47l-35 -86h-164l303 512h440l9 -13l-26 -121l-129 6h-65l-3 -82l152 44l11 -10v-115l-168 -44l-2 -49h79zM328 256l3 107h-11l-77 -131z" />
    <glyph glyph-name="ccedilla" unicode="&#xe7;" horiz-adv-x="448" 
d="M312 373q-50 0 -73 -29t-23 -94q0 -56 18.5 -82t66.5 -26q51 0 99 15l14 -8l-33 -151q-29 -5 -82 -8l-6 -32l34 -19q44 -23 44 -63q0 -37 -29.5 -60.5t-80.5 -23.5q-49 0 -92 24l11 75l8 3q33 -28 60 -28q16 0 16 14q0 9 -12 15l-50 27l14 72q-198 27 -198 230
q0 137 82.5 217.5t234.5 80.5q79 0 140 -16l-49 -151l-13 -8q-42 26 -101 26z" />
    <glyph glyph-name="egrave" unicode="&#xe8;" horiz-adv-x="480" 
d="M372 563l-17 -1q-81 37 -223 109l-3 17l69 106l17 1q102 -87 201 -160zM253 372l-7 -45h80l88 3l8 -13l-27 -135l-97 3h-73l-3 -17l-2 -27h79l140 5l9 -12l-28 -134h-396l28 149l35 364h403l9 -13l-28 -134l-133 6h-85z" />
    <glyph glyph-name="eacute" unicode="&#xe9;" horiz-adv-x="480" 
d="M192 563l-44 72q99 73 201 160l17 -1l69 -106l-3 -17q-142 -72 -223 -109zM253 372l-7 -45h80l88 3l8 -13l-27 -135l-97 3h-73l-3 -17l-2 -27h79l140 5l9 -12l-28 -134h-396l28 149l35 364h403l9 -13l-28 -134l-133 6h-85z" />
    <glyph glyph-name="ecircumflex" unicode="&#xea;" horiz-adv-x="480" 
d="M150 571l-38 72q56 43 178 149h34q52 -59 147 -149l-56 -72h-18q-74 52 -105 78q-36 -26 -124 -78h-18zM253 372l-7 -45h80l88 3l8 -13l-27 -135l-97 3h-73l-3 -17l-2 -27h79l140 5l9 -12l-28 -134h-396l28 149l35 364h403l9 -13l-28 -134l-133 6h-85z" />
    <glyph glyph-name="edieresis" unicode="&#xeb;" horiz-adv-x="480" 
d="M190 584q-81 0 -81 83q0 42 23.5 65.5t64.5 23.5q38 0 59.5 -21t21.5 -60q0 -42 -23.5 -66.5t-64.5 -24.5zM384 584q-40 0 -61 21.5t-21 61.5q0 42 24 65.5t65 23.5q38 0 59 -21.5t21 -59.5q0 -42 -23.5 -66.5t-63.5 -24.5zM253 372l-7 -45h80l88 3l8 -13l-27 -135l-97 3
h-73l-3 -17l-2 -27h79l140 5l9 -12l-28 -134h-396l28 149l35 364h403l9 -13l-28 -134l-133 6h-85z" />
    <glyph glyph-name="igrave" unicode="&#xec;" horiz-adv-x="304" 
d="M103 794l17 1q102 -87 201 -160l-44 -72l-17 -1q-81 37 -223 109l-3 17zM222 168l-12 -168h-185l27 149l36 364h188z" />
    <glyph glyph-name="iacute" unicode="&#xed;" horiz-adv-x="304" 
d="M271 794l69 -106l-3 -17q-142 -72 -223 -109l-17 1l-44 72q99 73 201 160zM222 168l-12 -168h-185l27 149l36 364h188z" />
    <glyph glyph-name="icircumflex" unicode="&#xee;" horiz-adv-x="304" 
d="M55 571l-38 72q56 43 178 149h34q52 -59 147 -149l-56 -72h-18q-74 52 -105 78q-36 -26 -124 -78h-18zM222 168l-12 -168h-185l27 149l36 364h188z" />
    <glyph glyph-name="eth" unicode="&#xf0;" horiz-adv-x="591" 
d="M101 513l244 3q109 0 170.5 -53t61.5 -150q0 -152 -82 -236.5t-238 -84.5q-83 0 -219 8l27 149l5 46h-59l-8 13l20 100h58zM298 128q40 0 62 34.5t22 122.5q0 48 -14.5 68t-46.5 20q-23 0 -54 -3l-10 -62h86l7 -13l-19 -100h-91l-5 -27l-2 -32q46 -8 65 -8z" />
    <glyph glyph-name="ntilde" unicode="&#xf1;" horiz-adv-x="616" 
d="M554 727v-16l-81 -113l-16 -6q-26 3 -83 18.5t-70 15.5q-4 0 -8 -1t-8.5 -3t-8 -4t-8 -6.5l-7 -7t-7.5 -8.5t-7 -9t-7.5 -9.5t-7.5 -9.5h-16l-57 55v16l81 112l16 6q26 -3 83 -18.5t70 -15.5q4 0 8 1t8.5 3t8 4t8 6.5l7 7t7.5 8.5t7 9t7.5 9.5t7.5 9.5h16zM544 171
l-14 -171h-198l-109 241h-9l-8 -52l-17 -189h-165l28 150l35 363h198l110 -242h11l22 235l169 10z" />
    <glyph glyph-name="ograve" unicode="&#xf2;" horiz-adv-x="568" 
d="M239 794l17 1q102 -87 201 -160l-44 -72l-17 -1q-81 37 -223 109l-3 17zM318 523q113 0 174.5 -57.5t61.5 -173.5q0 -134 -80 -218.5t-221 -84.5q-113 0 -174.5 58t-61.5 175q0 135 79.5 218t221.5 83zM295 377q-21 0 -34.5 -5t-26 -20t-18.5 -46.5t-6 -81.5
q0 -61 13 -80t54 -19q21 0 34 5t25 20t18 47t6 82q0 59 -12.5 78.5t-52.5 19.5z" />
    <glyph glyph-name="oacute" unicode="&#xf3;" horiz-adv-x="568" 
d="M407 794l69 -106l-3 -17q-142 -72 -223 -109l-17 1l-44 72q99 73 201 160zM318 523q113 0 174.5 -57.5t61.5 -173.5q0 -134 -80 -218.5t-221 -84.5q-113 0 -174.5 58t-61.5 175q0 135 79.5 218t221.5 83zM295 377q-21 0 -34.5 -5t-26 -20t-18.5 -46.5t-6 -81.5
q0 -61 13 -80t54 -19q21 0 34 5t25 20t18 47t6 82q0 59 -12.5 78.5t-52.5 19.5z" />
    <glyph glyph-name="ocircumflex" unicode="&#xf4;" horiz-adv-x="568" 
d="M191 571l-38 72q56 43 178 149h34q52 -59 147 -149l-56 -72h-18q-74 52 -105 78q-36 -26 -124 -78h-18zM318 523q113 0 174.5 -57.5t61.5 -173.5q0 -134 -80 -218.5t-221 -84.5q-113 0 -174.5 58t-61.5 175q0 135 79.5 218t221.5 83zM295 377q-21 0 -34.5 -5t-26 -20
t-18.5 -46.5t-6 -81.5q0 -61 13 -80t54 -19q21 0 34 5t25 20t18 47t6 82q0 59 -12.5 78.5t-52.5 19.5z" />
    <glyph glyph-name="otilde" unicode="&#xf5;" horiz-adv-x="568" 
d="M528 727v-16l-81 -113l-16 -6q-26 3 -83 18.5t-70 15.5q-4 0 -8 -1t-8.5 -3t-8 -4t-8 -6.5l-7 -7t-7.5 -8.5t-7 -9t-7.5 -9.5t-7.5 -9.5h-16l-57 55v16l81 112l16 6q26 -3 83 -18.5t70 -15.5q4 0 8 1t8.5 3t8 4t8 6.5l7 7t7.5 8.5t7 9t7.5 9.5t7.5 9.5h16zM318 523
q113 0 174.5 -57.5t61.5 -173.5q0 -134 -80 -218.5t-221 -84.5q-113 0 -174.5 58t-61.5 175q0 135 79.5 218t221.5 83zM295 377q-21 0 -34.5 -5t-26 -20t-18.5 -46.5t-6 -81.5q0 -61 13 -80t54 -19q21 0 34 5t25 20t18 47t6 82q0 59 -12.5 78.5t-52.5 19.5z" />
    <glyph glyph-name="divide" unicode="&#xf7;" horiz-adv-x="478" 
d="M265 497q36 0 55.5 -20t19.5 -57q0 -39 -22 -62t-60 -23q-76 0 -76 78q0 39 22 61.5t61 22.5zM468 307l-9 -117h-430l-12 13l9 117h430zM225 172q36 0 55.5 -20t19.5 -57q0 -39 -22 -62t-60 -23q-37 0 -57 20t-20 57q0 40 22.5 62.5t61.5 22.5z" />
    <glyph glyph-name="oslash" unicode="&#xf8;" horiz-adv-x="568" 
d="M565 539l-62 -85q51 -57 51 -162q0 -134 -80 -218.5t-221 -84.5q-45 0 -83 9l-85 -116l-85 59l-2 16l72 99q-53 59 -53 166q0 135 79.5 218t221.5 83q49 0 86 -10l74 101l80 -58zM277 125q21 0 34 5t25 20t18 47t6 82q0 59 -12.5 78.5t-52.5 19.5q-21 0 -34.5 -5t-26 -20
t-18.5 -46.5t-6 -81.5q0 -61 13 -80t54 -19z" />
    <glyph glyph-name="ugrave" unicode="&#xf9;" horiz-adv-x="566" 
d="M241 794l17 1q102 -87 201 -160l-44 -72l-17 -1q-81 37 -223 109l-3 17zM519 253l-11 -84q-11 -88 -76.5 -134t-181.5 -46q-102 0 -159 38t-57 109q0 16 3 33l12 83l27 261h184l-47 -319q-1 -6 -1 -16q0 -24 13 -34t44 -10q35 0 51 14t19 46l31 319h187z" />
    <glyph glyph-name="uacute" unicode="&#xfa;" horiz-adv-x="566" 
d="M409 794l69 -106l-3 -17q-142 -72 -223 -109l-17 1l-44 72q99 73 201 160zM519 253l-11 -84q-11 -88 -76.5 -134t-181.5 -46q-102 0 -159 38t-57 109q0 16 3 33l12 83l27 261h184l-47 -319q-1 -6 -1 -16q0 -24 13 -34t44 -10q35 0 51 14t19 46l31 319h187z" />
    <glyph glyph-name="ucircumflex" unicode="&#xfb;" horiz-adv-x="566" 
d="M193 571l-38 72q56 43 178 149h34q52 -59 147 -149l-56 -72h-18q-74 52 -105 78q-36 -26 -124 -78h-18zM519 253l-11 -84q-11 -88 -76.5 -134t-181.5 -46q-102 0 -159 38t-57 109q0 16 3 33l12 83l27 261h184l-47 -319q-1 -6 -1 -16q0 -24 13 -34t44 -10q35 0 51 14
t19 46l31 319h187z" />
    <glyph glyph-name="udieresis" unicode="&#xfc;" horiz-adv-x="566" 
d="M240 756q38 0 59.5 -21t21.5 -60q0 -42 -23.5 -66.5t-64.5 -24.5q-81 0 -81 83q0 42 23.5 65.5t64.5 23.5zM434 756q38 0 59 -21.5t21 -59.5q0 -42 -23.5 -66.5t-63.5 -24.5t-61 21.5t-21 61.5q0 42 24 65.5t65 23.5zM519 253l-11 -84q-11 -88 -76.5 -134t-181.5 -46
q-102 0 -159 38t-57 109q0 16 3 33l12 83l27 261h184l-47 -319q-1 -6 -1 -16q0 -24 13 -34t44 -10q35 0 51 14t19 46l31 319h187z" />
    <glyph glyph-name="thorn" unicode="&#xfe;" horiz-adv-x="533" 
d="M267 445h70q86 0 139 -42.5t53 -117.5q0 -92 -76 -151t-194 -59h-42l-6 -75h-187l27 149l36 364h190zM230 204l64 -4q41 29 41 76q0 23 -8.5 32.5t-35.5 12.5l-43 -3z" />
    <glyph glyph-name="ydieresis" unicode="&#xff;" horiz-adv-x="524" 
d="M212 584q-81 0 -81 83q0 42 23.5 65.5t64.5 23.5q38 0 59.5 -21t21.5 -60q0 -42 -23.5 -66.5t-64.5 -24.5zM406 584q-40 0 -61 21.5t-21 61.5q0 42 24 65.5t65 23.5q38 0 59 -21.5t21 -59.5q0 -42 -23.5 -66.5t-63.5 -24.5zM330 150l-4 -19l-8 -131h-184l25 131l2 21
l-130 361h193l8 -47l37 -134h10l76 127l27 54h188z" />
    <glyph glyph-name="Amacron" unicode="&#x100;" horiz-adv-x="626" 
d="M248 746l-12 13l9 106h276l12 -12l-9 -107h-276zM587 0h-202l-4 107v4l-99 2l-83 -4l-31 -109h-195l276 647h241zM368 256l-18 213h-12l-83 -213l57 -1z" />
    <glyph glyph-name="amacron" unicode="&#x101;" horiz-adv-x="549" 
d="M190 612l-12 13l9 106h276l12 -12l-9 -107h-276zM321 0l-2 74l-79 2l-65 -3l-20 -73h-177l224 513h220l83 -513h-184zM266 205l42 1l-14 146h-11l-58 -146z" />
    <glyph glyph-name="Abreve" unicode="&#x102;" horiz-adv-x="626" 
d="M379 716q-65 0 -110 32t-62 92l48 59h27q28 -50 107 -50q77 0 114 50h27l32 -59q-57 -124 -183 -124zM587 0h-202l-4 107v4l-99 2l-83 -4l-31 -109h-195l276 647h241zM368 256l-18 213h-12l-83 -213l57 -1z" />
    <glyph glyph-name="abreve" unicode="&#x103;" horiz-adv-x="549" 
d="M315 576q-75 0 -115 40t-51 96l47 61h27q12 -30 40 -46.5t64 -16.5q80 0 118 63h27l31 -61q-23 -57 -71 -96.5t-117 -39.5zM321 0l-2 74l-79 2l-65 -3l-20 -73h-177l224 513h220l83 -513h-184zM266 205l42 1l-14 146h-11l-58 -146z" />
    <glyph glyph-name="Aogonek" unicode="&#x104;" horiz-adv-x="626" 
d="M562 -79l3 -72q-65 -46 -115 -46q-45 0 -69.5 27t-24.5 73q0 42 29 97l-4 107v4l-99 2l-83 -4l-31 -109h-195l276 647h241l97 -647h-106q-25 -49 -25 -70q0 -29 32 -29q29 0 64 20h10zM368 256l-18 213h-12l-83 -213l57 -1z" />
    <glyph glyph-name="aogonek" unicode="&#x105;" horiz-adv-x="549" 
d="M478 -79l3 -72q-66 -46 -117 -46q-43 0 -68 24.5t-25 63.5q0 51 46 109h4l-2 74l-79 2l-65 -3l-20 -73h-177l224 513h220l83 -513h-92q-41 -45 -41 -71q0 -28 32 -28q29 0 64 20h10zM266 205l42 1l-14 146h-11l-58 -146z" />
    <glyph glyph-name="Cacute" unicode="&#x106;" horiz-adv-x="516" 
d="M464 913l49 -116l-6 -16q-132 -42 -238 -69l-17 4l-30 79q114 56 225 122zM396 658q95 0 168 -27l-53 -159l-14 -7q-54 31 -119 31q-76 0 -107.5 -48t-31.5 -153q0 -73 26.5 -107t82.5 -34q66 0 127 21l14 -9l-35 -158q-62 -19 -132 -19q-144 0 -220.5 71t-76.5 203
q0 186 96.5 290.5t274.5 104.5z" />
    <glyph glyph-name="cacute" unicode="&#x107;" horiz-adv-x="448" 
d="M397 794l69 -106l-3 -17q-142 -72 -223 -109l-17 1l-44 72q99 73 201 160zM335 522q79 0 140 -16l-49 -151l-13 -8q-42 26 -101 26q-50 0 -73 -29t-23 -94q0 -56 18.5 -82t66.5 -26q51 0 99 15l14 -8l-33 -151q-45 -8 -94 -8q-139 0 -204 58.5t-65 175.5
q0 137 82.5 217.5t234.5 80.5z" />
    <glyph glyph-name="Ccircumflex" unicode="&#x108;" horiz-adv-x="516" 
d="M220 720l-25 76q99 67 158 118h34q58 -55 148 -118l-43 -76h-18q-19 10 -54 30t-54 30q-21 -10 -64 -30t-64 -30h-18zM396 658q95 0 168 -27l-53 -159l-14 -7q-54 31 -119 31q-76 0 -107.5 -48t-31.5 -153q0 -73 26.5 -107t82.5 -34q66 0 127 21l14 -9l-35 -158
q-62 -19 -132 -19q-144 0 -220.5 71t-76.5 203q0 186 96.5 290.5t274.5 104.5z" />
    <glyph glyph-name="ccircumflex" unicode="&#x109;" horiz-adv-x="448" 
d="M181 571l-38 72q56 43 178 149h34q52 -59 147 -149l-56 -72h-18q-74 52 -105 78q-36 -26 -124 -78h-18zM335 522q79 0 140 -16l-49 -151l-13 -8q-42 26 -101 26q-50 0 -73 -29t-23 -94q0 -56 18.5 -82t66.5 -26q51 0 99 15l14 -8l-33 -151q-45 -8 -94 -8
q-139 0 -204 58.5t-65 175.5q0 137 82.5 217.5t234.5 80.5z" />
    <glyph glyph-name="Cdotaccent" unicode="&#x10a;" horiz-adv-x="516" 
d="M368 905q44 0 68 -24.5t24 -69.5q0 -48 -27 -76t-73 -28t-70 24.5t-24 70.5q0 48 27.5 75.5t74.5 27.5zM396 658q95 0 168 -27l-53 -159l-14 -7q-54 31 -119 31q-76 0 -107.5 -48t-31.5 -153q0 -73 26.5 -107t82.5 -34q66 0 127 21l14 -9l-35 -158q-62 -19 -132 -19
q-144 0 -220.5 71t-76.5 203q0 186 96.5 290.5t274.5 104.5z" />
    <glyph glyph-name="cdotaccent" unicode="&#x10b;" horiz-adv-x="448" 
d="M326 771q44 0 68 -24.5t24 -69.5q0 -48 -27 -76t-73 -28t-70 24.5t-24 70.5q0 48 27.5 75.5t74.5 27.5zM335 522q79 0 140 -16l-49 -151l-13 -8q-42 26 -101 26q-50 0 -73 -29t-23 -94q0 -56 18.5 -82t66.5 -26q51 0 99 15l14 -8l-33 -151q-45 -8 -94 -8
q-139 0 -204 58.5t-65 175.5q0 137 82.5 217.5t234.5 80.5z" />
    <glyph glyph-name="Ccaron" unicode="&#x10c;" horiz-adv-x="516" 
d="M509 906l25 -75q-89 -59 -158 -119h-34q-58 55 -148 119l43 75h18q12 -7 34 -19t40 -22t34 -19q23 11 67 31.5t61 28.5h18zM396 658q95 0 168 -27l-53 -159l-14 -7q-54 31 -119 31q-76 0 -107.5 -48t-31.5 -153q0 -73 26.5 -107t82.5 -34q66 0 127 21l14 -9l-35 -158
q-62 -19 -132 -19q-144 0 -220.5 71t-76.5 203q0 186 96.5 290.5t274.5 104.5z" />
    <glyph glyph-name="ccaron" unicode="&#x10d;" horiz-adv-x="448" 
d="M464 788l38 -71q-47 -36 -178 -150h-34q-47 54 -147 150l56 71h18q63 -44 103 -78q26 18 126 78h18zM335 522q79 0 140 -16l-49 -151l-13 -8q-42 26 -101 26q-50 0 -73 -29t-23 -94q0 -56 18.5 -82t66.5 -26q51 0 99 15l14 -8l-33 -151q-45 -8 -94 -8q-139 0 -204 58.5
t-65 175.5q0 137 82.5 217.5t234.5 80.5z" />
    <glyph glyph-name="Dcaron" unicode="&#x10e;" horiz-adv-x="668" 
d="M384 712h-34q-58 55 -148 119l43 75h18l108 -60q23 11 67 31.5t61 28.5h18l25 -75q-89 -59 -158 -119zM111 647l283 4q128 0 199.5 -66t71.5 -188q0 -191 -98 -298.5t-282 -107.5q-114 0 -253 9l33 190zM331 139q123 0 123 229q0 69 -20.5 98.5t-66.5 29.5q-37 0 -76 -4
l-42 -282l-5 -63q60 -8 87 -8z" />
    <glyph glyph-name="dcaron" unicode="&#x10f;" horiz-adv-x="576" 
d="M332 567h-34q-47 54 -147 150l56 71h18q63 -44 103 -78q26 18 126 78h18l38 -71q-47 -36 -178 -150zM87 513l244 3q109 0 170.5 -53t61.5 -150q0 -152 -82 -236.5t-238 -84.5q-83 0 -219 8l27 149zM284 128q40 0 62 34.5t22 122.5q0 48 -14.5 68t-46.5 20q-23 0 -54 -3
l-32 -202l-2 -32q46 -8 65 -8z" />
    <glyph glyph-name="Dcroat" unicode="&#x110;" horiz-adv-x="698" 
d="M142 647l283 4q128 0 199.5 -66t71.5 -188q0 -191 -98 -298.5t-282 -107.5q-114 0 -253 9l33 190l6 59h-76l-8 13l18 117h79zM361 139q124 0 124 229q0 69 -20.5 98.5t-66.5 29.5q-37 0 -76 -4l-17 -113h76l7 -13l-17 -117h-85l-6 -39l-5 -63q60 -8 86 -8z" />
    <glyph glyph-name="dcroat" unicode="&#x111;" horiz-adv-x="576" 
d="M193 612l-12 13l9 106h276l12 -12l-9 -107h-276zM87 513l244 3q109 0 170.5 -53t61.5 -150q0 -152 -82 -236.5t-238 -84.5q-83 0 -219 8l27 149zM284 128q40 0 62 34.5t22 122.5q0 48 -14.5 68t-46.5 20q-23 0 -54 -3l-32 -202l-2 -32q46 -8 65 -8z" />
    <glyph glyph-name="Emacron" unicode="&#x112;" horiz-adv-x="540" 
d="M220 746l-12 13l9 106h276l12 -12l-9 -107h-276zM291 494l-13 -92h98l105 3l9 -14l-30 -146l-115 3h-90l-6 -38l-5 -57h96l167 6l9 -14l-30 -145h-455l33 190l47 457h463l9 -14l-31 -145l-158 6h-103z" />
    <glyph glyph-name="emacron" unicode="&#x113;" horiz-adv-x="480" 
d="M154 612l-12 13l9 106h276l12 -12l-9 -107h-276zM253 372l-7 -45h80l88 3l8 -13l-27 -135l-97 3h-73l-3 -17l-2 -27h79l140 5l9 -12l-28 -134h-396l28 149l35 364h403l9 -13l-28 -134l-133 6h-85z" />
    <glyph glyph-name="Ebreve" unicode="&#x114;" horiz-adv-x="540" 
d="M351 716q-65 0 -110 32t-62 92l48 59h27q28 -50 107 -50q76 0 114 50h27l32 -59q-57 -124 -183 -124zM291 494l-13 -92h98l105 3l9 -14l-30 -146l-115 3h-90l-6 -38l-5 -57h96l167 6l9 -14l-30 -145h-455l33 190l47 457h463l9 -14l-31 -145l-158 6h-103z" />
    <glyph glyph-name="ebreve" unicode="&#x115;" horiz-adv-x="480" 
d="M279 576q-75 0 -115 40t-51 96l47 61h27q12 -30 40 -46.5t64 -16.5q80 0 118 63h27l31 -61q-23 -57 -71 -96.5t-117 -39.5zM253 372l-7 -45h80l88 3l8 -13l-27 -135l-97 3h-73l-3 -17l-2 -27h79l140 5l9 -12l-28 -134h-396l28 149l35 364h403l9 -13l-28 -134l-133 6h-85z
" />
    <glyph glyph-name="Edotaccent" unicode="&#x116;" horiz-adv-x="540" 
d="M353 707q-46 0 -70 24.5t-24 70.5q0 48 27.5 75.5t74.5 27.5q44 0 68 -24.5t24 -69.5q0 -48 -27 -76t-73 -28zM291 494l-13 -92h98l105 3l9 -14l-30 -146l-115 3h-90l-6 -38l-5 -57h96l167 6l9 -14l-30 -145h-455l33 190l47 457h463l9 -14l-31 -145l-158 6h-103z" />
    <glyph glyph-name="edotaccent" unicode="&#x117;" horiz-adv-x="480" 
d="M287 573q-46 0 -70 24.5t-24 70.5q0 48 27.5 75.5t74.5 27.5q44 0 68 -24.5t24 -69.5q0 -48 -27 -76t-73 -28zM253 372l-7 -45h80l88 3l8 -13l-27 -135l-97 3h-73l-3 -17l-2 -27h79l140 5l9 -12l-28 -134h-396l28 149l35 364h403l9 -13l-28 -134l-133 6h-85z" />
    <glyph glyph-name="Eogonek" unicode="&#x118;" horiz-adv-x="540" 
d="M291 494l-13 -92h98l105 3l9 -14l-30 -146l-115 3h-90l-6 -38l-5 -57h96l167 6l9 -14l-30 -145h-71l-15 -22q-16 -24 -16 -44q0 -33 36 -33q29 0 61 20h10l12 -72q-60 -46 -111 -46q-48 0 -76 27.5t-28 69.5q0 47 33 91l7 9h-297l33 190l47 457h463l9 -14l-31 -145
l-158 6h-103z" />
    <glyph glyph-name="eogonek" unicode="&#x119;" horiz-adv-x="480" 
d="M253 372l-7 -45h80l88 3l8 -13l-27 -135l-97 3h-73l-3 -17l-2 -27h79l140 5l9 -12l-28 -134h-86l-15 -22q-16 -24 -16 -44q0 -33 36 -33q29 0 61 20h10l12 -72q-60 -46 -111 -46q-48 0 -76 27.5t-28 69.5q0 47 33 91l7 9h-223l28 149l35 364h403l9 -13l-28 -134l-133 6
h-85z" />
    <glyph glyph-name="Ecaron" unicode="&#x11a;" horiz-adv-x="540" 
d="M369 712h-34q-58 55 -148 119l43 75h18q12 -7 34 -19t40 -22t34 -19q23 11 67 31.5t61 28.5h18l25 -75q-89 -59 -158 -119zM291 494l-13 -92h98l105 3l9 -14l-30 -146l-115 3h-90l-6 -38l-5 -57h96l167 6l9 -14l-30 -145h-455l33 190l47 457h463l9 -14l-31 -145l-158 6
h-103z" />
    <glyph glyph-name="ecaron" unicode="&#x11b;" horiz-adv-x="480" 
d="M293 567h-34q-47 54 -147 150l56 71h18q63 -44 103 -78q26 18 126 78h18l38 -71q-47 -36 -178 -150zM253 372l-7 -45h80l88 3l8 -13l-27 -135l-97 3h-73l-3 -17l-2 -27h79l140 5l9 -12l-28 -134h-396l28 149l35 364h403l9 -13l-28 -134l-133 6h-85z" />
    <glyph glyph-name="Gcircumflex" unicode="&#x11c;" horiz-adv-x="599" 
d="M252 720l-25 76q99 67 158 118h34q58 -55 148 -118l-43 -76h-18q-19 10 -54.5 30t-53.5 30q-21 -10 -64 -30t-64 -30h-18zM426 658q117 0 193 -30l-64 -176h-16q-88 47 -160 47q-36 0 -60.5 -9t-45 -34t-30.5 -73.5t-10 -122.5q0 -69 25 -95.5t85 -26.5q14 0 36 4l4 33
l10 109l184 13l-14 -88l-22 -177q-119 -44 -225 -44q-141 0 -216.5 71t-75.5 199q0 193 103.5 296.5t298.5 103.5z" />
    <glyph glyph-name="gcircumflex" unicode="&#x11d;" horiz-adv-x="515" 
d="M175 571l-38 72q56 43 178 149h34q52 -59 147 -149l-56 -72h-18q-74 52 -105 78q-36 -26 -124 -78h-18zM359 522q87 0 164 -20l-60 -162h-14q-75 36 -136 36q-53 0 -78 -30t-25 -126q0 -54 15 -73.5t67 -19.5h7.5t5 0.5t2.5 0.5h2h1l3 13l8 91l170 11l-11 -70l-18 -147
q-102 -37 -192 -37q-123 0 -188 61.5t-65 180.5q0 138 87.5 214.5t254.5 76.5z" />
    <glyph glyph-name="Gbreve" unicode="&#x11e;" horiz-adv-x="599" 
d="M541 899l32 -59q-57 -124 -183 -124q-65 0 -110 32t-62 92l48 59h27q28 -50 107 -50q76 0 114 50h27zM426 658q117 0 193 -30l-64 -176h-16q-88 47 -160 47q-36 0 -60.5 -9t-45 -34t-30.5 -73.5t-10 -122.5q0 -69 25 -95.5t85 -26.5q14 0 36 4l4 33l10 109l184 13
l-14 -88l-22 -177q-119 -44 -225 -44q-141 0 -216.5 71t-75.5 199q0 193 103.5 296.5t298.5 103.5z" />
    <glyph glyph-name="gbreve" unicode="&#x11f;" horiz-adv-x="515" 
d="M461 773l31 -61q-23 -57 -71 -96.5t-117 -39.5q-75 0 -115 40t-51 96l47 61h27q12 -30 40 -46.5t64 -16.5q80 0 118 63h27zM359 522q87 0 164 -20l-60 -162h-14q-75 36 -136 36q-53 0 -78 -30t-25 -126q0 -54 15 -73.5t67 -19.5h7.5t5 0.5t2.5 0.5h2h1l3 13l8 91l170 11
l-11 -70l-18 -147q-102 -37 -192 -37q-123 0 -188 61.5t-65 180.5q0 138 87.5 214.5t254.5 76.5z" />
    <glyph glyph-name="Gdotaccent" unicode="&#x120;" horiz-adv-x="599" 
d="M400 905q44 0 68 -24.5t24 -69.5q0 -48 -27 -76t-73 -28t-70 24.5t-24 70.5q0 48 27.5 75.5t74.5 27.5zM426 658q117 0 193 -30l-64 -176h-16q-88 47 -160 47q-36 0 -60.5 -9t-45 -34t-30.5 -73.5t-10 -122.5q0 -69 25 -95.5t85 -26.5q14 0 36 4l4 33l10 109l184 13
l-14 -88l-22 -177q-119 -44 -225 -44q-141 0 -216.5 71t-75.5 199q0 193 103.5 296.5t298.5 103.5z" />
    <glyph glyph-name="gdotaccent" unicode="&#x121;" horiz-adv-x="515" 
d="M320 771q44 0 68 -24.5t24 -69.5q0 -48 -27 -76t-73 -28t-70 24.5t-24 70.5q0 48 27.5 75.5t74.5 27.5zM359 522q87 0 164 -20l-60 -162h-14q-75 36 -136 36q-53 0 -78 -30t-25 -126q0 -54 15 -73.5t67 -19.5h7.5t5 0.5t2.5 0.5h2h1l3 13l8 91l170 11l-11 -70l-18 -147
q-102 -37 -192 -37q-123 0 -188 61.5t-65 180.5q0 138 87.5 214.5t254.5 76.5z" />
    <glyph glyph-name="Gcommaaccent" unicode="&#x122;" horiz-adv-x="599" 
d="M426 658q117 0 193 -30l-64 -176h-16q-88 47 -160 47q-36 0 -60.5 -9t-45 -34t-30.5 -73.5t-10 -122.5q0 -69 25 -95.5t85 -26.5q14 0 36 4l4 33l10 109l184 13l-14 -88l-22 -177q-119 -44 -225 -44q-141 0 -216.5 71t-75.5 199q0 193 103.5 296.5t298.5 103.5zM353 -33
q41 -40 41 -91q0 -98 -131 -187l-52 45l-2 12q48 41 48 93q0 37 -28 65l1 13q59 34 123 50z" />
    <glyph glyph-name="gcommaaccent" unicode="&#x123;" horiz-adv-x="515" 
d="M359 522q87 0 164 -20l-60 -162h-14q-75 36 -136 36q-53 0 -78 -30t-25 -126q0 -54 15 -73.5t67 -19.5h7.5t5 0.5t2.5 0.5h2h1l3 13l8 91l170 11l-11 -70l-18 -147q-102 -37 -192 -37q-123 0 -188 61.5t-65 180.5q0 138 87.5 214.5t254.5 76.5zM307 -33q41 -40 41 -91
q0 -98 -131 -187l-52 45l-2 12q48 41 48 93q0 37 -28 65l1 13q59 34 123 50z" />
    <glyph glyph-name="Hcircumflex" unicode="&#x124;" horiz-adv-x="711" 
d="M282 720l-25 76q99 67 158 118h34q58 -55 148 -118l-43 -76h-18q-19 10 -54.5 30t-53.5 30q-21 -10 -64 -30t-64 -30h-18zM700 647l-65 -437l-18 -210h-200l34 190l5 50l-108 2l-95 -3l-4 -29l-18 -210h-200l34 190l46 457h203l-36 -245l101 -2l93 2l25 245h203z" />
    <glyph glyph-name="hcircumflex" unicode="&#x125;" horiz-adv-x="615" 
d="M217 571l-38 72q56 43 178 149h34q52 -59 147 -149l-56 -72h-18q-74 52 -105 78q-36 -26 -124 -78h-18zM596 513l-53 -345l-13 -168h-185l27 149l3 29l-80 2l-71 -2l-2 -10l-12 -168h-185l27 149l36 364h188l-29 -185l76 -2l67 2l18 185h188z" />
    <glyph glyph-name="Hbar" unicode="&#x126;" horiz-adv-x="745" 
d="M764 472h-73l-39 -262l-18 -210h-200l34 190l5 50l-108 2l-95 -3l-4 -29l-18 -210h-200l34 190l28 282h-56l-8 10l6 91h69l7 74h203l-11 -74h187l7 74h203l-11 -74h55l8 -10zM497 472h-192l-10 -70l101 -2l94 2z" />
    <glyph glyph-name="hbar" unicode="&#x127;" horiz-adv-x="615" 
d="M627 366h-54l-30 -198l-13 -168h-185l27 149l3 29l-80 2l-71 -2l-2 -10l-12 -168h-185l27 149l21 217h-54l-6 9l16 84h54l5 54h188l-8 -54h135l5 54h188l-8 -54h49l6 -9zM393 366h-140l-6 -38l76 -2l67 2z" />
    <glyph glyph-name="Imacron" unicode="&#x12a;" horiz-adv-x="327" 
d="M359 853l-9 -107h-236l-12 13l9 106h236zM249 210l-18 -210h-200l34 190l46 457h203z" />
    <glyph glyph-name="imacron" unicode="&#x12b;" horiz-adv-x="304" 
d="M324 719l-9 -107h-236l-12 13l9 106h236zM222 168l-12 -168h-185l27 149l36 364h188z" />
    <glyph glyph-name="Ibreve" unicode="&#x12c;" horiz-adv-x="327" 
d="M376 899l32 -59q-57 -124 -183 -124q-65 0 -110 32t-62 92l48 59h27q28 -50 107 -50q77 0 114 50h27zM249 210l-18 -210h-200l34 190l46 457h203z" />
    <glyph glyph-name="ibreve" unicode="&#x12d;" horiz-adv-x="304" 
d="M341 773l31 -61q-23 -57 -71 -96.5t-117 -39.5q-75 0 -115 40t-51 96l47 61h27q12 -30 40 -46.5t64 -16.5q80 0 118 63h27zM222 168l-12 -168h-185l27 149l36 364h188z" />
    <glyph glyph-name="Iogonek" unicode="&#x12e;" horiz-adv-x="327" 
d="M314 647l-65 -437l-18 -210h-109q-27 -42 -27 -68q0 -31 35 -31t65 23h10l12 -73q-59 -48 -113 -48q-48 0 -76 28t-28 71q0 47 31 98l34 190l46 457h203z" />
    <glyph glyph-name="iogonek" unicode="&#x12f;" horiz-adv-x="304" 
d="M210 0h-94q-26 -40 -26 -68q0 -31 34 -31q35 0 65 23h10l12 -73q-59 -48 -113 -48q-48 0 -76 28t-28 71q0 47 32 98h-1l27 149l36 364h188l-54 -345z" />
    <glyph glyph-name="Idotaccent" unicode="&#x130;" horiz-adv-x="327" 
d="M235 905q44 0 68 -24.5t24 -69.5q0 -48 -27 -76t-73 -28t-70 24.5t-24 70.5q0 48 27.5 75.5t74.5 27.5zM249 210l-18 -210h-200l34 190l46 457h203z" />
    <glyph glyph-name="dotlessi" unicode="&#x131;" horiz-adv-x="304" 
d="M222 168l-12 -168h-185l27 149l36 364h188z" />
    <glyph glyph-name="IJ" unicode="&#x132;" horiz-adv-x="690" 
d="M314 647l-65 -437l-18 -210h-200l34 190l46 457h203zM675 647l-66 -434l-8 -89q-13 -94 -67.5 -146.5t-183.5 -89.5l-40 103l2 15q53 25 76.5 52.5t28.5 71.5l8 63l33 314l-83 -3l-9 13l24 130h285z" />
    <glyph glyph-name="ij" unicode="&#x133;" horiz-adv-x="649" 
d="M88 513h188l-54 -345l-12 -168h-185l27 149zM611 513l-51 -345l-6 -69q-10 -76 -58 -119.5t-163 -78.5l-39 95l1 14q45 17 64 37t23 53l7 50l23 228l-79 -2l-8 11l26 126h260z" />
    <glyph glyph-name="Jcircumflex" unicode="&#x134;" horiz-adv-x="362" 
d="M219 914h34q58 -55 148 -118l-43 -76h-18l-54 30l-54 30q-21 -10 -64 -30t-64 -30h-18l-25 76q99 67 158 118zM348 647l-66 -434l-8 -89q-13 -94 -67.5 -146.5t-183.5 -89.5l-40 103l2 15q53 25 76.5 52.5t28.5 71.5l8 63l33 314l-83 -3l-9 13l24 130h285z" />
    <glyph glyph-name="jcircumflex" unicode="&#x135;" horiz-adv-x="345" 
d="M197 792h34q52 -59 147 -149l-56 -72h-18q-74 52 -105 78q-36 -26 -124 -78h-18l-38 72q56 43 178 149zM307 513l-51 -345l-6 -69q-10 -76 -58 -119.5t-163 -78.5l-39 95l1 14q45 17 64 37t23 53l7 50l23 228l-79 -2l-8 11l26 126h260z" />
    <glyph glyph-name="Kcommaaccent" unicode="&#x136;" horiz-adv-x="629" 
d="M677 647l-229 -317q69 -128 174 -288l-5 -22q-109 -24 -203 -32l-21 12q-80 175 -131 298l-13 -88l-18 -210h-200l34 190l46 457h203l-40 -271l149 201l43 70h211zM341 -33q41 -40 41 -91q0 -98 -131 -187l-52 45l-2 12q48 41 48 93q0 37 -28 65l1 13q59 34 123 50z" />
    <glyph glyph-name="kcommaaccent" unicode="&#x137;" horiz-adv-x="555" 
d="M581 513l-180 -247q49 -91 139 -227l-6 -20q-98 -22 -187 -29l-20 11q-58 132 -96 225l-9 -58l-13 -168h-185l27 149l36 364h188l-32 -207l109 148l35 59h194zM294 -33q41 -40 41 -91q0 -98 -131 -187l-52 45l-2 12q48 41 48 93q0 37 -28 65l1 13q59 34 123 50z" />
    <glyph glyph-name="kgreenlandic" unicode="&#x138;" horiz-adv-x="555" 
d="M581 513l-180 -247q49 -91 139 -227l-6 -20q-98 -22 -187 -29l-20 11q-58 132 -96 225l-9 -58l-13 -168h-185l27 149l36 364h188l-32 -207l109 148l35 59h194z" />
    <glyph glyph-name="Lacute" unicode="&#x139;" horiz-adv-x="452" 
d="M110 716l-30 79q114 56 225 122l17 -4l49 -116l-6 -16q-132 -42 -238 -69zM441 149l-29 -149h-385l33 190l46 457h203l-64 -437l-4 -47h191z" />
    <glyph glyph-name="lacute" unicode="&#x13a;" horiz-adv-x="403" 
d="M94 563l-44 72q99 73 201 160l17 -1l69 -106l-3 -17q-142 -72 -223 -109zM380 138l-28 -138h-333l28 149l35 364h188l-53 -345l-1 -18h156z" />
    <glyph glyph-name="Lcommaaccent" unicode="&#x13b;" horiz-adv-x="452" 
d="M441 149l-29 -149h-385l33 190l46 457h203l-64 -437l-4 -47h191zM239 -33q41 -40 41 -91q0 -98 -131 -187l-52 45l-2 12q48 41 48 93q0 37 -28 65l1 13q59 34 123 50z" />
    <glyph glyph-name="lcommaaccent" unicode="&#x13c;" horiz-adv-x="403" 
d="M380 138l-28 -138h-333l28 149l35 364h188l-53 -345l-1 -18h156zM215 -33q41 -40 41 -91q0 -98 -131 -187l-52 45l-2 12q48 41 48 93q0 37 -28 65l1 13q59 34 123 50z" />
    <glyph glyph-name="Lcaron" unicode="&#x13d;" horiz-adv-x="484" 
d="M432 163l9 -14l-29 -149h-385l33 190l46 457h203l-64 -437l-4 -47h191zM536 590l-72 -232l-83 -12l-11 9l19 238l139 8z" />
    <glyph glyph-name="lcaron" unicode="&#x13e;" horiz-adv-x="447" 
d="M372 150l8 -12l-28 -138h-333l28 149l35 364h188l-53 -345l-1 -18h156zM494 490l-72 -232l-84 -13l-10 10l19 238l139 8z" />
    <glyph glyph-name="Ldot" unicode="&#x13f;" horiz-adv-x="504" 
d="M442 163l9 -14l-30 -149h-384l33 190l46 457h203l-64 -437l-4 -47h191zM430 500q44 0 68 -25t24 -69q0 -48 -27 -76t-73 -28t-70 24.5t-24 70.5q0 47 27.5 75t74.5 28z" />
    <glyph glyph-name="ldot" unicode="&#x140;" horiz-adv-x="460" 
d="M372 150l8 -12l-28 -138h-333l28 149l35 364h188l-53 -345l-1 -18h156zM383 435q44 0 68 -25t24 -69q0 -48 -27 -76t-73 -28t-70 24.5t-24 70.5q0 47 27.5 75t74.5 28z" />
    <glyph glyph-name="Lslash" unicode="&#x141;" horiz-adv-x="459" 
d="M448 149l-29 -149h-385l33 190l1 12l-50 -24l-15 9l-21 114l101 48l30 298h203l-29 -201l72 34l15 -9l22 -113l-131 -63l-13 -85l-4 -47h191z" />
    <glyph glyph-name="lslash" unicode="&#x142;" horiz-adv-x="413" 
d="M390 138l-29 -138h-332l28 149l1 15l-44 -17l-13 9l-3 100l72 27l22 230h188l-25 -160l88 33l12 -9l4 -99l-122 -46l-10 -64l-1 -18h155z" />
    <glyph glyph-name="Nacute" unicode="&#x143;" horiz-adv-x="710" 
d="M526 913l49 -116l-6 -16q-132 -42 -238 -69l-17 4l-30 79q114 56 225 122zM636 211l-18 -211h-217l-140 348h-12l-15 -114l-21 -234h-181l33 190l46 457h217l141 -348h12l36 341l184 11z" />
    <glyph glyph-name="nacute" unicode="&#x144;" horiz-adv-x="616" 
d="M433 794l69 -106l-3 -17q-142 -72 -223 -109l-17 1l-44 72q99 73 201 160zM544 171l-14 -171h-198l-109 241h-9l-8 -52l-17 -189h-165l28 150l35 363h198l110 -242h11l22 235l169 10z" />
    <glyph glyph-name="Ncommaaccent" unicode="&#x145;" horiz-adv-x="710" 
d="M636 211l-18 -211h-217l-140 348h-12l-15 -114l-21 -234h-181l33 190l46 457h217l141 -348h12l36 341l184 11zM354 -33q41 -40 41 -91q0 -98 -131 -187l-52 45l-2 12q48 41 48 93q0 37 -28 65l1 13q59 34 123 50z" />
    <glyph glyph-name="ncommaaccent" unicode="&#x146;" horiz-adv-x="616" 
d="M544 171l-14 -171h-198l-109 241h-9l-8 -52l-17 -189h-165l28 150l35 363h198l110 -242h11l22 235l169 10zM304 -33q41 -40 41 -91q0 -98 -131 -187l-52 45l-2 12q48 41 48 93q0 37 -28 65l1 13q59 34 123 50z" />
    <glyph glyph-name="Ncaron" unicode="&#x147;" horiz-adv-x="710" 
d="M571 906l25 -75q-89 -59 -158 -119h-34q-58 55 -148 119l43 75h18l108 -60q23 11 67 31.5t61 28.5h18zM636 211l-18 -211h-217l-140 348h-12l-15 -114l-21 -234h-181l33 190l46 457h217l141 -348h12l36 341l184 11z" />
    <glyph glyph-name="ncaron" unicode="&#x148;" horiz-adv-x="616" 
d="M500 788l38 -71q-47 -36 -178 -150h-34q-47 54 -147 150l56 71h18q63 -44 103 -78q26 18 126 78h18zM544 171l-14 -171h-198l-109 241h-9l-8 -52l-17 -189h-165l28 150l35 363h198l110 -242h11l22 235l169 10z" />
    <glyph glyph-name="Eng" unicode="&#x14a;" horiz-adv-x="715" 
d="M636 211l-13 -157q-11 -93 -67 -146t-186 -90l-39 103l1 16q63 28 87 63l-158 348h-12l-15 -114l-21 -234h-181l34 190l46 457h217l143 -328h12l33 321l184 11z" />
    <glyph glyph-name="eng" unicode="&#x14b;" horiz-adv-x="615" 
d="M542 172l-10 -128q-9 -72 -52.5 -114.5t-145.5 -75.5l-49 76l1 14q48 23 61 47l-121 246h-11l-5 -47l-17 -190h-167l28 150l35 363h201l103 -215h11l20 208l171 10z" />
    <glyph glyph-name="Omacron" unicode="&#x14c;" horiz-adv-x="658" 
d="M547 853l-9 -107h-276l-12 13l9 106h276zM380 659q131 0 202.5 -70.5t71.5 -214.5q0 -172 -93.5 -279t-261.5 -107q-131 0 -203 71.5t-72 216.5q0 171 94 277t262 106zM357 500q-61 0 -92.5 -47t-31.5 -180q0 -79 17.5 -108.5t69.5 -29.5q29 0 49.5 9t38.5 32t27 69.5
t9 116.5q0 79 -17.5 108.5t-69.5 29.5z" />
    <glyph glyph-name="omacron" unicode="&#x14d;" horiz-adv-x="568" 
d="M480 719l-9 -107h-276l-12 13l9 106h276zM318 523q113 0 174.5 -57.5t61.5 -173.5q0 -134 -80 -218.5t-221 -84.5q-113 0 -174.5 58t-61.5 175q0 135 79.5 218t221.5 83zM295 377q-21 0 -34.5 -5t-26 -20t-18.5 -46.5t-6 -81.5q0 -61 13 -80t54 -19q21 0 34 5t25 20
t18 47t6 82q0 59 -12.5 78.5t-52.5 19.5z" />
    <glyph glyph-name="Obreve" unicode="&#x14e;" horiz-adv-x="658" 
d="M544 899l32 -59q-57 -124 -183 -124q-65 0 -110 32t-62 92l48 59h27q28 -50 107 -50q76 0 114 50h27zM380 659q131 0 202.5 -70.5t71.5 -214.5q0 -172 -93.5 -279t-261.5 -107q-131 0 -203 71.5t-72 216.5q0 171 94 277t262 106zM357 500q-61 0 -92.5 -47t-31.5 -180
q0 -79 17.5 -108.5t69.5 -29.5q29 0 49.5 9t38.5 32t27 69.5t9 116.5q0 79 -17.5 108.5t-69.5 29.5z" />
    <glyph glyph-name="obreve" unicode="&#x14f;" horiz-adv-x="568" 
d="M477 773l31 -61q-23 -57 -71 -96.5t-117 -39.5q-75 0 -115 40t-51 96l47 61h27q12 -30 40 -46.5t64 -16.5q80 0 118 63h27zM318 523q113 0 174.5 -57.5t61.5 -173.5q0 -134 -80 -218.5t-221 -84.5q-113 0 -174.5 58t-61.5 175q0 135 79.5 218t221.5 83zM295 377
q-21 0 -34.5 -5t-26 -20t-18.5 -46.5t-6 -81.5q0 -61 13 -80t54 -19q21 0 34 5t25 20t18 47t6 82q0 59 -12.5 78.5t-52.5 19.5z" />
    <glyph glyph-name="Ohungarumlaut" unicode="&#x150;" horiz-adv-x="658" 
d="M271 711l-59 46q68 98 99 149l14 3l90 -57l3 -14q-64 -64 -131 -122zM440 711l-59 46q81 120 99 149l13 3l91 -57l3 -14q-69 -67 -132 -122zM380 659q131 0 202.5 -70.5t71.5 -214.5q0 -172 -93.5 -279t-261.5 -107q-131 0 -203 71.5t-72 216.5q0 171 94 277t262 106z
M357 500q-61 0 -92.5 -47t-31.5 -180q0 -79 17.5 -108.5t69.5 -29.5q29 0 49.5 9t38.5 32t27 69.5t9 116.5q0 79 -17.5 108.5t-69.5 29.5z" />
    <glyph glyph-name="ohungarumlaut" unicode="&#x151;" horiz-adv-x="568" 
d="M219 563l-58 46q48 77 113 190l12 4l90 -62l3 -14q-62 -73 -145 -159zM384 563l-58 46q56 91 112 190l13 4l90 -62l3 -14q-62 -73 -145 -159zM318 523q113 0 174.5 -57.5t61.5 -173.5q0 -134 -80 -218.5t-221 -84.5q-113 0 -174.5 58t-61.5 175q0 135 79.5 218t221.5 83z
M295 377q-21 0 -34.5 -5t-26 -20t-18.5 -46.5t-6 -81.5q0 -61 13 -80t54 -19q21 0 34 5t25 20t18 47t6 82q0 59 -12.5 78.5t-52.5 19.5z" />
    <glyph glyph-name="OE" unicode="&#x152;" horiz-adv-x="890" 
d="M402 659q42 0 107.5 -6t92.5 -6h321l10 -14l-31 -145l-159 6h-103l-13 -92h99l105 3l9 -14l-30 -146l-116 3h-91l-4 -38l-5 -57h96l167 6l9 -14l-30 -145h-313q-33 2 -111.5 -5t-118.5 -7q-129 0 -199 71.5t-70 202.5q0 184 102 290.5t276 106.5zM365 500
q-45 0 -72 -17.5t-43 -70.5t-16 -148q0 -69 21.5 -99t72.5 -30q52 0 68 15t19 54l23 231q3 38 -5 49q-13 16 -68 16z" />
    <glyph glyph-name="oe" unicode="&#x153;" horiz-adv-x="764" 
d="M325 522q37 0 98.5 -4.5t84.5 -4.5h273l8 -13l-29 -134l-133 6h-83l-7 -45h81l86 3l9 -13l-28 -135l-97 3h-74l-2 -16l-1 -28h77l141 5l8 -12l-27 -134h-265q-28 2 -91 -3.5t-97 -5.5q-112 0 -175.5 57t-63.5 161q0 147 80.5 230t226.5 83zM301 376q-33 0 -51 -11
t-28.5 -47.5t-10.5 -106.5q0 -48 15 -66.5t51 -18.5q44 0 55 12q10 11 13 47l13 136q3 31 -4 41q-10 14 -53 14z" />
    <glyph glyph-name="Racute" unicode="&#x154;" horiz-adv-x="630" 
d="M287 697l-44 72q99 73 201 160l17 -1l69 -106l-3 -17q-142 -72 -223 -109zM622 475q0 -68 -34.5 -126.5t-97.5 -98.5q61 -115 116 -203l-5 -22q-106 -31 -205 -37l-17 16q-51 150 -63 189h-68l-17 -193h-200l34 190l46 457l296 1q100 0 157.5 -45.5t57.5 -127.5zM408 442
q0 34 -18.5 50t-59.5 18l-37 -3l-25 -168l73 -4q67 28 67 107z" />
    <glyph glyph-name="racute" unicode="&#x155;" horiz-adv-x="556" 
d="M210 563l-44 72q99 73 201 160l17 -1l69 -106l-3 -17q-142 -72 -223 -109zM536 365q0 -101 -104 -168q44 -79 95 -154l-6 -20q-97 -27 -184 -33l-22 19q-24 70 -44 133h-52l-10 -142h-185l27 149l36 364h263q85 0 135.5 -39.5t50.5 -108.5zM255 384l-17 -108l59 -4
q41 20 41 65q0 26 -10.5 37t-35.5 13z" />
    <glyph glyph-name="Rcommaaccent" unicode="&#x156;" horiz-adv-x="630" 
d="M622 475q0 -68 -34.5 -126.5t-97.5 -98.5q61 -115 116 -203l-5 -22q-106 -31 -205 -37l-17 16q-51 150 -63 189h-68l-17 -193h-200l34 190l46 457l296 1q100 0 157.5 -45.5t57.5 -127.5zM408 442q0 34 -18.5 50t-59.5 18l-37 -3l-25 -168l73 -4q67 28 67 107zM314 -33
q41 -40 41 -91q0 -98 -131 -187l-52 45l-2 12q48 41 48 93q0 37 -28 65l1 13q59 34 123 50z" />
    <glyph glyph-name="rcommaaccent" unicode="&#x157;" horiz-adv-x="556" 
d="M536 365q0 -101 -104 -168q44 -79 95 -154l-6 -20q-97 -27 -184 -33l-22 19q-24 70 -44 133h-52l-10 -142h-185l27 149l36 364h263q85 0 135.5 -39.5t50.5 -108.5zM255 384l-17 -108l59 -4q41 20 41 65q0 26 -10.5 37t-35.5 13zM290 -33q41 -40 41 -91q0 -98 -131 -187
l-52 45l-2 12q48 41 48 93q0 37 -28 65l1 13q59 34 123 50z" />
    <glyph glyph-name="Rcaron" unicode="&#x158;" horiz-adv-x="630" 
d="M388 701h-34q-47 54 -147 150l56 71h18q63 -44 103 -78q26 18 126 78h18l38 -71q-47 -36 -178 -150zM622 475q0 -68 -34.5 -126.5t-97.5 -98.5q61 -115 116 -203l-5 -22q-106 -31 -205 -37l-17 16q-51 150 -63 189h-68l-17 -193h-200l34 190l46 457l296 1
q100 0 157.5 -45.5t57.5 -127.5zM408 442q0 34 -18.5 50t-59.5 18l-37 -3l-25 -168l73 -4q67 28 67 107z" />
    <glyph glyph-name="rcaron" unicode="&#x159;" horiz-adv-x="556" 
d="M311 567h-34q-47 54 -147 150l56 71h18q63 -44 103 -78q26 18 126 78h18l38 -71q-47 -36 -178 -150zM536 365q0 -101 -104 -168q44 -79 95 -154l-6 -20q-97 -27 -184 -33l-22 19q-24 70 -44 133h-52l-10 -142h-185l27 149l36 364h263q85 0 135.5 -39.5t50.5 -108.5z
M255 384l-17 -108l59 -4q41 20 41 65q0 26 -10.5 37t-35.5 13z" />
    <glyph glyph-name="Sacute" unicode="&#x15a;" horiz-adv-x="528" 
d="M414 928l69 -106l-3 -17q-142 -72 -223 -109l-17 1l-44 72q99 73 201 160zM350 659q96 0 185 -35l-50 -162l-28 -12q-85 56 -143 56q-25 0 -39.5 -10.5t-14.5 -25.5q0 -19 25 -35.5t61 -33t72 -37t61 -57.5t25 -85q0 -98 -83 -166t-213 -68q-103 0 -211 38l48 173l21 12
q43 -36 93 -56t86 -20q55 0 55 36q0 20 -25 37.5t-60 33t-70.5 36t-60.5 57t-25 85.5q0 101 83 170t208 69z" />
    <glyph glyph-name="sacute" unicode="&#x15b;" horiz-adv-x="468" 
d="M357 794l69 -106l-3 -17q-142 -72 -223 -109l-17 1l-44 72q99 73 201 160zM299 523q80 0 154 -27l-43 -153l-26 -7q-32 23 -68.5 37t-57.5 14q-22 0 -22 -16q0 -12 20 -22.5t48 -21.5t56.5 -26.5t48.5 -45.5t20 -71q0 -79 -62.5 -137.5t-187.5 -58.5q-91 0 -178 28
l44 160l18 13q36 -31 80 -51t74 -20q26 0 26 19q0 12 -20 22t-48.5 21t-57 26.5t-48.5 46t-20 72.5q0 85 67.5 141.5t182.5 56.5z" />
    <glyph glyph-name="Scircumflex" unicode="&#x15c;" horiz-adv-x="528" 
d="M198 705l-38 72q56 43 178 149h34q52 -59 147 -149l-56 -72h-18q-74 52 -105 78q-36 -26 -124 -78h-18zM350 659q96 0 185 -35l-50 -162l-28 -12q-85 56 -143 56q-25 0 -39.5 -10.5t-14.5 -25.5q0 -19 25 -35.5t61 -33t72 -37t61 -57.5t25 -85q0 -98 -83 -166t-213 -68
q-103 0 -211 38l48 173l21 12q43 -36 93 -56t86 -20q55 0 55 36q0 20 -25 37.5t-60 33t-70.5 36t-60.5 57t-25 85.5q0 101 83 170t208 69z" />
    <glyph glyph-name="scircumflex" unicode="&#x15d;" horiz-adv-x="468" 
d="M141 571l-38 72q56 43 178 149h34q52 -59 147 -149l-56 -72h-18q-74 52 -105 78q-36 -26 -124 -78h-18zM299 523q80 0 154 -27l-43 -153l-26 -7q-32 23 -68.5 37t-57.5 14q-22 0 -22 -16q0 -12 20 -22.5t48 -21.5t56.5 -26.5t48.5 -45.5t20 -71q0 -79 -62.5 -137.5
t-187.5 -58.5q-91 0 -178 28l44 160l18 13q36 -31 80 -51t74 -20q26 0 26 19q0 12 -20 22t-48.5 21t-57 26.5t-48.5 46t-20 72.5q0 85 67.5 141.5t182.5 56.5z" />
    <glyph glyph-name="Scedilla" unicode="&#x15e;" horiz-adv-x="528" 
d="M260 470q0 -19 25 -35.5t61 -33t72 -37t61 -57.5t25 -85q0 -88 -68.5 -153t-180.5 -78l-6 -33l34 -19q44 -23 44 -63q0 -37 -29.5 -60.5t-80.5 -23.5q-49 0 -92 24l11 75l8 3q33 -28 60 -28q16 0 16 14q0 9 -12 15l-50 27l13 67q-89 6 -174 37l48 173l21 12
q43 -36 93 -56t86 -20q55 0 55 36q0 20 -25 37.5t-60 33t-70.5 36t-60.5 57t-25 85.5q0 101 83 170t208 69q96 0 185 -35l-50 -162l-28 -12q-85 56 -143 56q-25 0 -39.5 -10.5t-14.5 -25.5z" />
    <glyph glyph-name="scedilla" unicode="&#x15f;" horiz-adv-x="468" 
d="M236 371q0 -12 20 -22.5t48 -21.5t56.5 -26.5t48.5 -45.5t20 -71q0 -69 -49 -124.5t-147 -68.5l-6 -33l34 -19q44 -23 44 -63q0 -37 -29.5 -60.5t-80.5 -23.5q-49 0 -92 24l11 75l8 3q33 -28 60 -28q16 0 16 14q0 9 -12 15l-50 27l13 67q-76 4 -148 27l44 160l18 13
q36 -31 80 -51t74 -20q26 0 26 19q0 12 -20 22t-48.5 21t-57 26.5t-48.5 46t-20 72.5q0 85 67.5 141.5t182.5 56.5q80 0 154 -27l-43 -153l-26 -7q-32 23 -68.5 37t-57.5 14q-22 0 -22 -16z" />
    <glyph glyph-name="Scaron" unicode="&#x160;" horiz-adv-x="528" 
d="M481 922l38 -71q-47 -36 -178 -150h-34q-47 54 -147 150l56 71h18q63 -44 103 -78q26 18 126 78h18zM350 659q96 0 185 -35l-50 -162l-28 -12q-85 56 -143 56q-25 0 -39.5 -10.5t-14.5 -25.5q0 -19 25 -35.5t61 -33t72 -37t61 -57.5t25 -85q0 -98 -83 -166t-213 -68
q-103 0 -211 38l48 173l21 12q43 -36 93 -56t86 -20q55 0 55 36q0 20 -25 37.5t-60 33t-70.5 36t-60.5 57t-25 85.5q0 101 83 170t208 69z" />
    <glyph glyph-name="scaron" unicode="&#x161;" horiz-adv-x="468" 
d="M424 788l38 -71q-47 -36 -178 -150h-34q-47 54 -147 150l56 71h18q63 -44 103 -78q26 18 126 78h18zM299 523q80 0 154 -27l-43 -153l-26 -7q-32 23 -68.5 37t-57.5 14q-22 0 -22 -16q0 -12 20 -22.5t48 -21.5t56.5 -26.5t48.5 -45.5t20 -71q0 -79 -62.5 -137.5
t-187.5 -58.5q-91 0 -178 28l44 160l18 13q36 -31 80 -51t74 -20q26 0 26 19q0 12 -20 22t-48.5 21t-57 26.5t-48.5 46t-20 72.5q0 85 67.5 141.5t182.5 56.5z" />
    <glyph glyph-name="Tcedilla" unicode="&#x162;" horiz-adv-x="518" 
d="M560 633l-28 -145l-131 6h-13l-40 -284l-18 -210h-59l-8 -41l32 -18q43 -23 43 -61q0 -36 -28.5 -59t-77.5 -23q-46 0 -89 23l11 73l7 3q33 -27 59 -27q15 0 15 13q0 9 -11 15l-49 26l15 76h-59l34 190l32 304h-13l-134 -6l-10 14l29 145h482z" />
    <glyph glyph-name="tcedilla" unicode="&#x163;" horiz-adv-x="458" 
d="M472 500l-27 -134l-112 6h-4l-29 -204l-13 -168h-46l-14 -43l32 -19q36 -21 36 -55q0 -40 -33 -66t-87 -26q-48 0 -88 24l21 75l7 3q30 -28 56 -28q18 0 18 16q0 7 -9 13l-48 27l25 79h-54l27 149l23 223h-4l-115 -6l-9 13l27 134h412z" />
    <glyph glyph-name="Tcaron" unicode="&#x164;" horiz-adv-x="518" 
d="M331 701h-34q-47 54 -147 150l56 71h18q63 -44 103 -78q26 18 126 78h18l38 -71q-47 -36 -178 -150zM560 633l-28 -145l-131 6h-13l-40 -284l-18 -210h-199l34 190l32 304h-13l-134 -6l-10 14l29 145h482z" />
    <glyph glyph-name="tcaron" unicode="&#x165;" horiz-adv-x="457" 
d="M282 567h-34q-47 54 -147 150l56 71h18q63 -44 103 -78q26 18 126 78h18l38 -71q-47 -36 -178 -150zM475 500l-26 -134l-112 6h-4l-29 -204l-13 -168h-184l27 149l23 223h-4l-115 -6l-9 13l27 134h412z" />
    <glyph glyph-name="Tbar" unicode="&#x166;" horiz-adv-x="518" 
d="M388 494l-22 -159h81l12 -13l-7 -87h-100l-4 -25l-18 -210h-199l34 190l5 45h-78l-12 13l7 87h93l17 159h-13l-134 -6l-10 14l29 145h482l9 -14l-28 -145l-131 6h-13z" />
    <glyph glyph-name="tbar" unicode="&#x167;" horiz-adv-x="458" 
d="M334 372l-16 -117h71l9 -13l-17 -88h-77l-12 -154h-184l27 149l1 5h-76l-10 13l18 88h78l12 117h-4l-115 -6l-9 13l27 134h412l7 -13l-26 -134l-112 6h-4z" />
    <glyph glyph-name="Umacron" unicode="&#x16a;" horiz-adv-x="653" 
d="M545 853l-9 -107h-276l-12 13l9 106h276zM610 319l-13 -103q-14 -111 -90 -169.5t-210 -58.5q-119 0 -185.5 48t-66.5 137q0 21 3 43l15 103l34 328h200l-58 -404q-2 -20 -2 -27q0 -37 18 -54t59 -17q47 0 71 23t29 75l40 404h203z" />
    <glyph glyph-name="umacron" unicode="&#x16b;" horiz-adv-x="566" 
d="M482 719l-9 -107h-276l-12 13l9 106h276zM519 253l-11 -84q-11 -88 -76.5 -134t-181.5 -46q-102 0 -159 38t-57 109q0 16 3 33l12 83l27 261h184l-47 -319q-1 -6 -1 -16q0 -24 13 -34t44 -10q35 0 51 14t19 46l31 319h187z" />
    <glyph glyph-name="Ubreve" unicode="&#x16c;" horiz-adv-x="653" 
d="M542 907l31 -61q-23 -57 -71 -96.5t-117 -39.5q-75 0 -115 40t-51 96l47 61h27q12 -30 40 -46.5t64 -16.5q80 0 118 63h27zM610 319l-13 -103q-14 -111 -90 -169.5t-210 -58.5q-119 0 -185.5 48t-66.5 137q0 21 3 43l15 103l34 328h200l-58 -404q-2 -20 -2 -27
q0 -37 18 -54t59 -17q47 0 71 23t29 75l40 404h203z" />
    <glyph glyph-name="ubreve" unicode="&#x16d;" horiz-adv-x="566" 
d="M479 773l31 -61q-23 -57 -71 -96.5t-117 -39.5q-75 0 -115 40t-51 96l47 61h27q12 -30 40 -46.5t64 -16.5q80 0 118 63h27zM519 253l-11 -84q-11 -88 -76.5 -134t-181.5 -46q-102 0 -159 38t-57 109q0 16 3 33l12 83l27 261h184l-47 -319q-1 -6 -1 -16q0 -24 13 -34
t44 -10q35 0 51 14t19 46l31 319h187z" />
    <glyph glyph-name="Uring" unicode="&#x16e;" horiz-adv-x="653" 
d="M402 930q106 0 106 -103q0 -55 -29 -84.5t-85 -29.5q-106 0 -106 107q0 110 114 110zM397 853q-19 0 -26.5 -6.5t-7.5 -23.5q0 -19 8 -26.5t28 -7.5q19 0 26.5 7t7.5 24q0 18 -8 25.5t-28 7.5zM610 319l-13 -103q-14 -111 -90 -169.5t-210 -58.5q-119 0 -185.5 48
t-66.5 137q0 21 3 43l15 103l34 328h200l-58 -404q-2 -20 -2 -27q0 -37 18 -54t59 -17q47 0 71 23t29 75l40 404h203z" />
    <glyph glyph-name="uring" unicode="&#x16f;" horiz-adv-x="566" 
d="M339 796q106 0 106 -103q0 -55 -29 -84.5t-85 -29.5q-106 0 -106 107q0 110 114 110zM334 719q-19 0 -26.5 -6.5t-7.5 -23.5q0 -19 8 -26.5t28 -7.5q19 0 26.5 7t7.5 24q0 18 -8 25.5t-28 7.5zM519 253l-11 -84q-11 -88 -76.5 -134t-181.5 -46q-102 0 -159 38t-57 109
q0 16 3 33l12 83l27 261h184l-47 -319q-1 -6 -1 -16q0 -24 13 -34t44 -10q35 0 51 14t19 46l31 319h187z" />
    <glyph glyph-name="Uhungarumlaut" unicode="&#x170;" horiz-adv-x="653" 
d="M269 711l-59 46q68 98 99 149l14 3l90 -57l3 -14q-63 -64 -131 -122zM438 711l-59 46q81 120 99 149l13 3l91 -57l3 -14q-69 -67 -132 -122zM610 319l-13 -103q-14 -111 -90 -169.5t-210 -58.5q-119 0 -185.5 48t-66.5 137q0 21 3 43l15 103l34 328h200l-58 -404
q-2 -20 -2 -27q0 -37 18 -54t59 -17q47 0 71 23t29 75l40 404h203z" />
    <glyph glyph-name="uhungarumlaut" unicode="&#x171;" horiz-adv-x="566" 
d="M221 563l-58 46q48 77 113 190l12 4l90 -62l3 -14q-62 -73 -145 -159zM386 563l-58 46q56 91 112 190l13 4l90 -62l3 -14q-62 -73 -145 -159zM519 253l-11 -84q-11 -88 -76.5 -134t-181.5 -46q-102 0 -159 38t-57 109q0 16 3 33l12 83l27 261h184l-47 -319q-1 -6 -1 -16
q0 -24 13 -34t44 -10q35 0 51 14t19 46l31 319h187z" />
    <glyph glyph-name="Uogonek" unicode="&#x172;" horiz-adv-x="653" 
d="M657 647l-47 -328l-13 -103q-15 -116 -96 -174l-41 -64q-16 -24 -16 -44q0 -33 36 -33q29 0 61 20h10l12 -72q-60 -46 -111 -46q-48 0 -76 27.5t-28 69.5q0 44 33 91l3 4q-36 -7 -87 -7q-119 0 -185.5 48t-66.5 137q0 21 3 43l15 103l34 328h200l-58 -404q-2 -20 -2 -27
q0 -37 18 -54t59 -17q47 0 71 23t29 75l40 404h203z" />
    <glyph glyph-name="uogonek" unicode="&#x173;" horiz-adv-x="566" 
d="M557 513l-38 -260l-11 -84q-12 -91 -79 -135l-42 -56q-19 -25 -19 -44q0 -33 36 -33q29 0 61 20h10l12 -72q-60 -46 -111 -46q-47 0 -75 27.5t-28 69.5q0 49 36 91l1 2q-24 -4 -60 -4q-102 0 -159 38t-57 109q0 16 3 33l12 83l27 261h184l-47 -319q-1 -6 -1 -16
q0 -24 13 -34t44 -10q35 0 51 14t19 46l31 319h187z" />
    <glyph glyph-name="Wcircumflex" unicode="&#x174;" horiz-adv-x="914" 
d="M363 720l-25 76q99 67 158 118h34q58 -55 148 -118l-43 -76h-18q-19 10 -54.5 30t-53.5 30q-21 -10 -64 -30t-64 -30h-18zM694 0h-212l-32 234h-11l-86 -234h-213l-72 647h194l-2 -100l21 -346h11l111 296l-16 150h203l-1 -121l28 -325h11l120 334l32 112h184z" />
    <glyph glyph-name="wcircumflex" unicode="&#x175;" horiz-adv-x="780" 
d="M287 571l-38 72q56 43 178 149h34q52 -59 147 -149l-56 -72h-18q-74 52 -105 78q-36 -26 -124 -78h-18zM596 0h-200l-22 151h-11l-52 -151h-200l-56 513h182l-3 -89l8 -237h11l77 210l-11 116h190l-1 -109l15 -217h11l78 226l27 100h172z" />
    <glyph glyph-name="Ycircumflex" unicode="&#x176;" horiz-adv-x="594" 
d="M224 720l-25 76q99 67 158 118h34q58 -55 148 -118l-43 -76h-18q-18 10 -53.5 30t-54.5 30q-20 -10 -64 -30t-64 -30h-18zM379 204l-6 -34l-12 -170h-199l30 170l3 37l-152 440h208l9 -54l49 -196h12l109 189l30 61h204z" />
    <glyph glyph-name="ycircumflex" unicode="&#x177;" horiz-adv-x="524" 
d="M172 571l-38 72q56 43 178 149h34q52 -59 147 -149l-56 -72h-18q-74 52 -105 78q-36 -26 -124 -78h-18zM330 150l-4 -19l-8 -131h-184l25 131l2 21l-130 361h193l8 -47l37 -134h10l76 127l27 54h188z" />
    <glyph glyph-name="Ydieresis" unicode="&#x178;" horiz-adv-x="594" 
d="M267 718q-81 0 -81 83q0 42 23.5 65.5t64.5 23.5q38 0 59.5 -21t21.5 -60q0 -42 -23.5 -66.5t-64.5 -24.5zM461 718q-40 0 -61 21.5t-21 61.5q0 42 24 65.5t65 23.5q38 0 59 -21.5t21 -59.5q0 -42 -23.5 -66.5t-63.5 -24.5zM379 204l-6 -34l-12 -170h-199l30 170l3 37
l-152 440h208l9 -54l49 -196h12l109 189l30 61h204z" />
    <glyph glyph-name="Zacute" unicode="&#x179;" horiz-adv-x="569" 
d="M409 913l49 -116l-6 -16q-132 -42 -238 -69l-17 4l-30 79q114 56 225 122zM570 505l-319 -358h161l124 9l5 -9l-35 -152l-176 5h-230l-102 -6l18 142l325 364h-158l-121 -10l-6 8l33 152l150 -3h274l75 1z" />
    <glyph glyph-name="zacute" unicode="&#x17a;" horiz-adv-x="499" 
d="M376 794l69 -106l-3 -17q-142 -72 -223 -109l-17 1l-44 72q99 73 201 160zM484 382l-248 -247h118l108 8l4 -7l-31 -141l-159 5h-185l-90 -5l16 130l252 252h-115l-108 -9l-5 7l30 140l134 -2h294z" />
    <glyph glyph-name="Zdotaccent" unicode="&#x17b;" horiz-adv-x="569" 
d="M313 905q44 0 68 -24.5t24 -69.5q0 -48 -27 -76t-73 -28t-70 24.5t-24 70.5q0 48 27.5 75.5t74.5 27.5zM570 505l-319 -358h161l124 9l5 -9l-35 -152l-176 5h-230l-102 -6l18 142l325 364h-158l-121 -10l-6 8l33 152l150 -3h274l75 1z" />
    <glyph glyph-name="zdotaccent" unicode="&#x17c;" horiz-adv-x="499" 
d="M305 771q44 0 68 -24.5t24 -69.5q0 -48 -27 -76t-73 -28t-70 24.5t-24 70.5q0 48 27.5 75.5t74.5 27.5zM484 382l-248 -247h118l108 8l4 -7l-31 -141l-159 5h-185l-90 -5l16 130l252 252h-115l-108 -9l-5 7l30 140l134 -2h294z" />
    <glyph glyph-name="Zcaron" unicode="&#x17d;" horiz-adv-x="569" 
d="M454 906l25 -75q-89 -59 -158 -119h-34q-58 55 -148 119l43 75h18q12 -7 34 -19t40 -22t34 -19q23 11 67 31.5t61 28.5h18zM570 505l-319 -358h161l124 9l5 -9l-35 -152l-176 5h-230l-102 -6l18 142l325 364h-158l-121 -10l-6 8l33 152l150 -3h274l75 1z" />
    <glyph glyph-name="zcaron" unicode="&#x17e;" horiz-adv-x="499" 
d="M443 788l38 -71q-47 -36 -178 -150h-34q-47 54 -147 150l56 71h18q63 -44 103 -78q26 18 126 78h18zM484 382l-248 -247h118l108 8l4 -7l-31 -141l-159 5h-185l-90 -5l16 130l252 252h-115l-108 -9l-5 7l30 140l134 -2h294z" />
    <glyph glyph-name="florin" unicode="&#x192;" horiz-adv-x="360" 
d="M356 626q44 0 89 -9l-26 -130l-12 -8q-52 22 -83 22q-43 0 -48 -40l-9 -64h91l4 -10l-10 -97h-100l-13 -104l-13 -122q-9 -76 -46 -126.5t-116 -88.5l-80 79l2 13q33 20 49.5 47.5t23.5 71.5l12 107l12 123h-66l-4 9l10 98h71l4 32q11 95 79 146t179 51z" />
    <glyph glyph-name="Ohorn" unicode="&#x1a0;" horiz-adv-x="664" 
d="M681 789q33 0 53 -24.5t20 -64.5q0 -56 -39 -98.5t-99 -56.5q37 -67 37 -164q0 -176 -95 -284.5t-260 -108.5q-132 0 -203 74t-71 215q0 172 98.5 277t250.5 105q49 0 105.5 -14t71.5 -14q52 0 52 51q0 34 -22 56l5 14q55 37 96 37zM356 500q-39 0 -64 -16t-42 -68
t-17 -144q0 -77 17.5 -107t72.5 -30q38 0 62.5 15.5t42 68t17.5 145.5q0 75 -17.5 105.5t-71.5 30.5z" />
    <glyph glyph-name="ohorn" unicode="&#x1a1;" horiz-adv-x="578" 
d="M481 582l4 13q53 34 90 34q29 0 47 -21t18 -53q0 -47 -33.5 -84.5t-80.5 -45.5q27 -48 27 -121q0 -145 -79 -230t-221 -85q-111 0 -173.5 57.5t-62.5 160.5q0 146 79.5 231t207.5 85q40 0 92.5 -10.5t63.5 -10.5q39 0 39 39q0 26 -18 41zM277 125q30 0 46 9.5t26.5 48
t10.5 114.5q0 47 -14.5 63.5t-50.5 16.5q-31 0 -47.5 -10t-27 -48t-10.5 -113q0 -47 14.5 -64t52.5 -17z" />
    <glyph glyph-name="Uhorn" unicode="&#x1af;" horiz-adv-x="669" 
d="M736 713q0 -81 -88 -129l-38 -265l-13 -103q-14 -111 -90 -169.5t-210 -58.5q-119 0 -185.5 48t-66.5 137q0 21 3 43l15 103l34 328h200l-58 -404q-2 -20 -2 -27q0 -37 18 -54t59 -17q47 0 71 23t29 75l40 404h75q31 0 44 11t13 37q0 35 -29 59l3 14q52 37 93 37
q36 0 59.5 -26t23.5 -66z" />
    <glyph glyph-name="uhorn" unicode="&#x1b0;" horiz-adv-x="580" 
d="M640 576q0 -36 -24.5 -67.5t-66.5 -52.5l-30 -203l-11 -84q-11 -88 -76.5 -134t-181.5 -46q-102 0 -159 38t-57 109q0 16 3 33l12 83l27 261h184l-47 -319q-1 -6 -1 -16q0 -24 13 -34t44 -10q35 0 51 14t19 46l31 319h78q29 0 40 10t11 33q0 26 -19 40l5 13q53 34 90 34
q30 0 47.5 -18.5t17.5 -48.5z" />
    <glyph glyph-name="Acaron" unicode="&#x1cd;" horiz-adv-x="626" 
d="M397 712h-34q-58 55 -148 119l43 75h18q12 -7 34 -19t40 -22t34 -19q23 11 67 31.5t61 28.5h18l25 -75q-89 -59 -158 -119zM587 0h-202l-4 107v4l-99 2l-83 -4l-31 -109h-195l276 647h241zM368 256l-18 213h-12l-83 -213l57 -1z" />
    <glyph glyph-name="acaron" unicode="&#x1ce;" horiz-adv-x="549" 
d="M329 567h-34q-47 54 -147 150l56 71h18q63 -44 103 -78q26 18 126 78h18l38 -71q-47 -36 -178 -150zM422 513l83 -513h-184l-2 74l-79 2l-65 -3l-20 -73h-177l224 513h220zM266 205l42 1l-14 146h-11l-58 -146z" />
    <glyph glyph-name="Icaron" unicode="&#x1cf;" horiz-adv-x="327" 
d="M376 906l25 -75q-89 -59 -158 -119h-34q-58 55 -148 119l43 75h18q12 -7 34 -19t40 -22t34 -19q23 11 67 31.5t61 28.5h18zM249 210l-18 -210h-200l34 190l46 457h203z" />
    <glyph glyph-name="icaron" unicode="&#x1d0;" horiz-adv-x="304" 
d="M338 788l38 -71q-47 -36 -178 -150h-34q-47 54 -147 150l56 71h18q63 -44 103 -78q26 18 126 78h18zM222 168l-12 -168h-185l27 149l36 364h188z" />
    <glyph glyph-name="Ocaron" unicode="&#x1d1;" horiz-adv-x="658" 
d="M544 906l25 -75q-89 -59 -158 -119h-34q-58 55 -148 119l43 75h18l108 -60q23 11 67 31.5t61 28.5h18zM380 659q131 0 202.5 -70.5t71.5 -214.5q0 -172 -93.5 -279t-261.5 -107q-131 0 -203 71.5t-72 216.5q0 171 94 277t262 106zM357 500q-61 0 -92.5 -47t-31.5 -180
q0 -79 17.5 -108.5t69.5 -29.5q29 0 49.5 9t38.5 32t27 69.5t9 116.5q0 79 -17.5 108.5t-69.5 29.5z" />
    <glyph glyph-name="ocaron" unicode="&#x1d2;" horiz-adv-x="568" 
d="M474 788l38 -71q-47 -36 -178 -150h-34q-47 54 -147 150l56 71h18q63 -44 103 -78q26 18 126 78h18zM318 523q113 0 174.5 -57.5t61.5 -173.5q0 -134 -80 -218.5t-221 -84.5q-113 0 -174.5 58t-61.5 175q0 135 79.5 218t221.5 83zM295 377q-21 0 -34.5 -5t-26 -20
t-18.5 -46.5t-6 -81.5q0 -61 13 -80t54 -19q21 0 34 5t25 20t18 47t6 82q0 59 -12.5 78.5t-52.5 19.5z" />
    <glyph glyph-name="Ucaron" unicode="&#x1d3;" horiz-adv-x="653" 
d="M539 922l38 -71q-47 -36 -178 -150h-34q-47 54 -147 150l56 71h18q63 -44 103 -78q26 18 126 78h18zM610 319l-13 -103q-14 -111 -90 -169.5t-210 -58.5q-119 0 -185.5 48t-66.5 137q0 21 3 43l15 103l34 328h200l-58 -404q-2 -20 -2 -27q0 -37 18 -54t59 -17q47 0 71 23
t29 75l40 404h203z" />
    <glyph glyph-name="ucaron" unicode="&#x1d4;" horiz-adv-x="566" 
d="M476 788l38 -71q-47 -36 -178 -150h-34q-47 54 -147 150l56 71h18q63 -44 103 -78q26 18 126 78h18zM519 253l-11 -84q-11 -88 -76.5 -134t-181.5 -46q-102 0 -159 38t-57 109q0 16 3 33l12 83l27 261h184l-47 -319q-1 -6 -1 -16q0 -24 13 -34t44 -10q35 0 51 14t19 46
l31 319h187z" />
    <glyph glyph-name="Udieresismacron" unicode="&#x1d5;" horiz-adv-x="653" 
d="M571 1025l-10 -106h-303l-13 12l10 107h303zM305 871q38 0 59 -21.5t21 -59.5q0 -42 -23.5 -66.5t-63.5 -24.5q-39 0 -60 21.5t-21 61.5q0 41 23.5 65t64.5 24zM498 871q38 0 59 -21.5t21 -59.5q0 -42 -23.5 -66.5t-63.5 -24.5t-61 21.5t-21 61.5q0 41 24 65t65 24z
M610 319l-13 -103q-14 -111 -90 -169.5t-210 -58.5q-119 0 -185.5 48t-66.5 137q0 21 3 43l15 103l34 328h200l-58 -404q-2 -20 -2 -27q0 -37 18 -54t59 -17q47 0 71 23t29 75l40 404h203z" />
    <glyph glyph-name="udieresismacron" unicode="&#x1d6;" horiz-adv-x="566" 
d="M508 891l-10 -106h-303l-13 12l10 107h303zM242 737q38 0 59 -21.5t21 -59.5q0 -42 -23.5 -66.5t-63.5 -24.5q-39 0 -60 21.5t-21 61.5q0 41 23.5 65t64.5 24zM435 737q38 0 59 -21.5t21 -59.5q0 -42 -23.5 -66.5t-63.5 -24.5t-61 21.5t-21 61.5q0 41 24 65t65 24z
M519 253l-11 -84q-11 -88 -76.5 -134t-181.5 -46q-102 0 -159 38t-57 109q0 16 3 33l12 83l27 261h184l-47 -319q-1 -6 -1 -16q0 -24 13 -34t44 -10q35 0 51 14t19 46l31 319h187z" />
    <glyph glyph-name="Udieresisacute" unicode="&#x1d7;" horiz-adv-x="653" 
d="M520 1075l28 -123l-9 -15q-149 -18 -246 -27l-16 7l-16 83q130 39 243 82zM305 871q38 0 59 -21.5t21 -59.5q0 -42 -23.5 -66.5t-63.5 -24.5q-81 0 -81 83q0 41 23.5 65t64.5 24zM498 871q38 0 58.5 -21.5t20.5 -59.5q0 -42 -23 -66.5t-63 -24.5t-61 21.5t-21 61.5
q0 41 24 65t65 24zM610 319l-13 -103q-14 -111 -90 -169.5t-210 -58.5q-119 0 -185.5 48t-66.5 137q0 21 3 43l15 103l34 328h200l-58 -404q-2 -20 -2 -27q0 -37 18 -54t59 -17q47 0 71 23t29 75l40 404h203z" />
    <glyph glyph-name="udieresisacute" unicode="&#x1d8;" horiz-adv-x="566" 
d="M457 941l28 -123l-9 -15q-149 -18 -246 -27l-16 7l-16 83q130 39 243 82zM242 737q38 0 59 -21.5t21 -59.5q0 -42 -23.5 -66.5t-63.5 -24.5q-81 0 -81 83q0 41 23.5 65t64.5 24zM435 737q38 0 58.5 -21.5t20.5 -59.5q0 -42 -23 -66.5t-63 -24.5t-61 21.5t-21 61.5
q0 41 24 65t65 24zM519 253l-11 -84q-11 -88 -76.5 -134t-181.5 -46q-102 0 -159 38t-57 109q0 16 3 33l12 83l27 261h184l-47 -319q-1 -6 -1 -16q0 -24 13 -34t44 -10q35 0 51 14t19 46l31 319h187z" />
    <glyph glyph-name="Udieresiscaron" unicode="&#x1d9;" horiz-adv-x="653" 
d="M552 1069l25 -76q-87 -57 -158 -118h-34q-59 55 -148 118l43 76h18q12 -7 34 -19t40 -22t34 -19q23 11 67 31.5t61 28.5h18zM311 871q38 0 59 -21.5t21 -59.5q0 -42 -23.5 -66.5t-63.5 -24.5q-81 0 -81 83q0 41 23.5 65t64.5 24zM504 871q37 0 58 -21.5t21 -59.5
q0 -42 -23 -66.5t-63 -24.5t-61 21.5t-21 61.5q0 41 24 65t65 24zM610 319l-13 -103q-14 -111 -90 -169.5t-210 -58.5q-119 0 -185.5 48t-66.5 137q0 21 3 43l15 103l34 328h200l-58 -404q-2 -20 -2 -27q0 -37 18 -54t59 -17q47 0 71 23t29 75l40 404h203z" />
    <glyph glyph-name="udieresiscaron" unicode="&#x1da;" horiz-adv-x="566" 
d="M489 935l25 -76q-87 -57 -158 -118h-34q-59 55 -148 118l43 76h18q12 -7 34 -19t40 -22t34 -19q23 11 67 31.5t61 28.5h18zM248 737q38 0 59 -21.5t21 -59.5q0 -42 -23.5 -66.5t-63.5 -24.5q-81 0 -81 83q0 41 23.5 65t64.5 24zM441 737q37 0 58 -21.5t21 -59.5
q0 -42 -23 -66.5t-63 -24.5t-61 21.5t-21 61.5q0 41 24 65t65 24zM519 253l-11 -84q-11 -88 -76.5 -134t-181.5 -46q-102 0 -159 38t-57 109q0 16 3 33l12 83l27 261h184l-47 -319q-1 -6 -1 -16q0 -24 13 -34t44 -10q35 0 51 14t19 46l31 319h187z" />
    <glyph glyph-name="Udieresisgrave" unicode="&#x1db;" horiz-adv-x="653" 
d="M309 1075l16 7q108 -42 233 -82l-26 -83l-17 -7q-98 9 -242 27l-8 15zM298 871q38 0 59 -21t21 -60q0 -42 -23.5 -66.5t-63.5 -24.5q-81 0 -81 83q0 41 23.5 65t64.5 24zM491 871q38 0 58.5 -21t20.5 -60q0 -42 -23 -66.5t-63 -24.5t-61 21.5t-21 61.5q0 41 24 65t65 24z
M610 319l-13 -103q-14 -111 -90 -169.5t-210 -58.5q-119 0 -185.5 48t-66.5 137q0 21 3 43l15 103l34 328h200l-58 -404q-2 -20 -2 -27q0 -37 18 -54t59 -17q47 0 71 23t29 75l40 404h203z" />
    <glyph glyph-name="udieresisgrave" unicode="&#x1dc;" horiz-adv-x="566" 
d="M246 941l16 7q108 -42 233 -82l-26 -83l-17 -7q-98 9 -242 27l-8 15zM235 737q38 0 59 -21t21 -60q0 -42 -23.5 -66.5t-63.5 -24.5q-81 0 -81 83q0 41 23.5 65t64.5 24zM428 737q38 0 58.5 -21t20.5 -60q0 -42 -23 -66.5t-63 -24.5t-61 21.5t-21 61.5q0 41 24 65t65 24z
M519 253l-11 -84q-11 -88 -76.5 -134t-181.5 -46q-102 0 -159 38t-57 109q0 16 3 33l12 83l27 261h184l-47 -319q-1 -6 -1 -16q0 -24 13 -34t44 -10q35 0 51 14t19 46l31 319h187z" />
    <glyph glyph-name="Oogonek" unicode="&#x1ea;" horiz-adv-x="658" 
d="M538 -79l12 -72q-60 -46 -111 -46q-48 0 -76 27.5t-28 69.5q0 47 33 91l2 3q-33 -6 -71 -6q-131 0 -203 71.5t-72 216.5q0 171 94 277t262 106q131 0 202.5 -70.5t71.5 -214.5q0 -116 -44 -205t-127 -136l-36 -55q-16 -24 -16 -44q0 -33 36 -33q29 0 61 20h10zM233 273
q0 -79 17.5 -108.5t69.5 -29.5q29 0 49.5 9t38.5 32t27 69.5t9 116.5q0 79 -17.5 108.5t-69.5 29.5q-61 0 -92.5 -47t-31.5 -180z" />
    <glyph glyph-name="oogonek" unicode="&#x1eb;" horiz-adv-x="568" 
d="M351 2l-16 -24q-16 -24 -16 -44q0 -33 36 -33q29 0 61 20h10l12 -72q-60 -46 -111 -46q-48 0 -76 27.5t-28 69.5q0 45 32 89h-2q-113 0 -174.5 58t-61.5 175q0 135 79.5 218t221.5 83q113 0 174.5 -57.5t61.5 -173.5q0 -108 -53 -185.5t-150 -104.5zM210 224
q0 -61 13 -80t54 -19q21 0 34 5t25 20t18 47t6 82q0 59 -12.5 78.5t-52.5 19.5q-21 0 -34.5 -5t-26 -20t-18.5 -46.5t-6 -81.5z" />
    <glyph glyph-name="Aringacute" unicode="&#x1fa;" horiz-adv-x="657" 
d="M301 806l-18 81q118 41 239 91l16 -6l32 -122l-8 -15q-130 -22 -245 -35zM618 0h-202l-5 103v4l-99 2l-83 -4l-30 -105h-195l292 638q-5 20 -5 40q0 111 113 111q106 0 106 -104q0 -28 -8 -50zM399 711q-19 0 -26.5 -6.5t-7.5 -23.5q0 -19 8 -26.5t28 -7.5q19 0 26.5 7
t7.5 24q0 18 -8 25.5t-28 7.5zM397 247l-20 204h-11l-81 -204l55 -1z" />
    <glyph glyph-name="aringacute" unicode="&#x1fb;" horiz-adv-x="549" 
d="M228 792l-18 82q117 40 240 91l16 -6l32 -122l-8 -15q-119 -20 -245 -36zM218 665q0 110 114 110q106 0 106 -103q0 -55 -29 -84.5t-85 -29.5q-106 0 -106 107zM363 665q0 18 -8 25.5t-28 7.5q-19 0 -26.5 -6.5t-7.5 -23.5q0 -19 8 -26.5t28 -7.5q19 0 26.5 7t7.5 24z
M321 0l-2 74l-79 2l-65 -3l-20 -73h-177l224 513h220l83 -513h-184zM266 205l42 1l-14 146h-11l-58 -146z" />
    <glyph glyph-name="AEacute" unicode="&#x1fc;" horiz-adv-x="838" 
d="M463 716l-30 79q114 56 225 122l17 -4l49 -116l-6 -16q-132 -42 -238 -69zM817 159l10 -14l-30 -145h-435l8 107l3 67l-178 -52l-1 -3l-48 -119h-195l355 647h518l9 -14l-30 -145l-149 6h-75l-6 -114l175 53l13 -11l1 -138l-197 -55l-4 -76h91zM379 322l6 147h-12
l-90 -175z" />
    <glyph glyph-name="aeacute" unicode="&#x1fd;" horiz-adv-x="724" 
d="M387 563l-44 72q99 73 201 160l17 -1l69 -106l-3 -17q-142 -72 -223 -109zM705 133l7 -12l-25 -121h-371l8 88l1 45l-165 -47l-35 -86h-164l303 512h440l9 -13l-26 -121l-129 6h-65l-3 -82l152 44l11 -10v-115l-168 -44l-2 -49h79zM328 256l3 107h-11l-77 -131z" />
    <glyph glyph-name="Oslashacute" unicode="&#x1fe;" horiz-adv-x="658" 
d="M273 719l-30 79q114 56 225 122l17 -4l49 -116l-6 -16q-132 -42 -238 -69zM633 687l-56 -93q77 -72 77 -220q0 -172 -93.5 -279t-261.5 -107q-42 0 -82 8l-79 -131l-98 47l-6 17l73 120q-83 74 -83 227q0 171 94 277t262 106q48 0 88 -9l62 102l94 -46zM320 135
q29 0 49.5 9t38.5 32t27 69.5t9 116.5q0 79 -17.5 108.5t-69.5 29.5q-61 0 -92.5 -47t-31.5 -180q0 -79 17.5 -108.5t69.5 -29.5z" />
    <glyph glyph-name="oslashacute" unicode="&#x1ff;" horiz-adv-x="568" 
d="M226 565l-44 72q99 73 201 160l17 -1l69 -106l-3 -17q-142 -72 -223 -109zM565 539l-62 -85q51 -57 51 -162q0 -134 -80 -218.5t-221 -84.5q-45 0 -83 9l-85 -116l-85 59l-2 16l72 99q-53 59 -53 166q0 135 79.5 218t221.5 83q49 0 86 -10l74 101l80 -58zM277 125
q21 0 34 5t25 20t18 47t6 82q0 59 -12.5 78.5t-52.5 19.5q-21 0 -34.5 -5t-26 -20t-18.5 -46.5t-6 -81.5q0 -61 13 -80t54 -19z" />
    <glyph glyph-name="Scommaaccent" unicode="&#x218;" horiz-adv-x="528" 
d="M350 659q96 0 185 -35l-50 -162l-28 -12q-85 56 -143 56q-25 0 -39.5 -10.5t-14.5 -25.5q0 -19 25 -35.5t61 -33t72 -37t61 -57.5t25 -85q0 -98 -83 -166t-213 -68q-103 0 -211 38l48 173l21 12q43 -36 93 -56t86 -20q55 0 55 36q0 20 -25 37.5t-60 33t-70.5 36t-60.5 57
t-25 85.5q0 101 83 170t208 69zM263 -33q41 -40 41 -91q0 -98 -131 -187l-52 45l-2 12q48 41 48 93q0 37 -28 65l1 13q59 34 123 50z" />
    <glyph glyph-name="scommaaccent" unicode="&#x219;" horiz-adv-x="468" 
d="M299 523q80 0 154 -27l-43 -153l-26 -7q-32 23 -68.5 37t-57.5 14q-22 0 -22 -16q0 -12 20 -22.5t48 -21.5t56.5 -26.5t48.5 -45.5t20 -71q0 -79 -62.5 -137.5t-187.5 -58.5q-91 0 -178 28l44 160l18 13q36 -31 80 -51t74 -20q26 0 26 19q0 12 -20 22t-48.5 21t-57 26.5
t-48.5 46t-20 72.5q0 85 67.5 141.5t182.5 56.5zM241 -33q41 -40 41 -91q0 -98 -131 -187l-52 45l-2 12q48 41 48 93q0 37 -28 65l1 13q59 34 123 50z" />
    <glyph glyph-name="Tcommaaccent" unicode="&#x21a;" horiz-adv-x="518" 
d="M560 633l-28 -145l-131 6h-13l-40 -284l-18 -210h-199l34 190l32 304h-13l-134 -6l-10 14l29 145h482zM257 -33q41 -40 41 -91q0 -98 -131 -187l-52 45l-2 12q48 41 48 93q0 37 -28 65l1 13q59 34 123 50z" />
    <glyph glyph-name="tcommaaccent" unicode="&#x21b;" horiz-adv-x="457" 
d="M475 500l-26 -134l-112 6h-4l-29 -204l-13 -168h-184l27 149l23 223h-4l-115 -6l-9 13l27 134h412zM243 -33q41 -40 41 -91q0 -98 -131 -187l-52 45l-2 12q48 41 48 93q0 37 -28 65l1 13q59 34 123 50z" />
    <glyph glyph-name="dotlessj" unicode="&#x237;" horiz-adv-x="345" 
d="M307 513l-51 -345l-6 -69q-10 -76 -58 -119.5t-163 -78.5l-39 95l1 14q45 17 64 37t23 53l7 50l23 228l-79 -2l-8 11l26 126h260z" />
    <glyph glyph-name="circumflex" unicode="&#x2c6;" 
d="M98 530l-38 72q56 43 178 149h34q52 -59 147 -149l-56 -72h-18q-74 52 -105 78q-36 -26 -124 -78h-18z" />
    <glyph glyph-name="caron" unicode="&#x2c7;" 
d="M390 747l38 -71q-47 -36 -178 -150h-34q-47 54 -147 150l56 71h18q63 -44 103 -78q26 18 126 78h18z" />
    <glyph glyph-name="firsttonechinese" unicode="&#x2c9;" 
d="M392 678l-9 -107h-276l-12 13l9 106h276z" />
    <glyph glyph-name="breve" unicode="&#x2d8;" 
d="M393 732l31 -61q-23 -57 -71 -96.5t-117 -39.5q-75 0 -115 40t-51 96l47 61h27q12 -30 40 -46.5t64 -16.5q80 0 118 63h27z" />
    <glyph glyph-name="dotaccent" unicode="&#x2d9;" 
d="M247 730q44 0 68 -24.5t24 -69.5q0 -48 -27 -76t-73 -28t-70 24.5t-24 70.5q0 48 27.5 75.5t74.5 27.5z" />
    <glyph glyph-name="ring" unicode="&#x2da;" 
d="M250 755q106 0 106 -103q0 -55 -29 -84.5t-85 -29.5q-106 0 -106 107q0 110 114 110zM245 678q-19 0 -26.5 -6.5t-7.5 -23.5q0 -19 8 -26.5t28 -7.5q19 0 26.5 7t7.5 24q0 18 -8 25.5t-28 7.5z" />
    <glyph glyph-name="ogonek" unicode="&#x2db;" 
d="M224 82l-69 -104q-16 -24 -16 -44q0 -33 36 -33q29 0 61 20h10l12 -72q-60 -46 -111 -46q-48 0 -76 27.5t-28 69.5q0 47 33 91l68 91h80z" />
    <glyph glyph-name="tilde" unicode="&#x2dc;" 
d="M439 686v-16l-81 -113l-16 -6q-26 3 -83 18.5t-70 15.5q-4 0 -8 -1t-8.5 -3t-8 -4t-8 -6.5l-7 -7t-7.5 -8.5t-7 -9t-7.5 -9.5t-7.5 -9.5h-16l-57 55v16l81 112l16 6q26 -3 83 -18.5t70 -15.5q4 0 8 1t8.5 3t8 4t8 6.5l7 7t7.5 8.5t7 9t7.5 9.5t7.5 9.5h16z" />
    <glyph glyph-name="hungarumlaut" unicode="&#x2dd;" 
d="M108 522l-58 46q48 77 113 190l12 4l90 -62l3 -14q-62 -73 -145 -159zM273 522l-58 46q56 91 112 190l13 4l90 -62l3 -14q-62 -73 -145 -159z" />
    <glyph glyph-name="tildecomb" unicode="&#x303;" horiz-adv-x="0" 
d="M439 686v-16l-81 -113l-16 -6q-26 3 -83 18.5t-70 15.5q-4 0 -8 -1t-8.5 -3t-8 -4t-8 -6.5l-7 -7t-7.5 -8.5t-7 -9t-7.5 -9.5t-7.5 -9.5h-16l-57 55v16l81 112l16 6q26 -3 83 -18.5t70 -15.5q4 0 8 1t8.5 3t8 4t8 6.5l7 7t7.5 8.5t7 9t7.5 9.5t7.5 9.5h16z" />
    <glyph glyph-name="dotbelowcomb" unicode="&#x323;" horiz-adv-x="0" 
d="M153 -35q44 0 68.5 -25t24.5 -70q0 -48 -27 -75.5t-74 -27.5q-45 0 -69 24.5t-24 69.5q0 48 27 76t74 28z" />
    <glyph glyph-name="commaaccent" unicode="&#x326;" horiz-adv-x="0" 
d="M190 -33q41 -40 41 -91q0 -98 -131 -187l-52 45l-2 12q48 41 48 93q0 37 -28 65l1 13q59 34 123 50z" />
    <glyph glyph-name="Delta" unicode="&#x394;" horiz-adv-x="626" 
d="M587 0h-614l275 647h241zM337 469l-125 -325h165l-28 325h-12z" />
    <glyph glyph-name="Omega" unicode="&#x3a9;" horiz-adv-x="765" 
d="M428 659q136 0 210 -64t74 -179q0 -67 -28 -129.5t-91 -134.5l3 -5h51l88 10l9 -12l-41 -153l-132 8h-152l-37 -3l-8 7l13 108q65 68 89 130.5t24 135.5q0 63 -18.5 92.5t-70.5 29.5q-58 0 -88.5 -41.5t-30.5 -145.5q0 -119 53 -201l-13 -108l-9 -7l-35 3h-186l-111 -6
l-9 12l41 148l97 -8l26 1l3 5q-62 96 -62 200q0 137 90.5 222t250.5 85z" />
    <glyph glyph-name="mu" unicode="&#x3bc;" horiz-adv-x="522" 
d="M506 476l-47 -360l-4 -109l-177 -11l16 121h-13q-47 -64 -100 -116l-10 -75l-4 -109l-177 -11l72 546l4 113l177 11l-36 -277q-3 -23 18 -23q29 0 89 95l11 81l4 113z" />
    <glyph glyph-name="pi" unicode="&#x3c0;" horiz-adv-x="722" 
d="M620 357l-32 -206q-3 -24 13 -24q4 0 28 4l10 -10l-32 -101q-60 -29 -91 -29q-53 0 -83 30.5t-22 100.5l29 237h-84l-19 -149l-30 -295h-189l40 275l16 168q-15 -2 -31 -14t-41.5 -40t-33.5 -36h-19l-49 73l2 18l124 143l20 10h440l117 3l9 -14l-30 -145z" />
    <glyph glyph-name="Wgrave" unicode="&#x1e80;" horiz-adv-x="914" 
d="M411 913l17 4q95 -56 225 -122l-30 -79l-17 -4q-106 27 -238 69l-6 16zM694 0h-212l-32 234h-11l-86 -234h-213l-72 647h194l-2 -100l21 -346h11l111 296l-16 150h203l-1 -121l28 -325h11l120 334l32 112h184z" />
    <glyph glyph-name="wgrave" unicode="&#x1e81;" horiz-adv-x="780" 
d="M335 794l17 1q102 -87 201 -160l-44 -72l-17 -1q-81 37 -223 109l-3 17zM596 0h-200l-22 151h-11l-52 -151h-200l-56 513h182l-3 -89l8 -237h11l77 210l-11 116h190l-1 -109l15 -217h11l78 226l27 100h172z" />
    <glyph glyph-name="Wacute" unicode="&#x1e82;" horiz-adv-x="914" 
d="M607 913l49 -116l-6 -16q-132 -42 -238 -69l-17 4l-30 79q114 56 225 122zM694 0h-212l-32 234h-11l-86 -234h-213l-72 647h194l-2 -100l21 -346h11l111 296l-16 150h203l-1 -121l28 -325h11l120 334l32 112h184z" />
    <glyph glyph-name="wacute" unicode="&#x1e83;" horiz-adv-x="780" 
d="M503 794l69 -106l-3 -17q-142 -72 -223 -109l-17 1l-44 72q99 73 201 160zM596 0h-200l-22 151h-11l-52 -151h-200l-56 513h182l-3 -89l8 -237h11l77 210l-11 116h190l-1 -109l15 -217h11l78 226l27 100h172z" />
    <glyph glyph-name="Wdieresis" unicode="&#x1e84;" horiz-adv-x="914" 
d="M413 890q38 0 59.5 -21t21.5 -60q0 -42 -23.5 -66.5t-64.5 -24.5q-81 0 -81 83q0 42 23.5 65.5t64.5 23.5zM607 890q38 0 59 -21.5t21 -59.5q0 -42 -23.5 -66.5t-63.5 -24.5t-61 21.5t-21 61.5q0 42 24 65.5t65 23.5zM694 0h-212l-32 234h-11l-86 -234h-213l-72 647h194
l-2 -100l21 -346h11l111 296l-16 150h203l-1 -121l28 -325h11l120 334l32 112h184z" />
    <glyph glyph-name="wdieresis" unicode="&#x1e85;" horiz-adv-x="780" 
d="M334 756q38 0 59.5 -21t21.5 -60q0 -42 -23.5 -66.5t-64.5 -24.5q-81 0 -81 83q0 42 23.5 65.5t64.5 23.5zM528 756q38 0 59 -21.5t21 -59.5q0 -42 -23.5 -66.5t-63.5 -24.5t-61 21.5t-21 61.5q0 42 24 65.5t65 23.5zM596 0h-200l-22 151h-11l-52 -151h-200l-56 513h182
l-3 -89l8 -237h11l77 210l-11 116h190l-1 -109l15 -217h11l78 226l27 100h172z" />
    <glyph glyph-name="Germandbls" unicode="&#x1e9e;" horiz-adv-x="711" 
d="M413 659q73 0 136 -17.5t142 -55.5l5 -23l-137 -171q85 -69 106 -94q34 -41 34 -93q0 -54 -22 -96.5t-60 -68t-85.5 -39t-101.5 -13.5q-96 0 -178 38l49 173l22 12q77 -75 137 -75q37 0 37 29q0 20 -38.5 52t-137.5 91l-2 24l123 158q-33 12 -68 12q-53 0 -77.5 -23
t-30.5 -75l-29 -194l-18 -210h-200l34 190l22 214q12 118 99.5 186.5t238.5 68.5z" />
    <glyph glyph-name="Adotbelow" unicode="&#x1ea0;" horiz-adv-x="626" 
d="M587 0h-202l-4 107v4l-99 2l-83 -4l-31 -109h-195l276 647h241zM368 256l-18 213h-12l-83 -213l57 -1zM280 -35q44 0 68.5 -25t24.5 -70q0 -48 -27 -75.5t-74 -27.5q-45 0 -69 24.5t-24 69.5q0 48 27 76t74 28z" />
    <glyph glyph-name="adotbelow" unicode="&#x1ea1;" horiz-adv-x="549" 
d="M155 0h-177l224 513h220l83 -513h-184l-2 74l-79 2l-65 -3zM283 352l-58 -146l41 -1l42 1l-14 146h-11zM239 -35q44 0 68.5 -25t24.5 -70q0 -48 -27 -75.5t-74 -27.5q-45 0 -69 24.5t-24 69.5q0 48 27 76t74 28z" />
    <glyph glyph-name="Ahookabove" unicode="&#x1ea2;" horiz-adv-x="626" 
d="M328 866q-36 0 -70 -26l-29 47q55 60 127 60q43 0 71.5 -24t28.5 -63q0 -22 -13 -41t-48 -51l27 -43l-64 -39l-54 80q25 18 39.5 39t14.5 37q0 24 -30 24zM587 0h-202l-4 107v4l-99 2l-83 -4l-31 -109h-195l276 647h241zM368 256l-18 213h-12l-83 -213l57 -1z" />
    <glyph glyph-name="ahookabove" unicode="&#x1ea3;" horiz-adv-x="549" 
d="M270 732q-36 0 -70 -26l-29 47q55 60 127 60q43 0 71.5 -24t28.5 -63q0 -22 -13 -41t-48 -51l27 -43l-64 -39l-54 80q25 18 39.5 39t14.5 37q0 24 -30 24zM321 0l-2 74l-79 2l-65 -3l-20 -73h-177l224 513h220l83 -513h-184zM266 205l42 1l-14 146h-11l-58 -146z" />
    <glyph glyph-name="Acircumflexacute" unicode="&#x1ea4;" horiz-adv-x="626" 
d="M517 849l-63 46l70 149l12 7l97 -41l5 -13l-110 -148h-11zM242 701l-25 76q99 67 158 118h34q56 -54 147 -118l-42 -76h-18l-54 30l-54 30q-21 -10 -64 -30t-64 -30h-18zM490 647l97 -647h-202l-4 107v4l-99 2l-83 -4l-31 -109h-195l276 647h241zM368 256l-18 213h-12
l-83 -213l57 -1z" />
    <glyph glyph-name="acircumflexacute" unicode="&#x1ea5;" horiz-adv-x="549" 
d="M459 715l-63 46l70 149l12 7l97 -41l5 -13l-110 -148h-11zM184 567l-25 76q99 67 158 118h34q56 -54 147 -118l-42 -76h-18q-19 10 -54 30t-54 30q-20 -10 -64 -30t-64 -30h-18zM422 513l83 -513h-184l-2 74l-79 2l-65 -3l-20 -73h-177l224 513h220zM266 205l42 1
l-14 146h-11l-58 -146z" />
    <glyph glyph-name="Acircumflexgrave" unicode="&#x1ea6;" horiz-adv-x="626" 
d="M496 849l-110 148l5 13l98 41l11 -7l70 -149l-63 -46h-11zM235 700l-25 76q99 67 158 118h34q58 -55 148 -118l-43 -76h-18q-19 10 -54 30t-54 30q-20 -10 -64 -30t-64 -30h-18zM587 0h-202l-4 107v4l-99 2l-83 -4l-31 -109h-195l276 647h241zM368 256l-18 213h-12
l-83 -213l57 -1z" />
    <glyph glyph-name="acircumflexgrave" unicode="&#x1ea7;" horiz-adv-x="549" 
d="M438 715l-110 148l5 13l98 41l11 -7l70 -149l-63 -46h-11zM177 566l-25 76q99 67 158 118h34q58 -55 148 -118l-43 -76h-18q-19 10 -54 30t-54 30q-20 -10 -63.5 -30t-64.5 -30h-18zM422 513l83 -513h-184l-2 74l-79 2l-65 -3l-20 -73h-177l224 513h220zM266 205l42 1
l-14 146h-11l-58 -146z" />
    <glyph glyph-name="Acircumflexhookabove" unicode="&#x1ea8;" horiz-adv-x="626" 
d="M462 1022q-34 0 -67 -25l-27 45q53 58 121 58q41 0 68 -23t27 -61q0 -20 -12.5 -38.5t-45.5 -48.5l25 -41l-61 -37l-51 76q23 16 37 36t14 36q0 23 -28 23zM236 701l-25 76q99 67 158 118h34q58 -55 148 -118l-43 -76h-18q-19 10 -54 30t-54 30q-20 -10 -64 -30t-64 -30
h-18zM587 0h-202l-4 107v4l-99 2l-83 -4l-31 -109h-195l276 647h241zM368 256l-18 213h-12l-83 -213l57 -1z" />
    <glyph glyph-name="acircumflexhookabove" unicode="&#x1ea9;" horiz-adv-x="549" 
d="M404 888q-34 0 -67 -25l-27 45q53 58 121 58q41 0 68 -23t27 -61q0 -20 -12.5 -38.5t-45.5 -48.5l25 -41l-61 -37l-51 76q23 16 37 36t14 36q0 23 -28 23zM178 567l-25 76q99 67 158 118h34q58 -55 148 -118l-43 -76h-18q-19 10 -54.5 30t-53.5 30q-21 -10 -64 -30
t-64 -30h-18zM422 513l83 -513h-184l-2 74l-79 2l-65 -3l-20 -73h-177l224 513h220zM266 205l42 1l-14 146h-11l-58 -146z" />
    <glyph glyph-name="Acircumflextilde" unicode="&#x1eaa;" horiz-adv-x="626" 
d="M596 1030v-15l-73 -102l-15 -5q-24 3 -75.5 17t-63.5 14q-5 0 -10 -1.5t-9.5 -5t-8.5 -6t-9.5 -9t-8 -9.5t-9 -11t-8.5 -11h-14l-52 49v15l74 102l14 6q23 -3 75 -17t64 -14q22 0 52 39q2 3 6 8l5 6h15zM389 762q-20 -10 -64 -30t-64 -30h-18l-25 76q99 67 158 118h34
q56 -54 147 -118l-42 -76h-18l-54 30zM490 647l97 -647h-202l-4 107v4l-99 2l-83 -4l-31 -109h-195l276 647h241zM368 256l-18 213h-12l-83 -213l57 -1z" />
    <glyph glyph-name="acircumflextilde" unicode="&#x1eab;" horiz-adv-x="549" 
d="M538 896v-15l-73 -102l-15 -5q-24 3 -75.5 17t-63.5 14q-5 0 -10 -1.5t-9.5 -5t-8.5 -6t-9.5 -9t-8 -9.5t-9 -11t-8.5 -11h-14l-52 49v15l74 102l14 6q23 -3 75 -17t64 -14q10 0 22 8.5t16.5 14t19.5 24.5q3 4 5 6h15zM331 628q-20 -10 -64 -30t-64 -30h-18l-25 76
q99 67 158 118h34q56 -54 147 -118l-42 -76h-18l-54 30zM422 513l83 -513h-184l-2 74l-79 2l-65 -3l-20 -73h-177l224 513h220zM266 205l42 1l-14 146h-11l-58 -146z" />
    <glyph glyph-name="Acircumflexdotbelow" unicode="&#x1eac;" horiz-adv-x="626" 
d="M241 720l-25 76q99 67 158 118h34q58 -55 148 -118l-43 -76h-18q-19 10 -54 30t-54 30q-21 -10 -64 -30t-64 -30h-18zM587 0h-202l-4 107v4l-99 2l-83 -4l-31 -109h-195l276 647h241zM368 256l-18 213h-12l-83 -213l57 -1zM280 -35q44 0 68.5 -25t24.5 -70
q0 -48 -27 -75.5t-74 -27.5q-45 0 -69 24.5t-24 69.5q0 48 27 76t74 28z" />
    <glyph glyph-name="acircumflexdotbelow" unicode="&#x1ead;" horiz-adv-x="549" 
d="M185 571l-38 72q56 43 178 149h34q52 -59 147 -149l-56 -72h-18q-74 52 -105 78q-36 -26 -124 -78h-18zM422 513l83 -513h-184l-2 74l-79 2l-65 -3l-20 -73h-177l224 513h220zM266 205l42 1l-14 146h-11l-58 -146zM239 -35q44 0 68.5 -25t24.5 -70q0 -48 -27 -75.5
t-74 -27.5q-45 0 -69 24.5t-24 69.5q0 48 27 76t74 28z" />
    <glyph glyph-name="Abreveacute" unicode="&#x1eae;" horiz-adv-x="626" 
d="M385 861l-58 44q66 96 97 146l13 4l89 -57l2 -14q-62 -62 -128 -119zM383 696q-65 0 -110 32t-62 92l48 59h27q28 -50 107 -50q77 0 114 50h27l32 -59q-57 -124 -183 -124zM587 0h-202l-4 107v4l-99 2l-83 -4l-31 -109h-195l276 647h241zM368 256l-18 213h-12l-83 -213
l57 -1z" />
    <glyph glyph-name="abreveacute" unicode="&#x1eaf;" horiz-adv-x="549" 
d="M327 727l-58 44q66 96 97 146l13 4l89 -57l2 -14q-62 -62 -128 -119zM325 562q-65 0 -110 32t-62 92l48 59h27q28 -50 107 -50q77 0 114 50h27l32 -59q-57 -124 -183 -124zM422 513l83 -513h-184l-2 74l-79 2l-65 -3l-20 -73h-177l224 513h220zM266 205l42 1l-14 146h-11
l-58 -146z" />
    <glyph glyph-name="Abrevegrave" unicode="&#x1eb0;" horiz-adv-x="626" 
d="M397 861l-15 4q-62 53 -129 119l3 14l89 57l13 -4q31 -50 97 -146zM383 696q-65 0 -110 32t-62 92l48 59h27q28 -50 107 -50q77 0 114 50h27l32 -59q-57 -124 -183 -124zM587 0h-202l-4 107v4l-99 2l-83 -4l-31 -109h-195l276 647h241zM368 256l-18 213h-12l-83 -213
l57 -1z" />
    <glyph glyph-name="abrevegrave" unicode="&#x1eb1;" horiz-adv-x="549" 
d="M339 727l-15 4q-62 53 -129 119l3 14l89 57l13 -4q31 -50 97 -146zM325 562q-65 0 -110 32t-62 92l48 59h27q28 -50 107 -50q77 0 114 50h27l32 -59q-57 -124 -183 -124zM422 513l83 -513h-184l-2 74l-79 2l-65 -3l-20 -73h-177l224 513h220zM266 205l42 1l-14 146h-11
l-58 -146z" />
    <glyph glyph-name="Abrevehookabove" unicode="&#x1eb2;" horiz-adv-x="626" 
d="M353 1033q-36 0 -70 -26l-29 47q56 61 127 61q43 0 71.5 -24.5t28.5 -63.5q0 -22 -13 -41t-48 -51l27 -43l-64 -38l-54 79q25 18 39.5 39t14.5 37q0 24 -30 24zM383 696q-65 0 -110 32t-62 92l48 59h27q28 -50 107 -50q77 0 114 50h27l32 -59q-57 -124 -183 -124zM587 0
h-202l-4 107v4l-99 2l-83 -4l-31 -109h-195l276 647h241zM368 256l-18 213h-12l-83 -213l57 -1z" />
    <glyph glyph-name="abrevehookabove" unicode="&#x1eb3;" horiz-adv-x="549" 
d="M295 899q-36 0 -70 -26l-29 47q56 61 127 61q43 0 71.5 -24.5t28.5 -63.5q0 -22 -13 -41t-48 -51l27 -43l-64 -38l-54 79q25 18 39.5 39t14.5 37q0 24 -30 24zM325 562q-65 0 -110 32t-62 92l48 59h27q28 -50 107 -50q77 0 114 50h27l32 -59q-57 -124 -183 -124zM422 513
l83 -513h-184l-2 74l-79 2l-65 -3l-20 -73h-177l224 513h220zM266 205l42 1l-14 146h-11l-58 -146z" />
    <glyph glyph-name="Abrevetilde" unicode="&#x1eb4;" horiz-adv-x="626" 
d="M598 1035v-15l-73 -103l-15 -5q-24 3 -75.5 17.5t-63.5 14.5q-5 0 -10 -1.5t-9.5 -5t-8.5 -6t-9.5 -9t-8 -9.5t-9 -11t-8.5 -11h-14l-52 49v15l74 102l14 6q23 -3 75 -17t64 -14q22 0 52 39q2 3 6 8l5 6h15zM383 695q-60 0 -102 30t-58 85l45 55h25q27 -46 100 -46
q71 0 106 46h25l30 -55q-54 -115 -171 -115zM490 647l97 -647h-202l-4 107v4l-99 2l-83 -4l-31 -109h-195l276 647h241zM368 256l-18 213h-12l-83 -213l57 -1z" />
    <glyph glyph-name="abrevetilde" unicode="&#x1eb5;" horiz-adv-x="549" 
d="M540 901v-15l-73 -103l-15 -5q-24 3 -75.5 17.5t-63.5 14.5q-5 0 -10 -1.5t-9.5 -5t-8.5 -6t-9.5 -9t-8 -9.5t-9 -11t-8.5 -11h-14l-52 49v15l74 102l14 6q23 -3 75 -17t64 -14q10 0 22 8.5t16.5 14t19.5 24.5q3 4 5 6h15zM325 561q-60 0 -102 30t-58 85l45 55h25
q27 -46 100 -46q71 0 106 46h25l30 -55q-54 -115 -171 -115zM422 513l83 -513h-184l-2 74l-79 2l-65 -3l-20 -73h-177l224 513h220zM266 205l42 1l-14 146h-11l-58 -146z" />
    <glyph glyph-name="Abrevedotbelow" unicode="&#x1eb6;" horiz-adv-x="626" 
d="M379 716q-65 0 -110 32t-62 92l48 59h27q28 -50 107 -50q77 0 114 50h27l32 -59q-57 -124 -183 -124zM587 0h-202l-4 107v4l-99 2l-83 -4l-31 -109h-195l276 647h241zM368 256l-18 213h-12l-83 -213l57 -1zM280 -35q44 0 68.5 -25t24.5 -70q0 -48 -27 -75.5t-74 -27.5
q-45 0 -69 24.5t-24 69.5q0 48 27 76t74 28z" />
    <glyph glyph-name="abrevedotbelow" unicode="&#x1eb7;" horiz-adv-x="549" 
d="M314 576q-75 0 -115 40t-51 96l47 61h27q12 -30 40 -46.5t64 -16.5q80 0 118 63h27l31 -61q-23 -57 -71 -96.5t-117 -39.5zM155 0h-177l224 513h220l83 -513h-184l-2 74l-79 2l-65 -3zM283 352l-58 -146l41 -1l42 1l-14 146h-11zM239 -35q44 0 68.5 -25t24.5 -70
q0 -48 -27 -75.5t-74 -27.5q-45 0 -69 24.5t-24 69.5q0 48 27 76t74 28z" />
    <glyph glyph-name="Edotbelow" unicode="&#x1eb8;" horiz-adv-x="540" 
d="M291 494l-13 -92h98l105 3l9 -14l-30 -146l-115 3h-90l-6 -38l-5 -57h96l167 6l9 -14l-30 -145h-455l33 190l47 457h463l9 -14l-31 -145l-158 6h-103zM286 -35q44 0 68.5 -25t24.5 -70q0 -48 -27 -75.5t-74 -27.5q-45 0 -69 24.5t-24 69.5q0 48 27 76t74 28z" />
    <glyph glyph-name="edotbelow" unicode="&#x1eb9;" horiz-adv-x="480" 
d="M253 372l-7 -45h80l88 3l8 -13l-27 -135l-97 3h-73l-3 -17l-2 -27h79l140 5l9 -12l-28 -134h-396l28 149l35 364h403l9 -13l-28 -134l-133 6h-85zM228 -35q44 0 68.5 -25t24.5 -70q0 -48 -27 -75.5t-74 -27.5q-45 0 -69 24.5t-24 69.5q0 48 27 76t74 28z" />
    <glyph glyph-name="Ehookabove" unicode="&#x1eba;" horiz-adv-x="540" 
d="M300 866q-36 0 -70 -26l-29 47q55 60 127 60q43 0 71.5 -24t28.5 -63q0 -22 -13 -41t-48 -51l27 -43l-64 -39l-54 80q25 18 39.5 39t14.5 37q0 24 -30 24zM291 494l-13 -92h98l105 3l9 -14l-30 -146l-115 3h-90l-6 -38l-5 -57h96l167 6l9 -14l-30 -145h-455l33 190
l47 457h463l9 -14l-31 -145l-158 6h-103z" />
    <glyph glyph-name="ehookabove" unicode="&#x1ebb;" horiz-adv-x="480" 
d="M234 732q-36 0 -70 -26l-29 47q55 60 127 60q43 0 71.5 -24t28.5 -63q0 -22 -13 -41t-48 -51l27 -43l-64 -39l-54 80q25 18 39.5 39t14.5 37q0 24 -30 24zM253 372l-7 -45h80l88 3l8 -13l-27 -135l-97 3h-73l-3 -17l-2 -27h79l140 5l9 -12l-28 -134h-396l28 149l35 364
h403l9 -13l-28 -134l-133 6h-85z" />
    <glyph glyph-name="Ecircumflexacute" unicode="&#x1ebe;" horiz-adv-x="540" 
d="M489 849l-63 46l70 149l12 7l97 -41l5 -13l-110 -148h-11zM214 701l-25 76q99 67 158 118h34q56 -54 147 -118l-42 -76h-18q-19 10 -54 30t-54 30q-20 -10 -64 -30t-64 -30h-18zM574 647l9 -14l-31 -145l-158 6h-103l-13 -92h98l105 3l9 -14l-30 -146l-115 3h-90l-6 -38
l-5 -57h96l167 6l9 -14l-30 -145h-455l33 190l47 457h463z" />
    <glyph glyph-name="ecircumflexacute" unicode="&#x1ebf;" horiz-adv-x="480" 
d="M423 715l-63 46l70 149l12 7l97 -41l5 -13l-110 -148h-11zM148 567l-25 76q99 67 158 118h34q56 -54 147 -118l-42 -76h-18l-54 30l-54 30q-21 -10 -64 -30t-64 -30h-18zM490 513l9 -13l-28 -134l-133 6h-85l-7 -45h80l88 3l8 -13l-27 -135l-97 3h-73l-3 -17l-2 -27h79
l140 5l9 -12l-28 -134h-396l28 149l35 364h403z" />
    <glyph glyph-name="Ecircumflexgrave" unicode="&#x1ec0;" horiz-adv-x="540" 
d="M468 849l-110 148l5 13l98 41l11 -7l70 -149l-63 -46h-11zM207 700l-25 76q99 67 158 118h34q58 -55 148 -118l-43 -76h-18l-54 30l-54 30q-20 -10 -64 -30t-64 -30h-18zM291 494l-13 -92h98l105 3l9 -14l-30 -146l-115 3h-90l-6 -38l-5 -57h96l167 6l9 -14l-30 -145
h-455l33 190l47 457h463l9 -14l-31 -145l-158 6h-103z" />
    <glyph glyph-name="ecircumflexgrave" unicode="&#x1ec1;" horiz-adv-x="480" 
d="M402 715l-110 148l5 13l98 41l11 -7l70 -149l-63 -46h-11zM141 566l-25 76q99 67 158 118h34q58 -55 148 -118l-43 -76h-18q-19 10 -54 30t-54 30q-21 -10 -64 -30t-64 -30h-18zM253 372l-7 -45h80l88 3l8 -13l-27 -135l-97 3h-73l-3 -17l-2 -27h79l140 5l9 -12l-28 -134
h-396l28 149l35 364h403l9 -13l-28 -134l-133 6h-85z" />
    <glyph glyph-name="Ecircumflexhookabove" unicode="&#x1ec2;" horiz-adv-x="540" 
d="M434 1022q-34 0 -67 -25l-27 45q53 58 121 58q41 0 68 -23t27 -61q0 -20 -12.5 -38.5t-45.5 -48.5l25 -41l-61 -37l-51 76q23 16 37 36t14 36q0 23 -28 23zM208 701l-25 76q99 67 158 118h34q58 -55 148 -118l-43 -76h-18q-19 10 -54 30t-54 30q-20 -10 -64 -30t-64 -30
h-18zM291 494l-13 -92h98l105 3l9 -14l-30 -146l-115 3h-90l-6 -38l-5 -57h96l167 6l9 -14l-30 -145h-455l33 190l47 457h463l9 -14l-31 -145l-158 6h-103z" />
    <glyph glyph-name="ecircumflexhookabove" unicode="&#x1ec3;" horiz-adv-x="480" 
d="M368 888q-34 0 -67 -25l-27 45q53 58 121 58q41 0 68 -23t27 -61q0 -20 -12.5 -38.5t-45.5 -48.5l25 -41l-61 -37l-51 76q23 16 37 36t14 36q0 23 -28 23zM142 567l-25 76q99 67 158 118h34q58 -55 148 -118l-43 -76h-18q-18 10 -53.5 30t-54.5 30q-20 -10 -63.5 -30
t-64.5 -30h-18zM253 372l-7 -45h80l88 3l8 -13l-27 -135l-97 3h-73l-3 -17l-2 -27h79l140 5l9 -12l-28 -134h-396l28 149l35 364h403l9 -13l-28 -134l-133 6h-85z" />
    <glyph glyph-name="Ecircumflextilde" unicode="&#x1ec4;" horiz-adv-x="540" 
d="M264 886l-52 49v15l74 102l14 6q23 -3 75 -17t64 -14q22 0 52 39q2 3 6 8l5 6h15l51 -50v-15l-73 -102l-15 -5q-24 3 -75.5 17t-63.5 14q-5 0 -10 -1.5t-9.5 -5t-8.5 -6t-9.5 -9t-8 -9.5t-9 -11t-8.5 -11h-14zM215 702l-25 76q99 67 158 118h34q56 -54 147 -118l-42 -76
h-18q-19 10 -54.5 30t-53.5 30q-20 -10 -64 -30t-64 -30h-18zM291 494l-13 -92h98l105 3l9 -14l-30 -146l-115 3h-90l-6 -38l-5 -57h96l167 6l9 -14l-30 -145h-455l33 190l47 457h463l9 -14l-31 -145l-158 6h-103z" />
    <glyph glyph-name="ecircumflextilde" unicode="&#x1ec5;" horiz-adv-x="480" 
d="M502 896v-15l-73 -102l-15 -5q-24 3 -75.5 17t-63.5 14q-5 0 -10 -1.5t-9.5 -5t-8.5 -6t-9.5 -9t-8 -9.5t-9 -11t-8.5 -11h-14l-52 49v15l74 102l14 6q23 -3 75 -17t64 -14q10 0 22 8.5t16.5 14t19.5 24.5q3 4 5 6h15zM295 628q-21 -10 -64 -30t-64 -30h-18l-25 76
q99 67 158 118h34q56 -54 147 -118l-42 -76h-18l-54 30zM490 513l9 -13l-28 -134l-133 6h-85l-7 -45h80l88 3l8 -13l-27 -135l-97 3h-73l-3 -17l-2 -27h79l140 5l9 -12l-28 -134h-396l28 149l35 364h403z" />
    <glyph glyph-name="Ecircumflexdotbelow" unicode="&#x1ec6;" horiz-adv-x="540" 
d="M213 720l-25 76q99 67 158 118h34q58 -55 148 -118l-43 -76h-18q-19 10 -54 30t-54 30q-21 -10 -64 -30t-64 -30h-18zM291 494l-13 -92h98l105 3l9 -14l-30 -146l-115 3h-90l-6 -38l-5 -57h96l167 6l9 -14l-30 -145h-455l33 190l47 457h463l9 -14l-31 -145l-158 6h-103z
M286 -35q44 0 68.5 -25t24.5 -70q0 -48 -27 -75.5t-74 -27.5q-45 0 -69 24.5t-24 69.5q0 48 27 76t74 28z" />
    <glyph glyph-name="ecircumflexdotbelow" unicode="&#x1ec7;" horiz-adv-x="480" 
d="M150 571l-38 72q56 43 178 149h34q52 -59 147 -149l-56 -72h-18q-74 52 -105 78q-36 -26 -124 -78h-18zM253 372l-7 -45h80l88 3l8 -13l-27 -135l-97 3h-73l-3 -17l-2 -27h79l140 5l9 -12l-28 -134h-396l28 149l35 364h403l9 -13l-28 -134l-133 6h-85zM228 -35
q44 0 68.5 -25t24.5 -70q0 -48 -27 -75.5t-74 -27.5q-45 0 -69 24.5t-24 69.5q0 48 27 76t74 28z" />
    <glyph glyph-name="Ihookabove" unicode="&#x1ec8;" horiz-adv-x="327" 
d="M202 947q43 0 71.5 -24t28.5 -63q0 -22 -13 -41t-48 -51l27 -43l-64 -39l-54 80q25 18 39.5 39t14.5 37q0 24 -30 24q-36 0 -70 -26l-29 47q55 60 127 60zM249 210l-18 -210h-200l34 190l46 457h203z" />
    <glyph glyph-name="ihookabove" unicode="&#x1ec9;" horiz-adv-x="304" 
d="M167 813q43 0 71.5 -24t28.5 -63q0 -22 -13 -41t-48 -51l27 -43l-64 -39l-54 80q25 18 39.5 39t14.5 37q0 24 -30 24q-36 0 -70 -26l-29 47q55 60 127 60zM222 168l-12 -168h-185l27 149l36 364h188z" />
    <glyph glyph-name="Idotbelow" unicode="&#x1eca;" horiz-adv-x="327" 
d="M249 210l-18 -210h-200l34 190l46 457h203zM125 -35q44 0 68.5 -25t24.5 -70q0 -48 -27 -75.5t-74 -27.5q-45 0 -69 24.5t-24 69.5q0 48 27 76t74 28z" />
    <glyph glyph-name="idotbelow" unicode="&#x1ecb;" horiz-adv-x="304" 
d="M222 168l-12 -168h-185l27 149l36 364h188zM109 -35q44 0 68.5 -25t24.5 -70q0 -48 -27 -75.5t-74 -27.5q-45 0 -69 24.5t-24 69.5q0 48 27 76t74 28z" />
    <glyph glyph-name="Odotbelow" unicode="&#x1ecc;" horiz-adv-x="658" 
d="M380 659q131 0 202.5 -70.5t71.5 -214.5q0 -172 -93.5 -279t-261.5 -107q-131 0 -203 71.5t-72 216.5q0 171 94 277t262 106zM357 500q-61 0 -92.5 -47t-31.5 -180q0 -79 17.5 -108.5t69.5 -29.5q29 0 49.5 9t38.5 32t27 69.5t9 116.5q0 79 -17.5 108.5t-69.5 29.5z
M315 -35q44 0 68.5 -25t24.5 -70q0 -48 -27 -75.5t-74 -27.5q-45 0 -69 24.5t-24 69.5q0 48 27 76t74 28z" />
    <glyph glyph-name="odotbelow" unicode="&#x1ecd;" horiz-adv-x="568" 
d="M318 523q113 0 174.5 -57.5t61.5 -173.5q0 -134 -80 -218.5t-221 -84.5q-113 0 -174.5 58t-61.5 175q0 135 79.5 218t221.5 83zM295 377q-21 0 -34.5 -5t-26 -20t-18.5 -46.5t-6 -81.5q0 -61 13 -80t54 -19q21 0 34 5t25 20t18 47t6 82q0 59 -12.5 78.5t-52.5 19.5z
M265 -35q44 0 68.5 -25t24.5 -70q0 -48 -27 -75.5t-74 -27.5q-45 0 -69 24.5t-24 69.5q0 48 27 76t74 28z" />
    <glyph glyph-name="Ohookabove" unicode="&#x1ece;" horiz-adv-x="658" 
d="M370 947q43 0 71.5 -24t28.5 -63q0 -22 -13 -41t-48 -51l27 -43l-64 -39l-54 80q25 18 39.5 39t14.5 37q0 24 -30 24q-36 0 -70 -26l-29 47q55 60 127 60zM380 659q131 0 202.5 -70.5t71.5 -214.5q0 -172 -93.5 -279t-261.5 -107q-131 0 -203 71.5t-72 216.5
q0 171 94 277t262 106zM357 500q-61 0 -92.5 -47t-31.5 -180q0 -79 17.5 -108.5t69.5 -29.5q29 0 49.5 9t38.5 32t27 69.5t9 116.5q0 79 -17.5 108.5t-69.5 29.5z" />
    <glyph glyph-name="ohookabove" unicode="&#x1ecf;" horiz-adv-x="568" 
d="M303 813q43 0 71.5 -24t28.5 -63q0 -22 -13 -41t-48 -51l27 -43l-64 -39l-54 80q25 18 39.5 39t14.5 37q0 24 -30 24q-36 0 -70 -26l-29 47q55 60 127 60zM318 523q113 0 174.5 -57.5t61.5 -173.5q0 -134 -80 -218.5t-221 -84.5q-113 0 -174.5 58t-61.5 175
q0 135 79.5 218t221.5 83zM295 377q-21 0 -34.5 -5t-26 -20t-18.5 -46.5t-6 -81.5q0 -61 13 -80t54 -19q21 0 34 5t25 20t18 47t6 82q0 59 -12.5 78.5t-52.5 19.5z" />
    <glyph glyph-name="Ocircumflexacute" unicode="&#x1ed0;" horiz-adv-x="658" 
d="M647 1010l5 -13l-110 -148h-11l-63 46l70 149l12 7zM389 895h34q56 -54 147 -118l-42 -76h-18q-18 10 -53.5 30t-54.5 30q-20 -10 -64 -30t-64 -30h-18l-25 76q99 67 158 118zM380 659q131 0 202.5 -70.5t71.5 -214.5q0 -172 -93.5 -279t-261.5 -107q-131 0 -203 71.5
t-72 216.5q0 171 94 277t262 106zM357 500q-61 0 -92.5 -47t-31.5 -180q0 -79 17.5 -108.5t69.5 -29.5q29 0 49.5 9t38.5 32t27 69.5t9 116.5q0 79 -17.5 108.5t-69.5 29.5z" />
    <glyph glyph-name="ocircumflexacute" unicode="&#x1ed1;" horiz-adv-x="568" 
d="M580 876l5 -13l-110 -148h-11l-63 46l70 149l12 7zM322 761h34q56 -54 147 -118l-42 -76h-18q-19 10 -54 30t-54 30q-21 -10 -64 -30t-64 -30h-18l-25 76q99 67 158 118zM318 523q113 0 174.5 -57.5t61.5 -173.5q0 -134 -80 -218.5t-221 -84.5q-113 0 -174.5 58
t-61.5 175q0 135 79.5 218t221.5 83zM295 377q-21 0 -34.5 -5t-26 -20t-18.5 -46.5t-6 -81.5q0 -61 13 -80t54 -19q21 0 34 5t25 20t18 47t6 82q0 59 -12.5 78.5t-52.5 19.5z" />
    <glyph glyph-name="Ocircumflexgrave" unicode="&#x1ed2;" horiz-adv-x="658" 
d="M514 1044l70 -149l-63 -46h-11l-110 148l5 13l98 41zM382 894h34q58 -55 148 -118l-43 -76h-18l-54 30l-54 30q-20 -10 -63.5 -30t-64.5 -30h-18l-25 76q99 67 158 118zM380 659q131 0 202.5 -70.5t71.5 -214.5q0 -172 -93.5 -279t-261.5 -107q-131 0 -203 71.5
t-72 216.5q0 171 94 277t262 106zM357 500q-61 0 -92.5 -47t-31.5 -180q0 -79 17.5 -108.5t69.5 -29.5q29 0 49.5 9t38.5 32t27 69.5t9 116.5q0 79 -17.5 108.5t-69.5 29.5z" />
    <glyph glyph-name="ocircumflexgrave" unicode="&#x1ed3;" horiz-adv-x="568" 
d="M447 910l70 -149l-63 -46h-11l-110 148l5 13l98 41zM315 760h34q58 -55 148 -118l-43 -76h-18q-18 10 -53.5 30t-54.5 30q-20 -10 -63.5 -30t-64.5 -30h-18l-25 76q99 67 158 118zM318 523q113 0 174.5 -57.5t61.5 -173.5q0 -134 -80 -218.5t-221 -84.5q-113 0 -174.5 58
t-61.5 175q0 135 79.5 218t221.5 83zM295 377q-21 0 -34.5 -5t-26 -20t-18.5 -46.5t-6 -81.5q0 -61 13 -80t54 -19q21 0 34 5t25 20t18 47t6 82q0 59 -12.5 78.5t-52.5 19.5z" />
    <glyph glyph-name="Ocircumflexhookabove" unicode="&#x1ed4;" horiz-adv-x="658" 
d="M503 1100q41 0 68 -23t27 -61q0 -20 -12.5 -38.5t-45.5 -48.5l25 -41l-61 -37l-51 76q23 16 37 36t14 36q0 23 -28 23q-34 0 -67 -25l-27 45q53 58 121 58zM383 895h34q58 -55 148 -118l-43 -76h-18q-19 10 -54 30t-54 30q-21 -10 -64 -30t-64 -30h-18l-25 76
q99 67 158 118zM380 659q131 0 202.5 -70.5t71.5 -214.5q0 -172 -93.5 -279t-261.5 -107q-131 0 -203 71.5t-72 216.5q0 171 94 277t262 106zM357 500q-61 0 -92.5 -47t-31.5 -180q0 -79 17.5 -108.5t69.5 -29.5q29 0 49.5 9t38.5 32t27 69.5t9 116.5q0 79 -17.5 108.5
t-69.5 29.5z" />
    <glyph glyph-name="ocircumflexhookabove" unicode="&#x1ed5;" horiz-adv-x="568" 
d="M436 966q41 0 68 -23t27 -61q0 -20 -12.5 -38.5t-45.5 -48.5l25 -41l-61 -37l-51 76q23 16 37 36t14 36q0 23 -28 23q-34 0 -67 -25l-27 45q53 58 121 58zM316 761h34q58 -55 148 -118l-43 -76h-18q-19 10 -54 30t-54 30q-20 -10 -63.5 -30t-64.5 -30h-18l-25 76
q99 67 158 118zM318 523q113 0 174.5 -57.5t61.5 -173.5q0 -134 -80 -218.5t-221 -84.5q-113 0 -174.5 58t-61.5 175q0 135 79.5 218t221.5 83zM295 377q-21 0 -34.5 -5t-26 -20t-18.5 -46.5t-6 -81.5q0 -61 13 -80t54 -19q21 0 34 5t25 20t18 47t6 82q0 59 -12.5 78.5
t-52.5 19.5z" />
    <glyph glyph-name="Ocircumflextilde" unicode="&#x1ed6;" horiz-adv-x="658" 
d="M610 1030v-15l-73 -102l-15 -5q-24 3 -75.5 17t-63.5 14q-5 0 -10 -1.5t-9.5 -5t-8.5 -6t-9.5 -9t-8 -9.5t-9 -11t-8.5 -11h-14l-52 49v15l74 102l14 6q23 -3 75 -17t64 -14q22 0 52 39q2 3 6 8l5 6h15zM390 896h34q56 -54 147 -118l-42 -76h-18q-19 10 -54 30t-54 30
q-20 -10 -64 -30t-64 -30h-18l-25 76q99 67 158 118zM380 659q131 0 202.5 -70.5t71.5 -214.5q0 -172 -93.5 -279t-261.5 -107q-131 0 -203 71.5t-72 216.5q0 171 94 277t262 106zM357 500q-61 0 -92.5 -47t-31.5 -180q0 -79 17.5 -108.5t69.5 -29.5q29 0 49.5 9t38.5 32
t27 69.5t9 116.5q0 79 -17.5 108.5t-69.5 29.5z" />
    <glyph glyph-name="ocircumflextilde" unicode="&#x1ed7;" horiz-adv-x="568" 
d="M543 896v-15l-73 -102l-15 -5q-24 3 -75.5 17t-63.5 14q-5 0 -10 -1.5t-9.5 -5t-8.5 -6t-9.5 -9t-8 -9.5t-9 -11t-8.5 -11h-14l-52 49v15l74 102l14 6q23 -3 75 -17t64 -14q10 0 22 8.5t16.5 14t19.5 24.5q3 4 5 6h15zM323 762h34q56 -54 147 -118l-42 -76h-18l-54 30
l-54 30q-21 -10 -64 -30t-64 -30h-18l-25 76q99 67 158 118zM318 523q113 0 174.5 -57.5t61.5 -173.5q0 -134 -80 -218.5t-221 -84.5q-113 0 -174.5 58t-61.5 175q0 135 79.5 218t221.5 83zM295 377q-21 0 -34.5 -5t-26 -20t-18.5 -46.5t-6 -81.5q0 -61 13 -80t54 -19
q21 0 34 5t25 20t18 47t6 82q0 59 -12.5 78.5t-52.5 19.5z" />
    <glyph glyph-name="Ocircumflexdotbelow" unicode="&#x1ed8;" horiz-adv-x="658" 
d="M255 720l-25 76q99 67 158 118h34q58 -55 148 -118l-43 -76h-18q-19 10 -54.5 30t-53.5 30q-20 -10 -64 -30t-64 -30h-18zM380 659q131 0 202.5 -70.5t71.5 -214.5q0 -172 -93.5 -279t-261.5 -107q-131 0 -203 71.5t-72 216.5q0 171 94 277t262 106zM357 500
q-61 0 -92.5 -47t-31.5 -180q0 -79 17.5 -108.5t69.5 -29.5q29 0 49.5 9t38.5 32t27 69.5t9 116.5q0 79 -17.5 108.5t-69.5 29.5zM315 -35q44 0 68.5 -25t24.5 -70q0 -48 -27 -75.5t-74 -27.5q-45 0 -69 24.5t-24 69.5q0 48 27 76t74 28z" />
    <glyph glyph-name="ocircumflexdotbelow" unicode="&#x1ed9;" horiz-adv-x="568" 
d="M194 571l-38 72q56 43 178 149h34q52 -59 147 -149l-56 -72h-18q-74 52 -105 78q-36 -26 -124 -78h-18zM318 523q113 0 174.5 -57.5t61.5 -173.5q0 -134 -80 -218.5t-221 -84.5q-113 0 -174.5 58t-61.5 175q0 135 79.5 218t221.5 83zM295 377q-21 0 -34.5 -5t-26 -20
t-18.5 -46.5t-6 -81.5q0 -61 13 -80t54 -19q21 0 34 5t25 20t18 47t6 82q0 59 -12.5 78.5t-52.5 19.5zM265 -35q44 0 68.5 -25t24.5 -70q0 -48 -27 -75.5t-74 -27.5q-45 0 -69 24.5t-24 69.5q0 48 27 76t74 28z" />
    <glyph glyph-name="Ohornacute" unicode="&#x1eda;" horiz-adv-x="664" 
d="M499 913l49 -116l-6 -16q-132 -42 -238 -69l-17 4l-30 79q114 56 225 122zM681 789q33 0 53 -24.5t20 -64.5q0 -56 -39 -98.5t-99 -56.5q37 -67 37 -164q0 -176 -95 -284.5t-260 -108.5q-132 0 -203 74t-71 215q0 172 98.5 277t250.5 105q49 0 105.5 -14t71.5 -14
q52 0 52 51q0 34 -22 56l5 14q55 37 96 37zM356 500q-39 0 -64 -16t-42 -68t-17 -144q0 -77 17.5 -107t72.5 -30q38 0 62.5 15.5t42 68t17.5 145.5q0 75 -17.5 105.5t-71.5 30.5z" />
    <glyph glyph-name="ohornacute" unicode="&#x1edb;" horiz-adv-x="578" 
d="M410 779l49 -116l-6 -16q-132 -42 -238 -69l-17 4l-30 79q114 56 225 122zM481 582l4 13q53 34 90 34q29 0 47 -21t18 -53q0 -47 -33.5 -84.5t-80.5 -45.5q27 -48 27 -121q0 -145 -79 -230t-221 -85q-111 0 -173.5 57.5t-62.5 160.5q0 146 79.5 231t207.5 85
q40 0 92.5 -10.5t63.5 -10.5q39 0 39 39q0 26 -18 41zM277 125q30 0 46 9.5t26.5 48t10.5 114.5q0 47 -14.5 63.5t-50.5 16.5q-31 0 -47.5 -10t-27 -48t-10.5 -113q0 -47 14.5 -64t52.5 -17z" />
    <glyph glyph-name="Ohorngrave" unicode="&#x1edc;" horiz-adv-x="664" 
d="M303 913l17 4q95 -56 225 -122l-30 -79l-17 -4q-106 27 -238 69l-6 16zM681 789q33 0 53 -24.5t20 -64.5q0 -56 -39 -98.5t-99 -56.5q37 -67 37 -164q0 -176 -95 -284.5t-260 -108.5q-132 0 -203 74t-71 215q0 172 98.5 277t250.5 105q49 0 105.5 -14t71.5 -14
q52 0 52 51q0 34 -22 56l5 14q55 37 96 37zM356 500q-39 0 -64 -16t-42 -68t-17 -144q0 -77 17.5 -107t72.5 -30q38 0 62.5 15.5t42 68t17.5 145.5q0 75 -17.5 105.5t-71.5 30.5z" />
    <glyph glyph-name="ohorngrave" unicode="&#x1edd;" horiz-adv-x="578" 
d="M214 779l17 4q95 -56 225 -122l-30 -79l-17 -4q-106 27 -238 69l-6 16zM481 582l4 13q53 34 90 34q29 0 47 -21t18 -53q0 -47 -33.5 -84.5t-80.5 -45.5q27 -48 27 -121q0 -145 -79 -230t-221 -85q-111 0 -173.5 57.5t-62.5 160.5q0 146 79.5 231t207.5 85
q40 0 92.5 -10.5t63.5 -10.5q39 0 39 39q0 26 -18 41zM277 125q30 0 46 9.5t26.5 48t10.5 114.5q0 47 -14.5 63.5t-50.5 16.5q-31 0 -47.5 -10t-27 -48t-10.5 -113q0 -47 14.5 -64t52.5 -17z" />
    <glyph glyph-name="Ohornhookabove" unicode="&#x1ede;" horiz-adv-x="664" 
d="M370 947q43 0 71.5 -24t28.5 -63q0 -22 -13 -41t-48 -51l27 -43l-64 -39l-54 80q25 18 39.5 39t14.5 37q0 24 -30 24q-36 0 -70 -26l-29 47q55 60 127 60zM681 789q33 0 53 -24.5t20 -64.5q0 -56 -39 -98.5t-99 -56.5q37 -67 37 -164q0 -176 -95 -284.5t-260 -108.5
q-132 0 -203 74t-71 215q0 172 98.5 277t250.5 105q49 0 105.5 -14t71.5 -14q52 0 52 51q0 34 -22 56l5 14q55 37 96 37zM356 500q-39 0 -64 -16t-42 -68t-17 -144q0 -77 17.5 -107t72.5 -30q38 0 62.5 15.5t42 68t17.5 145.5q0 75 -17.5 105.5t-71.5 30.5z" />
    <glyph glyph-name="ohornhookabove" unicode="&#x1edf;" horiz-adv-x="578" 
d="M281 813q43 0 71.5 -24t28.5 -63q0 -22 -13 -41t-48 -51l27 -43l-64 -39l-54 80q25 18 39.5 39t14.5 37q0 24 -30 24q-36 0 -70 -26l-29 47q55 60 127 60zM481 582l4 13q53 34 90 34q29 0 47 -21t18 -53q0 -47 -33.5 -84.5t-80.5 -45.5q27 -48 27 -121q0 -145 -79 -230
t-221 -85q-111 0 -173.5 57.5t-62.5 160.5q0 146 79.5 231t207.5 85q40 0 92.5 -10.5t63.5 -10.5q39 0 39 39q0 26 -18 41zM277 125q30 0 46 9.5t26.5 48t10.5 114.5q0 47 -14.5 63.5t-50.5 16.5q-31 0 -47.5 -10t-27 -48t-10.5 -113q0 -47 14.5 -64t52.5 -17z" />
    <glyph glyph-name="Ohorntilde" unicode="&#x1ee0;" horiz-adv-x="664" 
d="M595 861v-16l-81 -113l-16 -6q-26 3 -83 18.5t-70 15.5q-4 0 -8 -1t-8.5 -3t-8 -4t-8 -6.5l-7 -7t-7.5 -8.5t-7 -9t-7.5 -9.5t-7.5 -9.5h-16l-57 55v16l81 112l16 6q26 -3 83 -18.5t70 -15.5q4 0 8 1t8.5 3t8 4t8 6.5l7 7t7.5 8.5t7 9t7.5 9.5t7.5 9.5h16zM681 789
q33 0 53 -24.5t20 -64.5q0 -56 -39 -98.5t-99 -56.5q37 -67 37 -164q0 -176 -95 -284.5t-260 -108.5q-132 0 -203 74t-71 215q0 172 98.5 277t250.5 105q49 0 105.5 -14t71.5 -14q52 0 52 51q0 34 -22 56l5 14q55 37 96 37zM356 500q-39 0 -64 -16t-42 -68t-17 -144
q0 -77 17.5 -107t72.5 -30q38 0 62.5 15.5t42 68t17.5 145.5q0 75 -17.5 105.5t-71.5 30.5z" />
    <glyph glyph-name="ohorntilde" unicode="&#x1ee1;" horiz-adv-x="578" 
d="M506 727v-16l-81 -113l-16 -6q-26 3 -83 18.5t-70 15.5q-4 0 -8 -1t-8.5 -3t-8 -4t-8 -6.5l-7 -7t-7.5 -8.5t-7 -9t-7.5 -9.5t-7.5 -9.5h-16l-57 55v16l81 112l16 6q26 -3 83 -18.5t70 -15.5q4 0 8 1t8.5 3t8 4t8 6.5l7 7t7.5 8.5t7 9t7.5 9.5t7.5 9.5h16zM481 582l4 13
q53 34 90 34q29 0 47 -21t18 -53q0 -47 -33.5 -84.5t-80.5 -45.5q27 -48 27 -121q0 -145 -79 -230t-221 -85q-111 0 -173.5 57.5t-62.5 160.5q0 146 79.5 231t207.5 85q40 0 92.5 -10.5t63.5 -10.5q39 0 39 39q0 26 -18 41zM277 125q30 0 46 9.5t26.5 48t10.5 114.5
q0 47 -14.5 63.5t-50.5 16.5q-31 0 -47.5 -10t-27 -48t-10.5 -113q0 -47 14.5 -64t52.5 -17z" />
    <glyph glyph-name="Ohorndotbelow" unicode="&#x1ee2;" horiz-adv-x="664" 
d="M681 789q33 0 53 -24.5t20 -64.5q0 -56 -39 -98.5t-99 -56.5q37 -67 37 -164q0 -176 -95 -284.5t-260 -108.5q-132 0 -203 74t-71 215q0 172 98.5 277t250.5 105q49 0 105.5 -14t71.5 -14q52 0 52 51q0 34 -22 56l5 14q55 37 96 37zM356 500q-39 0 -64 -16t-42 -68
t-17 -144q0 -77 17.5 -107t72.5 -30q38 0 62.5 15.5t42 68t17.5 145.5q0 75 -17.5 105.5t-71.5 30.5zM315 -35q44 0 68.5 -25t24.5 -70q0 -48 -27 -75.5t-74 -27.5q-45 0 -69 24.5t-24 69.5q0 48 27 76t74 28z" />
    <glyph glyph-name="ohorndotbelow" unicode="&#x1ee3;" horiz-adv-x="578" 
d="M481 582l4 13q53 34 90 34q29 0 47 -21t18 -53q0 -47 -33.5 -84.5t-80.5 -45.5q27 -48 27 -121q0 -145 -79 -230t-221 -85q-111 0 -173.5 57.5t-62.5 160.5q0 146 79.5 231t207.5 85q40 0 92.5 -10.5t63.5 -10.5q39 0 39 39q0 26 -18 41zM277 125q30 0 46 9.5t26.5 48
t10.5 114.5q0 47 -14.5 63.5t-50.5 16.5q-31 0 -47.5 -10t-27 -48t-10.5 -113q0 -47 14.5 -64t52.5 -17zM265 -35q44 0 68.5 -25t24.5 -70q0 -48 -27 -75.5t-74 -27.5q-45 0 -69 24.5t-24 69.5q0 48 27 76t74 28z" />
    <glyph glyph-name="Udotbelow" unicode="&#x1ee4;" horiz-adv-x="653" 
d="M610 319l-13 -103q-14 -111 -90 -169.5t-210 -58.5q-119 0 -185.5 48t-66.5 137q0 21 3 43l15 103l34 328h200l-58 -404q-2 -20 -2 -27q0 -37 18 -54t59 -17q47 0 71 23t29 75l40 404h203zM288 -35q44 0 68.5 -25t24.5 -70q0 -48 -27 -75.5t-74 -27.5q-45 0 -69 24.5
t-24 69.5q0 48 27 76t74 28z" />
    <glyph glyph-name="udotbelow" unicode="&#x1ee5;" horiz-adv-x="566" 
d="M519 253l-11 -84q-11 -88 -76.5 -134t-181.5 -46q-102 0 -159 38t-57 109q0 16 3 33l12 83l27 261h184l-47 -319q-1 -6 -1 -16q0 -24 13 -34t44 -10q35 0 51 14t19 46l31 319h187zM263 -35q44 0 68.5 -25t24.5 -70q0 -48 -27 -75.5t-74 -27.5q-45 0 -69 24.5t-24 69.5
q0 48 27 76t74 28z" />
    <glyph glyph-name="Uhookabove" unicode="&#x1ee6;" horiz-adv-x="653" 
d="M368 947q43 0 71.5 -24t28.5 -63q0 -22 -13 -41t-48 -51l27 -43l-64 -39l-54 80q25 18 39.5 39t14.5 37q0 24 -30 24q-36 0 -70 -26l-29 47q55 60 127 60zM610 319l-13 -103q-14 -111 -90 -169.5t-210 -58.5q-119 0 -185.5 48t-66.5 137q0 21 3 43l15 103l34 328h200
l-58 -404q-2 -20 -2 -27q0 -37 18 -54t59 -17q47 0 71 23t29 75l40 404h203z" />
    <glyph glyph-name="uhookabove" unicode="&#x1ee7;" horiz-adv-x="566" 
d="M305 813q43 0 71.5 -24t28.5 -63q0 -22 -13 -41t-48 -51l27 -43l-64 -39l-54 80q25 18 39.5 39t14.5 37q0 24 -30 24q-36 0 -70 -26l-29 47q55 60 127 60zM519 253l-11 -84q-11 -88 -76.5 -134t-181.5 -46q-102 0 -159 38t-57 109q0 16 3 33l12 83l27 261h184l-47 -319
q-1 -6 -1 -16q0 -24 13 -34t44 -10q35 0 51 14t19 46l31 319h187z" />
    <glyph glyph-name="Uhornacute" unicode="&#x1ee8;" horiz-adv-x="669" 
d="M265 716l-30 79q114 56 225 122l17 -4l49 -116l-6 -16q-132 -42 -238 -69zM736 713q0 -81 -88 -129l-38 -265l-13 -103q-14 -111 -90 -169.5t-210 -58.5q-119 0 -185.5 48t-66.5 137q0 21 3 43l15 103l34 328h200l-58 -404q-2 -20 -2 -27q0 -37 18 -54t59 -17q47 0 71 23
t29 75l40 404h75q31 0 44 11t13 37q0 35 -29 59l3 14q52 37 93 37q36 0 59.5 -26t23.5 -66z" />
    <glyph glyph-name="uhornacute" unicode="&#x1ee9;" horiz-adv-x="580" 
d="M214 582l-30 79q114 56 225 122l17 -4l49 -116l-6 -16q-132 -42 -238 -69zM640 576q0 -36 -24.5 -67.5t-66.5 -52.5l-30 -203l-11 -84q-11 -88 -76.5 -134t-181.5 -46q-102 0 -159 38t-57 109q0 16 3 33l12 83l27 261h184l-47 -319q-1 -6 -1 -16q0 -24 13 -34t44 -10
q35 0 51 14t19 46l31 319h78q29 0 40 10t11 33q0 26 -19 40l5 13q53 34 90 34q30 0 47.5 -18.5t17.5 -48.5z" />
    <glyph glyph-name="Uhorngrave" unicode="&#x1eea;" horiz-adv-x="669" 
d="M493 716l-17 -4q-106 27 -238 69l-6 16l49 116l17 4q95 -56 225 -122zM736 713q0 -81 -88 -129l-38 -265l-13 -103q-14 -111 -90 -169.5t-210 -58.5q-119 0 -185.5 48t-66.5 137q0 21 3 43l15 103l34 328h200l-58 -404q-2 -20 -2 -27q0 -37 18 -54t59 -17q47 0 71 23
t29 75l40 404h75q31 0 44 11t13 37q0 35 -29 59l3 14q52 37 93 37q36 0 59.5 -26t23.5 -66z" />
    <glyph glyph-name="uhorngrave" unicode="&#x1eeb;" horiz-adv-x="580" 
d="M442 582l-17 -4q-106 27 -238 69l-6 16l49 116l17 4q95 -56 225 -122zM640 576q0 -36 -24.5 -67.5t-66.5 -52.5l-30 -203l-11 -84q-11 -88 -76.5 -134t-181.5 -46q-102 0 -159 38t-57 109q0 16 3 33l12 83l27 261h184l-47 -319q-1 -6 -1 -16q0 -24 13 -34t44 -10
q35 0 51 14t19 46l31 319h78q29 0 40 10t11 33q0 26 -19 40l5 13q53 34 90 34q30 0 47.5 -18.5t17.5 -48.5z" />
    <glyph glyph-name="Uhornhookabove" unicode="&#x1eec;" horiz-adv-x="669" 
d="M320 866q-36 0 -70 -26l-29 47q55 60 127 60q43 0 71.5 -24t28.5 -63q0 -22 -13 -41t-48 -51l27 -43l-64 -39l-54 80q25 18 39.5 39t14.5 37q0 24 -30 24zM736 713q0 -81 -88 -129l-38 -265l-13 -103q-14 -111 -90 -169.5t-210 -58.5q-119 0 -185.5 48t-66.5 137
q0 21 3 43l15 103l34 328h200l-58 -404q-2 -20 -2 -27q0 -37 18 -54t59 -17q47 0 71 23t29 75l40 404h75q31 0 44 11t13 37q0 35 -29 59l3 14q52 37 93 37q36 0 59.5 -26t23.5 -66z" />
    <glyph glyph-name="uhornhookabove" unicode="&#x1eed;" horiz-adv-x="580" 
d="M269 732q-36 0 -70 -26l-29 47q55 60 127 60q43 0 71.5 -24t28.5 -63q0 -22 -13 -41t-48 -51l27 -43l-64 -39l-54 80q25 18 39.5 39t14.5 37q0 24 -30 24zM640 576q0 -36 -24.5 -67.5t-66.5 -52.5l-30 -203l-11 -84q-11 -88 -76.5 -134t-181.5 -46q-102 0 -159 38
t-57 109q0 16 3 33l12 83l27 261h184l-47 -319q-1 -6 -1 -16q0 -24 13 -34t44 -10q35 0 51 14t19 46l31 319h78q29 0 40 10t11 33q0 26 -19 40l5 13q53 34 90 34q30 0 47.5 -18.5t17.5 -48.5z" />
    <glyph glyph-name="Uhorntilde" unicode="&#x1eee;" horiz-adv-x="669" 
d="M238 702l-57 55v16l81 112l16 6q26 -3 83 -18.5t70 -15.5q4 0 8 1t8.5 3t8 4t8 6.5l7 7t7.5 8.5t7 9t7.5 9.5t7.5 9.5h16l57 -54v-16l-81 -113l-16 -6q-26 3 -83 18.5t-70 15.5q-4 0 -8 -1t-8.5 -3t-8 -4t-8 -6.5l-7 -7t-7.5 -8.5t-7 -9t-7.5 -9.5t-7.5 -9.5h-16z
M736 713q0 -81 -88 -129l-38 -265l-13 -103q-14 -111 -90 -169.5t-210 -58.5q-119 0 -185.5 48t-66.5 137q0 21 3 43l15 103l34 328h200l-58 -404q-2 -20 -2 -27q0 -37 18 -54t59 -17q47 0 71 23t29 75l40 404h75q31 0 44 11t13 37q0 35 -29 59l3 14q52 37 93 37
q36 0 59.5 -26t23.5 -66z" />
    <glyph glyph-name="uhorntilde" unicode="&#x1eef;" horiz-adv-x="580" 
d="M187 568l-57 55v16l81 112l16 6q26 -3 83 -18.5t70 -15.5q4 0 8 1t8.5 3t8 4t8 6.5l7 7t7.5 8.5t7 9t7.5 9.5t7.5 9.5h16l57 -54v-16l-81 -113l-16 -6q-26 3 -83 18.5t-70 15.5q-4 0 -8 -1t-8.5 -3t-8 -4t-8 -6.5l-7 -7t-7.5 -8.5t-7 -9t-7.5 -9.5t-7.5 -9.5h-16z
M640 576q0 -36 -24.5 -67.5t-66.5 -52.5l-30 -203l-11 -84q-11 -88 -76.5 -134t-181.5 -46q-102 0 -159 38t-57 109q0 16 3 33l12 83l27 261h184l-47 -319q-1 -6 -1 -16q0 -24 13 -34t44 -10q35 0 51 14t19 46l31 319h78q29 0 40 10t11 33q0 26 -19 40l5 13q53 34 90 34
q30 0 47.5 -18.5t17.5 -48.5z" />
    <glyph glyph-name="Uhorndotbelow" unicode="&#x1ef0;" horiz-adv-x="669" 
d="M736 713q0 -81 -88 -129l-38 -265l-13 -103q-14 -111 -90 -169.5t-210 -58.5q-119 0 -185.5 48t-66.5 137q0 21 3 43l15 103l34 328h200l-58 -404q-2 -20 -2 -27q0 -37 18 -54t59 -17q47 0 71 23t29 75l40 404h75q31 0 44 11t13 37q0 35 -29 59l3 14q52 37 93 37
q36 0 59.5 -26t23.5 -66zM303 -35q44 0 68.5 -25t24.5 -70q0 -48 -27 -75.5t-74 -27.5q-45 0 -69 24.5t-24 69.5q0 48 27 76t74 28z" />
    <glyph glyph-name="uhorndotbelow" unicode="&#x1ef1;" horiz-adv-x="580" 
d="M640 576q0 -36 -24.5 -67.5t-66.5 -52.5l-30 -203l-11 -84q-11 -88 -76.5 -134t-181.5 -46q-102 0 -159 38t-57 109q0 16 3 33l12 83l27 261h184l-47 -319q-1 -6 -1 -16q0 -24 13 -34t44 -10q35 0 51 14t19 46l31 319h78q29 0 40 10t11 33q0 26 -19 40l5 13q53 34 90 34
q30 0 47.5 -18.5t17.5 -48.5zM260 -35q44 0 68.5 -25t24.5 -70q0 -48 -27 -75.5t-74 -27.5q-45 0 -69 24.5t-24 69.5q0 48 27 76t74 28z" />
    <glyph glyph-name="Ygrave" unicode="&#x1ef2;" horiz-adv-x="594" 
d="M484 716l-17 -4q-106 27 -238 69l-6 16l49 116l17 4q95 -56 225 -122zM379 204l-6 -34l-12 -170h-199l30 170l3 37l-152 440h208l9 -54l49 -196h12l109 189l30 61h204z" />
    <glyph glyph-name="ygrave" unicode="&#x1ef3;" horiz-adv-x="524" 
d="M394 563l-17 -1q-81 37 -223 109l-3 17l69 106l17 1q102 -87 201 -160zM330 150l-4 -19l-8 -131h-184l25 131l2 21l-130 361h193l8 -47l37 -134h10l76 127l27 54h188z" />
    <glyph glyph-name="Ydotbelow" unicode="&#x1ef4;" horiz-adv-x="594" 
d="M379 204l-6 -34l-12 -170h-199l30 170l3 37l-152 440h208l9 -54l49 -196h12l109 189l30 61h204zM254 -35q44 0 68.5 -25t24.5 -70q0 -48 -27 -75.5t-74 -27.5q-45 0 -69 24.5t-24 69.5q0 48 27 76t74 28z" />
    <glyph glyph-name="ydotbelow" unicode="&#x1ef5;" horiz-adv-x="524" 
d="M330 150l-4 -19l-8 -131h-184l25 131l2 21l-130 361h193l8 -47l37 -134h10l76 127l27 54h188zM221 -35q44 0 68.5 -25t24.5 -70q0 -48 -27 -75.5t-74 -27.5q-45 0 -69 24.5t-24 69.5q0 48 27 76t74 28z" />
    <glyph glyph-name="Yhookabove" unicode="&#x1ef6;" horiz-adv-x="594" 
d="M311 866q-36 0 -70 -26l-29 47q55 60 127 60q43 0 71.5 -24t28.5 -63q0 -22 -13 -41t-48 -51l27 -43l-64 -39l-54 80q25 18 39.5 39t14.5 37q0 24 -30 24zM379 204l-6 -34l-12 -170h-199l30 170l3 37l-152 440h208l9 -54l49 -196h12l109 189l30 61h204z" />
    <glyph glyph-name="yhookabove" unicode="&#x1ef7;" horiz-adv-x="524" 
d="M256 732q-36 0 -70 -26l-29 47q55 60 127 60q43 0 71.5 -24t28.5 -63q0 -22 -13 -41t-48 -51l27 -43l-64 -39l-54 80q25 18 39.5 39t14.5 37q0 24 -30 24zM330 150l-4 -19l-8 -131h-184l25 131l2 21l-130 361h193l8 -47l37 -134h10l76 127l27 54h188z" />
    <glyph glyph-name="endash" unicode="&#x2013;" horiz-adv-x="451" 
d="M475 312l-23 -117h-460l-11 13l24 117h460z" />
    <glyph glyph-name="emdash" unicode="&#x2014;" horiz-adv-x="842" 
d="M870 312l-23 -117h-859l-11 13l24 117h859z" />
    <glyph glyph-name="quoteleft" unicode="&#x2018;" horiz-adv-x="252" 
d="M125 343q-60 40 -60 115q0 95 114 200l64 -42l3 -12q-39 -44 -39 -88q0 -56 42 -88v-14q-67 -50 -124 -71z" />
    <glyph glyph-name="quoteright" unicode="&#x2019;" horiz-adv-x="252" 
d="M188 659q60 -40 60 -116q0 -93 -113 -199l-65 42l-3 12q39 44 39 88q0 56 -42 87v15q66 49 124 71z" />
    <glyph glyph-name="quotesinglbase" unicode="&#x201a;" horiz-adv-x="228" 
d="M142 182q47 -46 47 -106q0 -113 -151 -218l-61 53l-2 14q56 49 56 109q0 42 -33 74l1 16q72 40 143 58z" />
    <glyph glyph-name="quotedblleft" unicode="&#x201c;" horiz-adv-x="457" 
d="M125 343q-60 40 -60 116q0 93 113 199l65 -42l3 -12q-39 -44 -39 -88q0 -56 42 -87v-15q-66 -49 -124 -71zM329 343q-60 40 -60 116q0 93 113 199l65 -42l3 -12q-39 -44 -39 -88q0 -56 42 -87v-15q-66 -49 -124 -71z" />
    <glyph glyph-name="quotedblright" unicode="&#x201d;" horiz-adv-x="447" 
d="M188 659q60 -40 60 -116q0 -93 -113 -199l-65 42l-3 12q39 44 39 88q0 56 -42 87v15q66 49 124 71zM383 659q60 -40 60 -116q0 -94 -114 -199l-65 42l-3 12q39 44 39 88q0 56 -42 87v15q66 49 125 71z" />
    <glyph glyph-name="quotedblbase" unicode="&#x201e;" horiz-adv-x="432" 
d="M142 182q47 -46 47 -106q0 -113 -151 -218l-61 53l-2 14q56 49 56 109q0 42 -33 74l1 16q72 40 143 58zM346 182q48 -45 48 -106q0 -113 -152 -218l-60 53l-2 14q56 49 56 109q0 42 -33 74l1 16q70 40 142 58z" />
    <glyph glyph-name="dagger" unicode="&#x2020;" horiz-adv-x="524" 
d="M486 295h-157l-1 -4l-45 -376l-119 -9l-10 13l44 360l2 16h-144l-11 12l24 115h147l20 162l124 9l8 -11l-22 -160h153l10 -13z" />
    <glyph glyph-name="daggerdbl" unicode="&#x2021;" horiz-adv-x="524" 
d="M329 291l-14 -112h154l10 -13l-23 -115h-156l-17 -136l-119 -9l-10 13l16 132h-144l-10 13l23 115h147l12 100l4 32h-144l-10 13l23 115h147l19 145l123 9l8 -11l-19 -143h152l10 -13l-23 -115h-156z" />
    <glyph glyph-name="bullet" unicode="&#x2022;" horiz-adv-x="321" 
d="M169 394q61 0 94 -34t33 -96q0 -66 -37 -104.5t-101 -38.5q-63 0 -96 33.5t-33 96.5q0 66 37.5 104.5t102.5 38.5z" />
    <glyph glyph-name="onedotenleader" unicode="&#x2024;" horiz-adv-x="230" 
d="M101 189q44 0 68 -25t24 -69q0 -48 -27 -76t-73 -28t-70 24.5t-24 70.5q0 47 27.5 75t74.5 28z" />
    <glyph glyph-name="twodotenleader" unicode="&#x2025;" horiz-adv-x="459" 
d="M96 189q44 0 68 -25t24 -69q0 -48 -27 -76t-73 -28t-70 24.5t-24 70.5q0 47 27.5 75t74.5 28zM325 189q44 0 68.5 -25t24.5 -69q0 -48 -27 -76t-74 -28q-45 0 -69 24.5t-24 70.5q0 47 27.5 75t73.5 28z" />
    <glyph glyph-name="ellipsis" unicode="&#x2026;" horiz-adv-x="689" 
d="M79 189q44 0 68 -25t24 -69q0 -48 -27 -76t-73 -28t-70 24.5t-24 70.5q0 47 27.5 75t74.5 28zM308 189q44 0 68.5 -25t24.5 -69q0 -48 -27 -76t-74 -28q-45 0 -69 24.5t-24 70.5q0 47 27.5 75t73.5 28zM538 189q44 0 68 -25t24 -69q0 -48 -27 -76t-73 -28t-70 24.5
t-24 70.5q0 47 27.5 75t74.5 28z" />
    <glyph glyph-name="perthousand" unicode="&#x2030;" horiz-adv-x="1272" 
d="M746 647l7 -24l-551 -717l-75 50l-4 17l552 721zM253 655q66 0 101 -37.5t35 -107.5q0 -107 -54 -168t-151 -61q-67 0 -102.5 37.5t-35.5 108.5q0 106 54.5 167t152.5 61zM225 536q-31 0 -46.5 -20t-15.5 -71q0 -28 10 -41t34 -13q39 0 52 22.5t13 68.5q0 28 -11 41
t-36 13zM734 367q66 0 101 -37.5t35 -108.5q0 -106 -54 -167t-151 -61q-67 0 -102 37.5t-35 107.5q0 107 54 168t152 61zM1110 367q66 0 101 -37.5t35 -108.5q0 -106 -54 -167t-151 -61q-67 0 -102 37.5t-35 107.5q0 107 54 168t152 61zM706 247q-31 0 -46.5 -19.5
t-15.5 -71.5q0 -28 10 -40.5t34 -12.5q39 0 52.5 23t13.5 68q0 28 -11 40.5t-37 12.5zM1082 247q-31 0 -46.5 -19.5t-15.5 -71.5q0 -28 10 -40.5t34 -12.5q39 0 52.5 23t13.5 68q0 28 -11 40.5t-37 12.5z" />
    <glyph glyph-name="minute" unicode="&#x2032;" horiz-adv-x="249" 
d="M262 634l-81 -261l-88 -14l-14 11l23 267l151 9z" />
    <glyph glyph-name="second" unicode="&#x2033;" horiz-adv-x="447" 
d="M262 634l-81 -261l-88 -14l-14 11l23 267l151 9zM459 634l-80 -261l-89 -14l-14 11l23 267l151 9z" />
    <glyph glyph-name="guilsinglleft" unicode="&#x2039;" horiz-adv-x="260" 
d="M28 221l4 27l147 177l85 -47l2 -17l-97 -131l65 -130l-6 -17l-97 -47z" />
    <glyph glyph-name="guilsinglright" unicode="&#x203a;" horiz-adv-x="260" 
d="M244 243l-4 -27l-147 -177l-85 47l-2 17l96 131l-64 130l6 17l96 47z" />
    <glyph glyph-name="fraction" unicode="&#x2044;" horiz-adv-x="137" 
d="M368 647l7 -24l-551 -717l-75 50l-4 17l552 721z" />
    <glyph glyph-name="zerosuperior" unicode="&#x2070;" horiz-adv-x="380" 
d="M258 709q66 0 101 -41t35 -118q0 -117 -54 -183.5t-151 -66.5q-67 0 -102.5 41t-35.5 118q0 117 54.5 183.5t152.5 66.5zM230 578q-31 0 -46.5 -21.5t-15.5 -77.5q0 -59 44 -59q39 0 52 25t13 75q0 31 -11 44.5t-36 13.5z" />
    <glyph glyph-name="foursuperior" unicode="&#x2074;" horiz-adv-x="384" 
d="M377 376l-46 1l-3 -61l-9 -9l-115 -6l-7 8l11 70h-86l-84 -3l-7 11l10 88l194 225h135l-30 -215h49l6 -12zM166 485h58l7 65h-8z" />
    <glyph glyph-name="fivesuperior" unicode="&#x2075;" horiz-adv-x="339" 
d="M371 697l-27 -105l-11 -10l-81 10h-53l-3 -30l42 -9q100 -21 100 -96q0 -71 -60 -114.5t-156 -43.5q-45 0 -94 9l4 100l10 8q43 -12 93 -12q60 0 60 28q0 18 -36 24l-79 12l-7 10l25 210l16 14l46 -2h117l86 5z" />
    <glyph glyph-name="sixsuperior" unicode="&#x2076;" horiz-adv-x="365" 
d="M261 561q59 0 89.5 -36.5t25.5 -85.5q-5 -56 -51.5 -98t-128.5 -42q-77 0 -118 42t-35 114q7 77 66 142.5t160 110.5h7l89 -61l-2 -14q-116 -43 -148 -76l1 -1q23 5 45 5zM242 425q3 40 -34 40q-15 0 -31 -4v-4q-4 -39 1 -54.5t28 -15.5q33 0 36 38z" />
    <glyph glyph-name="sevensuperior" unicode="&#x2077;" horiz-adv-x="324" 
d="M177 700h145l41 1l-12 -101l-108 -173l-66 -128l-114 30l-7 22l150 234h-67l-81 -8l-6 10l24 116z" />
    <glyph glyph-name="eightsuperior" unicode="&#x2078;" horiz-adv-x="384" 
d="M248 708q66 0 104 -26.5t38 -69.5q0 -53 -67 -92l-1 -6q55 -31 55 -85q0 -59 -47 -94.5t-129 -35.5q-71 0 -111.5 27t-40.5 72q0 61 84 90l1 5q-53 28 -53 87q0 58 45.5 93t121.5 35zM239 614q-37 0 -37 -25q0 -21 45 -39q26 22 26 41q0 23 -34 23zM209 454
q-38 -11 -38 -35q0 -30 41 -30q22 0 33.5 8.5t11.5 19.5q0 20 -48 37z" />
    <glyph glyph-name="ninesuperior" unicode="&#x2079;" horiz-adv-x="366" 
d="M237 708q77 0 118 -42t35 -114q-7 -77 -66 -142.5t-160 -110.5h-7l-89 61l2 14q114 42 147 75l-1 2q-23 -5 -44 -5q-59 0 -89.5 36.5t-25.5 85.5q5 56 51.5 98t128.5 42zM225 542q14 0 30 4v4q5 33 0 51.5t-28 18.5q-33 0 -36 -38q-4 -40 34 -40z" />
    <glyph glyph-name="franc" unicode="&#x20a3;" horiz-adv-x="441" 
d="M243 386l-11 -72h62l103 3l8 -11l-24 -120l-113 3h-55l-3 -23l-2 -28h104l6 -9l-11 -59h-105l-6 -70h-166l12 70h-51l-5 8l12 60h56l2 11l37 361h374l7 -11l-24 -119l-140 6h-67z" />
    <glyph glyph-name="Euro" unicode="&#x20ac;" horiz-adv-x="451" 
d="M357 519q71 0 126 -19l-44 -133l-12 -7q-38 24 -90 24q-44 0 -67 -29h102l6 -7l-14 -80h-353l-5 9l14 78h71q72 164 266 164zM315 126q47 0 97 16l11 -7l-28 -132q-46 -12 -103 -12q-209 0 -232 164h-63l-5 8l14 79h352l6 -8l-14 -79h-100q19 -29 65 -29z" />
    <glyph glyph-name="literSign" unicode="&#x2113;" horiz-adv-x="403" 
d="M380 138l-28 -138h-333l28 149l35 364h188l-53 -345l-1 -18h156z" />
    <glyph glyph-name="trademark" unicode="&#x2122;" horiz-adv-x="598" 
d="M266 571l-54 3l-14 -91l-6 -79h-93l14 70l10 100l-55 -3l-6 7l14 67h199l4 -6zM590 645l-11 -241h-83l8 73l2 35h-5l-44 -88h-70l-14 88h-5l-6 -26l-13 -82h-79l55 241h109l1 -34l5 -66h6l23 62l13 38h108z" />
    <glyph glyph-name="Ohm" unicode="&#x2126;" horiz-adv-x="765" 
d="M428 659q136 0 210 -64t74 -179q0 -67 -28 -129.5t-91 -134.5l3 -5h51l88 10l9 -12l-41 -153l-132 8h-152l-37 -3l-8 7l13 108q65 68 89 130.5t24 135.5q0 63 -18.5 92.5t-70.5 29.5q-58 0 -88.5 -41.5t-30.5 -145.5q0 -119 53 -201l-13 -108l-9 -7l-35 3h-186l-111 -6
l-9 12l41 148l97 -8l26 1l3 5q-62 96 -62 200q0 137 90.5 222t250.5 85z" />
    <glyph glyph-name="estimated" unicode="&#x212e;" horiz-adv-x="790" 
d="M416 651q152 0 260 -97t108 -235v-8h-597q-5 0 -5 -4v-181q0 -10 9 -21q91 -97 226 -97q144 0 237 109h54q-51 -60 -128 -94.5t-164 -34.5q-152 0 -260.5 97t-108.5 234q0 138 108 235t261 97zM417 631q-132 0 -225 -96q-10 -10 -10 -23v-178q0 -5 5 -5h458q5 0 5 5v182
q0 12 -10 22q-93 93 -223 93z" />
    <glyph glyph-name="arrowleft" unicode="&#x2190;" horiz-adv-x="550" 
d="M515 175l-295 8l111 -119v-24l-105 -22l-201 209v29l201 210l105 -22v-24l-111 -119l289 8l12 -14z" />
    <glyph glyph-name="arrowup" unicode="&#x2191;" horiz-adv-x="550" 
d="M501 295l-22 -106h-24l-120 112l8 -289l-13 -12l-120 6l8 294l-119 -111h-24l-22 106l209 201h29z" />
    <glyph glyph-name="arrowright" unicode="&#x2192;" horiz-adv-x="550" 
d="M525 257v-29l-201 -210l-106 22v24l111 119l-288 -8l-12 14l6 120l294 -8l-111 119v24l106 22z" />
    <glyph glyph-name="arrowdown" unicode="&#x2193;" horiz-adv-x="550" 
d="M499 189l-209 -201h-29l-210 201l22 105h24l119 -111l-8 289l14 12l119 -6l-8 -296l120 112h24z" />
    <glyph glyph-name="arrowupleft" unicode="&#x2196;" horiz-adv-x="550" 
d="M488 128l-1 -18l-89 -81l-203 216l-5 -165l-17 -16l-90 59l6 289l20 21l290 6l59 -90l-16 -17l-165 -5z" />
    <glyph glyph-name="arrowupright" unicode="&#x2197;" horiz-adv-x="550" 
d="M466 127l-90 -59l-17 17l-5 164l-199 -210l-19 1l-80 89l214 202l-163 6l-17 17l59 90l290 -6l21 -20z" />
    <glyph glyph-name="arrowdownright" unicode="&#x2198;" horiz-adv-x="550" 
d="M466 355l-6 -289l-20 -21l-291 -6l-59 90l17 17l164 5l-211 199l2 18l88 80l203 -215l6 164l17 17z" />
    <glyph glyph-name="arrowdownleft" unicode="&#x2199;" horiz-adv-x="550" 
d="M442 152l17 -17l-59 -90l-289 6l-21 20l-6 290l90 59l17 -16l5 -165l199 211l18 -1l80 -89l-215 -203z" />
    <glyph glyph-name="partialdiff" unicode="&#x2202;" horiz-adv-x="531" 
d="M239 720h11q280 -147 279 -404q0 -147 -81 -237.5t-218 -90.5q-107 0 -162 58.5t-55 145.5q0 98 64.5 177t166.5 79q33 0 62 -14l7 6q-52 106 -229 168l2 14zM252 121q84 0 89 168q-36 18 -62 18q-83 0 -83 -110q0 -76 56 -76z" />
    <glyph glyph-name="increment" unicode="&#x2206;" horiz-adv-x="626" 
d="M587 0h-614l275 647h241zM337 469l-125 -325h165l-28 325h-12z" />
    <glyph glyph-name="product" unicode="&#x220f;" horiz-adv-x="729" 
d="M724 488l-59 3l-42 -281l-18 -210h-200l34 190l31 304h-149l-42 -284l-18 -210h-200l34 190l30 301l-59 -3l-10 14l29 145h659l9 -14z" />
    <glyph glyph-name="summation" unicode="&#x2211;" horiz-adv-x="546" 
d="M564 635l-29 -140l-109 7h-129l148 -164l-3 -28l-186 -165h121l127 9l10 -15l-29 -141l-169 2h-211l-107 -3l16 137l213 189l-168 178l19 148l95 -2h252l129 2z" />
    <glyph glyph-name="minus" unicode="&#x2212;" horiz-adv-x="478" 
d="M467 307l-9 -117h-430l-12 13l9 117h430z" />
    <glyph glyph-name="divisionslash" unicode="&#x2215;" horiz-adv-x="280" 
d="M353 667l-263 -785h-135l-10 15l263 786h131z" />
    <glyph glyph-name="bulletoperator" unicode="&#x2219;" horiz-adv-x="299" 
d="M146 394q61 0 94.5 -34t33.5 -96q0 -66 -37.5 -104.5t-101.5 -38.5q-62 0 -95 34t-33 96q0 66 37.5 104.5t101.5 38.5z" />
    <glyph glyph-name="radical" unicode="&#x221a;" horiz-adv-x="494" 
d="M319 0h-208l-35 341h-95l-4 7l20 124h213l5 -7l22 -301h11l212 534l16 12h139z" />
    <glyph glyph-name="infinity" unicode="&#x221e;" horiz-adv-x="482" 
d="M375 424q59 0 91 -38t32 -102q0 -90 -46 -141t-115 -51q-62 0 -99 61q-49 -61 -130 -61q-58 0 -90 37.5t-32 102.5q0 89 44.5 140.5t114.5 51.5q64 0 101 -60q51 60 129 60zM142 306q-49 0 -49 -54q0 -36 32 -36q35 0 66 60q-19 30 -49 30zM359 300q-20 0 -35 -15.5
t-30 -44.5q18 -31 49 -31q22 0 34.5 15t12.5 41q0 35 -31 35z" />
    <glyph glyph-name="integral" unicode="&#x222b;" horiz-adv-x="319" 
d="M363 710q42 0 87 -9l-27 -137l-14 -9q-53 23 -86 23t-38 -35l-57 -487q-8 -77 -51 -128t-133 -89l-73 83l1 15q70 37 78 114l50 458q12 97 81 149t182 52z" />
    <glyph glyph-name="approxequal" unicode="&#x2248;" horiz-adv-x="480" 
d="M173 318q-4 0 -8.5 -1t-9.5 -3.5l-9 -4.5t-10 -6.5t-9 -7.5t-9.5 -9t-9.5 -9l-10.5 -10.5l-9.5 -9.5h-16l-44 63l2 16l107 115l16 6q28 -5 110 -30.5t100 -25.5q4 0 8.5 1t9.5 3.5t8.5 4t9 6t9 7.5t10 9t9.5 9t10.5 10t10.5 10h16l42 -62l-2 -16l-105 -115l-17 -6
q-29 4 -110.5 30t-98.5 26zM147 106q-4 0 -8.5 -1t-9.5 -3.5l-9 -4.5t-10 -6.5t-9 -7.5t-9.5 -9t-9.5 -9l-10.5 -10.5l-9.5 -9.5h-16l-43 62l2 16l106 115l16 7q26 -5 109 -31t101 -26q5 0 10.5 1.5t12 5.5t11.5 7t13 10.5t11.5 11t13.5 13t13 12.5h16l42 -63l-2 -16
l-105 -114l-17 -6q-29 4 -110.5 30t-98.5 26z" />
    <glyph glyph-name="notequal" unicode="&#x2260;" horiz-adv-x="479" 
d="M317 296l-30 -83h156l12 -13l-9 -116h-205l-48 -136h-121l-6 13l44 123h-94l-12 13l9 116h142l30 83h-143l-12 13l9 117h192l48 137h118l10 -13l-44 -124h106l12 -13l-9 -117h-155z" />
    <glyph glyph-name="lessequal" unicode="&#x2264;" horiz-adv-x="479" 
d="M473 369l-9 -12l-288 -93l-1 -9l265 -91l-39 -108l-18 -13l-350 135l19 155l14 17l381 130zM428 -28l-9 -116h-430l-12 12l9 117h430z" />
    <glyph glyph-name="greaterequal" unicode="&#x2265;" horiz-adv-x="488" 
d="M463 350l10 -17l-19 -155l-383 -135l-15 13l-12 108l288 91l1 9l-267 93l-5 12l53 111zM428 -28l-9 -116h-430l-12 12l9 117h430z" />
    <glyph glyph-name="lozenge" unicode="&#x25ca;" horiz-adv-x="531" 
d="M402 644l112 -338l-7 -51l-195 -341l-151 -7l-14 7l-110 338l6 49l195 343l152 7zM297 520l-133 -248l81 -234h8l133 242l-81 240h-8z" />
    <glyph glyph-name="uniA78B" unicode="&#xa78b;" horiz-adv-x="189" 
d="M220 601l-80 -332l-89 -18l-14 14l23 340l151 11z" />
    <glyph glyph-name="uniA78C" unicode="&#xa78c;" horiz-adv-x="186" 
d="M212 536l-81 -317l-88 -17l-14 14l23 324l151 11z" />
    <glyph glyph-name="dieresisacute" unicode="&#xf6d7;" 
d="M364 900l28 -123l-9 -15q-149 -18 -246 -27l-16 7l-16 83q130 39 243 82zM149 696q38 0 59 -21.5t21 -59.5q0 -42 -23.5 -66.5t-63.5 -24.5q-81 0 -81 83q0 41 23.5 65t64.5 24zM342 696q38 0 58.5 -21.5t20.5 -59.5q0 -42 -23 -66.5t-63 -24.5t-61 21.5t-21 61.5
q0 41 24 65t65 24z" />
    <glyph glyph-name="dieresisgrave" unicode="&#xf6d8;" 
d="M159 900l16 7q108 -42 233 -82l-26 -83l-17 -7q-98 9 -242 27l-8 15zM148 696q38 0 59 -21t21 -60q0 -42 -23.5 -66.5t-63.5 -24.5q-81 0 -81 83q0 41 23.5 65t64.5 24zM341 696q38 0 58.5 -21t20.5 -60q0 -42 -23 -66.5t-63 -24.5t-61 21.5t-21 61.5q0 41 24 65t65 24z
" />
    <glyph glyph-name="Iacute_J.loclNLD" horiz-adv-x="690" 
d="M119 716l-30 79q114 56 225 122l17 -4l49 -116l-6 -16q-132 -42 -238 -69zM706 797l-6 -16q-132 -42 -238 -69l-17 4l-30 79q114 56 225 122l17 -4zM314 647l-65 -437l-18 -210h-200l34 190l46 457h203zM675 647l-66 -434l-8 -89q-13 -94 -67.5 -146.5t-183.5 -89.5
l-40 103l2 15q53 25 76.5 52.5t28.5 71.5l8 63l33 314l-83 -3l-9 13l24 130h285z" />
    <glyph glyph-name="C.ss01" horiz-adv-x="448" 
d="M310 367q-54 0 -75 -28t-21 -97q0 -50 20 -72.5t62 -22.5q50 0 94 11l13 -9l-19 -84h142l-7 -65h-647l7 65h197q-50 53 -50 147q0 157 104 236h-203l7 65h647l-7 -65h-128l-31 -95l-13 -7q-40 21 -92 21z" />
    <glyph glyph-name="D.ss01" horiz-adv-x="576" 
d="M702 448h-196q48 -50 48 -138q0 -164 -103 -245h203l-7 -65h-775l7 65h167l16 87l29 296h-164l7 65h775zM225 170l-2 -30q44 -8 63 -8q39 0 60 33t21 117q0 47 -14 66t-45 19q-32 0 -52 -2z" />
    <glyph glyph-name="I.ss01" horiz-adv-x="303" 
d="M222 168l-7 -103h166l-7 -65h-502l7 65h158l15 84l29 299h-154l7 65h502l-7 -65h-164z" />
    <glyph glyph-name="L.ss01" horiz-adv-x="403" 
d="M218 171l-2 -18h154l-13 -88h123l-7 -65h-601l7 65h155l16 87l29 296h-152l7 65h601l-6 -65h-269z" />
    <glyph glyph-name="M.ss01" horiz-adv-x="692" 
d="M629 448l-16 -383h157l-7 -65h-891l7 65h149l86 383h-187l7 65h891l-7 -65h-189zM416 448h-85l1 -15l17 -116h10l48 110zM463 65l13 113l6 81h-9l-92 -166h-131l-36 166h-10l-14 -67l-19 -127h292z" />
    <glyph glyph-name="V.ss01" horiz-adv-x="540" 
d="M534 448l-166 -383h250l-7 -65h-739l7 65h246l-60 383h-138l7 65h739l-7 -65h-132zM371 448h-135l2 -38l19 -244h11l89 233z" />
    <glyph glyph-name="X.ss01" horiz-adv-x="555" 
d="M391 269l98 -204h144l-7 -65h-754l7 65h160l144 185l-101 198h-155l7 65h754l-7 -65h-156zM270 448l10 -29l27 -51l44 60l11 20h-92zM301 65l-10 32l-25 51l-52 -59l-14 -24h101z" />
    <glyph glyph-name="idotaccent" horiz-adv-x="304" 
d="M200 771q44 0 68 -24.5t24 -69.5q0 -48 -27 -76t-73 -28t-70 24.5t-24 70.5q0 48 27.5 75.5t74.5 27.5zM222 168l-12 -168h-185l27 149l36 364h188z" />
    <glyph glyph-name="germandbls.calt" horiz-adv-x="711" 
d="M413 659q73 0 136 -17.5t142 -55.5l5 -23l-137 -171q85 -69 106 -94q34 -41 34 -93q0 -54 -22 -96.5t-60 -68t-85.5 -39t-101.5 -13.5q-96 0 -178 38l49 173l22 12q77 -75 137 -75q37 0 37 29q0 20 -38.5 52t-137.5 91l-2 24l123 158q-33 12 -68 12q-53 0 -77.5 -23
t-30.5 -75l-29 -194l-18 -210h-200l34 190l22 214q12 118 99.5 186.5t238.5 68.5z" />
    <glyph glyph-name="iacute_j.loclNLD" horiz-adv-x="647" 
d="M97 563l-44 72q99 73 201 160l17 -1l69 -106l-3 -17q-142 -72 -223 -109zM627 688l-3 -17q-152 -77 -222 -109l-17 1l-44 72q99 73 201 160l17 -1zM88 513h188l-54 -345l-12 -168h-185l27 149zM611 513l-51 -345l-6 -69q-10 -76 -58.5 -119.5t-163.5 -78.5l-38 95l1 14
q45 17 64 37t23 53l7 50l23 228l-79 -2l-8 11l26 126h260z" />
    <glyph glyph-name="a.sups" horiz-adv-x="337" 
d="M350 646l-33 -247l-3 -75l-110 -7l12 95h-10q-32 -62 -66 -99h-15q-50 13 -69.5 41t-19.5 73q0 72 43 134.5t125 86.5h5l67 -11l66 14zM155 411q24 0 78 125l3 22l-48 11q-50 0 -50 -98q0 -60 17 -60z" />
    <glyph glyph-name="b.sups" horiz-adv-x="338" 
d="M253 647h15q49 -13 69 -40t20 -72q0 -74 -43.5 -136.5t-122.5 -85.5h-5l-89 16l-53 8l52 393l3 76l110 7l-35 -266h10q33 61 69 100zM155 404l52 -13q23 0 35.5 27.5t12.5 72.5q0 61 -16 61q-24 0 -80 -122z" />
    <glyph glyph-name="c.sups" horiz-adv-x="259" 
d="M294 632l4 -11l-30 -77l-24 -1q-22 25 -42 25q-57 0 -57 -102q0 -62 32 -62q25 0 52 45h14l36 -42q-22 -39 -48 -60t-65 -33h-15q-60 8 -86 39.5t-26 92.5q0 87 49 145t145 58z" />
    <glyph glyph-name="d.sups" horiz-adv-x="335" 
d="M371 813l-55 -414l-3 -75l-110 -7l13 95h-9q-36 -64 -68 -99h-15q-50 13 -69.5 40.5t-19.5 71.5q0 72 44 135.5t127 86.5h5l35 -5l12 88l2 76zM153 410q24 0 78 120l4 30l-45 10q-26 0 -40 -27.5t-14 -74.5q0 -58 17 -58z" />
    <glyph glyph-name="e.sups" horiz-adv-x="291" 
d="M267 439l35 -42q-52 -64 -128 -84h-10q-126 14 -126 134q0 90 50.5 144.5t136.5 59.5l10 -1q82 -15 82 -82q0 -41 -41 -71t-134 -54q5 -49 41 -49q39 0 70 47zM197 583q-47 0 -55 -80q41 11 59.5 24t18.5 34q0 22 -23 22z" />
    <glyph glyph-name="f.sups" horiz-adv-x="227" 
d="M353 795l-20 -73l-15 -5q-36 18 -57 18q-35 0 -42 -53l-6 -44h68l8 -9l-8 -52h-77l-16 -114l-19 -148l-3 -75l-111 -6l29 217l14 126h-45l-5 7l7 54h49l2 14q9 77 53.5 118.5t117.5 41.5l72 -10z" />
    <glyph glyph-name="g.sups" horiz-adv-x="338" 
d="M352 646l-32 -234l-3 -59q-10 -81 -61 -124.5t-127 -43.5q-58 0 -92 30t-42 79l3 7l96 43l1 8q-40 29 -40 92q0 67 42 124.5t120 79.5h4l61 -10l62 13zM246 567l-44 9q-26 0 -40 -26.5t-14 -72.5q0 -53 17 -53q25 0 77 117zM150 259q26 0 43 16t21 48l14 106h-9
q-29 -52 -72 -96l-31 -23q-9 -12 -9 -17q0 -7 4 -14q8 -20 39 -20z" />
    <glyph glyph-name="h.sups" horiz-adv-x="361" 
d="M273 645l9 1q41 -7 64.5 -26.5t22.5 -47.5v-10l-27 -162l-4 -76l-112 -7l31 193l1 7q0 20 -14 20q-11 0 -33.5 -24t-50.5 -70l-6 -44l-3 -75l-110 -7l55 413l3 76l110 7l-36 -272h10q48 68 90 104z" />
    <glyph glyph-name="i.sups" horiz-adv-x="174" 
d="M156 819q26 0 40.5 -13t14.5 -36q0 -32 -18 -51t-49 -19q-26 0 -41 13t-15 35q0 32 18.5 51.5t49.5 19.5zM155 399l-3 -75l-111 -7l33 247l3 75l110 7z" />
    <glyph glyph-name="j.sups" horiz-adv-x="201" 
d="M159 820q28 0 43.5 -15.5t15.5 -42.5q0 -28 -17 -45t-46 -17q-60 0 -60 57q0 29 17.5 46t46.5 17zM208 643l-33 -245l-6 -56q-7 -55 -39 -92.5t-95 -64.5l-35 47l2 10q54 30 62 93l30 227l-1 15h-43l-5 7l8 54h50l102 8z" />
    <glyph glyph-name="k.sups" horiz-adv-x="366" 
d="M379 564q0 -64 -83 -119q29 -57 65 -113l-5 -8l-93 -12l-11 5q-30 64 -53 122l4 14q29 16 47 35t18 34q0 16 -15 16q-34 0 -93 -95l-6 -44l-3 -75l-110 -7l55 413l3 76l110 7l-36 -272h10q49 66 99 104h9q88 -15 88 -81z" />
    <glyph glyph-name="l.sups" horiz-adv-x="172" 
d="M153 399l-3 -75l-111 -7l56 413l2 76l111 7z" />
    <glyph glyph-name="m.sups" horiz-adv-x="554" 
d="M465 645l9 1q41 -7 64 -26.5t22 -47.5v-10l-27 -162l-3 -76l-112 -7l31 193l1 7q0 20 -13 20q-30 0 -88 -100l-6 -37l-3 -76l-114 -7l32 193l1 7q0 20 -14 20q-27 0 -85 -96l-5 -42l-3 -75l-110 -7l32 247l3 75l110 7l-14 -105h11q53 72 90 104l9 1q41 -7 64.5 -26.5
t22.5 -47.5v-10l-3 -21h8q48 68 90 104z" />
    <glyph glyph-name="n.sups" horiz-adv-x="362" 
d="M274 645l9 1q37 -7 62.5 -27t24.5 -47l-1 -10l-27 -162l-3 -76l-113 -7l32 193l1 7q0 20 -14 20q-28 0 -84 -94l-6 -44l-3 -75l-110 -7l32 247l3 75l110 7l-14 -105h10q53 72 91 104z" />
    <glyph glyph-name="o.sups" horiz-adv-x="323" 
d="M227 651l11 -1q102 -20 102 -121q0 -98 -50.5 -155t-139.5 -62l-10 2q-102 19 -102 128q0 92 51 148t138 61zM207 570q-36 0 -49.5 -30t-13.5 -99q0 -28 6 -39t22 -11q35 0 48 30.5t13 99.5q0 28 -5.5 38.5t-20.5 10.5z" />
    <glyph glyph-name="p.sups" horiz-adv-x="338" 
d="M254 647h15q49 -13 68.5 -40t19.5 -72q0 -74 -43.5 -136.5t-122.5 -85.5h-4l-42 8l-7 -53l-3 -75l-111 -7l50 378l3 75l110 7l-13 -99h12q31 60 68 100zM156 404l52 -13q23 0 35.5 27.5t12.5 72.5q0 61 -17 61q-23 0 -80 -124z" />
    <glyph glyph-name="q.sups" horiz-adv-x="338" 
d="M351 646l-50 -378l-3 -75l-110 -7l29 226h-10q-36 -64 -68 -99h-15q-50 13 -69.5 40.5t-19.5 71.5q0 72 44 135.5t127 86.5h5l65 -10l67 14zM153 410q25 0 80 124l4 26l-47 10q-53 0 -53 -102q0 -58 16 -58z" />
    <glyph glyph-name="r.sups" horiz-adv-x="256" 
d="M300 642l-17 -128l-9 -3l-23 3q-40 0 -89 -60l-7 -55l-3 -75l-111 -7l33 247l3 75l110 7l-13 -101h11q46 76 96 100z" />
    <glyph glyph-name="s.sups" horiz-adv-x="265" 
d="M208 648q38 -3 81 -16l-23 -81l-15 -6q-40 35 -72 35q-12 0 -19.5 -6.5t-7.5 -15.5q0 -12 18.5 -24.5t41 -23t41 -33t18.5 -52.5q0 -49 -43.5 -80.5t-108.5 -31.5q-51 5 -94 19l24 86l11 6q42 -45 86 -45q14 0 22 7.5t7 17.5q-2 13 -32 29t-59.5 40.5t-29.5 57.5
q1 54 45.5 86t108.5 31z" />
    <glyph glyph-name="t.sups" horiz-adv-x="249" 
d="M177 421l-1 -6q0 -11 11 -11q14 0 30 32l15 -1l30 -36q-34 -55 -80 -84l-12 -1q-54 2 -77 18t-23 56l2 21l23 157l1 11h-44l-6 7l7 54h50l8 71l105 23l8 -6l-14 -88h76l8 -9l-7 -52h-86z" />
    <glyph glyph-name="u.sups" horiz-adv-x="355" 
d="M368 646l-32 -247l-4 -75l-110 -7l13 100h-8q-44 -64 -85 -100l-9 -1q-41 5 -65 24.5t-24 48.5l1 13l26 160l4 76l113 7l-31 -192l-1 -9q0 -20 14 -20q23 0 78 88l7 52l3 75z" />
    <glyph glyph-name="v.sups" horiz-adv-x="322" 
d="M236 629l104 19q12 -27 12 -54q0 -44 -32 -102l-98 -172h-126l-43 320l110 6l1 -61l10 -156h9l44 89q19 44 19 71q0 21 -10 40z" />
    <glyph glyph-name="w.sups" horiz-adv-x="515" 
d="M428 629l103 19q13 -29 13 -58q0 -40 -28 -98l-91 -172h-122l-13 182h-9l-68 -182h-120l-40 320l109 6v-55l7 -152h10l54 145l19 59h117l1 -52l8 -152h9l35 79q17 40 17 67q0 22 -11 44z" />
    <glyph glyph-name="x.sups" horiz-adv-x="345" 
d="M342 323l-124 -9l-9 45l-23 62l-38 -60l-19 -41h-120l116 169l-66 151l119 10l10 -36l24 -57l37 54l15 32h116l-114 -160z" />
    <glyph glyph-name="y.sups" horiz-adv-x="329" 
d="M244 629l103 19q12 -25 12 -53q0 -51 -47 -136l-54 -99q-54 -97 -99.5 -136.5t-102.5 -39.5q-36 0 -70 12l-6 91l9 10q33 -9 62 -9q42 0 76 21l-76 331l111 6l6 -61l23 -152h11l32 74q20 52 20 82q0 21 -10 40z" />
    <glyph glyph-name="z.sups" horiz-adv-x="307" 
d="M333 626l-176 -216l18 4q2 0 18 -2t19 -2q22 0 32.5 11t14.5 42l13 4l44 -12q-3 -142 -102 -142q-25 0 -63.5 11.5t-52.5 11.5q-19 0 -44 -21h-14l-32 29l168 212l-62 -2l-51 -9l-8 8l18 91l10 7l69 -5l122 -4l27 15z" />
    <glyph glyph-name="zero.lf" horiz-adv-x="516" 
d="M303 597q94 0 145 -62t51 -188q0 -157 -74.5 -258t-200.5 -101q-95 0 -146.5 63t-51.5 188q0 155 75 256.5t202 101.5zM275 416q-53 0 -74 -38.5t-21 -113.5q0 -57 14 -81.5t53 -24.5q98 0 98 154q0 57 -15 80.5t-55 23.5z" />
    <glyph glyph-name="one.lf" horiz-adv-x="394" 
d="M358 575l-55 -365l-18 -210h-197l32 190l22 183l-115 -20l-11 9l19 157l297 76z" />
    <glyph glyph-name="two.lf" horiz-adv-x="505" 
d="M288 597q80 0 131.5 -42t51.5 -109q0 -44 -29.5 -91t-106.5 -129l-64 -69l3 -5h89l100 10l8 -13l-41 -157l-145 8h-237l-37 -3l-8 7l14 118l159 155l15.5 15.5t16 15.5t14 14t13.5 14.5t11.5 13t10.5 14t6.5 13t5 13.5t1.5 12q0 30 -36 30q-56 0 -138 -62h-21l-14 151
q117 76 227 76z" />
    <glyph glyph-name="three.lf" horiz-adv-x="453" 
d="M257 598q84 0 138 -36.5t54 -94.5q0 -41 -29 -85.5t-79 -68.5v-6q41 -23 60 -49t19 -67q0 -89 -80 -145t-212 -56q-71 0 -126 11l7 143l15 12q66 -20 119 -20q90 0 90 48q0 29 -42 29h-84l-6 12l21 133l59 3q22 1 43 16.5t21 35.5q0 28 -42 28q-44 0 -114 -31h-20
l-13 134q105 54 201 54z" />
    <glyph glyph-name="four.lf" horiz-adv-x="519" 
d="M476 108l-68 2l-6 -101l-12 -13l-153 -9l-8 12l19 113h-130l-113 -4l-10 15l15 122l278 341h179l-45 -327h70l9 -17zM179 259h92l14 114h-11z" />
    <glyph glyph-name="five.lf" horiz-adv-x="455" 
d="M467 582l-36 -147l-15 -14l-109 15h-79l-8 -58l59 -13q140 -30 140 -143q0 -103 -84.5 -168.5t-216.5 -65.5q-64 0 -126 13l6 139l13 13q64 -19 127 -19q44 0 68.5 14.5t24.5 39.5q0 34 -56 41l-107 18l-10 14l38 309l21 20l63 -4h161l117 8z" />
    <glyph glyph-name="six.lf" horiz-adv-x="500" 
d="M311 376q75 0 119 -52t44 -122q0 -85 -64 -149.5t-178 -64.5q-102 0 -159.5 56t-57.5 154q0 121 88 225t246 175h9l113 -86l-2 -18q-157 -46 -222 -122l5 -7q29 11 59 11zM239 112q28 0 43 20t15 53q0 56 -50 56q-25 0 -56 -10q-1 -11 -1 -34q0 -46 11 -65.5t38 -19.5z
" />
    <glyph glyph-name="seven.lf" horiz-adv-x="435" 
d="M195 586h206l58 2l-18 -141l-163 -278l-92 -184l-149 43l-9 30l223 368h-106l-112 -12l-7 15l32 162z" />
    <glyph glyph-name="eight.lf" horiz-adv-x="516" 
d="M297 598q90 0 141 -39t51 -106q0 -85 -95 -140l-1 -8q81 -49 81 -132t-63 -134t-168 -51q-102 0 -160.5 40t-58.5 107q0 51 28.5 84.5t88.5 55.5l1 8q-74 46 -74 132q0 82 62.5 132.5t166.5 50.5zM283 467q-27 0 -41.5 -12.5t-14.5 -31.5q0 -21 16 -35t50 -28
q42 33 42 65q0 42 -52 42zM243 225q-57 -21 -57 -60q0 -50 61 -50q33 0 50.5 14t17.5 33q0 21 -18.5 35t-53.5 28z" />
    <glyph glyph-name="nine.lf" horiz-adv-x="500" 
d="M276 598q102 0 159.5 -56t57.5 -154q0 -121 -88 -225t-246 -175h-9l-113 86l2 18q157 46 222 122l-5 7q-29 -11 -59 -11q-75 0 -119 52t-44 122q0 85 64 149.5t178 64.5zM261 345q25 0 56 10q1 11 1 34q0 46 -11 65.5t-38 19.5q-28 0 -43 -20t-15 -53q0 -56 50 -56z" />
    <glyph glyph-name="zero.sinf" horiz-adv-x="380" 
d="M206 281q66 0 101 -41t35 -118q0 -117 -54 -183.5t-151 -66.5q-67 0 -102.5 41t-35.5 118q0 117 54.5 183.5t152.5 66.5zM178 150q-31 0 -46.5 -21.5t-15.5 -77.5q0 -59 44 -59q39 0 52 25t13 75q0 31 -11 44.5t-36 13.5z" />
    <glyph glyph-name="one.sinf" horiz-adv-x="295" 
d="M239 265l-37 -244l-11 -141h-149l21 127l14 114l-81 -12l-9 6l14 112l219 52z" />
    <glyph glyph-name="two.sinf" horiz-adv-x="375" 
d="M196 280q55 0 90 -24t35 -68q0 -32 -22 -67t-75 -89l-40 -41l2 -3h57l72 7l6 -9l-29 -112l-108 6h-170l-26 -2l-6 5l10 84l101 89q60 54 69 70q6 10 6 18q0 18 -24 18q-43 0 -96 -40h-16l-12 108q98 50 176 50z" />
    <glyph glyph-name="three.sinf" horiz-adv-x="337" 
d="M166 281q61 0 98 -25.5t37 -66.5q0 -63 -73 -100v-4q58 -19 58 -77q0 -62 -60 -99t-157 -37q-45 0 -85 8l3 102l11 8q46 -13 86 -13q61 0 61 26q0 15 -26 15h-62l-6 8l13 95l33 2q51 2 51 30q0 16 -29 16q-26 0 -80 -19h-15l-12 95q75 36 154 36z" />
    <glyph glyph-name="four.sinf" horiz-adv-x="384" 
d="M326 -52l-46 1l-3 -61l-9 -9l-115 -6l-7 8l11 70h-86l-84 -3l-7 11l10 88l194 225h135l-30 -215h49l6 -12zM115 57h58l7 65h-8z" />
    <glyph glyph-name="five.sinf" horiz-adv-x="339" 
d="M319 270l-27 -105l-11 -10l-81 10h-53l-3 -30l42 -9q100 -21 100 -96q0 -71 -60 -114.5t-156 -43.5q-45 0 -94 9l4 100l10 8q43 -12 93 -12q60 0 60 28q0 18 -36 24l-79 12l-7 10l25 210l16 14l46 -2h117l86 5z" />
    <glyph glyph-name="six.sinf" horiz-adv-x="365" 
d="M207 135q59 0 89.5 -36.5t25.5 -85.5q-5 -56 -51.5 -98t-128.5 -42q-77 0 -118 42t-35 114q7 77 66 142.5t160 110.5h7l89 -61l-2 -14q-116 -43 -148 -76l1 -1q23 5 45 5zM188 -1q3 40 -34 40q-15 0 -31 -4v-4q-4 -39 1 -54.5t28 -15.5q33 0 36 38z" />
    <glyph glyph-name="seven.sinf" horiz-adv-x="324" 
d="M123 273h145l41 1l-12 -101l-108 -173l-66 -128l-114 30l-7 22l150 234h-67l-81 -8l-6 10l24 116z" />
    <glyph glyph-name="eight.sinf" horiz-adv-x="384" 
d="M196 281q66 0 104 -26.5t38 -69.5q0 -53 -67 -92l-1 -6q55 -31 55 -85q0 -59 -47 -94.5t-129 -35.5q-71 0 -111.5 27t-40.5 72q0 61 84 90l1 5q-53 28 -53 87q0 58 45.5 93t121.5 35zM187 187q-37 0 -37 -25q0 -21 45 -39q26 22 26 41q0 23 -34 23zM157 27
q-38 -11 -38 -35q0 -30 41 -30q22 0 33.5 8.5t11.5 19.5q0 20 -48 37z" />
    <glyph glyph-name="nine.sinf" horiz-adv-x="366" 
d="M183 281q77 0 118 -42t35 -114q-7 -77 -66 -142.5t-160 -110.5h-7l-89 61l2 14q114 42 147 75l-1 2q-23 -5 -44 -5q-59 0 -89.5 36.5t-25.5 85.5q5 56 51.5 98t128.5 42zM171 115q14 0 30 4v4q5 33 0 51.5t-28 18.5q-33 0 -36 -38q-4 -40 34 -40z" />
    <glyph glyph-name="zero.tf" horiz-adv-x="481" 
d="M287 597q91 0 139.5 -61.5t48.5 -185.5q0 -158 -72.5 -260t-194.5 -102q-91 0 -140.5 62.5t-49.5 185.5q0 156 73 258.5t196 102.5zM258 416q-49 0 -67.5 -39t-18.5 -117q0 -55 12 -78.5t48 -23.5q89 0 89 157q0 56 -13.5 78.5t-49.5 22.5z" />
    <glyph glyph-name="one.tf" horiz-adv-x="475" 
d="M400 575l-55 -365l-18 -210h-196l32 190l22 183l-138 -20l-11 9l19 157l320 76z" />
    <glyph glyph-name="two.tf" horiz-adv-x="476" 
d="M273 597q77 0 127.5 -42t50.5 -109q0 -44 -28 -91.5t-102 -128.5l-57 -69l3 -5h76l97 10l8 -13l-43 -157l-140 8h-226l-36 -3l-8 7l15 118l152 155q6 7 18 19.5t18.5 19.5t16 18t14.5 18.5t10 16.5t7.5 17t2.5 16q0 30 -32 30q-52 0 -130 -62h-21l-13 151q114 76 220 76z
" />
    <glyph glyph-name="three.tf" horiz-adv-x="475" 
d="M267 598q84 0 138 -36.5t54 -94.5q0 -41 -29 -85.5t-79 -68.5v-6q41 -23 60.5 -49t19.5 -67q0 -89 -80.5 -145t-212.5 -56q-71 0 -126 11l7 143l15 12q66 -20 119 -20q90 0 90 48q0 29 -42 29h-84l-6 12l21 133l59 3q22 1 43 16.5t21 35.5q0 28 -42 28q-44 0 -114 -31
h-20l-13 134q105 54 201 54z" />
    <glyph glyph-name="four.tf" horiz-adv-x="475" 
d="M443 115l-66 2l-7 -109l-10 -12l-142 -8l-8 11l20 119h-127l-104 -3l-10 13l16 114l266 344h165l-45 -331h67l9 -16zM161 255h90l15 133h-10z" />
    <glyph glyph-name="five.tf" horiz-adv-x="476" 
d="M483 582l-37 -147l-15 -14l-110 15h-82l-9 -58l61 -13q143 -30 143 -143q0 -103 -85.5 -168.5t-220.5 -65.5q-65 0 -127 13l5 139l13 13q66 -19 129 -19q46 0 72 14.5t26 39.5q0 34 -60 41l-108 18l-10 14l38 309l21 20l64 -4h164l118 8z" />
    <glyph glyph-name="six.tf" horiz-adv-x="475" 
d="M299 376q73 0 115 -51.5t42 -121.5q0 -85 -62.5 -150t-173.5 -65q-99 0 -154.5 55.5t-55.5 152.5q0 121 85.5 226t238.5 176h8l111 -85l-2 -18q-150 -46 -213 -122l7 -9q27 12 54 12zM227 111q26 0 39.5 20t13.5 54q0 57 -46 57q-22 0 -49 -10q-2 -24 -2 -37
q0 -45 9.5 -64.5t34.5 -19.5z" />
    <glyph glyph-name="seven.tf" horiz-adv-x="475" 
d="M214 586h210l59 2l-18 -141l-168 -278l-92 -184l-149 43l-9 30l228 368h-111l-113 -12l-7 15l32 162z" />
    <glyph glyph-name="eight.tf" horiz-adv-x="476" 
d="M277 598q88 0 137.5 -39t49.5 -105q0 -86 -91 -141l-1 -8q76 -48 76 -131t-62 -134.5t-164 -51.5q-99 0 -155.5 40t-56.5 106q0 52 27 85.5t85 55.5l1 8q-70 46 -70 131q0 83 61 133.5t163 50.5zM262 467q-24 0 -37 -12.5t-13 -31.5q0 -21 15 -35t46 -28q37 33 37 65
q0 42 -48 42zM222 225q-50 -20 -50 -60q0 -50 55 -50q30 0 46 14t16 33q0 21 -17 35t-50 28z" />
    <glyph glyph-name="nine.tf" horiz-adv-x="475" 
d="M270 598q99 0 154.5 -55.5t55.5 -152.5q0 -121 -85.5 -226t-237.5 -176h-9l-111 85l2 18q150 46 213 122l-7 9q-27 -12 -54 -12q-73 0 -115 51.5t-42 121.5q0 85 62.5 150t173.5 65zM256 344q22 0 49 10q2 24 2 37q0 45 -9.5 64.5t-34.5 19.5q-26 0 -39.5 -20t-13.5 -54
q0 -57 46 -57z" />
    <glyph glyph-name="zero.tosf" horiz-adv-x="479" 
d="M276 523q90 0 138.5 -55.5t48.5 -166.5q0 -139 -70 -226t-187 -87q-91 0 -139.5 56.5t-48.5 166.5q0 138 69.5 225t188.5 87zM248 346q-46 0 -63.5 -26t-17.5 -83q0 -44 13 -63t50 -19q44 0 63.5 27.5t19.5 82.5q0 45 -14.5 63t-50.5 18z" />
    <glyph glyph-name="one.tosf" horiz-adv-x="475" 
d="M385 502l-46 -292l-18 -210h-196l32 190l13 110l-123 -20l-12 9l19 157l306 76z" />
    <glyph glyph-name="two.tosf" horiz-adv-x="475" 
d="M267 522q77 0 127 -34t50 -96q0 -41 -28.5 -83.5t-98.5 -109.5l-44 -47l3 -5h68l94 10l9 -12l-41 -153l-140 8h-221l-35 -3l-8 7l15 117l134 111q91 75 91 104q0 22 -29 22q-54 0 -126 -50h-21l-14 151q118 63 215 63z" />
    <glyph glyph-name="three.tosf" horiz-adv-x="475" 
d="M254 524q85 0 140 -37.5t55 -95.5q0 -42 -29.5 -87t-81.5 -69v-6q43 -23 63 -49.5t20 -68.5q0 -91 -82 -147.5t-216 -56.5q-71 0 -128 11l7 143l15 12q68 -20 121 -20q95 0 95 51q0 30 -47 30h-84l-6 12l20 134l61 3q23 1 45 17t22 37q0 30 -44 30q-43 0 -117 -33h-20
l-13 135q105 55 204 55z" />
    <glyph glyph-name="four.tosf" horiz-adv-x="475" 
d="M435 35l-66 2l-7 -111l-11 -12l-142 -8l-8 11l20 122h-130l-105 -4l-9 15l14 114l271 349h167l-46 -336h68l8 -16zM147 177h95l16 138h-11z" />
    <glyph glyph-name="five.tosf" horiz-adv-x="475" 
d="M471 510l-37 -147l-15 -14l-109 15h-82l-9 -62l61 -13q141 -31 141 -145q0 -106 -85 -172.5t-219 -66.5q-60 0 -128 14l7 139l13 13q66 -19 128 -19q46 0 71 15t25 42q0 34 -58 43l-108 18l-10 14l39 314l21 20l64 -4h162l118 8z" />
    <glyph glyph-name="six.tosf" horiz-adv-x="475" 
d="M297 376q73 0 116 -51.5t43 -122.5q0 -85 -63.5 -149.5t-174.5 -64.5q-100 0 -156 56t-56 154q0 121 85.5 225t239.5 175h9l112 -86l-2 -18q-150 -46 -213 -120l7 -9q26 11 53 11zM226 112q52 0 52 72q0 57 -46 57q-23 0 -50 -10q-1 -11 -1 -34q0 -45 10 -65t35 -20z" />
    <glyph glyph-name="seven.tosf" horiz-adv-x="476" 
d="M206 514h210l58 2l-18 -141l-167 -287l-93 -185l-149 43l-9 30l228 378h-110l-113 -12l-7 15l32 162z" />
    <glyph glyph-name="eight.tosf" horiz-adv-x="476" 
d="M279 598q87 0 136.5 -39t49.5 -105q0 -85 -91 -141l-1 -8q76 -48 76 -131t-61.5 -134.5t-162.5 -51.5q-98 0 -154.5 40t-56.5 106q0 52 27 85.5t84 56.5l1 7q-69 46 -69 131q0 83 60.5 133.5t161.5 50.5zM264 469q-24 0 -37.5 -13t-13.5 -33q0 -38 62 -64q38 32 38 67
q0 43 -49 43zM225 226q-51 -20 -51 -62q0 -51 55 -51q30 0 47 15t17 34q0 21 -17.5 35.5t-50.5 28.5z" />
    <glyph glyph-name="nine.tosf" horiz-adv-x="475" 
d="M260 525q100 0 156 -56t56 -154q0 -121 -85.5 -225t-239.5 -175h-9l-112 85l2 19q151 46 212 119l-6 9q-27 -10 -53 -10q-73 0 -116 51.5t-43 122.5q0 85 63.5 149.5t174.5 64.5zM246 271q20 0 50 11q1 11 1 34q0 45 -10 64.5t-35 19.5q-52 0 -52 -71q0 -58 46 -58z" />
    <glyph glyph-name="zero.dnom" horiz-adv-x="380" 
d="M220 401q66 0 101 -41t35 -118q0 -117 -54 -183.5t-151 -66.5q-67 0 -102.5 41t-35.5 118q0 117 54.5 183.5t152.5 66.5zM192 270q-31 0 -46.5 -21.5t-15.5 -77.5q0 -59 44 -59q39 0 52 25t13 75q0 31 -11 44.5t-36 13.5z" />
    <glyph glyph-name="one.dnom" horiz-adv-x="295" 
d="M255 385l-37 -244l-11 -141h-149l21 127l14 114l-81 -12l-9 6l14 112l219 52z" />
    <glyph glyph-name="two.dnom" horiz-adv-x="375" 
d="M212 400q55 0 90 -24t35 -68q0 -32 -22 -67t-75 -89l-40 -41l2 -3h57l72 7l6 -9l-29 -112l-108 6h-170l-26 -2l-6 5l10 84l101 89q60 54 69 70q6 10 6 18q0 18 -24 18q-43 0 -96 -40h-16l-12 108q98 50 176 50z" />
    <glyph glyph-name="three.dnom" horiz-adv-x="337" 
d="M181 401q61 0 98 -25.5t37 -66.5q0 -63 -73 -100v-4q58 -19 58 -77q0 -62 -60 -99t-157 -37q-45 0 -85 8l3 102l11 8q46 -13 86 -13q61 0 61 26q0 15 -26 15h-62l-6 8l13 95l33 2q51 2 51 30q0 16 -29 16q-26 0 -80 -19h-15l-12 95q75 36 154 36z" />
    <glyph glyph-name="four.dnom" horiz-adv-x="384" 
d="M340 69l-46 1l-3 -61l-9 -9l-115 -6l-7 8l11 70h-86l-84 -3l-7 11l10 88l194 225h135l-30 -215h49l6 -12zM129 178h58l7 65h-8z" />
    <glyph glyph-name="five.dnom" horiz-adv-x="339" 
d="M334 390l-27 -105l-11 -10l-81 10h-53l-3 -30l42 -9q100 -21 100 -96q0 -71 -60 -114.5t-156 -43.5q-45 0 -94 9l4 100l10 8q43 -12 93 -12q60 0 60 28q0 18 -36 24l-79 12l-7 10l25 210l16 14l46 -2h117l86 5z" />
    <glyph glyph-name="six.dnom" horiz-adv-x="365" 
d="M222 254q59 0 89.5 -36.5t25.5 -85.5q-5 -56 -51.5 -98t-128.5 -42q-77 0 -118 42t-35 114q7 77 66 142.5t160 110.5h7l89 -61l-2 -14q-116 -43 -148 -76l1 -1q23 5 45 5zM203 118q3 40 -34 40q-15 0 -31 -4v-4q-4 -39 1 -54.5t28 -15.5q33 0 36 38z" />
    <glyph glyph-name="seven.dnom" horiz-adv-x="324" 
d="M138 393h145l41 1l-12 -101l-108 -173l-66 -128l-114 30l-7 22l150 234h-67l-81 -8l-6 10l24 116z" />
    <glyph glyph-name="eight.dnom" horiz-adv-x="384" 
d="M210 401q66 0 104 -26.5t38 -69.5q0 -53 -67 -92l-1 -6q55 -31 55 -85q0 -59 -47 -94.5t-129 -35.5q-71 0 -111.5 27t-40.5 72q0 61 84 90l1 5q-53 28 -53 87q0 58 45.5 93t121.5 35zM201 307q-37 0 -37 -25q0 -21 45 -39q26 22 26 41q0 23 -34 23zM171 147
q-38 -11 -38 -35q0 -30 41 -30q22 0 33.5 8.5t11.5 19.5q0 20 -48 37z" />
    <glyph glyph-name="nine.dnom" horiz-adv-x="366" 
d="M199 401q77 0 118 -42t35 -114q-7 -77 -66 -142.5t-160 -110.5h-7l-89 61l2 14q114 42 147 75l-1 2q-23 -5 -44 -5q-59 0 -89.5 36.5t-25.5 85.5q5 56 51.5 98t128.5 42zM187 235q14 0 30 4v4q5 33 0 51.5t-28 18.5q-33 0 -36 -38q-4 -40 34 -40z" />
    <glyph glyph-name="zero.numr" horiz-adv-x="380" 
d="M251 655q66 0 101 -41t35 -118q0 -117 -54 -183.5t-151 -66.5q-67 0 -102.5 41t-35.5 118q0 117 54.5 183.5t152.5 66.5zM223 524q-31 0 -46.5 -21.5t-15.5 -77.5q0 -59 44 -59q39 0 52 25t13 75q0 31 -11 44.5t-36 13.5z" />
    <glyph glyph-name="one.numr" horiz-adv-x="295" 
d="M287 639l-37 -244l-11 -141h-149l21 127l14 114l-81 -12l-9 6l14 112l219 52z" />
    <glyph glyph-name="two.numr" horiz-adv-x="375" 
d="M243 654q55 0 90 -24t35 -68q0 -32 -22 -67t-75 -89l-40 -41l2 -3h57l72 7l6 -9l-29 -112l-108 6h-170l-26 -2l-6 5l10 84l101 89q60 54 69 70q6 10 6 18q0 18 -24 18q-43 0 -96 -40h-16l-12 108q98 50 176 50z" />
    <glyph glyph-name="three.numr" horiz-adv-x="337" 
d="M213 655q61 0 98 -25.5t37 -66.5q0 -63 -73 -100v-4q58 -19 58 -77q0 -62 -60 -99t-157 -37q-45 0 -85 8l3 102l11 8q46 -13 86 -13q61 0 61 26q0 15 -26 15h-62l-6 8l13 95l33 2q51 2 51 30q0 16 -29 16q-26 0 -80 -19h-15l-12 95q75 36 154 36z" />
    <glyph glyph-name="four.numr" horiz-adv-x="384" 
d="M372 323l-46 1l-3 -61l-9 -9l-115 -6l-7 8l11 70h-86l-84 -3l-7 11l10 88l194 225h135l-30 -215h49l6 -12zM161 432h58l7 65h-8z" />
    <glyph glyph-name="five.numr" horiz-adv-x="339" 
d="M365 644l-27 -105l-11 -10l-81 10h-53l-3 -30l42 -9q100 -21 100 -96q0 -71 -60 -114.5t-156 -43.5q-45 0 -94 9l4 100l10 8q43 -12 93 -12q60 0 60 28q0 18 -36 24l-79 12l-7 10l25 210l16 14l46 -2h117l86 5z" />
    <glyph glyph-name="six.numr" horiz-adv-x="365" 
d="M253 508q59 0 89.5 -36.5t25.5 -85.5q-5 -56 -51.5 -98t-128.5 -42q-77 0 -118 42t-35 114q7 77 66 142.5t160 110.5h7l89 -61l-2 -14q-116 -43 -148 -76l1 -1q23 5 45 5zM234 372q3 40 -34 40q-15 0 -31 -4v-4q-4 -39 1 -54.5t28 -15.5q33 0 36 38z" />
    <glyph glyph-name="seven.numr" horiz-adv-x="324" 
d="M170 647h145l41 1l-12 -101l-108 -173l-66 -128l-114 30l-7 22l150 234h-67l-81 -8l-6 10l24 116z" />
    <glyph glyph-name="eight.numr" horiz-adv-x="384" 
d="M241 655q66 0 104 -26.5t38 -69.5q0 -53 -67 -92l-1 -6q55 -31 55 -85q0 -59 -47 -94.5t-129 -35.5q-71 0 -111.5 27t-40.5 72q0 61 84 90l1 5q-53 28 -53 87q0 58 45.5 93t121.5 35zM232 561q-37 0 -37 -25q0 -21 45 -39q26 22 26 41q0 23 -34 23zM202 401
q-38 -11 -38 -35q0 -30 41 -30q22 0 33.5 8.5t11.5 19.5q0 20 -48 37z" />
    <glyph glyph-name="nine.numr" horiz-adv-x="366" 
d="M230 655q77 0 118 -42t35 -114q-7 -77 -66 -142.5t-160 -110.5h-7l-89 61l2 14q114 42 147 75l-1 2q-23 -5 -44 -5q-59 0 -89.5 36.5t-25.5 85.5q5 56 51.5 98t128.5 42zM218 489q14 0 30 4v4q5 33 0 51.5t-28 18.5q-33 0 -36 -38q-4 -40 34 -40z" />
    <glyph glyph-name="acute.cap" 
d="M338 738l49 -116l-6 -16q-132 -42 -238 -69l-17 4l-30 79q114 56 225 122z" />
    <glyph glyph-name="breve.cap" 
d="M392 724l32 -59q-57 -124 -183 -124q-65 0 -110 32t-62 92l48 59h27q28 -50 107 -50q77 0 114 50h27z" />
    <glyph glyph-name="caron.cap" 
d="M392 731l25 -75q-89 -59 -158 -119h-34q-58 55 -148 119l43 75h18q12 -7 34 -19t40 -22t34 -19q23 11 67 31.5t61 28.5h18z" />
    <glyph glyph-name="circumflex.cap" 
d="M97 545l-25 76q99 67 158 118h34q58 -55 148 -118l-43 -76h-18q-19 10 -54 30t-54 30q-21 -10 -64 -30t-64 -30h-18z" />
    <glyph glyph-name="grave.cap" 
d="M145 738l17 4q95 -56 225 -122l-30 -79l-17 -4q-106 27 -238 69l-6 16z" />
    <glyph glyph-name="hungarumlaut.cap" 
d="M113 536l-59 46q68 98 99 149l14 3l90 -57l3 -14q-63 -63 -131 -122zM282 536l-59 46q81 120 99 149l13 3l91 -57l3 -14q-69 -67 -132 -122z" />
    <glyph glyph-name="caron.alt" 
d="M331 745l-72 -231l-84 -13l-11 10l19 237l140 8z" />
    <glyph glyph-name="dieresis.i" 
d="M155 715q38 0 59.5 -21.5t21.5 -60.5q0 -41 -24 -65.5t-64 -24.5q-39 0 -60 21t-21 61q0 42 23.5 66t64.5 24zM339 715q38 0 59 -21.5t21 -60.5q0 -41 -23.5 -65.5t-63.5 -24.5q-82 0 -82 82q0 42 24 66t65 24z" />
    <glyph glyph-name="macron.i" 
d="M372 678l-9 -107h-236l-12 13l9 106h236z" />
    <glyph glyph-name="tilde.i" 
d="M414 683v-16l-72 -111l-15 -6q-23 4 -68 18t-55 14q-12 0 -23.5 -9.5t-17.5 -18t-19 -28.5h-16l-56 55v16l72 110l15 6q23 -4 68 -18t55 -14q12 0 23.5 9.5t17.5 18t19 28.5h16z" />
    <glyph glyph-name="Gdieresis" horiz-adv-x="599" 
d="M302 890q38 0 59.5 -21t21.5 -60q0 -42 -23.5 -66.5t-64.5 -24.5q-81 0 -81 83q0 42 23.5 65.5t64.5 23.5zM496 890q38 0 59 -21.5t21 -59.5q0 -42 -23.5 -66.5t-63.5 -24.5t-61 21.5t-21 61.5q0 42 24 65.5t65 23.5zM426 658q117 0 193 -30l-64 -176h-16q-88 47 -160 47
q-36 0 -60.5 -9t-45 -34t-30.5 -73.5t-10 -122.5q0 -69 25 -95.5t85 -26.5q14 0 36 4l4 33l10 109l184 13l-14 -88l-22 -177q-119 -44 -225 -44q-141 0 -216.5 71t-75.5 199q0 193 103.5 296.5t298.5 103.5z" />
    <glyph glyph-name="breveacute" 
d="M382 823l2 -14q-62 -62 -128 -119l-15 -4l-58 44q66 96 97 146l13 4zM390 704l32 -59q-57 -124 -183 -124q-65 0 -110 32t-62 92l48 59h27q28 -50 107 -50q77 0 114 50h27z" />
    <glyph glyph-name="brevegrave" 
d="M253 686l-15 4q-62 53 -129 119l3 14l89 57l13 -4q31 -50 97 -146zM390 704l32 -59q-57 -124 -183 -124q-65 0 -110 32t-62 92l48 59h27q28 -50 107 -50q77 0 114 50h27z" />
    <glyph glyph-name="brevehookabove" 
d="M237 940q43 0 71.5 -24.5t28.5 -63.5q0 -22 -13 -41t-48 -51l27 -43l-64 -38l-54 79q25 18 39.5 39t14.5 37q0 24 -30 24q-36 0 -70 -26l-29 47q56 61 127 61zM390 704l32 -59q-57 -124 -183 -124q-65 0 -110 32t-62 92l48 59h27q28 -50 107 -50q77 0 114 50h27z" />
    <glyph glyph-name="brevetilde" 
d="M454 860v-15l-73 -103l-15 -5q-24 3 -75.5 17.5t-63.5 14.5q-5 0 -10 -1.5t-9.5 -5t-8.5 -6t-9.5 -9t-8 -9.5t-9 -11t-8.5 -11h-14l-52 49v15l74 102l14 6q23 -3 75 -17t64 -14q10 0 22 8.5t16.5 14t19.5 24.5q3 4 5 6h15zM380 690l30 -55q-54 -115 -171 -115
q-60 0 -102 30t-58 85l45 55h25q27 -46 100 -46q71 0 106 46h25z" />
    <glyph glyph-name="circle1" horiz-adv-x="472" 
d="M236 464q98 0 168 -70t70 -168t-70 -168t-168 -70t-168 70t-70 168t70 168t168 70z" />
    <glyph glyph-name="circle2" horiz-adv-x="647" 
d="M323 649q137 0 234.5 -97.5t97.5 -234.5t-97.5 -234t-234.5 -97t-234 97t-97 234t97 234.5t234 97.5z" />
    <glyph glyph-name="circumflexacute" 
d="M489 835l5 -13l-110 -148h-11l-63 46l70 149l12 7zM231 720h34q56 -54 147 -118l-42 -76h-18q-19 10 -54 30t-54 30q-21 -10 -64.5 -30t-63.5 -30h-18l-25 76q99 67 158 118z" />
    <glyph glyph-name="circumflexgrave" 
d="M356 869l70 -149l-63 -46h-11l-110 148l5 13l98 41zM224 719h34q58 -55 148 -118l-43 -76h-18q-18 10 -53.5 30t-54.5 30q-20 -10 -63.5 -30t-64.5 -30h-18l-25 76q99 67 158 118z" />
    <glyph glyph-name="circumflexhookabove" 
d="M345 925q41 0 68 -23t27 -61q0 -20 -12.5 -38.5t-45.5 -48.5l25 -41l-61 -37l-51 76q23 16 37 36t14 36q0 23 -28 23q-34 0 -67 -25l-27 45q53 58 121 58zM225 720h34q58 -55 148 -118l-43 -76h-18q-19 10 -54.5 30t-53.5 30q-20 -10 -64 -30t-64 -30h-18l-25 76
q99 67 158 118z" />
    <glyph glyph-name="circumflextilde" 
d="M450 855v-15l-73 -102l-15 -5q-24 3 -75.5 17t-63.5 14q-5 0 -10 -1.5t-9.5 -5t-8.5 -6t-9.5 -9t-8 -9.5t-9 -11t-8.5 -11h-14l-52 49v15l74 102l14 6q23 -3 75 -17t64 -14q10 0 22 8.5t16.5 14t19.5 24.5q3 4 5 6h15zM230 721h34q56 -54 147 -118l-42 -76h-18
q-19 10 -54 30t-54 30q-21 -10 -64 -30t-64 -30h-18l-25 76q99 67 158 118z" />
    <glyph glyph-name="dieresiscaron" 
d="M396 894l25 -76q-87 -57 -158 -118h-34q-59 55 -148 118l43 76h18q12 -7 34 -19t40 -22t34 -19q23 11 67 31.5t61 28.5h18zM155 696q38 0 59 -21.5t21 -59.5q0 -42 -23.5 -66.5t-63.5 -24.5q-81 0 -81 83q0 41 23.5 65t64.5 24zM348 696q37 0 58 -21.5t21 -59.5
q0 -42 -23 -66.5t-63 -24.5t-61 21.5t-21 61.5q0 41 24 65t65 24z" />
    <glyph glyph-name="dieresismacron" 
d="M415 850l-10 -106h-303l-13 12l10 107h303zM149 696q38 0 59 -21.5t21 -59.5q0 -42 -23.5 -66.5t-63.5 -24.5q-39 0 -60 21.5t-21 61.5q0 41 23.5 65t64.5 24zM342 696q38 0 59 -21.5t21 -59.5q0 -42 -23.5 -66.5t-63.5 -24.5t-61 21.5t-21 61.5q0 41 24 65t65 24z" />
    <glyph glyph-name="down" horiz-adv-x="432" 
d="M216 70l-156 311h311z" />
    <glyph glyph-name="firstofchinese" horiz-adv-x="385" 
d="M392 678l-9 -107h-276l-12 13l9 106h276z" />
    <glyph glyph-name="foundryicon" horiz-adv-x="783" 
d="M180 524h423q80 0 80 -80v-423q0 -80 -80 -80h-423q-80 0 -80 80v423q0 80 80 80zM191 437v-344h74v180q0 12 24 12q43 0 43 -56v-136h74v178q0 32 -22 52.5t-56 20.5l-48 -28q-6 -4 -9 -4q-6 0 -6 9v116h-74zM524 376l-89 -56v-18h26q10 0 10 -10v-132q0 -32 22 -52.5
t56 -20.5l63 37v25q-12 -4 -26 -4q-41 0 -41 57v90q0 10 10 10h58v36h-58q-10 0 -10 10v28h-21z" />
    <glyph glyph-name="gdieresis" horiz-adv-x="515" 
d="M222 756q38 0 59.5 -21t21.5 -60q0 -42 -23.5 -66.5t-64.5 -24.5q-81 0 -81 83q0 42 23.5 65.5t64.5 23.5zM416 756q38 0 59 -21.5t21 -59.5q0 -42 -23.5 -66.5t-63.5 -24.5t-61 21.5t-21 61.5q0 42 24 65.5t65 23.5zM359 522q87 0 164 -20l-60 -162h-14q-75 36 -136 36
q-53 0 -78 -30t-25 -126q0 -54 15 -73.5t67 -19.5h7.5t5 0.5t2.5 0.5h2h1l3 13l8 91l170 11l-11 -70l-18 -147q-102 -37 -192 -37q-123 0 -188 61.5t-65 180.5q0 138 87.5 214.5t254.5 76.5z" />
    <glyph glyph-name="hookabove" 
d="M265 772q43 0 71.5 -24t28.5 -63q0 -22 -13 -41t-48 -51l27 -43l-64 -39l-54 80q25 18 39.5 39t14.5 37q0 24 -30 24q-36 0 -70 -26l-29 47q55 60 127 60z" />
    <glyph glyph-name="left" horiz-adv-x="432" 
d="M351 80l-311 155l311 156v-311z" />
    <glyph glyph-name="right" horiz-adv-x="432" 
d="M391 236l-311 -156v311z" />
    <glyph glyph-name="ringacute" 
d="M380 918l32 -122l-8 -15q-119 -20 -245 -36l-17 6l-18 82q117 40 240 91zM246 734q106 0 106 -103q0 -55 -29 -84.5t-85 -29.5q-106 0 -106 107q0 110 114 110zM241 657q-19 0 -26.5 -6.5t-7.5 -23.5q0 -19 8 -26.5t28 -7.5q19 0 26.5 7t7.5 24q0 18 -8 25.5t-28 7.5z
" />
    <glyph glyph-name="square1" horiz-adv-x="472" 
d="M472 0h-472v472h472v-472z" />
    <glyph glyph-name="square2" horiz-adv-x="647" 
d="M647 0h-647v647h647v-647z" />
    <glyph glyph-name="up" horiz-adv-x="432" 
d="M371 100h-311l155 311z" />
    </font>
</defs>
</svg>
