<?xml version="1.0" standalone="no"?>
<!DOCTYPE svg PUBLIC "-//W3C//DTD SVG 1.1//EN" "http://www.w3.org/Graphics/SVG/1.1/DTD/svg11.dtd" >
<svg xmlns="http://www.w3.org/2000/svg" xmlns:xlink="http://www.w3.org/1999/xlink" version="1.1">
<metadata>
Created by FontForge 20150913 at Sat Feb 27 13:29:25 2016
 By Emil Björklund
Copyright (c) 2013 by Juan Pablo del Peral (huertatipografica.com)
</metadata>
<defs>
<font id="AlegreyaSansSC-Black" horiz-adv-x="653" >
  <font-face 
    font-family="AlegreyaSansSC-Black"
    font-weight="900"
    font-stretch="normal"
    units-per-em="1000"
    panose-1="0 0 10 0 0 0 0 0 0 0"
    ascent="800"
    descent="-200"
    x-height="513"
    cap-height="647"
    bbox="-223 -304 1244 1117"
    underline-thickness="80"
    underline-position="-250"
    unicode-range="U+0020-F6D8"
  />
<missing-glyph horiz-adv-x="135" 
 />
    <glyph glyph-name="Idieresis" unicode="&#xa8;I" horiz-adv-x="327" 
d="M75 892q38 0 59.5 -21.5t21.5 -60.5q0 -42 -23.5 -66.5t-64.5 -24.5q-40 0 -61 21.5t-21 61.5q0 42 24 66t65 24zM258 892q38 0 59.5 -21.5t21.5 -60.5q0 -42 -23.5 -66.5t-64.5 -24.5q-40 0 -61 21.5t-21 61.5q0 42 24 66t65 24zM253 210l8 -210h-201l10 190l-10 457
h204z" />
    <glyph glyph-name="Odieresis" unicode="&#xa8;O" 
d="M235 892q38 0 59.5 -21.5t21.5 -60.5q0 -42 -23.5 -66.5t-64.5 -24.5q-40 0 -61 21.5t-21 61.5q0 42 24 66t65 24zM428 892q38 0 59.5 -21.5t21.5 -60.5q0 -42 -23.5 -66.5t-64.5 -24.5q-40 0 -61 21.5t-21 61.5q0 42 24 66t65 24zM341 659q141 0 218 -83.5t77 -235.5
q0 -168 -84.5 -260t-239.5 -92q-141 0 -218 84.5t-77 239.5q0 166 84.5 256.5t239.5 90.5zM323 499q-56 0 -76 -32.5t-20 -127.5q0 -121 21 -162t82 -41q57 0 76.5 32.5t19.5 128.5q0 120 -21 161t-82 41z" />
    <glyph glyph-name="Yacute" unicode="&#xb4;Y" horiz-adv-x="594" 
d="M198 716l-30 79q118 60 225 123l17 -4l49 -117l-6 -16q-132 -42 -238 -69zM382 170l8 -170h-200l10 170l-1 31l-207 446h210l16 -54l73 -195h12l84 188l23 61h204l-230 -439z" />
    <glyph glyph-name="idieresis" unicode="&#xa8;i" horiz-adv-x="303" 
d="M66 758q38 0 59.5 -21.5t21.5 -60.5q0 -42 -23.5 -66.5t-64.5 -24.5q-40 0 -61 21.5t-21 61.5q0 42 24 66t65 24zM249 758q38 0 59.5 -21.5t21.5 -60.5q0 -42 -23.5 -66.5t-64.5 -24.5q-40 0 -61 21.5t-21 61.5q0 42 24 66t65 24zM231 168l8 -168h-186l9 149l-9 364h189z
" />
    <glyph glyph-name="odieresis" unicode="&#xa8;o" horiz-adv-x="565" 
d="M192 758q38 0 59.5 -21.5t21.5 -60.5q0 -42 -23.5 -66.5t-64.5 -24.5q-40 0 -61 21.5t-21 61.5q0 42 24 66t65 24zM385 758q38 0 59.5 -21.5t21.5 -60.5q0 -42 -23.5 -66.5t-64.5 -24.5q-40 0 -61 21.5t-21 61.5q0 42 24 66t65 24zM295 523q120 0 185.5 -66t65.5 -187
q0 -134 -72.5 -207.5t-204.5 -73.5q-120 0 -185.5 67.5t-65.5 189.5q0 132 72.5 204.5t204.5 72.5zM278 376q-41 0 -53.5 -19t-12.5 -86q0 -92 14 -118.5t60 -26.5q42 0 54 18.5t12 85.5q0 92 -13.5 119t-60.5 27z" />
    <glyph glyph-name="yacute" unicode="&#xb4;y" horiz-adv-x="525" 
d="M189 563l-44 72q102 76 201 161l17 -1l69 -107l-3 -17q-142 -72 -223 -109zM340 131l8 -131h-185l9 131l-1 17l-174 365h194l14 -47l52 -133h10l61 126l20 54h189l-196 -360z" />
    <glyph glyph-name="Itilde" unicode="&#x7e;I" horiz-adv-x="327" 
d="M333 858v-16l-72 -111l-15 -6q-23 4 -68 18t-55 14q-12 0 -23.5 -9.5t-17.5 -18t-19 -28.5h-16l-56 55v16l72 111l15 6q23 -4 68 -18t55 -14q12 0 23.5 9.5t17.5 18t19 28.5h16zM253 210l8 -210h-201l10 190l-10 457h204z" />
    <glyph glyph-name="itilde" unicode="&#x7e;i" horiz-adv-x="303" 
d="M324 724v-16l-72 -111l-15 -6q-23 4 -68 18t-55 14q-12 0 -23.5 -9.5t-17.5 -18t-19 -28.5h-16l-56 55v16l72 111l15 6q23 -4 68 -18t55 -14q12 0 23.5 9.5t17.5 18t19 28.5h16zM231 168l8 -168h-186l9 149l-9 364h189z" />
    <glyph glyph-name="Utilde" unicode="&#x7e;U" 
d="M522 861v-16l-81 -113l-16 -6q-26 3 -83 18.5t-70 15.5q-4 0 -8 -1t-8.5 -3t-8 -4t-8 -6.5l-7 -7t-7.5 -8.5t-7 -9t-7.5 -9.5t-7.5 -9.5h-16l-57 55v16l81 113l16 6q26 -3 83 -18.5t70 -15.5q4 0 8 1t8.5 3t8 4t8 6.5l7 7t7.5 8.5t7 9t7.5 9.5t7.5 9.5h16zM600 319
l-1 -103q-1 -110 -74 -169t-209 -59q-131 0 -200.5 59t-66.5 169l3 103l-6 328h201l-9 -404q-1 -51 19.5 -74t66.5 -23q47 0 68 23t20 74l-9 404h204z" />
    <glyph glyph-name="utilde" unicode="&#x7e;u" horiz-adv-x="566" 
d="M478 727v-16l-81 -113l-16 -6q-26 3 -83 18.5t-70 15.5q-4 0 -8 -1t-8.5 -3t-8 -4t-8 -6.5l-7 -7t-7.5 -8.5t-7 -9t-7.5 -9.5t-7.5 -9.5h-16l-57 55v16l81 113l16 6q26 -3 83 -18.5t70 -15.5q4 0 8 1t8.5 3t8 4t8 6.5l7 7t7.5 8.5t7 9t7.5 9.5t7.5 9.5h16zM518 253
l-1 -84q-1 -87 -64 -133.5t-180 -46.5q-113 0 -172 46.5t-56 133.5l2 83l-5 261h185l-8 -319q-1 -32 13 -45.5t49 -13.5t49.5 13.5t13.5 45.5l-8 319h188z" />
    <glyph glyph-name="Etilde" unicode="&#x7e;E" horiz-adv-x="541" 
d="M152 702l-57 55v16l81 113l16 6q26 -3 83 -18.5t70 -15.5q4 0 8 1t8.5 3t8 4t8 6.5l7 7t7.5 8.5t7 9t7.5 9.5t7.5 9.5h16l57 -55v-16l-81 -113l-16 -6q-26 3 -83 18.5t-70 15.5q-4 0 -8 -1t-8.5 -3t-8 -4t-8 -6.5l-7 -7t-7.5 -8.5t-7 -9t-7.5 -9.5t-7.5 -9.5h-16z
M517 160l11 -14l-12 -146h-456l10 190l-10 457h464l11 -14l-13 -146l-159 6h-103l-2 -91h99l104 3l11 -14l-12 -146l-116 3h-90l-1 -38l2 -56h96z" />
    <glyph glyph-name="etilde" unicode="&#x7e;e" horiz-adv-x="480" 
d="M114 568l-57 55v16l81 113l16 6q26 -3 83 -18.5t70 -15.5q4 0 8 1t8.5 3t8 4t8 6.5l7 7t7.5 8.5t7 9t7.5 9.5t7.5 9.5h16l57 -55v-16l-81 -113l-16 -6q-26 3 -83 18.5t-70 15.5q-4 0 -8 -1t-8.5 -3t-8 -4t-8 -6.5l-7 -7t-7.5 -8.5t-7 -9t-7.5 -9.5t-7.5 -9.5h-16z
M451 147l10 -12l-11 -135h-397l9 149l-9 364h404l10 -13l-11 -135l-135 6h-84l-1 -44h80l87 3l10 -13l-11 -135l-98 3h-72l-1 -17l1 -26h79z" />
    <glyph glyph-name="Ytilde" unicode="&#x7e;Y" horiz-adv-x="594" 
d="M157 702l-57 55v16l81 113l16 6q26 -3 83 -18.5t70 -15.5q4 0 8 1t8.5 3t8 4t8 6.5l7 7t7.5 8.5t7 9t7.5 9.5t7.5 9.5h16l57 -55v-16l-81 -113l-16 -6q-26 3 -83 18.5t-70 15.5q-4 0 -8 -1t-8.5 -3t-8 -4t-8 -6.5l-7 -7t-7.5 -8.5t-7 -9t-7.5 -9.5t-7.5 -9.5h-16z
M382 170l8 -170h-200l10 170l-1 31l-207 446h210l16 -54l73 -195h12l84 188l23 61h204l-230 -439z" />
    <glyph glyph-name="ytilde" unicode="&#x7e;y" horiz-adv-x="525" 
d="M129 568l-57 55v16l81 113l16 6q26 -3 83 -18.5t70 -15.5q4 0 8 1t8.5 3t8 4t8 6.5l7 7t7.5 8.5t7 9t7.5 9.5t7.5 9.5h16l57 -55v-16l-81 -113l-16 -6q-26 3 -83 18.5t-70 15.5q-4 0 -8 -1t-8.5 -3t-8 -4t-8 -6.5l-7 -7t-7.5 -8.5t-7 -9t-7.5 -9.5t-7.5 -9.5h-16z
M340 131l8 -131h-185l9 131l-1 17l-174 365h194l14 -47l52 -133h10l61 126l20 54h189l-196 -360z" />
    <glyph glyph-name="Gtilde" unicode="&#x7e;G" horiz-adv-x="596" 
d="M523 861v-16l-81 -113l-16 -6q-26 3 -83 18.5t-70 15.5q-4 0 -8 -1t-8.5 -3t-8 -4t-8 -6.5l-7 -7t-7.5 -8.5t-7 -9t-7.5 -9.5t-7.5 -9.5h-16l-57 55v16l81 113l16 6q26 -3 83 -18.5t70 -15.5q4 0 8 1t8.5 3t8 4t8 6.5l7 7t7.5 8.5t7 9t7.5 9.5t7.5 9.5h16zM382 658
q108 0 187 -30l-43 -177h-16q-94 47 -166 47q-67 0 -92 -36.5t-25 -141.5q0 -107 26 -144t99 -37q14 0 36 4v32l-3 109l183 13l-3 -88v-177q-116 -44 -231 -44q-157 0 -237 83.5t-80 238.5q0 170 94.5 259t270.5 89z" />
    <glyph glyph-name="gtilde" unicode="&#x7e;g" horiz-adv-x="514" 
d="M465 727v-16l-81 -113l-16 -6q-26 3 -83 18.5t-70 15.5q-4 0 -8 -1t-8.5 -3t-8 -4t-8 -6.5l-7 -7t-7.5 -8.5t-7 -9t-7.5 -9.5t-7.5 -9.5h-16l-57 55v16l81 113l16 6q26 -3 83 -18.5t70 -15.5q4 0 8 1t8.5 3t8 4t8 6.5l7 7t7.5 8.5t7 9t7.5 9.5t7.5 9.5h16zM331 522
q95 0 158 -20l-40 -163h-14q-79 36 -139 36q-51 0 -67.5 -22t-16.5 -99q0 -79 18.5 -102.5t76.5 -23.5h15v13l-2 91l169 11l-3 -70v-147q-98 -37 -196 -37q-135 0 -203.5 66t-68.5 189q0 136 81 207t232 71z" />
    <glyph glyph-name=".notdef" horiz-adv-x="135" 
 />
    <glyph glyph-name=".null" horiz-adv-x="0" 
 />
    <glyph glyph-name="nonmarkingreturn" horiz-adv-x="333" 
 />
    <glyph glyph-name="space" unicode=" " horiz-adv-x="135" 
 />
    <glyph glyph-name="exclam" unicode="!" horiz-adv-x="274" 
d="M248 649l-52 -390l-109 -16l-19 18l-17 378l17 22l157 11zM129 190q44 0 68.5 -25t24.5 -70q0 -48 -27 -76t-74 -28q-46 0 -70 24.5t-24 70.5q0 48 27.5 76t74.5 28z" />
    <glyph glyph-name="quotedbl" unicode="&#x22;" horiz-adv-x="443" 
d="M214 634l-48 -262l-88 -14l-15 11l-10 268l151 9zM407 634l-48 -262l-88 -14l-15 11l-10 268l151 9z" />
    <glyph glyph-name="numbersign" unicode="#" horiz-adv-x="587" 
d="M468 346l-14 -90h72l11 -12l-8 -97h-93l-18 -116h-111l-9 12l17 104h-92l-18 -116h-111l-9 12l17 104h-71l-11 12l8 97h91l14 90h-72l-11 12l8 97h92l19 117h108l12 -13l-17 -104h91l19 117h108l12 -13l-17 -104h71l11 -12l-8 -97h-91zM346 346h-91l-14 -90h91z" />
    <glyph glyph-name="dollar" unicode="$" horiz-adv-x="469" 
d="M436 170q0 -60 -37 -108t-113 -66l-8 -138h-115l-14 15l7 117q-67 7 -132 26l27 161l17 13q39 -31 85 -51t76 -20q24 0 24 16q0 13 -22 24t-53.5 22t-63 28t-53.5 50.5t-22 80.5q0 62 38 108.5t107 64.5l7 134h112l17 -15l-6 -111q56 -5 113 -25l-27 -154l-26 -7
q-35 23 -72.5 37t-58.5 14t-21 -13q0 -14 22 -25t53.5 -22t63 -27.5t53.5 -49.5t22 -79z" />
    <glyph glyph-name="percent" unicode="%" horiz-adv-x="889" 
d="M693 647l10 -24l-462 -717l-82 50l-6 17l464 721zM198 655q76 0 116.5 -46t40.5 -132q0 -94 -45.5 -145t-130.5 -51q-77 0 -118 46t-41 132q0 94 46 145t132 51zM186 535q-28 0 -39.5 -15t-11.5 -52q0 -41 11.5 -58.5t40.5 -17.5q30 0 42 16t12 53q0 40 -12.5 57
t-42.5 17zM711 367q76 0 116.5 -46t40.5 -133q0 -94 -45.5 -144.5t-130.5 -50.5q-77 0 -118 46t-41 131q0 95 46.5 146t131.5 51zM699 247q-28 0 -39.5 -15t-11.5 -53q0 -41 11.5 -58.5t40.5 -17.5q30 0 42 16.5t12 53.5q0 40 -12.5 57t-42.5 17z" />
    <glyph glyph-name="ampersand" unicode="&#x26;" horiz-adv-x="680" 
d="M688 279l11 -14l-12 -120h-146q-62 -158 -252 -158q-131 0 -202 69.5t-71 197.5q0 124 64.5 196.5t179.5 72.5q68 0 103 -24.5t38 -67.5q167 134 233 281h15q56 -52 75 -120q-29 -80 -189 -213.5t-332 -217.5q30 -40 98 -40q64 0 98.5 36t44.5 112l13 10h231zM254 403
q-71 0 -77 -110q42 19 86 44q22 15 22 40q0 26 -31 26z" />
    <glyph glyph-name="quotesingle" unicode="'" horiz-adv-x="250" 
d="M214 634l-48 -262l-88 -14l-15 11l-10 268l151 9z" />
    <glyph glyph-name="parenleft" unicode="(" horiz-adv-x="302" 
d="M300 602v-15q-88 -97 -88 -336q0 -219 88 -316v-15l-69 -57h-17q-81 60 -119.5 154t-38.5 233q0 150 38.5 249t119.5 160h17z" />
    <glyph glyph-name="parenright" unicode=")" horiz-adv-x="302" 
d="M2 -80v15q88 97 88 336q0 219 -88 316v15l69 57h17q81 -60 119.5 -154t38.5 -233q0 -150 -38.5 -249t-119.5 -160h-17z" />
    <glyph glyph-name="asterisk" unicode="*" horiz-adv-x="394" 
d="M258 741l-36 -127l-51 -6l-9 8l-6 118q43 15 97 17zM150 605l-9 -51l-11 -5l-114 30q-1 44 13 97l12 3zM236 606l112 42q27 -39 45 -87l-7 -8l-132 -4l-23 46zM250 533l75 -93q-24 -33 -69 -70l-10 4l-45 125l37 35zM182 509l2 -11l-64 -100q-38 11 -89 42l1 12l104 81z
" />
    <glyph glyph-name="plus" unicode="+" horiz-adv-x="480" 
d="M306 469v-149h148l12 -13l-9 -117h-151v-152l-117 -9l-13 12v149h-149l-12 13l9 117h152v152l117 9z" />
    <glyph glyph-name="comma" unicode="," horiz-adv-x="228" 
d="M161 183q48 -45 48 -106q0 -114 -152 -219l-61 53l-2 14q56 49 56 109q0 42 -33 75l1 16q72 40 143 58z" />
    <glyph glyph-name="hyphen" unicode="-" horiz-adv-x="299" 
d="M273 326l1 -120l-235 -38l-14 14v120l234 38z" />
    <glyph glyph-name="period" unicode="." horiz-adv-x="228" 
d="M118 190q44 0 68.5 -25t24.5 -70q0 -48 -27 -76t-74 -28q-46 0 -70 24.5t-24 70.5q0 48 27.5 76t74.5 28z" />
    <glyph glyph-name="slash" unicode="/" horiz-adv-x="280" 
d="M326 667l-208 -785h-135l-11 15l208 786h131z" />
    <glyph glyph-name="zero" unicode="0" horiz-adv-x="513" 
d="M270 524q101 0 157.5 -66.5t56.5 -187.5q0 -134 -63 -208t-176 -74q-102 0 -159 67t-57 188q0 132 63.5 206.5t177.5 74.5zM255 342q-41 0 -58 -19t-17 -67q0 -52 17 -74.5t59 -22.5t60 20.5t18 67.5q0 52 -18.5 73.5t-60.5 21.5z" />
    <glyph glyph-name="one" unicode="1" horiz-adv-x="379" 
d="M303 502l-10 -292l8 -210h-198l8 190v109l-94 -20l-12 9v158l270 76z" />
    <glyph glyph-name="two" unicode="2" horiz-adv-x="490" 
d="M254 522q80 0 131 -35.5t51 -99.5q0 -83 -107 -190l-44 -44l3 -5h77l97 10l10 -12l-22 -154l-144 8h-230l-36 -3l-9 7v118l128 110q82 72 82 102q0 23 -35 23q-58 0 -126 -50h-21l-33 152q124 63 228 63z" />
    <glyph glyph-name="three" unicode="3" horiz-adv-x="453" 
d="M219 524q90 0 145 -41t55 -108q0 -89 -89 -140v-6q94 -34 94 -135q0 -84 -77 -135.5t-202 -51.5q-61 0 -118 11l-10 144l13 12q69 -20 121 -20q85 0 85 47q0 33 -46 33h-84l-8 12l5 134l45 2q31 2 51 15t20 36q0 33 -46 33q-39 0 -110 -32h-20l-28 135q97 55 204 55z" />
    <glyph glyph-name="four" unicode="4" horiz-adv-x="529" 
d="M499 28l-68 2l6 -103l-10 -13l-153 -9l-10 12l4 115h-129l-112 -4l-12 16v123l236 347h180l-4 -333h69l11 -17zM180 181h92l-1 119h-11z" />
    <glyph glyph-name="five" unicode="5" horiz-adv-x="448" 
d="M428 510l-21 -148l-13 -14l-111 15h-79l-2 -61l60 -13q80 -17 117.5 -56.5t37.5 -106.5q0 -100 -75.5 -160.5t-199.5 -60.5q-62 0 -129 14l-9 140l13 13q64 -19 128 -19q86 0 86 51q0 20 -14 31.5t-45 16.5l-109 18l-11 14l5 314l19 20l63 -4h161l117 8z" />
    <glyph glyph-name="six" unicode="6" horiz-adv-x="498" 
d="M303 376q81 0 127.5 -54t46.5 -127q0 -83 -60 -145t-172 -62q-106 0 -166.5 62.5t-60.5 169.5q0 115 74.5 213.5t210.5 164.5h9l124 -86v-19q-85 -34 -132.5 -61.5t-71.5 -60.5l4 -5q35 10 67 10zM250 113q51 0 51 63q0 65 -57 65q-22 0 -49 -9v-9q0 -59 10 -84.5
t45 -25.5z" />
    <glyph glyph-name="seven" unicode="7" horiz-adv-x="450" 
d="M159 514h210l57 2v-142l-131 -285l-70 -186l-156 43l-12 30l180 377h-109l-111 -12l-9 15l12 163z" />
    <glyph glyph-name="eight" unicode="8" horiz-adv-x="515" 
d="M273 598q90 0 141 -41.5t51 -111.5q0 -76 -80 -128v-8q94 -48 94 -135t-64.5 -136.5t-172.5 -49.5q-101 0 -155 42.5t-54 110.5q0 89 103 131v8q-88 48 -88 139q0 83 61 131t164 48zM259 466q-53 0 -53 -40q0 -22 18.5 -37t53.5 -29q35 30 35 62q0 20 -14.5 32t-39.5 12z
M243 225q-27 -10 -38.5 -22.5t-11.5 -33.5q0 -25 16.5 -39t48.5 -14q31 0 47 12.5t16 30.5q0 22 -19.5 36.5t-58.5 29.5z" />
    <glyph glyph-name="nine" unicode="9" horiz-adv-x="498" 
d="M253 525q106 0 166.5 -62.5t60.5 -169.5q0 -115 -74.5 -213.5t-210.5 -164.5h-9l-124 86v19q85 34 132.5 61.5t71.5 60.5l-4 5q-35 -10 -67 -10q-81 0 -127.5 54t-46.5 127q0 83 60 145t172 62zM254 272q22 0 49 9v9q0 59 -10 84.5t-45 25.5q-51 0 -51 -63q0 -65 57 -65z
" />
    <glyph glyph-name="colon" unicode=":" horiz-adv-x="228" 
d="M113 445q44 0 68.5 -25t24.5 -70q0 -48 -27 -76t-74 -28q-46 0 -70 24.5t-24 70.5q0 48 27.5 76t74.5 28zM113 190q44 0 68.5 -25t24.5 -70q0 -48 -27 -76t-74 -28q-46 0 -70 24.5t-24 70.5q0 48 27.5 76t74.5 28z" />
    <glyph glyph-name="semicolon" unicode=";" horiz-adv-x="228" 
d="M113 445q44 0 68.5 -25t24.5 -70q0 -48 -27 -76t-74 -28q-46 0 -70 24.5t-24 70.5q0 48 27.5 76t74.5 28zM156 183q48 -45 48 -106q0 -114 -152 -219l-61 53l-2 14q56 49 56 109q0 42 -33 75l1 16q72 40 143 58z" />
    <glyph glyph-name="less" unicode="&#x3c;" horiz-adv-x="480" 
d="M448 369l-7 -13l-277 -92v-9l276 -91l-26 -108l-16 -13l-367 134v156l12 17l365 130z" />
    <glyph glyph-name="equal" unicode="=" horiz-adv-x="480" 
d="M466 413l-9 -117h-430l-12 13l9 117h430zM466 200l-9 -117h-430l-12 13l9 117h430z" />
    <glyph glyph-name="greater" unicode="&#x3e;" horiz-adv-x="480" 
d="M437 350l12 -17v-156l-367 -134l-16 13l-26 108l276 91v9l-277 92l-7 13l40 111z" />
    <glyph glyph-name="question" unicode="?" horiz-adv-x="351" 
d="M66 668l17 9q145 -6 223 -49t78 -118q0 -90 -99 -143l-58 -30l-3 -6l7 -71l-136 -20l-13 12l-13 126l6 11l84 33q48 20 48 58q0 28 -35 42t-127 20l-14 18zM171 190q44 0 68.5 -25t24.5 -70q0 -48 -27 -76t-74 -28q-46 0 -70 24.5t-24 70.5q0 48 27.5 76t74.5 28z" />
    <glyph glyph-name="at" unicode="@" horiz-adv-x="866" 
d="M856 327q0 -157 -109 -241t-311 -84l14 103h-15q-34 -66 -70 -110h-22q-74 18 -102 57t-28 102q0 94 58 179.5t169 122.5h6l92 -15l103 21l11 -8l-43 -321q56 14 89 65.5t33 122.5q0 105 -72 164.5t-192 54.5q-145 -6 -233 -100t-88 -236q0 -152 103 -237.5t275 -85.5
l7 -17l-50 -89q-213 0 -337.5 106.5t-124.5 301.5q0 204 130.5 340t341.5 136q166 0 265.5 -88.5t99.5 -243.5zM389 150q26 0 86 146l3 21l-64 16q-45 0 -45 -109q0 -74 20 -74z" />
    <glyph glyph-name="A" unicode="A" horiz-adv-x="627" 
d="M617 0h-203l-18 107l-1 3l-98 2l-82 -4l-17 -108h-196l196 647h242zM365 256l-44 212h-12l-56 -212l56 -1z" />
    <glyph glyph-name="B" unicode="B" horiz-adv-x="629" 
d="M484 333q63 -18 91.5 -53.5t28.5 -92.5q0 -101 -82.5 -147.5t-246.5 -46.5q-91 0 -215 7l10 190l-10 457l289 1q110 0 172 -42.5t62 -123.5q0 -103 -99 -149zM379 453q0 35 -24.5 48.5t-91.5 13.5h-10l-3 -132l75 -3q54 18 54 73zM313 125q41 0 64.5 18t23.5 52
q0 23 -13.5 37t-43.5 24l-97 -2l-1 -44l3 -81q50 -4 64 -4z" />
    <glyph glyph-name="C" unicode="C" horiz-adv-x="514" 
d="M352 658q86 0 162 -27l-34 -159l-13 -8q-57 31 -123 31q-61 0 -88 -35.5t-27 -118.5q0 -97 31 -141.5t97 -44.5q65 0 123 21l16 -10l-16 -158q-60 -19 -139 -19q-161 0 -242.5 84t-81.5 245q0 162 87.5 251t247.5 89z" />
    <glyph glyph-name="D" unicode="D" horiz-adv-x="665" 
d="M60 647l292 4q143 0 219.5 -77.5t76.5 -223.5q0 -173 -89 -266t-255 -93q-104 0 -244 9l10 190zM342 140q96 0 96 161q0 108 -23 151t-80 43q-38 0 -75 -4l-7 -281l2 -62q60 -8 87 -8z" />
    <glyph glyph-name="E" unicode="E" horiz-adv-x="541" 
d="M517 160l11 -14l-12 -146h-456l10 190l-10 457h464l11 -14l-13 -146l-159 6h-103l-2 -91h99l104 3l11 -14l-12 -146l-116 3h-90l-1 -38l2 -56h96z" />
    <glyph glyph-name="F" unicode="F" horiz-adv-x="481" 
d="M260 493l-3 -116h68l116 3l11 -14l-12 -146l-129 3h-58v-13l8 -210h-201l10 190l-10 457h432l11 -14l-13 -146l-160 6h-70z" />
    <glyph glyph-name="G" unicode="G" horiz-adv-x="596" 
d="M382 658q108 0 187 -30l-43 -177h-16q-94 47 -166 47q-67 0 -92 -36.5t-25 -141.5q0 -107 26 -144t99 -37q14 0 36 4v32l-3 109l183 13l-3 -88v-177q-116 -44 -231 -44q-157 0 -237 83.5t-80 238.5q0 170 94.5 259t270.5 89z" />
    <glyph glyph-name="H" unicode="H" horiz-adv-x="711" 
d="M639 210l8 -210h-201l10 190l-1 50l-108 2l-93 -3l-1 -29l8 -210h-201l10 190l-10 457h204l-6 -245l101 -2l92 2l-5 245h204z" />
    <glyph glyph-name="I" unicode="I" horiz-adv-x="327" 
d="M253 210l8 -210h-201l10 190l-10 457h204z" />
    <glyph glyph-name="J" unicode="J" horiz-adv-x="362" 
d="M293 213l2 -89q0 -94 -49 -146.5t-176 -89.5l-52 103v16q51 25 71.5 52t20.5 71v63l-7 313l-85 -3l-11 13l8 131h289z" />
    <glyph glyph-name="K" unicode="K" horiz-adv-x="628" 
d="M627 647l-190 -306q92 -144 210 -299l-3 -22q-105 -23 -200 -32l-22 12q-102 175 -167 297l-2 -87l8 -210h-201l10 190l-10 457h204l-7 -270l124 200l34 70h212z" />
    <glyph glyph-name="L" unicode="L" horiz-adv-x="452" 
d="M452 150l-12 -150h-385l10 190l-10 457h204l-11 -437l2 -46h191z" />
    <glyph glyph-name="M" unicode="M" horiz-adv-x="806" 
d="M774 0h-176l-5 196l-11 163h-12l-104 -298h-151l-86 298h-12l-14 -144l-10 -215h-167l63 647h231l19 -92l57 -235h12l63 228l23 99h228z" />
    <glyph glyph-name="N" unicode="N" horiz-adv-x="710" 
d="M639 211l8 -211h-218l-182 346h-12l-1 -112l8 -234h-182l10 190l-10 457h218l182 -346h12l-6 339l184 11z" />
    <glyph glyph-name="O" unicode="O" 
d="M341 659q141 0 218 -83.5t77 -235.5q0 -168 -84.5 -260t-239.5 -92q-141 0 -218 84.5t-77 239.5q0 166 84.5 256.5t239.5 90.5zM323 499q-56 0 -76 -32.5t-20 -127.5q0 -121 21 -162t82 -41q57 0 76.5 32.5t19.5 128.5q0 120 -21 161t-82 41z" />
    <glyph glyph-name="P" unicode="P" horiz-adv-x="593" 
d="M60 647l307 1q109 0 167.5 -53.5t58.5 -152.5q0 -116 -80 -187.5t-210 -71.5h-49l7 -183h-201l10 190zM256 327l75 -4q52 29 52 99q0 44 -21 64.5t-66 22.5l-35 -3z" />
    <glyph glyph-name="Q" unicode="Q" horiz-adv-x="661" 
d="M733 -60l8 -18q-39 -77 -96 -127l-14 -7q-172 87 -303 200h-16q-141 0 -218 84.5t-77 239.5q0 166 84.5 256.5t239.5 90.5q141 0 218 -83.5t77 -235.5q0 -213 -133 -301q117 -61 230 -99zM227 339q0 -121 21 -162t82 -41q57 0 76.5 32.5t19.5 128.5q0 120 -21 161t-82 41
q-56 0 -76 -32.5t-20 -127.5z" />
    <glyph glyph-name="R" unicode="R" horiz-adv-x="631" 
d="M486 255q72 -112 144 -208l-3 -22q-102 -31 -201 -37l-19 16q-64 137 -86 189h-67l7 -193h-201l10 190l-10 457l307 1q109 0 168 -51.5t59 -148.5q0 -117 -108 -193zM383 428q0 40 -20.5 59.5t-66.5 21.5l-36 -3l-4 -167l73 -4q54 24 54 93z" />
    <glyph glyph-name="S" unicode="S" horiz-adv-x="528" 
d="M305 659q95 0 188 -35l-32 -163l-28 -12q-91 56 -149 56q-23 0 -36.5 -9t-13.5 -24q0 -20 28 -37.5t67.5 -34t79.5 -38.5t68 -62.5t28 -93.5q0 -93 -75 -155.5t-198 -62.5q-102 0 -214 38l29 174l20 12q46 -35 98.5 -55.5t87.5 -20.5q53 0 53 33q0 21 -27.5 39t-67 34.5
t-79.5 38t-67.5 62t-27.5 94.5q0 96 75 159t193 63z" />
    <glyph glyph-name="T" unicode="T" horiz-adv-x="519" 
d="M513 633l-11 -146l-132 6h-12l-5 -283l8 -210h-200l10 190l-5 303h-13l-133 -6l-12 14l11 146h483z" />
    <glyph glyph-name="U" unicode="U" 
d="M600 319l-1 -103q-1 -110 -74 -169t-209 -59q-131 0 -200.5 59t-66.5 169l3 103l-6 328h201l-9 -404q-1 -51 19.5 -74t66.5 -23q47 0 68 23t20 74l-9 404h204z" />
    <glyph glyph-name="V" unicode="V" horiz-adv-x="615" 
d="M423 0h-242l-177 647h203l18 -107l75 -361h12l92 349l19 119h196z" />
    <glyph glyph-name="W" unicode="W" horiz-adv-x="914" 
d="M723 0h-212l-61 234h-12l-56 -234h-213l-152 647h194l10 -100l63 -346h12l75 295l-34 151h202l14 -120l68 -326h12l79 334l18 112h184z" />
    <glyph glyph-name="X" unicode="X" horiz-adv-x="635" 
d="M447 342l195 -342h-239l-34 79l-58 105l-74 -115l-32 -69h-203l192 311l-198 336h240l35 -81l57 -102l65 113l30 70h209z" />
    <glyph glyph-name="Y" unicode="Y" horiz-adv-x="594" 
d="M382 170l8 -170h-200l10 170l-1 31l-207 446h210l16 -54l73 -195h12l84 188l23 61h204l-230 -439z" />
    <glyph glyph-name="Z" unicode="Z" horiz-adv-x="570" 
d="M538 504l-275 -356h161l123 9l6 -9l-16 -153l-178 5h-230l-101 -6v143l280 362h-157l-120 -10l-7 8l14 153l150 -3h274l76 1v-144z" />
    <glyph glyph-name="bracketleft" unicode="[" horiz-adv-x="302" 
d="M311 640v-86l-94 -15v-552l94 -15v-86l-7 -9l-245 10l11 376l-11 376l245 10z" />
    <glyph glyph-name="backslash" unicode="\" horiz-adv-x="280" 
d="M118 683l208 -786l-11 -15h-135l-208 785l15 16h131z" />
    <glyph glyph-name="bracketright" unicode="]" horiz-adv-x="302" 
d="M-9 -114v86l94 15v552l-94 15v86l7 9l245 -10l-11 -376l11 -376l-245 -10z" />
    <glyph glyph-name="asciicircum" unicode="^" horiz-adv-x="460" 
d="M449 161l-13 -16l-108 -26l-91 251h-9l-92 -252l-13 -7l-111 40l130 340l17 11h156z" />
    <glyph glyph-name="underscore" unicode="_" horiz-adv-x="438" 
d="M453 -104l-9 -107h-447l-12 13l9 107h447z" />
    <glyph glyph-name="grave" unicode="`" horiz-adv-x="388" 
d="M120 754l17 1q99 -85 201 -161l-44 -72l-17 -1q-81 37 -223 109l-3 17z" />
    <glyph glyph-name="a" unicode="a" horiz-adv-x="549" 
d="M346 0l-11 71l-76 2l-60 -3l-11 -70h-181l159 513h224l144 -513h-188zM270 205l39 1l-29 143h-11l-38 -143z" />
    <glyph glyph-name="b" unicode="b" horiz-adv-x="558" 
d="M433 263q96 -29 96 -114q0 -81 -71 -118t-214 -37q-65 0 -191 6l9 149l-9 364h259q96 0 149.5 -34t53.5 -100q0 -77 -82 -116zM323 351q0 24 -17 31t-72 7l-2 -79l54 -3q20 7 28.5 16.5t8.5 27.5zM280 117q58 0 58 40q0 20 -35 35l-74 -2l-1 -22l2 -48q30 -3 50 -3z" />
    <glyph glyph-name="c" unicode="c" horiz-adv-x="447" 
d="M306 522q71 0 135 -16l-31 -147l-12 -8q-45 21 -99 21q-46 0 -65.5 -22t-19.5 -77q0 -69 23.5 -99.5t74.5 -30.5q50 0 97 10l15 -9l-15 -146q-45 -8 -112 -8q-279 0 -279 261q0 129 75 200t213 71z" />
    <glyph glyph-name="d" unicode="d" horiz-adv-x="575" 
d="M53 513l254 3q121 0 185.5 -61.5t64.5 -176.5q0 -138 -76 -212t-218 -74q-72 0 -210 8l9 149zM298 129q32 0 48.5 23t16.5 80q0 81 -15.5 110.5t-56.5 29.5q-21 0 -54 -3l-6 -201l1 -31q48 -8 66 -8z" />
    <glyph glyph-name="e" unicode="e" horiz-adv-x="480" 
d="M451 147l10 -12l-11 -135h-397l9 149l-9 364h404l10 -13l-11 -135l-135 6h-84l-1 -44h80l87 3l10 -13l-11 -135l-98 3h-72l-1 -17l1 -26h79z" />
    <glyph glyph-name="f" unicode="f" horiz-adv-x="425" 
d="M233 371l-2 -66h52l99 3l10 -13l-11 -135l-111 3h-43l8 -163h-186l9 149l-9 364h376l10 -13l-12 -135l-136 6h-54z" />
    <glyph glyph-name="g" unicode="g" horiz-adv-x="514" 
d="M331 522q95 0 158 -20l-40 -163h-14q-79 36 -139 36q-51 0 -67.5 -22t-16.5 -99q0 -79 18.5 -102.5t76.5 -23.5h15v13l-2 91l169 11l-3 -70v-147q-98 -37 -196 -37q-135 0 -203.5 66t-68.5 189q0 136 81 207t232 71z" />
    <glyph glyph-name="h" unicode="h" horiz-adv-x="614" 
d="M552 168l7 -168h-186l9 149l-1 29l-80 2l-70 -2v-10l8 -168h-186l9 149l-9 364h189l-6 -185l75 -2l67 2l-5 185h189z" />
    <glyph glyph-name="i" unicode="i" horiz-adv-x="303" 
d="M231 168l8 -168h-186l9 149l-9 364h189z" />
    <glyph glyph-name="j" unicode="j" horiz-adv-x="346" 
d="M276 168l2 -69q0 -76 -43 -119.5t-154 -78.5l-51 93v14q43 17 59.5 37t16.5 53v52l-5 227l-78 -2l-10 11l11 127h261z" />
    <glyph glyph-name="k" unicode="k" horiz-adv-x="556" 
d="M548 513l-150 -243q75 -115 167 -231l-3 -20q-97 -22 -185 -29l-21 11q-70 124 -123 224l-2 -57l8 -168h-186l9 149l-9 364h189l-7 -206l90 147l28 59h195z" />
    <glyph glyph-name="l" unicode="l" horiz-adv-x="402" 
d="M392 139l-11 -139h-333l9 149l-9 364h189l-11 -345l1 -17h155z" />
    <glyph glyph-name="m" unicode="m" horiz-adv-x="691" 
d="M663 0h-167l-1 155l-6 88h-10l-74 -199h-141l-57 199h-11l-8 -70l-6 -173h-158l51 513h220l13 -72l32 -152h11l37 144l18 80h215z" />
    <glyph glyph-name="n" unicode="n" horiz-adv-x="614" 
d="M552 172l7 -172h-202l-132 236h-10l-1 -46l7 -190h-168l9 150l-9 363h202l132 -236h11l-6 229l170 10z" />
    <glyph glyph-name="o" unicode="o" horiz-adv-x="565" 
d="M295 523q120 0 185.5 -66t65.5 -187q0 -134 -72.5 -207.5t-204.5 -73.5q-120 0 -185.5 67.5t-65.5 189.5q0 132 72.5 204.5t204.5 72.5zM278 376q-41 0 -53.5 -19t-12.5 -86q0 -92 14 -118.5t60 -26.5q42 0 54 18.5t12 85.5q0 92 -13.5 119t-60.5 27z" />
    <glyph glyph-name="p" unicode="p" horiz-adv-x="526" 
d="M53 513h274q93 0 143.5 -43.5t50.5 -123.5q0 -94 -69.5 -152.5t-181.5 -58.5h-37l6 -135h-186l9 149zM234 267l59 -4q33 25 33 65q0 30 -15.5 43t-50.5 15l-22 -2z" />
    <glyph glyph-name="q" unicode="q" horiz-adv-x="572" 
d="M613 -32l7 -16q-43 -74 -85 -114l-13 -2q-131 75 -224 154q-9 -1 -29 -1q-120 0 -185.5 67.5t-65.5 189.5q0 132 72.5 204.5t204.5 72.5q120 0 185.5 -66t65.5 -187q0 -161 -104 -234q75 -35 171 -68zM212 271q0 -92 14 -118.5t60 -26.5q42 0 54 18.5t12 85.5
q0 92 -13.5 119t-60.5 27q-41 0 -53.5 -19t-12.5 -86z" />
    <glyph glyph-name="r" unicode="r" horiz-adv-x="557" 
d="M436 199q72 -102 116 -156l-3 -20q-93 -27 -181 -33l-25 19q-42 91 -61 133h-50l7 -142h-186l9 149l-9 364h274q93 0 144 -41.5t51 -119.5q0 -89 -86 -153zM237 384l-3 -108l55 -4q37 18 37 61q0 27 -15 39t-51 14z" />
    <glyph glyph-name="s" unicode="s" horiz-adv-x="469" 
d="M269 523q81 0 158 -27l-27 -154l-26 -7q-35 23 -72.5 37t-58.5 14t-21 -13q0 -14 22 -25t53.5 -22t63 -27.5t53.5 -49.5t22 -79q0 -75 -57 -128.5t-174 -53.5q-90 0 -181 28l27 161l17 13q39 -31 85 -51t76 -20q24 0 24 16q0 13 -22 24t-53.5 22t-63 28t-53.5 50.5
t-22 80.5q0 80 61 131.5t169 51.5z" />
    <glyph glyph-name="t" unicode="t" horiz-adv-x="457" 
d="M444 500l-10 -135l-113 6h-3l-4 -203l7 -168h-185l9 149l-4 222h-4l-114 -6l-11 13l10 135h412z" />
    <glyph glyph-name="u" unicode="u" horiz-adv-x="566" 
d="M518 253l-1 -84q-1 -87 -64 -133.5t-180 -46.5q-113 0 -172 46.5t-56 133.5l2 83l-5 261h185l-8 -319q-1 -32 13 -45.5t49 -13.5t49.5 13.5t13.5 45.5l-8 319h188z" />
    <glyph glyph-name="v" unicode="v" horiz-adv-x="540" 
d="M377 0h-225l-143 513h187l16 -95l51 -255h11l65 244l16 106h181z" />
    <glyph glyph-name="w" unicode="w" horiz-adv-x="780" 
d="M625 0h-201l-39 150h-11l-34 -150h-201l-118 513h183l8 -89l36 -236h11l51 209l-25 116h191l12 -109l41 -216h11l49 225l16 100h173z" />
    <glyph glyph-name="x" unicode="x" horiz-adv-x="555" 
d="M398 272l160 -272h-221l-29 69l-36 57l-51 -67l-28 -59h-187l158 243l-165 270h222l30 -71l37 -58l44 69l26 60h192z" />
    <glyph glyph-name="y" unicode="y" horiz-adv-x="525" 
d="M340 131l8 -131h-185l9 131l-1 17l-174 365h194l14 -47l52 -133h10l61 126l20 54h189l-196 -360z" />
    <glyph glyph-name="z" unicode="z" horiz-adv-x="499" 
d="M466 381l-217 -245h117l108 8l5 -7l-14 -142l-160 5h-185l-90 -5v131l221 250h-114l-107 -9l-6 7l13 141l134 -2h295v-132z" />
    <glyph glyph-name="braceleft" unicode="{" horiz-adv-x="302" 
d="M218 659q41 0 80 -12l7 -13l-15 -96q-18 5 -33 5q-46 0 -46 -48q0 -17 13 -54.5t13 -56.5q0 -70 -70 -103v-7q34 -16 52 -43t18 -58q0 -21 -13 -58.5t-13 -54.5q0 -48 46 -48q15 0 33 5l15 -96l-7 -13q-39 -12 -80 -12q-77 0 -118 32.5t-41 91.5q0 31 11 79t11 65
q0 47 -55 70v87q55 23 55 70q0 17 -11 65t-11 79q0 59 41 91.5t118 32.5z" />
    <glyph glyph-name="bar" unicode="|" horiz-adv-x="300" 
d="M226 797l-5 -503l1 -539l-132 -11l-15 16l1 519l1 520l135 11z" />
    <glyph glyph-name="braceright" unicode="}" horiz-adv-x="302" 
d="M84 -104q-41 0 -80 12l-7 13l15 96q18 -5 33 -5q46 0 46 48q0 17 -13 54.5t-13 56.5q0 70 70 103v7q-34 16 -52 43t-18 58q0 21 13 58.5t13 54.5q0 48 -46 48q-15 0 -33 -5l-15 96l7 13q39 12 80 12q77 0 118 -32.5t41 -91.5q0 -31 -11 -79t-11 -65q0 -47 55 -70v-87
q-55 -23 -55 -70q0 -17 11 -65t11 -79q0 -59 -41 -91.5t-118 -32.5z" />
    <glyph glyph-name="asciitilde" unicode="~" horiz-adv-x="480" 
d="M151 212q-6 0 -11.5 -1.5t-11.5 -5.5t-10 -7t-11.5 -10.5t-10.5 -11t-12 -13t-11 -12.5h-16l-51 63v16l92 115l16 7q27 -5 113 -31t104 -26q5 0 10.5 1.5t11.5 5.5t10 7t11 10t10.5 11t12 13t11.5 13h16l50 -63v-16l-91 -115l-16 -6q-29 4 -114 30t-102 26z" />
    <glyph glyph-name="nbspace" unicode="&#xa0;" horiz-adv-x="135" 
 />
    <glyph glyph-name="exclamdown" unicode="&#xa1;" horiz-adv-x="274" 
d="M156 285q-44 0 -68.5 25t-24.5 70q0 48 27 76t74 28q46 0 70 -24.5t24 -70.5q0 -48 -27.5 -76t-74.5 -28zM37 -174l52 390l109 16l19 -18l17 -378l-17 -22l-157 -11z" />
    <glyph glyph-name="cent" unicode="&#xa2;" horiz-adv-x="382" 
d="M273 179q31 0 85 15l13 -11l-20 -143q-36 -8 -55 -10l-8 -159h-135l-14 15l8 153q-133 45 -133 228q0 96 40.5 158.5t115.5 85.5l7 151h131l19 -16l-7 -128q38 -8 62 -19l-31 -148l-14 -7q-52 21 -76 21q-61 0 -61 -77q0 -57 17.5 -83t55.5 -26z" />
    <glyph glyph-name="sterling" unicode="&#xa3;" horiz-adv-x="481" 
d="M461 127l-13 -132l-157 5h-274l-6 9l8 108q40 10 56.5 31.5t16.5 59.5v41h-75l-6 9l8 95h71v39q-1 99 64 152t184 53q60 0 122 -13l-11 -135l-12 -8q-72 32 -117 32q-58 0 -58 -50l-1 -70h127l5 -9l-7 -95h-127v-32q0 -33 -8 -51t-28 -34v-5h122l111 8z" />
    <glyph glyph-name="currency" unicode="&#xa4;" horiz-adv-x="434" 
d="M458 490v-16l-72 -61q17 -36 17 -74q0 -33 -13 -65l72 -55l3 -17l-84 -89h-16l-59 71q-34 -18 -76 -18q-34 0 -67 14l-54 -70l-17 -3l-89 84l1 16l70 59q-17 34 -17 73q0 35 14 68l-70 55l-3 17l84 89l16 -1l60 -71q35 16 72 16q32 0 65 -13l57 72l17 3zM230 411
q-34 0 -53 -19t-19 -53t19 -53t53 -19t53 19t19 53t-19 53t-53 19z" />
    <glyph glyph-name="yen" unicode="&#xa5;" horiz-adv-x="579" 
d="M417 240l-32 -55h162l8 -7l-6 -79h-183l5 -99h-170l6 99h-166l-6 9l5 77h148l-27 55h-120l-6 9l5 77h77l-94 185h178l15 -45l71 -144h10l81 138l20 51h174l-106 -185h81l8 -7l-6 -79h-132z" />
    <glyph glyph-name="brokenbar" unicode="&#xa6;" horiz-adv-x="300" 
d="M226 797l-4 -415l-133 -17l-13 11l1 423l135 11zM221 145l1 -390l-132 -11l-15 16l1 386l130 15z" />
    <glyph glyph-name="section" unicode="&#xa7;" horiz-adv-x="445" 
d="M343 175q57 -38 57 -100q0 -70 -61 -120t-154 -50q-87 0 -171 27l24 145l16 11q38 -29 79.5 -46t71.5 -17t30 16q0 12 -23 21.5t-55.5 20.5t-65 26.5t-55.5 47t-23 74.5q0 46 24.5 87t67.5 68q-54 38 -54 99q0 72 62 123t155 51q77 0 144 -25l-23 -138l-22 -8
q-75 47 -124 47q-28 0 -28 -17q0 -12 23 -22t55.5 -20.5t65.5 -26t56 -46.5t23 -73q0 -46 -25.5 -87.5t-69.5 -67.5zM214 336q-37 -22 -37 -53q0 -33 58 -58q38 20 38 52q0 33 -59 59z" />
    <glyph glyph-name="dieresis" unicode="&#xa8;" horiz-adv-x="388" 
d="M102 717q38 0 59.5 -21.5t21.5 -60.5q0 -42 -23.5 -66.5t-64.5 -24.5q-40 0 -61 21.5t-21 61.5q0 42 24 66t65 24zM295 717q38 0 59.5 -21.5t21.5 -60.5q0 -42 -23.5 -66.5t-64.5 -24.5q-40 0 -61 21.5t-21 61.5q0 42 24 66t65 24z" />
    <glyph glyph-name="copyright" unicode="&#xa9;" horiz-adv-x="689" 
d="M344 598q137 0 221 -84t84 -221t-84 -221t-221 -84t-220.5 84t-83.5 221t83.5 221t220.5 84zM344 537q-108 0 -175 -67.5t-67 -176.5t67 -176.5t175 -67.5q109 0 176 67.5t67 176.5t-67 176.5t-176 67.5zM374 464q37 0 84 -9l-22 -100l-7 -5q-27 11 -60 11q-26 0 -36 -11
t-10 -43q0 -40 12.5 -57.5t42.5 -17.5q24 0 58 4l10 -6l-10 -99q-12 -2 -68 -2q-179 0 -179 163q0 81 48.5 126.5t136.5 45.5z" />
    <glyph glyph-name="ordfeminine" unicode="&#xaa;" horiz-adv-x="364" 
d="M187 655q66 0 101 -26t35 -74q0 -12 -2.5 -65t-2.5 -61q0 -16 9 -16q8 0 12 2l9 -8l-13 -71q-27 -20 -59 -20q-30 0 -44.5 10.5t-23.5 37.5h-5q-29 -34 -70 -49q-54 0 -86 29t-32 79q0 77 81 89l99 12l1 5q0 17 -7.5 24t-24.5 7q-40 0 -103 -32l-8 5l-15 89q69 33 149 33
zM195 463l-37 -4q-19 -5 -19 -23q0 -27 25 -27q16 0 31 9v45z" />
    <glyph glyph-name="guillemetleft" unicode="&#xab;" horiz-adv-x="466" 
d="M17 214v27l125 184l91 -47l4 -17l-80 -131l80 -130l-4 -17l-91 -47zM223 214v27l125 184l91 -47l4 -17l-80 -131l80 -130l-4 -17l-91 -47z" />
    <glyph glyph-name="logicalnot" unicode="&#xac;" horiz-adv-x="480" 
d="M440 311v-273l-117 -9l-13 12v149h-283l-12 13l9 117h410z" />
    <glyph glyph-name="softhyphen" unicode="&#xad;" horiz-adv-x="299" 
d="M273 326l1 -120l-235 -38l-14 14v120l234 38z" />
    <glyph glyph-name="registered" unicode="&#xae;" horiz-adv-x="454" 
d="M227 703q86 0 139 -53t53 -139t-53 -139t-139 -53t-139 53t-53 139t53 139t139 53zM227 361q67 0 108.5 41.5t41.5 108.5t-41.5 108.5t-108.5 41.5t-108.5 -41.5t-41.5 -108.5t41.5 -108.5t108.5 -41.5zM320 553q0 -36 -36 -58q25 -35 48 -62l-1 -7q-19 -7 -62 -11l-8 5
q-17 30 -29 56h-25l3 -57h-64l3 56l-3 140l100 1q35 0 54.5 -16.5t19.5 -46.5zM253 548q0 21 -30 22l-14 -1l-1 -48l27 -2q18 11 18 29z" />
    <glyph glyph-name="macron" unicode="&#xaf;" horiz-adv-x="388" 
d="M343 678l-9 -107h-276l-12 13l9 107h276z" />
    <glyph glyph-name="degree" unicode="&#xb0;" horiz-adv-x="292" 
d="M146 659q56 0 95.5 -39.5t39.5 -95.5t-39.5 -95.5t-95.5 -39.5t-95.5 39.5t-39.5 95.5t39.5 95.5t95.5 39.5zM146 580q-25 0 -40.5 -15.5t-15.5 -40.5q0 -26 15 -41t41 -15q25 0 40.5 15.5t15.5 40.5t-15.5 40.5t-40.5 15.5z" />
    <glyph glyph-name="plusminus" unicode="&#xb1;" horiz-adv-x="480" 
d="M306 469v-149h148l12 -13l-9 -117h-151v-152l-117 -9l-13 12v149h-149l-12 13l9 117h152v152l117 9zM466 -28l-9 -117h-430l-12 13l9 117h430z" />
    <glyph glyph-name="twosuperior" unicode="&#xb2;" horiz-adv-x="375" 
d="M192 707q59 0 97.5 -27t38.5 -76q0 -56 -77 -145l-35 -40l2 -3h56l72 7l7 -9l-16 -113l-108 6h-170l-26 -2l-7 5v84l90 89q24 24 34.5 35t20 26t9.5 25q0 20 -26 20q-43 0 -91 -40h-16l-25 108q92 50 170 50z" />
    <glyph glyph-name="threesuperior" unicode="&#xb3;" horiz-adv-x="337" 
d="M161 708q67 0 107.5 -28t40.5 -73q0 -58 -61 -91v-4q68 -22 68 -90q0 -56 -55.5 -89.5t-146.5 -33.5q-44 0 -86 8l-9 102l10 9q46 -14 88 -14q57 0 57 24q0 17 -28 17h-62l-7 8l2 95l33 2q47 2 47 28q0 18 -31 18q-26 0 -78 -19h-15l-23 95q70 36 149 36z" />
    <glyph glyph-name="acute" unicode="&#xb4;" horiz-adv-x="388" 
d="M269 754l69 -107l-3 -17q-142 -72 -223 -109l-17 1l-44 72q102 76 201 161z" />
    <glyph glyph-name="micro" unicode="&#xb5;" horiz-adv-x="535" 
d="M525 121l-19 -101q-40 -29 -87 -29q-40 0 -65 18t-42 59h-7q-41 -56 -82 -73v-180h-184l6 375l-7 271l185 13v-271q0 -55 41 -55q23 0 43 15v298l185 13l-11 -323q0 -23 16 -23q5 0 16 3z" />
    <glyph glyph-name="paragraph" unicode="&#xb6;" horiz-adv-x="564" 
d="M556 634l-12 -135h-60l-7 -286l2 -69q0 -89 -50.5 -143t-180.5 -96l-50 89v16q53 26 74.5 54t21.5 73v56l-7 307h-31q-36 -17 -36 -88q0 -65 47 -125l-69 -97q-91 25 -139.5 84t-48.5 144q0 110 71 169.5t203 59.5h261z" />
    <glyph glyph-name="periodcentered" unicode="&#xb7;" horiz-adv-x="228" 
d="M118 360q44 0 68.5 -25t24.5 -70q0 -48 -27 -76t-74 -28q-46 0 -70 24.5t-24 70.5q0 48 27.5 76t74.5 28z" />
    <glyph glyph-name="cedilla" unicode="&#xb8;" horiz-adv-x="388" 
d="M222 -43l34 -19q44 -23 44 -63q0 -37 -29.5 -60.5t-80.5 -23.5q-49 0 -92 24l11 75l8 3q33 -28 60 -28q16 0 16 14q0 9 -12 15l-50 27l22 112h83z" />
    <glyph glyph-name="onesuperior" unicode="&#xb9;" horiz-adv-x="296" 
d="M238 692l-7 -244l6 -141h-150l6 127v113l-80 -12l-9 6v113l213 52z" />
    <glyph glyph-name="ordmasculine" unicode="&#xba;" horiz-adv-x="356" 
d="M185 655q157 0 157 -163q0 -178 -171 -178q-157 0 -157 163q0 178 171 178zM176 562q-20 0 -26 -13t-6 -55q0 -56 7 -73.5t29 -17.5q20 0 26.5 14t6.5 58q0 53 -7 70t-30 17z" />
    <glyph glyph-name="guillemetright" unicode="&#xbb;" horiz-adv-x="466" 
d="M237 250v-27l-125 -184l-91 47l-4 17l80 131l-80 130l4 17l91 47zM443 250v-27l-125 -184l-91 47l-4 17l80 131l-80 130l4 17l91 47z" />
    <glyph glyph-name="onequarter" unicode="&#xbc;" horiz-adv-x="798" 
d="M633 623l-462 -717l-82 50l-6 17l464 721l76 -47zM93 494l-80 -12l-9 6v113l213 52l21 -14l-7 -244l6 -141h-150l6 127v113zM774 69l-46 1l5 -61l-8 -9l-115 -6l-8 8l3 70h-87l-83 -3l-9 11v88l166 225h136l-3 -215h47l8 -12zM550 178h58l-1 64h-8z" />
    <glyph glyph-name="onehalf" unicode="&#xbd;" horiz-adv-x="838" 
d="M623 647l10 -24l-462 -717l-82 50l-6 17l464 721zM238 639l-7 -244l6 -141h-150l6 127v113l-80 -12l-9 6v113l213 52zM655 400q59 0 97.5 -27t38.5 -76q0 -56 -77 -145l-35 -40l2 -3h56l72 7l7 -9l-16 -113l-108 6h-170l-26 -2l-7 5v84l90 89q24 24 34.5 35t20 26t9.5 25
q0 20 -26 20q-43 0 -91 -40h-16l-25 108q92 50 170 50z" />
    <glyph glyph-name="threequarters" unicode="&#xbe;" horiz-adv-x="839" 
d="M674 623l-462 -717l-82 50l-6 17l464 721l76 -47zM316 369q0 -56 -55.5 -89.5t-146.5 -33.5q-44 0 -86 8l-9 102l10 9q46 -14 88 -14q57 0 57 24q0 17 -28 17h-62l-7 8l2 95l33 2q47 2 47 28q0 18 -31 18q-26 0 -78 -19h-15l-23 95q70 36 149 36q67 0 107.5 -28t40.5 -73
q0 -58 -61 -91v-4q68 -22 68 -90zM815 69l-46 1l5 -61l-8 -9l-115 -6l-8 8l3 70h-87l-83 -3l-9 11v88l166 225h136l-3 -215h47l8 -12zM591 178h58l-1 64h-8z" />
    <glyph glyph-name="questiondown" unicode="&#xbf;" horiz-adv-x="351" 
d="M185 285q-44 0 -68.5 25t-24.5 70q0 48 27 76t74 28q46 0 70 -24.5t24 -70.5q0 -48 -27.5 -76t-74.5 -28zM290 -193l-17 -9q-145 6 -223 49t-78 118q0 90 99 143l58 30l3 6l-7 71l136 20l13 -12l13 -126l-6 -11l-84 -33q-48 -20 -48 -58q0 -28 35 -42t127 -20l14 -18z
" />
    <glyph glyph-name="Agrave" unicode="&#xc0;" horiz-adv-x="627" 
d="M434 716l-17 -4q-106 27 -238 69l-6 16l49 117l17 4q107 -63 225 -123zM617 0h-203l-18 107l-1 3l-98 2l-82 -4l-17 -108h-196l196 647h242zM365 256l-44 212h-12l-56 -212l56 -1z" />
    <glyph glyph-name="Aacute" unicode="&#xc1;" horiz-adv-x="627" 
d="M216 716l-30 79q118 60 225 123l17 -4l49 -117l-6 -16q-132 -42 -238 -69zM617 0h-203l-18 107l-1 3l-98 2l-82 -4l-17 -108h-196l196 647h242zM365 256l-44 212h-12l-56 -212l56 -1z" />
    <glyph glyph-name="Acircumflex" unicode="&#xc2;" horiz-adv-x="627" 
d="M179 721l-34 76q90 62 153 119h34q63 -57 153 -119l-34 -76h-18l-118 60q-19 -10 -59 -30t-59 -30h-18zM617 0h-203l-18 107l-1 3l-98 2l-82 -4l-17 -108h-196l196 647h242zM365 256l-44 212h-12l-56 -212l56 -1z" />
    <glyph glyph-name="Atilde" unicode="&#xc3;" horiz-adv-x="627" 
d="M175 702l-57 55v16l81 113l16 6q26 -3 83 -18.5t70 -15.5q4 0 8 1t8.5 3t8 4t8 6.5l7 7t7.5 8.5t7 9t7.5 9.5t7.5 9.5h16l57 -55v-16l-81 -113l-16 -6q-26 3 -83 18.5t-70 15.5q-4 0 -8 -1t-8.5 -3t-8 -4t-8 -6.5l-7 -7t-7.5 -8.5t-7 -9t-7.5 -9.5t-7.5 -9.5h-16zM617 0
h-203l-18 107l-1 3l-98 2l-82 -4l-17 -108h-196l196 647h242zM365 256l-44 212h-12l-56 -212l56 -1z" />
    <glyph glyph-name="Adieresis" unicode="&#xc4;" horiz-adv-x="627" 
d="M216 719q-40 0 -61 21.5t-21 61.5q0 42 24 66t65 24q38 0 59.5 -21.5t21.5 -60.5q0 -42 -23.5 -66.5t-64.5 -24.5zM409 719q-40 0 -61 21.5t-21 61.5q0 42 24 66t65 24q38 0 59.5 -21.5t21.5 -60.5q0 -42 -23.5 -66.5t-64.5 -24.5zM617 0h-203l-18 107l-1 3l-98 2l-82 -4
l-17 -108h-196l196 647h242zM365 256l-44 212h-12l-56 -212l56 -1z" />
    <glyph glyph-name="Aring" unicode="&#xc5;" horiz-adv-x="627" 
d="M311 713q-106 0 -106 107q0 111 114 111q106 0 106 -104q0 -55 -29 -84.5t-85 -29.5zM314 853q-19 0 -26.5 -6.5t-7.5 -23.5q0 -19 8 -26.5t28 -7.5q19 0 26.5 7t7.5 24q0 18 -8 25.5t-28 7.5zM617 0h-203l-18 107l-1 3l-98 2l-82 -4l-17 -108h-196l196 647h242zM365 256
l-44 212h-12l-56 -212l56 -1z" />
    <glyph glyph-name="AE" unicode="&#xc6;" horiz-adv-x="840" 
d="M840 146l-12 -146h-436l-5 107l-5 66l-171 -52l-1 -2l-34 -119h-196l276 647h520l11 -14l-13 -146l-149 6h-76l8 -114l169 54l14 -11l18 -138l-190 -55l5 -75h91l165 6zM370 322l-13 146h-12l-67 -174z" />
    <glyph glyph-name="Ccedilla" unicode="&#xc7;" horiz-adv-x="514" 
d="M357 155q65 0 123 21l16 -10l-16 -158q-54 -17 -123 -19l-6 -31l34 -19q44 -23 44 -63q0 -37 -29.5 -60.5t-80.5 -23.5q-49 0 -92 24l11 75l8 3q33 -28 60 -28q16 0 16 14q0 9 -12 15l-50 27l14 71q-257 33 -257 325q0 162 87.5 251t247.5 89q86 0 162 -27l-34 -159
l-13 -8q-57 31 -123 31q-61 0 -88 -35.5t-27 -118.5q0 -97 31 -141.5t97 -44.5z" />
    <glyph glyph-name="Egrave" unicode="&#xc8;" horiz-adv-x="541" 
d="M411 716l-17 -4q-106 27 -238 69l-6 16l49 117l17 4q107 -63 225 -123zM517 160l11 -14l-12 -146h-456l10 190l-10 457h464l11 -14l-13 -146l-159 6h-103l-2 -91h99l104 3l11 -14l-12 -146l-116 3h-90l-1 -38l2 -56h96z" />
    <glyph glyph-name="Eacute" unicode="&#xc9;" horiz-adv-x="541" 
d="M193 716l-30 79q118 60 225 123l17 -4l49 -117l-6 -16q-132 -42 -238 -69zM517 160l11 -14l-12 -146h-456l10 190l-10 457h464l11 -14l-13 -146l-159 6h-103l-2 -91h99l104 3l11 -14l-12 -146l-116 3h-90l-1 -38l2 -56h96z" />
    <glyph glyph-name="Ecircumflex" unicode="&#xca;" horiz-adv-x="541" 
d="M156 721l-34 76q90 62 153 119h34q63 -57 153 -119l-34 -76h-18l-118 60q-20 -10 -59 -30t-59 -30h-18zM517 160l11 -14l-12 -146h-456l10 190l-10 457h464l11 -14l-13 -146l-159 6h-103l-2 -91h99l104 3l11 -14l-12 -146l-116 3h-90l-1 -38l2 -56h96z" />
    <glyph glyph-name="Edieresis" unicode="&#xcb;" horiz-adv-x="541" 
d="M193 719q-40 0 -61 21.5t-21 61.5q0 42 24 66t65 24q38 0 59.5 -21.5t21.5 -60.5q0 -42 -23.5 -66.5t-64.5 -24.5zM386 719q-40 0 -61 21.5t-21 61.5q0 42 24 66t65 24q38 0 59.5 -21.5t21.5 -60.5q0 -42 -23.5 -66.5t-64.5 -24.5zM517 160l11 -14l-12 -146h-456l10 190
l-10 457h464l11 -14l-13 -146l-159 6h-103l-2 -91h99l104 3l11 -14l-12 -146l-116 3h-90l-1 -38l2 -56h96z" />
    <glyph glyph-name="Igrave" unicode="&#xcc;" horiz-adv-x="327" 
d="M68 914l17 4q107 -63 225 -123l-30 -79l-17 -4q-106 27 -238 69l-6 16zM253 210l8 -210h-201l10 190l-10 457h204z" />
    <glyph glyph-name="Iacute" unicode="&#xcd;" horiz-adv-x="327" 
d="M275 914l49 -117l-6 -16q-132 -42 -238 -69l-17 4l-30 79q118 60 225 123zM253 210l8 -210h-201l10 190l-10 457h204z" />
    <glyph glyph-name="Icircumflex" unicode="&#xce;" horiz-adv-x="327" 
d="M26 721l-34 76q90 62 153 119h34q63 -57 153 -119l-34 -76h-18l-118 60q-19 -10 -59 -30t-59 -30h-18zM253 210l8 -210h-201l10 190l-10 457h204z" />
    <glyph glyph-name="Eth" unicode="&#xd0;" horiz-adv-x="695" 
d="M90 647l292 4q143 0 219.5 -77.5t76.5 -223.5q0 -173 -89 -266t-255 -93q-104 0 -244 9l10 190l-1 60h-71l-9 13l7 117h70zM372 140q96 0 96 161q0 108 -23 151t-80 43q-38 0 -75 -4l-3 -111h84l9 -13l-7 -117h-89l-1 -40l2 -62q60 -8 87 -8z" />
    <glyph glyph-name="Ntilde" unicode="&#xd1;" horiz-adv-x="710" 
d="M550 861v-16l-81 -113l-16 -6q-26 3 -83 18.5t-70 15.5q-4 0 -8 -1t-8.5 -3t-8 -4t-8 -6.5l-7 -7t-7.5 -8.5t-7 -9t-7.5 -9.5t-7.5 -9.5h-16l-57 55v16l81 113l16 6q26 -3 83 -18.5t70 -15.5q4 0 8 1t8.5 3t8 4t8 6.5l7 7t7.5 8.5t7 9t7.5 9.5t7.5 9.5h16zM639 211
l8 -211h-218l-182 346h-12l-1 -112l8 -234h-182l10 190l-10 457h218l182 -346h12l-6 339l184 11z" />
    <glyph glyph-name="Ograve" unicode="&#xd2;" 
d="M234 914l17 4q107 -63 225 -123l-30 -79l-17 -4q-106 27 -238 69l-6 16zM341 659q141 0 218 -83.5t77 -235.5q0 -168 -84.5 -260t-239.5 -92q-141 0 -218 84.5t-77 239.5q0 166 84.5 256.5t239.5 90.5zM323 499q-56 0 -76 -32.5t-20 -127.5q0 -121 21 -162t82 -41
q57 0 76.5 32.5t19.5 128.5q0 120 -21 161t-82 41z" />
    <glyph glyph-name="Oacute" unicode="&#xd3;" 
d="M440 914l49 -117l-6 -16q-132 -42 -238 -69l-17 4l-30 79q118 60 225 123zM341 659q141 0 218 -83.5t77 -235.5q0 -168 -84.5 -260t-239.5 -92q-141 0 -218 84.5t-77 239.5q0 166 84.5 256.5t239.5 90.5zM323 499q-56 0 -76 -32.5t-20 -127.5q0 -121 21 -162t82 -41
q57 0 76.5 32.5t19.5 128.5q0 120 -21 161t-82 41z" />
    <glyph glyph-name="Ocircumflex" unicode="&#xd4;" 
d="M191 721l-34 76q90 62 153 119h34q63 -57 153 -119l-34 -76h-18l-118 60q-20 -10 -59 -30t-59 -30h-18zM341 659q141 0 218 -83.5t77 -235.5q0 -168 -84.5 -260t-239.5 -92q-141 0 -218 84.5t-77 239.5q0 166 84.5 256.5t239.5 90.5zM323 499q-56 0 -76 -32.5t-20 -127.5
q0 -121 21 -162t82 -41q57 0 76.5 32.5t19.5 128.5q0 120 -21 161t-82 41z" />
    <glyph glyph-name="Otilde" unicode="&#xd5;" 
d="M522 861v-16l-81 -113l-16 -6q-26 3 -83 18.5t-70 15.5q-4 0 -8 -1t-8.5 -3t-8 -4t-8 -6.5l-7 -7t-7.5 -8.5t-7 -9t-7.5 -9.5t-7.5 -9.5h-16l-57 55v16l81 113l16 6q26 -3 83 -18.5t70 -15.5q4 0 8 1t8.5 3t8 4t8 6.5l7 7t7.5 8.5t7 9t7.5 9.5t7.5 9.5h16zM341 659
q141 0 218 -83.5t77 -235.5q0 -168 -84.5 -260t-239.5 -92q-141 0 -218 84.5t-77 239.5q0 166 84.5 256.5t239.5 90.5zM323 499q-56 0 -76 -32.5t-20 -127.5q0 -121 21 -162t82 -41q57 0 76.5 32.5t19.5 128.5q0 120 -21 161t-82 41z" />
    <glyph glyph-name="multiply" unicode="&#xd7;" horiz-adv-x="480" 
d="M437 378l1 -18l-105 -105l104 -105v-18l-89 -76l-107 107l-108 -108l-89 77v17l105 106l-105 105v18l89 76l108 -107l107 107z" />
    <glyph glyph-name="Oslash" unicode="&#xd8;" 
d="M607 714l-62 -124q91 -85 91 -250q0 -168 -84.5 -260t-239.5 -92q-29 0 -61 5l-64 -132l-124 47l-8 17l62 126q-100 85 -100 261q0 166 84.5 256.5t239.5 90.5q37 0 72 -6l62 126l120 -46zM330 136q57 0 76.5 32.5t19.5 128.5q0 120 -21 161t-82 41q-56 0 -76 -32.5
t-20 -127.5q0 -121 21 -162t82 -41z" />
    <glyph glyph-name="Ugrave" unicode="&#xd9;" 
d="M234 914l17 4q107 -63 225 -123l-30 -79l-17 -4q-106 27 -238 69l-6 16zM600 319l-1 -103q-1 -110 -74 -169t-209 -59q-131 0 -200.5 59t-66.5 169l3 103l-6 328h201l-9 -404q-1 -51 19.5 -74t66.5 -23q47 0 68 23t20 74l-9 404h204z" />
    <glyph glyph-name="Uacute" unicode="&#xda;" 
d="M440 914l49 -117l-6 -16q-132 -42 -238 -69l-17 4l-30 79q118 60 225 123zM600 319l-1 -103q-1 -110 -74 -169t-209 -59q-131 0 -200.5 59t-66.5 169l3 103l-6 328h201l-9 -404q-1 -51 19.5 -74t66.5 -23q47 0 68 23t20 74l-9 404h204z" />
    <glyph glyph-name="Ucircumflex" unicode="&#xdb;" 
d="M191 721l-34 76q90 62 153 119h34q63 -57 153 -119l-34 -76h-18l-118 60q-20 -10 -59 -30t-59 -30h-18zM600 319l-1 -103q-1 -110 -74 -169t-209 -59q-131 0 -200.5 59t-66.5 169l3 103l-6 328h201l-9 -404q-1 -51 19.5 -74t66.5 -23q47 0 68 23t20 74l-9 404h204z" />
    <glyph glyph-name="Udieresis" unicode="&#xdc;" 
d="M235 892q38 0 59.5 -21.5t21.5 -60.5q0 -42 -23.5 -66.5t-64.5 -24.5q-40 0 -61 21.5t-21 61.5q0 42 24 66t65 24zM428 892q38 0 59.5 -21.5t21.5 -60.5q0 -42 -23.5 -66.5t-64.5 -24.5q-40 0 -61 21.5t-21 61.5q0 42 24 66t65 24zM600 319l-1 -103q-1 -110 -74 -169
t-209 -59q-131 0 -200.5 59t-66.5 169l3 103l-6 328h201l-9 -404q-1 -51 19.5 -74t66.5 -23q47 0 68 23t20 74l-9 404h204z" />
    <glyph glyph-name="Thorn" unicode="&#xde;" horiz-adv-x="602" 
d="M264 558h109q112 0 170.5 -52t58.5 -156q0 -119 -76.5 -184.5t-217.5 -65.5l-49 -1l4 -99h-203l10 190l-8 364l-2 3h2l-2 90h206zM256 244l80 -4q27 15 40 36t13 58q0 44 -20.5 63t-67.5 21l-41 -3z" />
    <glyph glyph-name="germandbls" unicode="&#xdf;" horiz-adv-x="623" 
d="M316 523q113 0 251 -60l7 -20l-97 -134q85 -58 111.5 -88t26.5 -74q0 -81 -59.5 -119.5t-149.5 -38.5q-83 0 -160 29l27 161l14 9q64 -53 106 -53q20 0 20 14q0 4 -2 8t-7.5 8.5t-12.5 9t-20 12t-25.5 14.5t-34.5 19t-42 24l-3 17l81 112q-28 5 -49 5q-42 0 -58 -13.5
t-15 -49.5l-5 -147l8 -168h-186l9 150l-4 165q0 97 68 152.5t201 55.5z" />
    <glyph glyph-name="agrave" unicode="&#xe0;" horiz-adv-x="549" 
d="M382 563l-17 -1q-81 37 -223 109l-3 17l69 107l17 1q99 -85 201 -161zM346 0l-11 71l-76 2l-60 -3l-11 -70h-181l159 513h224l144 -513h-188zM270 205l39 1l-29 143h-11l-38 -143z" />
    <glyph glyph-name="aacute" unicode="&#xe1;" horiz-adv-x="549" 
d="M202 563l-44 72q102 76 201 161l17 -1l69 -107l-3 -17q-142 -72 -223 -109zM346 0l-11 71l-76 2l-60 -3l-11 -70h-181l159 513h224l144 -513h-188zM270 205l39 1l-29 143h-11l-38 -143z" />
    <glyph glyph-name="acircumflex" unicode="&#xe2;" horiz-adv-x="549" 
d="M149 571l-47 72q69 58 163 150h34q70 -70 163 -150l-47 -72h-18q-76 48 -115 78q-39 -30 -115 -78h-18zM346 0l-11 71l-76 2l-60 -3l-11 -70h-181l159 513h224l144 -513h-188zM270 205l39 1l-29 143h-11l-38 -143z" />
    <glyph glyph-name="atilde" unicode="&#xe3;" horiz-adv-x="549" 
d="M142 568l-57 55v16l81 113l16 6q26 -3 83 -18.5t70 -15.5q4 0 8 1t8.5 3t8 4t8 6.5l7 7t7.5 8.5t7 9t7.5 9.5t7.5 9.5h16l57 -55v-16l-81 -113l-16 -6q-26 3 -83 18.5t-70 15.5q-4 0 -8 -1t-8.5 -3t-8 -4t-8 -6.5l-7 -7t-7.5 -8.5t-7 -9t-7.5 -9.5t-7.5 -9.5h-16zM346 0
l-11 71l-76 2l-60 -3l-11 -70h-181l159 513h224l144 -513h-188zM270 205l39 1l-29 143h-11l-38 -143z" />
    <glyph glyph-name="adieresis" unicode="&#xe4;" horiz-adv-x="549" 
d="M183 585q-40 0 -61 21.5t-21 61.5q0 42 24 66t65 24q38 0 59.5 -21.5t21.5 -60.5q0 -42 -23.5 -66.5t-64.5 -24.5zM376 585q-40 0 -61 21.5t-21 61.5q0 42 24 66t65 24q38 0 59.5 -21.5t21.5 -60.5q0 -42 -23.5 -66.5t-64.5 -24.5zM346 0l-11 71l-76 2l-60 -3l-11 -70
h-181l159 513h224l144 -513h-188zM270 205l39 1l-29 143h-11l-38 -143z" />
    <glyph glyph-name="aring" unicode="&#xe5;" horiz-adv-x="549" 
d="M278 579q-106 0 -106 107q0 111 114 111q106 0 106 -104q0 -55 -29 -84.5t-85 -29.5zM281 719q-19 0 -26.5 -6.5t-7.5 -23.5q0 -19 8 -26.5t28 -7.5q19 0 26.5 7t7.5 24q0 18 -8 25.5t-28 7.5zM346 0l-11 71l-76 2l-60 -3l-11 -70h-181l159 513h224l144 -513h-188z
M270 205l39 1l-29 143h-11l-38 -143z" />
    <glyph glyph-name="ae" unicode="&#xe6;" horiz-adv-x="724" 
d="M723 122l-11 -122h-370l-4 88l-4 44l-156 -46l-24 -86h-165l238 512h440l10 -13l-11 -122l-129 6h-64l7 -81l146 44l11 -10l15 -115l-162 -44l4 -48h78l141 5zM323 256l-11 106h-11l-58 -130z" />
    <glyph glyph-name="ccedilla" unicode="&#xe7;" horiz-adv-x="447" 
d="M312 143q50 0 97 10l15 -9l-15 -146q-45 -8 -97 -8l-6 -32l34 -19q44 -23 44 -63q0 -37 -29.5 -60.5t-80.5 -23.5q-49 0 -92 24l11 75l8 3q33 -28 60 -28q16 0 16 14q0 9 -12 15l-50 27l14 73q-211 30 -211 256q0 129 75 200t213 71q71 0 135 -16l-31 -147l-12 -8
q-45 21 -99 21q-46 0 -65.5 -22t-19.5 -77q0 -69 23.5 -99.5t74.5 -30.5z" />
    <glyph glyph-name="egrave" unicode="&#xe8;" horiz-adv-x="480" 
d="M354 563l-17 -1q-81 37 -223 109l-3 17l69 107l17 1q99 -85 201 -161zM451 147l10 -12l-11 -135h-397l9 149l-9 364h404l10 -13l-11 -135l-135 6h-84l-1 -44h80l87 3l10 -13l-11 -135l-98 3h-72l-1 -17l1 -26h79z" />
    <glyph glyph-name="eacute" unicode="&#xe9;" horiz-adv-x="480" 
d="M174 563l-44 72q102 76 201 161l17 -1l69 -107l-3 -17q-142 -72 -223 -109zM451 147l10 -12l-11 -135h-397l9 149l-9 364h404l10 -13l-11 -135l-135 6h-84l-1 -44h80l87 3l10 -13l-11 -135l-98 3h-72l-1 -17l1 -26h79z" />
    <glyph glyph-name="ecircumflex" unicode="&#xea;" horiz-adv-x="480" 
d="M121 571l-47 72q69 58 163 150h34q70 -70 163 -150l-47 -72h-18q-76 48 -115 78q-39 -30 -115 -78h-18zM451 147l10 -12l-11 -135h-397l9 149l-9 364h404l10 -13l-11 -135l-135 6h-84l-1 -44h80l87 3l10 -13l-11 -135l-98 3h-72l-1 -17l1 -26h79z" />
    <glyph glyph-name="edieresis" unicode="&#xeb;" horiz-adv-x="480" 
d="M155 585q-40 0 -61 21.5t-21 61.5q0 42 24 66t65 24q38 0 59.5 -21.5t21.5 -60.5q0 -42 -23.5 -66.5t-64.5 -24.5zM348 585q-40 0 -61 21.5t-21 61.5q0 42 24 66t65 24q38 0 59.5 -21.5t21.5 -60.5q0 -42 -23.5 -66.5t-64.5 -24.5zM451 147l10 -12l-11 -135h-397l9 149
l-9 364h404l10 -13l-11 -135l-135 6h-84l-1 -44h80l87 3l10 -13l-11 -135l-98 3h-72l-1 -17l1 -26h79z" />
    <glyph glyph-name="igrave" unicode="&#xec;" horiz-adv-x="303" 
d="M78 795l17 1q99 -85 201 -161l-44 -72l-17 -1q-81 37 -223 109l-3 17zM231 168l8 -168h-186l9 149l-9 364h189z" />
    <glyph glyph-name="iacute" unicode="&#xed;" horiz-adv-x="303" 
d="M247 795l69 -107l-3 -17q-142 -72 -223 -109l-17 1l-44 72q102 76 201 161zM231 168l8 -168h-186l9 149l-9 364h189z" />
    <glyph glyph-name="icircumflex" unicode="&#xee;" horiz-adv-x="303" 
d="M20 571l-47 72q69 58 163 150h34q70 -70 163 -150l-47 -72h-18q-76 48 -115 78q-39 -30 -115 -78h-18zM231 168l8 -168h-186l9 149l-9 364h189z" />
    <glyph glyph-name="eth" unicode="&#xf0;" horiz-adv-x="612" 
d="M85 513l254 3q121 0 185.5 -61.5t64.5 -176.5q0 -138 -76 -212t-218 -74q-72 0 -210 8l9 149l-1 46h-64l-9 13l7 100h63zM330 129q32 0 48.5 23t16.5 80q0 81 -15.5 110.5t-56.5 29.5q-21 0 -54 -3l-2 -61h81l9 -13l-8 -100h-85l-1 -27l1 -31q48 -8 66 -8z" />
    <glyph glyph-name="ntilde" unicode="&#xf1;" horiz-adv-x="614" 
d="M501 727v-16l-81 -113l-16 -6q-26 3 -83 18.5t-70 15.5q-4 0 -8 -1t-8.5 -3t-8 -4t-8 -6.5l-7 -7t-7.5 -8.5t-7 -9t-7.5 -9.5t-7.5 -9.5h-16l-57 55v16l81 113l16 6q26 -3 83 -18.5t70 -15.5q4 0 8 1t8.5 3t8 4t8 6.5l7 7t7.5 8.5t7 9t7.5 9.5t7.5 9.5h16zM552 172
l7 -172h-202l-132 236h-10l-1 -46l7 -190h-168l9 150l-9 363h202l132 -236h11l-6 229l170 10z" />
    <glyph glyph-name="ograve" unicode="&#xf2;" horiz-adv-x="565" 
d="M210 795l17 1q99 -85 201 -161l-44 -72l-17 -1q-81 37 -223 109l-3 17zM295 523q120 0 185.5 -66t65.5 -187q0 -134 -72.5 -207.5t-204.5 -73.5q-120 0 -185.5 67.5t-65.5 189.5q0 132 72.5 204.5t204.5 72.5zM278 376q-41 0 -53.5 -19t-12.5 -86q0 -92 14 -118.5
t60 -26.5q42 0 54 18.5t12 85.5q0 92 -13.5 119t-60.5 27z" />
    <glyph glyph-name="oacute" unicode="&#xf3;" horiz-adv-x="565" 
d="M378 795l69 -107l-3 -17q-142 -72 -223 -109l-17 1l-44 72q102 76 201 161zM295 523q120 0 185.5 -66t65.5 -187q0 -134 -72.5 -207.5t-204.5 -73.5q-120 0 -185.5 67.5t-65.5 189.5q0 132 72.5 204.5t204.5 72.5zM278 376q-41 0 -53.5 -19t-12.5 -86q0 -92 14 -118.5
t60 -26.5q42 0 54 18.5t12 85.5q0 92 -13.5 119t-60.5 27z" />
    <glyph glyph-name="ocircumflex" unicode="&#xf4;" horiz-adv-x="565" 
d="M151 571l-47 72q69 58 163 150h34q70 -70 163 -150l-47 -72h-18q-76 48 -115 78q-39 -30 -115 -78h-18zM295 523q120 0 185.5 -66t65.5 -187q0 -134 -72.5 -207.5t-204.5 -73.5q-120 0 -185.5 67.5t-65.5 189.5q0 132 72.5 204.5t204.5 72.5zM278 376q-41 0 -53.5 -19
t-12.5 -86q0 -92 14 -118.5t60 -26.5q42 0 54 18.5t12 85.5q0 92 -13.5 119t-60.5 27z" />
    <glyph glyph-name="otilde" unicode="&#xf5;" horiz-adv-x="565" 
d="M479 727v-16l-81 -113l-16 -6q-26 3 -83 18.5t-70 15.5q-4 0 -8 -1t-8.5 -3t-8 -4t-8 -6.5l-7 -7t-7.5 -8.5t-7 -9t-7.5 -9.5t-7.5 -9.5h-16l-57 55v16l81 113l16 6q26 -3 83 -18.5t70 -15.5q4 0 8 1t8.5 3t8 4t8 6.5l7 7t7.5 8.5t7 9t7.5 9.5t7.5 9.5h16zM295 523
q120 0 185.5 -66t65.5 -187q0 -134 -72.5 -207.5t-204.5 -73.5q-120 0 -185.5 67.5t-65.5 189.5q0 132 72.5 204.5t204.5 72.5zM278 376q-41 0 -53.5 -19t-12.5 -86q0 -92 14 -118.5t60 -26.5q42 0 54 18.5t12 85.5q0 92 -13.5 119t-60.5 27z" />
    <glyph glyph-name="divide" unicode="&#xf7;" horiz-adv-x="480" 
d="M254 497q36 0 56 -20t20 -57q0 -40 -22.5 -62.5t-60.5 -22.5q-77 0 -77 77q0 40 22.5 62.5t61.5 22.5zM466 307l-9 -117h-430l-12 13l9 117h430zM254 172q36 0 56 -20t20 -57q0 -40 -22.5 -62.5t-60.5 -22.5q-77 0 -77 77q0 40 22.5 62.5t61.5 22.5z" />
    <glyph glyph-name="oslash" unicode="&#xf8;" horiz-adv-x="565" 
d="M547 542l-58 -94q57 -66 57 -178q0 -134 -72.5 -207.5t-204.5 -73.5q-33 0 -57 4l-74 -121l-110 56l-4 16l65 107q-71 68 -71 195q0 132 72.5 204.5t204.5 72.5q40 0 77 -8l61 99l105 -55zM286 126q42 0 54 18.5t12 85.5q0 92 -13.5 119t-60.5 27q-41 0 -53.5 -19
t-12.5 -86q0 -92 14 -118.5t60 -26.5z" />
    <glyph glyph-name="ugrave" unicode="&#xf9;" horiz-adv-x="566" 
d="M209 795l17 1q99 -85 201 -161l-44 -72l-17 -1q-81 37 -223 109l-3 17zM518 253l-1 -84q-1 -87 -64 -133.5t-180 -46.5q-113 0 -172 46.5t-56 133.5l2 83l-5 261h185l-8 -319q-1 -32 13 -45.5t49 -13.5t49.5 13.5t13.5 45.5l-8 319h188z" />
    <glyph glyph-name="uacute" unicode="&#xfa;" horiz-adv-x="566" 
d="M377 795l69 -107l-3 -17q-142 -72 -223 -109l-17 1l-44 72q102 76 201 161zM518 253l-1 -84q-1 -87 -64 -133.5t-180 -46.5q-113 0 -172 46.5t-56 133.5l2 83l-5 261h185l-8 -319q-1 -32 13 -45.5t49 -13.5t49.5 13.5t13.5 45.5l-8 319h188z" />
    <glyph glyph-name="ucircumflex" unicode="&#xfb;" horiz-adv-x="566" 
d="M150 571l-47 72q69 58 163 150h34q70 -70 163 -150l-47 -72h-18q-76 48 -115 78q-39 -30 -115 -78h-18zM518 253l-1 -84q-1 -87 -64 -133.5t-180 -46.5q-113 0 -172 46.5t-56 133.5l2 83l-5 261h185l-8 -319q-1 -32 13 -45.5t49 -13.5t49.5 13.5t13.5 45.5l-8 319h188z
" />
    <glyph glyph-name="udieresis" unicode="&#xfc;" horiz-adv-x="566" 
d="M191 758q38 0 59.5 -21.5t21.5 -60.5q0 -42 -23.5 -66.5t-64.5 -24.5q-40 0 -61 21.5t-21 61.5q0 42 24 66t65 24zM384 758q38 0 59.5 -21.5t21.5 -60.5q0 -42 -23.5 -66.5t-64.5 -24.5q-40 0 -61 21.5t-21 61.5q0 42 24 66t65 24zM518 253l-1 -84q-1 -87 -64 -133.5
t-180 -46.5q-113 0 -172 46.5t-56 133.5l2 83l-5 261h185l-8 -319q-1 -32 13 -45.5t49 -13.5t49.5 13.5t13.5 45.5l-8 319h188z" />
    <glyph glyph-name="thorn" unicode="&#xfe;" horiz-adv-x="533" 
d="M242 447h90q197 0 197 -169q0 -96 -66.5 -149.5t-188.5 -53.5l-37 -1l4 -74h-188l9 149l-7 295l-2 2h2l-2 67h191zM234 208l64 -4q18 13 26 24.5t8 34.5q0 31 -15 42.5t-53 13.5l-27 -3z" />
    <glyph glyph-name="ydieresis" unicode="&#xff;" horiz-adv-x="525" 
d="M170 585q-40 0 -61 21.5t-21 61.5q0 42 24 66t65 24q38 0 59.5 -21.5t21.5 -60.5q0 -42 -23.5 -66.5t-64.5 -24.5zM363 585q-40 0 -61 21.5t-21 61.5q0 42 24 66t65 24q38 0 59.5 -21.5t21.5 -60.5q0 -42 -23.5 -66.5t-64.5 -24.5zM340 131l8 -131h-185l9 131l-1 17
l-174 365h194l14 -47l52 -133h10l61 126l20 54h189l-196 -360z" />
    <glyph glyph-name="Amacron" unicode="&#x100;" horiz-adv-x="627" 
d="M179 746l-12 13l9 107h276l12 -13l-9 -107h-276zM617 0h-203l-18 107l-1 3l-98 2l-82 -4l-17 -108h-196l196 647h242zM365 256l-44 212h-12l-56 -212l56 -1z" />
    <glyph glyph-name="amacron" unicode="&#x101;" horiz-adv-x="549" 
d="M146 612l-12 13l9 107h276l12 -13l-9 -107h-276zM346 0l-11 71l-76 2l-60 -3l-11 -70h-181l159 513h224l144 -513h-188zM270 205l39 1l-29 143h-11l-38 -143z" />
    <glyph glyph-name="Abreve" unicode="&#x102;" horiz-adv-x="627" 
d="M312 716q-64 0 -109 32t-66 92l40 60h27q34 -50 115 -50q74 0 107 50h27l40 -60q-47 -124 -181 -124zM617 0h-203l-18 107l-1 3l-98 2l-82 -4l-17 -108h-196l196 647h242zM365 256l-44 212h-12l-56 -212l56 -1z" />
    <glyph glyph-name="abreve" unicode="&#x103;" horiz-adv-x="549" 
d="M278 576q-71 0 -113.5 39.5t-59.5 96.5l40 62h27q33 -63 112 -63q80 0 110 63h27l40 -62q-19 -58 -65 -97t-118 -39zM346 0l-11 71l-76 2l-60 -3l-11 -70h-181l159 513h224l144 -513h-188zM270 205l39 1l-29 143h-11l-38 -143z" />
    <glyph glyph-name="Aogonek" unicode="&#x104;" horiz-adv-x="627" 
d="M621 -79l12 -72q-60 -46 -111 -46q-48 0 -76 28t-28 72q0 46 44 97h-48l-18 107l-1 3l-98 2l-82 -4l-17 -108h-196l196 647h242l177 -647h-70q-33 -41 -33 -67q0 -32 36 -32q29 0 61 20h10zM365 256l-44 212h-12l-56 -212l56 -1z" />
    <glyph glyph-name="aogonek" unicode="&#x105;" horiz-adv-x="549" 
d="M546 -79l12 -72q-60 -46 -111 -46q-48 0 -76 28t-28 72q0 46 44 97h-41l-11 71l-76 2l-60 -3l-11 -70h-181l159 513h224l144 -513h-62q-33 -41 -33 -67q0 -32 36 -32q29 0 61 20h10zM270 205l39 1l-29 143h-11l-38 -143z" />
    <glyph glyph-name="Cacute" unicode="&#x106;" horiz-adv-x="514" 
d="M430 914l49 -117l-6 -16q-132 -42 -238 -69l-17 4l-30 79q118 60 225 123zM352 658q86 0 162 -27l-34 -159l-13 -8q-57 31 -123 31q-61 0 -88 -35.5t-27 -118.5q0 -97 31 -141.5t97 -44.5q65 0 123 21l16 -10l-16 -158q-60 -19 -139 -19q-161 0 -242.5 84t-81.5 245
q0 162 87.5 251t247.5 89z" />
    <glyph glyph-name="cacute" unicode="&#x107;" horiz-adv-x="447" 
d="M373 795l69 -107l-3 -17q-142 -72 -223 -109l-17 1l-44 72q102 76 201 161zM306 522q71 0 135 -16l-31 -147l-12 -8q-45 21 -99 21q-46 0 -65.5 -22t-19.5 -77q0 -69 23.5 -99.5t74.5 -30.5q50 0 97 10l15 -9l-15 -146q-45 -8 -112 -8q-279 0 -279 261q0 129 75 200
t213 71z" />
    <glyph glyph-name="Ccircumflex" unicode="&#x108;" horiz-adv-x="514" 
d="M181 721l-34 76q90 62 153 119h34q63 -57 153 -119l-34 -76h-18l-118 60q-20 -10 -59.5 -30t-58.5 -30h-18zM352 658q86 0 162 -27l-34 -159l-13 -8q-57 31 -123 31q-61 0 -88 -35.5t-27 -118.5q0 -97 31 -141.5t97 -44.5q65 0 123 21l16 -10l-16 -158q-60 -19 -139 -19
q-161 0 -242.5 84t-81.5 245q0 162 87.5 251t247.5 89z" />
    <glyph glyph-name="ccircumflex" unicode="&#x109;" horiz-adv-x="447" 
d="M146 571l-47 72q69 58 163 150h34q70 -70 163 -150l-47 -72h-18q-76 48 -115 78q-39 -30 -115 -78h-18zM306 522q71 0 135 -16l-31 -147l-12 -8q-45 21 -99 21q-46 0 -65.5 -22t-19.5 -77q0 -69 23.5 -99.5t74.5 -30.5q50 0 97 10l15 -9l-15 -146q-45 -8 -112 -8
q-279 0 -279 261q0 129 75 200t213 71z" />
    <glyph glyph-name="Cdotaccent" unicode="&#x10a;" horiz-adv-x="514" 
d="M321 903q44 0 68.5 -25t24.5 -70q0 -48 -27 -76t-74 -28q-46 0 -70 24.5t-24 70.5q0 48 27.5 76t74.5 28zM352 658q86 0 162 -27l-34 -159l-13 -8q-57 31 -123 31q-61 0 -88 -35.5t-27 -118.5q0 -97 31 -141.5t97 -44.5q65 0 123 21l16 -10l-16 -158q-60 -19 -139 -19
q-161 0 -242.5 84t-81.5 245q0 162 87.5 251t247.5 89z" />
    <glyph glyph-name="cdotaccent" unicode="&#x10b;" horiz-adv-x="447" 
d="M283 769q44 0 68.5 -25t24.5 -70q0 -48 -27 -76t-74 -28q-46 0 -70 24.5t-24 70.5q0 48 27.5 76t74.5 28zM306 522q71 0 135 -16l-31 -147l-12 -8q-45 21 -99 21q-46 0 -65.5 -22t-19.5 -77q0 -69 23.5 -99.5t74.5 -30.5q50 0 97 10l15 -9l-15 -146q-45 -8 -112 -8
q-279 0 -279 261q0 129 75 200t213 71z" />
    <glyph glyph-name="Ccaron" unicode="&#x10c;" horiz-adv-x="514" 
d="M453 907l34 -76q-90 -62 -153 -119h-34q-63 57 -153 119l34 76h18l118 -60q19 10 59 30t59 30h18zM352 658q86 0 162 -27l-34 -159l-13 -8q-57 31 -123 31q-61 0 -88 -35.5t-27 -118.5q0 -97 31 -141.5t97 -44.5q65 0 123 21l16 -10l-16 -158q-60 -19 -139 -19
q-161 0 -242.5 84t-81.5 245q0 162 87.5 251t247.5 89z" />
    <glyph glyph-name="ccaron" unicode="&#x10d;" horiz-adv-x="447" 
d="M412 789l47 -72q-69 -58 -163 -150h-34q-70 70 -163 150l47 72h18q76 -48 115 -78q39 30 115 78h18zM306 522q71 0 135 -16l-31 -147l-12 -8q-45 21 -99 21q-46 0 -65.5 -22t-19.5 -77q0 -69 23.5 -99.5t74.5 -30.5q50 0 97 10l15 -9l-15 -146q-45 -8 -112 -8
q-279 0 -279 261q0 129 75 200t213 71z" />
    <glyph glyph-name="Dcaron" unicode="&#x10e;" horiz-adv-x="665" 
d="M345 712h-34q-63 57 -153 119l34 76h18l118 -60q19 10 59 30t59 30h18l34 -76q-90 -62 -153 -119zM60 647l292 4q143 0 219.5 -77.5t76.5 -223.5q0 -173 -89 -266t-255 -93q-104 0 -244 9l10 190zM342 140q96 0 96 161q0 108 -23 151t-80 43q-38 0 -75 -4l-7 -281l2 -62
q60 -8 87 -8z" />
    <glyph glyph-name="dcaron" unicode="&#x10f;" horiz-adv-x="575" 
d="M290 567h-34q-70 70 -163 150l47 72h18q76 -48 115 -78q39 30 115 78h18l47 -72q-69 -58 -163 -150zM53 513l254 3q121 0 185.5 -61.5t64.5 -176.5q0 -138 -76 -212t-218 -74q-72 0 -210 8l9 149zM298 129q32 0 48.5 23t16.5 80q0 81 -15.5 110.5t-56.5 29.5
q-21 0 -54 -3l-6 -201l1 -31q48 -8 66 -8z" />
    <glyph glyph-name="Dcroat" unicode="&#x110;" horiz-adv-x="695" 
d="M90 647l292 4q143 0 219.5 -77.5t76.5 -223.5q0 -173 -89 -266t-255 -93q-104 0 -244 9l10 190l-1 60h-71l-9 13l7 117h70zM372 140q96 0 96 161q0 108 -23 151t-80 43q-38 0 -75 -4l-3 -111h84l9 -13l-7 -117h-89l-1 -40l2 -62q60 -8 87 -8z" />
    <glyph glyph-name="dcroat" unicode="&#x111;" horiz-adv-x="575" 
d="M137 612l-12 13l9 107h276l12 -13l-9 -107h-276zM53 513l254 3q121 0 185.5 -61.5t64.5 -176.5q0 -138 -76 -212t-218 -74q-72 0 -210 8l9 149zM298 129q32 0 48.5 23t16.5 80q0 81 -15.5 110.5t-56.5 29.5q-21 0 -54 -3l-6 -201l1 -31q48 -8 66 -8z" />
    <glyph glyph-name="Emacron" unicode="&#x112;" horiz-adv-x="541" 
d="M156 746l-12 13l9 107h276l12 -13l-9 -107h-276zM517 160l11 -14l-12 -146h-456l10 190l-10 457h464l11 -14l-13 -146l-159 6h-103l-2 -91h99l104 3l11 -14l-12 -146l-116 3h-90l-1 -38l2 -56h96z" />
    <glyph glyph-name="emacron" unicode="&#x113;" horiz-adv-x="480" 
d="M118 612l-12 13l9 107h276l12 -13l-9 -107h-276zM451 147l10 -12l-11 -135h-397l9 149l-9 364h404l10 -13l-11 -135l-135 6h-84l-1 -44h80l87 3l10 -13l-11 -135l-98 3h-72l-1 -17l1 -26h79z" />
    <glyph glyph-name="Ebreve" unicode="&#x114;" horiz-adv-x="541" 
d="M289 716q-64 0 -109 32t-66 92l40 60h27q34 -50 115 -50q74 0 107 50h27l40 -60q-23 -60 -69.5 -92t-111.5 -32zM517 160l11 -14l-12 -146h-456l10 190l-10 457h464l11 -14l-13 -146l-159 6h-103l-2 -91h99l104 3l11 -14l-12 -146l-116 3h-90l-1 -38l2 -56h96z" />
    <glyph glyph-name="ebreve" unicode="&#x115;" horiz-adv-x="480" 
d="M250 576q-71 0 -113.5 39.5t-59.5 96.5l40 62h27q33 -63 112 -63q80 0 110 63h27l40 -62q-19 -58 -65 -97t-118 -39zM451 147l10 -12l-11 -135h-397l9 149l-9 364h404l10 -13l-11 -135l-135 6h-84l-1 -44h80l87 3l10 -13l-11 -135l-98 3h-72l-1 -17l1 -26h79z" />
    <glyph glyph-name="Edotaccent" unicode="&#x116;" horiz-adv-x="541" 
d="M288 704q-46 0 -70 24.5t-24 70.5q0 48 27.5 76t74.5 28q44 0 68.5 -25t24.5 -70q0 -48 -27 -76t-74 -28zM517 160l11 -14l-12 -146h-456l10 190l-10 457h464l11 -14l-13 -146l-159 6h-103l-2 -91h99l104 3l11 -14l-12 -146l-116 3h-90l-1 -38l2 -56h96z" />
    <glyph glyph-name="edotaccent" unicode="&#x117;" horiz-adv-x="480" 
d="M250 570q-46 0 -70 24.5t-24 70.5q0 48 27.5 76t74.5 28q44 0 68.5 -25t24.5 -70q0 -48 -27 -76t-74 -28zM451 147l10 -12l-11 -135h-397l9 149l-9 364h404l10 -13l-11 -135l-135 6h-84l-1 -44h80l87 3l10 -13l-11 -135l-98 3h-72l-1 -17l1 -26h79z" />
    <glyph glyph-name="Eogonek" unicode="&#x118;" horiz-adv-x="541" 
d="M524 -79l12 -72q-60 -46 -111 -46q-48 0 -76 27.5t-28 69.5q0 47 33 91l7 9h-301l10 190l-10 457h464l11 -14l-13 -146l-159 6h-103l-2 -91h99l104 3l11 -14l-12 -146l-116 3h-90l-1 -38l2 -56h96l166 6l11 -14l-12 -146h-68l-15 -22q-16 -24 -16 -44q0 -33 36 -33
q29 0 61 20h10z" />
    <glyph glyph-name="eogonek" unicode="&#x119;" horiz-adv-x="480" 
d="M368 0l-16 -24q-16 -24 -16 -44q0 -33 36 -33q29 0 61 20h10l12 -72q-60 -46 -111 -46q-48 0 -76 27.5t-28 69.5q0 47 33 91l8 11h-228l9 149l-9 364h404l10 -13l-11 -135l-135 6h-84l-1 -44h80l87 3l10 -13l-11 -135l-98 3h-72l-1 -17l1 -26h79l140 5l10 -12l-11 -135
h-82z" />
    <glyph glyph-name="Ecaron" unicode="&#x11a;" horiz-adv-x="541" 
d="M309 712h-34q-63 57 -153 119l34 76h18l118 -60q19 10 59 30t59 30h18l34 -76q-90 -62 -153 -119zM517 160l11 -14l-12 -146h-456l10 190l-10 457h464l11 -14l-13 -146l-159 6h-103l-2 -91h99l104 3l11 -14l-12 -146l-116 3h-90l-1 -38l2 -56h96z" />
    <glyph glyph-name="ecaron" unicode="&#x11b;" horiz-adv-x="480" 
d="M271 567h-34q-70 70 -163 150l47 72h18q76 -48 115 -78q39 30 115 78h18l47 -72q-69 -58 -163 -150zM451 147l10 -12l-11 -135h-397l9 149l-9 364h404l10 -13l-11 -135l-135 6h-84l-1 -44h80l87 3l10 -13l-11 -135l-98 3h-72l-1 -17l1 -26h79z" />
    <glyph glyph-name="Gcircumflex" unicode="&#x11c;" horiz-adv-x="596" 
d="M192 721l-34 76q90 62 153 119h34q63 -57 153 -119l-34 -76h-18l-118 60q-20 -10 -59.5 -30t-58.5 -30h-18zM382 658q108 0 187 -30l-43 -177h-16q-94 47 -166 47q-67 0 -92 -36.5t-25 -141.5q0 -107 26 -144t99 -37q14 0 36 4v32l-3 109l183 13l-3 -88v-177
q-116 -44 -231 -44q-157 0 -237 83.5t-80 238.5q0 170 94.5 259t270.5 89z" />
    <glyph glyph-name="gcircumflex" unicode="&#x11d;" horiz-adv-x="514" 
d="M137 571l-47 72q69 58 163 150h34q70 -70 163 -150l-47 -72h-18q-76 48 -115 78q-39 -30 -115 -78h-18zM331 522q95 0 158 -20l-40 -163h-14q-79 36 -139 36q-51 0 -67.5 -22t-16.5 -99q0 -79 18.5 -102.5t76.5 -23.5h15v13l-2 91l169 11l-3 -70v-147q-98 -37 -196 -37
q-135 0 -203.5 66t-68.5 189q0 136 81 207t232 71z" />
    <glyph glyph-name="Gbreve" unicode="&#x11e;" horiz-adv-x="596" 
d="M466 900l40 -60q-23 -60 -69.5 -92t-111.5 -32q-64 0 -109 32t-66 92l40 60h27q34 -50 115 -50q74 0 107 50h27zM382 658q108 0 187 -30l-43 -177h-16q-94 47 -166 47q-67 0 -92 -36.5t-25 -141.5q0 -107 26 -144t99 -37q14 0 36 4v32l-3 109l183 13l-3 -88v-177
q-116 -44 -231 -44q-157 0 -237 83.5t-80 238.5q0 170 94.5 259t270.5 89z" />
    <glyph glyph-name="gbreve" unicode="&#x11f;" horiz-adv-x="514" 
d="M409 774l40 -62q-19 -58 -65 -97t-118 -39q-71 0 -113.5 39.5t-59.5 96.5l40 62h27q33 -63 112 -63q80 0 110 63h27zM331 522q95 0 158 -20l-40 -163h-14q-79 36 -139 36q-51 0 -67.5 -22t-16.5 -99q0 -79 18.5 -102.5t76.5 -23.5h15v13l-2 91l169 11l-3 -70v-147
q-98 -37 -196 -37q-135 0 -203.5 66t-68.5 189q0 136 81 207t232 71z" />
    <glyph glyph-name="Gdotaccent" unicode="&#x120;" horiz-adv-x="596" 
d="M332 903q44 0 68.5 -25t24.5 -70q0 -48 -27 -76t-74 -28q-46 0 -70 24.5t-24 70.5q0 48 27.5 76t74.5 28zM382 658q108 0 187 -30l-43 -177h-16q-94 47 -166 47q-67 0 -92 -36.5t-25 -141.5q0 -107 26 -144t99 -37q14 0 36 4v32l-3 109l183 13l-3 -88v-177
q-116 -44 -231 -44q-157 0 -237 83.5t-80 238.5q0 170 94.5 259t270.5 89z" />
    <glyph glyph-name="gdotaccent" unicode="&#x121;" horiz-adv-x="514" 
d="M274 769q44 0 68.5 -25t24.5 -70q0 -48 -27 -76t-74 -28q-46 0 -70 24.5t-24 70.5q0 48 27.5 76t74.5 28zM331 522q95 0 158 -20l-40 -163h-14q-79 36 -139 36q-51 0 -67.5 -22t-16.5 -99q0 -79 18.5 -102.5t76.5 -23.5h15v13l-2 91l169 11l-3 -70v-147q-98 -37 -196 -37
q-135 0 -203.5 66t-68.5 189q0 136 81 207t232 71z" />
    <glyph glyph-name="Gcommaaccent" unicode="&#x122;" horiz-adv-x="596" 
d="M382 658q108 0 187 -30l-43 -177h-16q-94 47 -166 47q-67 0 -92 -36.5t-25 -141.5q0 -107 26 -144t99 -37q14 0 36 4v32l-3 109l183 13l-3 -88v-177q-116 -44 -231 -44q-157 0 -237 83.5t-80 238.5q0 170 94.5 259t270.5 89zM350 -25q41 -40 41 -91q0 -97 -130 -188
l-52 46l-2 12q48 42 48 93q0 36 -28 64v14q61 35 123 50z" />
    <glyph glyph-name="gcommaaccent" unicode="&#x123;" horiz-adv-x="514" 
d="M331 522q95 0 158 -20l-40 -163h-14q-79 36 -139 36q-51 0 -67.5 -22t-16.5 -99q0 -79 18.5 -102.5t76.5 -23.5h15v13l-2 91l169 11l-3 -70v-147q-98 -37 -196 -37q-135 0 -203.5 66t-68.5 189q0 136 81 207t232 71zM316 -25q41 -40 41 -91q0 -97 -130 -188l-52 46l-2 12
q48 42 48 93q0 36 -28 64v14q61 35 123 50z" />
    <glyph glyph-name="Hcircumflex" unicode="&#x124;" horiz-adv-x="711" 
d="M219 721l-34 76q90 62 153 119h34q63 -57 153 -119l-34 -76h-18l-118 60q-20 -10 -59 -30t-59 -30h-18zM639 210l8 -210h-201l10 190l-1 50l-108 2l-93 -3l-1 -29l8 -210h-201l10 190l-10 457h204l-6 -245l101 -2l92 2l-5 245h204z" />
    <glyph glyph-name="hcircumflex" unicode="&#x125;" horiz-adv-x="614" 
d="M177 571l-47 72q69 58 163 150h34q70 -70 163 -150l-47 -72h-18q-76 48 -115 78q-39 -30 -115 -78h-18zM552 168l7 -168h-186l9 149l-1 29l-80 2l-70 -2v-10l8 -168h-186l9 149l-9 364h189l-6 -185l75 -2l67 2l-5 185h189z" />
    <glyph glyph-name="Hbar" unicode="&#x126;" horiz-adv-x="744" 
d="M659 472l-7 -262l8 -210h-201l10 190l-1 50l-108 2l-93 -3l-1 -29l8 -210h-201l10 190l-6 282h-59l-8 10l6 91h59l-2 74h204l-2 -74h186l-2 74h204l-2 -74h65l8 -10l-5 -91h-70zM463 472h-190l-2 -70l101 -2l93 2z" />
    <glyph glyph-name="hbar" unicode="&#x127;" horiz-adv-x="642" 
d="M564 366l-6 -198l7 -168h-186l9 149l-1 29l-80 2l-70 -2v-10l8 -168h-186l9 149l-5 217h-45l-7 9l5 84h44l-1 54h189l-2 -54h134l-1 54h189l-2 -54h59l7 -9l-5 -84h-63zM383 366h-140l-1 -38l75 -2l66 2v38z" />
    <glyph glyph-name="Imacron" unicode="&#x12a;" horiz-adv-x="327" 
d="M290 853l-9 -107h-236l-12 13l9 107h236zM253 210l8 -210h-201l10 190l-10 457h204z" />
    <glyph glyph-name="imacron" unicode="&#x12b;" horiz-adv-x="303" 
d="M281 719l-9 -107h-236l-12 13l9 107h236zM231 168l8 -168h-186l9 149l-9 364h189z" />
    <glyph glyph-name="Ibreve" unicode="&#x12c;" horiz-adv-x="327" 
d="M300 900l40 -60q-23 -60 -69.5 -92t-111.5 -32q-64 0 -109 32t-66 92l40 60h27q34 -50 115 -50q74 0 107 50h27zM253 210l8 -210h-201l10 190l-10 457h204z" />
    <glyph glyph-name="ibreve" unicode="&#x12d;" horiz-adv-x="303" 
d="M292 774l40 -62q-19 -58 -65 -97t-118 -39q-71 0 -113.5 39.5t-59.5 96.5l40 62h27q33 -63 112 -63q80 0 110 63h27zM231 168l8 -168h-186l9 149l-9 364h189z" />
    <glyph glyph-name="Iogonek" unicode="&#x12e;" horiz-adv-x="327" 
d="M261 0h-110q-26 -40 -26 -68q0 -31 35 -31q38 0 68 24h10l12 -73q-59 -49 -117 -49q-48 0 -76 28t-28 71q0 47 31 98l10 190l-10 457h204l-11 -437z" />
    <glyph glyph-name="iogonek" unicode="&#x12f;" horiz-adv-x="303" 
d="M231 -75l12 -73q-59 -49 -117 -49q-48 0 -76 28t-28 71q0 47 31 98l9 149l-9 364h189l-11 -345l8 -168h-95q-26 -40 -26 -68q0 -31 35 -31q38 0 68 24h10z" />
    <glyph glyph-name="Idotaccent" unicode="&#x130;" horiz-adv-x="327" 
d="M166 903q44 0 68.5 -25t24.5 -70q0 -48 -27 -76t-74 -28q-46 0 -70 24.5t-24 70.5q0 48 27.5 76t74.5 28zM253 210l8 -210h-201l10 190l-10 457h204z" />
    <glyph glyph-name="dotlessi" unicode="&#x131;" horiz-adv-x="303" 
d="M231 168l8 -168h-186l9 149l-9 364h189z" />
    <glyph glyph-name="IJ" unicode="&#x132;" horiz-adv-x="689" 
d="M264 647l-11 -437l8 -210h-201l10 190l-10 457h204zM620 213l2 -89q0 -94 -49 -146.5t-176 -89.5l-52 103v16q51 25 71.5 52t20.5 71v63l-7 313l-85 -3l-11 13l8 131h289z" />
    <glyph glyph-name="ij" unicode="&#x133;" horiz-adv-x="649" 
d="M242 513l-11 -345l8 -168h-186l9 149l-9 364h189zM579 168l2 -69q0 -76 -43 -119.5t-154 -78.5l-51 93v14q43 17 59.5 37t16.5 53v52l-5 227l-78 -2l-10 11l11 127h261z" />
    <glyph glyph-name="Jcircumflex" unicode="&#x134;" horiz-adv-x="362" 
d="M28 721l-34 76q90 62 153 119h34q63 -57 153 -119l-34 -76h-18l-118 60q-20 -10 -59.5 -30t-58.5 -30h-18zM304 647l-11 -434l2 -89q0 -94 -49 -146.5t-176 -89.5l-52 103v16q51 25 71.5 52t20.5 71v63l-7 313l-85 -3l-11 13l8 131h289z" />
    <glyph glyph-name="jcircumflex" unicode="&#x135;" horiz-adv-x="346" 
d="M16 571l-47 72q69 58 163 150h34q70 -70 163 -150l-47 -72h-18q-76 48 -115 78q-39 -30 -115 -78h-18zM285 513l-9 -345l2 -69q0 -76 -43 -119.5t-154 -78.5l-51 93v14q43 17 59.5 37t16.5 53v52l-5 227l-78 -2l-10 11l11 127h261z" />
    <glyph glyph-name="Kcommaaccent" unicode="&#x136;" horiz-adv-x="628" 
d="M627 647l-190 -306q92 -144 210 -299l-3 -22q-105 -23 -200 -32l-22 12q-102 175 -167 297l-2 -87l8 -210h-201l10 190l-10 457h204l-7 -270l124 200l34 70h212zM366 -25q41 -40 41 -91q0 -97 -130 -188l-52 46l-2 12q48 42 48 93q0 36 -28 64v14q61 35 123 50z" />
    <glyph glyph-name="kcommaaccent" unicode="&#x137;" horiz-adv-x="556" 
d="M548 513l-150 -243q75 -115 167 -231l-3 -20q-97 -22 -185 -29l-21 11q-70 124 -123 224l-2 -57l8 -168h-186l9 149l-9 364h189l-7 -206l90 147l28 59h195zM315 -25q41 -40 41 -91q0 -97 -130 -188l-52 46l-2 12q48 42 48 93q0 36 -28 64v14q61 35 123 50z" />
    <glyph glyph-name="kgreenlandic" unicode="&#x138;" horiz-adv-x="556" 
d="M548 513l-150 -243q75 -115 167 -231l-3 -20q-97 -22 -185 -29l-21 11q-70 124 -123 224l-2 -57l8 -168h-186l9 149l-9 364h189l-7 -206l90 147l28 59h195z" />
    <glyph glyph-name="Lacute" unicode="&#x139;" horiz-adv-x="452" 
d="M123 716l-30 79q118 60 225 123l17 -4l49 -117l-6 -16q-132 -42 -238 -69zM452 150l-12 -150h-385l10 190l-10 457h204l-11 -437l2 -46h191z" />
    <glyph glyph-name="lacute" unicode="&#x13a;" horiz-adv-x="402" 
d="M104 563l-44 72q102 76 201 161l17 -1l69 -107l-3 -17q-142 -72 -223 -109zM392 139l-11 -139h-333l9 149l-9 364h189l-11 -345l1 -17h155z" />
    <glyph glyph-name="Lcommaaccent" unicode="&#x13b;" horiz-adv-x="452" 
d="M452 150l-12 -150h-385l10 190l-10 457h204l-11 -437l2 -46h191zM284 -25q41 -40 41 -91q0 -97 -130 -188l-52 46l-2 12q48 42 48 93q0 36 -28 64v14q61 35 123 50z" />
    <glyph glyph-name="lcommaaccent" unicode="&#x13c;" horiz-adv-x="402" 
d="M392 139l-11 -139h-333l9 149l-9 364h189l-11 -345l1 -17h155zM241 -25q41 -40 41 -91q0 -97 -130 -188l-52 46l-2 12q48 42 48 93q0 36 -28 64v14q61 35 123 50z" />
    <glyph glyph-name="Lcaron" unicode="&#x13d;" horiz-adv-x="521" 
d="M441 164l11 -14l-12 -150h-385l10 190l-10 457h204l-11 -437l2 -46h191zM499 590l-44 -232l-82 -13l-13 10l-10 238l139 8z" />
    <glyph glyph-name="lcaron" unicode="&#x13e;" horiz-adv-x="463" 
d="M382 151l10 -12l-11 -139h-333l9 149l-9 364h189l-11 -345l1 -17h155zM461 490l-44 -232l-82 -13l-13 10l-10 238l139 8z" />
    <glyph glyph-name="Ldot" unicode="&#x13f;" horiz-adv-x="503" 
d="M441 164l11 -14l-12 -150h-385l10 190l-10 457h204l-11 -437l2 -46h191zM401 501q44 0 68.5 -25t24.5 -70q0 -48 -27 -76t-74 -28q-46 0 -70 24.5t-24 70.5q0 48 27.5 76t74.5 28z" />
    <glyph glyph-name="ldot" unicode="&#x140;" horiz-adv-x="462" 
d="M382 151l10 -12l-11 -139h-333l9 149l-9 364h189l-11 -345l1 -17h155zM370 436q44 0 68.5 -25t24.5 -70q0 -48 -27 -76t-74 -28q-46 0 -70 24.5t-24 70.5q0 48 27.5 76t74.5 28z" />
    <glyph glyph-name="Lslash" unicode="&#x141;" horiz-adv-x="472" 
d="M472 150l-12 -150h-385l10 190v11l-47 -24l-17 9l-35 115l96 48l-7 298h204l-5 -201l67 34l17 -9l36 -114l-124 -63l-2 -84l2 -46h191z" />
    <glyph glyph-name="lslash" unicode="&#x142;" horiz-adv-x="422" 
d="M405 139l-11 -139h-333l9 149v13l-36 -15l-15 9l-28 100l76 31l-6 226h189l-5 -152l60 25l14 -9l29 -99l-107 -45l-2 -65l1 -17h155z" />
    <glyph glyph-name="Nacute" unicode="&#x143;" horiz-adv-x="710" 
d="M468 914l49 -117l-6 -16q-132 -42 -238 -69l-17 4l-30 79q118 60 225 123zM639 211l8 -211h-218l-182 346h-12l-1 -112l8 -234h-182l10 190l-10 457h218l182 -346h12l-6 339l184 11z" />
    <glyph glyph-name="nacute" unicode="&#x144;" horiz-adv-x="614" 
d="M400 795l69 -107l-3 -17q-142 -72 -223 -109l-17 1l-44 72q102 76 201 161zM552 172l7 -172h-202l-132 236h-10l-1 -46l7 -190h-168l9 150l-9 363h202l132 -236h11l-6 229l170 10z" />
    <glyph glyph-name="Ncommaaccent" unicode="&#x145;" horiz-adv-x="710" 
d="M639 211l8 -211h-218l-182 346h-12l-1 -112l8 -234h-182l10 190l-10 457h218l182 -346h12l-6 339l184 11zM407 -25q41 -40 41 -91q0 -97 -130 -188l-52 46l-2 12q48 42 48 93q0 36 -28 64v14q61 35 123 50z" />
    <glyph glyph-name="ncommaaccent" unicode="&#x146;" horiz-adv-x="614" 
d="M552 172l7 -172h-202l-132 236h-10l-1 -46l7 -190h-168l9 150l-9 363h202l132 -236h11l-6 229l170 10zM358 -25q41 -40 41 -91q0 -97 -130 -188l-52 46l-2 12q48 42 48 93q0 36 -28 64v14q61 35 123 50z" />
    <glyph glyph-name="Ncaron" unicode="&#x147;" horiz-adv-x="710" 
d="M491 907l34 -76q-90 -62 -153 -119h-34q-63 57 -153 119l34 76h18l118 -60q19 10 59 30t59 30h18zM639 211l8 -211h-218l-182 346h-12l-1 -112l8 -234h-182l10 190l-10 457h218l182 -346h12l-6 339l184 11z" />
    <glyph glyph-name="ncaron" unicode="&#x148;" horiz-adv-x="614" 
d="M439 789l47 -72q-69 -58 -163 -150h-34q-70 70 -163 150l47 72h18q76 -48 115 -78q39 30 115 78h18zM552 172l7 -172h-202l-132 236h-10l-1 -46l7 -190h-168l9 150l-9 363h202l132 -236h11l-6 229l170 10z" />
    <glyph glyph-name="Eng" unicode="&#x14a;" horiz-adv-x="710" 
d="M639 211l6 -157q0 -94 -49 -146.5t-176 -89.5l-52 103v16q60 28 79 63l-200 346h-12l-1 -112l8 -234h-182l10 190l-10 457h218l182 -326h12l-6 319l184 11z" />
    <glyph glyph-name="eng" unicode="&#x14b;" horiz-adv-x="614" 
d="M552 172l5 -128q0 -72 -38 -114.5t-137 -75.5l-59 76v14q44 23 55 47l-153 245h-11v-46l7 -190h-168l9 150l-9 363h202l131 -213h11l-5 206l170 10z" />
    <glyph glyph-name="Omacron" unicode="&#x14c;" 
d="M476 853l-9 -107h-276l-12 13l9 107h276zM341 659q141 0 218 -83.5t77 -235.5q0 -168 -84.5 -260t-239.5 -92q-141 0 -218 84.5t-77 239.5q0 166 84.5 256.5t239.5 90.5zM323 499q-56 0 -76 -32.5t-20 -127.5q0 -121 21 -162t82 -41q57 0 76.5 32.5t19.5 128.5
q0 120 -21 161t-82 41z" />
    <glyph glyph-name="omacron" unicode="&#x14d;" horiz-adv-x="565" 
d="M433 719l-9 -107h-276l-12 13l9 107h276zM295 523q120 0 185.5 -66t65.5 -187q0 -134 -72.5 -207.5t-204.5 -73.5q-120 0 -185.5 67.5t-65.5 189.5q0 132 72.5 204.5t204.5 72.5zM278 376q-41 0 -53.5 -19t-12.5 -86q0 -92 14 -118.5t60 -26.5q42 0 54 18.5t12 85.5
q0 92 -13.5 119t-60.5 27z" />
    <glyph glyph-name="Obreve" unicode="&#x14e;" 
d="M465 900l40 -60q-47 -124 -181 -124q-64 0 -109 32t-66 92l40 60h27q34 -50 115 -50q74 0 107 50h27zM341 659q141 0 218 -83.5t77 -235.5q0 -168 -84.5 -260t-239.5 -92q-141 0 -218 84.5t-77 239.5q0 166 84.5 256.5t239.5 90.5zM323 499q-56 0 -76 -32.5t-20 -127.5
q0 -121 21 -162t82 -41q57 0 76.5 32.5t19.5 128.5q0 120 -21 161t-82 41z" />
    <glyph glyph-name="obreve" unicode="&#x14f;" horiz-adv-x="565" 
d="M423 774l40 -62q-19 -58 -65 -97t-118 -39q-71 0 -113.5 39.5t-59.5 96.5l40 62h27q33 -63 112 -63q80 0 110 63h27zM295 523q120 0 185.5 -66t65.5 -187q0 -134 -72.5 -207.5t-204.5 -73.5q-120 0 -185.5 67.5t-65.5 189.5q0 132 72.5 204.5t204.5 72.5zM278 376
q-41 0 -53.5 -19t-12.5 -86q0 -92 14 -118.5t60 -26.5q42 0 54 18.5t12 85.5q0 92 -13.5 119t-60.5 27z" />
    <glyph glyph-name="Ohungarumlaut" unicode="&#x150;" 
d="M220 711l-59 46q68 98 99 149l14 4l90 -58l3 -14q-63 -64 -131 -122zM389 711l-59 46q81 120 99 149l13 4l91 -58l3 -14q-69 -67 -132 -122zM341 659q141 0 218 -83.5t77 -235.5q0 -168 -84.5 -260t-239.5 -92q-141 0 -218 84.5t-77 239.5q0 166 84.5 256.5t239.5 90.5z
M323 499q-56 0 -76 -32.5t-20 -127.5q0 -121 21 -162t82 -41q57 0 76.5 32.5t19.5 128.5q0 120 -21 161t-82 41z" />
    <glyph glyph-name="ohungarumlaut" unicode="&#x151;" horiz-adv-x="565" 
d="M181 563l-58 46q59 95 112 191l13 4l90 -63l3 -14q-62 -73 -145 -159zM346 563l-58 46q59 95 112 191l13 4l90 -63l3 -14q-62 -73 -145 -159zM295 523q120 0 185.5 -66t65.5 -187q0 -134 -72.5 -207.5t-204.5 -73.5q-120 0 -185.5 67.5t-65.5 189.5q0 132 72.5 204.5
t204.5 72.5zM278 376q-41 0 -53.5 -19t-12.5 -86q0 -92 14 -118.5t60 -26.5q42 0 54 18.5t12 85.5q0 92 -13.5 119t-60.5 27z" />
    <glyph glyph-name="OE" unicode="&#x152;" horiz-adv-x="889" 
d="M348 659q42 0 108.5 -6t93.5 -6h322l11 -14l-13 -146l-159 6h-103l-2 -91h99l104 3l11 -14l-12 -146l-116 3h-91v-38l2 -56h96l166 6l11 -14l-12 -146h-314q-33 2 -110.5 -5t-117.5 -7q-146 0 -225.5 85t-79.5 240q0 164 87.5 255t243.5 91zM331 499q-62 0 -83 -35.5
t-21 -133.5q0 -108 24 -151t87 -43q52 0 67 15q13 13 12 54l-5 229q-1 38 -11 49q-15 16 -70 16z" />
    <glyph glyph-name="oe" unicode="&#x153;" horiz-adv-x="763" 
d="M298 522q37 0 94 -4.5t80 -4.5h274l10 -13l-12 -135l-135 6h-82l-2 -44h81l86 3l10 -13l-11 -135l-97 3h-74v-16l2 -27h77l140 5l10 -12l-11 -135h-266q-28 2 -95.5 -3.5t-101.5 -5.5q-123 0 -190 66.5t-67 189.5q0 131 74 203t206 72zM282 375q-44 0 -57 -21.5
t-13 -90.5q0 -80 15.5 -108t61.5 -28q44 0 53 12q9 13 8 47l-4 134q-2 32 -9 41q-11 14 -55 14z" />
    <glyph glyph-name="Racute" unicode="&#x154;" horiz-adv-x="631" 
d="M236 697l-44 72q102 76 201 161l17 -1l69 -107l-3 -17q-142 -72 -223 -109zM486 255q72 -112 144 -208l-3 -22q-102 -31 -201 -37l-19 16q-64 137 -86 189h-67l7 -193h-201l10 190l-10 457l307 1q109 0 168 -51.5t59 -148.5q0 -117 -108 -193zM383 428q0 40 -20.5 59.5
t-66.5 21.5l-36 -3l-4 -167l73 -4q54 24 54 93z" />
    <glyph glyph-name="racute" unicode="&#x155;" horiz-adv-x="557" 
d="M186 563l-44 72q102 76 201 161l17 -1l69 -107l-3 -17q-142 -72 -223 -109zM436 199q72 -102 116 -156l-3 -20q-93 -27 -181 -33l-25 19q-42 91 -61 133h-50l7 -142h-186l9 149l-9 364h274q93 0 144 -41.5t51 -119.5q0 -89 -86 -153zM237 384l-3 -108l55 -4q37 18 37 61
q0 27 -15 39t-51 14z" />
    <glyph glyph-name="Rcommaaccent" unicode="&#x156;" horiz-adv-x="631" 
d="M486 255q72 -112 144 -208l-3 -22q-102 -31 -201 -37l-19 16q-64 137 -86 189h-67l7 -193h-201l10 190l-10 457l307 1q109 0 168 -51.5t59 -148.5q0 -117 -108 -193zM383 428q0 40 -20.5 59.5t-66.5 21.5l-36 -3l-4 -167l73 -4q54 24 54 93zM368 -25q41 -40 41 -91
q0 -97 -130 -188l-52 46l-2 12q48 42 48 93q0 36 -28 64v14q61 35 123 50z" />
    <glyph glyph-name="rcommaaccent" unicode="&#x157;" horiz-adv-x="557" 
d="M436 199q72 -102 116 -156l-3 -20q-93 -27 -181 -33l-25 19q-42 91 -61 133h-50l7 -142h-186l9 149l-9 364h274q93 0 144 -41.5t51 -119.5q0 -89 -86 -153zM237 384l-3 -108l55 -4q37 18 37 61q0 27 -15 39t-51 14zM318 -25q41 -40 41 -91q0 -97 -130 -188l-52 46l-2 12
q48 42 48 93q0 36 -28 64v14q61 35 123 50z" />
    <glyph glyph-name="Rcaron" unicode="&#x158;" horiz-adv-x="631" 
d="M333 701h-34q-70 70 -163 150l47 72h18q76 -48 115 -78q39 30 115 78h18l47 -72q-69 -58 -163 -150zM486 255q72 -112 144 -208l-3 -22q-102 -31 -201 -37l-19 16q-64 137 -86 189h-67l7 -193h-201l10 190l-10 457l307 1q109 0 168 -51.5t59 -148.5q0 -117 -108 -193z
M383 428q0 40 -20.5 59.5t-66.5 21.5l-36 -3l-4 -167l73 -4q54 24 54 93z" />
    <glyph glyph-name="rcaron" unicode="&#x159;" horiz-adv-x="557" 
d="M283 567h-34q-70 70 -163 150l47 72h18q76 -48 115 -78q39 30 115 78h18l47 -72q-69 -58 -163 -150zM436 199q72 -102 116 -156l-3 -20q-93 -27 -181 -33l-25 19q-42 91 -61 133h-50l7 -142h-186l9 149l-9 364h274q93 0 144 -41.5t51 -119.5q0 -89 -86 -153zM237 384
l-3 -108l55 -4q37 18 37 61q0 27 -15 39t-51 14z" />
    <glyph glyph-name="Sacute" unicode="&#x15a;" horiz-adv-x="528" 
d="M369 929l69 -107l-3 -17q-142 -72 -223 -109l-17 1l-44 72q102 76 201 161zM305 659q95 0 188 -35l-32 -163l-28 -12q-91 56 -149 56q-23 0 -36.5 -9t-13.5 -24q0 -20 28 -37.5t67.5 -34t79.5 -38.5t68 -62.5t28 -93.5q0 -93 -75 -155.5t-198 -62.5q-102 0 -214 38
l29 174l20 12q46 -35 98.5 -55.5t87.5 -20.5q53 0 53 33q0 21 -27.5 39t-67 34.5t-79.5 38t-67.5 62t-27.5 94.5q0 96 75 159t193 63z" />
    <glyph glyph-name="sacute" unicode="&#x15b;" horiz-adv-x="469" 
d="M344 795l69 -107l-3 -17q-142 -72 -223 -109l-17 1l-44 72q102 76 201 161zM269 523q81 0 158 -27l-27 -154l-26 -7q-35 23 -72.5 37t-58.5 14t-21 -13q0 -14 22 -25t53.5 -22t63 -27.5t53.5 -49.5t22 -79q0 -75 -57 -128.5t-174 -53.5q-90 0 -181 28l27 161l17 13
q39 -31 85 -51t76 -20q24 0 24 16q0 13 -22 24t-53.5 22t-63 28t-53.5 50.5t-22 80.5q0 80 61 131.5t169 51.5z" />
    <glyph glyph-name="Scircumflex" unicode="&#x15c;" horiz-adv-x="528" 
d="M142 705l-47 72q69 58 163 150h34q70 -70 163 -150l-47 -72h-18q-76 48 -115 78q-39 -30 -115 -78h-18zM305 659q95 0 188 -35l-32 -163l-28 -12q-91 56 -149 56q-23 0 -36.5 -9t-13.5 -24q0 -20 28 -37.5t67.5 -34t79.5 -38.5t68 -62.5t28 -93.5q0 -93 -75 -155.5
t-198 -62.5q-102 0 -214 38l29 174l20 12q46 -35 98.5 -55.5t87.5 -20.5q53 0 53 33q0 21 -27.5 39t-67 34.5t-79.5 38t-67.5 62t-27.5 94.5q0 96 75 159t193 63z" />
    <glyph glyph-name="scircumflex" unicode="&#x15d;" horiz-adv-x="469" 
d="M117 571l-47 72q69 58 163 150h34q70 -70 163 -150l-47 -72h-18q-76 48 -115 78q-39 -30 -115 -78h-18zM269 523q81 0 158 -27l-27 -154l-26 -7q-35 23 -72.5 37t-58.5 14t-21 -13q0 -14 22 -25t53.5 -22t63 -27.5t53.5 -49.5t22 -79q0 -75 -57 -128.5t-174 -53.5
q-90 0 -181 28l27 161l17 13q39 -31 85 -51t76 -20q24 0 24 16q0 13 -22 24t-53.5 22t-63 28t-53.5 50.5t-22 80.5q0 80 61 131.5t169 51.5z" />
    <glyph glyph-name="Scedilla" unicode="&#x15e;" horiz-adv-x="528" 
d="M505 206q0 -80 -57.5 -139t-154.5 -74l-6 -35l34 -19q44 -23 44 -63q0 -37 -29.5 -60.5t-80.5 -23.5q-49 0 -92 24l11 75l8 3q33 -28 60 -28q16 0 16 14q0 9 -12 15l-50 27l13 66q-90 4 -191 38l29 174l20 12q46 -35 98.5 -55.5t87.5 -20.5q53 0 53 33q0 21 -27.5 39
t-67 34.5t-79.5 38t-67.5 62t-27.5 94.5q0 96 75 159t193 63q95 0 188 -35l-32 -163l-28 -12q-91 56 -149 56q-23 0 -36.5 -9t-13.5 -24q0 -20 28 -37.5t67.5 -34t79.5 -38.5t68 -62.5t28 -93.5z" />
    <glyph glyph-name="scedilla" unicode="&#x15f;" horiz-adv-x="469" 
d="M436 170q0 -67 -45.5 -118t-139.5 -61l-6 -33l34 -19q44 -23 44 -63q0 -37 -29.5 -60.5t-80.5 -23.5q-49 0 -92 24l11 75l8 3q33 -28 60 -28q16 0 16 14q0 9 -12 15l-50 27l13 67q-74 5 -143 27l27 161l17 13q39 -31 85 -51t76 -20q24 0 24 16q0 13 -22 24t-53.5 22
t-63 28t-53.5 50.5t-22 80.5q0 80 61 131.5t169 51.5q81 0 158 -27l-27 -154l-26 -7q-35 23 -72.5 37t-58.5 14t-21 -13q0 -14 22 -25t53.5 -22t63 -27.5t53.5 -49.5t22 -79z" />
    <glyph glyph-name="Scaron" unicode="&#x160;" horiz-adv-x="528" 
d="M408 923l47 -72q-69 -58 -163 -150h-34q-70 70 -163 150l47 72h18q76 -48 115 -78q39 30 115 78h18zM305 659q95 0 188 -35l-32 -163l-28 -12q-91 56 -149 56q-23 0 -36.5 -9t-13.5 -24q0 -20 28 -37.5t67.5 -34t79.5 -38.5t68 -62.5t28 -93.5q0 -93 -75 -155.5
t-198 -62.5q-102 0 -214 38l29 174l20 12q46 -35 98.5 -55.5t87.5 -20.5q53 0 53 33q0 21 -27.5 39t-67 34.5t-79.5 38t-67.5 62t-27.5 94.5q0 96 75 159t193 63z" />
    <glyph glyph-name="scaron" unicode="&#x161;" horiz-adv-x="469" 
d="M383 789l47 -72q-69 -58 -163 -150h-34q-70 70 -163 150l47 72h18q76 -48 115 -78q39 30 115 78h18zM269 523q81 0 158 -27l-27 -154l-26 -7q-35 23 -72.5 37t-58.5 14t-21 -13q0 -14 22 -25t53.5 -22t63 -27.5t53.5 -49.5t22 -79q0 -75 -57 -128.5t-174 -53.5
q-90 0 -181 28l27 161l17 13q39 -31 85 -51t76 -20q24 0 24 16q0 13 -22 24t-53.5 22t-63 28t-53.5 50.5t-22 80.5q0 80 61 131.5t169 51.5z" />
    <glyph glyph-name="Tcedilla" unicode="&#x162;" horiz-adv-x="519" 
d="M358 493l-5 -283l8 -210h-60l-8 -42l34 -19q44 -23 44 -63q0 -37 -29.5 -60.5t-80.5 -23.5q-49 0 -92 24l11 75l8 3q33 -28 60 -28q16 0 16 14q0 9 -12 15l-50 27l15 78h-56l10 190l-5 303h-13l-133 -6l-12 14l11 146h483l11 -14l-11 -146l-132 6h-12z" />
    <glyph glyph-name="tcedilla" unicode="&#x163;" horiz-adv-x="457" 
d="M313 371l-4 -203l7 -168h-47l-8 -43l34 -19q44 -23 44 -63q0 -37 -29.5 -60.5t-80.5 -23.5q-49 0 -92 24l11 75l8 3q33 -28 60 -28q16 0 16 14q0 9 -12 15l-50 27l16 79h-55l9 149l-4 222h-4l-114 -6l-11 13l10 135h412l10 -13l-10 -135l-113 6h-3z" />
    <glyph glyph-name="Tcaron" unicode="&#x164;" horiz-adv-x="519" 
d="M278 701h-34q-70 70 -163 150l47 72h18q76 -48 115 -78q39 30 115 78h18l47 -72q-69 -58 -163 -150zM513 633l-11 -146l-132 6h-12l-5 -283l8 -210h-200l10 190l-5 303h-13l-133 -6l-12 14l11 146h483z" />
    <glyph glyph-name="tcaron" unicode="&#x165;" horiz-adv-x="457" 
d="M233 567h-34q-70 70 -163 150l47 72h18q76 -48 115 -78q39 30 115 78h18l47 -72q-69 -58 -163 -150zM444 500l-10 -135l-113 6h-3l-4 -203l7 -168h-185l9 149l-4 222h-4l-114 -6l-11 13l10 135h412z" />
    <glyph glyph-name="Tbar" unicode="&#x166;" horiz-adv-x="519" 
d="M358 493l-3 -158h90l12 -13l-7 -88h-97v-24l8 -210h-200l10 190l-1 44h-81l-12 13l7 88h85l-3 158h-13l-133 -6l-12 14l11 146h483l11 -14l-11 -146l-132 6h-12z" />
    <glyph glyph-name="tbar" unicode="&#x167;" horiz-adv-x="457" 
d="M318 371l-2 -116h72l12 -13l-7 -88h-78l6 -154h-185l9 149v5h-73l-12 13l7 88h76l-2 116h-4l-114 -6l-11 13l10 135h412l10 -13l-10 -135l-113 6h-3z" />
    <glyph glyph-name="Umacron" unicode="&#x16a;" 
d="M476 853l-9 -107h-276l-12 13l9 107h276zM600 319l-1 -103q-1 -110 -74 -169t-209 -59q-131 0 -200.5 59t-66.5 169l3 103l-6 328h201l-9 -404q-1 -51 19.5 -74t66.5 -23q47 0 68 23t20 74l-9 404h204z" />
    <glyph glyph-name="umacron" unicode="&#x16b;" horiz-adv-x="566" 
d="M432 719l-9 -107h-276l-12 13l9 107h276zM518 253l-1 -84q-1 -87 -64 -133.5t-180 -46.5q-113 0 -172 46.5t-56 133.5l2 83l-5 261h185l-8 -319q-1 -32 13 -45.5t49 -13.5t49.5 13.5t13.5 45.5l-8 319h188z" />
    <glyph glyph-name="Ubreve" unicode="&#x16c;" 
d="M466 908l40 -62q-19 -58 -65 -97t-118 -39q-71 0 -113.5 39.5t-59.5 96.5l40 62h27q33 -63 112 -63q80 0 110 63h27zM600 319l-1 -103q-1 -110 -74 -169t-209 -59q-131 0 -200.5 59t-66.5 169l3 103l-6 328h201l-9 -404q-1 -51 19.5 -74t66.5 -23q47 0 68 23t20 74
l-9 404h204z" />
    <glyph glyph-name="ubreve" unicode="&#x16d;" horiz-adv-x="566" 
d="M422 774l40 -62q-19 -58 -65 -97t-118 -39q-71 0 -113.5 39.5t-59.5 96.5l40 62h27q33 -63 112 -63q80 0 110 63h27zM518 253l-1 -84q-1 -87 -64 -133.5t-180 -46.5q-113 0 -172 46.5t-56 133.5l2 83l-5 261h185l-8 -319q-1 -32 13 -45.5t49 -13.5t49.5 13.5t13.5 45.5
l-8 319h188z" />
    <glyph glyph-name="Uring" unicode="&#x16e;" 
d="M331 931q106 0 106 -104q0 -55 -29 -84.5t-85 -29.5q-106 0 -106 107q0 111 114 111zM326 853q-19 0 -26.5 -6.5t-7.5 -23.5q0 -19 8 -26.5t28 -7.5q19 0 26.5 7t7.5 24q0 18 -8 25.5t-28 7.5zM600 319l-1 -103q-1 -110 -74 -169t-209 -59q-131 0 -200.5 59t-66.5 169
l3 103l-6 328h201l-9 -404q-1 -51 19.5 -74t66.5 -23q47 0 68 23t20 74l-9 404h204z" />
    <glyph glyph-name="uring" unicode="&#x16f;" horiz-adv-x="566" 
d="M287 797q106 0 106 -104q0 -55 -29 -84.5t-85 -29.5q-106 0 -106 107q0 111 114 111zM282 719q-19 0 -26.5 -6.5t-7.5 -23.5q0 -19 8 -26.5t28 -7.5q19 0 26.5 7t7.5 24q0 18 -8 25.5t-28 7.5zM518 253l-1 -84q-1 -87 -64 -133.5t-180 -46.5q-113 0 -172 46.5t-56 133.5
l2 83l-5 261h185l-8 -319q-1 -32 13 -45.5t49 -13.5t49.5 13.5t13.5 45.5l-8 319h188z" />
    <glyph glyph-name="Uhungarumlaut" unicode="&#x170;" 
d="M220 711l-59 46q68 98 99 149l14 4l90 -58l3 -14q-63 -64 -131 -122zM389 711l-59 46q81 120 99 149l13 4l91 -58l3 -14q-69 -67 -132 -122zM600 319l-1 -103q-1 -110 -74 -169t-209 -59q-131 0 -200.5 59t-66.5 169l3 103l-6 328h201l-9 -404q-1 -51 19.5 -74t66.5 -23
q47 0 68 23t20 74l-9 404h204z" />
    <glyph glyph-name="uhungarumlaut" unicode="&#x171;" horiz-adv-x="566" 
d="M180 563l-58 46q59 95 112 191l13 4l90 -63l3 -14q-62 -73 -145 -159zM345 563l-58 46q59 95 112 191l13 4l90 -63l3 -14q-62 -73 -145 -159zM518 253l-1 -84q-1 -87 -64 -133.5t-180 -46.5q-113 0 -172 46.5t-56 133.5l2 83l-5 261h185l-8 -319q-1 -32 13 -45.5
t49 -13.5t49.5 13.5t13.5 45.5l-8 319h188z" />
    <glyph glyph-name="Uogonek" unicode="&#x172;" 
d="M607 647l-7 -328l-1 -103q0 -109 -74 -169l-44 -69q-16 -24 -16 -44q0 -33 36 -33q29 0 61 20h10l12 -72q-60 -46 -111 -46q-48 0 -76 27.5t-28 69.5q0 44 33 91l3 5q-43 -8 -89 -8q-131 0 -200.5 59t-66.5 169l3 103l-6 328h201l-9 -404q-1 -51 19.5 -74t66.5 -23
q47 0 68 23t20 74l-9 404h204z" />
    <glyph glyph-name="uogonek" unicode="&#x173;" horiz-adv-x="566" 
d="M524 513l-6 -260l-1 -84q-2 -106 -92 -150l-28 -43q-16 -24 -16 -44q0 -33 36 -33q29 0 61 20h10l12 -72q-60 -46 -111 -46q-48 0 -76 27.5t-28 69.5q0 47 33 91l2 2q-30 -2 -47 -2q-113 0 -172 46.5t-56 133.5l2 83l-5 261h185l-8 -319q-1 -32 13 -45.5t49 -13.5
t49.5 13.5t13.5 45.5l-8 319h188z" />
    <glyph glyph-name="Wcircumflex" unicode="&#x174;" horiz-adv-x="914" 
d="M315 721l-34 76q90 62 153 119h34q63 -57 153 -119l-34 -76h-18l-118 60q-19 -10 -59 -30t-59 -30h-18zM723 0h-212l-61 234h-12l-56 -234h-213l-152 647h194l10 -100l63 -346h12l75 295l-34 151h202l14 -120l68 -326h12l79 334l18 112h184z" />
    <glyph glyph-name="wcircumflex" unicode="&#x175;" horiz-adv-x="780" 
d="M242 571l-47 72q69 58 163 150h34q70 -70 163 -150l-47 -72h-18q-76 48 -115 78q-39 -30 -115 -78h-18zM625 0h-201l-39 150h-11l-34 -150h-201l-118 513h183l8 -89l36 -236h11l51 209l-25 116h191l12 -109l41 -216h11l49 225l16 100h173z" />
    <glyph glyph-name="Ycircumflex" unicode="&#x176;" horiz-adv-x="594" 
d="M161 721l-34 76q90 62 153 119h34q63 -57 153 -119l-34 -76h-18l-118 60q-20 -10 -59 -30t-59 -30h-18zM382 170l8 -170h-200l10 170l-1 31l-207 446h210l16 -54l73 -195h12l84 188l23 61h204l-230 -439z" />
    <glyph glyph-name="ycircumflex" unicode="&#x177;" horiz-adv-x="525" 
d="M136 571l-47 72q69 58 163 150h34q70 -70 163 -150l-47 -72h-18q-76 48 -115 78q-39 -30 -115 -78h-18zM340 131l8 -131h-185l9 131l-1 17l-174 365h194l14 -47l52 -133h10l61 126l20 54h189l-196 -360z" />
    <glyph glyph-name="Ydieresis" unicode="&#x178;" horiz-adv-x="594" 
d="M198 719q-40 0 -61 21.5t-21 61.5q0 42 24 66t65 24q38 0 59.5 -21.5t21.5 -60.5q0 -42 -23.5 -66.5t-64.5 -24.5zM391 719q-40 0 -61 21.5t-21 61.5q0 42 24 66t65 24q38 0 59.5 -21.5t21.5 -60.5q0 -42 -23.5 -66.5t-64.5 -24.5zM382 170l8 -170h-200l10 170l-1 31
l-207 446h210l16 -54l73 -195h12l84 188l23 61h204l-230 -439z" />
    <glyph glyph-name="Zacute" unicode="&#x179;" horiz-adv-x="570" 
d="M398 914l49 -117l-6 -16q-132 -42 -238 -69l-17 4l-30 79q118 60 225 123zM538 504l-275 -356h161l123 9l6 -9l-16 -153l-178 5h-230l-101 -6v143l280 362h-157l-120 -10l-7 8l14 153l150 -3h274l76 1v-144z" />
    <glyph glyph-name="zacute" unicode="&#x17a;" horiz-adv-x="499" 
d="M331 795l69 -107l-3 -17q-142 -72 -223 -109l-17 1l-44 72q102 76 201 161zM466 381l-217 -245h117l108 8l5 -7l-14 -142l-160 5h-185l-90 -5v131l221 250h-114l-107 -9l-6 7l13 141l134 -2h295v-132z" />
    <glyph glyph-name="Zdotaccent" unicode="&#x17b;" horiz-adv-x="570" 
d="M289 903q44 0 68.5 -25t24.5 -70q0 -48 -27 -76t-74 -28q-46 0 -70 24.5t-24 70.5q0 48 27.5 76t74.5 28zM538 504l-275 -356h161l123 9l6 -9l-16 -153l-178 5h-230l-101 -6v143l280 362h-157l-120 -10l-7 8l14 153l150 -3h274l76 1v-144z" />
    <glyph glyph-name="zdotaccent" unicode="&#x17c;" horiz-adv-x="499" 
d="M241 769q44 0 68.5 -25t24.5 -70q0 -48 -27 -76t-74 -28q-46 0 -70 24.5t-24 70.5q0 48 27.5 76t74.5 28zM466 381l-217 -245h117l108 8l5 -7l-14 -142l-160 5h-185l-90 -5v131l221 250h-114l-107 -9l-6 7l13 141l134 -2h295v-132z" />
    <glyph glyph-name="Zcaron" unicode="&#x17d;" horiz-adv-x="570" 
d="M421 907l34 -76q-90 -62 -153 -119h-34q-63 57 -153 119l34 76h18l118 -60q20 10 59 30t59 30h18zM538 504l-275 -356h161l123 9l6 -9l-16 -153l-178 5h-230l-101 -6v143l280 362h-157l-120 -10l-7 8l14 153l150 -3h274l76 1v-144z" />
    <glyph glyph-name="zcaron" unicode="&#x17e;" horiz-adv-x="499" 
d="M370 789l47 -72q-69 -58 -163 -150h-34q-70 70 -163 150l47 72h18q76 -48 115 -78q39 30 115 78h18zM466 381l-217 -245h117l108 8l5 -7l-14 -142l-160 5h-185l-90 -5v131l221 250h-114l-107 -9l-6 7l13 141l134 -2h295v-132z" />
    <glyph glyph-name="florin" unicode="&#x192;" horiz-adv-x="361" 
d="M359 626q43 0 89 -9l-27 -131l-13 -8q-54 22 -84 22q-40 0 -47 -39l-9 -64h91l4 -10l-10 -97h-100l-15 -104l-13 -122q-9 -76 -46.5 -126.5t-117.5 -88.5l-80 79l2 14q61 36 74 118l13 107l12 123h-66l-4 9l11 98h71l4 32q12 95 80.5 146t180.5 51z" />
    <glyph glyph-name="Ohorn" unicode="&#x1a0;" horiz-adv-x="661" 
d="M612 789q37 0 60.5 -29t23.5 -74q0 -52 -33 -90t-84 -50q57 -82 57 -210q0 -163 -84.5 -255.5t-236.5 -92.5q-143 0 -220.5 84.5t-77.5 238.5q0 164 83.5 256t221.5 92q48 0 105.5 -14t71.5 -14q46 0 46 45q0 36 -29 62l3 14q51 37 93 37zM321 499q-56 0 -75 -34
t-19 -137q0 -113 22 -152.5t84 -39.5q55 0 74 34t19 138q0 112 -21.5 151.5t-83.5 39.5z" />
    <glyph glyph-name="ohorn" unicode="&#x1a1;" horiz-adv-x="572" 
d="M437 582l3 13q49 34 86 34q33 0 54 -24t21 -61q0 -43 -27.5 -75t-71.5 -44q44 -63 44 -158q0 -130 -72.5 -204t-201.5 -74q-122 0 -188 67t-66 189q0 130 71.5 204t187.5 74q40 0 89 -10.5t60 -10.5q35 0 35 33q0 29 -24 47zM289 126q40 0 51.5 20t11.5 95
q0 84 -14 109.5t-61 25.5q-41 0 -53 -20.5t-12 -94.5q0 -84 15 -109.5t62 -25.5z" />
    <glyph glyph-name="Uhorn" unicode="&#x1af;" horiz-adv-x="663" 
d="M706 713q0 -42 -26.5 -77.5t-73.5 -57.5l-6 -259l-1 -103q-1 -110 -74 -169t-209 -59q-131 0 -200.5 59t-66.5 169l3 103l-6 328h201l-9 -404q-1 -51 19.5 -74t66.5 -23q47 0 68 23t20 74l-9 404h95q31 0 44 11t13 37q0 35 -29 59l3 14q52 37 94 37q36 0 59.5 -26
t23.5 -66z" />
    <glyph glyph-name="uhorn" unicode="&#x1b0;" horiz-adv-x="576" 
d="M610 567q0 -36 -25 -67.5t-67 -50.5l-5 -196l-1 -84q-1 -87 -64 -133.5t-180 -46.5q-113 0 -172 46.5t-56 133.5l2 83l-5 261h185l-8 -319q-1 -32 13 -45.5t49 -13.5t49.5 13.5t13.5 45.5l-8 319h93q25 0 35.5 8.5t10.5 28.5q0 30 -24 46l3 13q49 34 87 34
q33 0 53.5 -21.5t20.5 -54.5z" />
    <glyph glyph-name="Acaron" unicode="&#x1cd;" horiz-adv-x="627" 
d="M332 712h-34q-63 57 -153 119l34 76h18l118 -60q20 10 59 30t59 30h18l34 -76q-90 -62 -153 -119zM617 0h-203l-18 107l-1 3l-98 2l-82 -4l-17 -108h-196l196 647h242zM365 256l-44 212h-12l-56 -212l56 -1z" />
    <glyph glyph-name="acaron" unicode="&#x1ce;" horiz-adv-x="549" 
d="M299 567h-34q-70 70 -163 150l47 72h18q76 -48 115 -78q39 30 115 78h18l47 -72q-69 -58 -163 -150zM346 0l-11 71l-76 2l-60 -3l-11 -70h-181l159 513h224l144 -513h-188zM270 205l39 1l-29 143h-11l-38 -143z" />
    <glyph glyph-name="Icaron" unicode="&#x1cf;" horiz-adv-x="327" 
d="M298 907l34 -76q-90 -62 -153 -119h-34q-63 57 -153 119l34 76h18l118 -60q20 10 59.5 30t58.5 30h18zM253 210l8 -210h-201l10 190l-10 457h204z" />
    <glyph glyph-name="icaron" unicode="&#x1d0;" horiz-adv-x="303" 
d="M286 789l47 -72q-69 -58 -163 -150h-34q-70 70 -163 150l47 72h18q76 -48 115 -78q39 30 115 78h18zM231 168l8 -168h-186l9 149l-9 364h189z" />
    <glyph glyph-name="Ocaron" unicode="&#x1d1;" 
d="M463 907l34 -76q-90 -62 -153 -119h-34q-63 57 -153 119l34 76h18l118 -60q19 10 58.5 30t59.5 30h18zM341 659q141 0 218 -83.5t77 -235.5q0 -168 -84.5 -260t-239.5 -92q-141 0 -218 84.5t-77 239.5q0 166 84.5 256.5t239.5 90.5zM323 499q-56 0 -76 -32.5t-20 -127.5
q0 -121 21 -162t82 -41q57 0 76.5 32.5t19.5 128.5q0 120 -21 161t-82 41z" />
    <glyph glyph-name="ocaron" unicode="&#x1d2;" horiz-adv-x="565" 
d="M417 789l47 -72q-69 -58 -163 -150h-34q-70 70 -163 150l47 72h18q76 -48 115 -78q39 30 115 78h18zM295 523q120 0 185.5 -66t65.5 -187q0 -134 -72.5 -207.5t-204.5 -73.5q-120 0 -185.5 67.5t-65.5 189.5q0 132 72.5 204.5t204.5 72.5zM278 376q-41 0 -53.5 -19
t-12.5 -86q0 -92 14 -118.5t60 -26.5q42 0 54 18.5t12 85.5q0 92 -13.5 119t-60.5 27z" />
    <glyph glyph-name="Ucaron" unicode="&#x1d3;" 
d="M460 923l47 -72q-69 -58 -163 -150h-34q-70 70 -163 150l47 72h18q76 -48 115 -78q39 30 115 78h18zM600 319l-1 -103q-1 -110 -74 -169t-209 -59q-131 0 -200.5 59t-66.5 169l3 103l-6 328h201l-9 -404q-1 -51 19.5 -74t66.5 -23q47 0 68 23t20 74l-9 404h204z" />
    <glyph glyph-name="ucaron" unicode="&#x1d4;" horiz-adv-x="566" 
d="M416 789l47 -72q-69 -58 -163 -150h-34q-70 70 -163 150l47 72h18q76 -48 115 -78q39 30 115 78h18zM518 253l-1 -84q-1 -87 -64 -133.5t-180 -46.5q-113 0 -172 46.5t-56 133.5l2 83l-5 261h185l-8 -319q-1 -32 13 -45.5t49 -13.5t49.5 13.5t13.5 45.5l-8 319h188z" />
    <glyph glyph-name="Udieresismacron" unicode="&#x1d5;" 
d="M491 1026l-10 -107h-303l-13 13l10 107h303zM235 872q38 0 59 -21.5t21 -60.5q0 -42 -23.5 -66.5t-63.5 -24.5t-61 21.5t-21 61.5q0 41 24 65.5t65 24.5zM428 872q38 0 59 -21.5t21 -60.5q0 -42 -23.5 -66.5t-63.5 -24.5t-61 21.5t-21 61.5q0 41 24 65.5t65 24.5z
M600 319l-1 -103q-1 -110 -74 -169t-209 -59q-131 0 -200.5 59t-66.5 169l3 103l-6 328h201l-9 -404q-1 -51 19.5 -74t66.5 -23q47 0 68 23t20 74l-9 404h204z" />
    <glyph glyph-name="udieresismacron" unicode="&#x1d6;" horiz-adv-x="566" 
d="M447 892l-10 -107h-303l-13 13l10 107h303zM191 738q38 0 59 -21.5t21 -60.5q0 -42 -23.5 -66.5t-63.5 -24.5t-61 21.5t-21 61.5q0 41 24 65.5t65 24.5zM384 738q38 0 59 -21.5t21 -60.5q0 -42 -23.5 -66.5t-63.5 -24.5t-61 21.5t-21 61.5q0 41 24 65.5t65 24.5zM518 253
l-1 -84q-1 -87 -64 -133.5t-180 -46.5q-113 0 -172 46.5t-56 133.5l2 83l-5 261h185l-8 -319q-1 -32 13 -45.5t49 -13.5t49.5 13.5t13.5 45.5l-8 319h188z" />
    <glyph glyph-name="Udieresisacute" unicode="&#x1d7;" 
d="M437 1076l28 -124l-9 -15q-154 -19 -246 -26l-16 7l-16 83q130 39 243 82zM235 872q38 0 59 -21.5t21 -60.5q0 -42 -23.5 -66.5t-63.5 -24.5t-61 21.5t-21 61.5q0 41 24 65.5t65 24.5zM428 872q38 0 59 -21.5t21 -60.5q0 -42 -23.5 -66.5t-63.5 -24.5t-61 21.5t-21 61.5
q0 41 24 65.5t65 24.5zM600 319l-1 -103q-1 -110 -74 -169t-209 -59q-131 0 -200.5 59t-66.5 169l3 103l-6 328h201l-9 -404q-1 -51 19.5 -74t66.5 -23q47 0 68 23t20 74l-9 404h204z" />
    <glyph glyph-name="udieresisacute" unicode="&#x1d8;" horiz-adv-x="566" 
d="M393 942l28 -124l-9 -15q-154 -19 -246 -26l-16 7l-16 83q130 39 243 82zM191 738q38 0 59 -21.5t21 -60.5q0 -42 -23.5 -66.5t-63.5 -24.5t-61 21.5t-21 61.5q0 41 24 65.5t65 24.5zM384 738q38 0 59 -21.5t21 -60.5q0 -42 -23.5 -66.5t-63.5 -24.5t-61 21.5t-21 61.5
q0 41 24 65.5t65 24.5zM518 253l-1 -84q-1 -87 -64 -133.5t-180 -46.5q-113 0 -172 46.5t-56 133.5l2 83l-5 261h185l-8 -319q-1 -32 13 -45.5t49 -13.5t49.5 13.5t13.5 45.5l-8 319h188z" />
    <glyph glyph-name="Udieresiscaron" unicode="&#x1d9;" 
d="M462 1070l34 -76q-90 -62 -153 -119h-34q-63 57 -153 119l34 76h18l118 -60q20 10 59 30t59 30h18zM235 872q38 0 59 -21.5t21 -60.5q0 -42 -23.5 -66.5t-63.5 -24.5t-61 21.5t-21 61.5q0 41 24 65.5t65 24.5zM428 872q38 0 59 -21.5t21 -60.5q0 -42 -23.5 -66.5
t-63.5 -24.5t-61 21.5t-21 61.5q0 41 24 65.5t65 24.5zM600 319l-1 -103q-1 -110 -74 -169t-209 -59q-131 0 -200.5 59t-66.5 169l3 103l-6 328h201l-9 -404q-1 -51 19.5 -74t66.5 -23q47 0 68 23t20 74l-9 404h204z" />
    <glyph glyph-name="udieresiscaron" unicode="&#x1da;" horiz-adv-x="566" 
d="M418 936l34 -76q-90 -62 -153 -119h-34q-63 57 -153 119l34 76h18l118 -60q20 10 59 30t59 30h18zM191 738q38 0 59 -21.5t21 -60.5q0 -42 -23.5 -66.5t-63.5 -24.5t-61 21.5t-21 61.5q0 41 24 65.5t65 24.5zM384 738q38 0 59 -21.5t21 -60.5q0 -42 -23.5 -66.5
t-63.5 -24.5t-61 21.5t-21 61.5q0 41 24 65.5t65 24.5zM518 253l-1 -84q-1 -87 -64 -133.5t-180 -46.5q-113 0 -172 46.5t-56 133.5l2 83l-5 261h185l-8 -319q-1 -32 13 -45.5t49 -13.5t49.5 13.5t13.5 45.5l-8 319h188z" />
    <glyph glyph-name="Udieresisgrave" unicode="&#x1db;" 
d="M206 1076l16 7q113 -43 243 -82l-16 -83l-16 -7q-92 7 -246 26l-9 15zM235 872q38 0 59 -21.5t21 -60.5q0 -42 -23.5 -66.5t-63.5 -24.5t-61 21.5t-21 61.5q0 41 24 65.5t65 24.5zM428 872q38 0 59 -21.5t21 -60.5q0 -42 -23.5 -66.5t-63.5 -24.5t-61 21.5t-21 61.5
q0 41 24 65.5t65 24.5zM600 319l-1 -103q-1 -110 -74 -169t-209 -59q-131 0 -200.5 59t-66.5 169l3 103l-6 328h201l-9 -404q-1 -51 19.5 -74t66.5 -23q47 0 68 23t20 74l-9 404h204z" />
    <glyph glyph-name="udieresisgrave" unicode="&#x1dc;" horiz-adv-x="566" 
d="M162 942l16 7q113 -43 243 -82l-16 -83l-16 -7q-92 7 -246 26l-9 15zM191 738q38 0 59 -21.5t21 -60.5q0 -42 -23.5 -66.5t-63.5 -24.5t-61 21.5t-21 61.5q0 41 24 65.5t65 24.5zM384 738q38 0 59 -21.5t21 -60.5q0 -42 -23.5 -66.5t-63.5 -24.5t-61 21.5t-21 61.5
q0 41 24 65.5t65 24.5zM518 253l-1 -84q-1 -87 -64 -133.5t-180 -46.5q-113 0 -172 46.5t-56 133.5l2 83l-5 261h185l-8 -319q-1 -32 13 -45.5t49 -13.5t49.5 13.5t13.5 45.5l-8 319h188z" />
    <glyph glyph-name="Oogonek" unicode="&#x1ea;" 
d="M444 9l-21 -31q-16 -24 -16 -44q0 -33 36 -33q29 0 61 20h10l12 -72q-60 -46 -111 -46q-48 0 -76 27.5t-28 69.5q0 45 32 89q-10 -1 -31 -1q-141 0 -218 84.5t-77 239.5q0 166 84.5 256.5t239.5 90.5q141 0 218 -83.5t77 -235.5q0 -128 -49.5 -212.5t-142.5 -118.5z
M227 339q0 -121 21 -162t82 -41q57 0 76.5 32.5t19.5 128.5q0 120 -21 161t-82 41q-56 0 -76 -32.5t-20 -127.5z" />
    <glyph glyph-name="oogonek" unicode="&#x1eb;" horiz-adv-x="565" 
d="M357 -1l-14 -21q-16 -24 -16 -44q0 -33 36 -33q29 0 61 20h10l12 -72q-60 -46 -111 -46q-48 0 -76 27.5t-28 69.5q0 45 32 89q-117 2 -181 69t-64 188q0 132 72.5 204.5t204.5 72.5q120 0 185.5 -66t65.5 -187q0 -109 -49 -178.5t-140 -92.5zM212 271q0 -92 14 -118.5
t60 -26.5q42 0 54 18.5t12 85.5q0 92 -13.5 119t-60.5 27q-41 0 -53.5 -19t-12.5 -86z" />
    <glyph glyph-name="Aringacute" unicode="&#x1fa;" horiz-adv-x="627" 
d="M218 807l-18 82q117 40 240 91l16 -6l32 -123l-8 -15q-130 -22 -245 -35zM617 0h-203l-18 103l-1 3l-98 2l-82 -4l-17 -104h-196l212 641q-4 15 -4 37q0 111 114 111q106 0 106 -104q0 -23 -6 -43zM319 711q-19 0 -26.5 -6.5t-7.5 -23.5q0 -19 8 -26.5t28 -7.5
q19 0 26.5 7t7.5 24q0 18 -8 25.5t-28 7.5zM365 247l-44 203h-12l-56 -203l56 -1z" />
    <glyph glyph-name="aringacute" unicode="&#x1fb;" horiz-adv-x="549" 
d="M181 814l-18 82q117 40 240 91l16 -6l32 -123l-8 -15q-130 -22 -245 -35zM173 685q0 111 114 111q106 0 106 -104q0 -55 -29 -84.5t-85 -29.5q-106 0 -106 107zM318 685q0 18 -8 25.5t-28 7.5q-19 0 -26.5 -6.5t-7.5 -23.5q0 -19 8 -26.5t28 -7.5q19 0 26.5 7t7.5 24z
M346 0l-11 71l-76 2l-60 -3l-11 -70h-181l159 513h224l144 -513h-188zM270 205l39 1l-29 143h-11l-38 -143z" />
    <glyph glyph-name="AEacute" unicode="&#x1fc;" horiz-adv-x="840" 
d="M408 716l-30 79q118 60 225 123l17 -4l49 -117l-6 -16q-132 -42 -238 -69zM840 146l-12 -146h-436l-5 107l-5 66l-171 -52l-1 -2l-34 -119h-196l276 647h520l11 -14l-13 -146l-149 6h-76l8 -114l169 54l14 -11l18 -138l-190 -55l5 -75h91l165 6zM370 322l-13 146h-12
l-67 -174z" />
    <glyph glyph-name="aeacute" unicode="&#x1fd;" horiz-adv-x="724" 
d="M345 561l-44 72q102 76 201 161l17 -1l69 -107l-3 -17q-142 -72 -223 -109zM723 122l-11 -122h-370l-4 88l-4 44l-156 -46l-24 -86h-165l238 512h440l10 -13l-11 -122l-129 6h-64l7 -81l146 44l11 -10l15 -115l-162 -44l4 -48h78l141 5zM323 256l-11 106h-11l-58 -130z
" />
    <glyph glyph-name="Oslashacute" unicode="&#x1fe;" 
d="M228 719l-30 79q118 60 225 123l17 -4l49 -117l-6 -16q-132 -42 -238 -69zM607 714l-62 -124q91 -85 91 -250q0 -168 -84.5 -260t-239.5 -92q-29 0 -61 5l-64 -132l-124 47l-8 17l62 126q-100 85 -100 261q0 166 84.5 256.5t239.5 90.5q37 0 72 -6l62 126l120 -46z
M330 136q57 0 76.5 32.5t19.5 128.5q0 120 -21 161t-82 41q-56 0 -76 -32.5t-20 -127.5q0 -121 21 -162t82 -41z" />
    <glyph glyph-name="oslashacute" unicode="&#x1ff;" horiz-adv-x="565" 
d="M196 565l-44 72q102 76 201 161l17 -1l69 -107l-3 -17q-142 -72 -223 -109zM547 542l-58 -94q57 -66 57 -178q0 -134 -72.5 -207.5t-204.5 -73.5q-33 0 -57 4l-74 -121l-110 56l-4 16l65 107q-71 68 -71 195q0 132 72.5 204.5t204.5 72.5q40 0 77 -8l61 99l105 -55z
M286 126q42 0 54 18.5t12 85.5q0 92 -13.5 119t-60.5 27q-41 0 -53.5 -19t-12.5 -86q0 -92 14 -118.5t60 -26.5z" />
    <glyph glyph-name="Scommaaccent" unicode="&#x218;" horiz-adv-x="528" 
d="M305 659q95 0 188 -35l-32 -163l-28 -12q-91 56 -149 56q-23 0 -36.5 -9t-13.5 -24q0 -20 28 -37.5t67.5 -34t79.5 -38.5t68 -62.5t28 -93.5q0 -93 -75 -155.5t-198 -62.5q-102 0 -214 38l29 174l20 12q46 -35 98.5 -55.5t87.5 -20.5q53 0 53 33q0 21 -27.5 39t-67 34.5
t-79.5 38t-67.5 62t-27.5 94.5q0 96 75 159t193 63zM307 -25q41 -40 41 -91q0 -97 -130 -188l-52 46l-2 12q48 42 48 93q0 36 -28 64v14q61 35 123 50z" />
    <glyph glyph-name="scommaaccent" unicode="&#x219;" horiz-adv-x="469" 
d="M269 523q81 0 158 -27l-27 -154l-26 -7q-35 23 -72.5 37t-58.5 14t-21 -13q0 -14 22 -25t53.5 -22t63 -27.5t53.5 -49.5t22 -79q0 -75 -57 -128.5t-174 -53.5q-90 0 -181 28l27 161l17 13q39 -31 85 -51t76 -20q24 0 24 16q0 13 -22 24t-53.5 22t-63 28t-53.5 50.5
t-22 80.5q0 80 61 131.5t169 51.5zM265 -25q41 -40 41 -91q0 -97 -130 -188l-52 46l-2 12q48 42 48 93q0 36 -28 64v14q61 35 123 50z" />
    <glyph glyph-name="Tcommaaccent" unicode="&#x21a;" horiz-adv-x="519" 
d="M513 633l-11 -146l-132 6h-12l-5 -283l8 -210h-200l10 190l-5 303h-13l-133 -6l-12 14l11 146h483zM313 -25q41 -40 41 -91q0 -97 -130 -188l-52 46l-2 12q48 42 48 93q0 36 -28 64v14q61 35 123 50z" />
    <glyph glyph-name="tcommaaccent" unicode="&#x21b;" horiz-adv-x="457" 
d="M444 500l-10 -135l-113 6h-3l-4 -203l7 -168h-185l9 149l-4 222h-4l-114 -6l-11 13l10 135h412zM281 -25q41 -40 41 -91q0 -97 -130 -188l-52 46l-2 12q48 42 48 93q0 36 -28 64v14q61 35 123 50z" />
    <glyph glyph-name="dotlessj" unicode="&#x237;" horiz-adv-x="346" 
d="M276 168l2 -69q0 -76 -43 -119.5t-154 -78.5l-51 93v14q43 17 59.5 37t16.5 53v52l-5 227l-78 -2l-10 11l11 127h261z" />
    <glyph glyph-name="circumflex" unicode="&#x2c6;" horiz-adv-x="388" 
d="M60 530l-47 72q69 58 163 150h34q70 -70 163 -150l-47 -72h-18q-76 48 -115 78q-39 -30 -115 -78h-18z" />
    <glyph glyph-name="caron" unicode="&#x2c7;" horiz-adv-x="388" 
d="M326 748l47 -72q-69 -58 -163 -150h-34q-70 70 -163 150l47 72h18q76 -48 115 -78q39 30 115 78h18z" />
    <glyph glyph-name="firsttonechinese" unicode="&#x2c9;" horiz-adv-x="388" 
d="M343 678l-9 -107h-276l-12 13l9 107h276z" />
    <glyph glyph-name="breve" unicode="&#x2d8;" horiz-adv-x="388" 
d="M332 733l40 -62q-19 -58 -65 -97t-118 -39q-71 0 -113.5 39.5t-59.5 96.5l40 62h27q33 -63 112 -63q80 0 110 63h27z" />
    <glyph glyph-name="dotaccent" unicode="&#x2d9;" horiz-adv-x="269" 
d="M139 728q44 0 68.5 -25t24.5 -70q0 -48 -27 -76t-74 -28q-46 0 -70 24.5t-24 70.5q0 48 27.5 76t74.5 28z" />
    <glyph glyph-name="ring" unicode="&#x2da;" horiz-adv-x="388" 
d="M198 756q106 0 106 -104q0 -55 -29 -84.5t-85 -29.5q-106 0 -106 107q0 111 114 111zM193 678q-19 0 -26.5 -6.5t-7.5 -23.5q0 -19 8 -26.5t28 -7.5q19 0 26.5 7t7.5 24q0 18 -8 25.5t-28 7.5z" />
    <glyph glyph-name="ogonek" unicode="&#x2db;" horiz-adv-x="388" 
d="M259 82l-69 -104q-16 -24 -16 -44q0 -33 36 -33q29 0 61 20h10l12 -72q-60 -46 -111 -46q-48 0 -76 27.5t-28 69.5q0 47 33 91l68 91h80z" />
    <glyph glyph-name="tilde" unicode="&#x2dc;" horiz-adv-x="388" 
d="M389 686v-16l-81 -113l-16 -6q-26 3 -83 18.5t-70 15.5q-4 0 -8 -1t-8.5 -3t-8 -4t-8 -6.5l-7 -7t-7.5 -8.5t-7 -9t-7.5 -9.5t-7.5 -9.5h-16l-57 55v16l81 113l16 6q26 -3 83 -18.5t70 -15.5q4 0 8 1t8.5 3t8 4t8 6.5l7 7t7.5 8.5t7 9t7.5 9.5t7.5 9.5h16z" />
    <glyph glyph-name="hungarumlaut" unicode="&#x2dd;" horiz-adv-x="388" 
d="M61 522l-58 46q59 95 112 191l13 4l90 -63l3 -14q-62 -73 -145 -159zM226 522l-58 46q59 95 112 191l13 4l90 -63l3 -14q-62 -73 -145 -159z" />
    <glyph glyph-name="tildecomb" unicode="&#x303;" horiz-adv-x="0" 
d="M389 686v-16l-81 -113l-16 -6q-26 3 -83 18.5t-70 15.5q-4 0 -8 -1t-8.5 -3t-8 -4t-8 -6.5l-7 -7t-7.5 -8.5t-7 -9t-7.5 -9.5t-7.5 -9.5h-16l-57 55v16l81 113l16 6q26 -3 83 -18.5t70 -15.5q4 0 8 1t8.5 3t8 4t8 6.5l7 7t7.5 8.5t7 9t7.5 9.5t7.5 9.5h16z" />
    <glyph glyph-name="dotbelowcomb" unicode="&#x323;" horiz-adv-x="0" 
d="M124 -32q44 0 68.5 -25t24.5 -70q0 -48 -27 -76t-74 -28q-46 0 -70 24.5t-24 70.5q0 48 27.5 76t74.5 28z" />
    <glyph glyph-name="commaaccent" unicode="&#x326;" horiz-adv-x="0" 
d="M154 -25q41 -40 41 -91q0 -97 -130 -188l-52 46l-2 12q48 42 48 93q0 36 -28 64v14q61 35 123 50z" />
    <glyph glyph-name="Delta" unicode="&#x394;" horiz-adv-x="627" 
d="M617 0h-615l196 647h242zM309 468l-85 -323h164l-67 323h-12z" />
    <glyph glyph-name="Omega" unicode="&#x3a9;" horiz-adv-x="765" 
d="M388 659q145 0 224 -72t79 -198q0 -119 -87 -236l3 -5h51l87 10l10 -12l-22 -154l-134 8h-152l-36 -3l-9 7v108q43 52 61 104.5t18 126.5q0 85 -23.5 120.5t-79.5 35.5q-53 0 -74.5 -33t-21.5 -113q0 -76 18.5 -131t60.5 -110v-108l-9 -7l-36 3h-186l-110 -6l-10 12
l22 149l98 -8l26 1l3 5q-87 111 -87 225q0 129 83 205t233 76z" />
    <glyph glyph-name="mu" unicode="&#x3bc;" horiz-adv-x="535" 
d="M525 121l-19 -101q-40 -29 -87 -29q-40 0 -65 18t-42 59h-7q-41 -56 -82 -73v-180h-184l6 375l-7 271l185 13v-271q0 -55 41 -55q23 0 43 15v298l185 13l-11 -323q0 -23 16 -23q5 0 16 3z" />
    <glyph glyph-name="pi" unicode="&#x3c0;" horiz-adv-x="723" 
d="M606 356l-7 -205q0 -23 16 -23q5 0 27 4l12 -10l-20 -102q-55 -29 -87 -29q-53 0 -87.5 30.5t-34.5 100.5v236h-84v-148l6 -295h-190l6 275l-4 167q-15 -3 -29 -15t-36 -39.5t-30 -35.5h-19l-58 73v19l106 143l19 10h441l116 3l11 -14l-12 -146z" />
    <glyph glyph-name="Wgrave" unicode="&#x1e80;" horiz-adv-x="914" 
d="M358 914l17 4q107 -63 225 -123l-30 -79l-17 -4q-106 27 -238 69l-6 16zM723 0h-212l-61 234h-12l-56 -234h-213l-152 647h194l10 -100l63 -346h12l75 295l-34 151h202l14 -120l68 -326h12l79 334l18 112h184z" />
    <glyph glyph-name="wgrave" unicode="&#x1e81;" horiz-adv-x="780" 
d="M301 795l17 1q99 -85 201 -161l-44 -72l-17 -1q-81 37 -223 109l-3 17zM625 0h-201l-39 150h-11l-34 -150h-201l-118 513h183l8 -89l36 -236h11l51 209l-25 116h191l12 -109l41 -216h11l49 225l16 100h173z" />
    <glyph glyph-name="Wacute" unicode="&#x1e82;" horiz-adv-x="914" 
d="M564 914l49 -117l-6 -16q-132 -42 -238 -69l-17 4l-30 79q118 60 225 123zM723 0h-212l-61 234h-12l-56 -234h-213l-152 647h194l10 -100l63 -346h12l75 295l-34 151h202l14 -120l68 -326h12l79 334l18 112h184z" />
    <glyph glyph-name="wacute" unicode="&#x1e83;" horiz-adv-x="780" 
d="M469 795l69 -107l-3 -17q-142 -72 -223 -109l-17 1l-44 72q102 76 201 161zM625 0h-201l-39 150h-11l-34 -150h-201l-118 513h183l8 -89l36 -236h11l51 209l-25 116h191l12 -109l41 -216h11l49 225l16 100h173z" />
    <glyph glyph-name="Wdieresis" unicode="&#x1e84;" horiz-adv-x="914" 
d="M359 892q38 0 59.5 -21.5t21.5 -60.5q0 -42 -23.5 -66.5t-64.5 -24.5q-40 0 -61 21.5t-21 61.5q0 42 24 66t65 24zM552 892q38 0 59.5 -21.5t21.5 -60.5q0 -42 -23.5 -66.5t-64.5 -24.5q-40 0 -61 21.5t-21 61.5q0 42 24 66t65 24zM723 0h-212l-61 234h-12l-56 -234h-213
l-152 647h194l10 -100l63 -346h12l75 295l-34 151h202l14 -120l68 -326h12l79 334l18 112h184z" />
    <glyph glyph-name="wdieresis" unicode="&#x1e85;" horiz-adv-x="780" 
d="M283 758q38 0 59.5 -21.5t21.5 -60.5q0 -42 -23.5 -66.5t-64.5 -24.5q-40 0 -61 21.5t-21 61.5q0 42 24 66t65 24zM476 758q38 0 59.5 -21.5t21.5 -60.5q0 -42 -23.5 -66.5t-64.5 -24.5q-40 0 -61 21.5t-21 61.5q0 42 24 66t65 24zM625 0h-201l-39 150h-11l-34 -150h-201
l-118 513h183l8 -89l36 -236h11l51 209l-25 116h191l12 -109l41 -216h11l49 225l16 100h173z" />
    <glyph glyph-name="Germandbls" unicode="&#x1e9e;" horiz-adv-x="711" 
d="M361 659q74 0 139 -17.5t150 -55.5l8 -23l-117 -171q97 -71 119 -94q46 -47 46 -113q0 -97 -69.5 -147t-174.5 -50q-96 0 -185 38l29 174l20 12q86 -75 147 -75q34 0 34 25q0 20 -41.5 52t-154.5 94l-5 24l106 157q-36 12 -70 12q-54 0 -76.5 -22.5t-21.5 -74.5l-5 -194
l8 -210h-201l10 190l-5 214q0 119 79 187t231 68z" />
    <glyph glyph-name="Adotbelow" unicode="&#x1ea0;" horiz-adv-x="627" 
d="M617 0h-203l-18 107l-1 3l-98 2l-82 -4l-17 -108h-196l196 647h242zM365 256l-44 212h-12l-56 -212l56 -1zM312 -32q44 0 68.5 -25t24.5 -70q0 -48 -27 -76t-74 -28q-46 0 -70 24.5t-24 70.5q0 48 27.5 76t74.5 28z" />
    <glyph glyph-name="adotbelow" unicode="&#x1ea1;" horiz-adv-x="549" 
d="M188 0h-181l159 513h224l144 -513h-188l-11 71l-76 2l-60 -3zM269 349l-38 -143l39 -1l39 1l-29 143h-11zM273 -32q44 0 68.5 -25t24.5 -70q0 -48 -27 -76t-74 -28q-46 0 -70 24.5t-24 70.5q0 48 27.5 76t74.5 28z" />
    <glyph glyph-name="Ahookabove" unicode="&#x1ea2;" horiz-adv-x="627" 
d="M273 866q-36 0 -70 -26l-29 47q56 61 127 61q43 0 71.5 -24.5t28.5 -63.5q0 -22 -13 -41t-48 -51l27 -43l-64 -39l-54 80q25 18 39.5 39t14.5 37q0 24 -30 24zM617 0h-203l-18 107l-1 3l-98 2l-82 -4l-17 -108h-196l196 647h242zM365 256l-44 212h-12l-56 -212l56 -1z
" />
    <glyph glyph-name="ahookabove" unicode="&#x1ea3;" horiz-adv-x="549" 
d="M240 732q-36 0 -70 -26l-29 47q56 61 127 61q43 0 71.5 -24.5t28.5 -63.5q0 -22 -13 -41t-48 -51l27 -43l-64 -39l-54 80q25 18 39.5 39t14.5 37q0 24 -30 24zM346 0l-11 71l-76 2l-60 -3l-11 -70h-181l159 513h224l144 -513h-188zM270 205l39 1l-29 143h-11l-38 -143z
" />
    <glyph glyph-name="Acircumflexacute" unicode="&#x1ea4;" horiz-adv-x="627" 
d="M437 849l-64 47l70 149l12 7l98 -41l5 -13l-110 -149h-11zM178 701l-34 76q90 62 153 119h34q63 -57 153 -119l-34 -76h-18l-118 60q-20 -10 -59 -30t-59 -30h-18zM617 0h-203l-18 107l-1 3l-98 2l-82 -4l-17 -108h-196l196 647h242zM365 256l-44 212h-12l-56 -212l56 -1
z" />
    <glyph glyph-name="acircumflexacute" unicode="&#x1ea5;" horiz-adv-x="549" 
d="M404 715l-64 47l70 149l12 7l98 -41l5 -13l-110 -149h-11zM145 567l-34 76q90 62 153 119h34q63 -57 153 -119l-34 -76h-18l-118 60q-19 -10 -58.5 -30t-59.5 -30h-18zM346 0l-11 71l-76 2l-60 -3l-11 -70h-181l159 513h224l144 -513h-188zM270 205l39 1l-29 143h-11
l-38 -143z" />
    <glyph glyph-name="Acircumflexgrave" unicode="&#x1ea6;" horiz-adv-x="627" 
d="M430 849l-110 149l5 13l98 41l12 -7l70 -149l-64 -47h-11zM178 701l-34 76q90 62 153 119h34q63 -57 153 -119l-34 -76h-18l-118 60q-20 -10 -59 -30t-59 -30h-18zM617 0h-203l-18 107l-1 3l-98 2l-82 -4l-17 -108h-196l196 647h242zM365 256l-44 212h-12l-56 -212l56 -1
z" />
    <glyph glyph-name="acircumflexgrave" unicode="&#x1ea7;" horiz-adv-x="549" 
d="M397 715l-110 149l5 13l98 41l12 -7l70 -149l-64 -47h-11zM145 567l-34 76q90 62 153 119h34q63 -57 153 -119l-34 -76h-18l-118 60q-19 -10 -58.5 -30t-59.5 -30h-18zM346 0l-11 71l-76 2l-60 -3l-11 -70h-181l159 513h224l144 -513h-188zM270 205l39 1l-29 143h-11
l-38 -143z" />
    <glyph glyph-name="Acircumflexhookabove" unicode="&#x1ea8;" horiz-adv-x="627" 
d="M400 1023q-34 0 -67 -25l-28 45q55 58 121 58q41 0 68.5 -23t27.5 -61q0 -20 -12.5 -38.5t-46.5 -48.5l26 -41l-61 -38l-51 77q23 16 37 36t14 36q0 23 -28 23zM178 701l-34 76q90 62 153 119h34q63 -57 153 -119l-34 -76h-18l-118 60q-20 -10 -59 -30t-59 -30h-18z
M617 0h-203l-18 107l-1 3l-98 2l-82 -4l-17 -108h-196l196 647h242zM365 256l-44 212h-12l-56 -212l56 -1z" />
    <glyph glyph-name="acircumflexhookabove" unicode="&#x1ea9;" horiz-adv-x="549" 
d="M367 889q-34 0 -67 -25l-28 45q55 58 121 58q41 0 68.5 -23t27.5 -61q0 -20 -12.5 -38.5t-46.5 -48.5l26 -41l-61 -38l-51 77q23 16 37 36t14 36q0 23 -28 23zM145 567l-34 76q90 62 153 119h34q63 -57 153 -119l-34 -76h-18l-118 60q-19 -10 -58.5 -30t-59.5 -30h-18z
M346 0l-11 71l-76 2l-60 -3l-11 -70h-181l159 513h224l144 -513h-188zM270 205l39 1l-29 143h-11l-38 -143z" />
    <glyph glyph-name="Acircumflextilde" unicode="&#x1eaa;" horiz-adv-x="627" 
d="M192 889l-52 50v15l74 102l14 6q23 -3 75.5 -17t64.5 -14q14 0 27 12t30 34q3 5 5 7h15l52 -50v-15l-74 -103l-15 -5q-24 3 -75.5 17t-63.5 14q-5 0 -9.5 -1.5t-9.5 -5t-8.5 -6t-9 -9t-8 -9.5t-8.5 -11t-9 -11h-15zM297 896h34q63 -57 153 -119l-34 -76h-18l-118 60
q-20 -10 -59 -30t-59 -30h-18l-34 76q90 62 153 119zM617 0h-203l-18 107l-1 3l-98 2l-82 -4l-17 -108h-196l196 647h242zM365 256l-44 212h-12l-56 -212l56 -1z" />
    <glyph glyph-name="acircumflextilde" unicode="&#x1eab;" horiz-adv-x="549" 
d="M159 755l-52 50v15l74 102l14 6q23 -3 75.5 -17t64.5 -14q14 0 27 12t30 34q1 2 1.5 2.5t1.5 2t2 2.5h15l52 -50v-15l-74 -103l-15 -5q-24 3 -75.5 17t-63.5 14q-5 0 -9.5 -1.5t-9.5 -5t-8.5 -6t-9 -9t-8 -9.5t-8.5 -11t-9 -11h-15zM264 762h34q63 -57 153 -119l-34 -76
h-18l-118 60q-19 -10 -58.5 -30t-59.5 -30h-18l-34 76q90 62 153 119zM346 0l-11 71l-76 2l-60 -3l-11 -70h-181l159 513h224l144 -513h-188zM270 205l39 1l-29 143h-11l-38 -143z" />
    <glyph glyph-name="Acircumflexdotbelow" unicode="&#x1eac;" horiz-adv-x="627" 
d="M179 721l-34 76q90 62 153 119h34q63 -57 153 -119l-34 -76h-18l-118 60q-19 -10 -59 -30t-59 -30h-18zM617 0h-203l-18 107l-1 3l-98 2l-82 -4l-17 -108h-196l196 647h242zM365 256l-44 212h-12l-56 -212l56 -1zM312 -32q44 0 68.5 -25t24.5 -70q0 -48 -27 -76t-74 -28
q-46 0 -70 24.5t-24 70.5q0 48 27.5 76t74.5 28z" />
    <glyph glyph-name="acircumflexdotbelow" unicode="&#x1ead;" horiz-adv-x="549" 
d="M149 571l-47 72q69 58 163 150h34q70 -70 163 -150l-47 -72h-18q-76 48 -115 78q-39 -30 -115 -78h-18zM188 0h-181l159 513h224l144 -513h-188l-11 71l-76 2l-60 -3zM269 349l-38 -143l39 -1l39 1l-29 143h-11zM273 -32q44 0 68.5 -25t24.5 -70q0 -48 -27 -76t-74 -28
q-46 0 -70 24.5t-24 70.5q0 48 27.5 76t74.5 28z" />
    <glyph glyph-name="Abreveacute" unicode="&#x1eae;" horiz-adv-x="627" 
d="M313 861l-58 45q66 96 97 146l13 4l89 -57l3 -14q-67 -66 -129 -119zM312 696q-64 0 -109 32t-66 92l40 60h27q34 -50 115 -50q74 0 107 50h27l40 -60q-47 -124 -181 -124zM617 0h-203l-18 107l-1 3l-98 2l-82 -4l-17 -108h-196l196 647h242zM365 256l-44 212h-12
l-56 -212l56 -1z" />
    <glyph glyph-name="abreveacute" unicode="&#x1eaf;" horiz-adv-x="549" 
d="M280 727l-58 45q66 96 97 146l13 4l89 -57l3 -14q-67 -66 -129 -119zM279 562q-64 0 -109 32t-66 92l40 60h27q34 -50 115 -50q74 0 107 50h27l40 -60q-47 -124 -181 -124zM346 0l-11 71l-76 2l-60 -3l-11 -70h-181l159 513h224l144 -513h-188zM270 205l39 1l-29 143h-11
l-38 -143z" />
    <glyph glyph-name="Abrevegrave" unicode="&#x1eb0;" horiz-adv-x="627" 
d="M321 861l-15 5q-62 53 -129 119l3 14l89 57l13 -4q31 -50 97 -146zM312 696q-64 0 -109 32t-66 92l40 60h27q34 -50 115 -50q74 0 107 50h27l40 -60q-47 -124 -181 -124zM617 0h-203l-18 107l-1 3l-98 2l-82 -4l-17 -108h-196l196 647h242zM365 256l-44 212h-12l-56 -212
l56 -1z" />
    <glyph glyph-name="abrevegrave" unicode="&#x1eb1;" horiz-adv-x="549" 
d="M288 727l-15 5q-62 53 -129 119l3 14l89 57l13 -4q31 -50 97 -146zM279 562q-64 0 -109 32t-66 92l40 60h27q34 -50 115 -50q74 0 107 50h27l40 -60q-47 -124 -181 -124zM346 0l-11 71l-76 2l-60 -3l-11 -70h-181l159 513h224l144 -513h-188zM270 205l39 1l-29 143h-11
l-38 -143z" />
    <glyph glyph-name="Abrevehookabove" unicode="&#x1eb2;" horiz-adv-x="627" 
d="M277 1035q-36 0 -70 -26l-29 47q56 61 127 61q43 0 71.5 -24.5t28.5 -63.5q0 -22 -13 -41t-48 -51l27 -43l-64 -39l-54 80q25 18 39.5 39t14.5 37q0 24 -30 24zM312 696q-64 0 -109 32t-66 92l40 60h27q34 -50 115 -50q74 0 107 50h27l40 -60q-47 -124 -181 -124zM617 0
h-203l-18 107l-1 3l-98 2l-82 -4l-17 -108h-196l196 647h242zM365 256l-44 212h-12l-56 -212l56 -1z" />
    <glyph glyph-name="abrevehookabove" unicode="&#x1eb3;" horiz-adv-x="549" 
d="M244 901q-36 0 -70 -26l-29 47q56 61 127 61q43 0 71.5 -24.5t28.5 -63.5q0 -22 -13 -41t-48 -51l27 -43l-64 -39l-54 80q25 18 39.5 39t14.5 37q0 24 -30 24zM279 562q-64 0 -109 32t-66 92l40 60h27q34 -50 115 -50q74 0 107 50h27l40 -60q-47 -124 -181 -124zM346 0
l-11 71l-76 2l-60 -3l-11 -70h-181l159 513h224l144 -513h-188zM270 205l39 1l-29 143h-11l-38 -143z" />
    <glyph glyph-name="Abrevetilde" unicode="&#x1eb4;" horiz-adv-x="627" 
d="M192 889l-52 50v15l74 102l14 6q23 -3 75.5 -17t64.5 -14q14 0 27 12t30 34q3 5 5 7h15l52 -50v-15l-74 -103l-15 -5q-24 3 -75.5 17t-63.5 14q-5 0 -9.5 -1.5t-9.5 -5t-8.5 -6t-9 -9t-8 -9.5t-8.5 -11t-9 -11h-15zM323 821q69 0 100 46h25l37 -56q-44 -115 -168 -115
q-59 0 -101 29.5t-62 85.5l37 56h25q32 -46 107 -46zM617 0h-203l-18 107l-1 3l-98 2l-82 -4l-17 -108h-196l196 647h242zM365 256l-44 212h-12l-56 -212l56 -1z" />
    <glyph glyph-name="abrevetilde" unicode="&#x1eb5;" horiz-adv-x="549" 
d="M159 755l-52 50v15l74 102l14 6q23 -3 75.5 -17t64.5 -14q14 0 27 12t30 34q1 2 1.5 2.5t1.5 2t2 2.5h15l52 -50v-15l-74 -103l-15 -5q-24 3 -75.5 17t-63.5 14q-5 0 -9.5 -1.5t-9.5 -5t-8.5 -6t-9 -9t-8 -9.5t-8.5 -11t-9 -11h-15zM290 687q69 0 100 46h25l37 -56
q-44 -115 -168 -115q-59 0 -101 29.5t-62 85.5l37 56h25q32 -46 107 -46zM346 0l-11 71l-76 2l-60 -3l-11 -70h-181l159 513h224l144 -513h-188zM270 205l39 1l-29 143h-11l-38 -143z" />
    <glyph glyph-name="Abrevedotbelow" unicode="&#x1eb6;" horiz-adv-x="627" 
d="M312 716q-64 0 -109 32t-66 92l40 60h27q34 -50 115 -50q74 0 107 50h27l40 -60q-47 -124 -181 -124zM617 0h-203l-18 107l-1 3l-98 2l-82 -4l-17 -108h-196l196 647h242zM365 256l-44 212h-12l-56 -212l56 -1zM312 -32q44 0 68.5 -25t24.5 -70q0 -48 -27 -76t-74 -28
q-46 0 -70 24.5t-24 70.5q0 48 27.5 76t74.5 28z" />
    <glyph glyph-name="abrevedotbelow" unicode="&#x1eb7;" horiz-adv-x="549" 
d="M278 576q-71 0 -113.5 39.5t-59.5 96.5l40 62h27q33 -63 112 -63q80 0 110 63h27l40 -62q-19 -58 -65 -97t-118 -39zM188 0h-181l159 513h224l144 -513h-188l-11 71l-76 2l-60 -3zM269 349l-38 -143l39 -1l39 1l-29 143h-11zM273 -32q44 0 68.5 -25t24.5 -70
q0 -48 -27 -76t-74 -28q-46 0 -70 24.5t-24 70.5q0 48 27.5 76t74.5 28z" />
    <glyph glyph-name="Edotbelow" unicode="&#x1eb8;" horiz-adv-x="541" 
d="M517 160l11 -14l-12 -146h-456l10 190l-10 457h464l11 -14l-13 -146l-159 6h-103l-2 -91h99l104 3l11 -14l-12 -146l-116 3h-90l-1 -38l2 -56h96zM314 -32q44 0 68.5 -25t24.5 -70q0 -48 -27 -76t-74 -28q-46 0 -70 24.5t-24 70.5q0 48 27.5 76t74.5 28z" />
    <glyph glyph-name="edotbelow" unicode="&#x1eb9;" horiz-adv-x="480" 
d="M451 147l10 -12l-11 -135h-397l9 149l-9 364h404l10 -13l-11 -135l-135 6h-84l-1 -44h80l87 3l10 -13l-11 -135l-98 3h-72l-1 -17l1 -26h79zM264 -32q44 0 68.5 -25t24.5 -70q0 -48 -27 -76t-74 -28q-46 0 -70 24.5t-24 70.5q0 48 27.5 76t74.5 28z" />
    <glyph glyph-name="Ehookabove" unicode="&#x1eba;" horiz-adv-x="541" 
d="M250 866q-36 0 -70 -26l-29 47q56 61 127 61q43 0 71.5 -24.5t28.5 -63.5q0 -22 -13 -41t-48 -51l27 -43l-64 -39l-54 80q25 18 39.5 39t14.5 37q0 24 -30 24zM517 160l11 -14l-12 -146h-456l10 190l-10 457h464l11 -14l-13 -146l-159 6h-103l-2 -91h99l104 3l11 -14
l-12 -146l-116 3h-90l-1 -38l2 -56h96z" />
    <glyph glyph-name="ehookabove" unicode="&#x1ebb;" horiz-adv-x="480" 
d="M212 732q-36 0 -70 -26l-29 47q56 61 127 61q43 0 71.5 -24.5t28.5 -63.5q0 -22 -13 -41t-48 -51l27 -43l-64 -39l-54 80q25 18 39.5 39t14.5 37q0 24 -30 24zM451 147l10 -12l-11 -135h-397l9 149l-9 364h404l10 -13l-11 -135l-135 6h-84l-1 -44h80l87 3l10 -13
l-11 -135l-98 3h-72l-1 -17l1 -26h79z" />
    <glyph glyph-name="Ecircumflexacute" unicode="&#x1ebe;" horiz-adv-x="541" 
d="M414 849l-64 47l70 149l12 7l98 -41l5 -13l-110 -149h-11zM155 701l-34 76q90 62 153 119h34q63 -57 153 -119l-34 -76h-18l-118 60q-19 -10 -58.5 -30t-59.5 -30h-18zM260 493l-2 -91h99l104 3l11 -14l-12 -146l-116 3h-90l-1 -38l2 -56h96l166 6l11 -14l-12 -146h-456
l10 190l-10 457h464l11 -14l-13 -146l-159 6h-103z" />
    <glyph glyph-name="ecircumflexacute" unicode="&#x1ebf;" horiz-adv-x="480" 
d="M376 715l-64 47l70 149l12 7l98 -41l5 -13l-110 -149h-11zM117 567l-34 76q90 62 153 119h34q63 -57 153 -119l-34 -76h-18l-118 60q-20 -10 -59.5 -30t-58.5 -30h-18zM237 371l-1 -44h80l87 3l10 -13l-11 -135l-98 3h-72l-1 -17l1 -26h79l140 5l10 -12l-11 -135h-397
l9 149l-9 364h404l10 -13l-11 -135l-135 6h-84z" />
    <glyph glyph-name="Ecircumflexgrave" unicode="&#x1ec0;" horiz-adv-x="541" 
d="M407 849l-110 149l5 13l98 41l12 -7l70 -149l-64 -47h-11zM155 701l-34 76q90 62 153 119h34q63 -57 153 -119l-34 -76h-18l-118 60q-19 -10 -58.5 -30t-59.5 -30h-18zM517 160l11 -14l-12 -146h-456l10 190l-10 457h464l11 -14l-13 -146l-159 6h-103l-2 -91h99l104 3
l11 -14l-12 -146l-116 3h-90l-1 -38l2 -56h96z" />
    <glyph glyph-name="ecircumflexgrave" unicode="&#x1ec1;" horiz-adv-x="480" 
d="M369 715l-110 149l5 13l98 41l12 -7l70 -149l-64 -47h-11zM117 567l-34 76q90 62 153 119h34q63 -57 153 -119l-34 -76h-18l-118 60q-20 -10 -59.5 -30t-58.5 -30h-18zM451 147l10 -12l-11 -135h-397l9 149l-9 364h404l10 -13l-11 -135l-135 6h-84l-1 -44h80l87 3l10 -13
l-11 -135l-98 3h-72l-1 -17l1 -26h79z" />
    <glyph glyph-name="Ecircumflexhookabove" unicode="&#x1ec2;" horiz-adv-x="541" 
d="M377 1023q-34 0 -67 -25l-28 45q55 58 121 58q41 0 68.5 -23t27.5 -61q0 -20 -12.5 -38.5t-46.5 -48.5l26 -41l-61 -38l-51 77q23 16 37 36t14 36q0 23 -28 23zM155 701l-34 76q90 62 153 119h34q63 -57 153 -119l-34 -76h-18l-118 60q-19 -10 -58.5 -30t-59.5 -30h-18z
M517 160l11 -14l-12 -146h-456l10 190l-10 457h464l11 -14l-13 -146l-159 6h-103l-2 -91h99l104 3l11 -14l-12 -146l-116 3h-90l-1 -38l2 -56h96z" />
    <glyph glyph-name="ecircumflexhookabove" unicode="&#x1ec3;" horiz-adv-x="480" 
d="M339 889q-34 0 -67 -25l-28 45q55 58 121 58q41 0 68.5 -23t27.5 -61q0 -20 -12.5 -38.5t-46.5 -48.5l26 -41l-61 -38l-51 77q23 16 37 36t14 36q0 23 -28 23zM117 567l-34 76q90 62 153 119h34q63 -57 153 -119l-34 -76h-18l-118 60q-20 -10 -59.5 -30t-58.5 -30h-18z
M451 147l10 -12l-11 -135h-397l9 149l-9 364h404l10 -13l-11 -135l-135 6h-84l-1 -44h80l87 3l10 -13l-11 -135l-98 3h-72l-1 -17l1 -26h79z" />
    <glyph glyph-name="Ecircumflextilde" unicode="&#x1ec4;" horiz-adv-x="541" 
d="M169 889l-52 50v15l74 102l14 6q23 -3 75.5 -17t64.5 -14q14 0 27 12t30 34q3 5 5 7h15l52 -50v-15l-74 -103l-15 -5q-24 3 -75.5 17t-63.5 14q-5 0 -9.5 -1.5t-9.5 -5t-8.5 -6t-9 -9t-8 -9.5t-8.5 -11t-9 -11h-15zM274 896h34q63 -57 153 -119l-34 -76h-18l-118 60
q-19 -10 -58.5 -30t-59.5 -30h-18l-34 76q90 62 153 119zM517 160l11 -14l-12 -146h-456l10 190l-10 457h464l11 -14l-13 -146l-159 6h-103l-2 -91h99l104 3l11 -14l-12 -146l-116 3h-90l-1 -38l2 -56h96z" />
    <glyph glyph-name="ecircumflextilde" unicode="&#x1ec5;" horiz-adv-x="480" 
d="M131 755l-52 50v15l74 102l14 6q23 -3 75.5 -17t64.5 -14q14 0 27 12t30 34q1 2 1.5 2.5t1.5 2t2 2.5h15l52 -50v-15l-74 -103l-15 -5q-24 3 -75.5 17t-63.5 14q-5 0 -9.5 -1.5t-9.5 -5t-8.5 -6t-9 -9t-8 -9.5t-8.5 -11t-9 -11h-15zM236 762h34q63 -57 153 -119l-34 -76
h-18l-118 60q-20 -10 -59.5 -30t-58.5 -30h-18l-34 76q90 62 153 119zM451 147l10 -12l-11 -135h-397l9 149l-9 364h404l10 -13l-11 -135l-135 6h-84l-1 -44h80l87 3l10 -13l-11 -135l-98 3h-72l-1 -17l1 -26h79z" />
    <glyph glyph-name="Ecircumflexdotbelow" unicode="&#x1ec6;" horiz-adv-x="541" 
d="M156 721l-34 76q90 62 153 119h34q63 -57 153 -119l-34 -76h-18l-118 60q-20 -10 -59 -30t-59 -30h-18zM517 160l11 -14l-12 -146h-456l10 190l-10 457h464l11 -14l-13 -146l-159 6h-103l-2 -91h99l104 3l11 -14l-12 -146l-116 3h-90l-1 -38l2 -56h96zM314 -32
q44 0 68.5 -25t24.5 -70q0 -48 -27 -76t-74 -28q-46 0 -70 24.5t-24 70.5q0 48 27.5 76t74.5 28z" />
    <glyph glyph-name="ecircumflexdotbelow" unicode="&#x1ec7;" horiz-adv-x="480" 
d="M121 571l-47 72q69 58 163 150h34q70 -70 163 -150l-47 -72h-18q-76 48 -115 78q-39 -30 -115 -78h-18zM451 147l10 -12l-11 -135h-397l9 149l-9 364h404l10 -13l-11 -135l-135 6h-84l-1 -44h80l87 3l10 -13l-11 -135l-98 3h-72l-1 -17l1 -26h79zM264 -32q44 0 68.5 -25
t24.5 -70q0 -48 -27 -76t-74 -28q-46 0 -70 24.5t-24 70.5q0 48 27.5 76t74.5 28z" />
    <glyph glyph-name="Ihookabove" unicode="&#x1ec8;" horiz-adv-x="327" 
d="M148 948q43 0 71.5 -24.5t28.5 -63.5q0 -22 -13 -41t-48 -51l27 -43l-64 -39l-54 80q25 18 39.5 39t14.5 37q0 24 -30 24q-36 0 -70 -26l-29 47q56 61 127 61zM253 210l8 -210h-201l10 190l-10 457h204z" />
    <glyph glyph-name="ihookabove" unicode="&#x1ec9;" horiz-adv-x="303" 
d="M139 814q43 0 71.5 -24.5t28.5 -63.5q0 -22 -13 -41t-48 -51l27 -43l-64 -39l-54 80q25 18 39.5 39t14.5 37q0 24 -30 24q-36 0 -70 -26l-29 47q56 61 127 61zM231 168l8 -168h-186l9 149l-9 364h189z" />
    <glyph glyph-name="Idotbelow" unicode="&#x1eca;" horiz-adv-x="327" 
d="M253 210l8 -210h-201l10 190l-10 457h204zM160 -32q44 0 68.5 -25t24.5 -70q0 -48 -27 -76t-74 -28q-46 0 -70 24.5t-24 70.5q0 48 27.5 76t74.5 28z" />
    <glyph glyph-name="idotbelow" unicode="&#x1ecb;" horiz-adv-x="303" 
d="M231 168l8 -168h-186l9 149l-9 364h189zM148 -32q44 0 68.5 -25t24.5 -70q0 -48 -27 -76t-74 -28q-46 0 -70 24.5t-24 70.5q0 48 27.5 76t74.5 28z" />
    <glyph glyph-name="Odotbelow" unicode="&#x1ecc;" 
d="M341 659q141 0 218 -83.5t77 -235.5q0 -168 -84.5 -260t-239.5 -92q-141 0 -218 84.5t-77 239.5q0 166 84.5 256.5t239.5 90.5zM323 499q-56 0 -76 -32.5t-20 -127.5q0 -121 21 -162t82 -41q57 0 76.5 32.5t19.5 128.5q0 120 -21 161t-82 41zM336 -32q44 0 68.5 -25
t24.5 -70q0 -48 -27 -76t-74 -28q-46 0 -70 24.5t-24 70.5q0 48 27.5 76t74.5 28z" />
    <glyph glyph-name="odotbelow" unicode="&#x1ecd;" horiz-adv-x="565" 
d="M295 523q120 0 185.5 -66t65.5 -187q0 -134 -72.5 -207.5t-204.5 -73.5q-120 0 -185.5 67.5t-65.5 189.5q0 132 72.5 204.5t204.5 72.5zM278 376q-41 0 -53.5 -19t-12.5 -86q0 -92 14 -118.5t60 -26.5q42 0 54 18.5t12 85.5q0 92 -13.5 119t-60.5 27zM289 -32
q44 0 68.5 -25t24.5 -70q0 -48 -27 -76t-74 -28q-46 0 -70 24.5t-24 70.5q0 48 27.5 76t74.5 28z" />
    <glyph glyph-name="Ohookabove" unicode="&#x1ece;" 
d="M313 948q43 0 71.5 -24.5t28.5 -63.5q0 -22 -13 -41t-48 -51l27 -43l-64 -39l-54 80q25 18 39.5 39t14.5 37q0 24 -30 24q-36 0 -70 -26l-29 47q56 61 127 61zM341 659q141 0 218 -83.5t77 -235.5q0 -168 -84.5 -260t-239.5 -92q-141 0 -218 84.5t-77 239.5
q0 166 84.5 256.5t239.5 90.5zM323 499q-56 0 -76 -32.5t-20 -127.5q0 -121 21 -162t82 -41q57 0 76.5 32.5t19.5 128.5q0 120 -21 161t-82 41z" />
    <glyph glyph-name="ohookabove" unicode="&#x1ecf;" horiz-adv-x="565" 
d="M270 814q43 0 71.5 -24.5t28.5 -63.5q0 -22 -13 -41t-48 -51l27 -43l-64 -39l-54 80q25 18 39.5 39t14.5 37q0 24 -30 24q-36 0 -70 -26l-29 47q56 61 127 61zM295 523q120 0 185.5 -66t65.5 -187q0 -134 -72.5 -207.5t-204.5 -73.5q-120 0 -185.5 67.5t-65.5 189.5
q0 132 72.5 204.5t204.5 72.5zM278 376q-41 0 -53.5 -19t-12.5 -86q0 -92 14 -118.5t60 -26.5q42 0 54 18.5t12 85.5q0 92 -13.5 119t-60.5 27z" />
    <glyph glyph-name="Ocircumflexacute" unicode="&#x1ed0;" 
d="M565 1011l5 -13l-110 -149h-11l-64 47l70 149l12 7zM190 701l-34 76q90 62 153 119h34q63 -57 153 -119l-34 -76h-18l-118 60q-19 -10 -59 -30t-59 -30h-18zM341 659q141 0 218 -83.5t77 -235.5q0 -168 -84.5 -260t-239.5 -92q-141 0 -218 84.5t-77 239.5
q0 166 84.5 256.5t239.5 90.5zM323 499q-56 0 -76 -32.5t-20 -127.5q0 -121 21 -162t82 -41q57 0 76.5 32.5t19.5 128.5q0 120 -21 161t-82 41z" />
    <glyph glyph-name="ocircumflexacute" unicode="&#x1ed1;" horiz-adv-x="565" 
d="M522 877l5 -13l-110 -149h-11l-64 47l70 149l12 7zM147 567l-34 76q90 62 153 119h34q63 -57 153 -119l-34 -76h-18l-118 60q-20 -10 -59 -30t-59 -30h-18zM295 523q120 0 185.5 -66t65.5 -187q0 -134 -72.5 -207.5t-204.5 -73.5q-120 0 -185.5 67.5t-65.5 189.5
q0 132 72.5 204.5t204.5 72.5zM278 376q-41 0 -53.5 -19t-12.5 -86q0 -92 14 -118.5t60 -26.5q42 0 54 18.5t12 85.5q0 92 -13.5 119t-60.5 27z" />
    <glyph glyph-name="Ocircumflexgrave" unicode="&#x1ed2;" 
d="M447 1045l70 -149l-64 -47h-11l-110 149l5 13l98 41zM190 701l-34 76q90 62 153 119h34q63 -57 153 -119l-34 -76h-18l-118 60q-19 -10 -59 -30t-59 -30h-18zM341 659q141 0 218 -83.5t77 -235.5q0 -168 -84.5 -260t-239.5 -92q-141 0 -218 84.5t-77 239.5
q0 166 84.5 256.5t239.5 90.5zM323 499q-56 0 -76 -32.5t-20 -127.5q0 -121 21 -162t82 -41q57 0 76.5 32.5t19.5 128.5q0 120 -21 161t-82 41z" />
    <glyph glyph-name="ocircumflexgrave" unicode="&#x1ed3;" horiz-adv-x="565" 
d="M404 911l70 -149l-64 -47h-11l-110 149l5 13l98 41zM147 567l-34 76q90 62 153 119h34q63 -57 153 -119l-34 -76h-18l-118 60q-20 -10 -59 -30t-59 -30h-18zM295 523q120 0 185.5 -66t65.5 -187q0 -134 -72.5 -207.5t-204.5 -73.5q-120 0 -185.5 67.5t-65.5 189.5
q0 132 72.5 204.5t204.5 72.5zM278 376q-41 0 -53.5 -19t-12.5 -86q0 -92 14 -118.5t60 -26.5q42 0 54 18.5t12 85.5q0 92 -13.5 119t-60.5 27z" />
    <glyph glyph-name="Ocircumflexhookabove" unicode="&#x1ed4;" 
d="M438 1101q41 0 68.5 -23t27.5 -61q0 -20 -12.5 -38.5t-46.5 -48.5l26 -41l-61 -38l-51 77q23 16 37 36t14 36q0 23 -28 23q-34 0 -67 -25l-28 45q55 58 121 58zM190 701l-34 76q90 62 153 119h34q63 -57 153 -119l-34 -76h-18l-118 60q-19 -10 -59 -30t-59 -30h-18z
M341 659q141 0 218 -83.5t77 -235.5q0 -168 -84.5 -260t-239.5 -92q-141 0 -218 84.5t-77 239.5q0 166 84.5 256.5t239.5 90.5zM323 499q-56 0 -76 -32.5t-20 -127.5q0 -121 21 -162t82 -41q57 0 76.5 32.5t19.5 128.5q0 120 -21 161t-82 41z" />
    <glyph glyph-name="ocircumflexhookabove" unicode="&#x1ed5;" horiz-adv-x="565" 
d="M395 967q41 0 68.5 -23t27.5 -61q0 -20 -12.5 -38.5t-46.5 -48.5l26 -41l-61 -38l-51 77q23 16 37 36t14 36q0 23 -28 23q-34 0 -67 -25l-28 45q55 58 121 58zM147 567l-34 76q90 62 153 119h34q63 -57 153 -119l-34 -76h-18l-118 60q-20 -10 -59 -30t-59 -30h-18z
M295 523q120 0 185.5 -66t65.5 -187q0 -134 -72.5 -207.5t-204.5 -73.5q-120 0 -185.5 67.5t-65.5 189.5q0 132 72.5 204.5t204.5 72.5zM278 376q-41 0 -53.5 -19t-12.5 -86q0 -92 14 -118.5t60 -26.5q42 0 54 18.5t12 85.5q0 92 -13.5 119t-60.5 27z" />
    <glyph glyph-name="Ocircumflextilde" unicode="&#x1ed6;" 
d="M509 1034v-15l-74 -103l-15 -5q-24 3 -75.5 17t-63.5 14q-5 0 -9.5 -1.5t-9.5 -5t-8.5 -6t-9 -9t-8 -9.5t-8.5 -11t-9 -11h-15l-52 50v15l74 102l14 6q23 -3 75.5 -17t64.5 -14q14 0 27 12t30 34q3 5 5 7h15zM190 701l-34 76q90 62 153 119h34q63 -57 153 -119l-34 -76
h-18l-118 60q-19 -10 -59 -30t-59 -30h-18zM341 659q141 0 218 -83.5t77 -235.5q0 -168 -84.5 -260t-239.5 -92q-141 0 -218 84.5t-77 239.5q0 166 84.5 256.5t239.5 90.5zM323 499q-56 0 -76 -32.5t-20 -127.5q0 -121 21 -162t82 -41q57 0 76.5 32.5t19.5 128.5
q0 120 -21 161t-82 41z" />
    <glyph glyph-name="ocircumflextilde" unicode="&#x1ed7;" horiz-adv-x="565" 
d="M466 900v-15l-74 -103l-15 -5q-24 3 -75.5 17t-63.5 14q-5 0 -9.5 -1.5t-9.5 -5t-8.5 -6t-9 -9t-8 -9.5t-8.5 -11t-9 -11h-15l-52 50v15l74 102l14 6q23 -3 75.5 -17t64.5 -14q14 0 27 12t30 34q1 2 1.5 2.5t1.5 2t2 2.5h15zM147 567l-34 76q90 62 153 119h34
q63 -57 153 -119l-34 -76h-18l-118 60q-20 -10 -59 -30t-59 -30h-18zM295 523q120 0 185.5 -66t65.5 -187q0 -134 -72.5 -207.5t-204.5 -73.5q-120 0 -185.5 67.5t-65.5 189.5q0 132 72.5 204.5t204.5 72.5zM278 376q-41 0 -53.5 -19t-12.5 -86q0 -92 14 -118.5t60 -26.5
q42 0 54 18.5t12 85.5q0 92 -13.5 119t-60.5 27z" />
    <glyph glyph-name="Ocircumflexdotbelow" unicode="&#x1ed8;" 
d="M191 721l-34 76q90 62 153 119h34q63 -57 153 -119l-34 -76h-18l-118 60q-20 -10 -59 -30t-59 -30h-18zM341 659q141 0 218 -83.5t77 -235.5q0 -168 -84.5 -260t-239.5 -92q-141 0 -218 84.5t-77 239.5q0 166 84.5 256.5t239.5 90.5zM323 499q-56 0 -76 -32.5t-20 -127.5
q0 -121 21 -162t82 -41q57 0 76.5 32.5t19.5 128.5q0 120 -21 161t-82 41zM336 -32q44 0 68.5 -25t24.5 -70q0 -48 -27 -76t-74 -28q-46 0 -70 24.5t-24 70.5q0 48 27.5 76t74.5 28z" />
    <glyph glyph-name="ocircumflexdotbelow" unicode="&#x1ed9;" horiz-adv-x="565" 
d="M151 571l-47 72q69 58 163 150h34q70 -70 163 -150l-47 -72h-18q-76 48 -115 78q-39 -30 -115 -78h-18zM295 523q120 0 185.5 -66t65.5 -187q0 -134 -72.5 -207.5t-204.5 -73.5q-120 0 -185.5 67.5t-65.5 189.5q0 132 72.5 204.5t204.5 72.5zM278 376q-41 0 -53.5 -19
t-12.5 -86q0 -92 14 -118.5t60 -26.5q42 0 54 18.5t12 85.5q0 92 -13.5 119t-60.5 27zM289 -32q44 0 68.5 -25t24.5 -70q0 -48 -27 -76t-74 -28q-46 0 -70 24.5t-24 70.5q0 48 27.5 76t74.5 28z" />
    <glyph glyph-name="Ohornacute" unicode="&#x1eda;" horiz-adv-x="661" 
d="M440 914l49 -117l-6 -16q-132 -42 -238 -69l-17 4l-30 79q118 60 225 123zM612 789q37 0 60.5 -29t23.5 -74q0 -52 -33 -90t-84 -50q57 -82 57 -210q0 -163 -84.5 -255.5t-236.5 -92.5q-143 0 -220.5 84.5t-77.5 238.5q0 164 83.5 256t221.5 92q48 0 105.5 -14t71.5 -14
q46 0 46 45q0 36 -29 62l3 14q51 37 93 37zM321 499q-56 0 -75 -34t-19 -137q0 -113 22 -152.5t84 -39.5q55 0 74 34t19 138q0 112 -21.5 151.5t-83.5 39.5z" />
    <glyph glyph-name="ohornacute" unicode="&#x1edb;" horiz-adv-x="572" 
d="M384 780l49 -117l-6 -16q-132 -42 -238 -69l-17 4l-30 79q118 60 225 123zM437 582l3 13q49 34 86 34q33 0 54 -24t21 -61q0 -43 -27.5 -75t-71.5 -44q44 -63 44 -158q0 -130 -72.5 -204t-201.5 -74q-122 0 -188 67t-66 189q0 130 71.5 204t187.5 74q40 0 89 -10.5
t60 -10.5q35 0 35 33q0 29 -24 47zM289 126q40 0 51.5 20t11.5 95q0 84 -14 109.5t-61 25.5q-41 0 -53 -20.5t-12 -94.5q0 -84 15 -109.5t62 -25.5z" />
    <glyph glyph-name="Ohorngrave" unicode="&#x1edc;" horiz-adv-x="661" 
d="M234 914l17 4q107 -63 225 -123l-30 -79l-17 -4q-106 27 -238 69l-6 16zM612 789q37 0 60.5 -29t23.5 -74q0 -52 -33 -90t-84 -50q57 -82 57 -210q0 -163 -84.5 -255.5t-236.5 -92.5q-143 0 -220.5 84.5t-77.5 238.5q0 164 83.5 256t221.5 92q48 0 105.5 -14t71.5 -14
q46 0 46 45q0 36 -29 62l3 14q51 37 93 37zM321 499q-56 0 -75 -34t-19 -137q0 -113 22 -152.5t84 -39.5q55 0 74 34t19 138q0 112 -21.5 151.5t-83.5 39.5z" />
    <glyph glyph-name="ohorngrave" unicode="&#x1edd;" horiz-adv-x="572" 
d="M178 780l17 4q107 -63 225 -123l-30 -79l-17 -4q-106 27 -238 69l-6 16zM437 582l3 13q49 34 86 34q33 0 54 -24t21 -61q0 -43 -27.5 -75t-71.5 -44q44 -63 44 -158q0 -130 -72.5 -204t-201.5 -74q-122 0 -188 67t-66 189q0 130 71.5 204t187.5 74q40 0 89 -10.5
t60 -10.5q35 0 35 33q0 29 -24 47zM289 126q40 0 51.5 20t11.5 95q0 84 -14 109.5t-61 25.5q-41 0 -53 -20.5t-12 -94.5q0 -84 15 -109.5t62 -25.5z" />
    <glyph glyph-name="Ohornhookabove" unicode="&#x1ede;" horiz-adv-x="661" 
d="M313 948q43 0 71.5 -24.5t28.5 -63.5q0 -22 -13 -41t-48 -51l27 -43l-64 -39l-54 80q25 18 39.5 39t14.5 37q0 24 -30 24q-36 0 -70 -26l-29 47q56 61 127 61zM612 789q37 0 60.5 -29t23.5 -74q0 -52 -33 -90t-84 -50q57 -82 57 -210q0 -163 -84.5 -255.5t-236.5 -92.5
q-143 0 -220.5 84.5t-77.5 238.5q0 164 83.5 256t221.5 92q48 0 105.5 -14t71.5 -14q46 0 46 45q0 36 -29 62l3 14q51 37 93 37zM321 499q-56 0 -75 -34t-19 -137q0 -113 22 -152.5t84 -39.5q55 0 74 34t19 138q0 112 -21.5 151.5t-83.5 39.5z" />
    <glyph glyph-name="ohornhookabove" unicode="&#x1edf;" horiz-adv-x="572" 
d="M257 814q43 0 71.5 -24.5t28.5 -63.5q0 -22 -13 -41t-48 -51l27 -43l-64 -39l-54 80q25 18 39.5 39t14.5 37q0 24 -30 24q-36 0 -70 -26l-29 47q56 61 127 61zM437 582l3 13q49 34 86 34q33 0 54 -24t21 -61q0 -43 -27.5 -75t-71.5 -44q44 -63 44 -158q0 -130 -72.5 -204
t-201.5 -74q-122 0 -188 67t-66 189q0 130 71.5 204t187.5 74q40 0 89 -10.5t60 -10.5q35 0 35 33q0 29 -24 47zM289 126q40 0 51.5 20t11.5 95q0 84 -14 109.5t-61 25.5q-41 0 -53 -20.5t-12 -94.5q0 -84 15 -109.5t62 -25.5z" />
    <glyph glyph-name="Ohorntilde" unicode="&#x1ee0;" horiz-adv-x="661" 
d="M522 861v-16l-81 -113l-16 -6q-26 3 -83 18.5t-70 15.5q-4 0 -8 -1t-8.5 -3t-8 -4t-8 -6.5l-7 -7t-7.5 -8.5t-7 -9t-7.5 -9.5t-7.5 -9.5h-16l-57 55v16l81 113l16 6q26 -3 83 -18.5t70 -15.5q4 0 8 1t8.5 3t8 4t8 6.5l7 7t7.5 8.5t7 9t7.5 9.5t7.5 9.5h16zM612 789
q37 0 60.5 -29t23.5 -74q0 -52 -33 -90t-84 -50q57 -82 57 -210q0 -163 -84.5 -255.5t-236.5 -92.5q-143 0 -220.5 84.5t-77.5 238.5q0 164 83.5 256t221.5 92q48 0 105.5 -14t71.5 -14q46 0 46 45q0 36 -29 62l3 14q51 37 93 37zM321 499q-56 0 -75 -34t-19 -137
q0 -113 22 -152.5t84 -39.5q55 0 74 34t19 138q0 112 -21.5 151.5t-83.5 39.5z" />
    <glyph glyph-name="ohorntilde" unicode="&#x1ee1;" horiz-adv-x="572" 
d="M466 727v-16l-81 -113l-16 -6q-26 3 -83 18.5t-70 15.5q-4 0 -8 -1t-8.5 -3t-8 -4t-8 -6.5l-7 -7t-7.5 -8.5t-7 -9t-7.5 -9.5t-7.5 -9.5h-16l-57 55v16l81 113l16 6q26 -3 83 -18.5t70 -15.5q4 0 8 1t8.5 3t8 4t8 6.5l7 7t7.5 8.5t7 9t7.5 9.5t7.5 9.5h16zM437 582l3 13
q49 34 86 34q33 0 54 -24t21 -61q0 -43 -27.5 -75t-71.5 -44q44 -63 44 -158q0 -130 -72.5 -204t-201.5 -74q-122 0 -188 67t-66 189q0 130 71.5 204t187.5 74q40 0 89 -10.5t60 -10.5q35 0 35 33q0 29 -24 47zM289 126q40 0 51.5 20t11.5 95q0 84 -14 109.5t-61 25.5
q-41 0 -53 -20.5t-12 -94.5q0 -84 15 -109.5t62 -25.5z" />
    <glyph glyph-name="Ohorndotbelow" unicode="&#x1ee2;" horiz-adv-x="661" 
d="M612 789q37 0 60.5 -29t23.5 -74q0 -52 -33 -90t-84 -50q57 -82 57 -210q0 -163 -84.5 -255.5t-236.5 -92.5q-143 0 -220.5 84.5t-77.5 238.5q0 164 83.5 256t221.5 92q48 0 105.5 -14t71.5 -14q46 0 46 45q0 36 -29 62l3 14q51 37 93 37zM321 499q-56 0 -75 -34
t-19 -137q0 -113 22 -152.5t84 -39.5q55 0 74 34t19 138q0 112 -21.5 151.5t-83.5 39.5zM336 -32q44 0 68.5 -25t24.5 -70q0 -48 -27 -76t-74 -28q-46 0 -70 24.5t-24 70.5q0 48 27.5 76t74.5 28z" />
    <glyph glyph-name="ohorndotbelow" unicode="&#x1ee3;" horiz-adv-x="572" 
d="M437 582l3 13q49 34 86 34q33 0 54 -24t21 -61q0 -43 -27.5 -75t-71.5 -44q44 -63 44 -158q0 -130 -72.5 -204t-201.5 -74q-122 0 -188 67t-66 189q0 130 71.5 204t187.5 74q40 0 89 -10.5t60 -10.5q35 0 35 33q0 29 -24 47zM289 126q40 0 51.5 20t11.5 95
q0 84 -14 109.5t-61 25.5q-41 0 -53 -20.5t-12 -94.5q0 -84 15 -109.5t62 -25.5zM289 -32q44 0 68.5 -25t24.5 -70q0 -48 -27 -76t-74 -28q-46 0 -70 24.5t-24 70.5q0 48 27.5 76t74.5 28z" />
    <glyph glyph-name="Udotbelow" unicode="&#x1ee4;" 
d="M600 319l-1 -103q-1 -110 -74 -169t-209 -59q-131 0 -200.5 59t-66.5 169l3 103l-6 328h201l-9 -404q-1 -51 19.5 -74t66.5 -23q47 0 68 23t20 74l-9 404h204zM328 -32q44 0 68.5 -25t24.5 -70q0 -48 -27 -76t-74 -28q-46 0 -70 24.5t-24 70.5q0 48 27.5 76t74.5 28z" />
    <glyph glyph-name="udotbelow" unicode="&#x1ee5;" horiz-adv-x="566" 
d="M518 253l-1 -84q-1 -87 -64 -133.5t-180 -46.5q-113 0 -172 46.5t-56 133.5l2 83l-5 261h185l-8 -319q-1 -32 13 -45.5t49 -13.5t49.5 13.5t13.5 45.5l-8 319h188zM287 -32q44 0 68.5 -25t24.5 -70q0 -48 -27 -76t-74 -28q-46 0 -70 24.5t-24 70.5q0 48 27.5 76t74.5 28z
" />
    <glyph glyph-name="Uhookabove" unicode="&#x1ee6;" 
d="M313 948q43 0 71.5 -24.5t28.5 -63.5q0 -22 -13 -41t-48 -51l27 -43l-64 -39l-54 80q25 18 39.5 39t14.5 37q0 24 -30 24q-36 0 -70 -26l-29 47q56 61 127 61zM600 319l-1 -103q-1 -110 -74 -169t-209 -59q-131 0 -200.5 59t-66.5 169l3 103l-6 328h201l-9 -404
q-1 -51 19.5 -74t66.5 -23q47 0 68 23t20 74l-9 404h204z" />
    <glyph glyph-name="uhookabove" unicode="&#x1ee7;" horiz-adv-x="566" 
d="M269 814q43 0 71.5 -24.5t28.5 -63.5q0 -22 -13 -41t-48 -51l27 -43l-64 -39l-54 80q25 18 39.5 39t14.5 37q0 24 -30 24q-36 0 -70 -26l-29 47q56 61 127 61zM518 253l-1 -84q-1 -87 -64 -133.5t-180 -46.5q-113 0 -172 46.5t-56 133.5l2 83l-5 261h185l-8 -319
q-1 -32 13 -45.5t49 -13.5t49.5 13.5t13.5 45.5l-8 319h188z" />
    <glyph glyph-name="Uhornacute" unicode="&#x1ee8;" horiz-adv-x="663" 
d="M228 716l-30 79q118 60 225 123l17 -4l49 -117l-6 -16q-132 -42 -238 -69zM706 713q0 -42 -26.5 -77.5t-73.5 -57.5l-6 -259l-1 -103q-1 -110 -74 -169t-209 -59q-131 0 -200.5 59t-66.5 169l3 103l-6 328h201l-9 -404q-1 -51 19.5 -74t66.5 -23q47 0 68 23t20 74l-9 404
h95q31 0 44 11t13 37q0 35 -29 59l3 14q52 37 94 37q36 0 59.5 -26t23.5 -66z" />
    <glyph glyph-name="uhornacute" unicode="&#x1ee9;" horiz-adv-x="576" 
d="M172 582l-30 79q118 60 225 123l17 -4l49 -117l-6 -16q-132 -42 -238 -69zM610 567q0 -36 -25 -67.5t-67 -50.5l-5 -196l-1 -84q-1 -87 -64 -133.5t-180 -46.5q-113 0 -172 46.5t-56 133.5l2 83l-5 261h185l-8 -319q-1 -32 13 -45.5t49 -13.5t49.5 13.5t13.5 45.5l-8 319
h93q25 0 35.5 8.5t10.5 28.5q0 30 -24 46l3 13q49 34 87 34q33 0 53.5 -21.5t20.5 -54.5z" />
    <glyph glyph-name="Uhorngrave" unicode="&#x1eea;" horiz-adv-x="663" 
d="M446 716l-17 -4q-106 27 -238 69l-6 16l49 117l17 4q107 -63 225 -123zM706 713q0 -42 -26.5 -77.5t-73.5 -57.5l-6 -259l-1 -103q-1 -110 -74 -169t-209 -59q-131 0 -200.5 59t-66.5 169l3 103l-6 328h201l-9 -404q-1 -51 19.5 -74t66.5 -23q47 0 68 23t20 74l-9 404h95
q31 0 44 11t13 37q0 35 -29 59l3 14q52 37 94 37q36 0 59.5 -26t23.5 -66z" />
    <glyph glyph-name="uhorngrave" unicode="&#x1eeb;" horiz-adv-x="576" 
d="M390 582l-17 -4q-106 27 -238 69l-6 16l49 117l17 4q107 -63 225 -123zM610 567q0 -36 -25 -67.5t-67 -50.5l-5 -196l-1 -84q-1 -87 -64 -133.5t-180 -46.5q-113 0 -172 46.5t-56 133.5l2 83l-5 261h185l-8 -319q-1 -32 13 -45.5t49 -13.5t49.5 13.5t13.5 45.5l-8 319h93
q25 0 35.5 8.5t10.5 28.5q0 30 -24 46l3 13q49 34 87 34q33 0 53.5 -21.5t20.5 -54.5z" />
    <glyph glyph-name="Uhornhookabove" unicode="&#x1eec;" horiz-adv-x="663" 
d="M285 866q-36 0 -70 -26l-29 47q56 61 127 61q43 0 71.5 -24.5t28.5 -63.5q0 -22 -13 -41t-48 -51l27 -43l-64 -39l-54 80q25 18 39.5 39t14.5 37q0 24 -30 24zM706 713q0 -42 -26.5 -77.5t-73.5 -57.5l-6 -259l-1 -103q-1 -110 -74 -169t-209 -59q-131 0 -200.5 59
t-66.5 169l3 103l-6 328h201l-9 -404q-1 -51 19.5 -74t66.5 -23q47 0 68 23t20 74l-9 404h95q31 0 44 11t13 37q0 35 -29 59l3 14q52 37 94 37q36 0 59.5 -26t23.5 -66z" />
    <glyph glyph-name="uhornhookabove" unicode="&#x1eed;" horiz-adv-x="576" 
d="M229 732q-36 0 -70 -26l-29 47q56 61 127 61q43 0 71.5 -24.5t28.5 -63.5q0 -22 -13 -41t-48 -51l27 -43l-64 -39l-54 80q25 18 39.5 39t14.5 37q0 24 -30 24zM610 567q0 -36 -25 -67.5t-67 -50.5l-5 -196l-1 -84q-1 -87 -64 -133.5t-180 -46.5q-113 0 -172 46.5
t-56 133.5l2 83l-5 261h185l-8 -319q-1 -32 13 -45.5t49 -13.5t49.5 13.5t13.5 45.5l-8 319h93q25 0 35.5 8.5t10.5 28.5q0 30 -24 46l3 13q49 34 87 34q33 0 53.5 -21.5t20.5 -54.5z" />
    <glyph glyph-name="Uhorntilde" unicode="&#x1eee;" horiz-adv-x="663" 
d="M187 702l-57 55v16l81 113l16 6q26 -3 83 -18.5t70 -15.5q4 0 8 1t8.5 3t8 4t8 6.5l7 7t7.5 8.5t7 9t7.5 9.5t7.5 9.5h16l57 -55v-16l-81 -113l-16 -6q-26 3 -83 18.5t-70 15.5q-4 0 -8 -1t-8.5 -3t-8 -4t-8 -6.5l-7 -7t-7.5 -8.5t-7 -9t-7.5 -9.5t-7.5 -9.5h-16z
M706 713q0 -42 -26.5 -77.5t-73.5 -57.5l-6 -259l-1 -103q-1 -110 -74 -169t-209 -59q-131 0 -200.5 59t-66.5 169l3 103l-6 328h201l-9 -404q-1 -51 19.5 -74t66.5 -23q47 0 68 23t20 74l-9 404h95q31 0 44 11t13 37q0 35 -29 59l3 14q52 37 94 37q36 0 59.5 -26t23.5 -66z
" />
    <glyph glyph-name="uhorntilde" unicode="&#x1eef;" horiz-adv-x="576" 
d="M131 568l-57 55v16l81 113l16 6q26 -3 83 -18.5t70 -15.5q4 0 8 1t8.5 3t8 4t8 6.5l7 7t7.5 8.5t7 9t7.5 9.5t7.5 9.5h16l57 -55v-16l-81 -113l-16 -6q-26 3 -83 18.5t-70 15.5q-4 0 -8 -1t-8.5 -3t-8 -4t-8 -6.5l-7 -7t-7.5 -8.5t-7 -9t-7.5 -9.5t-7.5 -9.5h-16z
M610 567q0 -36 -25 -67.5t-67 -50.5l-5 -196l-1 -84q-1 -87 -64 -133.5t-180 -46.5q-113 0 -172 46.5t-56 133.5l2 83l-5 261h185l-8 -319q-1 -32 13 -45.5t49 -13.5t49.5 13.5t13.5 45.5l-8 319h93q25 0 35.5 8.5t10.5 28.5q0 30 -24 46l3 13q49 34 87 34q33 0 53.5 -21.5
t20.5 -54.5z" />
    <glyph glyph-name="Uhorndotbelow" unicode="&#x1ef0;" horiz-adv-x="663" 
d="M706 713q0 -42 -26.5 -77.5t-73.5 -57.5l-6 -259l-1 -103q-1 -110 -74 -169t-209 -59q-131 0 -200.5 59t-66.5 169l3 103l-6 328h201l-9 -404q-1 -51 19.5 -74t66.5 -23q47 0 68 23t20 74l-9 404h95q31 0 44 11t13 37q0 35 -29 59l3 14q52 37 94 37q36 0 59.5 -26
t23.5 -66zM330 -32q44 0 68.5 -25t24.5 -70q0 -48 -27 -76t-74 -28q-46 0 -70 24.5t-24 70.5q0 48 27.5 76t74.5 28z" />
    <glyph glyph-name="uhorndotbelow" unicode="&#x1ef1;" horiz-adv-x="576" 
d="M610 567q0 -36 -25 -67.5t-67 -50.5l-5 -196l-1 -84q-1 -87 -64 -133.5t-180 -46.5q-113 0 -172 46.5t-56 133.5l2 83l-5 261h185l-8 -319q-1 -32 13 -45.5t49 -13.5t49.5 13.5t13.5 45.5l-8 319h93q25 0 35.5 8.5t10.5 28.5q0 30 -24 46l3 13q49 34 87 34
q33 0 53.5 -21.5t20.5 -54.5zM287 -32q44 0 68.5 -25t24.5 -70q0 -48 -27 -76t-74 -28q-46 0 -70 24.5t-24 70.5q0 48 27.5 76t74.5 28z" />
    <glyph glyph-name="Ygrave" unicode="&#x1ef2;" horiz-adv-x="594" 
d="M416 716l-17 -4q-106 27 -238 69l-6 16l49 117l17 4q107 -63 225 -123zM382 170l8 -170h-200l10 170l-1 31l-207 446h210l16 -54l73 -195h12l84 188l23 61h204l-230 -439z" />
    <glyph glyph-name="ygrave" unicode="&#x1ef3;" horiz-adv-x="525" 
d="M369 563l-17 -1q-81 37 -223 109l-3 17l69 107l17 1q99 -85 201 -161zM340 131l8 -131h-185l9 131l-1 17l-174 365h194l14 -47l52 -133h10l61 126l20 54h189l-196 -360z" />
    <glyph glyph-name="Ydotbelow" unicode="&#x1ef4;" horiz-adv-x="594" 
d="M382 170l8 -170h-200l10 170l-1 31l-207 446h210l16 -54l73 -195h12l84 188l23 61h204l-230 -439zM294 -32q44 0 68.5 -25t24.5 -70q0 -48 -27 -76t-74 -28q-46 0 -70 24.5t-24 70.5q0 48 27.5 76t74.5 28z" />
    <glyph glyph-name="ydotbelow" unicode="&#x1ef5;" horiz-adv-x="525" 
d="M171 148l-174 365h194l14 -47l52 -133h10l61 126l20 54h189l-196 -360l-1 -22l8 -131h-185l9 131zM259 -32q44 0 68.5 -25t24.5 -70q0 -48 -27 -76t-74 -28q-46 0 -70 24.5t-24 70.5q0 48 27.5 76t74.5 28z" />
    <glyph glyph-name="Yhookabove" unicode="&#x1ef6;" horiz-adv-x="594" 
d="M255 866q-36 0 -70 -26l-29 47q56 61 127 61q43 0 71.5 -24.5t28.5 -63.5q0 -22 -13 -41t-48 -51l27 -43l-64 -39l-54 80q25 18 39.5 39t14.5 37q0 24 -30 24zM382 170l8 -170h-200l10 170l-1 31l-207 446h210l16 -54l73 -195h12l84 188l23 61h204l-230 -439z" />
    <glyph glyph-name="yhookabove" unicode="&#x1ef7;" horiz-adv-x="525" 
d="M227 732q-36 0 -70 -26l-29 47q56 61 127 61q43 0 71.5 -24.5t28.5 -63.5q0 -22 -13 -41t-48 -51l27 -43l-64 -39l-54 80q25 18 39.5 39t14.5 37q0 24 -30 24zM340 131l8 -131h-185l9 131l-1 17l-174 365h194l14 -47l52 -133h10l61 126l20 54h189l-196 -360z" />
    <glyph glyph-name="endash" unicode="&#x2013;" horiz-adv-x="451" 
d="M466 312l-9 -117h-460l-12 13l9 117h460z" />
    <glyph glyph-name="emdash" unicode="&#x2014;" horiz-adv-x="841" 
d="M860 312l-9 -117h-858l-12 13l9 117h858z" />
    <glyph glyph-name="quoteleft" unicode="&#x2018;" horiz-adv-x="253" 
d="M95 342q-60 40 -60 116q0 95 114 200l65 -42l3 -12q-39 -44 -39 -88q0 -56 42 -88v-15q-66 -49 -125 -71z" />
    <glyph glyph-name="quoteright" unicode="&#x2019;" horiz-adv-x="253" 
d="M159 659q60 -40 60 -116q0 -95 -114 -200l-65 42l-3 12q39 43 39 88q0 57 -42 88v15q66 49 125 71z" />
    <glyph glyph-name="quotesinglbase" unicode="&#x201a;" horiz-adv-x="228" 
d="M156 183q48 -45 48 -106q0 -114 -152 -219l-61 53l-2 14q56 49 56 109q0 42 -33 75l1 16q72 40 143 58z" />
    <glyph glyph-name="quotedblleft" unicode="&#x201c;" horiz-adv-x="458" 
d="M95 342q-60 40 -60 116q0 95 114 200l65 -42l3 -12q-39 -44 -39 -88q0 -56 42 -88v-15q-66 -49 -125 -71zM300 342q-60 40 -60 116q0 95 114 200l65 -42l3 -12q-39 -44 -39 -88q0 -56 42 -88v-15q-66 -49 -125 -71z" />
    <glyph glyph-name="quotedblright" unicode="&#x201d;" horiz-adv-x="448" 
d="M159 659q60 -40 60 -116q0 -95 -114 -200l-65 42l-3 12q39 43 39 88q0 57 -42 88v15q66 49 125 71zM354 659q60 -40 60 -116q0 -95 -114 -200l-65 42l-3 12q39 43 39 88q0 57 -42 88v15q66 49 125 71z" />
    <glyph glyph-name="quotedblbase" unicode="&#x201e;" horiz-adv-x="433" 
d="M156 183q48 -45 48 -106q0 -114 -152 -219l-61 53l-2 14q56 49 56 109q0 42 -33 75l1 16q72 40 143 58zM361 183q48 -45 48 -106q0 -114 -152 -219l-61 53l-2 14q56 49 56 109q0 42 -33 75l1 16q72 40 143 58z" />
    <glyph glyph-name="dagger" unicode="&#x2020;" horiz-adv-x="525" 
d="M323 294v-3l1 -376l-119 -9l-12 13v360v15h-144l-12 13l9 115h147l1 162l122 9l11 -11l-2 -160h151l12 -13l-9 -115h-156z" />
    <glyph glyph-name="daggerdbl" unicode="&#x2021;" horiz-adv-x="525" 
d="M476 179l12 -13l-9 -115h-155v-136l-119 -9l-12 13v132h-144l-12 13l9 115h147v100v32h-144l-12 13l9 115h148v145l122 9l11 -11l-2 -143h151l12 -13l-9 -115h-156v-20v-112h153z" />
    <glyph glyph-name="bullet" unicode="&#x2022;" horiz-adv-x="302" 
d="M157 397q61 0 94.5 -34.5t33.5 -96.5q0 -66 -37.5 -104.5t-101.5 -38.5q-63 0 -96.5 33.5t-33.5 97.5q0 66 38 104.5t103 38.5z" />
    <glyph glyph-name="onedotenleader" unicode="&#x2024;" horiz-adv-x="228" 
d="M118 190q44 0 68.5 -25t24.5 -70q0 -48 -27 -76t-74 -28q-46 0 -70 24.5t-24 70.5q0 48 27.5 76t74.5 28z" />
    <glyph glyph-name="twodotenleader" unicode="&#x2025;" horiz-adv-x="458" 
d="M113 190q44 0 68.5 -25t24.5 -70q0 -48 -27 -76t-74 -28q-46 0 -70 24.5t-24 70.5q0 48 27.5 76t74.5 28zM343 190q44 0 68.5 -25t24.5 -70q0 -48 -27 -76t-74 -28q-46 0 -70 24.5t-24 70.5q0 48 27.5 76t74.5 28z" />
    <glyph glyph-name="ellipsis" unicode="&#x2026;" horiz-adv-x="688" 
d="M113 190q44 0 68.5 -25t24.5 -70q0 -48 -27 -76t-74 -28q-46 0 -70 24.5t-24 70.5q0 48 27.5 76t74.5 28zM343 190q44 0 68.5 -25t24.5 -70q0 -48 -27 -76t-74 -28q-46 0 -70 24.5t-24 70.5q0 48 27.5 76t74.5 28zM573 190q44 0 68.5 -25t24.5 -70q0 -48 -27 -76t-74 -28
q-46 0 -70 24.5t-24 70.5q0 48 27.5 76t74.5 28z" />
    <glyph glyph-name="perthousand" unicode="&#x2030;" horiz-adv-x="1265" 
d="M693 647l10 -24l-462 -717l-82 50l-6 17l464 721zM198 655q76 0 116.5 -46t40.5 -132q0 -94 -45.5 -145t-130.5 -51q-77 0 -118 46t-41 132q0 94 46 145t132 51zM186 535q-28 0 -39.5 -15t-11.5 -52q0 -41 11.5 -58.5t40.5 -17.5q30 0 42 16t12 53q0 40 -12.5 57
t-42.5 17zM711 367q76 0 116.5 -46t40.5 -133q0 -94 -45.5 -144.5t-130.5 -50.5q-77 0 -118 46t-41 131q0 95 46.5 146t131.5 51zM1087 367q76 0 116.5 -46t40.5 -133q0 -94 -45.5 -144.5t-130.5 -50.5q-77 0 -118 46t-41 131q0 95 46.5 146t131.5 51zM699 247
q-28 0 -39.5 -15t-11.5 -53q0 -41 11.5 -58.5t40.5 -17.5q30 0 42 16.5t12 53.5q0 40 -12.5 57t-42.5 17zM1075 247q-28 0 -39.5 -15t-11.5 -53q0 -41 11.5 -58.5t40.5 -17.5q30 0 42 16.5t12 53.5q0 40 -12.5 57t-42.5 17z" />
    <glyph glyph-name="minute" unicode="&#x2032;" horiz-adv-x="250" 
d="M214 634l-48 -262l-88 -14l-15 11l-10 268l151 9z" />
    <glyph glyph-name="second" unicode="&#x2033;" horiz-adv-x="445" 
d="M214 634l-48 -262l-88 -14l-15 11l-10 268l151 9zM409 634l-48 -262l-88 -14l-15 11l-10 268l151 9z" />
    <glyph glyph-name="guilsinglleft" unicode="&#x2039;" horiz-adv-x="260" 
d="M23 214v27l125 184l91 -47l4 -17l-80 -131l80 -130l-4 -17l-91 -47z" />
    <glyph glyph-name="guilsinglright" unicode="&#x203a;" horiz-adv-x="260" 
d="M242 250v-27l-125 -184l-91 47l-4 17l80 131l-80 130l4 17l91 47z" />
    <glyph glyph-name="fraction" unicode="&#x2044;" horiz-adv-x="137" 
d="M317 647l10 -24l-462 -717l-82 50l-6 17l464 721z" />
    <glyph glyph-name="zerosuperior" unicode="&#x2070;" horiz-adv-x="376" 
d="M198 709q76 0 116.5 -50.5t40.5 -144.5q0 -103 -45.5 -158.5t-130.5 -55.5q-77 0 -118 50t-41 144q0 103 46 159t132 56zM186 578q-28 0 -39.5 -16.5t-11.5 -57.5q0 -44 11.5 -63.5t40.5 -19.5q30 0 42 18t12 58q0 44 -12.5 62.5t-42.5 18.5z" />
    <glyph glyph-name="foursuperior" unicode="&#x2074;" horiz-adv-x="385" 
d="M361 376l-46 1l5 -61l-8 -9l-115 -6l-8 8l3 70h-87l-83 -3l-9 11v88l166 225h136l-3 -215h47l8 -12zM137 485h58l-1 64h-8z" />
    <glyph glyph-name="fivesuperior" unicode="&#x2075;" horiz-adv-x="339" 
d="M315 697l-14 -105l-10 -10l-82 10h-53v-30l43 -9q113 -22 113 -109q0 -66 -54 -105.5t-143 -39.5q-46 0 -96 9l-8 100l9 9q48 -13 95 -13q56 0 56 25q0 21 -39 27l-80 12l-8 10l-1 210l14 14l46 -2h117l86 5z" />
    <glyph glyph-name="sixsuperior" unicode="&#x2076;" horiz-adv-x="365" 
d="M224 561q59 0 92.5 -36.5t33.5 -85.5q0 -55 -43.5 -97.5t-125.5 -42.5q-77 0 -121.5 42t-44.5 114q0 77 53.5 142.5t150.5 110.5h7l94 -61v-14q-112 -42 -142 -76l1 -1q25 5 45 5zM184 387q33 0 33 38q0 40 -38 40q-15 0 -30 -4v-4q0 -27 1.5 -39t9.5 -21.5t24 -9.5z" />
    <glyph glyph-name="sevensuperior" unicode="&#x2077;" horiz-adv-x="324" 
d="M119 700h145l41 1v-101l-86 -173l-51 -128l-118 30l-9 22l121 234h-67l-80 -8l-7 10l9 116z" />
    <glyph glyph-name="eightsuperior" unicode="&#x2078;" horiz-adv-x="383" 
d="M203 708q66 0 103.5 -28t37.5 -75q0 -50 -56 -85v-6q65 -32 65 -89q0 -59 -47 -92.5t-126 -33.5q-73 0 -112.5 28.5t-39.5 73.5q0 59 73 87v5q-63 31 -63 93q0 57 44.5 89.5t120.5 32.5zM193 614q-35 0 -35 -23q0 -21 49 -41q22 21 22 38q0 26 -36 26zM181 454
q-32 -11 -32 -33q0 -32 43 -32q21 0 31.5 7.5t10.5 17.5q0 22 -53 40z" />
    <glyph glyph-name="ninesuperior" unicode="&#x2079;" horiz-adv-x="366" 
d="M185 708q77 0 121.5 -42t44.5 -115q0 -76 -54 -141.5t-151 -110.5h-7l-94 61v13q113 43 143 75l-2 2q-19 -4 -45 -4q-58 0 -92 36.5t-34 85.5q0 55 44 97.5t126 42.5zM186 542q15 0 31 4v3q0 26 -2 39t-10 22t-24 9q-33 0 -33 -37q0 -40 38 -40z" />
    <glyph glyph-name="franc" unicode="&#x20a3;" horiz-adv-x="424" 
d="M225 385l-2 -71h62l103 3l9 -11l-10 -120l-114 3h-53l-1 -23l1 -28h105l7 -9l-5 -59h-104l3 -70h-167l4 70h-52l-6 8l5 60h56l1 11l-8 361h375l9 -11l-11 -120l-141 6h-66z" />
    <glyph glyph-name="Euro" unicode="&#x20ac;" horiz-adv-x="447" 
d="M2 269l-6 10l5 72h68q25 82 91 126.5t166 44.5q62 0 125 -17l-30 -144l-11 -8q-45 21 -91 21q-38 0 -54 -23h94l7 -7l-5 -75h-359zM330 138q43 0 91 13l14 -9l-14 -143q-36 -8 -102 -8q-217 0 -257 172h-60l-6 8l5 74h358l7 -9l-5 -73h-91q19 -25 60 -25z" />
    <glyph glyph-name="literSign" unicode="&#x2113;" horiz-adv-x="402" 
d="M392 139l-11 -139h-333l9 149l-9 364h189l-11 -345l1 -17h155z" />
    <glyph glyph-name="trademark" unicode="&#x2122;" horiz-adv-x="598" 
d="M224 645l5 -6l-5 -68l-55 3l-2 -91l4 -79h-93l5 70l-2 100l-55 -3l-6 7l5 67h199zM558 404h-83l-1 73l-2 34h-5l-33 -87h-70l-25 87h-5l-3 -25l-3 -82h-79l25 241h109l6 -34l13 -65h6l15 61l8 38h108z" />
    <glyph glyph-name="Ohm" unicode="&#x2126;" horiz-adv-x="765" 
d="M388 659q145 0 224 -72t79 -198q0 -119 -87 -236l3 -5h51l87 10l10 -12l-22 -154l-134 8h-152l-36 -3l-9 7v108q43 52 61 104.5t18 126.5q0 85 -23.5 120.5t-79.5 35.5q-53 0 -74.5 -33t-21.5 -113q0 -76 18.5 -131t60.5 -110v-108l-9 -7l-36 3h-186l-110 -6l-10 12
l22 149l98 -8l26 1l3 5q-87 111 -87 225q0 129 83 205t233 76z" />
    <glyph glyph-name="estimated" unicode="&#x212e;" horiz-adv-x="787" 
d="M404 651q152 0 260 -97t108 -235v-8h-597q-5 0 -5 -4v-181q0 -10 9 -21q91 -97 226 -97q144 0 237 109h54q-51 -60 -128 -94.5t-164 -34.5q-152 0 -260.5 97t-108.5 234q0 138 108 235t261 97zM405 631q-132 0 -225 -96q-10 -10 -10 -23v-178q0 -5 5 -5h458q5 0 5 5v182
q0 12 -10 22q-93 93 -223 93z" />
    <glyph glyph-name="oneeighth" unicode="&#x215b;" horiz-adv-x="826" 
d="M623 647l10 -24l-462 -717l-82 50l-6 17l464 721zM238 639l-7 -244l6 -141h-150l6 127v113l-80 -12l-9 6v113l213 52zM646 401q66 0 103.5 -28t37.5 -75q0 -50 -56 -85v-6q65 -32 65 -89q0 -59 -47 -92.5t-126 -33.5q-73 0 -112.5 28.5t-39.5 73.5q0 59 73 87v5
q-63 32 -63 93q0 57 44.5 89.5t120.5 32.5zM636 307q-35 0 -35 -23q0 -21 49 -41q22 21 22 38q0 26 -36 26zM624 147q-32 -11 -32 -33q0 -32 43 -32q21 0 31.5 7.5t10.5 17.5q0 22 -53 40z" />
    <glyph glyph-name="threeeighths" unicode="&#x215c;" horiz-adv-x="867" 
d="M664 647l10 -24l-462 -717l-82 50l-6 17l464 721zM161 655q67 0 107.5 -28t40.5 -73q0 -58 -61 -91v-4q68 -22 68 -90q0 -56 -55.5 -89.5t-146.5 -33.5q-44 0 -86 8l-9 102l10 9q46 -14 88 -14q57 0 57 24q0 17 -28 17h-62l-7 8l2 95l33 2q47 2 47 28q0 18 -31 18
q-26 0 -78 -19h-15l-23 95q70 36 149 36zM687 401q66 0 103.5 -28t37.5 -75q0 -50 -56 -85v-6q65 -32 65 -89q0 -59 -47 -92.5t-126 -33.5q-73 0 -112.5 28.5t-39.5 73.5q0 59 73 87v5q-63 32 -63 93q0 57 44.5 89.5t120.5 32.5zM677 307q-35 0 -35 -23q0 -21 49 -41
q22 21 22 38q0 26 -36 26zM665 147q-32 -11 -32 -33q0 -32 43 -32q21 0 31.5 7.5t10.5 17.5q0 22 -53 40z" />
    <glyph glyph-name="fiveeighths" unicode="&#x215d;" horiz-adv-x="849" 
d="M646 647l10 -24l-462 -717l-82 50l-6 17l464 721zM315 644l-14 -105l-10 -10l-82 10h-53v-30l43 -9q113 -22 113 -109q0 -66 -54 -105.5t-143 -39.5q-46 0 -96 9l-8 100l9 9q48 -13 95 -13q56 0 56 25q0 21 -39 27l-80 12l-8 10l-1 210l14 14l46 -2h117l86 5zM669 401
q66 0 103.5 -28t37.5 -75q0 -50 -56 -85v-6q65 -32 65 -89q0 -59 -47 -92.5t-126 -33.5q-73 0 -112.5 28.5t-39.5 73.5q0 59 73 87v5q-63 32 -63 93q0 57 44.5 89.5t120.5 32.5zM659 307q-35 0 -35 -23q0 -21 49 -41q22 21 22 38q0 26 -36 26zM647 147q-32 -11 -32 -33
q0 -32 43 -32q21 0 31.5 7.5t10.5 17.5q0 22 -53 40z" />
    <glyph glyph-name="seveneighths" unicode="&#x215e;" horiz-adv-x="824" 
d="M621 647l10 -24l-462 -717l-82 50l-6 17l464 721zM119 647h145l41 1v-101l-86 -173l-51 -128l-118 30l-9 22l121 234h-67l-80 -8l-7 10l9 116zM644 401q66 0 103.5 -28t37.5 -75q0 -50 -56 -85v-6q65 -32 65 -89q0 -59 -47 -92.5t-126 -33.5q-73 0 -112.5 28.5
t-39.5 73.5q0 59 73 87v5q-63 32 -63 93q0 57 44.5 89.5t120.5 32.5zM634 307q-35 0 -35 -23q0 -21 49 -41q22 21 22 38q0 26 -36 26zM622 147q-32 -11 -32 -33q0 -32 43 -32q21 0 31.5 7.5t10.5 17.5q0 22 -53 40z" />
    <glyph glyph-name="arrowleft" unicode="&#x2190;" horiz-adv-x="550" 
d="M515 175l-294 8l111 -119v-24l-106 -22l-201 209v29l201 210l106 -22v-24l-111 -119l288 8l12 -14z" />
    <glyph glyph-name="arrowup" unicode="&#x2191;" horiz-adv-x="550" 
d="M501 295l-22 -106h-24l-119 111l8 -288l-14 -12l-120 6l8 294l-119 -111h-24l-22 106l209 201h29z" />
    <glyph glyph-name="arrowright" unicode="&#x2192;" horiz-adv-x="550" 
d="M525 257v-29l-201 -210l-106 22v24l111 119l-288 -8l-12 14l6 120l294 -8l-111 119v24l106 22z" />
    <glyph glyph-name="arrowdown" unicode="&#x2193;" horiz-adv-x="550" 
d="M499 189l-209 -201h-29l-210 201l22 106h24l119 -111l-8 288l14 12l120 -6l-8 -294l119 111h24z" />
    <glyph glyph-name="arrowupleft" unicode="&#x2196;" horiz-adv-x="550" 
d="M489 128l-2 -18l-89 -81l-202 214l-6 -163l-17 -17l-90 60l5 289l21 21l291 6l59 -90l-17 -17l-163 -6z" />
    <glyph glyph-name="arrowupright" unicode="&#x2197;" horiz-adv-x="550" 
d="M466 127l-90 -59l-17 17l-6 163l-198 -210l-18 2l-81 89l214 202l-163 6l-17 17l60 90l289 -5l21 -21z" />
    <glyph glyph-name="arrowdownright" unicode="&#x2198;" horiz-adv-x="550" 
d="M466 355l-5 -289l-21 -21l-291 -6l-59 90l17 17l163 6l-210 198l2 18l89 81l202 -214l6 163l17 17z" />
    <glyph glyph-name="arrowdownleft" unicode="&#x2199;" horiz-adv-x="550" 
d="M443 152l17 -17l-60 -90l-289 5l-21 21l-6 291l90 59l17 -17l6 -163l198 210l18 -2l81 -89l-214 -202z" />
    <glyph glyph-name="partialdiff" unicode="&#x2202;" horiz-adv-x="529" 
d="M180 720h11q330 -163 330 -448q0 -130 -69 -207t-193 -77q-118 0 -180.5 67.5t-62.5 163.5q0 91 54.5 160t146.5 69q31 0 63 -13l8 8q-64 104 -250 164v14zM265 122q35 0 51.5 32.5t16.5 104.5q0 21 -1 31q-35 16 -63 16q-69 0 -69 -88q0 -96 65 -96z" />
    <glyph glyph-name="increment" unicode="&#x2206;" horiz-adv-x="627" 
d="M617 0h-615l196 647h242zM309 468l-85 -323h164l-67 323h-12z" />
    <glyph glyph-name="product" unicode="&#x220f;" horiz-adv-x="730" 
d="M630 490l-7 -280l8 -210h-201l10 190l-7 303h-147l-7 -283l8 -210h-201l10 190l-7 299l-53 -2l-12 14l11 146h660l11 -14l-11 -146z" />
    <glyph glyph-name="summation" unicode="&#x2211;" horiz-adv-x="547" 
d="M515 635l-12 -141l-109 7h-128l168 -163v-28l-166 -164h120l127 9l12 -15l-13 -142l-169 2h-211l-107 -3v138l189 188l-189 177v149l96 -2h252l128 2z" />
    <glyph glyph-name="minus" unicode="&#x2212;" horiz-adv-x="480" 
d="M466 307l-9 -117h-430l-12 13l9 117h430z" />
    <glyph glyph-name="divisionslash" unicode="&#x2215;" horiz-adv-x="280" 
d="M326 667l-208 -785h-135l-11 15l208 786h131z" />
    <glyph glyph-name="bulletoperator" unicode="&#x2219;" horiz-adv-x="302" 
d="M157 397q61 0 94.5 -34.5t33.5 -96.5q0 -66 -37.5 -104.5t-101.5 -38.5q-63 0 -96.5 33.5t-33.5 97.5q0 66 38 104.5t103 38.5z" />
    <glyph glyph-name="radical" unicode="&#x221a;" horiz-adv-x="494" 
d="M349 0h-210l-75 340h-95l-5 7l4 125h225l6 -7l58 -300h11l146 533l14 12h129z" />
    <glyph glyph-name="infinity" unicode="&#x221e;" horiz-adv-x="480" 
d="M351 424q67 0 104 -45.5t37 -121.5q0 -79 -38.5 -122t-99.5 -43q-63 0 -107 60q-41 -60 -122 -60q-67 0 -104 45t-37 122q0 78 37.5 121.5t99.5 43.5q64 0 108 -60q43 60 122 60zM132 306q-42 0 -42 -46q0 -44 36 -44q35 0 59 60q-23 30 -53 30zM350 300q-34 0 -58 -60
q22 -31 53 -31q41 0 41 48q0 43 -36 43z" />
    <glyph glyph-name="integral" unicode="&#x222b;" horiz-adv-x="320" 
d="M305 710q43 0 89 -9l-11 -138l-13 -9q-55 23 -89 23q-32 0 -33 -34l3 -487q1 -77 -35.5 -128t-122.5 -89l-84 83v15q65 37 64 114l-7 458q0 97 63 149t176 52z" />
    <glyph glyph-name="approxequal" unicode="&#x2248;" horiz-adv-x="480" 
d="M161 318q-6 0 -11.5 -1.5t-11.5 -5.5t-10 -7t-11.5 -10.5t-10.5 -11t-12 -13t-11 -12.5h-16l-51 63v16l92 115l16 7q27 -5 113 -31t104 -26q5 0 10.5 1.5t11.5 5.5t10 7t11 10t10.5 11t12 13t11.5 13h16l50 -63v-16l-91 -115l-16 -6q-29 4 -114 30t-102 26zM161 105
q-6 0 -11.5 -1.5t-11.5 -5.5t-10 -7t-11.5 -10.5t-10.5 -11t-12 -13t-11 -12.5h-16l-51 63v16l92 115l16 7q27 -5 113 -31t104 -26q5 0 10.5 1.5t11.5 5.5t10 7t11 10t10.5 11t12 13t11.5 13h16l50 -63v-16l-91 -115l-16 -6q-29 4 -114 30t-102 26z" />
    <glyph glyph-name="notequal" unicode="&#x2260;" horiz-adv-x="480" 
d="M454 213l12 -13l-9 -117h-195l-32 -136h-121l-9 14l28 122h-101l-12 13l9 117h135l19 83h-151l-12 13l9 117h184l32 137h118l12 -13l-29 -124h113l12 -13l-9 -117h-146l-19 -83h162z" />
    <glyph glyph-name="lessequal" unicode="&#x2264;" horiz-adv-x="480" 
d="M448 369l-7 -13l-277 -92v-9l276 -91l-26 -108l-16 -13l-367 134v156l12 17l365 130zM466 -28l-9 -117h-430l-12 13l9 117h430z" />
    <glyph glyph-name="greaterequal" unicode="&#x2265;" horiz-adv-x="480" 
d="M437 350l12 -17v-156l-367 -134l-16 13l-26 108l276 91v9l-277 92l-7 13l40 111zM466 -28l-9 -117h-430l-12 13l9 117h430z" />
    <glyph glyph-name="lozenge" unicode="&#x25ca;" horiz-adv-x="532" 
d="M353 644l154 -338l-1 -51l-153 -341l-151 -7l-15 7l-152 338v49l153 343l152 7zM263 519l-103 -247l109 -233h8l104 241l-110 239h-8z" />
    <glyph glyph-name="uniA78B" unicode="&#xa78b;" horiz-adv-x="177" 
d="M177 603l-48 -333l-88 -18l-15 14l-10 341l151 11z" />
    <glyph glyph-name="uniA78C" unicode="&#xa78c;" horiz-adv-x="177" 
d="M176 534l-48 -318l-88 -17l-15 14l-10 325l151 11z" />
    <glyph glyph-name="dieresisacute" unicode="&#xf6d7;" horiz-adv-x="388" 
d="M304 901l28 -124l-9 -15q-154 -19 -246 -26l-16 7l-16 83q130 39 243 82zM102 697q38 0 59 -21.5t21 -60.5q0 -42 -23.5 -66.5t-63.5 -24.5t-61 21.5t-21 61.5q0 41 24 65.5t65 24.5zM295 697q38 0 59 -21.5t21 -60.5q0 -42 -23.5 -66.5t-63.5 -24.5t-61 21.5t-21 61.5
q0 41 24 65.5t65 24.5z" />
    <glyph glyph-name="dieresisgrave" unicode="&#xf6d8;" horiz-adv-x="388" 
d="M73 901l16 7q113 -43 243 -82l-16 -83l-16 -7q-92 7 -246 26l-9 15zM102 697q38 0 59 -21.5t21 -60.5q0 -42 -23.5 -66.5t-63.5 -24.5t-61 21.5t-21 61.5q0 41 24 65.5t65 24.5zM295 697q38 0 59 -21.5t21 -60.5q0 -42 -23.5 -66.5t-63.5 -24.5t-61 21.5t-21 61.5
q0 41 24 65.5t65 24.5z" />
    <glyph glyph-name="Iacute_J.loclNLD" horiz-adv-x="689" 
d="M275 914l49 -117l-6 -16q-132 -42 -238 -69l-17 4l-30 79q118 60 225 123zM653 797l-6 -16q-132 -42 -238 -69l-17 4l-30 79q118 60 225 123l17 -4zM264 647l-11 -437l8 -210h-201l10 190l-10 457h204zM631 647l-11 -434l2 -89q0 -94 -49 -146.5t-176 -89.5l-52 103v16
q51 25 71.5 52t20.5 71v63l-7 313l-85 -3l-11 13l8 131h289z" />
    <glyph glyph-name="C.ss01" horiz-adv-x="447" 
d="M294 366q-43 0 -61.5 -21t-18.5 -73q0 -66 22 -95t71 -29q47 0 92 10l14 -9l-8 -84h142v-65h-647v65h194q-67 63 -67 186q0 129 80 197h-207v65h647v-65h-127l-20 -95l-12 -7q-43 20 -94 20z" />
    <glyph glyph-name="D.ss01" horiz-adv-x="575" 
d="M675 448h-192q64 -59 64 -172q0 -139 -81 -211h209v-65h-775v65h167l5 87l-8 296h-164v65h775v-65zM234 170l1 -29q46 -8 63 -8q31 0 47 22t16 77q0 78 -14.5 106t-54.5 28q-31 0 -52 -2z" />
    <glyph glyph-name="I.ss01" horiz-adv-x="303" 
d="M231 168l5 -103h167v-65h-503v65h157l5 84l-7 299h-155v65h503v-65h-163z" />
    <glyph glyph-name="L.ss01" horiz-adv-x="432" 
d="M235 448l-9 -278l1 -17h152l10 -12l-6 -76h149v-65h-632v65h155l5 86l-7 297h-153v65h632v-65h-297z" />
    <glyph glyph-name="M.ss01" horiz-adv-x="691" 
d="M603 448l32 -383h156v-65h-891v65h148l39 383h-187v65h891v-65h-188zM389 448h-84l3 -15l30 -115h10l35 109zM483 65v113l-4 80h-9l-71 -165h-132l-56 165h-10l-5 -66l-4 -127h291z" />
    <glyph glyph-name="V.ss01" horiz-adv-x="540" 
d="M509 448l-119 -383h250v-65h-740v65h245l-107 383h-138v65h740v-65h-131zM345 448h-135l7 -38l48 -243h11l61 232z" />
    <glyph glyph-name="X.ss01" horiz-adv-x="555" 
d="M387 272l124 -207h144v-65h-755v65h160l121 182l-125 201h-156v65h755v-65h-155zM245 448l13 -29l32 -50l39 59l9 20h-93zM322 65l-14 32l-32 50l-45 -58l-11 -24h102z" />
    <glyph glyph-name="idotaccent" horiz-adv-x="303" 
d="M157 769q44 0 68.5 -25t24.5 -70q0 -48 -27 -76t-74 -28q-46 0 -70 24.5t-24 70.5q0 48 27.5 76t74.5 28zM231 168l8 -168h-186l9 149l-9 364h189z" />
    <glyph glyph-name="germandbls.calt" horiz-adv-x="711" 
d="M361 659q74 0 139 -17.5t150 -55.5l8 -23l-117 -171q97 -71 119 -94q46 -47 46 -113q0 -97 -69.5 -147t-174.5 -50q-96 0 -185 38l29 174l20 12q86 -75 147 -75q34 0 34 25q0 20 -41.5 52t-154.5 94l-5 24l106 157q-36 12 -70 12q-54 0 -76.5 -22.5t-21.5 -74.5l-5 -194
l8 -210h-201l10 190l-5 214q0 119 79 187t231 68z" />
    <glyph glyph-name="iacute_j.loclNLD" horiz-adv-x="647" 
d="M73 563l-44 72q102 76 201 161l17 -1l69 -107l-3 -17q-142 -72 -223 -109zM594 686l-3 -17q-142 -72 -223 -109l-17 1l-44 72q102 76 201 161l17 -1zM242 513l-11 -345l8 -168h-186l9 149l-9 364h189zM586 513l-9 -345l2 -69q0 -76 -43 -119.5t-154 -78.5l-51 93v14
q43 17 59.5 37t16.5 53v52l-5 227l-78 -2l-10 11l11 127h261z" />
    <glyph glyph-name="a.sups" horiz-adv-x="364" 
d="M187 655q66 0 101 -26t35 -74q0 -12 -2.5 -65t-2.5 -61q0 -16 9 -16q8 0 12 2l9 -8l-13 -71q-27 -20 -59 -20q-30 0 -44.5 10.5t-23.5 37.5h-5q-29 -34 -70 -49q-54 0 -86 29t-32 79q0 77 81 89l99 12l1 5q0 17 -7.5 24t-24.5 7q-40 0 -103 -32l-8 5l-15 89q69 33 149 33
zM195 463l-37 -4q-19 -5 -19 -23q0 -27 25 -27q16 0 31 9v45z" />
    <glyph glyph-name="b.sups" horiz-adv-x="384" 
d="M238 651q63 0 97.5 -41.5t34.5 -116.5q0 -87 -46 -133t-125 -46q-47 0 -96 18l-58 -18l-12 13l6 126l-5 342l138 9l-4 -204h3q28 32 67 51zM189 399q25 0 38 16.5t13 58.5q0 68 -46 68q-14 0 -28 -7l-1 -65l1 -67q11 -4 23 -4z" />
    <glyph glyph-name="c.sups" horiz-adv-x="272" 
d="M185 655q46 0 84 -16l-23 -105l-9 -5q-34 14 -52 14q-39 0 -39 -49q0 -72 48 -72q21 0 57 9l10 -8l-14 -101q-32 -8 -87 -8q-70 0 -108 43t-38 122q0 84 44.5 130t126.5 46z" />
    <glyph glyph-name="d.sups" horiz-adv-x="386" 
d="M348 804l-5 -376q0 -15 10 -15q7 0 12 2l9 -8l-14 -71q-28 -20 -68 -20q-26 0 -41.5 9.5t-26.5 35.5h-5q-23 -23 -62 -46q-67 0 -105 44.5t-38 120.5q0 85 46.5 129t127.5 44q2 0 10.5 -0.5t14.5 -0.5l-2 143zM186 561q-24 0 -33.5 -13t-9.5 -51q0 -79 39 -79q15 0 35 14
l-3 125q-13 4 -28 4z" />
    <glyph glyph-name="e.sups" horiz-adv-x="351" 
d="M323 453h-177q11 -39 65 -39q47 0 105 16l9 -7l-14 -95q-53 -14 -112 -14q-89 0 -137 44.5t-48 126.5q0 80 46 124.5t127 44.5q72 0 110.5 -36t38.5 -102q0 -28 -3 -49zM143 517l73 1q1 7 1 15q0 32 -35 32t-39 -48z" />
    <glyph glyph-name="f.sups" horiz-adv-x="238" 
d="M247 806q33 0 68 -6l-8 -101l-9 -6q-42 17 -66 17q-31 0 -31 -27l-1 -40h77l3 -7l-6 -73h-75l-1 -96l5 -145h-138l6 131l-2 110h-50l-4 7l6 73h46v15q0 71 47.5 109.5t132.5 38.5z" />
    <glyph glyph-name="g.sups" horiz-adv-x="366" 
d="M386 667v-85q-16 -4 -41 -4l-2 -3q6 -15 6 -31q0 -55 -42.5 -85.5t-117.5 -30.5q-12 0 -36 2v-6q0 -11 21 -14.5t50.5 -6t59.5 -8.5t51 -27t21 -57q0 -57 -46 -90.5t-126 -33.5q-73 0 -111.5 25t-38.5 69q26 25 53 41v4q-47 21 -47 73q23 22 55 42v5q-59 28 -59 92
q0 55 42.5 85.5t116.5 30.5q39 0 75 -13q45 7 107 34zM192 508q35 0 35 32q0 18 -7.5 24t-26.5 6q-20 0 -28 -6.5t-8 -22.5q0 -18 8 -25.5t27 -7.5zM239 285q0 5 -2.5 8.5t-7.5 5.5t-10.5 3.5t-14.5 3t-16 2t-18.5 1.5t-18.5 2q-6 -7 -6 -18q0 -31 51 -31q23 0 33 4.5
t10 18.5z" />
    <glyph glyph-name="h.sups" horiz-adv-x="398" 
d="M225 322l8 180q0 40 -33 40q-17 0 -33 -8l-1 -67l6 -145h-139l6 131l-4 342l137 9l-4 -204h4q37 35 82 50q53 0 81 -23t26 -66l-3 -94l6 -145h-139z" />
    <glyph glyph-name="i.sups" horiz-adv-x="207" 
d="M108 825q31 0 48 -18t17 -50q0 -34 -19 -54t-53 -20q-31 0 -48 18t-17 50q0 34 19 54t53 20zM166 467l6 -145h-139l7 131l-5 186l137 9z" />
    <glyph glyph-name="j.sups" horiz-adv-x="231" 
d="M118 825q32 0 49.5 -18t17.5 -50q0 -34 -19.5 -54t-52.5 -20t-50.5 18t-17.5 50q0 34 20 54t53 20zM195 646l-7 -179l6 -120q0 -109 -136 -160l-46 61v11q49 25 49 85v109l-1 88l-48 -2l-7 8l7 96h50l129 6z" />
    <glyph glyph-name="k.sups" horiz-adv-x="392" 
d="M382 646l-89 -143q30 -56 95 -158l-1 -14q-35 -7 -130 -18l-14 8q-50 87 -77 156v-10l6 -145h-139l6 131l-4 342l137 9l-5 -295l58 99l16 38h141z" />
    <glyph glyph-name="l.sups" horiz-adv-x="205" 
d="M166 467l5 -145h-138l6 131l-5 342l137 9z" />
    <glyph glyph-name="m.sups" horiz-adv-x="588" 
d="M417 322l7 181q0 40 -33 40q-14 0 -33 -8l-2 -68l6 -145h-137l7 181q0 40 -34 40q-16 0 -34 -9v-67l6 -145h-137l6 131l-4 186l129 9v-48h5q39 36 83 50q80 0 100 -50h4q37 34 89 50q52 0 80 -23t27 -66l-3 -94l5 -145h-137z" />
    <glyph glyph-name="n.sups" horiz-adv-x="397" 
d="M224 322l8 180q0 40 -33 40q-17 0 -33 -8v-67l6 -145h-139l6 131l-4 186l131 9v-48h5q37 35 83 50q52 0 80 -23t27 -66l-3 -94l5 -145h-139z" />
    <glyph glyph-name="o.sups" horiz-adv-x="356" 
d="M185 655q157 0 157 -163q0 -178 -171 -178q-157 0 -157 163q0 178 171 178zM176 562q-20 0 -26 -13t-6 -55q0 -56 7 -73.5t29 -17.5q20 0 26.5 14t6.5 58q0 53 -7 70t-30 17z" />
    <glyph glyph-name="p.sups" horiz-adv-x="401" 
d="M236 651q63 0 97 -41.5t34 -116.5q0 -87 -45.5 -133t-125.5 -46q-9 0 -29 2l2 -121h-135l4 258l-5 186l131 9v-48h5q30 33 67 51zM187 399q25 0 37.5 16.5t12.5 58.5q0 35 -10.5 51.5t-34.5 16.5q-14 0 -28 -7v-68l1 -65q12 -3 22 -3z" />
    <glyph glyph-name="q.sups" horiz-adv-x="380" 
d="M337 655l9 -7l-5 -181l4 -272h-135l6 142v16h-5q-29 -25 -54 -38q-67 0 -105 44.5t-38 119.5q0 84 46.5 129t122.5 45q37 0 90 -16zM184 561q-23 0 -32 -13t-9 -51q0 -79 38 -79q17 0 34 12v125q-11 6 -31 6z" />
    <glyph glyph-name="r.sups" horiz-adv-x="276" 
d="M255 647q9 0 16 -1v-120l-13 -4q-15 3 -27 3q-36 0 -65 -25v-33l6 -145h-139l6 131l-4 186l131 9v-59h6q32 58 83 58z" />
    <glyph glyph-name="s.sups" horiz-adv-x="290" 
d="M166 654q48 0 105 -17l-18 -95l-16 -5q-51 31 -87 31q-18 0 -18 -10q0 -11 22.5 -20.5t49.5 -17.5t49.5 -31.5t22.5 -59.5q0 -48 -37 -81.5t-110 -33.5q-59 0 -121 17l16 102l11 9q59 -45 108 -45q19 0 19 10q0 11 -22.5 21t-49.5 18t-49.5 32t-22.5 60q0 51 39.5 83.5
t108.5 32.5z" />
    <glyph glyph-name="t.sups" horiz-adv-x="256" 
d="M204 423q13 0 33 5l8 -11l-11 -74q-37 -17 -74 -26q-57 0 -88.5 25t-29.5 66l2 72v83h-43l-4 7l6 73h41v63l128 27l9 -8l-3 -82h66l3 -7l-6 -73h-66l-4 -100q0 -40 33 -40z" />
    <glyph glyph-name="u.sups" horiz-adv-x="389" 
d="M356 648l-7 -220q0 -15 10 -15q6 0 11 2l9 -8l-13 -71q-28 -20 -62 -20q-28 0 -45 11.5t-30 40.5h-5q-34 -36 -76 -50q-52 0 -80.5 23.5t-28.5 66.5l3 72l-5 159l131 9v-185q0 -36 28 -36q16 0 29 9v203z" />
    <glyph glyph-name="v.sups" horiz-adv-x="328" 
d="M143 583l25 -134h7l32 126l12 71h119l-99 -324h-150l-84 323l130 4z" />
    <glyph glyph-name="w.sups" horiz-adv-x="511" 
d="M138 587l19 -127h6l26 118l11 68h137l6 -59l20 -126h8l22 117l13 68h116l-97 -324h-132l-29 153h-9l-33 -153h-138l-80 323l127 4z" />
    <glyph glyph-name="x.sups" horiz-adv-x="348" 
d="M163 601l22 -40l26 47l19 38h119l-90 -160l90 -160l-146 -10l-18 51l-21 41l-27 -47l-17 -39h-120l88 161l-89 161l148 4z" />
    <glyph glyph-name="y.sups" horiz-adv-x="324" 
d="M128 587l37 -131h7l33 118l13 72h117l-98 -288q-22 -68 -61.5 -104t-124.5 -65l-10 1q-32 31 -60 83l5 12q65 9 121 37l-122 323l132 4z" />
    <glyph glyph-name="z.sups" horiz-adv-x="320" 
d="M109 646h139l47 1v-80l-130 -162h65l66 5l8 -9l-9 -81l-101 2h-115l-60 -4v81l132 165h-61l-67 -5l-7 9l9 80z" />
    <glyph glyph-name="zero.lf" horiz-adv-x="510" 
d="M268 598q105 0 161 -75.5t56 -216.5q0 -153 -62.5 -235.5t-179.5 -82.5q-106 0 -162.5 75.5t-56.5 215.5q0 154 63 236.5t181 82.5zM253 414q-42 0 -60 -28t-18 -94q0 -70 18 -101.5t61 -31.5t62 29.5t19 94.5q0 70 -19 100.5t-63 30.5z" />
    <glyph glyph-name="one.lf" horiz-adv-x="394" 
d="M317 575l-10 -365l8 -210h-198l8 190v182l-113 -20l-12 9v158l289 76z" />
    <glyph glyph-name="two.lf" horiz-adv-x="506" 
d="M259 597q80 0 132.5 -40t52.5 -112q0 -83 -108 -219l-54 -68l3 -5h88l99 10l10 -13l-22 -158l-146 8h-237l-37 -3l-9 7v119l127 138q32 35 48.5 54.5t29.5 42t13 38.5q0 35 -40 35q-60 0 -129 -62h-21l-33 152q127 76 233 76z" />
    <glyph glyph-name="three.lf" horiz-adv-x="452" 
d="M215 598q91 0 146.5 -41t55.5 -108q0 -87 -86 -136v-6q96 -33 96 -135q0 -83 -76 -133t-200 -50q-61 0 -118 11l-12 144l13 12q69 -20 121 -20q84 0 84 44q0 32 -46 32h-84l-9 12l3 134l45 2q70 4 70 48q0 32 -46 32q-41 0 -110 -31h-20l-30 135q94 54 203 54z" />
    <glyph glyph-name="four.lf" horiz-adv-x="519" 
d="M491 109l-67 2l7 -98l-10 -13l-153 -9l-10 12l4 110h-126l-112 -4l-12 16v123l233 338h180l-5 -324h68l11 -17zM177 262h89l-1 111h-11z" />
    <glyph glyph-name="five.lf" horiz-adv-x="454" 
d="M426 582l-18 -148l-13 -14l-111 15h-79l-1 -56l60 -13q81 -17 119.5 -56.5t38.5 -106.5q0 -97 -74.5 -156t-196.5 -59q-63 0 -130 14l-11 140l13 13q64 -19 128 -19q85 0 85 47q0 19 -14 30t-46 16l-109 18l-11 14l-1 309l19 20l63 -4h161l117 8z" />
    <glyph glyph-name="six.lf" horiz-adv-x="492" 
d="M301 376q81 0 127.5 -54t46.5 -127q0 -83 -60 -145t-172 -62q-106 0 -166.5 62.5t-60.5 169.5q0 115 74.5 213.5t210.5 164.5h9l124 -86v-19q-85 -34 -132.5 -61.5t-71.5 -60.5l4 -5q35 10 67 10zM248 113q51 0 51 63q0 65 -57 65q-22 0 -49 -9v-9q0 -59 10 -84.5
t45 -25.5z" />
    <glyph glyph-name="seven.lf" horiz-adv-x="435" 
d="M155 586h203l56 2v-142l-124 -273l-69 -185l-156 43l-12 30l172 364h-101l-109 -12l-9 15l12 163z" />
    <glyph glyph-name="eight.lf" horiz-adv-x="515" 
d="M273 598q90 0 141 -41.5t51 -111.5q0 -76 -80 -128v-8q94 -48 94 -135t-64.5 -136.5t-172.5 -49.5q-101 0 -155 42.5t-54 110.5q0 89 103 131v8q-88 48 -88 139q0 83 61 131t164 48zM259 466q-53 0 -53 -40q0 -22 18.5 -37t53.5 -29q35 30 35 62q0 20 -14.5 32t-39.5 12z
M243 225q-27 -10 -38.5 -22.5t-11.5 -33.5q0 -25 16.5 -39t48.5 -14q31 0 47 12.5t16 30.5q0 22 -19.5 36.5t-58.5 29.5z" />
    <glyph glyph-name="nine.lf" horiz-adv-x="492" 
d="M249 598q106 0 166.5 -62.5t60.5 -169.5q0 -115 -74.5 -213.5t-210.5 -164.5h-9l-124 86v19q85 34 132.5 61.5t71.5 60.5l-4 5q-35 -10 -67 -10q-81 0 -127.5 54t-46.5 127q0 83 60 145t172 62zM250 345q22 0 49 9v9q0 59 -10 84.5t-45 25.5q-51 0 -51 -63q0 -65 57 -65z
" />
    <glyph glyph-name="zero.sinf" horiz-adv-x="376" 
d="M198 281q76 0 116.5 -50.5t40.5 -144.5q0 -103 -45.5 -158.5t-130.5 -55.5q-77 0 -118 50t-41 144q0 103 46 159t132 56zM186 150q-28 0 -39.5 -16.5t-11.5 -57.5q0 -44 11.5 -63.5t40.5 -19.5q30 0 42 18t12 58q0 44 -12.5 62.5t-42.5 18.5z" />
    <glyph glyph-name="one.sinf" horiz-adv-x="296" 
d="M238 265l-7 -244l6 -141h-150l6 127v113l-80 -12l-9 6v113l213 52z" />
    <glyph glyph-name="two.sinf" horiz-adv-x="375" 
d="M192 280q59 0 97.5 -27t38.5 -76q0 -56 -77 -145l-35 -40l2 -3h56l72 7l7 -9l-16 -113l-108 6h-170l-26 -2l-7 5v84l90 89q24 24 34.5 35t20 26t9.5 25q0 20 -26 20q-43 0 -91 -40h-16l-25 108q92 50 170 50z" />
    <glyph glyph-name="three.sinf" horiz-adv-x="337" 
d="M161 281q67 0 107.5 -28t40.5 -73q0 -58 -61 -91v-4q68 -22 68 -90q0 -56 -55.5 -89.5t-146.5 -33.5q-44 0 -86 8l-9 102l10 9q46 -14 88 -14q57 0 57 24q0 17 -28 17h-62l-7 8l2 95l33 2q47 2 47 28q0 18 -31 18q-26 0 -78 -19h-15l-23 95q70 36 149 36z" />
    <glyph glyph-name="four.sinf" horiz-adv-x="385" 
d="M361 -51l-46 1l5 -61l-8 -9l-115 -6l-8 8l3 70h-87l-83 -3l-9 11v88l166 225h136l-3 -215h47l8 -12zM137 58h58l-1 64h-8z" />
    <glyph glyph-name="five.sinf" horiz-adv-x="339" 
d="M315 270l-14 -105l-10 -10l-82 10h-53v-30l43 -9q113 -22 113 -109q0 -66 -54 -105.5t-143 -39.5q-46 0 -96 9l-8 100l9 9q48 -13 95 -13q56 0 56 25q0 21 -39 27l-80 12l-8 10l-1 210l14 14l46 -2h117l86 5z" />
    <glyph glyph-name="six.sinf" horiz-adv-x="365" 
d="M224 134q59 0 92.5 -36.5t33.5 -85.5q0 -55 -43.5 -97.5t-125.5 -42.5q-77 0 -121.5 42t-44.5 114q0 77 53.5 142.5t150.5 110.5h7l94 -61v-14q-112 -42 -142 -76l1 -1q25 5 45 5zM184 -40q33 0 33 38q0 40 -38 40q-15 0 -30 -4v-4q0 -27 1.5 -39t9.5 -21.5t24 -9.5z" />
    <glyph glyph-name="seven.sinf" horiz-adv-x="324" 
d="M119 273h145l41 1v-101l-86 -173l-51 -128l-118 30l-9 22l121 234h-67l-80 -8l-7 10l9 116z" />
    <glyph glyph-name="eight.sinf" horiz-adv-x="383" 
d="M203 281q66 0 103.5 -28t37.5 -75q0 -50 -56 -85v-6q65 -32 65 -89q0 -59 -47 -92.5t-126 -33.5q-73 0 -112.5 28.5t-39.5 73.5q0 59 73 87v5q-63 32 -63 93q0 57 44.5 89.5t120.5 32.5zM193 187q-35 0 -35 -23q0 -21 49 -41q22 21 22 38q0 26 -36 26zM181 27
q-32 -11 -32 -33q0 -32 43 -32q21 0 31.5 7.5t10.5 17.5q0 22 -53 40z" />
    <glyph glyph-name="nine.sinf" horiz-adv-x="366" 
d="M185 281q77 0 121.5 -42t44.5 -115q0 -76 -54 -141.5t-151 -110.5h-7l-94 61v13q113 43 143 75l-2 2q-19 -4 -45 -4q-58 0 -92 36.5t-34 85.5q0 55 44 97.5t126 42.5zM186 115q15 0 31 4v3q0 26 -2 39t-10 22t-24 9q-33 0 -33 -37q0 -40 38 -40z" />
    <glyph glyph-name="zero.tf" horiz-adv-x="475" 
d="M250 598q101 0 155 -75.5t54 -216.5q0 -153 -60.5 -235.5t-173.5 -82.5q-101 0 -155.5 75.5t-54.5 215.5q0 154 61 236.5t174 82.5zM236 414q-39 0 -54.5 -28t-15.5 -94q0 -70 16 -101.5t54 -31.5q39 0 56 29.5t17 94.5q0 70 -17 100.5t-56 30.5z" />
    <glyph glyph-name="one.tf" horiz-adv-x="475" 
d="M359 575l-10 -365l8 -210h-198l8 190v182l-135 -20l-12 9v158l311 76z" />
    <glyph glyph-name="two.tf" horiz-adv-x="475" 
d="M244 597q78 0 128.5 -40t50.5 -112q0 -84 -102 -219l-47 -68l3 -5h75l95 10l10 -13l-22 -158l-142 8h-226l-35 -3l-9 7v119l120 138q31 36 45.5 54.5t27 41.5t12.5 39q0 35 -35 35q-24 0 -57.5 -17t-63.5 -45h-21l-33 152q124 76 226 76z" />
    <glyph glyph-name="three.tf" horiz-adv-x="475" 
d="M226 598q92 0 149 -41t57 -108q0 -87 -90 -136v-6q101 -34 101 -135q0 -82 -77.5 -132.5t-205.5 -50.5q-63 0 -121 11l-12 144l13 12q71 -20 124 -20q91 0 91 44q0 32 -53 32h-85l-9 12l3 134l46 2q76 4 76 48q0 32 -50 32q-43 0 -115 -31h-20l-30 135q97 54 208 54z" />
    <glyph glyph-name="four.tf" horiz-adv-x="475" 
d="M458 109l-60 2l7 -98l-10 -13l-153 -9l-10 12l4 110h-112l-110 -4l-12 16v123l217 338h180l-5 -324h61l11 -17zM167 262h73l-1 111h-11z" />
    <glyph glyph-name="five.tf" horiz-adv-x="475" 
d="M441 582l-18 -148l-13 -14l-112 15h-86l-1 -56l62 -13q84 -17 124 -56.5t40 -106.5q0 -97 -76.5 -156t-201.5 -59q-65 0 -133 14l-11 140l13 13q66 -19 131 -19q92 0 92 47q0 19 -15.5 30t-50.5 16l-111 18l-11 14l-1 309l19 20l65 -4h165l119 8z" />
    <glyph glyph-name="six.tf" horiz-adv-x="475" 
d="M292 376q80 0 125 -53.5t45 -127.5q0 -83 -58.5 -145t-168.5 -62q-104 0 -163.5 62t-59.5 170q0 115 72.5 213.5t204.5 164.5h9l124 -86v-19q-83 -34 -128 -61t-69 -60l5 -6q33 10 62 10zM240 113q46 0 46 63q0 65 -53 65q-19 0 -44 -9v-9q0 -60 9 -85t42 -25z" />
    <glyph glyph-name="seven.tf" horiz-adv-x="475" 
d="M168 586h218l58 2v-142l-138 -273l-71 -185l-156 43l-12 30l188 364h-118l-112 -12l-9 15l12 163z" />
    <glyph glyph-name="eight.tf" horiz-adv-x="475" 
d="M253 598q86 0 135 -41.5t49 -111.5q0 -78 -72 -128v-8q85 -48 85 -135t-62 -136.5t-166 -49.5q-96 0 -148 42.5t-52 110.5q0 47 23 78.5t72 52.5v8q-81 48 -81 139q0 83 58.5 131t158.5 48zM239 466q-45 0 -45 -40q0 -38 64 -66q27 27 27 62q0 20 -12 32t-34 12zM223 225
q-41 -17 -41 -56q0 -53 57 -53q27 0 40 12.5t13 30.5q0 22 -17.5 36.5t-51.5 29.5z" />
    <glyph glyph-name="nine.tf" horiz-adv-x="475" 
d="M240 598q103 0 163 -62.5t60 -169.5q0 -115 -72.5 -213.5t-204.5 -164.5h-9l-124 86v19q83 34 128 61t69 60l-5 6q-33 -10 -62 -10q-80 0 -125 53.5t-45 127.5q0 83 58.5 145t168.5 62zM242 345q18 0 44 9v9q0 60 -9 85t-42 25q-46 0 -46 -63q0 -65 53 -65z" />
    <glyph glyph-name="zero.tosf" horiz-adv-x="475" 
d="M251 524q96 0 149.5 -66.5t53.5 -187.5q0 -134 -60 -208t-168 -74q-97 0 -151 67t-54 188q0 132 60.5 206.5t169.5 74.5zM236 342q-36 0 -50.5 -19t-14.5 -67q0 -52 15 -74.5t51 -22.5q37 0 52.5 20.5t15.5 67.5q0 52 -16 73.5t-53 21.5z" />
    <glyph glyph-name="one.tosf" horiz-adv-x="475" 
d="M353 502l-10 -292l8 -210h-198l8 190v109l-120 -20l-13 9v158l297 76z" />
    <glyph glyph-name="two.tosf" horiz-adv-x="475" 
d="M246 522q79 0 129.5 -35.5t50.5 -99.5q0 -84 -105 -190l-42 -44l3 -5h73l96 10l10 -12l-22 -154l-143 8h-226l-36 -3l-9 7v118l126 110q80 72 80 102q0 23 -33 23q-57 0 -124 -50h-21l-33 152q123 63 226 63z" />
    <glyph glyph-name="three.tosf" horiz-adv-x="475" 
d="M229 524q92 0 148.5 -41t56.5 -108q0 -88 -93 -140v-6q99 -34 99 -135q0 -84 -79 -135.5t-207 -51.5q-64 0 -122 11l-10 144l13 12q71 -20 125 -20q92 0 92 47q0 33 -53 33h-86l-8 12l5 134l47 2q33 2 55 15t22 36q0 33 -51 33q-41 0 -115 -32h-20l-28 135q101 55 209 55
z" />
    <glyph glyph-name="four.tosf" horiz-adv-x="475" 
d="M458 28l-60 2l6 -103l-10 -13l-153 -9l-10 12l4 115h-111l-109 -4l-12 16v123l215 347h180l-4 -333h61l10 -17zM167 181h72l-1 119h-10z" />
    <glyph glyph-name="five.tosf" horiz-adv-x="475" 
d="M448 510l-21 -148l-13 -14l-113 15h-88l-2 -61l63 -13q83 -17 123 -56.5t40 -106.5q0 -100 -78.5 -160.5t-206.5 -60.5q-64 0 -132 14l-9 140l13 13q66 -19 131 -19q96 0 96 51q0 38 -67 48l-112 18l-12 14l6 314l19 20l65 -4h167l120 8z" />
    <glyph glyph-name="six.tosf" horiz-adv-x="475" 
d="M291 376q79 0 124 -54t45 -127q0 -83 -58.5 -145t-167.5 -62q-103 0 -162.5 62.5t-59.5 169.5q0 116 72 214t203 164h9l124 -86v-19q-82 -34 -126.5 -61t-68.5 -60l5 -6q32 10 61 10zM239 113q45 0 45 63q0 65 -52 65q-17 0 -43 -8v-10q0 -41 2.5 -61t13.5 -34.5
t34 -14.5z" />
    <glyph glyph-name="seven.tosf" horiz-adv-x="475" 
d="M167 514h220l58 2v-142l-140 -285l-71 -186l-157 43l-12 30l191 377h-120l-113 -12l-9 15l12 163z" />
    <glyph glyph-name="eight.tosf" horiz-adv-x="475" 
d="M253 598q86 0 135 -41.5t49 -111.5q0 -78 -72 -128v-8q85 -48 85 -135t-62 -136.5t-166 -49.5q-96 0 -148 42.5t-52 110.5q0 47 23 78.5t72 52.5v8q-81 48 -81 139q0 83 58.5 131t158.5 48zM239 466q-45 0 -45 -40q0 -38 64 -66q27 27 27 62q0 20 -12 32t-34 12zM223 225
q-41 -17 -41 -56q0 -53 57 -53q27 0 40 12.5t13 30.5q0 22 -17.5 36.5t-51.5 29.5z" />
    <glyph glyph-name="nine.tosf" horiz-adv-x="475" 
d="M241 524q103 0 162.5 -62.5t59.5 -169.5q0 -116 -72 -214t-203 -164h-9l-124 86v19q82 34 126.5 61t68.5 60l-5 6q-32 -10 -61 -10q-79 0 -124 54t-45 127q0 83 58.5 145t167.5 62zM243 271q17 0 43 8v10q0 41 -2.5 61t-13.5 34.5t-34 14.5q-45 0 -45 -63q0 -65 52 -65z
" />
    <glyph glyph-name="zero.dnom" horiz-adv-x="376" 
d="M198 401q76 0 116.5 -50.5t40.5 -144.5q0 -103 -45.5 -158.5t-130.5 -55.5q-77 0 -118 50t-41 144q0 103 46 159t132 56zM186 270q-28 0 -39.5 -16.5t-11.5 -57.5q0 -44 11.5 -63.5t40.5 -19.5q30 0 42 18t12 58q0 44 -12.5 62.5t-42.5 18.5z" />
    <glyph glyph-name="one.dnom" horiz-adv-x="296" 
d="M238 385l-7 -244l6 -141h-150l6 127v113l-80 -12l-9 6v113l213 52z" />
    <glyph glyph-name="two.dnom" horiz-adv-x="375" 
d="M192 400q59 0 97.5 -27t38.5 -76q0 -56 -77 -145l-35 -40l2 -3h56l72 7l7 -9l-16 -113l-108 6h-170l-26 -2l-7 5v84l90 89q24 24 34.5 35t20 26t9.5 25q0 20 -26 20q-43 0 -91 -40h-16l-25 108q92 50 170 50z" />
    <glyph glyph-name="three.dnom" horiz-adv-x="337" 
d="M161 401q67 0 107.5 -28t40.5 -73q0 -58 -61 -91v-4q68 -22 68 -90q0 -56 -55.5 -89.5t-146.5 -33.5q-44 0 -86 8l-9 102l10 9q46 -14 88 -14q57 0 57 24q0 17 -28 17h-62l-7 8l2 95l33 2q47 2 47 28q0 18 -31 18q-26 0 -78 -19h-15l-23 95q70 36 149 36z" />
    <glyph glyph-name="four.dnom" horiz-adv-x="385" 
d="M361 69l-46 1l5 -61l-8 -9l-115 -6l-8 8l3 70h-87l-83 -3l-9 11v88l166 225h136l-3 -215h47l8 -12zM137 178h58l-1 64h-8z" />
    <glyph glyph-name="five.dnom" horiz-adv-x="339" 
d="M315 390l-14 -105l-10 -10l-82 10h-53v-30l43 -9q113 -22 113 -109q0 -66 -54 -105.5t-143 -39.5q-46 0 -96 9l-8 100l9 9q48 -13 95 -13q56 0 56 25q0 21 -39 27l-80 12l-8 10l-1 210l14 14l46 -2h117l86 5z" />
    <glyph glyph-name="six.dnom" horiz-adv-x="365" 
d="M224 254q59 0 92.5 -36.5t33.5 -85.5q0 -55 -43.5 -97.5t-125.5 -42.5q-77 0 -121.5 42t-44.5 114q0 77 53.5 142.5t150.5 110.5h7l94 -61v-14q-112 -42 -142 -76l1 -1q25 5 45 5zM184 80q33 0 33 38q0 40 -38 40q-15 0 -30 -4v-4q0 -27 1.5 -39t9.5 -21.5t24 -9.5z" />
    <glyph glyph-name="seven.dnom" horiz-adv-x="324" 
d="M119 393h145l41 1v-101l-86 -173l-51 -128l-118 30l-9 22l121 234h-67l-80 -8l-7 10l9 116z" />
    <glyph glyph-name="eight.dnom" horiz-adv-x="383" 
d="M203 401q66 0 103.5 -28t37.5 -75q0 -50 -56 -85v-6q65 -32 65 -89q0 -59 -47 -92.5t-126 -33.5q-73 0 -112.5 28.5t-39.5 73.5q0 59 73 87v5q-63 32 -63 93q0 57 44.5 89.5t120.5 32.5zM193 307q-35 0 -35 -23q0 -21 49 -41q22 21 22 38q0 26 -36 26zM181 147
q-32 -11 -32 -33q0 -32 43 -32q21 0 31.5 7.5t10.5 17.5q0 22 -53 40z" />
    <glyph glyph-name="nine.dnom" horiz-adv-x="366" 
d="M185 401q77 0 121.5 -42t44.5 -115q0 -76 -54 -141.5t-151 -110.5h-7l-94 61v13q113 43 143 75l-2 2q-19 -4 -45 -4q-58 0 -92 36.5t-34 85.5q0 55 44 97.5t126 42.5zM186 235q15 0 31 4v3q0 26 -2 39t-10 22t-24 9q-33 0 -33 -37q0 -40 38 -40z" />
    <glyph glyph-name="zero.numr" horiz-adv-x="376" 
d="M198 655q76 0 116.5 -50.5t40.5 -144.5q0 -103 -45.5 -158.5t-130.5 -55.5q-77 0 -118 50t-41 144q0 103 46 159t132 56zM186 524q-28 0 -39.5 -16.5t-11.5 -57.5q0 -44 11.5 -63.5t40.5 -19.5q30 0 42 18t12 58q0 44 -12.5 62.5t-42.5 18.5z" />
    <glyph glyph-name="one.numr" horiz-adv-x="296" 
d="M238 639l-7 -244l6 -141h-150l6 127v113l-80 -12l-9 6v113l213 52z" />
    <glyph glyph-name="two.numr" horiz-adv-x="375" 
d="M192 654q59 0 97.5 -27t38.5 -76q0 -56 -77 -145l-35 -40l2 -3h56l72 7l7 -9l-16 -113l-108 6h-170l-26 -2l-7 5v84l90 89q24 24 34.5 35t20 26t9.5 25q0 20 -26 20q-43 0 -91 -40h-16l-25 108q92 50 170 50z" />
    <glyph glyph-name="three.numr" horiz-adv-x="337" 
d="M161 655q67 0 107.5 -28t40.5 -73q0 -58 -61 -91v-4q68 -22 68 -90q0 -56 -55.5 -89.5t-146.5 -33.5q-44 0 -86 8l-9 102l10 9q46 -14 88 -14q57 0 57 24q0 17 -28 17h-62l-7 8l2 95l33 2q47 2 47 28q0 18 -31 18q-26 0 -78 -19h-15l-23 95q70 36 149 36z" />
    <glyph glyph-name="four.numr" horiz-adv-x="385" 
d="M361 323l-46 1l5 -61l-8 -9l-115 -6l-8 8l3 70h-87l-83 -3l-9 11v88l166 225h136l-3 -215h47l8 -12zM137 432h58l-1 64h-8z" />
    <glyph glyph-name="five.numr" horiz-adv-x="339" 
d="M315 644l-14 -105l-10 -10l-82 10h-53v-30l43 -9q113 -22 113 -109q0 -66 -54 -105.5t-143 -39.5q-46 0 -96 9l-8 100l9 9q48 -13 95 -13q56 0 56 25q0 21 -39 27l-80 12l-8 10l-1 210l14 14l46 -2h117l86 5z" />
    <glyph glyph-name="six.numr" horiz-adv-x="365" 
d="M224 508q59 0 92.5 -36.5t33.5 -85.5q0 -55 -43.5 -97.5t-125.5 -42.5q-77 0 -121.5 42t-44.5 114q0 77 53.5 142.5t150.5 110.5h7l94 -61v-14q-112 -42 -142 -76l1 -1q25 5 45 5zM184 334q33 0 33 38q0 40 -38 40q-15 0 -30 -4v-4q0 -27 1.5 -39t9.5 -21.5t24 -9.5z" />
    <glyph glyph-name="seven.numr" horiz-adv-x="324" 
d="M119 647h145l41 1v-101l-86 -173l-51 -128l-118 30l-9 22l121 234h-67l-80 -8l-7 10l9 116z" />
    <glyph glyph-name="eight.numr" horiz-adv-x="383" 
d="M203 655q66 0 103.5 -28t37.5 -75q0 -50 -56 -85v-6q65 -32 65 -89q0 -59 -47 -92.5t-126 -33.5q-73 0 -112.5 28.5t-39.5 73.5q0 59 73 87v5q-63 32 -63 93q0 57 44.5 89.5t120.5 32.5zM193 561q-35 0 -35 -23q0 -21 49 -41q22 21 22 38q0 26 -36 26zM181 401
q-32 -11 -32 -33q0 -32 43 -32q21 0 31.5 7.5t10.5 17.5q0 22 -53 40z" />
    <glyph glyph-name="nine.numr" horiz-adv-x="366" 
d="M185 655q77 0 121.5 -42t44.5 -115q0 -76 -54 -141.5t-151 -110.5h-7l-94 61v13q113 43 143 75l-2 2q-19 -4 -45 -4q-58 0 -92 36.5t-34 85.5q0 55 44 97.5t126 42.5zM186 489q15 0 31 4v3q0 26 -2 39t-10 22t-24 9q-33 0 -33 -37q0 -40 38 -40z" />
    <glyph glyph-name="acute.cap" horiz-adv-x="388" 
d="M288 739l49 -117l-6 -16q-132 -42 -238 -69l-17 4l-30 79q118 60 225 123z" />
    <glyph glyph-name="breve.cap" horiz-adv-x="388" 
d="M332 725l40 -60q-23 -60 -69.5 -92t-111.5 -32q-64 0 -109 32t-66 92l40 60h27q34 -50 115 -50q74 0 107 50h27z" />
    <glyph glyph-name="caron.cap" horiz-adv-x="388" 
d="M329 732l34 -76q-90 -62 -153 -119h-34q-63 57 -153 119l34 76h18l118 -60q20 10 59 30t59 30h18z" />
    <glyph glyph-name="circumflex.cap" horiz-adv-x="388" 
d="M57 546l-34 76q90 62 153 119h34q63 -57 153 -119l-34 -76h-18l-118 60q-20 -10 -59.5 -30t-58.5 -30h-18z" />
    <glyph glyph-name="grave.cap" horiz-adv-x="388" 
d="M101 739l17 4q107 -63 225 -123l-30 -79l-17 -4q-106 27 -238 69l-6 16z" />
    <glyph glyph-name="hungarumlaut.cap" horiz-adv-x="388" 
d="M65 536l-59 46q68 98 99 149l14 4l90 -58l3 -14q-64 -63 -131 -122zM234 536l-59 46q81 120 99 149l13 4l91 -58l3 -14q-69 -67 -132 -122z" />
    <glyph glyph-name="caron.alt" horiz-adv-x="388" 
d="M269 746l-44 -232l-82 -13l-13 10l-10 238l139 8z" />
    <glyph glyph-name="dieresis.i" horiz-adv-x="388" 
d="M107 717q38 0 59.5 -21.5t21.5 -60.5q0 -42 -23.5 -66.5t-64.5 -24.5q-40 0 -61 21.5t-21 61.5q0 42 24 66t65 24zM290 717q38 0 59.5 -21.5t21.5 -60.5q0 -42 -23.5 -66.5t-64.5 -24.5q-40 0 -61 21.5t-21 61.5q0 42 24 66t65 24z" />
    <glyph glyph-name="macron.i" horiz-adv-x="388" 
d="M323 678l-9 -107h-236l-12 13l9 107h236z" />
    <glyph glyph-name="tilde.i" horiz-adv-x="388" 
d="M364 683v-16l-72 -111l-15 -6q-23 4 -68 18t-55 14q-12 0 -23.5 -9.5t-17.5 -18t-19 -28.5h-16l-56 55v16l72 111l15 6q23 -4 68 -18t55 -14q12 0 23.5 9.5t17.5 18t19 28.5h16z" />
    <glyph glyph-name="Gdieresis" horiz-adv-x="596" 
d="M236 892q38 0 59.5 -21.5t21.5 -60.5q0 -42 -23.5 -66.5t-64.5 -24.5q-40 0 -61 21.5t-21 61.5q0 42 24 66t65 24zM429 892q38 0 59.5 -21.5t21.5 -60.5q0 -42 -23.5 -66.5t-64.5 -24.5q-40 0 -61 21.5t-21 61.5q0 42 24 66t65 24zM382 658q108 0 187 -30l-43 -177h-16
q-94 47 -166 47q-67 0 -92 -36.5t-25 -141.5q0 -107 26 -144t99 -37q14 0 36 4v32l-3 109l183 13l-3 -88v-177q-116 -44 -231 -44q-157 0 -237 83.5t-80 238.5q0 170 94.5 259t270.5 89z" />
    <glyph glyph-name="breveacute" horiz-adv-x="388" 
d="M333 824l3 -14q-67 -66 -129 -119l-15 -5l-58 45q66 96 97 146l13 4zM332 705l40 -60q-23 -60 -69.5 -92t-111.5 -32q-64 0 -109 32t-66 92l40 60h27q34 -50 115 -50q74 0 107 50h27z" />
    <glyph glyph-name="brevegrave" horiz-adv-x="388" 
d="M148 881l13 -4q31 -50 97 -146l-58 -45l-15 5q-62 53 -129 119l3 14zM332 705l40 -60q-23 -60 -69.5 -92t-111.5 -32q-64 0 -109 32t-66 92l40 60h27q34 -50 115 -50q74 0 107 50h27z" />
    <glyph glyph-name="brevehookabove" horiz-adv-x="388" 
d="M184 942q43 0 71.5 -24.5t28.5 -63.5q0 -22 -13 -41t-48 -51l27 -43l-64 -39l-54 80q25 18 39.5 39t14.5 37q0 24 -30 24q-36 0 -70 -26l-29 47q56 61 127 61zM332 705l40 -60q-23 -60 -69.5 -92t-111.5 -32q-64 0 -109 32t-66 92l40 60h27q34 -50 115 -50q74 0 107 50
h27z" />
    <glyph glyph-name="brevetilde" horiz-adv-x="388" 
d="M376 859v-15l-74 -103l-15 -5q-24 3 -75.5 17t-63.5 14q-5 0 -9.5 -1.5t-9.5 -5t-8.5 -6t-9 -9t-8 -9.5t-8.5 -11t-9 -11h-15l-52 50v15l74 102l14 6q23 -3 75.5 -17t64.5 -14q14 0 27 12t30 34q1 2 1.5 2.5t1.5 2t2 2.5h15zM327 692l37 -56q-44 -115 -168 -115
q-59 0 -101 29.5t-62 85.5l37 56h25q32 -46 107 -46q69 0 100 46h25z" />
    <glyph glyph-name="circle1" horiz-adv-x="472" 
d="M236 464q98 0 168 -70t70 -168t-70 -168t-168 -70t-168 70t-70 168t70 168t168 70z" />
    <glyph glyph-name="circle2" horiz-adv-x="647" 
d="M323 649q137 0 234.5 -97.5t97.5 -234.5t-97.5 -234t-234.5 -97t-234 97t-97 234t97 234.5t234 97.5z" />
    <glyph glyph-name="circumflexacute" horiz-adv-x="388" 
d="M432 836l5 -13l-110 -149h-11l-64 47l70 149l12 7zM57 526l-34 76q90 62 153 119h34q63 -57 153 -119l-34 -76h-18l-118 60q-20 -10 -59.5 -30t-58.5 -30h-18z" />
    <glyph glyph-name="circumflexgrave" horiz-adv-x="388" 
d="M314 870l70 -149l-64 -47h-11l-110 149l5 13l98 41zM57 526l-34 76q90 62 153 119h34q63 -57 153 -119l-34 -76h-18l-118 60q-20 -10 -59.5 -30t-58.5 -30h-18z" />
    <glyph glyph-name="circumflexhookabove" horiz-adv-x="388" 
d="M305 926q41 0 68.5 -23t27.5 -61q0 -20 -12.5 -38.5t-46.5 -48.5l26 -41l-61 -38l-51 77q23 16 37 36t14 36q0 23 -28 23q-34 0 -67 -25l-28 45q55 58 121 58zM57 526l-34 76q90 62 153 119h34q63 -57 153 -119l-34 -76h-18l-118 60q-20 -10 -59.5 -30t-58.5 -30h-18z
" />
    <glyph glyph-name="circumflextilde" horiz-adv-x="388" 
d="M376 859v-15l-74 -103l-15 -5q-24 3 -75.5 17t-63.5 14q-5 0 -9.5 -1.5t-9.5 -5t-8.5 -6t-9 -9t-8 -9.5t-8.5 -11t-9 -11h-15l-52 50v15l74 102l14 6q23 -3 75.5 -17t64.5 -14q14 0 27 12t30 34q1 2 1.5 2.5t1.5 2t2 2.5h15zM57 526l-34 76q90 62 153 119h34
q63 -57 153 -119l-34 -76h-18l-118 60q-20 -10 -59.5 -30t-58.5 -30h-18z" />
    <glyph glyph-name="dieresiscaron" horiz-adv-x="388" 
d="M329 895l34 -76q-90 -62 -153 -119h-34q-63 57 -153 119l34 76h18l118 -60q20 10 59 30t59 30h18zM102 697q38 0 59 -21.5t21 -60.5q0 -42 -23.5 -66.5t-63.5 -24.5t-61 21.5t-21 61.5q0 41 24 65.5t65 24.5zM295 697q38 0 59 -21.5t21 -60.5q0 -42 -23.5 -66.5
t-63.5 -24.5t-61 21.5t-21 61.5q0 41 24 65.5t65 24.5z" />
    <glyph glyph-name="dieresismacron" horiz-adv-x="388" 
d="M358 851l-10 -107h-303l-13 13l10 107h303zM102 697q38 0 59 -21.5t21 -60.5q0 -42 -23.5 -66.5t-63.5 -24.5t-61 21.5t-21 61.5q0 41 24 65.5t65 24.5zM295 697q38 0 59 -21.5t21 -60.5q0 -42 -23.5 -66.5t-63.5 -24.5t-61 21.5t-21 61.5q0 41 24 65.5t65 24.5z" />
    <glyph glyph-name="down" horiz-adv-x="432" 
d="M216 70l-156 311h311z" />
    <glyph glyph-name="firstofchinese" horiz-adv-x="388" 
d="M343 678l-9 -107h-276l-12 13l9 107h276z" />
    <glyph glyph-name="foundryicon" horiz-adv-x="783" 
d="M180 524h423q80 0 80 -80v-423q0 -80 -80 -80h-423q-80 0 -80 80v423q0 80 80 80zM191 437v-344h74v180q0 12 24 12q43 0 43 -56v-136h74v178q0 32 -22 52.5t-56 20.5l-48 -28q-6 -4 -9 -4q-6 0 -6 9v116h-74zM524 376l-89 -56v-18h26q10 0 10 -10v-132q0 -32 22 -52.5
t56 -20.5l63 37v25q-12 -4 -26 -4q-41 0 -41 57v90q0 10 10 10h58v36h-58q-10 0 -10 10v28h-21z" />
    <glyph glyph-name="gdieresis" horiz-adv-x="514" 
d="M178 758q38 0 59.5 -21.5t21.5 -60.5q0 -42 -23.5 -66.5t-64.5 -24.5q-40 0 -61 21.5t-21 61.5q0 42 24 66t65 24zM371 758q38 0 59.5 -21.5t21.5 -60.5q0 -42 -23.5 -66.5t-64.5 -24.5q-40 0 -61 21.5t-21 61.5q0 42 24 66t65 24zM331 522q95 0 158 -20l-40 -163h-14
q-79 36 -139 36q-51 0 -67.5 -22t-16.5 -99q0 -79 18.5 -102.5t76.5 -23.5h15v13l-2 91l169 11l-3 -70v-147q-98 -37 -196 -37q-135 0 -203.5 66t-68.5 189q0 136 81 207t232 71z" />
    <glyph glyph-name="hookabove" horiz-adv-x="388" 
d="M180 773q43 0 71.5 -24.5t28.5 -63.5q0 -22 -13 -41t-48 -51l27 -43l-64 -39l-54 80q25 18 39.5 39t14.5 37q0 24 -30 24q-36 0 -70 -26l-29 47q56 61 127 61z" />
    <glyph glyph-name="left" horiz-adv-x="432" 
d="M351 80l-311 155l311 156v-311z" />
    <glyph glyph-name="right" horiz-adv-x="432" 
d="M391 236l-311 -156v311z" />
    <glyph glyph-name="ringacute" horiz-adv-x="388" 
d="M331 920l32 -123l-8 -15q-130 -22 -245 -35l-17 6l-18 82q117 40 240 91zM199 735q106 0 106 -104q0 -55 -29 -84.5t-85 -29.5q-106 0 -106 107q0 111 114 111zM194 657q-19 0 -26.5 -6.5t-7.5 -23.5q0 -19 8 -26.5t28 -7.5q19 0 26.5 7t7.5 24q0 18 -8 25.5t-28 7.5z
" />
    <glyph glyph-name="square1" horiz-adv-x="472" 
d="M472 0h-472v472h472v-472z" />
    <glyph glyph-name="square2" horiz-adv-x="647" 
d="M647 0h-647v647h647v-647z" />
    <glyph glyph-name="up" horiz-adv-x="432" 
d="M371 100h-311l155 311z" />
    <glyph glyph-name="gdieresis.sc" horiz-adv-x="514" 
d="M178 758q38 0 59.5 -21.5t21.5 -60.5q0 -42 -23.5 -66.5t-64.5 -24.5q-40 0 -61 21.5t-21 61.5q0 42 24 66t65 24zM371 758q38 0 59.5 -21.5t21.5 -60.5q0 -42 -23.5 -66.5t-64.5 -24.5q-40 0 -61 21.5t-21 61.5q0 42 24 66t65 24zM331 522q95 0 158 -20l-40 -163h-14
q-79 36 -139 36q-51 0 -67.5 -22t-16.5 -99q0 -79 18.5 -102.5t76.5 -23.5h15v13l-2 91l169 11l-3 -70v-147q-98 -37 -196 -37q-135 0 -203.5 66t-68.5 189q0 136 81 207t232 71z" />
    <glyph glyph-name="gtilde.sc" horiz-adv-x="514" 
d="M465 727v-16l-81 -113l-16 -6q-26 3 -83 18.5t-70 15.5q-4 0 -8 -1t-8.5 -3t-8 -4t-8 -6.5l-7 -7t-7.5 -8.5t-7 -9t-7.5 -9.5t-7.5 -9.5h-16l-57 55v16l81 113l16 6q26 -3 83 -18.5t70 -15.5q4 0 8 1t8.5 3t8 4t8 6.5l7 7t7.5 8.5t7 9t7.5 9.5t7.5 9.5h16zM331 522
q95 0 158 -20l-40 -163h-14q-79 36 -139 36q-51 0 -67.5 -22t-16.5 -99q0 -79 18.5 -102.5t76.5 -23.5h15v13l-2 91l169 11l-3 -70v-147q-98 -37 -196 -37q-135 0 -203.5 66t-68.5 189q0 136 81 207t232 71z" />
    </font>
</defs>
</svg>
