<?xml version="1.0" standalone="no"?>
<!DOCTYPE svg PUBLIC "-//W3C//DTD SVG 1.1//EN" "http://www.w3.org/Graphics/SVG/1.1/DTD/svg11.dtd" >
<svg xmlns="http://www.w3.org/2000/svg" xmlns:xlink="http://www.w3.org/1999/xlink" version="1.1">
<metadata>
Created by FontForge 20150913 at Sat Feb 27 13:29:44 2016
 By Emil Björklund
Copyright (c) 2013 by Juan Pablo del Peral (huertatipografica.com)
</metadata>
<defs>
<font id="AlegreyaSansSC-Medium" horiz-adv-x="389" >
  <font-face 
    font-family="AlegreyaSansSC-Medium"
    font-weight="500"
    font-stretch="normal"
    units-per-em="1000"
    panose-1="0 0 6 0 0 0 0 0 0 0"
    ascent="800"
    descent="-200"
    x-height="501"
    cap-height="642"
    bbox="-233 -261 1174 1022"
    underline-thickness="48"
    underline-position="-229"
    unicode-range="U+0020-F6D8"
  />
<missing-glyph horiz-adv-x="160" 
 />
    <glyph glyph-name="Idieresis" unicode="&#xa8;I" horiz-adv-x="279" 
d="M72 846q50 0 50 -51q0 -26 -14 -40.5t-39 -14.5q-51 0 -51 52q0 25 14.5 39.5t39.5 14.5zM210 846q50 0 50 -51q0 -26 -14 -40.5t-39 -14.5q-51 0 -51 52q0 25 14.5 39.5t39.5 14.5zM186 202l5 -202h-105l7 193l-7 449h106z" />
    <glyph glyph-name="Odieresis" unicode="&#xa8;O" horiz-adv-x="639" 
d="M240 846q50 0 50 -51q0 -26 -14 -40.5t-39 -14.5q-51 0 -51 52q0 25 14.5 39.5t39.5 14.5zM404 846q50 0 50 -51q0 -26 -14 -40.5t-39 -14.5q-51 0 -51 52q0 25 14.5 39.5t39.5 14.5zM329 650q133 0 204.5 -82t71.5 -234q0 -164 -77 -253.5t-218 -89.5q-132 0 -204 84.5
t-72 239.5q0 161 76.5 248t218.5 87zM320 565q-92 0 -136 -57.5t-44 -179.5q0 -131 43.5 -192.5t134.5 -61.5t135.5 58.5t44.5 182.5q0 130 -43.5 190t-134.5 60z" />
    <glyph glyph-name="Yacute" unicode="&#xb4;Y" horiz-adv-x="541" 
d="M191 723l-17 44q130 67 198 107l10 -2l27 -61l-4 -10q-66 -29 -203 -82zM309 184l5 -184h-104l6 184l-1 41l-204 417h110l13 -40l127 -269h9l140 267l16 42h108l-224 -418z" />
    <glyph glyph-name="idieresis" unicode="&#xa8;i" horiz-adv-x="267" 
d="M68 705q50 0 50 -51q0 -26 -14 -40.5t-39 -14.5q-51 0 -51 52q0 25 14.5 39.5t39.5 14.5zM206 705q50 0 50 -51q0 -26 -14 -40.5t-39 -14.5q-51 0 -51 52q0 25 14.5 39.5t39.5 14.5zM175 159l4 -159h-96l4 150l-4 351h97z" />
    <glyph glyph-name="odieresis" unicode="&#xa8;o" horiz-adv-x="558" 
d="M201 705q50 0 50 -51q0 -26 -14 -40.5t-39 -14.5q-51 0 -51 52q0 25 14.5 39.5t39.5 14.5zM365 705q50 0 50 -51q0 -26 -14 -40.5t-39 -14.5q-51 0 -51 52q0 25 14.5 39.5t39.5 14.5zM288 508q110 0 170.5 -64.5t60.5 -181.5q0 -130 -64.5 -200t-183.5 -70
q-111 0 -171 66t-60 187q0 126 64.5 194.5t183.5 68.5zM279 429q-72 0 -105.5 -40.5t-33.5 -131.5q0 -101 33 -144t105 -43q73 0 107 40.5t34 132.5q0 100 -33 143t-107 43z" />
    <glyph glyph-name="yacute" unicode="&#xb4;y" horiz-adv-x="483" 
d="M189 560l-26 40q105 85 171 148l10 -1l38 -54l-2 -10q-79 -58 -181 -124zM278 140l4 -140h-96l4 140l-1 28l-169 333h102l12 -32l99 -199h7l110 195l15 36h100l-186 -330z" />
    <glyph glyph-name="Itilde" unicode="&#x7e;I" horiz-adv-x="279" 
d="M284 828v-9l-58 -77l-10 -3q-20 3 -70.5 19t-60.5 16q-5 0 -9.5 -2t-10.5 -7.5t-9.5 -9.5t-11 -14t-11.5 -14h-9l-31 31v9l59 76l10 4q20 -3 70 -19t60 -16q5 0 10 2t10.5 7.5t9.5 10t11.5 14t11.5 14.5h9zM186 202l5 -202h-105l7 193l-7 449h106z" />
    <glyph glyph-name="itilde" unicode="&#x7e;i" horiz-adv-x="267" 
d="M280 687v-9l-58 -77l-10 -3q-20 3 -70.5 19t-60.5 16q-5 0 -9.5 -2t-10.5 -7.5t-9.5 -9.5t-11 -14t-11.5 -14h-9l-31 31v9l59 76l10 4q20 -3 70 -19t60 -16q5 0 10 2t10.5 7.5t9.5 10t11.5 14t11.5 14.5h9zM175 159l4 -159h-96l4 150l-4 351h97z" />
    <glyph glyph-name="Utilde" unicode="&#x7e;U" horiz-adv-x="631" 
d="M482 831v-9l-65 -77l-10 -5q-21 3 -81.5 20t-73.5 17q-5 0 -10.5 -2.5t-11.5 -7.5t-10.5 -10t-13 -14t-13.5 -15h-10l-31 32v9l65 77l11 4q21 -3 81.5 -19.5t73.5 -16.5q4 0 7.5 1t7.5 4t7.5 5.5t8.5 8t8 9t9.5 10.5t10.5 11h10zM560 316l-1 -76q2 -118 -64 -183
t-187 -65q-117 0 -179 62.5t-60 177.5l2 89l-2 321h102l-4 -396q-1 -166 148 -166q150 0 149 156l-5 406h104z" />
    <glyph glyph-name="utilde" unicode="&#x7e;u" horiz-adv-x="552" 
d="M442 690v-9l-65 -77l-10 -5q-21 3 -81.5 20t-73.5 17q-5 0 -10.5 -2.5t-11.5 -7.5t-10.5 -10t-13 -14t-13.5 -15h-10l-31 32v9l65 77l11 4q21 -3 81.5 -19.5t73.5 -16.5q4 0 7.5 1t7.5 4t7.5 5.5t8.5 8t8 9t9.5 10.5t10.5 11h10zM482 246l-1 -74q1 -85 -54 -132t-156 -47
q-100 0 -152 46.5t-50 132.5l1 77l-3 252h97l-5 -314q-1 -57 28 -85.5t88 -28.5q58 0 88 28.5t29 85.5l-4 314h97z" />
    <glyph glyph-name="Etilde" unicode="&#x7e;E" horiz-adv-x="493" 
d="M143 728l-31 32v9l65 77l11 4q21 -3 81.5 -19.5t73.5 -16.5q4 0 7.5 1t7.5 4t7.5 5.5t8.5 8t8 9t9.5 10.5t10.5 11h10l30 -32v-9l-65 -77l-10 -5q-21 3 -81.5 20t-73.5 17q-5 0 -10.5 -2.5t-11.5 -7.5t-10.5 -10t-13 -14t-13.5 -15h-10zM466 88l6 -9l-7 -79h-379l7 193
l-7 449h381l6 -9l-8 -79l-152 4l-122 -1l-3 -187l116 -2l106 3l7 -8l-8 -79l-113 3l-109 -2l-1 -83l3 -118l122 -1z" />
    <glyph glyph-name="etilde" unicode="&#x7e;e" horiz-adv-x="444" 
d="M110 587l-31 32v9l65 77l11 4q21 -3 81.5 -19.5t73.5 -16.5q4 0 7.5 1t7.5 4t7.5 5.5t8.5 8t8 9t9.5 10.5t10.5 11h10l30 -32v-9l-65 -77l-10 -5q-21 3 -81.5 20t-73.5 17q-5 0 -10.5 -2.5t-11.5 -7.5t-10.5 -10t-13 -14t-13.5 -15h-10zM405 80l7 -7l-8 -73h-321l4 150
l-4 351h324l6 -8l-7 -73l-127 5l-100 -1l-2 -130l96 -1l87 3l5 -8l-6 -74l-94 3l-89 -1l-1 -57l2 -82l93 -1z" />
    <glyph glyph-name="Ytilde" unicode="&#x7e;Y" horiz-adv-x="541" 
d="M131 728l-31 32v9l65 77l11 4q21 -3 81.5 -19.5t73.5 -16.5q4 0 7.5 1t7.5 4t7.5 5.5t8.5 8t8 9t9.5 10.5t10.5 11h10l30 -32v-9l-65 -77l-10 -5q-21 3 -81.5 20t-73.5 17q-5 0 -10.5 -2.5t-11.5 -7.5t-10.5 -10t-13 -14t-13.5 -15h-10zM309 184l5 -184h-104l6 184l-1 41
l-204 417h110l13 -40l127 -269h9l140 267l16 42h108l-224 -418z" />
    <glyph glyph-name="ytilde" unicode="&#x7e;y" horiz-adv-x="483" 
d="M111 587l-31 32v9l65 77l11 4q21 -3 81.5 -19.5t73.5 -16.5q4 0 7.5 1t7.5 4t7.5 5.5t8.5 8t8 9t9.5 10.5t10.5 11h10l30 -32v-9l-65 -77l-10 -5q-21 3 -81.5 20t-73.5 17q-5 0 -10.5 -2.5t-11.5 -7.5t-10.5 -10t-13 -14t-13.5 -15h-10zM278 140l4 -140h-96l4 140l-1 28
l-169 333h102l12 -32l99 -199h7l110 195l15 36h100l-186 -330z" />
    <glyph glyph-name="Gtilde" unicode="&#x7e;G" horiz-adv-x="599" 
d="M490 831v-9l-65 -77l-10 -5q-21 3 -81.5 20t-73.5 17q-5 0 -10.5 -2.5t-11.5 -7.5t-10.5 -10t-13 -14t-13.5 -15h-10l-31 32v9l65 77l11 4q21 -3 81.5 -19.5t73.5 -16.5q4 0 7.5 1t7.5 4t7.5 5.5t8.5 8t8 9t9.5 10.5t10.5 11h10zM356 649q101 0 188 -43l-21 -96l-11 -1
q-92 54 -173 54q-100 0 -149 -60.5t-49 -190.5q0 -124 46 -179.5t146 -55.5q44 0 111 20l3 65l-3 96l97 7l-2 -87l3 -147q-124 -39 -215 -39q-147 0 -220 81.5t-73 233.5q0 166 83.5 254t238.5 88z" />
    <glyph glyph-name="gtilde" unicode="&#x7e;g" horiz-adv-x="523" 
d="M442 690v-9l-65 -77l-10 -5q-21 3 -81.5 20t-73.5 17q-5 0 -10.5 -2.5t-11.5 -7.5t-10.5 -10t-13 -14t-13.5 -15h-10l-31 32v9l65 77l11 4q21 -3 81.5 -19.5t73.5 -16.5q4 0 7.5 1t7.5 4t7.5 5.5t8.5 8t8 9t9.5 10.5t10.5 11h10zM310 507q78 0 158 -31l-29 -91h-10
q-69 43 -136 43q-78 0 -115 -43.5t-37 -140.5q0 -94 35 -133.5t115 -39.5q38 0 87 18v42l-1 75l88 6l-1 -66v-122q-102 -31 -178 -31q-122 0 -184 64t-62 183q0 129 70.5 198t199.5 69z" />
    <glyph glyph-name=".notdef" horiz-adv-x="160" 
 />
    <glyph glyph-name=".null" horiz-adv-x="0" 
 />
    <glyph glyph-name="nonmarkingreturn" horiz-adv-x="333" 
 />
    <glyph glyph-name="space" unicode=" " horiz-adv-x="160" 
 />
    <glyph glyph-name="exclam" unicode="!" horiz-adv-x="260" 
d="M190 650l-28 -424l-59 -8l-10 12l-4 416l10 12l79 5zM121 108q25 0 39 -14.5t14 -40.5q0 -27 -15 -43t-41 -16t-40.5 15t-14.5 41t16 42t42 16z" />
    <glyph glyph-name="quotedbl" unicode="&#x22;" horiz-adv-x="310" 
d="M141 632l-28 -198l-50 -7l-8 7l1 200l78 6zM269 632l-29 -198l-50 -7l-8 7l2 200l78 6z" />
    <glyph glyph-name="numbersign" unicode="#" horiz-adv-x="529" 
d="M393 361l-24 -111h99l7 -7l-5 -54h-114l-33 -157h-59l-6 8l32 149h-106l-33 -157h-60l-5 8l32 149h-91l-7 7l5 54h105l24 111h-93l-7 7l5 54h108l32 152h58l7 -9l-30 -143h105l32 152h58l7 -9l-30 -143h97l6 -7l-5 -54h-111zM326 361h-105l-24 -111h105z" />
    <glyph glyph-name="dollar" unicode="$" horiz-adv-x="441" 
d="M387 144q0 -55 -40.5 -97t-113.5 -51l-10 -128h-50l-8 9l9 118q-70 5 -131 31l11 86l11 5q47 -45 114 -56l12 158q-30 13 -49 23t-41 26.5t-33 39t-11 51.5q0 57 42 97t114 47l10 140h50l10 -9l-10 -130q51 -5 100 -24l-14 -80l-14 -3q-37 28 -77 38l-12 -152
q29 -12 48.5 -22.5t40.5 -27t31.5 -39t10.5 -50.5zM141 371q0 -35 57 -63l10 129q-31 -6 -49 -25t-18 -41zM249 193l-11 -132q30 7 47.5 26t17.5 42q0 36 -54 64z" />
    <glyph glyph-name="percent" unicode="%" horiz-adv-x="836" 
d="M653 655l7 -15l-469 -731l-45 26l-5 13l469 733zM193 648q70 0 107 -45t37 -128q0 -90 -39.5 -137.5t-115.5 -47.5q-71 0 -108.5 44.5t-37.5 129.5q0 89 40.5 136.5t116.5 47.5zM186 577q-82 0 -82 -107q0 -114 83 -114t83 109q0 112 -84 112zM655 353q70 0 107 -45
t37 -128q0 -90 -39.5 -137.5t-115.5 -47.5q-70 0 -108 45t-38 129q0 89 40.5 136.5t116.5 47.5zM648 282q-81 0 -81 -107q0 -114 82 -114q83 0 83 109q0 112 -84 112z" />
    <glyph glyph-name="ampersand" unicode="&#x26;" horiz-adv-x="761" 
d="M800 348l17 -57q-21 -34 -45 -52t-60 -22q-30 0 -107 15q-14 -110 -95 -176.5t-205 -66.5q-126 0 -196.5 70t-70.5 193q0 115 59 186t150 71q56 0 87.5 -27t31.5 -68q0 -5 -2 -19q189 140 268 316h9q31 -30 41 -68q-52 -118 -211.5 -252t-334.5 -203q34 -124 178 -124
q91 0 151.5 50t65.5 133q-32 5 -47 5q-46 0 -78 -56l-11 -1l-17 58q40 66 106 73q26 0 113 -17t114 -17q54 0 77 55zM244 441q-54 0 -86 -47.5t-32 -127.5v-6q71 28 139 69q38 30 36 69q-4 43 -57 43z" />
    <glyph glyph-name="quotesingle" unicode="'" horiz-adv-x="182" 
d="M141 632l-28 -198l-50 -7l-8 7l1 200l78 6z" />
    <glyph glyph-name="parenleft" unicode="(" horiz-adv-x="291" 
d="M286 629v-9q-67 -56 -96.5 -141t-30.5 -223q1 -134 30.5 -216.5t96.5 -138.5v-9l-36 -32h-10q-86 63 -124 155t-39 240q1 153 39 248t124 159h10z" />
    <glyph glyph-name="parenright" unicode=")" horiz-adv-x="291" 
d="M5 -108v9q67 56 96.5 141t30.5 223q-1 134 -30.5 216.5t-96.5 138.5v9l36 33h10q86 -64 124 -156t39 -240q-1 -153 -39 -248t-124 -158h-10z" />
    <glyph glyph-name="asterisk" unicode="*" horiz-adv-x="378" 
d="M233 730l-26 -121l-38 -4l-6 7l-3 114q29 11 68 11zM149 597l-5 -37l-9 -4l-103 33q0 41 10 69l7 2zM222 599l101 38q21 -31 32 -62l-5 -6l-115 -13l-17 34zM230 536l64 -91q-13 -22 -47 -50l-9 2l-45 116l27 24zM174 519l1 -10l-58 -94q-21 6 -63 31v8l87 82z" />
    <glyph glyph-name="plus" unicode="+" horiz-adv-x="480" 
d="M275 468v-170h170l7 -7l-5 -63h-172v-172l-62 -5l-8 7v170h-170l-7 7l5 63h172v172l63 6z" />
    <glyph glyph-name="comma" unicode="," horiz-adv-x="229" 
d="M134 106q43 -31 43 -75q0 -74 -106 -150l-33 30l-1 8q55 45 55 92q0 31 -31 53v9q37 24 73 33z" />
    <glyph glyph-name="hyphen" unicode="-" horiz-adv-x="306" 
d="M277 300v-64l-240 -36l-9 9v64l240 35z" />
    <glyph glyph-name="period" unicode="." horiz-adv-x="229" 
d="M116 108q25 0 39 -14.5t14 -40.5q0 -27 -15 -43t-41 -16t-40.5 15t-14.5 41t15.5 42t42.5 16z" />
    <glyph glyph-name="slash" unicode="/" horiz-adv-x="286" 
d="M295 669l-205 -783h-71l-6 9l205 784h69z" />
    <glyph glyph-name="zero" unicode="0" horiz-adv-x="525" 
d="M270 508q101 0 156.5 -65.5t55.5 -186.5q0 -126 -58.5 -195t-166.5 -69q-102 0 -158 65.5t-56 184.5q0 127 59.5 196.5t167.5 69.5zM262 414q-139 0 -139 -165q0 -167 140 -167t140 162q0 170 -141 170z" />
    <glyph glyph-name="one" unicode="1" horiz-adv-x="351" 
d="M240 495l-6 -288l5 -207h-103l6 196l-1 194l-122 -34l-9 6v81l215 63z" />
    <glyph glyph-name="two" unicode="2" horiz-adv-x="462" 
d="M235 506q64 0 105 -31.5t41 -84.5q0 -76 -116 -206l-89 -101l2 -5h163l87 8l7 -7l-13 -84l-110 5h-226l-37 -2l-5 4v63l137 144q52 56 76 92t24 64q0 24 -18 39t-50 15q-71 0 -135 -64h-11l-17 79q92 72 185 72z" />
    <glyph glyph-name="three" unicode="3" horiz-adv-x="420" 
d="M196 507q73 0 117.5 -36t44.5 -95q0 -42 -24 -81.5t-74 -65.5v-4q116 -31 116 -132q0 -85 -65.5 -137t-171.5 -52q-47 0 -103 9l-5 84l7 7q51 -22 106 -22q62 0 98.5 27.5t36.5 75.5q0 85 -113 90h-63l-6 7l3 70l44 1q41 0 76 29t35 72q0 33 -21.5 51.5t-57.5 18.5
q-54 0 -122 -55h-11l-15 77q79 61 168 61z" />
    <glyph glyph-name="four" unicode="4" horiz-adv-x="490" 
d="M455 66l-90 2l4 -151l-6 -8l-78 -6l-6 7l3 158h-176l-75 -2l-7 9v66l249 360h94l-3 -354h90l6 -9zM113 147h170v235h-8z" />
    <glyph glyph-name="five" unicode="5" horiz-adv-x="423" 
d="M386 499l-11 -80l-7 -7l-82 7h-134l-3 -137l62 -13q91 -19 129.5 -57.5t38.5 -100.5q0 -93 -68.5 -151t-176.5 -58q-42 0 -101 11l-7 86l8 8q57 -25 114 -25q62 0 98.5 31t36.5 82q0 40 -27.5 64t-89.5 35l-89 17l-8 9l5 270l14 14l55 -3h139l98 5z" />
    <glyph glyph-name="six" unicode="6" horiz-adv-x="475" 
d="M274 354q76 0 119 -47.5t43 -123.5q0 -83 -54 -137.5t-148 -54.5q-95 0 -144 58t-49 163q0 126 76.5 225.5t216.5 157.5h6l76 -46v-10q-115 -41 -179 -92t-88 -122l7 -8q55 37 118 37zM241 60q49 0 76.5 28t27.5 81q0 54 -26 83t-74 29q-55 0 -111 -43l-1 -24
q0 -78 25.5 -116t82.5 -38z" />
    <glyph glyph-name="seven" unicode="7" horiz-adv-x="424" 
d="M125 501h225l45 2l1 -75l-182 -398l-49 -131l-82 22l-6 17l223 479h-192l-83 -9l-6 10l7 87z" />
    <glyph glyph-name="eight" unicode="8" horiz-adv-x="482" 
d="M250 593q76 0 119.5 -38t43.5 -104q0 -83 -92 -141v-5q51 -25 80.5 -56.5t29.5 -87.5q0 -78 -55.5 -123.5t-147.5 -45.5q-86 0 -134.5 41.5t-48.5 109.5q0 94 113 149v5q-91 47 -91 138q0 73 50.5 115.5t132.5 42.5zM245 521q-44 0 -69 -22.5t-25 -60.5q0 -39 25 -61
t72 -40q40 19 62.5 42.5t22.5 61.5q0 37 -23.5 58.5t-64.5 21.5zM230 262q-47 -17 -73 -41t-26 -66t28.5 -67t77.5 -25q51 0 80 25.5t29 65.5q0 22 -8.5 39t-29 30t-34 20t-44.5 19z" />
    <glyph glyph-name="nine" unicode="9" horiz-adv-x="475" 
d="M241 511q95 0 144 -58t49 -163q0 -126 -76.5 -225.5t-216.5 -157.5h-6l-76 46v10q115 41 179 92t88 122l-7 8q-55 -37 -118 -37q-76 0 -119 47.5t-43 123.5q0 83 54 137.5t148 54.5zM230 221q55 0 111 43l1 24q0 78 -25.5 116t-82.5 38q-49 0 -76.5 -28t-27.5 -81
q0 -54 26 -83t74 -29z" />
    <glyph glyph-name="colon" unicode=":" horiz-adv-x="229" 
d="M112 375q25 0 39 -14.5t14 -40.5q0 -27 -15.5 -43t-41.5 -16q-25 0 -39.5 14.5t-14.5 40.5q0 27 15.5 43t42.5 16zM112 108q25 0 39 -14.5t14 -40.5q0 -27 -15.5 -43t-41.5 -16q-25 0 -39.5 15t-14.5 41t15.5 42t42.5 16z" />
    <glyph glyph-name="semicolon" unicode=";" horiz-adv-x="229" 
d="M112 375q25 0 39 -14.5t14 -40.5q0 -27 -15.5 -43t-41.5 -16q-25 0 -39.5 14.5t-14.5 40.5q0 27 15.5 43t42.5 16zM130 106q43 -31 43 -75q0 -74 -106 -150l-34 30v8q55 46 55 92q0 30 -31 53v9q37 24 73 33z" />
    <glyph glyph-name="less" unicode="&#x3c;" horiz-adv-x="480" 
d="M443 408l-5 -9l-327 -131v-6l329 -124l-15 -58l-10 -7l-380 148v83l8 10l378 152z" />
    <glyph glyph-name="equal" unicode="=" horiz-adv-x="480" 
d="M452 378l-5 -62h-412l-7 7l5 62h412zM452 203l-5 -63h-412l-7 7l5 63h412z" />
    <glyph glyph-name="greater" unicode="&#x3e;" horiz-adv-x="480" 
d="M437 314l8 -10v-83l-380 -148l-10 7l-15 58l329 124v6l-327 131l-5 9l22 58z" />
    <glyph glyph-name="question" unicode="?" horiz-adv-x="335" 
d="M74 659l11 5q125 -7 192.5 -48t67.5 -111q0 -82 -87 -135l-79 -50l-2 -4l6 -92l-71 -9l-8 8l-9 117l5 10l94 52q59 34 59 87q0 92 -191 103l-7 10zM151 108q25 0 39.5 -14.5t14.5 -40.5q0 -27 -15.5 -43t-41.5 -16q-54 0 -54 56q0 26 15.5 42t41.5 16z" />
    <glyph glyph-name="at" unicode="@" horiz-adv-x="833" 
d="M806 304q0 -144 -92 -223t-263 -84l26 185h-11q-70 -118 -143 -190h-16q-87 42 -87 160q0 69 25 133t80.5 114.5t131.5 64.5h5l69 -22l57 23l11 -5l-50 -349l-2 -41q90 12 140.5 73t50.5 158q0 118 -77.5 188.5t-207.5 67.5q-158 -2 -254.5 -102t-96.5 -256
q0 -160 104 -251.5t278 -91.5l4 -10l-30 -49q-194 2 -309.5 105.5t-115.5 283.5q0 192 119 314.5t312 122.5q155 0 248.5 -87t93.5 -232zM333 91q12 0 36.5 26.5t61.5 87.5t70 141l1 8l1 13l-64 24q-62 0 -98 -59.5t-36 -150.5q0 -90 28 -90z" />
    <glyph glyph-name="A" unicode="A" horiz-adv-x="587" 
d="M568 0h-106l-15 72l-28 89l-136 3l-123 -3l-30 -84l-16 -77h-103l229 642h121zM393 245l-92 296h-7l-105 -296l101 -2z" />
    <glyph glyph-name="B" unicode="B" horiz-adv-x="554" 
d="M386 334q132 -28 132 -154q0 -184 -275 -184q-95 0 -156 4h-1l7 193l-7 449l200 1q93 0 144.5 -40.5t51.5 -117.5q0 -110 -96 -151zM376 473q0 48 -27 69t-91 21h-68l-3 -197l103 -3q86 21 86 110zM260 76q74 0 114 28t40 82q0 86 -111 101l-117 -1l-1 -84l3 -123
q39 -3 72 -3z" />
    <glyph glyph-name="C" unicode="C" horiz-adv-x="519" 
d="M327 649q98 0 173 -44l-19 -91l-10 -3q-67 52 -148 52q-88 0 -134.5 -59.5t-46.5 -177.5q0 -121 47 -184t134 -63q88 0 160 55l10 -6l-8 -94q-86 -42 -170 -42q-135 0 -208 84t-73 239q0 160 76.5 247t216.5 87z" />
    <glyph glyph-name="D" unicode="D" horiz-adv-x="650" 
d="M87 642l243 4q138 0 212 -78t74 -224q0 -169 -81 -259.5t-233 -90.5q-97 0 -215 6h-1l7 193l-7 449h1zM320 76q189 0 189 245q0 124 -46.5 182.5t-140.5 58.5q-55 0 -131 -4l-5 -356l3 -119q79 -7 131 -7z" />
    <glyph glyph-name="E" unicode="E" horiz-adv-x="493" 
d="M466 88l6 -9l-7 -79h-379l7 193l-7 449h381l6 -9l-8 -79l-152 4l-122 -1l-3 -187l116 -2l106 3l7 -8l-8 -79l-113 3l-109 -2l-1 -83l3 -118l122 -1z" />
    <glyph glyph-name="F" unicode="F" horiz-adv-x="443" 
d="M191 557l-3 -202l101 -2l106 3l7 -9l-8 -78l-114 3l-93 -1l-1 -69l5 -202h-105l7 193l-7 449h359l7 -9l-8 -81l-150 6z" />
    <glyph glyph-name="G" unicode="G" horiz-adv-x="599" 
d="M356 649q101 0 188 -43l-21 -96l-11 -1q-92 54 -173 54q-100 0 -149 -60.5t-49 -190.5q0 -124 46 -179.5t146 -55.5q44 0 111 20l3 65l-3 96l97 7l-2 -87l3 -147q-124 -39 -215 -39q-147 0 -220 81.5t-73 233.5q0 166 83.5 254t238.5 88z" />
    <glyph glyph-name="H" unicode="H" horiz-adv-x="688" 
d="M596 202l4 -202h-104l7 193l-1 87l-166 3l-149 -3l-1 -78l5 -202h-105l7 193l-7 449h106l-4 -275l156 -3l156 3l-4 275h106z" />
    <glyph glyph-name="I" unicode="I" horiz-adv-x="279" 
d="M186 202l5 -202h-105l7 193l-7 449h106z" />
    <glyph glyph-name="J" unicode="J" horiz-adv-x="321" 
d="M229 212l2 -93q0 -78 -40.5 -128.5t-140.5 -94.5l-36 57v11q67 35 94.5 68.5t27.5 86.5v83l-4 360l-117 -1l-9 8l6 73h223z" />
    <glyph glyph-name="K" unicode="K" horiz-adv-x="562" 
d="M185 202l5 -202h-105l7 193l-7 449h106zM547 642l-246 -302q122 -164 265 -318l-2 -12q-47 -13 -100 -19l-11 6q-155 187 -259 338v6l201 243l38 58h114z" />
    <glyph glyph-name="L" unicode="L" horiz-adv-x="423" 
d="M421 77l-8 -77h-330l7 193l-7 449h106l-6 -440l2 -116h229z" />
    <glyph glyph-name="M" unicode="M" horiz-adv-x="792" 
d="M737 0h-92l-13 195l-30 290h-7l-165 -414h-82l-153 414h-9l-30 -281l-16 -204h-87l67 642h118l30 -96l123 -341h8l130 344l30 93h117z" />
    <glyph glyph-name="N" unicode="N" horiz-adv-x="688" 
d="M595 192l4 -192h-111l-301 481h-8l-1 -266l5 -215h-97l7 190l-5 452h110l302 -481h8l-3 476l97 7z" />
    <glyph glyph-name="O" unicode="O" horiz-adv-x="639" 
d="M329 650q133 0 204.5 -82t71.5 -234q0 -164 -77 -253.5t-218 -89.5q-132 0 -204 84.5t-72 239.5q0 161 76.5 248t218.5 87zM320 565q-92 0 -136 -57.5t-44 -179.5q0 -131 43.5 -192.5t134.5 -61.5t135.5 58.5t44.5 182.5q0 130 -43.5 190t-134.5 60z" />
    <glyph glyph-name="P" unicode="P" horiz-adv-x="534" 
d="M86 642l218 1q97 0 149.5 -49.5t52.5 -142.5q0 -108 -66.5 -171t-182.5 -63h-71v-15l5 -202h-105l7 193zM187 299l100 -2q112 21 112 145q0 60 -30.5 89t-92.5 31l-85 -3z" />
    <glyph glyph-name="Q" unicode="Q" horiz-adv-x="643" 
d="M730 -114l4 -12q-20 -41 -47 -66l-9 -4q-192 59 -344 188l-22 -1q-134 0 -206 84.5t-72 239.5q0 161 76.5 248t218.5 87q133 0 204.5 -82t71.5 -236q0 -124 -45.5 -206.5t-131.5 -114.5q141 -93 302 -125zM140 325q0 -129 44 -190t136 -61q178 0 178 244q0 127 -44 187
t-135 60q-92 0 -135.5 -58t-43.5 -182z" />
    <glyph glyph-name="R" unicode="R" horiz-adv-x="570" 
d="M380 257q68 -109 161 -233l-1 -12q-48 -16 -99 -21l-12 8q-83 136 -134 230h-109v-27l5 -202h-105l7 193l-7 449l218 1q97 0 150 -48.5t53 -138.5q0 -64 -33.5 -115.5t-93.5 -83.5zM188 313l110 -3q101 31 101 138q0 109 -123 114l-85 -3z" />
    <glyph glyph-name="S" unicode="S" horiz-adv-x="483" 
d="M274 649q76 0 152 -32l-17 -94l-16 -6q-66 49 -131 49q-49 0 -78 -27t-29 -63q0 -32 30 -57t72.5 -44.5t84.5 -41.5t72 -60.5t30 -90.5q0 -80 -63 -135t-163 -55q-92 0 -180 43l13 102l13 6q37 -35 81.5 -52.5t82.5 -17.5q52 0 83 27.5t31 65.5q0 34 -29.5 60t-72 45
t-85 41t-72 60t-29.5 90q0 80 61.5 133.5t158.5 53.5z" />
    <glyph glyph-name="T" unicode="T" horiz-adv-x="495" 
d="M477 633l-6 -78l-116 6h-54l-5 -359l5 -202h-104l6 193l-5 368h-54l-118 -6l-7 9l8 78h444z" />
    <glyph glyph-name="U" unicode="U" horiz-adv-x="631" 
d="M560 316l-1 -76q2 -118 -64 -183t-187 -65q-117 0 -179 62.5t-60 177.5l2 89l-2 321h102l-4 -396q-1 -166 148 -166q150 0 149 156l-5 406h104z" />
    <glyph glyph-name="V" unicode="V" horiz-adv-x="573" 
d="M342 0h-122l-208 642h106l15 -73l147 -469h7l163 464l16 78h103z" />
    <glyph glyph-name="W" unicode="W" horiz-adv-x="897" 
d="M668 0h-108l-113 345h-7l-117 -345h-109l-194 642h102l11 -69l138 -463h8l126 372l-51 160h105l16 -79l140 -453h8l155 457l16 75h96z" />
    <glyph glyph-name="X" unicode="X" horiz-adv-x="598" 
d="M361 335l215 -335h-125l-29 57l-131 197l-137 -203l-27 -51h-108l212 321l-207 321h125l28 -56l122 -186l125 188l26 54h111z" />
    <glyph glyph-name="Y" unicode="Y" horiz-adv-x="541" 
d="M309 184l5 -184h-104l6 184l-1 41l-204 417h110l13 -40l127 -269h9l140 267l16 42h108l-224 -418z" />
    <glyph glyph-name="Z" unicode="Z" horiz-adv-x="536" 
d="M496 567l-342 -486h244l101 8l5 -6l-9 -85l-129 2h-270l-65 -3v75l344 488h-227l-103 -8l-6 6l8 85l395 -1l54 1v-76z" />
    <glyph glyph-name="bracketleft" unicode="[" horiz-adv-x="291" 
d="M287 641v-47l-113 -13v-644l113 -12v-47l-5 -6l-192 10l5 378l-5 377l192 10z" />
    <glyph glyph-name="backslash" unicode="\" horiz-adv-x="286" 
d="M76 679l206 -784l-7 -9h-70l-206 783l8 10h69z" />
    <glyph glyph-name="bracketright" unicode="]" horiz-adv-x="291" 
d="M4 -122v47l113 13v644l-113 12v48l5 5l192 -10l-5 -377l5 -378l-192 -10z" />
    <glyph glyph-name="asciicircum" unicode="^" horiz-adv-x="431" 
d="M413 139l-8 -9l-57 -14l-125 304h-6l-131 -303l-9 -5l-58 22l152 354l10 6h83z" />
    <glyph glyph-name="underscore" unicode="_" horiz-adv-x="447" 
d="M462 -96l-5 -58h-465l-7 8l6 58h464z" />
    <glyph glyph-name="grave" unicode="`" 
d="M123 707l10 1q66 -63 171 -148l-26 -40l-10 -1q-102 66 -181 124l-2 10z" />
    <glyph glyph-name="a" unicode="a" horiz-adv-x="519" 
d="M489 0h-97l-13 62l-18 55l-112 1l-100 -1l-19 -50l-14 -67h-95l187 501h112zM337 192l-72 219h-7l-81 -219l79 -1z" />
    <glyph glyph-name="b" unicode="b" horiz-adv-x="496" 
d="M345 260q108 -23 108 -118q0 -145 -233 -145q-71 0 -137 3l4 150l-4 351l176 1q78 0 122 -32t44 -92q0 -84 -80 -118zM325 365q0 35 -23 50t-76 15h-48l-2 -139l82 -3q67 15 67 77zM235 67q119 0 119 79q0 59 -85 73l-94 -1l-1 -59l2 -89q31 -3 59 -3z" />
    <glyph glyph-name="c" unicode="c" horiz-adv-x="458" 
d="M288 507q82 0 143 -32l-18 -85l-9 -3q-52 41 -125 41q-138 0 -138 -172q0 -90 36 -136.5t105 -46.5q72 0 131 41l10 -5l-8 -85q-67 -31 -138 -31q-115 0 -176 66t-61 188q0 125 64.5 192.5t183.5 67.5z" />
    <glyph glyph-name="d" unicode="d" horiz-adv-x="567" 
d="M83 501l206 4q115 0 176.5 -61t61.5 -175q0 -133 -68 -203.5t-194 -70.5q-95 0 -182 5l4 150zM281 70q147 0 147 177q0 93 -36 135.5t-110 42.5q-62 0 -103 -4l-4 -262l2 -82q75 -7 104 -7z" />
    <glyph glyph-name="e" unicode="e" horiz-adv-x="444" 
d="M405 80l7 -7l-8 -73h-321l4 150l-4 351h324l6 -8l-7 -73l-127 5l-100 -1l-2 -130l96 -1l87 3l5 -8l-6 -74l-94 3l-89 -1l-1 -57l2 -82l93 -1z" />
    <glyph glyph-name="f" unicode="f" horiz-adv-x="394" 
d="M174 424l-2 -144l80 -1l89 3l7 -8l-7 -73l-97 2l-73 -1l-1 -43l4 -159h-96l4 150l-4 351h306l6 -8l-8 -73l-125 5z" />
    <glyph glyph-name="g" unicode="g" horiz-adv-x="523" 
d="M310 507q78 0 158 -31l-29 -91h-10q-69 43 -136 43q-78 0 -115 -43.5t-37 -140.5q0 -94 35 -133.5t115 -39.5q38 0 87 18v42l-1 75l88 6l-1 -66v-122q-102 -31 -178 -31q-122 0 -184 64t-62 183q0 129 70.5 198t199.5 69z" />
    <glyph glyph-name="h" unicode="h" horiz-adv-x="600" 
d="M513 159l4 -159h-96l3 150l-1 60l-129 1l-118 -2l-1 -50l4 -159h-96l4 150l-4 351h97l-3 -208l124 -2l122 1l-2 209h97z" />
    <glyph glyph-name="i" unicode="i" horiz-adv-x="267" 
d="M175 159l4 -159h-96l4 150l-4 351h97z" />
    <glyph glyph-name="j" unicode="j" horiz-adv-x="300" 
d="M214 501l-4 -336v-71q0 -64 -30.5 -103.5t-107.5 -73.5l-35 49v9q46 24 65 51t19 67v62l-2 274l-92 -1l-6 6l6 67h187z" />
    <glyph glyph-name="k" unicode="k" horiz-adv-x="503" 
d="M481 502l-200 -236q95 -123 213 -244l-2 -14q-47 -12 -94 -17l-14 6q-125 150 -206 263v7l161 187l32 47zM175 159l4 -159h-96l4 150l-4 351h97z" />
    <glyph glyph-name="l" unicode="l" horiz-adv-x="382" 
d="M365 72l-7 -72h-278l4 150l-4 351h98l-5 -342l1 -79h185z" />
    <glyph glyph-name="m" unicode="m" horiz-adv-x="684" 
d="M628 0h-85l-10 152l-23 204h-6l-130 -303h-75l-120 303h-8l-22 -195l-13 -161h-81l54 501h112l23 -74l94 -247h7l100 248l25 73h109z" />
    <glyph glyph-name="n" unicode="n" horiz-adv-x="600" 
d="M512 153l3 -153h-104l-237 352h-6l-1 -182l3 -170h-87l4 147l-3 354h102l237 -352h8l-3 349l89 5z" />
    <glyph glyph-name="o" unicode="o" horiz-adv-x="558" 
d="M288 508q110 0 170.5 -64.5t60.5 -181.5q0 -130 -64.5 -200t-183.5 -70q-111 0 -171 66t-60 187q0 126 64.5 194.5t183.5 68.5zM279 429q-72 0 -105.5 -40.5t-33.5 -131.5q0 -101 33 -144t105 -43q73 0 107 40.5t34 132.5q0 100 -33 143t-107 43z" />
    <glyph glyph-name="p" unicode="p" horiz-adv-x="478" 
d="M83 501l190 1q81 0 125.5 -39.5t44.5 -112.5q0 -86 -57 -135.5t-154 -49.5h-57v-6l4 -159h-96l4 150zM176 239l80 -2q86 18 86 105q0 82 -98 87l-65 -2z" />
    <glyph glyph-name="q" unicode="q" horiz-adv-x="563" 
d="M616 -83l4 -10q-19 -36 -43 -59l-8 -2q-151 49 -272 147q-9 -1 -26 -1q-111 0 -171 66t-60 187q0 126 64.5 194.5t183.5 68.5q110 0 170.5 -64.5t60.5 -181.5q0 -195 -140 -251q116 -68 237 -94zM140 257q0 -101 33 -144t105 -43q73 0 107 40.5t34 132.5q0 100 -33 143
t-107 43q-72 0 -105.5 -40.5t-33.5 -131.5z" />
    <glyph glyph-name="r" unicode="r" horiz-adv-x="508" 
d="M342 200q58 -87 131 -177l-1 -12q-52 -15 -91 -18l-15 9q-73 118 -103 172l-88 -1v-14l4 -159h-96l4 150l-4 351l190 1q81 0 125.5 -38.5t44.5 -108.5q0 -101 -101 -155zM176 250l87 -3q79 23 79 99q0 78 -97 82l-66 -2z" />
    <glyph glyph-name="s" unicode="s" horiz-adv-x="433" 
d="M244 507q64 0 128 -25l-15 -91l-15 -3q-58 46 -110 46q-37 0 -58.5 -19t-21.5 -44q0 -24 24 -42t58 -32t68.5 -30.5t58.5 -47t24 -72.5q0 -64 -49.5 -109t-138.5 -45q-79 0 -153 32l13 97l11 6q29 -29 68.5 -45.5t72.5 -16.5q36 0 58.5 18.5t22.5 45.5q0 25 -24 43.5
t-58 32.5t-68 30.5t-58 47.5t-24 73q0 64 50.5 107t135.5 43z" />
    <glyph glyph-name="t" unicode="t" horiz-adv-x="441" 
d="M413 493l-6 -77l-97 7h-42l-2 -264l3 -159h-96l4 150l-2 273h-41l-99 -7l-7 8l7 77h373z" />
    <glyph glyph-name="u" unicode="u" horiz-adv-x="552" 
d="M482 246l-1 -74q1 -85 -54 -132t-156 -47q-100 0 -152 46.5t-50 132.5l1 77l-3 252h97l-5 -314q-1 -57 28 -85.5t88 -28.5q58 0 88 28.5t29 85.5l-4 314h97z" />
    <glyph glyph-name="v" unicode="v" horiz-adv-x="508" 
d="M307 0h-115l-169 501h98l14 -63l114 -347h5l128 342l14 68h95z" />
    <glyph glyph-name="w" unicode="w" horiz-adv-x="771" 
d="M575 0h-103l-87 248h-7l-90 -248h-103l-155 501h97l9 -60l104 -338h7l98 275l-38 123h99l12 -69l106 -329h8l117 333l14 65h91z" />
    <glyph glyph-name="x" unicode="x" horiz-adv-x="527" 
d="M323 263l176 -263h-116l-24 48l-101 139l-107 -144l-23 -43h-100l174 249l-172 252h118l23 -48l95 -131l97 134l21 45h103z" />
    <glyph glyph-name="y" unicode="y" horiz-adv-x="483" 
d="M278 140l4 -140h-96l4 140l-1 28l-169 333h102l12 -32l99 -199h7l110 195l15 36h100l-186 -330z" />
    <glyph glyph-name="z" unicode="z" horiz-adv-x="475" 
d="M430 431l-277 -357h190l89 9l5 -5l-8 -80l-116 2h-217l-58 -2v69l278 359h-184l-84 -9l-4 6l7 79l100 -1h231l48 1v-71z" />
    <glyph glyph-name="braceleft" unicode="{" horiz-adv-x="291" 
d="M221 656q19 0 57 -8l4 -8l-9 -54q-23 5 -36 5q-59 0 -59 -68q0 -23 11 -77.5t11 -75.5q0 -74 -68 -103v-5q68 -29 68 -102q0 -22 -11 -76t-11 -78q0 -70 59 -70q13 0 36 5l9 -52l-4 -8q-25 -8 -57 -8q-124 0 -124 115q0 31 10 89.5t10 78.5q0 67 -76 83v50q76 16 76 83
q0 20 -10 79t-10 90q0 115 124 115z" />
    <glyph glyph-name="bar" unicode="|" horiz-adv-x="311" 
d="M195 793l-1 -504v-545l-70 -5l-8 10v533l1 512l71 6z" />
    <glyph glyph-name="braceright" unicode="}" horiz-adv-x="291" 
d="M70 -127q-27 0 -57 8l-4 8l9 53q22 -5 36 -5q59 0 59 69q0 23 -11 77.5t-11 75.5q0 74 68 103v5q-68 29 -68 101q0 23 11 77t11 78q0 69 -59 69q-14 0 -36 -5l-9 53l4 8q30 8 57 8q124 0 124 -115q0 -31 -10.5 -89.5t-10.5 -78.5q0 -68 77 -83v-50q-77 -18 -77 -84
q0 -20 10.5 -78.5t10.5 -89.5q0 -115 -124 -115z" />
    <glyph glyph-name="asciitilde" unicode="~" horiz-adv-x="480" 
d="M149 248q-4 0 -8 -1t-9 -4.5t-8.5 -6t-10 -8.5t-10 -9.5l-12 -12l-11.5 -11.5h-11l-27 34v10l76 81l11 6q22 -4 104 -27.5t100 -23.5q16 0 61 45l8 8h10l27 -34v-10l-76 -82l-11 -4q-25 3 -105.5 26.5t-97.5 23.5z" />
    <glyph glyph-name="nbspace" unicode="&#xa0;" horiz-adv-x="160" 
 />
    <glyph glyph-name="exclamdown" unicode="&#xa1;" horiz-adv-x="260" 
d="M142 358q-25 0 -39.5 14.5t-14.5 39.5q0 27 15.5 43t41.5 16q54 0 54 -55q0 -26 -15.5 -42t-41.5 -16zM73 -184l28 424l59 7l10 -11l4 -416l-10 -12l-79 -5z" />
    <glyph glyph-name="cent" unicode="&#xa2;" horiz-adv-x="383" 
d="M366 130l-8 -61q-55 -31 -122 -34l-12 -156h-50l-8 9l11 153q-68 16 -105.5 75t-37.5 150q0 105 47 168.5t131 72.5l10 146h50l9 -9l-10 -137q53 -6 94 -31l-15 -65l-10 -2q-35 22 -73 29l-26 -335h3q57 0 113 32zM114 274q0 -116 68 -156l24 318q-44 -12 -68 -54.5
t-24 -107.5z" />
    <glyph glyph-name="sterling" unicode="&#xa3;" horiz-adv-x="428" 
d="M399 71l-7 -73l-110 2h-256l-5 6l6 54q72 16 72 104v119h-73l-4 6l5 50h71v84q-1 82 46 126.5t133 44.5q48 0 111 -17l-6 -75l-6 -6q-57 33 -106 33q-86 0 -86 -92v-98h127l4 -6l-5 -50h-127v-111q0 -65 -40 -98v-3h156l96 7z" />
    <glyph glyph-name="currency" unicode="&#xa4;" horiz-adv-x="435" 
d="M410 506v-10l-68 -63q25 -36 25 -79q0 -40 -24 -75l69 -61l1 -10l-44 -47l-10 1l-62 68q-36 -26 -80 -26q-41 0 -75 24l-61 -68h-10l-47 44l1 10l68 61q-26 36 -26 79q0 42 24 77l-68 61v10l43 46l10 -1l63 -68q34 25 78 25q41 0 75 -23l62 68l10 1zM217 447
q-39 0 -65.5 -26.5t-26.5 -66.5t26.5 -66t65.5 -26q40 0 66.5 26t26.5 66t-26.5 66.5t-66.5 26.5z" />
    <glyph glyph-name="yen" unicode="&#xa5;" horiz-adv-x="500" 
d="M477 165l4 -5l-3 -43h-189l2 -117h-85l3 117h-181l-4 5l3 43h183v3l-45 83h-137l-4 6l3 43h112l-106 200h91l11 -31l113 -206h7l122 203l15 34h89l-116 -200h112l5 -5l-4 -44h-142l-47 -81v-5h188z" />
    <glyph glyph-name="brokenbar" unicode="&#xa6;" horiz-adv-x="311" 
d="M195 793l-1 -419l-70 -8l-8 7v421l72 6zM194 150v-406l-70 -5l-8 10v403l69 8z" />
    <glyph glyph-name="section" unicode="&#xa7;" horiz-adv-x="425" 
d="M297 140q50 -43 50 -97q0 -59 -50 -101t-126 -42q-73 0 -140 31l13 84l10 7q62 -56 128 -56q36 0 57 18.5t21 42.5q0 22 -23 42.5t-55.5 39.5t-65 40t-55.5 53t-23 71q0 42 25.5 78.5t68.5 59.5q-49 42 -49 95q0 59 49.5 101t123.5 42q59 0 116 -23l-13 -82l-13 -3
q-58 40 -105 40q-31 0 -51.5 -18.5t-20.5 -41.5q0 -22 23 -42.5t55.5 -38.5t65 -39.5t55.5 -53t23 -70.5q0 -42 -25 -78.5t-69 -58.5zM124 294q0 -10 3 -19t11 -18.5t14 -16t20 -16t20.5 -14t25 -15.5t24.5 -15q63 28 63 74q0 10 -3 19.5t-11 19.5t-13.5 16t-19.5 16
t-20.5 14.5t-25 16t-23.5 14.5q-65 -31 -65 -76z" />
    <glyph glyph-name="dieresis" unicode="&#xa8;" 
d="M115 665q50 0 50 -51q0 -26 -14 -40.5t-39 -14.5q-51 0 -51 52q0 25 14.5 39.5t39.5 14.5zM279 665q50 0 50 -51q0 -26 -14 -40.5t-39 -14.5q-51 0 -51 52q0 25 14.5 39.5t39.5 14.5z" />
    <glyph glyph-name="copyright" unicode="&#xa9;" horiz-adv-x="686" 
d="M342 598q134 0 216 -84t82 -221t-82 -221t-216 -84t-215.5 84t-81.5 221t81.5 221t215.5 84zM342 559q-116 0 -187 -73t-71 -193t71 -193t187 -73t187.5 73t71.5 193t-71.5 193t-187.5 73zM360 465q45 0 92 -20l-13 -56l-6 -3q-34 21 -75 21q-92 0 -92 -107
q0 -116 93 -116q42 0 80 20l7 -3l-6 -56q-43 -19 -86 -19q-79 0 -119.5 43t-40.5 125t43 126.5t123 44.5z" />
    <glyph glyph-name="ordfeminine" unicode="&#xaa;" horiz-adv-x="328" 
d="M170 650q52 0 80 -23t28 -65q0 -10 -3 -74t-3 -72q0 -24 15 -24q11 0 17 5l7 -5l-9 -47q-21 -15 -46 -15q-23 0 -34.5 10.5t-17.5 37.5h-4q-34 -40 -73 -49q-45 1 -71 25t-26 67q0 65 69 77l99 18l1 30q0 44 -43 44q-38 0 -93 -36l-7 3l-10 56q61 37 124 37zM198 476
l-63 -14q-27 -4 -27 -33q0 -40 36 -40q28 0 53 30z" />
    <glyph glyph-name="guillemetleft" unicode="&#xab;" horiz-adv-x="411" 
d="M20 216v19l141 175l48 -27l2 -11l-116 -145l116 -145l-2 -11l-48 -27zM194 216v19l141 175l48 -27l2 -11l-116 -145l116 -145l-2 -11l-48 -27z" />
    <glyph glyph-name="logicalnot" unicode="&#xac;" horiz-adv-x="480" 
d="M427 291v-235l-62 -5l-8 7v170h-324l-7 7l6 63h389z" />
    <glyph glyph-name="softhyphen" unicode="&#xad;" horiz-adv-x="306" 
d="M277 300v-64l-240 -36l-9 9v64l240 35z" />
    <glyph glyph-name="registered" unicode="&#xae;" horiz-adv-x="442" 
d="M221 702q83 0 133.5 -50t50.5 -133t-50.5 -133.5t-133.5 -50.5q-82 0 -132.5 50.5t-50.5 133.5t50 133t133 50zM222 364q69 0 111.5 42.5t42.5 112.5t-42.5 112t-111.5 42q-70 0 -112 -42t-42 -112t42 -112.5t112 -42.5zM297 564q0 -38 -38 -59q24 -37 51 -68l-1 -4
q-13 -6 -40 -8l-5 3q-21 32 -40 67h-32v-4l2 -63h-41l1 58l-1 137h78q66 0 66 -59zM193 528l34 -2q28 11 28 35q0 29 -38 31l-23 -1z" />
    <glyph glyph-name="macron" unicode="&#xaf;" 
d="M342 638l-5 -59h-282l-7 8l5 58h282z" />
    <glyph glyph-name="degree" unicode="&#xb0;" horiz-adv-x="293" 
d="M147 650q53 0 90 -37t37 -90t-37 -89.5t-90 -36.5q-54 0 -91 36.5t-37 89.5t37 90t91 37zM146 603q-33 0 -57 -23.5t-24 -56.5t24 -56.5t57 -23.5q34 0 57.5 23.5t23.5 56.5t-23.5 56.5t-57.5 23.5z" />
    <glyph glyph-name="plusminus" unicode="&#xb1;" horiz-adv-x="480" 
d="M275 468v-170h170l7 -7l-5 -63h-172v-172l-62 -5l-8 7v170h-170l-7 7l5 63h172v172l63 6zM452 -39l-5 -63h-412l-7 7l5 63h412z" />
    <glyph glyph-name="twosuperior" unicode="&#xb2;" horiz-adv-x="354" 
d="M180 706q49 0 80.5 -24t31.5 -66q0 -29 -19 -63t-64 -89l-59 -75l2 -2h108l66 3l3 -6l-9 -67l-86 3h-166l-27 -1l-4 3v51l96 109q39 46 55.5 70.5t16.5 44.5q0 17 -12 28t-34 11q-52 0 -96 -49h-10l-14 65q72 54 141 54z" />
    <glyph glyph-name="threesuperior" unicode="&#xb3;" horiz-adv-x="313" 
d="M146 707q52 0 83.5 -24.5t31.5 -65.5q0 -61 -61 -91v-4q74 -20 74 -90q0 -52 -46 -84.5t-120 -32.5q-37 0 -72 8l-5 60l6 6q37 -10 72 -10q38 0 59.5 14.5t21.5 40.5q0 47 -61 49h-47l-4 5l1 57h30q25 1 45 17t20 39q0 39 -47 39q-34 0 -78 -29h-9l-14 57q56 39 120 39z
" />
    <glyph glyph-name="acute" unicode="&#xb4;" 
d="M267 707l38 -54l-2 -10q-79 -58 -181 -124l-10 1l-26 40q105 85 171 148z" />
    <glyph glyph-name="micro" unicode="&#xb5;" horiz-adv-x="515" 
d="M495 71l-11 -56q-29 -21 -64 -21q-58 0 -75 66h-8q-56 -52 -119 -66q-33 0 -56 10v-189h-96l4 378l-4 261l96 9v-311q1 -35 19.5 -54.5t51.5 -19.5q53 0 107 51v325l97 9l-7 -351q-1 -44 26 -44q15 0 31 10z" />
    <glyph glyph-name="paragraph" unicode="&#xb6;" horiz-adv-x="500" 
d="M478 633l-8 -70h-71l-3 -375l1 -56q0 -71 -40 -121t-134 -92l-28 47v11q56 32 81 67.5t25 82.5v47l-3 390h-53q-50 -6 -77.5 -39.5t-27.5 -89.5t30.5 -96.5t87.5 -60.5l-35 -56q-92 20 -141 75t-49 141q0 98 59.5 151t169.5 53h208z" />
    <glyph glyph-name="periodcentered" unicode="&#xb7;" horiz-adv-x="229" 
d="M116 305q25 0 39 -14.5t14 -39.5q0 -27 -15 -43t-41 -16q-55 0 -55 55q0 26 15.5 42t42.5 16z" />
    <glyph glyph-name="cedilla" unicode="&#xb8;" 
d="M204 -50l34 -20q40 -21 40 -57q0 -31 -24 -50.5t-63 -19.5q-43 0 -77 30l9 47l5 2q29 -31 57 -31q29 0 29 25q0 13 -19 22l-49 29l24 95h54z" />
    <glyph glyph-name="onesuperior" unicode="&#xb9;" horiz-adv-x="265" 
d="M182 697l-3 -241l3 -136h-87l2 126v166l-78 -20l-7 4v68l158 43z" />
    <glyph glyph-name="ordmasculine" unicode="&#xba;" horiz-adv-x="342" 
d="M176 650q68 0 103.5 -40t35.5 -116q0 -80 -38 -123t-110 -43q-68 0 -103.5 40t-35.5 116q0 81 37.5 123.5t110.5 42.5zM172 590q-33 0 -48 -23t-15 -74q0 -56 15 -81.5t48 -25.5t48.5 23t15.5 75q0 56 -15.5 81t-48.5 25z" />
    <glyph glyph-name="guillemetright" unicode="&#xbb;" horiz-adv-x="406" 
d="M212 239v-19l-141 -175l-48 27l-2 11l116 145l-116 145l2 11l48 27zM386 239v-19l-141 -175l-49 27l-1 11l116 145l-116 145l1 11l49 27z" />
    <glyph glyph-name="onequarter" unicode="&#xbc;" horiz-adv-x="721" 
d="M574 640l-468 -731l-45 26l-5 13l469 733l43 -26zM97 554l-78 -20l-7 4v68l158 43l12 -10l-3 -241l3 -136h-87l2 126v166zM685 92l-55 2l4 -88l-5 -6l-68 -3l-5 4l2 94h-108l-57 -3l-6 8v53l163 229h80l-2 -224h56l5 -7zM462 158h97v130h-6z" />
    <glyph glyph-name="onehalf" unicode="&#xbd;" horiz-adv-x="740" 
d="M568 655l6 -15l-468 -731l-45 26l-5 13l469 733zM182 639l-3 -241l3 -136h-87l2 126v166l-78 -20l-7 4v68l158 43zM566 386q49 0 80.5 -24t31.5 -66q0 -29 -19 -63t-64 -89l-59 -75l2 -2h108l66 3l3 -6l-9 -67l-86 3h-166l-27 -1l-4 3v51l96 109q39 46 55.5 70.5
t16.5 44.5q0 17 -12 28t-34 11q-52 0 -96 -49h-10l-14 65q72 54 141 54z" />
    <glyph glyph-name="threequarters" unicode="&#xbe;" horiz-adv-x="759" 
d="M612 640l-468 -731l-45 26l-5 13l469 733l43 -26zM274 374q0 -52 -46 -84.5t-120 -32.5q-37 0 -72 8l-5 60l6 6q37 -10 72 -10q38 0 59.5 14.5t21.5 40.5q0 47 -61 49h-47l-4 5l1 57h30q25 1 45 17t20 39q0 39 -47 39q-34 0 -78 -29h-9l-14 57q56 39 120 39
q52 0 83.5 -24.5t31.5 -65.5q0 -61 -61 -91v-4q74 -20 74 -90zM723 92l-55 2l4 -88l-5 -6l-68 -3l-5 4l2 94h-108l-57 -3l-6 8v53l163 229h80l-2 -224h56l5 -7zM500 158h97v130h-6z" />
    <glyph glyph-name="questiondown" unicode="&#xbf;" horiz-adv-x="335" 
d="M188 358q-25 0 -39.5 14.5t-14.5 39.5q0 27 15.5 43t41.5 16q54 0 54 -55q0 -26 -15.5 -42t-41.5 -16zM265 -193l-11 -6q-125 8 -192.5 49t-67.5 111q0 82 87 135l79 50l2 4l-6 91l71 9l8 -7l9 -117l-5 -10l-94 -53q-59 -33 -59 -87q0 -91 191 -102l7 -10z" />
    <glyph glyph-name="Agrave" unicode="&#xc0;" horiz-adv-x="587" 
d="M396 724l-11 -4q-137 53 -203 82l-4 10l27 61l10 2q68 -40 198 -107zM568 0h-106l-15 72l-28 89l-136 3l-123 -3l-30 -84l-16 -77h-103l229 642h121zM393 245l-92 296h-7l-105 -296l101 -2z" />
    <glyph glyph-name="Aacute" unicode="&#xc1;" horiz-adv-x="587" 
d="M220 723l-17 44q130 67 198 107l10 -2l27 -61l-4 -10q-66 -29 -203 -82zM568 0h-106l-15 72l-28 89l-136 3l-123 -3l-30 -84l-16 -77h-103l229 642h121zM393 245l-92 296h-7l-105 -296l101 -2z" />
    <glyph glyph-name="Acircumflex" unicode="&#xc2;" horiz-adv-x="587" 
d="M179 731l-20 43q66 44 124 96h24q54 -48 124 -96l-19 -43h-11q-79 49 -106 66q-28 -19 -105 -66h-11zM568 0h-106l-15 72l-28 89l-136 3l-123 -3l-30 -84l-16 -77h-103l229 642h121zM393 245l-92 296h-7l-105 -296l101 -2z" />
    <glyph glyph-name="Atilde" unicode="&#xc3;" horiz-adv-x="587" 
d="M160 728l-31 32v9l65 77l11 4q21 -3 81.5 -19.5t73.5 -16.5q4 0 7.5 1t7.5 4t7.5 5.5t8.5 8t8 9t9.5 10.5t10.5 11h10l30 -32v-9l-65 -77l-10 -5q-21 3 -81.5 20t-73.5 17q-5 0 -10.5 -2.5t-11.5 -7.5t-10.5 -10t-13 -14t-13.5 -15h-10zM568 0h-106l-15 72l-28 89l-136 3
l-123 -3l-30 -84l-16 -77h-103l229 642h121zM393 245l-92 296h-7l-105 -296l101 -2z" />
    <glyph glyph-name="Adieresis" unicode="&#xc4;" horiz-adv-x="587" 
d="M212 740q-51 0 -51 52q0 25 14.5 39.5t39.5 14.5q50 0 50 -51q0 -26 -14 -40.5t-39 -14.5zM376 740q-51 0 -51 52q0 25 14.5 39.5t39.5 14.5q50 0 50 -51q0 -26 -14 -40.5t-39 -14.5zM568 0h-106l-15 72l-28 89l-136 3l-123 -3l-30 -84l-16 -77h-103l229 642h121z
M393 245l-92 296h-7l-105 -296l101 -2z" />
    <glyph glyph-name="Aring" unicode="&#xc5;" horiz-adv-x="587" 
d="M292 714q-40 0 -63.5 23t-23.5 64t23.5 64.5t66.5 23.5q42 0 65 -23t23 -62q0 -43 -25 -66.5t-66 -23.5zM293 843q-42 0 -42 -40q0 -44 43 -44t43 42t-44 42zM568 0h-106l-15 72l-28 89l-136 3l-123 -3l-30 -84l-16 -77h-103l229 642h121zM393 245l-92 296h-7l-105 -296
l101 -2z" />
    <glyph glyph-name="AE" unicode="&#xc6;" horiz-adv-x="814" 
d="M801 79l-8 -79h-365l-5 72l-24 172l-227 -56l-57 -111l-27 -77h-105l326 642h402l6 -9l-8 -79l-160 5h-92l29 -213l206 47l8 -7l7 -73l-211 -46l25 -185h109l164 6zM389 323l-31 218h-7l-131 -258z" />
    <glyph glyph-name="Ccedilla" unicode="&#xc7;" horiz-adv-x="519" 
d="M323 79q88 0 160 55l10 -6l-8 -94q-75 -37 -149 -41l-12 -43l34 -20q40 -21 40 -57q0 -31 -24 -50.5t-63 -19.5q-43 0 -77 30l9 47l5 2q29 -31 57 -31q29 0 29 25q0 13 -19 22l-49 29l17 66q-120 11 -184.5 94t-64.5 228q0 160 76.5 247t216.5 87q98 0 173 -44l-19 -91
l-10 -3q-67 52 -148 52q-88 0 -134.5 -59.5t-46.5 -177.5q0 -121 47 -184t134 -63z" />
    <glyph glyph-name="Egrave" unicode="&#xc8;" horiz-adv-x="493" 
d="M379 724l-11 -4q-137 53 -203 82l-4 10l27 61l10 2q68 -40 198 -107zM466 88l6 -9l-7 -79h-379l7 193l-7 449h381l6 -9l-8 -79l-152 4l-122 -1l-3 -187l116 -2l106 3l7 -8l-8 -79l-113 3l-109 -2l-1 -83l3 -118l122 -1z" />
    <glyph glyph-name="Eacute" unicode="&#xc9;" horiz-adv-x="493" 
d="M203 723l-17 44q130 67 198 107l10 -2l27 -61l-4 -10q-66 -29 -203 -82zM466 88l6 -9l-7 -79h-379l7 193l-7 449h381l6 -9l-8 -79l-152 4l-122 -1l-3 -187l116 -2l106 3l7 -8l-8 -79l-113 3l-109 -2l-1 -83l3 -118l122 -1z" />
    <glyph glyph-name="Ecircumflex" unicode="&#xca;" horiz-adv-x="493" 
d="M162 731l-20 43q66 44 124 96h24q54 -48 124 -96l-19 -43h-11q-79 49 -106 66q-28 -19 -105 -66h-11zM466 88l6 -9l-7 -79h-379l7 193l-7 449h381l6 -9l-8 -79l-152 4l-122 -1l-3 -187l116 -2l106 3l7 -8l-8 -79l-113 3l-109 -2l-1 -83l3 -118l122 -1z" />
    <glyph glyph-name="Edieresis" unicode="&#xcb;" horiz-adv-x="493" 
d="M195 740q-51 0 -51 52q0 25 14.5 39.5t39.5 14.5q50 0 50 -51q0 -26 -14 -40.5t-39 -14.5zM359 740q-51 0 -51 52q0 25 14.5 39.5t39.5 14.5q50 0 50 -51q0 -26 -14 -40.5t-39 -14.5zM466 88l6 -9l-7 -79h-379l7 193l-7 449h381l6 -9l-8 -79l-152 4l-122 -1l-3 -187
l116 -2l106 3l7 -8l-8 -79l-113 3l-109 -2l-1 -83l3 -118l122 -1z" />
    <glyph glyph-name="Igrave" unicode="&#xcc;" horiz-adv-x="279" 
d="M49 873l10 2q68 -40 198 -107l-17 -44l-11 -4q-137 53 -203 82l-4 10zM186 202l5 -202h-105l7 193l-7 449h106z" />
    <glyph glyph-name="Iacute" unicode="&#xcd;" horiz-adv-x="279" 
d="M255 872l27 -61l-4 -10q-66 -29 -203 -82l-11 4l-17 44q130 67 198 107zM186 202l5 -202h-105l7 193l-7 449h106z" />
    <glyph glyph-name="Icircumflex" unicode="&#xce;" horiz-adv-x="279" 
d="M23 731l-20 43q66 44 124 96h24q54 -48 124 -96l-19 -43h-11q-79 49 -106 66q-28 -19 -105 -66h-11zM186 202l5 -202h-105l7 193l-7 449h106z" />
    <glyph glyph-name="Eth" unicode="&#xd0;" horiz-adv-x="673" 
d="M110 642l243 4q138 0 212 -78t74 -224q0 -169 -81 -259.5t-232 -90.5q-96 0 -216 6l6 193l-1 94h-97l-5 8l4 63h97zM343 76q189 0 189 245q0 124 -46.5 182.5t-140.5 58.5q-55 0 -131 -4l-3 -200h134l5 -8l-4 -63h-136l-1 -85l3 -119q79 -7 131 -7z" />
    <glyph glyph-name="Ntilde" unicode="&#xd1;" horiz-adv-x="688" 
d="M506 831v-9l-65 -77l-10 -5q-21 3 -81.5 20t-73.5 17q-5 0 -10.5 -2.5t-11.5 -7.5t-10.5 -10t-13 -14t-13.5 -15h-10l-31 32v9l65 77l11 4q21 -3 81.5 -19.5t73.5 -16.5q4 0 7.5 1t7.5 4t7.5 5.5t8.5 8t8 9t9.5 10.5t10.5 11h10zM595 192l4 -192h-111l-301 481h-8
l-1 -266l5 -215h-97l7 190l-5 452h110l302 -481h8l-3 476l97 7z" />
    <glyph glyph-name="Ograve" unicode="&#xd2;" horiz-adv-x="639" 
d="M230 873l10 2q68 -40 198 -107l-17 -44l-11 -4q-137 53 -203 82l-4 10zM329 650q133 0 204.5 -82t71.5 -234q0 -164 -77 -253.5t-218 -89.5q-132 0 -204 84.5t-72 239.5q0 161 76.5 248t218.5 87zM320 565q-92 0 -136 -57.5t-44 -179.5q0 -131 43.5 -192.5t134.5 -61.5
t135.5 58.5t44.5 182.5q0 130 -43.5 190t-134.5 60z" />
    <glyph glyph-name="Oacute" unicode="&#xd3;" horiz-adv-x="639" 
d="M436 872l27 -61l-4 -10q-66 -29 -203 -82l-11 4l-17 44q130 67 198 107zM329 650q133 0 204.5 -82t71.5 -234q0 -164 -77 -253.5t-218 -89.5q-132 0 -204 84.5t-72 239.5q0 161 76.5 248t218.5 87zM320 565q-92 0 -136 -57.5t-44 -179.5q0 -131 43.5 -192.5t134.5 -61.5
t135.5 58.5t44.5 182.5q0 130 -43.5 190t-134.5 60z" />
    <glyph glyph-name="Ocircumflex" unicode="&#xd4;" horiz-adv-x="639" 
d="M204 731l-20 43q66 44 124 96h24q54 -48 124 -96l-19 -43h-11q-79 49 -106 66q-28 -19 -105 -66h-11zM329 650q133 0 204.5 -82t71.5 -234q0 -164 -77 -253.5t-218 -89.5q-132 0 -204 84.5t-72 239.5q0 161 76.5 248t218.5 87zM320 565q-92 0 -136 -57.5t-44 -179.5
q0 -131 43.5 -192.5t134.5 -61.5t135.5 58.5t44.5 182.5q0 130 -43.5 190t-134.5 60z" />
    <glyph glyph-name="Otilde" unicode="&#xd5;" horiz-adv-x="639" 
d="M484 831v-9l-65 -77l-10 -5q-21 3 -81.5 20t-73.5 17q-5 0 -10.5 -2.5t-11.5 -7.5t-10.5 -10t-13 -14t-13.5 -15h-10l-31 32v9l65 77l11 4q21 -3 81.5 -19.5t73.5 -16.5q4 0 7.5 1t7.5 4t7.5 5.5t8.5 8t8 9t9.5 10.5t10.5 11h10zM329 650q133 0 204.5 -82t71.5 -234
q0 -164 -77 -253.5t-218 -89.5q-132 0 -204 84.5t-72 239.5q0 161 76.5 248t218.5 87zM320 565q-92 0 -136 -57.5t-44 -179.5q0 -131 43.5 -192.5t134.5 -61.5t135.5 58.5t44.5 182.5q0 130 -43.5 190t-134.5 60z" />
    <glyph glyph-name="multiply" unicode="&#xd7;" horiz-adv-x="480" 
d="M410 394v-11l-120 -120l120 -120v-10l-48 -41l-122 121l-122 -122l-48 42v9l121 121l-121 120v11l48 40l122 -121l122 121z" />
    <glyph glyph-name="Oslash" unicode="&#xd8;" horiz-adv-x="639" 
d="M534 695l-42 -90q113 -79 113 -271q0 -164 -77 -253.5t-218 -89.5q-55 0 -100 15l-54 -115l-60 24l-5 9l54 115q-111 82 -111 276q0 161 76.5 248t218.5 87q50 0 97 -13l43 92l59 -23zM140 328q0 -136 48 -198l199 425q-27 10 -67 10q-92 0 -136 -57.5t-44 -179.5z
M318 74q91 0 135.5 58.5t44.5 182.5q0 137 -50 198l-201 -427q30 -12 71 -12z" />
    <glyph glyph-name="Ugrave" unicode="&#xd9;" horiz-adv-x="631" 
d="M228 873l10 2q68 -40 198 -107l-17 -44l-11 -4q-137 53 -203 82l-4 10zM560 316l-1 -76q2 -118 -64 -183t-187 -65q-117 0 -179 62.5t-60 177.5l2 89l-2 321h102l-4 -396q-1 -166 148 -166q150 0 149 156l-5 406h104z" />
    <glyph glyph-name="Uacute" unicode="&#xda;" horiz-adv-x="631" 
d="M434 872l27 -61l-4 -10q-66 -29 -203 -82l-11 4l-17 44q130 67 198 107zM560 316l-1 -76q2 -118 -64 -183t-187 -65q-117 0 -179 62.5t-60 177.5l2 89l-2 321h102l-4 -396q-1 -166 148 -166q150 0 149 156l-5 406h104z" />
    <glyph glyph-name="Ucircumflex" unicode="&#xdb;" horiz-adv-x="631" 
d="M202 731l-20 43q66 44 124 96h24q54 -48 124 -96l-19 -43h-11q-79 49 -106 66q-28 -19 -105 -66h-11zM560 316l-1 -76q2 -118 -64 -183t-187 -65q-117 0 -179 62.5t-60 177.5l2 89l-2 321h102l-4 -396q-1 -166 148 -166q150 0 149 156l-5 406h104z" />
    <glyph glyph-name="Udieresis" unicode="&#xdc;" horiz-adv-x="631" 
d="M238 846q50 0 50 -51q0 -26 -14 -40.5t-39 -14.5q-51 0 -51 52q0 25 14.5 39.5t39.5 14.5zM402 846q50 0 50 -51q0 -26 -14 -40.5t-39 -14.5q-51 0 -51 52q0 25 14.5 39.5t39.5 14.5zM560 316l-1 -76q2 -118 -64 -183t-187 -65q-117 0 -179 62.5t-60 177.5l2 89l-2 321
h102l-4 -396q-1 -166 148 -166q150 0 149 156l-5 406h104z" />
    <glyph glyph-name="Thorn" unicode="&#xde;" horiz-adv-x="540" 
d="M191 535l116 1q98 0 150.5 -49t52.5 -144q0 -110 -65 -170t-185 -60l-71 -2l2 -111h-104l5 193l-4 342l-1 107h105zM187 195l101 -3q114 23 114 144q0 114 -124 120l-88 -3l-3 -251v-7z" />
    <glyph glyph-name="germandbls" unicode="&#xdf;" horiz-adv-x="570" 
d="M291 507q89 0 205 -51l4 -14l-123 -148q87 -35 124 -69.5t37 -88.5q0 -68 -50 -105.5t-125 -37.5q-79 0 -145 33l11 93l9 5q59 -53 119 -53q34 0 55.5 18.5t21.5 47.5q0 34 -39.5 58t-132.5 52l-3 15l119 142q-49 26 -96 26q-58 0 -89 -27t-31 -79l-2 -165l4 -159h-97
l4 147l-1 177q0 84 58 133.5t163 49.5z" />
    <glyph glyph-name="agrave" unicode="&#xe0;" horiz-adv-x="519" 
d="M348 560l-10 -1q-102 66 -181 124l-2 10l38 54l10 1q66 -63 171 -148zM489 0h-97l-13 62l-18 55l-112 1l-100 -1l-19 -50l-14 -67h-95l187 501h112zM337 192l-72 219h-7l-81 -219l79 -1z" />
    <glyph glyph-name="aacute" unicode="&#xe1;" horiz-adv-x="519" 
d="M208 560l-26 40q105 85 171 148l10 -1l38 -54l-2 -10q-79 -58 -181 -124zM489 0h-97l-13 62l-18 55l-112 1l-100 -1l-19 -50l-14 -67h-95l187 501h112zM337 192l-72 219h-7l-81 -219l79 -1z" />
    <glyph glyph-name="acircumflex" unicode="&#xe2;" horiz-adv-x="519" 
d="M150 564l-27 40q57 54 130 137h26q72 -83 129 -137l-27 -40h-10q-69 60 -105 100q-35 -37 -105 -100h-11zM489 0h-97l-13 62l-18 55l-112 1l-100 -1l-19 -50l-14 -67h-95l187 501h112zM337 192l-72 219h-7l-81 -219l79 -1z" />
    <glyph glyph-name="atilde" unicode="&#xe3;" horiz-adv-x="519" 
d="M130 587l-31 32v9l65 77l11 4q21 -3 81.5 -19.5t73.5 -16.5q4 0 7.5 1t7.5 4t7.5 5.5t8.5 8t8 9t9.5 10.5t10.5 11h10l30 -32v-9l-65 -77l-10 -5q-21 3 -81.5 20t-73.5 17q-5 0 -10.5 -2.5t-11.5 -7.5t-10.5 -10t-13 -14t-13.5 -15h-10zM489 0h-97l-13 62l-18 55l-112 1
l-100 -1l-19 -50l-14 -67h-95l187 501h112zM337 192l-72 219h-7l-81 -219l79 -1z" />
    <glyph glyph-name="adieresis" unicode="&#xe4;" horiz-adv-x="519" 
d="M182 599q-51 0 -51 52q0 25 14.5 39.5t39.5 14.5q50 0 50 -51q0 -26 -14 -40.5t-39 -14.5zM346 599q-51 0 -51 52q0 25 14.5 39.5t39.5 14.5q50 0 50 -51q0 -26 -14 -40.5t-39 -14.5zM489 0h-97l-13 62l-18 55l-112 1l-100 -1l-19 -50l-14 -67h-95l187 501h112zM337 192
l-72 219h-7l-81 -219l79 -1z" />
    <glyph glyph-name="aring" unicode="&#xe5;" horiz-adv-x="519" 
d="M262 573q-40 0 -63.5 23t-23.5 64t23.5 64.5t66.5 23.5q42 0 65 -23t23 -62q0 -43 -25 -66.5t-66 -23.5zM263 702q-42 0 -42 -40q0 -44 43 -44t43 42t-44 42zM489 0h-97l-13 62l-18 55l-112 1l-100 -1l-19 -50l-14 -67h-95l187 501h112zM337 192l-72 219h-7l-81 -219
l79 -1z" />
    <glyph glyph-name="ae" unicode="&#xe6;" horiz-adv-x="704" 
d="M683 73l-7 -73h-308l-4 60l-17 118l-198 -48l-36 -65l-22 -65h-92l270 501h340l6 -8l-8 -71l-132 6h-76l23 -157l171 39l7 -5l6 -72l-173 -35l18 -123h89l137 5zM336 250l-24 163h-7l-108 -195z" />
    <glyph glyph-name="ccedilla" unicode="&#xe7;" horiz-adv-x="458" 
d="M282 73q72 0 131 41l10 -5l-8 -85q-60 -28 -122 -31l-12 -43l34 -20q40 -21 40 -57q0 -31 -24 -50.5t-63 -19.5q-43 0 -77 30l9 47l5 2q29 -31 57 -31q29 0 29 25q0 13 -19 22l-49 29l17 68q-97 11 -148.5 75.5t-51.5 176.5q0 125 64.5 192.5t183.5 67.5q82 0 143 -32
l-18 -85l-9 -3q-52 41 -125 41q-138 0 -138 -172q0 -90 36 -136.5t105 -46.5z" />
    <glyph glyph-name="egrave" unicode="&#xe8;" horiz-adv-x="444" 
d="M328 560l-10 -1q-102 66 -181 124l-2 10l38 54l10 1q66 -63 171 -148zM405 80l7 -7l-8 -73h-321l4 150l-4 351h324l6 -8l-7 -73l-127 5l-100 -1l-2 -130l96 -1l87 3l5 -8l-6 -74l-94 3l-89 -1l-1 -57l2 -82l93 -1z" />
    <glyph glyph-name="eacute" unicode="&#xe9;" horiz-adv-x="444" 
d="M188 560l-26 40q105 85 171 148l10 -1l38 -54l-2 -10q-79 -58 -181 -124zM405 80l7 -7l-8 -73h-321l4 150l-4 351h324l6 -8l-7 -73l-127 5l-100 -1l-2 -130l96 -1l87 3l5 -8l-6 -74l-94 3l-89 -1l-1 -57l2 -82l93 -1z" />
    <glyph glyph-name="ecircumflex" unicode="&#xea;" horiz-adv-x="444" 
d="M130 564l-27 40q57 54 130 137h26q72 -83 129 -137l-27 -40h-10q-69 60 -105 100q-35 -37 -105 -100h-11zM405 80l7 -7l-8 -73h-321l4 150l-4 351h324l6 -8l-7 -73l-127 5l-100 -1l-2 -130l96 -1l87 3l5 -8l-6 -74l-94 3l-89 -1l-1 -57l2 -82l93 -1z" />
    <glyph glyph-name="edieresis" unicode="&#xeb;" horiz-adv-x="444" 
d="M162 599q-51 0 -51 52q0 25 14.5 39.5t39.5 14.5q50 0 50 -51q0 -26 -14 -40.5t-39 -14.5zM326 599q-51 0 -51 52q0 25 14.5 39.5t39.5 14.5q50 0 50 -51q0 -26 -14 -40.5t-39 -14.5zM405 80l7 -7l-8 -73h-321l4 150l-4 351h324l6 -8l-7 -73l-127 5l-100 -1l-2 -130
l96 -1l87 3l5 -8l-6 -74l-94 3l-89 -1l-1 -57l2 -82l93 -1z" />
    <glyph glyph-name="igrave" unicode="&#xec;" horiz-adv-x="267" 
d="M63 747l10 1q66 -63 171 -148l-26 -40l-10 -1q-102 66 -181 124l-2 10zM175 159l4 -159h-96l4 150l-4 351h97z" />
    <glyph glyph-name="iacute" unicode="&#xed;" horiz-adv-x="267" 
d="M233 747l38 -54l-2 -10q-79 -58 -181 -124l-10 1l-26 40q105 85 171 148zM175 159l4 -159h-96l4 150l-4 351h97z" />
    <glyph glyph-name="icircumflex" unicode="&#xee;" horiz-adv-x="267" 
d="M20 564l-27 40q57 54 130 137h26q72 -83 129 -137l-27 -40h-10q-69 60 -105 100q-35 -37 -105 -100h-11zM175 159l4 -159h-96l4 150l-4 351h97z" />
    <glyph glyph-name="eth" unicode="&#xf0;" horiz-adv-x="589" 
d="M102 501l206 4q115 0 177 -61.5t62 -174.5q0 -133 -68 -203.5t-195 -70.5q-95 0 -182 5l4 150l-1 65h-82l-6 7l4 58h84zM300 70q148 0 148 177q0 93 -36 135.5t-111 42.5q-62 0 -103 -4l-2 -141h119l5 -8l-4 -57h-121l-1 -56l2 -82q75 -7 104 -7z" />
    <glyph glyph-name="ntilde" unicode="&#xf1;" horiz-adv-x="600" 
d="M463 690v-9l-65 -77l-10 -5q-21 3 -81.5 20t-73.5 17q-5 0 -10.5 -2.5t-11.5 -7.5t-10.5 -10t-13 -14t-13.5 -15h-10l-31 32v9l65 77l11 4q21 -3 81.5 -19.5t73.5 -16.5q4 0 7.5 1t7.5 4t7.5 5.5t8.5 8t8 9t9.5 10.5t10.5 11h10zM512 153l3 -153h-104l-237 352h-6
l-1 -182l3 -170h-87l4 147l-3 354h102l237 -352h8l-3 349l89 5z" />
    <glyph glyph-name="ograve" unicode="&#xf2;" horiz-adv-x="558" 
d="M209 747l10 1q66 -63 171 -148l-26 -40l-10 -1q-102 66 -181 124l-2 10zM288 508q110 0 170.5 -64.5t60.5 -181.5q0 -130 -64.5 -200t-183.5 -70q-111 0 -171 66t-60 187q0 126 64.5 194.5t183.5 68.5zM279 429q-72 0 -105.5 -40.5t-33.5 -131.5q0 -101 33 -144t105 -43
q73 0 107 40.5t34 132.5q0 100 -33 143t-107 43z" />
    <glyph glyph-name="oacute" unicode="&#xf3;" horiz-adv-x="558" 
d="M379 747l38 -54l-2 -10q-79 -58 -181 -124l-10 1l-26 40q105 85 171 148zM288 508q110 0 170.5 -64.5t60.5 -181.5q0 -130 -64.5 -200t-183.5 -70q-111 0 -171 66t-60 187q0 126 64.5 194.5t183.5 68.5zM279 429q-72 0 -105.5 -40.5t-33.5 -131.5q0 -101 33 -144t105 -43
q73 0 107 40.5t34 132.5q0 100 -33 143t-107 43z" />
    <glyph glyph-name="ocircumflex" unicode="&#xf4;" horiz-adv-x="558" 
d="M166 564l-27 40q57 54 130 137h26q72 -83 129 -137l-27 -40h-10q-69 60 -105 100q-35 -37 -105 -100h-11zM288 508q110 0 170.5 -64.5t60.5 -181.5q0 -130 -64.5 -200t-183.5 -70q-111 0 -171 66t-60 187q0 126 64.5 194.5t183.5 68.5zM279 429q-72 0 -105.5 -40.5
t-33.5 -131.5q0 -101 33 -144t105 -43q73 0 107 40.5t34 132.5q0 100 -33 143t-107 43z" />
    <glyph glyph-name="otilde" unicode="&#xf5;" horiz-adv-x="558" 
d="M445 690v-9l-65 -77l-10 -5q-21 3 -81.5 20t-73.5 17q-5 0 -10.5 -2.5t-11.5 -7.5t-10.5 -10t-13 -14t-13.5 -15h-10l-31 32v9l65 77l11 4q21 -3 81.5 -19.5t73.5 -16.5q4 0 7.5 1t7.5 4t7.5 5.5t8.5 8t8 9t9.5 10.5t10.5 11h10zM288 508q110 0 170.5 -64.5t60.5 -181.5
q0 -130 -64.5 -200t-183.5 -70q-111 0 -171 66t-60 187q0 126 64.5 194.5t183.5 68.5zM279 429q-72 0 -105.5 -40.5t-33.5 -131.5q0 -101 33 -144t105 -43q73 0 107 40.5t34 132.5q0 100 -33 143t-107 43z" />
    <glyph glyph-name="divide" unicode="&#xf7;" horiz-adv-x="480" 
d="M259 490q23 0 36 -13.5t13 -36.5q0 -25 -14 -39.5t-38 -14.5q-50 0 -50 51q0 24 14 38.5t39 14.5zM461 291l-6 -63h-412l-7 7l6 63h411zM259 145q23 0 36 -13.5t13 -36.5q0 -25 -14 -39.5t-38 -14.5q-50 0 -50 50q0 24 14.5 39t38.5 15z" />
    <glyph glyph-name="oslash" unicode="&#xf8;" horiz-adv-x="558" 
d="M468 539l-37 -71q88 -63 88 -206q0 -130 -64.5 -200t-183.5 -70q-44 0 -82 11l-56 -107l-53 27l-3 10l52 99q-89 64 -89 213q0 126 64.5 194.5t183.5 68.5q44 0 83 -11l41 78l50 -26zM140 257q0 -100 32 -142l160 307q-21 7 -53 7q-72 0 -105.5 -40.5t-33.5 -131.5z
M278 70q73 0 107 40.5t34 132.5q0 97 -32 141l-160 -308q23 -6 51 -6z" />
    <glyph glyph-name="ugrave" unicode="&#xf9;" horiz-adv-x="552" 
d="M206 747l10 1q66 -63 171 -148l-26 -40l-10 -1q-102 66 -181 124l-2 10zM482 246l-1 -74q1 -85 -54 -132t-156 -47q-100 0 -152 46.5t-50 132.5l1 77l-3 252h97l-5 -314q-1 -57 28 -85.5t88 -28.5q58 0 88 28.5t29 85.5l-4 314h97z" />
    <glyph glyph-name="uacute" unicode="&#xfa;" horiz-adv-x="552" 
d="M376 747l38 -54l-2 -10q-79 -58 -181 -124l-10 1l-26 40q105 85 171 148zM482 246l-1 -74q1 -85 -54 -132t-156 -47q-100 0 -152 46.5t-50 132.5l1 77l-3 252h97l-5 -314q-1 -57 28 -85.5t88 -28.5q58 0 88 28.5t29 85.5l-4 314h97z" />
    <glyph glyph-name="ucircumflex" unicode="&#xfb;" horiz-adv-x="552" 
d="M163 564l-27 40q57 54 130 137h26q72 -83 129 -137l-27 -40h-10q-69 60 -105 100q-35 -37 -105 -100h-11zM482 246l-1 -74q1 -85 -54 -132t-156 -47q-100 0 -152 46.5t-50 132.5l1 77l-3 252h97l-5 -314q-1 -57 28 -85.5t88 -28.5q58 0 88 28.5t29 85.5l-4 314h97z" />
    <glyph glyph-name="udieresis" unicode="&#xfc;" horiz-adv-x="552" 
d="M198 705q50 0 50 -51q0 -26 -14 -40.5t-39 -14.5q-51 0 -51 52q0 25 14.5 39.5t39.5 14.5zM362 705q50 0 50 -51q0 -26 -14 -40.5t-39 -14.5q-51 0 -51 52q0 25 14.5 39.5t39.5 14.5zM482 246l-1 -74q1 -85 -54 -132t-156 -47q-100 0 -152 46.5t-50 132.5l1 77l-3 252h97
l-5 -314q-1 -57 28 -85.5t88 -28.5q58 0 88 28.5t29 85.5l-4 314h97z" />
    <glyph glyph-name="thorn" unicode="&#xfe;" horiz-adv-x="483" 
d="M180 421l96 1q83 0 127 -39t44 -114q0 -87 -55.5 -135t-157.5 -48h-56l2 -86h-97l4 150l-4 351h98zM176 161l82 -3q87 20 87 102q0 45 -24.5 66.5t-74.5 23.5l-67 -2z" />
    <glyph glyph-name="ydieresis" unicode="&#xff;" horiz-adv-x="483" 
d="M163 599q-51 0 -51 52q0 25 14.5 39.5t39.5 14.5q50 0 50 -51q0 -26 -14 -40.5t-39 -14.5zM327 599q-51 0 -51 52q0 25 14.5 39.5t39.5 14.5q50 0 50 -51q0 -26 -14 -40.5t-39 -14.5zM278 140l4 -140h-96l4 140l-1 28l-169 333h102l12 -32l99 -199h7l110 195l15 36h100
l-186 -330z" />
    <glyph glyph-name="Amacron" unicode="&#x100;" horiz-adv-x="587" 
d="M155 760l-7 8l5 58h282l7 -7l-5 -59h-282zM568 0h-106l-15 72l-28 89l-136 3l-123 -3l-30 -84l-16 -77h-103l229 642h121zM393 245l-92 296h-7l-105 -296l101 -2z" />
    <glyph glyph-name="amacron" unicode="&#x101;" horiz-adv-x="519" 
d="M125 619l-7 8l5 58h282l7 -7l-5 -59h-282zM489 0h-97l-13 62l-18 55l-112 1l-100 -1l-19 -50l-14 -67h-95l187 501h112zM337 192l-72 219h-7l-81 -219l79 -1z" />
    <glyph glyph-name="Abreve" unicode="&#x102;" horiz-adv-x="587" 
d="M293 723q-102 0 -135 97l26 33h15q24 -58 97 -58q70 0 95 58h15l25 -33q-16 -46 -52 -71.5t-86 -25.5zM568 0h-106l-15 72l-28 89l-136 3l-123 -3l-30 -84l-16 -77h-103l229 642h121zM393 245l-92 296h-7l-105 -296l101 -2z" />
    <glyph glyph-name="abreve" unicode="&#x103;" horiz-adv-x="519" 
d="M263 568q-106 0 -134 119l26 36h15q21 -83 96 -83t96 83h15l25 -36q-29 -119 -139 -119zM489 0h-97l-13 62l-18 55l-112 1l-100 -1l-19 -50l-14 -67h-95l187 501h112zM337 192l-72 219h-7l-81 -219l79 -1z" />
    <glyph glyph-name="Aogonek" unicode="&#x104;" horiz-adv-x="587" 
d="M604 -100l11 -45q-50 -52 -102 -52q-37 0 -59.5 22.5t-22.5 59.5q0 43 52 115h-21l-15 72l-28 89l-136 3l-123 -3l-30 -84l-16 -77h-103l229 642h121l207 -642h-29q-46 -66 -46 -100t33 -34q36 0 72 34h6zM393 245l-92 296h-7l-105 -296l101 -2z" />
    <glyph glyph-name="aogonek" unicode="&#x105;" horiz-adv-x="519" 
d="M516 -94l11 -50q-44 -52 -90 -52q-35 0 -57.5 21.5t-22.5 56.5q0 41 53 118h-18l-13 62l-18 55l-112 1l-100 -1l-19 -50l-14 -67h-95l187 501h112l169 -501h-21q-48 -66 -48 -99t30 -33q31 0 61 38h5zM337 192l-72 219h-7l-81 -219l79 -1z" />
    <glyph glyph-name="Cacute" unicode="&#x106;" horiz-adv-x="519" 
d="M430 872l27 -61l-4 -10q-66 -29 -203 -82l-11 4l-17 44q130 67 198 107zM327 649q98 0 173 -44l-19 -91l-10 -3q-67 52 -148 52q-88 0 -134.5 -59.5t-46.5 -177.5q0 -121 47 -184t134 -63q88 0 160 55l10 -6l-8 -94q-86 -42 -170 -42q-135 0 -208 84t-73 239
q0 160 76.5 247t216.5 87z" />
    <glyph glyph-name="cacute" unicode="&#x107;" horiz-adv-x="458" 
d="M365 747l38 -54l-2 -10q-79 -58 -181 -124l-10 1l-26 40q105 85 171 148zM288 507q82 0 143 -32l-18 -85l-9 -3q-52 41 -125 41q-138 0 -138 -172q0 -90 36 -136.5t105 -46.5q72 0 131 41l10 -5l-8 -85q-67 -31 -138 -31q-115 0 -176 66t-61 188q0 125 64.5 192.5
t183.5 67.5z" />
    <glyph glyph-name="Ccircumflex" unicode="&#x108;" horiz-adv-x="519" 
d="M199 731l-20 43q66 44 124 96h24q54 -48 124 -96l-19 -43h-11q-79 49 -106 66q-28 -19 -105 -66h-11zM327 649q98 0 173 -44l-19 -91l-10 -3q-67 52 -148 52q-88 0 -134.5 -59.5t-46.5 -177.5q0 -121 47 -184t134 -63q88 0 160 55l10 -6l-8 -94q-86 -42 -170 -42
q-135 0 -208 84t-73 239q0 160 76.5 247t216.5 87z" />
    <glyph glyph-name="ccircumflex" unicode="&#x109;" horiz-adv-x="458" 
d="M152 564l-27 40q57 54 130 137h26q72 -83 129 -137l-27 -40h-10q-69 60 -105 100q-35 -37 -105 -100h-11zM288 507q82 0 143 -32l-18 -85l-9 -3q-52 41 -125 41q-138 0 -138 -172q0 -90 36 -136.5t105 -46.5q72 0 131 41l10 -5l-8 -85q-67 -31 -138 -31q-115 0 -176 66
t-61 188q0 125 64.5 192.5t183.5 67.5z" />
    <glyph glyph-name="Cdotaccent" unicode="&#x10a;" horiz-adv-x="519" 
d="M316 857q25 0 39 -14.5t14 -40.5q0 -27 -15 -43t-41 -16t-40.5 15t-14.5 41t15.5 42t42.5 16zM327 649q98 0 173 -44l-19 -91l-10 -3q-67 52 -148 52q-88 0 -134.5 -59.5t-46.5 -177.5q0 -121 47 -184t134 -63q88 0 160 55l10 -6l-8 -94q-86 -42 -170 -42q-135 0 -208 84
t-73 239q0 160 76.5 247t216.5 87z" />
    <glyph glyph-name="cdotaccent" unicode="&#x10b;" horiz-adv-x="458" 
d="M269 716q25 0 39 -14.5t14 -40.5q0 -27 -15 -43t-41 -16t-40.5 15t-14.5 41t15.5 42t42.5 16zM288 507q82 0 143 -32l-18 -85l-9 -3q-52 41 -125 41q-138 0 -138 -172q0 -90 36 -136.5t105 -46.5q72 0 131 41l10 -5l-8 -85q-67 -31 -138 -31q-115 0 -176 66t-61 188
q0 125 64.5 192.5t183.5 67.5z" />
    <glyph glyph-name="Ccaron" unicode="&#x10c;" horiz-adv-x="519" 
d="M432 860l20 -43q-66 -44 -124 -96h-24q-54 48 -124 96l19 43h11q79 -49 106 -66q28 19 105 66h11zM327 649q98 0 173 -44l-19 -91l-10 -3q-67 52 -148 52q-88 0 -134.5 -59.5t-46.5 -177.5q0 -121 47 -184t134 -63q88 0 160 55l10 -6l-8 -94q-86 -42 -170 -42
q-135 0 -208 84t-73 239q0 160 76.5 247t216.5 87z" />
    <glyph glyph-name="ccaron" unicode="&#x10d;" horiz-adv-x="458" 
d="M383 740l27 -40q-57 -54 -130 -137h-26q-72 83 -129 137l27 40h10q69 -60 105 -100q35 37 105 100h11zM288 507q82 0 143 -32l-18 -85l-9 -3q-52 41 -125 41q-138 0 -138 -172q0 -90 36 -136.5t105 -46.5q72 0 131 41l10 -5l-8 -85q-67 -31 -138 -31q-115 0 -176 66
t-61 188q0 125 64.5 192.5t183.5 67.5z" />
    <glyph glyph-name="Dcaron" unicode="&#x10e;" horiz-adv-x="650" 
d="M330 721h-24q-54 48 -124 96l19 43h11q79 -49 106 -66q28 19 105 66h11l20 -43q-66 -44 -124 -96zM87 642l243 4q138 0 212 -78t74 -224q0 -169 -81 -259.5t-233 -90.5q-97 0 -215 6h-1l7 193l-7 449h1zM320 76q189 0 189 245q0 124 -46.5 182.5t-140.5 58.5
q-55 0 -131 -4l-5 -356l3 -119q79 -7 131 -7z" />
    <glyph glyph-name="dcaron" unicode="&#x10f;" horiz-adv-x="567" 
d="M281 563h-26q-72 83 -129 137l27 40h10q69 -60 105 -100q35 37 105 100h11l27 -40q-57 -54 -130 -137zM83 501l206 4q115 0 176.5 -61t61.5 -175q0 -133 -68 -203.5t-194 -70.5q-95 0 -182 5l4 150zM281 70q147 0 147 177q0 93 -36 135.5t-110 42.5q-62 0 -103 -4
l-4 -262l2 -82q75 -7 104 -7z" />
    <glyph glyph-name="Dcroat" unicode="&#x110;" horiz-adv-x="673" 
d="M110 642l243 4q138 0 212 -78t74 -224q0 -169 -81 -259.5t-232 -90.5q-96 0 -216 6l6 193l-1 94h-97l-5 8l4 63h97zM343 76q189 0 189 245q0 124 -46.5 182.5t-140.5 58.5q-55 0 -131 -4l-3 -200h134l5 -8l-4 -63h-136l-1 -85l3 -119q79 -7 131 -7z" />
    <glyph glyph-name="dcroat" unicode="&#x111;" horiz-adv-x="567" 
d="M128 619l-7 8l5 58h282l7 -7l-5 -59h-282zM83 501l206 4q115 0 176.5 -61t61.5 -175q0 -133 -68 -203.5t-194 -70.5q-95 0 -182 5l4 150zM281 70q147 0 147 177q0 93 -36 135.5t-110 42.5q-62 0 -103 -4l-4 -262l2 -82q75 -7 104 -7z" />
    <glyph glyph-name="Emacron" unicode="&#x112;" horiz-adv-x="493" 
d="M138 760l-7 8l5 58h282l7 -7l-5 -59h-282zM466 88l6 -9l-7 -79h-379l7 193l-7 449h381l6 -9l-8 -79l-152 4l-122 -1l-3 -187l116 -2l106 3l7 -8l-8 -79l-113 3l-109 -2l-1 -83l3 -118l122 -1z" />
    <glyph glyph-name="emacron" unicode="&#x113;" horiz-adv-x="444" 
d="M105 619l-7 8l5 58h282l7 -7l-5 -59h-282zM405 80l7 -7l-8 -73h-321l4 150l-4 351h324l6 -8l-7 -73l-127 5l-100 -1l-2 -130l96 -1l87 3l5 -8l-6 -74l-94 3l-89 -1l-1 -57l2 -82l93 -1z" />
    <glyph glyph-name="Ebreve" unicode="&#x114;" horiz-adv-x="493" 
d="M276 723q-102 0 -135 97l26 33h15q24 -58 97 -58q70 0 95 58h15l25 -33q-16 -46 -52 -71.5t-86 -25.5zM466 88l6 -9l-7 -79h-379l7 193l-7 449h381l6 -9l-8 -79l-152 4l-122 -1l-3 -187l116 -2l106 3l7 -8l-8 -79l-113 3l-109 -2l-1 -83l3 -118l122 -1z" />
    <glyph glyph-name="ebreve" unicode="&#x115;" horiz-adv-x="444" 
d="M243 568q-106 0 -134 119l26 36h15q21 -83 96 -83t96 83h15l25 -36q-29 -119 -139 -119zM405 80l7 -7l-8 -73h-321l4 150l-4 351h324l6 -8l-7 -73l-127 5l-100 -1l-2 -130l96 -1l87 3l5 -8l-6 -74l-94 3l-89 -1l-1 -57l2 -82l93 -1z" />
    <glyph glyph-name="Edotaccent" unicode="&#x116;" horiz-adv-x="493" 
d="M277 743q-26 0 -40.5 15t-14.5 41t15.5 42t42.5 16q25 0 39 -14.5t14 -40.5q0 -27 -15 -43t-41 -16zM466 88l6 -9l-7 -79h-379l7 193l-7 449h381l6 -9l-8 -79l-152 4l-122 -1l-3 -187l116 -2l106 3l7 -8l-8 -79l-113 3l-109 -2l-1 -83l3 -118l122 -1z" />
    <glyph glyph-name="edotaccent" unicode="&#x117;" horiz-adv-x="444" 
d="M244 602q-26 0 -40.5 15t-14.5 41t15.5 42t42.5 16q25 0 39 -14.5t14 -40.5q0 -27 -15 -43t-41 -16zM405 80l7 -7l-8 -73h-321l4 150l-4 351h324l6 -8l-7 -73l-127 5l-100 -1l-2 -130l96 -1l87 3l5 -8l-6 -74l-94 3l-89 -1l-1 -57l2 -82l93 -1z" />
    <glyph glyph-name="Eogonek" unicode="&#x118;" horiz-adv-x="493" 
d="M468 -99l11 -47q-53 -51 -100 -51q-39 0 -62 23.5t-23 59.5q0 38 27 78l25 36h-260l7 193l-7 449h381l6 -9l-8 -79l-152 4l-122 -1l-3 -187l116 -2l106 3l7 -8l-8 -79l-113 3l-109 -2l-1 -83l3 -118l122 -1l155 5l6 -9l-7 -79h-61l-31 -47q-17 -26 -17 -48q0 -17 10 -28
t29 -11q32 0 67 35h6z" />
    <glyph glyph-name="eogonek" unicode="&#x119;" horiz-adv-x="444" 
d="M338 0l-32 -49q-17 -26 -17 -48q0 -17 10 -28t29 -11q32 0 67 35h6l11 -47q-52 -51 -100 -51q-38 0 -61.5 23.5t-23.5 59.5q0 38 27 78l27 38h-198l4 150l-4 351h324l6 -8l-7 -73l-127 5l-100 -1l-2 -130l96 -1l87 3l5 -8l-6 -74l-94 3l-89 -1l-1 -57l2 -82l93 -1l135 4
l7 -7l-8 -73h-66z" />
    <glyph glyph-name="Ecaron" unicode="&#x11a;" horiz-adv-x="493" 
d="M291 721h-24q-54 48 -124 96l19 43h11q79 -49 106 -66q28 19 105 66h11l20 -43q-66 -44 -124 -96zM466 88l6 -9l-7 -79h-379l7 193l-7 449h381l6 -9l-8 -79l-152 4l-122 -1l-3 -187l116 -2l106 3l7 -8l-8 -79l-113 3l-109 -2l-1 -83l3 -118l122 -1z" />
    <glyph glyph-name="ecaron" unicode="&#x11b;" horiz-adv-x="444" 
d="M258 563h-26q-72 83 -129 137l27 40h10q69 -60 105 -100q35 37 105 100h11l27 -40q-57 -54 -130 -137zM405 80l7 -7l-8 -73h-321l4 150l-4 351h324l6 -8l-7 -73l-127 5l-100 -1l-2 -130l96 -1l87 3l5 -8l-6 -74l-94 3l-89 -1l-1 -57l2 -82l93 -1z" />
    <glyph glyph-name="Gcircumflex" unicode="&#x11c;" horiz-adv-x="599" 
d="M210 731l-20 43q66 44 124 96h24q54 -48 124 -96l-19 -43h-11q-79 49 -106 66q-28 -19 -105 -66h-11zM356 649q101 0 188 -43l-21 -96l-11 -1q-92 54 -173 54q-100 0 -149 -60.5t-49 -190.5q0 -124 46 -179.5t146 -55.5q44 0 111 20l3 65l-3 96l97 7l-2 -87l3 -147
q-124 -39 -215 -39q-147 0 -220 81.5t-73 233.5q0 166 83.5 254t238.5 88z" />
    <glyph glyph-name="gcircumflex" unicode="&#x11d;" horiz-adv-x="523" 
d="M163 564l-27 40q57 54 130 137h26q72 -83 129 -137l-27 -40h-10q-69 60 -105 100q-35 -37 -105 -100h-11zM310 507q78 0 158 -31l-29 -91h-10q-69 43 -136 43q-78 0 -115 -43.5t-37 -140.5q0 -94 35 -133.5t115 -39.5q38 0 87 18v42l-1 75l88 6l-1 -66v-122
q-102 -31 -178 -31q-122 0 -184 64t-62 183q0 129 70.5 198t199.5 69z" />
    <glyph glyph-name="Gbreve" unicode="&#x11e;" horiz-adv-x="599" 
d="M437 853l25 -33q-16 -46 -52 -71.5t-86 -25.5q-102 0 -135 97l26 33h15q24 -58 97 -58q70 0 95 58h15zM356 649q101 0 188 -43l-21 -96l-11 -1q-92 54 -173 54q-100 0 -149 -60.5t-49 -190.5q0 -124 46 -179.5t146 -55.5q44 0 111 20l3 65l-3 96l97 7l-2 -87l3 -147
q-124 -39 -215 -39q-147 0 -220 81.5t-73 233.5q0 166 83.5 254t238.5 88z" />
    <glyph glyph-name="gbreve" unicode="&#x11f;" horiz-adv-x="523" 
d="M390 723l25 -36q-29 -119 -139 -119q-106 0 -134 119l26 36h15q21 -83 96 -83t96 83h15zM310 507q78 0 158 -31l-29 -91h-10q-69 43 -136 43q-78 0 -115 -43.5t-37 -140.5q0 -94 35 -133.5t115 -39.5q38 0 87 18v42l-1 75l88 6l-1 -66v-122q-102 -31 -178 -31
q-122 0 -184 64t-62 183q0 129 70.5 198t199.5 69z" />
    <glyph glyph-name="Gdotaccent" unicode="&#x120;" horiz-adv-x="599" 
d="M328 857q25 0 39 -14.5t14 -40.5q0 -27 -15 -43t-41 -16t-40.5 15t-14.5 41t15.5 42t42.5 16zM356 649q101 0 188 -43l-21 -96l-11 -1q-92 54 -173 54q-100 0 -149 -60.5t-49 -190.5q0 -124 46 -179.5t146 -55.5q44 0 111 20l3 65l-3 96l97 7l-2 -87l3 -147
q-124 -39 -215 -39q-147 0 -220 81.5t-73 233.5q0 166 83.5 254t238.5 88z" />
    <glyph glyph-name="gdotaccent" unicode="&#x121;" horiz-adv-x="523" 
d="M280 716q25 0 39 -14.5t14 -40.5q0 -27 -15 -43t-41 -16t-40.5 15t-14.5 41t15.5 42t42.5 16zM310 507q78 0 158 -31l-29 -91h-10q-69 43 -136 43q-78 0 -115 -43.5t-37 -140.5q0 -94 35 -133.5t115 -39.5q38 0 87 18v42l-1 75l88 6l-1 -66v-122q-102 -31 -178 -31
q-122 0 -184 64t-62 183q0 129 70.5 198t199.5 69z" />
    <glyph glyph-name="Gcommaaccent" unicode="&#x122;" horiz-adv-x="599" 
d="M356 649q101 0 188 -43l-21 -96l-11 -1q-92 54 -173 54q-100 0 -149 -60.5t-49 -190.5q0 -124 46 -179.5t146 -55.5q44 0 111 20l3 65l-3 96l97 7l-2 -87l3 -147q-124 -39 -215 -39q-147 0 -220 81.5t-73 233.5q0 166 83.5 254t238.5 88zM332 -49q39 -28 39 -68
q0 -69 -97 -138l-31 28v7q51 42 51 84q0 28 -29 49v8q30 20 67 30z" />
    <glyph glyph-name="gcommaaccent" unicode="&#x123;" horiz-adv-x="523" 
d="M310 507q78 0 158 -31l-29 -91h-10q-69 43 -136 43q-78 0 -115 -43.5t-37 -140.5q0 -94 35 -133.5t115 -39.5q38 0 87 18v42l-1 75l88 6l-1 -66v-122q-102 -31 -178 -31q-122 0 -184 64t-62 183q0 129 70.5 198t199.5 69zM293 -49q39 -28 39 -68q0 -69 -97 -138l-31 28v7
q51 42 51 84q0 28 -29 49v8q30 20 67 30z" />
    <glyph glyph-name="Hcircumflex" unicode="&#x124;" horiz-adv-x="688" 
d="M226 731l-20 43q66 44 124 96h24q54 -48 124 -96l-19 -43h-11q-79 49 -106 66q-28 -19 -105 -66h-11zM596 202l4 -202h-104l7 193l-1 87l-166 3l-149 -3l-1 -78l5 -202h-105l7 193l-7 449h106l-4 -275l156 -3l156 3l-4 275h106z" />
    <glyph glyph-name="hcircumflex" unicode="&#x125;" horiz-adv-x="600" 
d="M187 564l-27 40q57 54 130 137h26q72 -83 129 -137l-27 -40h-10q-69 60 -105 100q-35 -37 -105 -100h-11zM513 159l4 -159h-96l3 150l-1 60l-129 1l-118 -2l-1 -50l4 -159h-96l4 150l-4 351h97l-3 -208l124 -2l122 1l-2 209h97z" />
    <glyph glyph-name="Hbar" unicode="&#x126;" horiz-adv-x="720" 
d="M613 476l-3 -274l4 -202h-104l7 193l-1 87l-166 3l-149 -3l-1 -78l4 -202h-104l7 193l-4 283h-63l-5 6l4 60h63l-2 100h106l-1 -100h307l-2 100h105l-1 -100h67l5 -6l-4 -60h-69zM512 476h-309l-1 -109l156 -3l156 3z" />
    <glyph glyph-name="hbar" unicode="&#x127;" horiz-adv-x="625" 
d="M524 364l-2 -205l3 -159h-96l4 150l-1 60l-129 1l-118 -2l-1 -50l3 -159h-96l4 150l-2 214h-51l-5 7l5 51h50l-1 79h98l-1 -79h242l-1 79h97l-1 -79h57l5 -5l-5 -53h-58zM431 364h-244l-1 -71l123 -2l122 1v72z" />
    <glyph glyph-name="Imacron" unicode="&#x12a;" horiz-adv-x="279" 
d="M255 819l-5 -59h-220l-7 8l5 58h220zM186 202l5 -202h-105l7 193l-7 449h106z" />
    <glyph glyph-name="imacron" unicode="&#x12b;" horiz-adv-x="267" 
d="M251 678l-5 -59h-220l-7 8l5 58h220zM175 159l4 -159h-96l4 150l-4 351h97z" />
    <glyph glyph-name="Ibreve" unicode="&#x12c;" horiz-adv-x="279" 
d="M250 853l25 -33q-16 -46 -52 -71.5t-86 -25.5q-102 0 -135 97l26 33h15q24 -58 97 -58q70 0 95 58h15zM186 202l5 -202h-105l7 193l-7 449h106z" />
    <glyph glyph-name="ibreve" unicode="&#x12d;" horiz-adv-x="267" 
d="M247 723l25 -36q-29 -119 -139 -119q-106 0 -134 119l26 36h15q21 -83 96 -83t96 83h15zM175 159l4 -159h-96l4 150l-4 351h97z" />
    <glyph glyph-name="Iogonek" unicode="&#x12e;" horiz-adv-x="279" 
d="M185 -111l9 -54q-37 -32 -77 -32q-37 0 -59 22.5t-22 59.5q0 43 50 115l7 193l-7 449h106l-6 -440l5 -202h-46q-47 -67 -47 -99q0 -35 32 -35q24 0 47 23h8z" />
    <glyph glyph-name="iogonek" unicode="&#x12f;" horiz-adv-x="267" 
d="M181 -111l9 -54q-37 -32 -77 -32q-37 0 -59 22.5t-22 59.5q0 42 51 115l4 150l-4 351h97l-5 -342l4 -159h-37q-48 -69 -48 -99q0 -35 33 -35q23 0 46 23h8z" />
    <glyph glyph-name="Idotaccent" unicode="&#x130;" horiz-adv-x="279" 
d="M141 857q25 0 39 -14.5t14 -40.5q0 -27 -15 -43t-41 -16t-40.5 15t-14.5 41t15.5 42t42.5 16zM186 202l5 -202h-105l7 193l-7 449h106z" />
    <glyph glyph-name="dotlessi" unicode="&#x131;" horiz-adv-x="267" 
d="M175 159l4 -159h-96l4 150l-4 351h97z" />
    <glyph glyph-name="IJ" unicode="&#x132;" horiz-adv-x="601" 
d="M192 642l-6 -440l5 -202h-105l7 193l-7 449h106zM508 212l2 -93q0 -78 -40.5 -128.5t-140.5 -94.5l-36 57v11q67 35 94.5 68.5t27.5 86.5v83l-4 360l-117 -1l-9 8l6 73h223z" />
    <glyph glyph-name="ij" unicode="&#x133;" horiz-adv-x="568" 
d="M180 501l-5 -342l4 -159h-96l4 150l-4 351h97zM481 501l-4 -336v-71q0 -64 -30.5 -103.5t-107.5 -73.5l-35 49v9q46 24 65 51t19 67v62l-2 274l-92 -1l-6 6l6 67h187z" />
    <glyph glyph-name="Jcircumflex" unicode="&#x134;" horiz-adv-x="321" 
d="M128 870h24q54 -48 124 -96l-19 -43h-11q-79 49 -106 66q-28 -19 -105 -66h-11l-20 43q66 44 124 96zM235 642l-6 -430l2 -93q0 -78 -40.5 -128.5t-140.5 -94.5l-36 57v11q67 35 94.5 68.5t27.5 86.5v83l-4 360l-117 -1l-9 8l6 73h223z" />
    <glyph glyph-name="jcircumflex" unicode="&#x135;" horiz-adv-x="300" 
d="M107 741h26q72 -83 129 -137l-27 -40h-10q-69 60 -105 100q-35 -37 -105 -100h-11l-27 40q57 54 130 137zM214 501l-4 -336v-71q0 -64 -30.5 -103.5t-107.5 -73.5l-35 49v9q46 24 65 51t19 67v62l-2 274l-92 -1l-6 6l6 67h187z" />
    <glyph glyph-name="Kcommaaccent" unicode="&#x136;" horiz-adv-x="562" 
d="M185 202l5 -202h-105l7 193l-7 449h106zM547 642l-246 -302q122 -164 265 -318l-2 -12q-47 -13 -100 -19l-11 6q-155 187 -259 338v6l201 243l38 58h114zM318 -49q39 -28 39 -68q0 -69 -97 -138l-31 28v7q51 42 51 84q0 28 -29 49v8q30 20 67 30z" />
    <glyph glyph-name="kcommaaccent" unicode="&#x137;" horiz-adv-x="503" 
d="M481 502l-200 -236q95 -123 213 -244l-2 -14q-47 -12 -94 -17l-14 6q-125 150 -206 263v7l161 187l32 47zM175 159l4 -159h-96l4 150l-4 351h97zM269 -49q39 -28 39 -68q0 -69 -97 -138l-31 28v7q51 42 51 84q0 28 -29 49v8q30 20 67 30z" />
    <glyph glyph-name="kgreenlandic" unicode="&#x138;" horiz-adv-x="503" 
d="M481 502l-200 -236q95 -123 213 -244l-2 -14q-47 -12 -94 -17l-14 6q-125 150 -206 263v7l161 187l32 47zM175 159l4 -159h-96l4 150l-4 351h97z" />
    <glyph glyph-name="Lacute" unicode="&#x139;" horiz-adv-x="423" 
d="M133 723l-17 44q130 67 198 107l10 -2l27 -61l-4 -10q-66 -29 -203 -82zM421 77l-8 -77h-330l7 193l-7 449h106l-6 -440l2 -116h229z" />
    <glyph glyph-name="lacute" unicode="&#x13a;" horiz-adv-x="382" 
d="M114 560l-26 40q105 85 171 148l10 -1l38 -54l-2 -10q-79 -58 -181 -124zM365 72l-7 -72h-278l4 150l-4 351h98l-5 -342l1 -79h185z" />
    <glyph glyph-name="Lcommaaccent" unicode="&#x13b;" horiz-adv-x="423" 
d="M421 77l-8 -77h-330l7 193l-7 449h106l-6 -440l2 -116h229zM261 -49q39 -28 39 -68q0 -69 -97 -138l-31 28v7q51 42 51 84q0 28 -29 49v8q30 20 67 30z" />
    <glyph glyph-name="lcommaaccent" unicode="&#x13c;" horiz-adv-x="382" 
d="M365 72l-7 -72h-278l4 150l-4 351h98l-5 -342l1 -79h185zM218 -49q39 -28 39 -68q0 -69 -97 -138l-31 28v7q51 42 51 84q0 28 -29 49v8q30 20 67 30z" />
    <glyph glyph-name="Lcaron" unicode="&#x13d;" horiz-adv-x="440" 
d="M421 77l-8 -77h-330l7 193l-7 449h106l-6 -440l2 -116h229zM326 387l-8 7l2 187l73 5l7 -8l-27 -184z" />
    <glyph glyph-name="lcaron" unicode="&#x13e;" horiz-adv-x="399" 
d="M359 80l6 -8l-7 -72h-278l4 150l-4 351h98l-5 -342l1 -79h185zM293 283l-7 7l1 187l73 4l7 -7l-27 -184z" />
    <glyph glyph-name="Ldot" unicode="&#x13f;" horiz-adv-x="431" 
d="M421 77l-8 -77h-330l7 193l-7 449h106l-6 -440l2 -116h229zM348 325q-26 0 -40.5 15t-14.5 41t15.5 42t42.5 16q25 0 39 -14.5t14 -40.5q0 -27 -15 -43t-41 -16z" />
    <glyph glyph-name="ldot" unicode="&#x140;" horiz-adv-x="399" 
d="M365 72l-7 -72h-278l4 150l-4 351h98l-5 -342l1 -79h185zM301 241q-26 0 -40.5 15t-14.5 41t15.5 42t42.5 16q25 0 39 -14.5t14 -40.5q0 -27 -15 -43t-41 -16z" />
    <glyph glyph-name="Lslash" unicode="&#x141;" horiz-adv-x="437" 
d="M436 77l-8 -77h-330l7 193l-1 79l-69 -36l-11 6l-18 61l96 50l-4 289h105l-3 -237l118 61l11 -5l19 -61l-149 -78l-1 -120l2 -116h229z" />
    <glyph glyph-name="lslash" unicode="&#x142;" horiz-adv-x="401" 
d="M380 72l-6 -72h-278l4 150l-1 57l-58 -27l-10 6l-15 55l83 38l-3 222h97l-3 -181l94 43l8 -4l16 -56l-119 -55l-1 -89l2 -79h185z" />
    <glyph glyph-name="Nacute" unicode="&#x143;" horiz-adv-x="688" 
d="M458 872l27 -61l-4 -10q-66 -29 -203 -82l-11 4l-17 44q130 67 198 107zM595 192l4 -192h-111l-301 481h-8l-1 -266l5 -215h-97l7 190l-5 452h110l302 -481h8l-3 476l97 7z" />
    <glyph glyph-name="nacute" unicode="&#x144;" horiz-adv-x="600" 
d="M396 747l38 -54l-2 -10q-79 -58 -181 -124l-10 1l-26 40q105 85 171 148zM512 153l3 -153h-104l-237 352h-6l-1 -182l3 -170h-87l4 147l-3 354h102l237 -352h8l-3 349l89 5z" />
    <glyph glyph-name="Ncommaaccent" unicode="&#x145;" horiz-adv-x="688" 
d="M595 192l4 -192h-111l-301 481h-8l-1 -266l5 -215h-97l7 190l-5 452h110l302 -481h8l-3 476l97 7zM368 -49q39 -28 39 -68q0 -69 -97 -138l-31 28v7q51 42 51 84q0 28 -29 49v8q30 20 67 30z" />
    <glyph glyph-name="ncommaaccent" unicode="&#x146;" horiz-adv-x="600" 
d="M512 153l3 -153h-104l-237 352h-6l-1 -182l3 -170h-87l4 147l-3 354h102l237 -352h8l-3 349l89 5zM324 -49q39 -28 39 -68q0 -69 -97 -138l-31 28v7q51 42 51 84q0 28 -29 49v8q30 20 67 30z" />
    <glyph glyph-name="Ncaron" unicode="&#x147;" horiz-adv-x="688" 
d="M459 860l20 -43q-66 -44 -124 -96h-24q-54 48 -124 96l19 43h11q79 -49 106 -66q28 19 105 66h11zM595 192l4 -192h-111l-301 481h-8l-1 -266l5 -215h-97l7 190l-5 452h110l302 -481h8l-3 476l97 7z" />
    <glyph glyph-name="ncaron" unicode="&#x148;" horiz-adv-x="600" 
d="M415 740l27 -40q-57 -54 -130 -137h-26q-72 83 -129 137l27 40h10q69 -60 105 -100q35 37 105 100h11zM512 153l3 -153h-104l-237 352h-6l-1 -182l3 -170h-87l4 147l-3 354h102l237 -352h8l-3 349l89 5z" />
    <glyph glyph-name="Eng" unicode="&#x14a;" horiz-adv-x="688" 
d="M595 192l2 -135q0 -78 -40.5 -128.5t-140.5 -93.5l-36 56v11q89 47 112 99l-305 480h-8l-1 -266l5 -215h-97l7 190l-5 452h110l302 -476h8l-3 471l97 7z" />
    <glyph glyph-name="eng" unicode="&#x14b;" horiz-adv-x="600" 
d="M512 153l2 -114q0 -61 -27 -98t-96 -70l-32 40v10q53 36 61 77l-246 354h-7v-182l3 -170h-87l4 147l-3 354h102l237 -342h8l-3 339l89 5z" />
    <glyph glyph-name="Omacron" unicode="&#x14c;" horiz-adv-x="639" 
d="M467 819l-5 -59h-282l-7 8l5 58h282zM329 650q133 0 204.5 -82t71.5 -234q0 -164 -77 -253.5t-218 -89.5q-132 0 -204 84.5t-72 239.5q0 161 76.5 248t218.5 87zM320 565q-92 0 -136 -57.5t-44 -179.5q0 -131 43.5 -192.5t134.5 -61.5t135.5 58.5t44.5 182.5
q0 130 -43.5 190t-134.5 60z" />
    <glyph glyph-name="omacron" unicode="&#x14d;" horiz-adv-x="558" 
d="M428 678l-5 -59h-282l-7 8l5 58h282zM288 508q110 0 170.5 -64.5t60.5 -181.5q0 -130 -64.5 -200t-183.5 -70q-111 0 -171 66t-60 187q0 126 64.5 194.5t183.5 68.5zM279 429q-72 0 -105.5 -40.5t-33.5 -131.5q0 -101 33 -144t105 -43q73 0 107 40.5t34 132.5
q0 100 -33 143t-107 43z" />
    <glyph glyph-name="Obreve" unicode="&#x14e;" horiz-adv-x="639" 
d="M431 853l25 -33q-16 -46 -52 -71.5t-86 -25.5q-102 0 -135 97l26 33h15q24 -58 97 -58q70 0 95 58h15zM329 650q133 0 204.5 -82t71.5 -234q0 -164 -77 -253.5t-218 -89.5q-132 0 -204 84.5t-72 239.5q0 161 76.5 248t218.5 87zM320 565q-92 0 -136 -57.5t-44 -179.5
q0 -131 43.5 -192.5t134.5 -61.5t135.5 58.5t44.5 182.5q0 130 -43.5 190t-134.5 60z" />
    <glyph glyph-name="obreve" unicode="&#x14f;" horiz-adv-x="558" 
d="M393 723l25 -36q-29 -119 -139 -119q-106 0 -134 119l26 36h15q21 -83 96 -83t96 83h15zM288 508q110 0 170.5 -64.5t60.5 -181.5q0 -130 -64.5 -200t-183.5 -70q-111 0 -171 66t-60 187q0 126 64.5 194.5t183.5 68.5zM279 429q-72 0 -105.5 -40.5t-33.5 -131.5
q0 -101 33 -144t105 -43q73 0 107 40.5t34 132.5q0 100 -33 143t-107 43z" />
    <glyph glyph-name="Ohungarumlaut" unicode="&#x150;" horiz-adv-x="639" 
d="M222 717l-33 28q72 81 108 126l9 2l46 -32l1 -10q-78 -74 -121 -112zM370 717l-33 28l108 126l7 2l48 -32l1 -10q-3 -3 -121 -112zM329 650q133 0 204.5 -82t71.5 -234q0 -164 -77 -253.5t-218 -89.5q-132 0 -204 84.5t-72 239.5q0 161 76.5 248t218.5 87zM320 565
q-92 0 -136 -57.5t-44 -179.5q0 -131 43.5 -192.5t134.5 -61.5t135.5 58.5t44.5 182.5q0 130 -43.5 190t-134.5 60z" />
    <glyph glyph-name="ohungarumlaut" unicode="&#x151;" horiz-adv-x="558" 
d="M182 559l-32 29q60 69 130 161l9 1l47 -34v-9q-59 -62 -144 -146zM328 559l-32 29q59 67 131 161l8 1l47 -34l1 -9q-47 -50 -145 -146zM288 508q110 0 170.5 -64.5t60.5 -181.5q0 -130 -64.5 -200t-183.5 -70q-111 0 -171 66t-60 187q0 126 64.5 194.5t183.5 68.5z
M279 429q-72 0 -105.5 -40.5t-33.5 -131.5q0 -101 33 -144t105 -43q73 0 107 40.5t34 132.5q0 100 -33 143t-107 43z" />
    <glyph glyph-name="OE" unicode="&#x152;" horiz-adv-x="858" 
d="M354 654q33 0 90 -6t85 -6h302l7 -9l-8 -79l-146 4h-129l-2 -188l111 -2l112 3l6 -8l-8 -79l-117 3l-106 -2v-87l1 -114l120 -1l158 5l7 -9l-8 -79h-300q-30 1 -95.5 -5.5t-97.5 -6.5q-144 0 -223 86t-79 242q0 161 84 249.5t236 88.5zM345 569q-205 0 -205 -247
q0 -127 50.5 -189t155.5 -62q59 0 89 10q23 10 23 39l-4 396q-1 33 -14 40q-24 13 -95 13z" />
    <glyph glyph-name="oe" unicode="&#x153;" horiz-adv-x="741" 
d="M306 510q29 0 77.5 -4.5t70.5 -4.5h254l6 -8l-7 -73l-123 5h-105v-131l90 -1l92 3l5 -8l-6 -74l-97 3l-86 -1v-140h97l132 4l6 -7l-8 -73h-250q-24 0 -79 -4.5t-84 -4.5q-120 0 -185.5 66.5t-65.5 187.5q0 126 70 195.5t196 69.5zM298 428q-82 0 -120 -41.5t-38 -133.5
q0 -96 38 -140.5t121 -44.5q52 0 72 11q16 6 16 31l-3 274q0 28 -10 33q-24 11 -76 11z" />
    <glyph glyph-name="Racute" unicode="&#x154;" horiz-adv-x="570" 
d="M228 701l-26 40q105 85 171 148l10 -1l38 -54l-2 -10q-79 -58 -181 -124zM380 257q68 -109 161 -233l-1 -12q-48 -16 -99 -21l-12 8q-83 136 -134 230h-109v-27l5 -202h-105l7 193l-7 449l218 1q97 0 150 -48.5t53 -138.5q0 -64 -33.5 -115.5t-93.5 -83.5zM188 313
l110 -3q101 31 101 138q0 109 -123 114l-85 -3z" />
    <glyph glyph-name="racute" unicode="&#x155;" horiz-adv-x="508" 
d="M181 560l-26 40q105 85 171 148l10 -1l38 -54l-2 -10q-79 -58 -181 -124zM342 200q58 -87 131 -177l-1 -12q-52 -15 -91 -18l-15 9q-73 118 -103 172l-88 -1v-14l4 -159h-96l4 150l-4 351l190 1q81 0 125.5 -38.5t44.5 -108.5q0 -101 -101 -155zM176 250l87 -3
q79 23 79 99q0 78 -97 82l-66 -2z" />
    <glyph glyph-name="Rcommaaccent" unicode="&#x156;" horiz-adv-x="570" 
d="M380 257q68 -109 161 -233l-1 -12q-48 -16 -99 -21l-12 8q-83 136 -134 230h-109v-27l5 -202h-105l7 193l-7 449l218 1q97 0 150 -48.5t53 -138.5q0 -64 -33.5 -115.5t-93.5 -83.5zM188 313l110 -3q101 31 101 138q0 109 -123 114l-85 -3zM312 -49q39 -28 39 -68
q0 -69 -97 -138l-31 28v7q51 42 51 84q0 28 -29 49v8q30 20 67 30z" />
    <glyph glyph-name="rcommaaccent" unicode="&#x157;" horiz-adv-x="508" 
d="M342 200q58 -87 131 -177l-1 -12q-52 -15 -91 -18l-15 9q-73 118 -103 172l-88 -1v-14l4 -159h-96l4 150l-4 351l190 1q81 0 125.5 -38.5t44.5 -108.5q0 -101 -101 -155zM176 250l87 -3q79 23 79 99q0 78 -97 82l-66 -2zM264 -49q39 -28 39 -68q0 -69 -97 -138l-31 28v7
q51 42 51 84q0 28 -29 49v8q30 20 67 30z" />
    <glyph glyph-name="Rcaron" unicode="&#x158;" horiz-adv-x="570" 
d="M299 704h-26q-72 83 -129 137l27 40h10q69 -60 105 -100q35 37 105 100h11l27 -40q-57 -54 -130 -137zM380 257q68 -109 161 -233l-1 -12q-48 -16 -99 -21l-12 8q-83 136 -134 230h-109v-27l5 -202h-105l7 193l-7 449l218 1q97 0 150 -48.5t53 -138.5q0 -64 -33.5 -115.5
t-93.5 -83.5zM188 313l110 -3q101 31 101 138q0 109 -123 114l-85 -3z" />
    <glyph glyph-name="rcaron" unicode="&#x159;" horiz-adv-x="508" 
d="M251 563h-26q-72 83 -129 137l27 40h10q69 -60 105 -100q35 37 105 100h11l27 -40q-57 -54 -130 -137zM342 200q58 -87 131 -177l-1 -12q-52 -15 -91 -18l-15 9q-73 118 -103 172l-88 -1v-14l4 -159h-96l4 150l-4 351l190 1q81 0 125.5 -38.5t44.5 -108.5
q0 -101 -101 -155zM176 250l87 -3q79 23 79 99q0 78 -97 82l-66 -2z" />
    <glyph glyph-name="Sacute" unicode="&#x15a;" horiz-adv-x="483" 
d="M351 888l38 -54l-2 -10q-79 -58 -181 -124l-10 1l-26 40q105 85 171 148zM274 649q76 0 152 -32l-17 -94l-16 -6q-66 49 -131 49q-49 0 -78 -27t-29 -63q0 -32 30 -57t72.5 -44.5t84.5 -41.5t72 -60.5t30 -90.5q0 -80 -63 -135t-163 -55q-92 0 -180 43l13 102l13 6
q37 -35 81.5 -52.5t82.5 -17.5q52 0 83 27.5t31 65.5q0 34 -29.5 60t-72 45t-85 41t-72 60t-29.5 90q0 80 61.5 133.5t158.5 53.5z" />
    <glyph glyph-name="sacute" unicode="&#x15b;" horiz-adv-x="433" 
d="M318 747l38 -54l-2 -10q-79 -58 -181 -124l-10 1l-26 40q105 85 171 148zM244 507q64 0 128 -25l-15 -91l-15 -3q-58 46 -110 46q-37 0 -58.5 -19t-21.5 -44q0 -24 24 -42t58 -32t68.5 -30.5t58.5 -47t24 -72.5q0 -64 -49.5 -109t-138.5 -45q-79 0 -153 32l13 97l11 6
q29 -29 68.5 -45.5t72.5 -16.5q36 0 58.5 18.5t22.5 45.5q0 25 -24 43.5t-58 32.5t-68 30.5t-58 47.5t-24 73q0 64 50.5 107t135.5 43z" />
    <glyph glyph-name="Scircumflex" unicode="&#x15c;" horiz-adv-x="483" 
d="M138 705l-27 40q57 54 130 137h26q72 -83 129 -137l-27 -40h-10q-69 60 -105 100q-35 -37 -105 -100h-11zM274 649q76 0 152 -32l-17 -94l-16 -6q-66 49 -131 49q-49 0 -78 -27t-29 -63q0 -32 30 -57t72.5 -44.5t84.5 -41.5t72 -60.5t30 -90.5q0 -80 -63 -135t-163 -55
q-92 0 -180 43l13 102l13 6q37 -35 81.5 -52.5t82.5 -17.5q52 0 83 27.5t31 65.5q0 34 -29.5 60t-72 45t-85 41t-72 60t-29.5 90q0 80 61.5 133.5t158.5 53.5z" />
    <glyph glyph-name="scircumflex" unicode="&#x15d;" horiz-adv-x="433" 
d="M105 564l-27 40q57 54 130 137h26q72 -83 129 -137l-27 -40h-10q-69 60 -105 100q-35 -37 -105 -100h-11zM244 507q64 0 128 -25l-15 -91l-15 -3q-58 46 -110 46q-37 0 -58.5 -19t-21.5 -44q0 -24 24 -42t58 -32t68.5 -30.5t58.5 -47t24 -72.5q0 -64 -49.5 -109
t-138.5 -45q-79 0 -153 32l13 97l11 6q29 -29 68.5 -45.5t72.5 -16.5q36 0 58.5 18.5t22.5 45.5q0 25 -24 43.5t-58 32.5t-68 30.5t-58 47.5t-24 73q0 64 50.5 107t135.5 43z" />
    <glyph glyph-name="Scedilla" unicode="&#x15e;" horiz-adv-x="483" 
d="M444 182q0 -71 -50.5 -123t-133.5 -64l-12 -45l34 -20q40 -21 40 -57q0 -31 -24 -50.5t-63 -19.5q-43 0 -77 30l9 47l5 2q29 -31 57 -31q29 0 29 25q0 13 -19 22l-49 29l16 65q-87 3 -168 43l13 102l13 6q37 -35 81.5 -52.5t82.5 -17.5q52 0 83 27.5t31 65.5
q0 34 -29.5 60t-72 45t-85 41t-72 60t-29.5 90q0 80 61.5 133.5t158.5 53.5q76 0 152 -32l-17 -94l-16 -6q-66 49 -131 49q-49 0 -78 -27t-29 -63q0 -32 30 -57t72.5 -44.5t84.5 -41.5t72 -60.5t30 -90.5z" />
    <glyph glyph-name="scedilla" unicode="&#x15f;" horiz-adv-x="433" 
d="M385 147q0 -58 -41.5 -101.5t-118.5 -51.5l-12 -44l34 -20q40 -21 40 -57q0 -31 -24 -50.5t-63 -19.5q-43 0 -77 30l9 47l5 2q29 -31 57 -31q29 0 29 25q0 13 -19 22l-49 29l17 67q-67 5 -128 31l13 97l11 6q29 -29 68.5 -45.5t72.5 -16.5q36 0 58.5 18.5t22.5 45.5
q0 25 -24 43.5t-58 32.5t-68 30.5t-58 47.5t-24 73q0 64 50.5 107t135.5 43q64 0 128 -25l-15 -91l-15 -3q-58 46 -110 46q-37 0 -58.5 -19t-21.5 -44q0 -24 24 -42t58 -32t68.5 -30.5t58.5 -47t24 -72.5z" />
    <glyph glyph-name="Scaron" unicode="&#x160;" horiz-adv-x="483" 
d="M369 881l27 -40q-57 -54 -130 -137h-26q-72 83 -129 137l27 40h10q69 -60 105 -100q35 37 105 100h11zM274 649q76 0 152 -32l-17 -94l-16 -6q-66 49 -131 49q-49 0 -78 -27t-29 -63q0 -32 30 -57t72.5 -44.5t84.5 -41.5t72 -60.5t30 -90.5q0 -80 -63 -135t-163 -55
q-92 0 -180 43l13 102l13 6q37 -35 81.5 -52.5t82.5 -17.5q52 0 83 27.5t31 65.5q0 34 -29.5 60t-72 45t-85 41t-72 60t-29.5 90q0 80 61.5 133.5t158.5 53.5z" />
    <glyph glyph-name="scaron" unicode="&#x161;" horiz-adv-x="433" 
d="M336 740l27 -40q-57 -54 -130 -137h-26q-72 83 -129 137l27 40h10q69 -60 105 -100q35 37 105 100h11zM244 507q64 0 128 -25l-15 -91l-15 -3q-58 46 -110 46q-37 0 -58.5 -19t-21.5 -44q0 -24 24 -42t58 -32t68.5 -30.5t58.5 -47t24 -72.5q0 -64 -49.5 -109t-138.5 -45
q-79 0 -153 32l13 97l11 6q29 -29 68.5 -45.5t72.5 -16.5q36 0 58.5 18.5t22.5 45.5q0 25 -24 43.5t-58 32.5t-68 30.5t-58 47.5t-24 73q0 64 50.5 107t135.5 43z" />
    <glyph glyph-name="Tcedilla" unicode="&#x162;" horiz-adv-x="495" 
d="M477 633l-6 -78l-116 6h-54l-5 -359l5 -202h-29l-14 -50l34 -20q40 -21 40 -57q0 -31 -24 -50.5t-63 -19.5q-43 0 -77 30l9 47l5 2q29 -31 57 -31q29 0 29 25q0 13 -19 22l-49 29l18 73h-21l6 193l-5 368h-54l-118 -6l-7 9l8 78h444z" />
    <glyph glyph-name="tcedilla" unicode="&#x163;" horiz-adv-x="441" 
d="M410 493l-6 -77l-96 7h-42l-3 -264l4 -159h-23l-13 -51l33 -19q39 -23 39 -57q0 -30 -23.5 -49t-59.5 -19q-43 0 -75 30l8 44l6 1q27 -30 55 -30q13 0 21 7t8 18q0 14 -19 25l-47 29l17 71h-23l4 150l-2 273h-42l-99 -7l-6 8l6 77h373z" />
    <glyph glyph-name="Tcaron" unicode="&#x164;" horiz-adv-x="495" 
d="M264 704h-26q-72 83 -129 137l27 40h10q69 -60 105 -100q35 37 105 100h11l27 -40q-57 -54 -130 -137zM477 633l-6 -78l-116 6h-54l-5 -359l5 -202h-104l6 193l-5 368h-54l-118 -6l-7 9l8 78h444z" />
    <glyph glyph-name="tcaron" unicode="&#x165;" horiz-adv-x="441" 
d="M227 563h-26q-72 83 -129 137l27 40h10q69 -60 105 -100q35 37 105 100h11l27 -40q-57 -54 -130 -137zM413 493l-6 -77l-97 7h-42l-2 -264l3 -159h-96l4 150l-2 273h-41l-99 -7l-7 8l7 77h373z" />
    <glyph glyph-name="Tbar" unicode="&#x166;" horiz-adv-x="495" 
d="M301 561l-3 -218h102l8 -7l-5 -53h-106l-1 -81l5 -202h-104l6 193l-1 90h-93l-7 7l4 53h95l-3 218h-54l-118 -6l-7 9l8 78h444l6 -9l-6 -78l-116 6h-54z" />
    <glyph glyph-name="tbar" unicode="&#x167;" horiz-adv-x="441" 
d="M268 423l-1 -168h90l8 -7l-4 -53h-95v-36l3 -159h-96l4 150v45h-88l-7 7l5 53h89l-1 168h-41l-99 -7l-7 8l7 77h373l5 -8l-6 -77l-97 7h-42z" />
    <glyph glyph-name="Umacron" unicode="&#x16a;" horiz-adv-x="631" 
d="M465 819l-5 -59h-282l-7 8l5 58h282zM560 316l-1 -76q2 -118 -64 -183t-187 -65q-117 0 -179 62.5t-60 177.5l2 89l-2 321h102l-4 -396q-1 -166 148 -166q150 0 149 156l-5 406h104z" />
    <glyph glyph-name="umacron" unicode="&#x16b;" horiz-adv-x="552" 
d="M425 678l-5 -59h-282l-7 8l5 58h282zM482 246l-1 -74q1 -85 -54 -132t-156 -47q-100 0 -152 46.5t-50 132.5l1 77l-3 252h97l-5 -314q-1 -57 28 -85.5t88 -28.5q58 0 88 28.5t29 85.5l-4 314h97z" />
    <glyph glyph-name="Ubreve" unicode="&#x16c;" horiz-adv-x="631" 
d="M430 864l25 -36q-29 -119 -139 -119q-106 0 -134 119l26 36h15q21 -83 96 -83t96 83h15zM560 316l-1 -76q2 -118 -64 -183t-187 -65q-117 0 -179 62.5t-60 177.5l2 89l-2 321h102l-4 -396q-1 -166 148 -166q150 0 149 156l-5 406h104z" />
    <glyph glyph-name="ubreve" unicode="&#x16d;" horiz-adv-x="552" 
d="M390 723l25 -36q-29 -119 -139 -119q-106 0 -134 119l26 36h15q21 -83 96 -83t96 83h15zM482 246l-1 -74q1 -85 -54 -132t-156 -47q-100 0 -152 46.5t-50 132.5l1 77l-3 252h97l-5 -314q-1 -57 28 -85.5t88 -28.5q58 0 88 28.5t29 85.5l-4 314h97z" />
    <glyph glyph-name="Uring" unicode="&#x16e;" horiz-adv-x="631" 
d="M318 889q42 0 65 -23t23 -62q0 -43 -25 -66.5t-66 -23.5q-40 0 -63.5 23t-23.5 64t23.5 64.5t66.5 23.5zM316 843q-42 0 -42 -40q0 -44 43 -44t43 42t-44 42zM560 316l-1 -76q2 -118 -64 -183t-187 -65q-117 0 -179 62.5t-60 177.5l2 89l-2 321h102l-4 -396
q-1 -166 148 -166q150 0 149 156l-5 406h104z" />
    <glyph glyph-name="uring" unicode="&#x16f;" horiz-adv-x="552" 
d="M278 748q42 0 65 -23t23 -62q0 -43 -25 -66.5t-66 -23.5q-40 0 -63.5 23t-23.5 64t23.5 64.5t66.5 23.5zM276 702q-42 0 -42 -40q0 -44 43 -44t43 42t-44 42zM482 246l-1 -74q1 -85 -54 -132t-156 -47q-100 0 -152 46.5t-50 132.5l1 77l-3 252h97l-5 -314
q-1 -57 28 -85.5t88 -28.5q58 0 88 28.5t29 85.5l-4 314h97z" />
    <glyph glyph-name="Uhungarumlaut" unicode="&#x170;" horiz-adv-x="631" 
d="M219 717l-33 28q72 81 108 126l9 2l46 -32l1 -10q-78 -74 -121 -112zM367 717l-33 28q12 14 34 39.5t40 46.5t34 40l7 2l48 -32l1 -10q-3 -3 -121 -112zM560 316l-1 -76q2 -118 -64 -183t-187 -65q-117 0 -179 62.5t-60 177.5l2 89l-2 321h102l-4 -396q-1 -166 148 -166
q150 0 149 156l-5 406h104z" />
    <glyph glyph-name="uhungarumlaut" unicode="&#x171;" horiz-adv-x="552" 
d="M179 559l-32 29q60 69 130 161l9 1l47 -34v-9q-59 -62 -144 -146zM325 559l-32 29q59 67 131 161l8 1l47 -34l1 -9q-47 -50 -145 -146zM482 246l-1 -74q1 -85 -54 -132t-156 -47q-100 0 -152 46.5t-50 132.5l1 77l-3 252h97l-5 -314q-1 -57 28 -85.5t88 -28.5
q58 0 88 28.5t29 85.5l-4 314h97z" />
    <glyph glyph-name="Uogonek" unicode="&#x172;" horiz-adv-x="631" 
d="M560 316l-1 -76q3 -134 -83 -200l-57 -93q-17 -25 -17 -49q0 -33 36 -33t71 35h5l12 -45q-50 -52 -101 -52q-38 0 -60.5 23t-22.5 60q0 36 24 71l30 46q-41 -11 -88 -11q-117 0 -179 62.5t-60 177.5l2 89l-2 321h102l-4 -396q-1 -166 148 -166q150 0 149 156l-5 406h104z
" />
    <glyph glyph-name="uogonek" unicode="&#x173;" horiz-adv-x="552" 
d="M482 246l-1 -74q2 -113 -91 -156l-43 -69q-17 -26 -17 -49q0 -33 36 -33q37 0 70 34h6l12 -44q-50 -52 -101 -52q-38 0 -60.5 23t-22.5 60t23 71l26 39q-23 -3 -48 -3q-100 0 -152 46.5t-50 132.5l1 77l-3 252h97l-5 -314q-1 -57 28 -85.5t88 -28.5q58 0 88 28.5t29 85.5
l-4 314h97z" />
    <glyph glyph-name="Wcircumflex" unicode="&#x174;" horiz-adv-x="897" 
d="M326 731l-20 43q66 44 124 96h24q54 -48 124 -96l-19 -43h-11q-79 49 -106 66q-28 -19 -105 -66h-11zM668 0h-108l-113 345h-7l-117 -345h-109l-194 642h102l11 -69l138 -463h8l126 372l-51 160h105l16 -79l140 -453h8l155 457l16 75h96z" />
    <glyph glyph-name="wcircumflex" unicode="&#x175;" horiz-adv-x="771" 
d="M251 564l-27 40q57 54 130 137h26q72 -83 129 -137l-27 -40h-10q-69 60 -105 100q-35 -37 -105 -100h-11zM575 0h-103l-87 248h-7l-90 -248h-103l-155 501h97l9 -60l104 -338h7l98 275l-38 123h99l12 -69l106 -329h8l117 333l14 65h91z" />
    <glyph glyph-name="Ycircumflex" unicode="&#x176;" horiz-adv-x="541" 
d="M150 731l-20 43q66 44 124 96h24q54 -48 124 -96l-19 -43h-11q-79 49 -106 66q-28 -19 -105 -66h-11zM309 184l5 -184h-104l6 184l-1 41l-204 417h110l13 -40l127 -269h9l140 267l16 42h108l-224 -418z" />
    <glyph glyph-name="ycircumflex" unicode="&#x177;" horiz-adv-x="483" 
d="M131 564l-27 40q57 54 130 137h26q72 -83 129 -137l-27 -40h-10q-69 60 -105 100q-35 -37 -105 -100h-11zM278 140l4 -140h-96l4 140l-1 28l-169 333h102l12 -32l99 -199h7l110 195l15 36h100l-186 -330z" />
    <glyph glyph-name="Ydieresis" unicode="&#x178;" horiz-adv-x="541" 
d="M183 740q-51 0 -51 52q0 25 14.5 39.5t39.5 14.5q50 0 50 -51q0 -26 -14 -40.5t-39 -14.5zM347 740q-51 0 -51 52q0 25 14.5 39.5t39.5 14.5q50 0 50 -51q0 -26 -14 -40.5t-39 -14.5zM309 184l5 -184h-104l6 184l-1 41l-204 417h110l13 -40l127 -269h9l140 267l16 42h108
l-224 -418z" />
    <glyph glyph-name="Zacute" unicode="&#x179;" horiz-adv-x="536" 
d="M388 872l27 -61l-4 -10q-66 -29 -203 -82l-11 4l-17 44q130 67 198 107zM496 567l-342 -486h244l101 8l5 -6l-9 -85l-129 2h-270l-65 -3v75l344 488h-227l-103 -8l-6 6l8 85l395 -1l54 1v-76z" />
    <glyph glyph-name="zacute" unicode="&#x17a;" horiz-adv-x="475" 
d="M322 747l38 -54l-2 -10q-79 -58 -181 -124l-10 1l-26 40q105 85 171 148zM430 431l-277 -357h190l89 9l5 -5l-8 -80l-116 2h-217l-58 -2v69l278 359h-184l-84 -9l-4 6l7 79l100 -1h231l48 1v-71z" />
    <glyph glyph-name="Zdotaccent" unicode="&#x17b;" horiz-adv-x="536" 
d="M274 857q25 0 39 -14.5t14 -40.5q0 -27 -15 -43t-41 -16t-40.5 15t-14.5 41t15.5 42t42.5 16zM496 567l-342 -486h244l101 8l5 -6l-9 -85l-129 2h-270l-65 -3v75l344 488h-227l-103 -8l-6 6l8 85l395 -1l54 1v-76z" />
    <glyph glyph-name="zdotaccent" unicode="&#x17c;" horiz-adv-x="475" 
d="M226 716q25 0 39 -14.5t14 -40.5q0 -27 -15 -43t-41 -16t-40.5 15t-14.5 41t15.5 42t42.5 16zM430 431l-277 -357h190l89 9l5 -5l-8 -80l-116 2h-217l-58 -2v69l278 359h-184l-84 -9l-4 6l7 79l100 -1h231l48 1v-71z" />
    <glyph glyph-name="Zcaron" unicode="&#x17d;" horiz-adv-x="536" 
d="M389 860l20 -43q-66 -44 -124 -96h-24q-54 48 -124 96l19 43h11q79 -49 106 -66q28 19 105 66h11zM496 567l-342 -486h244l101 8l5 -6l-9 -85l-129 2h-270l-65 -3v75l344 488h-227l-103 -8l-6 6l8 85l395 -1l54 1v-76z" />
    <glyph glyph-name="zcaron" unicode="&#x17e;" horiz-adv-x="475" 
d="M340 740l27 -40q-57 -54 -130 -137h-26q-72 83 -129 137l27 40h10q69 -60 105 -100q35 37 105 100h11zM430 431l-277 -357h190l89 9l5 -5l-8 -80l-116 2h-217l-58 -2v69l278 359h-184l-84 -9l-4 6l7 79l100 -1h231l48 1v-71z" />
    <glyph glyph-name="florin" unicode="&#x192;" horiz-adv-x="293" 
d="M311 618q33 0 76 -9l-15 -67l-7 -4q-37 15 -67 15q-77 0 -90 -84l-12 -91h107l3 -6l-5 -50h-112l-20 -137l-16 -135q-7 -69 -35 -112.5t-93 -87.5l-41 40l1 8q42 35 60.5 67t25.5 83l16 129l17 145h-65l-5 6l6 50h71l10 78q10 78 59.5 120t130.5 42z" />
    <glyph glyph-name="Ohorn" unicode="&#x1a0;" horiz-adv-x="644" 
d="M583 769q23 0 41.5 -25.5t18.5 -63.5q0 -48 -33 -77.5t-84 -34.5q79 -80 79 -238q0 -160 -77 -249.5t-216 -89.5q-134 0 -206 84.5t-72 238.5q0 161 76.5 248.5t211.5 87.5q51 0 104 -16.5t70 -16.5q29 0 48 15t19 41q0 38 -32 68l2 8q25 20 50 20zM319 565
q-91 0 -135 -58t-44 -181q0 -130 43.5 -191t135.5 -61q91 0 135 59t44 183q0 129 -43.5 189t-135.5 60z" />
    <glyph glyph-name="ohorn" unicode="&#x1a1;" horiz-adv-x="564" 
d="M452 577l2 8q28 18 45 18q21 0 37.5 -21.5t16.5 -53.5q0 -38 -25 -63t-66 -33q57 -63 57 -174q0 -125 -64.5 -195.5t-181.5 -70.5q-112 0 -172.5 66t-60.5 187q0 125 64.5 194t179.5 69q42 0 86.5 -11.5t58.5 -11.5q50 0 50 40q0 28 -27 52zM281 66q71 0 104.5 42.5
t33.5 138.5q0 97 -33.5 139.5t-107.5 42.5q-72 0 -105 -41.5t-33 -136.5q0 -98 34 -141.5t107 -43.5z" />
    <glyph glyph-name="Uhorn" unicode="&#x1af;" horiz-adv-x="641" 
d="M651 700q0 -35 -23.5 -62.5t-64.5 -40.5l-3 -281l-1 -76q2 -118 -64 -183t-187 -65q-117 0 -179 62.5t-60 177.5l2 89l-2 321h102l-4 -396q-1 -166 148 -166q150 0 149 156l-5 406h48q64 0 64 50q0 32 -32 60l3 9q27 20 49 20t41 -23.5t19 -57.5z" />
    <glyph glyph-name="uhorn" unicode="&#x1b0;" horiz-adv-x="562" 
d="M479 246v-74q1 -86 -54 -132.5t-156 -46.5q-100 0 -152.5 46.5t-50.5 132.5l1 77l-2 252h97l-6 -314q-2 -114 117 -114q58 0 87.5 28.5t28.5 85.5l-4 314h48q51 0 51 39q0 26 -25 47l2 8q25 17 46 17q20 0 36 -18.5t16 -45.5q0 -30 -20.5 -53.5t-56.5 -34.5z" />
    <glyph glyph-name="Acaron" unicode="&#x1cd;" horiz-adv-x="587" 
d="M308 721h-24q-54 48 -124 96l19 43h11q79 -49 106 -66q28 19 105 66h11l20 -43q-66 -44 -124 -96zM568 0h-106l-15 72l-28 89l-136 3l-123 -3l-30 -84l-16 -77h-103l229 642h121zM393 245l-92 296h-7l-105 -296l101 -2z" />
    <glyph glyph-name="acaron" unicode="&#x1ce;" horiz-adv-x="519" 
d="M278 563h-26q-72 83 -129 137l27 40h10q69 -60 105 -100q35 37 105 100h11l27 -40q-57 -54 -130 -137zM489 0h-97l-13 62l-18 55l-112 1l-100 -1l-19 -50l-14 -67h-95l187 501h112zM337 192l-72 219h-7l-81 -219l79 -1z" />
    <glyph glyph-name="Icaron" unicode="&#x1cf;" horiz-adv-x="279" 
d="M256 860l20 -43q-66 -44 -124 -96h-24q-54 48 -124 96l19 43h11q79 -49 106 -66q28 19 105 66h11zM186 202l5 -202h-105l7 193l-7 449h106z" />
    <glyph glyph-name="icaron" unicode="&#x1d0;" horiz-adv-x="267" 
d="M251 740l27 -40q-57 -54 -130 -137h-26q-72 83 -129 137l27 40h10q69 -60 105 -100q35 37 105 100h11zM175 159l4 -159h-96l4 150l-4 351h97z" />
    <glyph glyph-name="Ocaron" unicode="&#x1d1;" horiz-adv-x="639" 
d="M437 860l20 -43q-66 -44 -124 -96h-24q-54 48 -124 96l19 43h11q79 -49 106 -66q28 19 105 66h11zM329 650q133 0 204.5 -82t71.5 -234q0 -164 -77 -253.5t-218 -89.5q-132 0 -204 84.5t-72 239.5q0 161 76.5 248t218.5 87zM320 565q-92 0 -136 -57.5t-44 -179.5
q0 -131 43.5 -192.5t134.5 -61.5t135.5 58.5t44.5 182.5q0 130 -43.5 190t-134.5 60z" />
    <glyph glyph-name="ocaron" unicode="&#x1d2;" horiz-adv-x="558" 
d="M397 740l27 -40q-57 -54 -130 -137h-26q-72 83 -129 137l27 40h10q69 -60 105 -100q35 37 105 100h11zM288 508q110 0 170.5 -64.5t60.5 -181.5q0 -130 -64.5 -200t-183.5 -70q-111 0 -171 66t-60 187q0 126 64.5 194.5t183.5 68.5zM279 429q-72 0 -105.5 -40.5
t-33.5 -131.5q0 -101 33 -144t105 -43q73 0 107 40.5t34 132.5q0 100 -33 143t-107 43z" />
    <glyph glyph-name="Ucaron" unicode="&#x1d3;" horiz-adv-x="631" 
d="M434 881l27 -40q-57 -54 -130 -137h-26q-72 83 -129 137l27 40h10q69 -60 105 -100q35 37 105 100h11zM560 316l-1 -76q2 -118 -64 -183t-187 -65q-117 0 -179 62.5t-60 177.5l2 89l-2 321h102l-4 -396q-1 -166 148 -166q150 0 149 156l-5 406h104z" />
    <glyph glyph-name="ucaron" unicode="&#x1d4;" horiz-adv-x="552" 
d="M394 740l27 -40q-57 -54 -130 -137h-26q-72 83 -129 137l27 40h10q69 -60 105 -100q35 37 105 100h11zM482 246l-1 -74q1 -85 -54 -132t-156 -47q-100 0 -152 46.5t-50 132.5l1 77l-3 252h97l-5 -314q-1 -57 28 -85.5t88 -28.5q58 0 88 28.5t29 85.5l-4 314h97z" />
    <glyph glyph-name="Udieresismacron" unicode="&#x1d5;" horiz-adv-x="631" 
d="M458 944l-6 -59h-266l-8 8l6 59h267zM237 823q23 0 35.5 -13t12.5 -36t-14 -37.5t-38 -14.5q-23 0 -35.5 13t-12.5 36t14 37.5t38 14.5zM401 823q23 0 35.5 -13t12.5 -36t-14 -37.5t-38 -14.5q-23 0 -35.5 13t-12.5 36t14 37.5t38 14.5zM560 316l-1 -76q2 -118 -64 -183
t-187 -65q-117 0 -179 62.5t-60 177.5l2 89l-2 321h102l-4 -396q-1 -166 148 -166q150 0 149 156l-5 406h104z" />
    <glyph glyph-name="udieresismacron" unicode="&#x1d6;" horiz-adv-x="552" 
d="M418 803l-6 -59h-266l-8 8l6 59h267zM197 682q23 0 35.5 -13t12.5 -36t-14 -37.5t-38 -14.5q-23 0 -35.5 13t-12.5 36t14 37.5t38 14.5zM361 682q23 0 35.5 -13t12.5 -36t-14 -37.5t-38 -14.5q-23 0 -35.5 13t-12.5 36t14 37.5t38 14.5zM482 246l-1 -74q1 -85 -54 -132
t-156 -47q-100 0 -152 46.5t-50 132.5l1 77l-3 252h97l-5 -314q-1 -57 28 -85.5t88 -28.5q58 0 88 28.5t29 85.5l-4 314h97z" />
    <glyph glyph-name="Udieresisacute" unicode="&#x1d7;" horiz-adv-x="631" 
d="M419 991l16 -64l-5 -9q-105 -25 -215 -45l-10 5l-9 47q115 34 214 71zM237 823q23 0 35.5 -13t12.5 -36t-14 -37.5t-38 -14.5q-23 0 -35.5 13t-12.5 36t14 37.5t38 14.5zM401 823q23 0 35.5 -13t12.5 -36t-14 -37.5t-38 -14.5q-23 0 -35.5 13t-12.5 36t14 37.5t38 14.5z
M560 316l-1 -76q2 -118 -64 -183t-187 -65q-117 0 -179 62.5t-60 177.5l2 89l-2 321h102l-4 -396q-1 -166 148 -166q150 0 149 156l-5 406h104z" />
    <glyph glyph-name="udieresisacute" unicode="&#x1d8;" horiz-adv-x="552" 
d="M379 850l16 -64l-5 -9q-105 -25 -215 -45l-10 5l-9 47q115 34 214 71zM197 682q23 0 35.5 -13t12.5 -36t-14 -37.5t-38 -14.5q-23 0 -35.5 13t-12.5 36t14 37.5t38 14.5zM361 682q23 0 35.5 -13t12.5 -36t-14 -37.5t-38 -14.5q-23 0 -35.5 13t-12.5 36t14 37.5t38 14.5z
M482 246l-1 -74q1 -85 -54 -132t-156 -47q-100 0 -152 46.5t-50 132.5l1 77l-3 252h97l-5 -314q-1 -57 28 -85.5t88 -28.5q58 0 88 28.5t29 85.5l-4 314h97z" />
    <glyph glyph-name="Udieresiscaron" unicode="&#x1d9;" horiz-adv-x="631" 
d="M434 980l20 -42q-55 -38 -124 -96h-24q-63 53 -124 96l19 42h11q93 -57 106 -65q23 15 105 65h11zM237 823q23 0 35.5 -13t12.5 -36t-14 -37.5t-38 -14.5q-23 0 -35.5 13t-12.5 36t14 37.5t38 14.5zM401 823q23 0 35.5 -13t12.5 -36t-14 -37.5t-38 -14.5q-23 0 -35.5 13
t-12.5 36t14 37.5t38 14.5zM560 316l-1 -76q2 -118 -64 -183t-187 -65q-117 0 -179 62.5t-60 177.5l2 89l-2 321h102l-4 -396q-1 -166 148 -166q150 0 149 156l-5 406h104z" />
    <glyph glyph-name="udieresiscaron" unicode="&#x1da;" horiz-adv-x="552" 
d="M394 839l20 -42q-55 -38 -124 -96h-24q-63 53 -124 96l19 42h11q93 -57 106 -65q23 15 105 65h11zM197 682q23 0 35.5 -13t12.5 -36t-14 -37.5t-38 -14.5q-23 0 -35.5 13t-12.5 36t14 37.5t38 14.5zM361 682q23 0 35.5 -13t12.5 -36t-14 -37.5t-38 -14.5q-23 0 -35.5 13
t-12.5 36t14 37.5t38 14.5zM482 246l-1 -74q1 -85 -54 -132t-156 -47q-100 0 -152 46.5t-50 132.5l1 77l-3 252h97l-5 -314q-1 -57 28 -85.5t88 -28.5q58 0 88 28.5t29 85.5l-4 314h97z" />
    <glyph glyph-name="Udieresisgrave" unicode="&#x1db;" horiz-adv-x="631" 
d="M211 991l10 5q99 -37 214 -71l-10 -47l-10 -5q-119 22 -213 45l-6 9zM237 823q23 0 35.5 -13t12.5 -36t-14 -37.5t-38 -14.5q-23 0 -35.5 13t-12.5 36t14 37.5t38 14.5zM401 823q23 0 35.5 -13t12.5 -36t-14 -37.5t-38 -14.5q-23 0 -35.5 13t-12.5 36t14 37.5t38 14.5z
M560 316l-1 -76q2 -118 -64 -183t-187 -65q-117 0 -179 62.5t-60 177.5l2 89l-2 321h102l-4 -396q-1 -166 148 -166q150 0 149 156l-5 406h104z" />
    <glyph glyph-name="udieresisgrave" unicode="&#x1dc;" horiz-adv-x="552" 
d="M171 850l10 5q99 -37 214 -71l-10 -47l-10 -5q-119 22 -213 45l-6 9zM197 682q23 0 35.5 -13t12.5 -36t-14 -37.5t-38 -14.5q-23 0 -35.5 13t-12.5 36t14 37.5t38 14.5zM361 682q23 0 35.5 -13t12.5 -36t-14 -37.5t-38 -14.5q-23 0 -35.5 13t-12.5 36t14 37.5t38 14.5z
M482 246l-1 -74q1 -85 -54 -132t-156 -47q-100 0 -152 46.5t-50 132.5l1 77l-3 252h97l-5 -314q-1 -57 28 -85.5t88 -28.5q58 0 88 28.5t29 85.5l-4 314h97z" />
    <glyph glyph-name="Oogonek" unicode="&#x1ea;" horiz-adv-x="639" 
d="M439 15l-41 -62q-17 -26 -17 -48q0 -17 10 -28t29 -11q32 0 67 35h6l11 -47q-52 -51 -100 -51q-38 0 -61.5 23.5t-23.5 59.5q0 38 27 78l22 31q-24 -4 -58 -4q-132 0 -204 84.5t-72 239.5q0 161 76.5 248t218.5 87q133 0 204.5 -82t71.5 -234q0 -122 -42.5 -203
t-123.5 -116zM140 328q0 -131 43.5 -192.5t134.5 -61.5t135.5 58.5t44.5 182.5q0 130 -43.5 190t-134.5 60q-92 0 -136 -57.5t-44 -179.5z" />
    <glyph glyph-name="oogonek" unicode="&#x1eb;" horiz-adv-x="558" 
d="M378 10l-39 -63q-17 -25 -17 -49q0 -33 36 -33q37 0 70 35h6l12 -45q-52 -52 -102 -52q-37 0 -59.5 23.5t-22.5 59.5q0 37 23 71l25 37q-26 -2 -39 -2q-111 0 -171 66t-60 187q0 126 64.5 194.5t183.5 68.5q110 0 170.5 -64.5t60.5 -181.5q0 -196 -141 -252zM140 257
q0 -101 33 -144t105 -43q73 0 107 40.5t34 132.5q0 100 -33 143t-107 43q-72 0 -105.5 -40.5t-33.5 -131.5z" />
    <glyph glyph-name="Aringacute" unicode="&#x1fa;" horiz-adv-x="587" 
d="M214 791l-10 47q115 36 213 74l10 -4l16 -64l-5 -9q-64 -17 -214 -49zM568 0h-106l-15 71l-28 88l-136 2l-123 -3l-30 -82l-16 -76h-103l227 616q-27 22 -27 67q0 41 23.5 64.5t66.5 23.5q42 0 65 -23t23 -62q0 -44 -28 -69zM299 725q-42 0 -42 -40q0 -44 43 -44t43 42
t-44 42zM393 242l-92 291h-7l-104 -291l100 -2z" />
    <glyph glyph-name="aringacute" unicode="&#x1fb;" horiz-adv-x="519" 
d="M177 768l-10 47q115 36 213 74l10 -4l16 -64l-5 -9q-64 -17 -214 -49zM175 660q0 41 23.5 64.5t66.5 23.5q42 0 65 -23t23 -62q0 -43 -25 -66.5t-66 -23.5q-40 0 -63.5 23t-23.5 64zM307 660q0 42 -44 42q-42 0 -42 -40q0 -44 43 -44t43 42zM489 0h-97l-13 62l-18 55
l-112 1l-100 -1l-19 -50l-14 -67h-95l187 501h112zM337 192l-72 219h-7l-81 -219l79 -1z" />
    <glyph glyph-name="AEacute" unicode="&#x1fc;" horiz-adv-x="814" 
d="M424 723l-17 44q130 67 198 107l10 -2l27 -61l-4 -10q-66 -29 -203 -82zM801 79l-8 -79h-365l-5 72l-24 172l-227 -56l-57 -111l-27 -77h-105l326 642h402l6 -9l-8 -79l-160 5h-92l29 -213l206 47l8 -7l7 -73l-211 -46l25 -185h109l164 6zM389 323l-31 218h-7l-131 -258z
" />
    <glyph glyph-name="aeacute" unicode="&#x1fd;" horiz-adv-x="704" 
d="M357 560l-26 40q105 85 171 148l10 -1l38 -54l-2 -10q-79 -58 -181 -124zM683 73l-7 -73h-308l-4 60l-17 118l-198 -48l-36 -65l-22 -65h-92l270 501h340l6 -8l-8 -71l-132 6h-76l23 -157l171 39l7 -5l6 -72l-173 -35l18 -123h89l137 5zM336 250l-24 163h-7l-108 -195z
" />
    <glyph glyph-name="Oslashacute" unicode="&#x1fe;" horiz-adv-x="639" 
d="M243 724l-17 44q130 67 198 107l10 -2l27 -61l-4 -10q-66 -29 -203 -82zM534 695l-42 -90q113 -79 113 -271q0 -164 -77 -253.5t-218 -89.5q-55 0 -100 15l-54 -115l-60 24l-5 9l54 115q-111 82 -111 276q0 161 76.5 248t218.5 87q50 0 97 -13l43 92l59 -23zM140 328
q0 -136 48 -198l199 425q-27 10 -67 10q-92 0 -136 -57.5t-44 -179.5zM318 74q91 0 135.5 58.5t44.5 182.5q0 137 -50 198l-201 -427q30 -12 71 -12z" />
    <glyph glyph-name="oslashacute" unicode="&#x1ff;" horiz-adv-x="558" 
d="M205 561l-26 40q105 85 171 148l10 -1l38 -54l-2 -10q-79 -58 -181 -124zM468 539l-37 -71q88 -63 88 -206q0 -130 -64.5 -200t-183.5 -70q-44 0 -82 11l-56 -107l-53 27l-3 10l52 99q-89 64 -89 213q0 126 64.5 194.5t183.5 68.5q44 0 83 -11l41 78l50 -26zM140 257
q0 -100 32 -142l160 307q-21 7 -53 7q-72 0 -105.5 -40.5t-33.5 -131.5zM278 70q73 0 107 40.5t34 132.5q0 97 -32 141l-160 -308q23 -6 51 -6z" />
    <glyph glyph-name="Scommaaccent" unicode="&#x218;" horiz-adv-x="483" 
d="M274 649q76 0 152 -32l-17 -94l-16 -6q-66 49 -131 49q-49 0 -78 -27t-29 -63q0 -32 30 -57t72.5 -44.5t84.5 -41.5t72 -60.5t30 -90.5q0 -80 -63 -135t-163 -55q-92 0 -180 43l13 102l13 6q37 -35 81.5 -52.5t82.5 -17.5q52 0 83 27.5t31 65.5q0 34 -29.5 60t-72 45
t-85 41t-72 60t-29.5 90q0 80 61.5 133.5t158.5 53.5zM260 -49q39 -28 39 -68q0 -69 -97 -138l-31 28v7q51 42 51 84q0 28 -29 49v8q30 20 67 30z" />
    <glyph glyph-name="scommaaccent" unicode="&#x219;" horiz-adv-x="433" 
d="M244 507q64 0 128 -25l-15 -91l-15 -3q-58 46 -110 46q-37 0 -58.5 -19t-21.5 -44q0 -24 24 -42t58 -32t68.5 -30.5t58.5 -47t24 -72.5q0 -64 -49.5 -109t-138.5 -45q-79 0 -153 32l13 97l11 6q29 -29 68.5 -45.5t72.5 -16.5q36 0 58.5 18.5t22.5 45.5q0 25 -24 43.5
t-58 32.5t-68 30.5t-58 47.5t-24 73q0 64 50.5 107t135.5 43zM226 -49q39 -28 39 -68q0 -69 -97 -138l-31 28v7q51 42 51 84q0 28 -29 49v8q30 20 67 30z" />
    <glyph glyph-name="Tcommaaccent" unicode="&#x21a;" horiz-adv-x="495" 
d="M477 633l-6 -78l-116 6h-54l-5 -359l5 -202h-104l6 193l-5 368h-54l-118 -6l-7 9l8 78h444zM270 -49q39 -28 39 -68q0 -69 -97 -138l-31 28v7q51 42 51 84q0 28 -29 49v8q30 20 67 30z" />
    <glyph glyph-name="tcommaaccent" unicode="&#x21b;" horiz-adv-x="441" 
d="M413 493l-6 -77l-97 7h-42l-2 -264l3 -159h-96l4 150l-2 273h-41l-99 -7l-7 8l7 77h373zM244 -49q39 -28 39 -68q0 -69 -97 -138l-31 28v7q51 42 51 84q0 28 -29 49v8q30 20 67 30z" />
    <glyph glyph-name="dotlessj" unicode="&#x237;" horiz-adv-x="300" 
d="M214 501l-4 -336v-71q0 -64 -30.5 -103.5t-107.5 -73.5l-35 49v9q46 24 65 51t19 67v62l-2 274l-92 -1l-6 6l6 67h187z" />
    <glyph glyph-name="circumflex" unicode="&#x2c6;" 
d="M79 524l-27 40q56 53 130 137h25q75 -85 130 -137l-27 -40h-10q-68 59 -105 99q-35 -37 -105 -99h-11z" />
    <glyph glyph-name="caron" unicode="&#x2c7;" 
d="M310 700l27 -40q-57 -54 -130 -137h-26q-72 83 -129 137l27 40h10q69 -60 105 -100q35 37 105 100h11z" />
    <glyph glyph-name="firsttonechinese" unicode="&#x2c9;" 
d="M342 638l-5 -59h-282l-7 8l5 58h282z" />
    <glyph glyph-name="breve" unicode="&#x2d8;" 
d="M306 683l25 -36q-29 -119 -139 -119q-106 0 -134 119l26 36h15q21 -83 96 -83t96 83h15z" />
    <glyph glyph-name="dotaccent" unicode="&#x2d9;" horiz-adv-x="249" 
d="M126 675q53 0 53 -54q0 -27 -15 -43t-41 -16t-40.5 14.5t-14.5 40.5t15.5 42t42.5 16z" />
    <glyph glyph-name="ring" unicode="&#x2da;" 
d="M195 708q42 0 65 -23t23 -62q0 -43 -25 -66.5t-66 -23.5q-40 0 -63.5 23t-23.5 64t23.5 64.5t66.5 23.5zM193 662q-42 0 -42 -40q0 -44 43 -44t43 42t-44 42z" />
    <glyph glyph-name="ogonek" unicode="&#x2db;" 
d="M249 54l-66 -101q-17 -26 -17 -48q0 -17 10 -28t29 -11q32 0 67 35h6l11 -47q-53 -51 -100 -51q-39 0 -62 23.5t-23 59.5q0 38 27 78l63 90h55z" />
    <glyph glyph-name="tilde" unicode="&#x2dc;" 
d="M359 650v-9l-65 -77l-10 -5q-21 3 -81.5 20t-73.5 17q-5 0 -10.5 -2.5t-11.5 -7.5t-10.5 -10t-13 -14t-13.5 -15h-10l-31 32v9l65 77l11 4q21 -3 81.5 -19.5t73.5 -16.5q4 0 7.5 1t7.5 4t7.5 5.5t8.5 8t8 9t9.5 10.5t10.5 11h10z" />
    <glyph glyph-name="hungarumlaut" unicode="&#x2dd;" 
d="M60 519l-32 29q60 69 130 161l9 1l47 -34v-9q-59 -62 -144 -146zM206 519l-32 29q59 67 131 161l8 1l47 -34l1 -9q-47 -50 -145 -146z" />
    <glyph glyph-name="tildecomb" unicode="&#x303;" horiz-adv-x="0" 
d="M359 650v-9l-65 -78l-11 -4q-21 3 -81 20t-73 17q-5 0 -10.5 -2.5t-11.5 -7.5t-10.5 -10t-13 -14t-13.5 -15h-10l-31 32v9l66 77l11 4q22 -3 82 -19.5t72 -16.5q4 0 7.5 1t7.5 4t7.5 5.5t8.5 8t8 9t9.5 10.5t10.5 11h10z" />
    <glyph glyph-name="dotbelowcomb" unicode="&#x323;" horiz-adv-x="0" 
d="M119 -63q25 0 39 -14.5t14 -39.5q0 -27 -15.5 -43t-41.5 -16t-40 14.5t-14 40.5t15.5 42t42.5 16z" />
    <glyph glyph-name="commaaccent" unicode="&#x326;" horiz-adv-x="0" 
d="M130 -49q39 -27 39 -68q0 -69 -96 -138l-31 28v7q50 41 50 85q0 27 -29 48l1 9q36 21 66 29z" />
    <glyph glyph-name="Delta" unicode="&#x394;" horiz-adv-x="587" 
d="M568 0h-557l228 642h121zM294 541l-161 -458h310l-142 458h-7z" />
    <glyph glyph-name="Omega" unicode="&#x3a9;" horiz-adv-x="748" 
d="M381 650q136 0 208.5 -79.5t72.5 -198.5q0 -78 -32.5 -154.5t-95.5 -134.5l2 -5h91l82 9l6 -7l-12 -85l-106 5h-136l-37 -2l-6 4v75q66 51 101.5 127.5t35.5 156.5q0 91 -46 148t-136 57t-135 -56t-45 -147q0 -80 35.5 -157t99.5 -129v-75l-5 -4l-38 2h-154l-92 -3l-7 7
l13 81l88 -7h78l1 5q-62 56 -94 129t-32 149q0 123 77.5 206t217.5 83z" />
    <glyph glyph-name="mu" unicode="&#x3bc;" horiz-adv-x="515" 
d="M495 71l-11 -56q-29 -21 -64 -21q-58 0 -75 66h-8q-56 -52 -119 -66q-33 0 -56 10v-189h-96l4 378l-4 261l96 9v-311q1 -35 19.5 -54.5t51.5 -19.5q53 0 107 51v325l97 9l-7 -351q-1 -44 26 -44q15 0 31 10z" />
    <glyph glyph-name="pi" unicode="&#x3c0;" horiz-adv-x="646" 
d="M502 419l-2 -307q0 -44 26 -44q19 0 35 10l9 -6l-12 -57q-37 -21 -64 -21q-85 0 -85 105v320h-155v-217l3 -294h-98l3 285l-2 226h-30q-7 0 -14 -3.5t-16.5 -11.5t-16 -14.5t-19.5 -20t-20 -20.5h-12l-30 39v11l84 95l17 7l496 1l7 -9l-8 -75z" />
    <glyph glyph-name="Wgrave" unicode="&#x1e80;" horiz-adv-x="897" 
d="M352 873l10 2q68 -40 198 -107l-17 -44l-11 -4q-137 53 -203 82l-4 10zM668 0h-108l-113 345h-7l-117 -345h-109l-194 642h102l11 -69l138 -463h8l126 372l-51 160h105l16 -79l140 -453h8l155 457l16 75h96z" />
    <glyph glyph-name="wgrave" unicode="&#x1e81;" horiz-adv-x="771" 
d="M294 747l10 1q66 -63 171 -148l-26 -40l-10 -1q-102 66 -181 124l-2 10zM575 0h-103l-87 248h-7l-90 -248h-103l-155 501h97l9 -60l104 -338h7l98 275l-38 123h99l12 -69l106 -329h8l117 333l14 65h91z" />
    <glyph glyph-name="Wacute" unicode="&#x1e82;" horiz-adv-x="897" 
d="M558 872l27 -61l-4 -10q-66 -29 -203 -82l-11 4l-17 44q130 67 198 107zM668 0h-108l-113 345h-7l-117 -345h-109l-194 642h102l11 -69l138 -463h8l126 372l-51 160h105l16 -79l140 -453h8l155 457l16 75h96z" />
    <glyph glyph-name="wacute" unicode="&#x1e83;" horiz-adv-x="771" 
d="M464 747l38 -54l-2 -10q-79 -58 -181 -124l-10 1l-26 40q105 85 171 148zM575 0h-103l-87 248h-7l-90 -248h-103l-155 501h97l9 -60l104 -338h7l98 275l-38 123h99l12 -69l106 -329h8l117 333l14 65h91z" />
    <glyph glyph-name="Wdieresis" unicode="&#x1e84;" horiz-adv-x="897" 
d="M362 846q50 0 50 -51q0 -26 -14 -40.5t-39 -14.5q-51 0 -51 52q0 25 14.5 39.5t39.5 14.5zM526 846q50 0 50 -51q0 -26 -14 -40.5t-39 -14.5q-51 0 -51 52q0 25 14.5 39.5t39.5 14.5zM668 0h-108l-113 345h-7l-117 -345h-109l-194 642h102l11 -69l138 -463h8l126 372
l-51 160h105l16 -79l140 -453h8l155 457l16 75h96z" />
    <glyph glyph-name="wdieresis" unicode="&#x1e85;" horiz-adv-x="771" 
d="M286 705q50 0 50 -51q0 -26 -14 -40.5t-39 -14.5q-51 0 -51 52q0 25 14.5 39.5t39.5 14.5zM450 705q50 0 50 -51q0 -26 -14 -40.5t-39 -14.5q-51 0 -51 52q0 25 14.5 39.5t39.5 14.5zM575 0h-103l-87 248h-7l-90 -248h-103l-155 501h97l9 -60l104 -338h7l98 275l-38 123
h99l12 -69l106 -329h8l117 333l14 65h91z" />
    <glyph glyph-name="Germandbls" unicode="&#x1e9e;" horiz-adv-x="647" 
d="M328 649q108 0 246 -65l4 -18l-157 -196q105 -40 152.5 -82.5t47.5 -113.5q0 -85 -59 -133.5t-148 -48.5q-90 0 -171 43l14 102l12 6q78 -70 153 -70q43 0 70 25.5t27 64.5q0 47 -50 81.5t-170 72.5l-5 19l155 199q-66 30 -126 30q-74 0 -113.5 -37.5t-40.5 -107.5
l-2 -218l4 -202h-104l7 190l-3 230q-2 104 67 166.5t190 62.5z" />
    <glyph glyph-name="Adotbelow" unicode="&#x1ea0;" horiz-adv-x="587" 
d="M568 0h-106l-15 72l-28 89l-136 3l-123 -3l-30 -84l-16 -77h-103l229 642h121zM393 245l-92 296h-7l-105 -296l101 -2zM292 -62q25 0 39 -14.5t14 -40.5q0 -27 -15 -43t-41 -16t-40.5 15t-14.5 41t15.5 42t42.5 16z" />
    <glyph glyph-name="adotbelow" unicode="&#x1ea1;" horiz-adv-x="519" 
d="M489 0h-97l-13 62l-18 55l-112 1l-100 -1l-19 -50l-14 -67h-95l187 501h112zM337 192l-72 219h-7l-81 -219l79 -1zM259 -62q25 0 39 -14.5t14 -40.5q0 -27 -15 -43t-41 -16t-40.5 15t-14.5 41t15.5 42t42.5 16z" />
    <glyph glyph-name="Ahookabove" unicode="&#x1ea2;" horiz-adv-x="587" 
d="M273 853q-30 0 -60 -24l-19 30q46 46 94 46q30 0 50.5 -18t20.5 -45q0 -34 -54 -78l21 -37l-40 -22l-36 59q51 38 51 68q0 21 -28 21zM568 0h-106l-15 72l-28 89l-136 3l-123 -3l-30 -84l-16 -77h-103l229 642h121zM393 245l-92 296h-7l-105 -296l101 -2z" />
    <glyph glyph-name="ahookabove" unicode="&#x1ea3;" horiz-adv-x="519" 
d="M243 712q-30 0 -60 -24l-19 30q46 46 94 46q30 0 50.5 -18t20.5 -45q0 -34 -54 -78l21 -37l-40 -22l-36 59q51 38 51 68q0 21 -28 21zM489 0h-97l-13 62l-18 55l-112 1l-100 -1l-19 -50l-14 -67h-95l187 501h112zM337 192l-72 219h-7l-81 -219l79 -1z" />
    <glyph glyph-name="Acircumflexacute" unicode="&#x1ea4;" horiz-adv-x="587" 
d="M384 825l-35 28l70 111l8 3l51 -24l1 -9l-87 -109h-8zM178 711l-20 43q66 44 124 96h24q54 -48 124 -96l-19 -43h-11q-79 49 -106 66q-28 -19 -105 -66h-11zM568 0h-106l-15 72l-28 89l-136 3l-123 -3l-30 -84l-16 -77h-103l229 642h121zM393 245l-92 296h-7l-105 -296
l101 -2z" />
    <glyph glyph-name="acircumflexacute" unicode="&#x1ea5;" horiz-adv-x="519" 
d="M354 684l-35 28l70 111l8 3l51 -24l1 -9l-87 -109h-8zM148 570l-20 43q66 44 124 96h24q54 -48 124 -96l-19 -43h-11q-79 49 -106 66q-28 -19 -105 -66h-11zM489 0h-97l-13 62l-18 55l-112 1l-100 -1l-19 -50l-14 -67h-95l187 501h112zM337 192l-72 219h-7l-81 -219
l79 -1z" />
    <glyph glyph-name="Acircumflexgrave" unicode="&#x1ea6;" horiz-adv-x="587" 
d="M399 825l-87 109l1 9l52 24l7 -3l70 -111l-35 -28h-8zM178 711l-20 43q66 44 124 96h24q54 -48 124 -96l-19 -43h-11q-79 49 -106 66q-28 -19 -105 -66h-11zM568 0h-106l-15 72l-28 89l-136 3l-123 -3l-30 -84l-16 -77h-103l229 642h121zM393 245l-92 296h-7l-105 -296
l101 -2z" />
    <glyph glyph-name="acircumflexgrave" unicode="&#x1ea7;" horiz-adv-x="519" 
d="M369 684l-87 109l1 9l52 24l7 -3l70 -111l-35 -28h-8zM148 570l-20 43q66 44 124 96h24q54 -48 124 -96l-19 -43h-11q-79 49 -106 66q-28 -19 -105 -66h-11zM489 0h-97l-13 62l-18 55l-112 1l-100 -1l-19 -50l-14 -67h-95l187 501h112zM337 192l-72 219h-7l-81 -219
l79 -1z" />
    <glyph glyph-name="Acircumflexhookabove" unicode="&#x1ea8;" horiz-adv-x="587" 
d="M378 959q-29 0 -57 -23l-18 28q42 44 89 44q29 0 48 -17t19 -43q0 -32 -51 -74l20 -35l-38 -22l-34 57q48 37 48 64q0 21 -26 21zM178 711l-20 43q66 44 124 96h24q54 -48 124 -96l-19 -43h-11q-79 49 -106 66q-28 -19 -105 -66h-11zM568 0h-106l-15 72l-28 89l-136 3
l-123 -3l-30 -84l-16 -77h-103l229 642h121zM393 245l-92 296h-7l-105 -296l101 -2z" />
    <glyph glyph-name="acircumflexhookabove" unicode="&#x1ea9;" horiz-adv-x="519" 
d="M348 818q-29 0 -57 -23l-18 28q42 44 89 44q29 0 48 -17t19 -43q0 -31 -51 -74l20 -35l-38 -22l-34 57q48 37 48 64q0 21 -26 21zM148 570l-20 43q66 44 124 96h24q54 -48 124 -96l-19 -43h-11q-79 49 -106 66q-28 -19 -105 -66h-11zM489 0h-97l-13 62l-18 55l-112 1
l-100 -1l-19 -50l-14 -67h-95l187 501h112zM337 192l-72 219h-7l-81 -219l79 -1z" />
    <glyph glyph-name="Acircumflextilde" unicode="&#x1eaa;" horiz-adv-x="587" 
d="M173 861l-29 30v9l61 74l10 4q21 -3 77 -19t67 -16q5 0 10 2t10.5 7.5l10 10t12.5 13.5t13 14h9l28 -30v-9l-60 -74l-11 -4q-20 2 -76 18.5t-68 16.5q-5 0 -9.5 -2t-10.5 -7.5t-10 -9.5t-12.5 -14t-12.5 -14h-9zM282 850h24q54 -48 124 -96l-19 -43h-11q-79 49 -106 66
q-28 -19 -105 -66h-11l-20 43q66 44 124 96zM568 0h-106l-15 72l-28 89l-136 3l-123 -3l-30 -84l-16 -77h-103l229 642h121zM393 245l-92 296h-7l-105 -296l101 -2z" />
    <glyph glyph-name="acircumflextilde" unicode="&#x1eab;" horiz-adv-x="519" 
d="M143 720l-29 30v9l61 74l10 4q21 -3 77 -19t67 -16q5 0 10 2t10.5 7.5l10 10t12.5 13.5t13 14h9l28 -30v-9l-60 -74l-11 -4q-20 2 -76 18.5t-68 16.5q-5 0 -9.5 -2t-10.5 -7.5t-10 -9.5t-12.5 -14t-12.5 -14h-9zM252 709h24q54 -48 124 -96l-19 -43h-11q-79 49 -106 66
q-28 -19 -105 -66h-11l-20 43q66 44 124 96zM489 0h-97l-13 62l-18 55l-112 1l-100 -1l-19 -50l-14 -67h-95l187 501h112zM337 192l-72 219h-7l-81 -219l79 -1z" />
    <glyph glyph-name="Acircumflexdotbelow" unicode="&#x1eac;" horiz-adv-x="587" 
d="M177 730l-20 43q66 44 124 96h24q54 -48 124 -96l-19 -43h-11q-79 49 -106 66q-28 -19 -105 -66h-11zM568 0h-106l-15 72l-28 89l-136 3l-123 -3l-30 -84l-16 -77h-103l229 642h121zM393 245l-92 296h-7l-105 -296l101 -2zM292 -62q25 0 39 -14.5t14 -40.5q0 -27 -15 -43
t-41 -16t-40.5 15t-14.5 41t15.5 42t42.5 16z" />
    <glyph glyph-name="acircumflexdotbelow" unicode="&#x1ead;" horiz-adv-x="519" 
d="M150 564l-27 40q57 54 130 137h26q72 -83 129 -137l-27 -40h-10q-69 60 -105 100q-35 -37 -105 -100h-11zM489 0h-97l-13 62l-18 55l-112 1l-100 -1l-19 -50l-14 -67h-95l187 501h112zM337 192l-72 219h-7l-81 -219l79 -1zM259 -62q25 0 39 -14.5t14 -40.5q0 -27 -15 -43
t-41 -16t-40.5 15t-14.5 41t15.5 42t42.5 16z" />
    <glyph glyph-name="Abreveacute" unicode="&#x1eae;" horiz-adv-x="587" 
d="M284 825l-33 28q53 66 89 115l9 2l47 -32l1 -9q-44 -46 -104 -102zM293 703q-102 0 -135 97l26 33h15q24 -58 97 -58q70 0 95 58h15l25 -33q-16 -46 -52 -71.5t-86 -25.5zM568 0h-106l-15 72l-28 89l-136 3l-123 -3l-30 -84l-16 -77h-103l229 642h121zM393 245l-92 296
h-7l-105 -296l101 -2z" />
    <glyph glyph-name="abreveacute" unicode="&#x1eaf;" horiz-adv-x="519" 
d="M254 684l-33 28q53 66 89 115l9 2l47 -32l1 -9q-44 -46 -104 -102zM263 562q-102 0 -135 97l26 33h15q24 -58 97 -58q70 0 95 58h15l25 -33q-16 -46 -52 -71.5t-86 -25.5zM489 0h-97l-13 62l-18 55l-112 1l-100 -1l-19 -50l-14 -67h-95l187 501h112zM337 192l-72 219h-7
l-81 -219l79 -1z" />
    <glyph glyph-name="Abrevegrave" unicode="&#x1eb0;" horiz-adv-x="587" 
d="M304 825l-10 2q-11 11 -32 31.5t-38 37.5t-32 33v9l48 32l8 -2q62 -82 90 -115zM293 703q-102 0 -135 97l26 33h15q24 -58 97 -58q70 0 95 58h15l25 -33q-16 -46 -52 -71.5t-86 -25.5zM568 0h-106l-15 72l-28 89l-136 3l-123 -3l-30 -84l-16 -77h-103l229 642h121z
M393 245l-92 296h-7l-105 -296l101 -2z" />
    <glyph glyph-name="abrevegrave" unicode="&#x1eb1;" horiz-adv-x="519" 
d="M274 684l-10 2q-11 11 -32 31.5t-38 37.5t-32 33v9l48 32l8 -2q62 -82 90 -115zM263 562q-102 0 -135 97l26 33h15q24 -58 97 -58q70 0 95 58h15l25 -33q-16 -46 -52 -71.5t-86 -25.5zM489 0h-97l-13 62l-18 55l-112 1l-100 -1l-19 -50l-14 -67h-95l187 501h112zM337 192
l-72 219h-7l-81 -219l79 -1z" />
    <glyph glyph-name="Abrevehookabove" unicode="&#x1eb2;" horiz-adv-x="587" 
d="M278 970q-30 0 -60 -24l-19 30q46 46 94 46q30 0 50.5 -18t20.5 -45q0 -34 -54 -78l21 -37l-40 -22l-36 59q51 38 51 68q0 21 -28 21zM293 703q-102 0 -135 97l26 33h15q24 -58 97 -58q70 0 95 58h15l25 -33q-16 -46 -52 -71.5t-86 -25.5zM568 0h-106l-15 72l-28 89
l-136 3l-123 -3l-30 -84l-16 -77h-103l229 642h121zM393 245l-92 296h-7l-105 -296l101 -2z" />
    <glyph glyph-name="abrevehookabove" unicode="&#x1eb3;" horiz-adv-x="519" 
d="M248 829q-30 0 -60 -24l-19 30q46 46 94 46q30 0 50.5 -18t20.5 -45q0 -34 -54 -78l21 -37l-40 -22l-36 59q51 38 51 68q0 21 -28 21zM263 562q-102 0 -135 97l26 33h15q24 -58 97 -58q70 0 95 58h15l25 -33q-16 -46 -52 -71.5t-86 -25.5zM489 0h-97l-13 62l-18 55
l-112 1l-100 -1l-19 -50l-14 -67h-95l187 501h112zM337 192l-72 219h-7l-81 -219l79 -1z" />
    <glyph glyph-name="Abrevetilde" unicode="&#x1eb4;" horiz-adv-x="587" 
d="M173 861l-29 30v9l61 74l10 4q21 -3 77 -19t67 -16q5 0 10 2t10.5 7.5l10 10t12.5 13.5t13 14h9l28 -30v-9l-60 -74l-11 -4q-20 2 -76 18.5t-68 16.5q-5 0 -9.5 -2t-10.5 -7.5t-10 -9.5t-12.5 -14t-12.5 -14h-9zM299 773q67 0 91 57h15l25 -33q-34 -93 -134 -93
q-101 0 -130 93l24 33h15q24 -57 94 -57zM568 0h-106l-15 72l-28 89l-136 3l-123 -3l-30 -84l-16 -77h-103l229 642h121zM393 245l-92 296h-7l-105 -296l101 -2z" />
    <glyph glyph-name="abrevetilde" unicode="&#x1eb5;" horiz-adv-x="519" 
d="M143 720l-29 30v9l61 74l10 4q21 -3 77 -19t67 -16q5 0 10 2t10.5 7.5l10 10t12.5 13.5t13 14h9l28 -30v-9l-60 -74l-11 -4q-20 2 -76 18.5t-68 16.5q-5 0 -9.5 -2t-10.5 -7.5t-10 -9.5t-12.5 -14t-12.5 -14h-9zM269 632q67 0 91 57h15l25 -33q-34 -93 -134 -93
q-101 0 -130 93l24 33h15q24 -57 94 -57zM489 0h-97l-13 62l-18 55l-112 1l-100 -1l-19 -50l-14 -67h-95l187 501h112zM337 192l-72 219h-7l-81 -219l79 -1z" />
    <glyph glyph-name="Abrevedotbelow" unicode="&#x1eb6;" horiz-adv-x="587" 
d="M292 722q-101 0 -134 97l26 33h15q24 -58 97 -58q69 0 94 58h15l26 -33q-17 -47 -53 -72t-86 -25zM568 0h-106l-15 72l-28 89l-136 3l-123 -3l-30 -84l-16 -77h-103l229 642h121zM393 245l-92 296h-7l-105 -296l101 -2zM292 -62q25 0 39 -14.5t14 -40.5q0 -27 -15 -43
t-41 -16t-40.5 15t-14.5 41t15.5 42t42.5 16z" />
    <glyph glyph-name="abrevedotbelow" unicode="&#x1eb7;" horiz-adv-x="519" 
d="M263 568q-106 0 -134 119l26 36h15q21 -83 96 -83t96 83h15l25 -36q-29 -119 -139 -119zM489 0h-97l-13 62l-18 55l-112 1l-100 -1l-19 -50l-14 -67h-95l187 501h112zM337 192l-72 219h-7l-81 -219l79 -1zM259 -62q25 0 39 -14.5t14 -40.5q0 -27 -15 -43t-41 -16
t-40.5 15t-14.5 41t15.5 42t42.5 16z" />
    <glyph glyph-name="Edotbelow" unicode="&#x1eb8;" horiz-adv-x="493" 
d="M466 88l6 -9l-7 -79h-379l7 193l-7 449h381l6 -9l-8 -79l-152 4l-122 -1l-3 -187l116 -2l106 3l7 -8l-8 -79l-113 3l-109 -2l-1 -83l3 -118l122 -1zM288 -62q25 0 39 -14.5t14 -40.5q0 -27 -15 -43t-41 -16t-40.5 15t-14.5 41t15.5 42t42.5 16z" />
    <glyph glyph-name="edotbelow" unicode="&#x1eb9;" horiz-adv-x="444" 
d="M405 80l7 -7l-8 -73h-321l4 150l-4 351h324l6 -8l-7 -73l-127 5l-100 -1l-2 -130l96 -1l87 3l5 -8l-6 -74l-94 3l-89 -1l-1 -57l2 -82l93 -1zM250 -62q25 0 39 -14.5t14 -40.5q0 -27 -15 -43t-41 -16t-40.5 15t-14.5 41t15.5 42t42.5 16z" />
    <glyph glyph-name="Ehookabove" unicode="&#x1eba;" horiz-adv-x="493" 
d="M256 853q-30 0 -60 -24l-19 30q46 46 94 46q30 0 50.5 -18t20.5 -45q0 -34 -54 -78l21 -37l-40 -22l-36 59q51 38 51 68q0 21 -28 21zM466 88l6 -9l-7 -79h-379l7 193l-7 449h381l6 -9l-8 -79l-152 4l-122 -1l-3 -187l116 -2l106 3l7 -8l-8 -79l-113 3l-109 -2l-1 -83
l3 -118l122 -1z" />
    <glyph glyph-name="ehookabove" unicode="&#x1ebb;" horiz-adv-x="444" 
d="M223 712q-30 0 -60 -24l-19 30q46 46 94 46q30 0 50.5 -18t20.5 -45q0 -34 -54 -78l21 -37l-40 -22l-36 59q51 38 51 68q0 21 -28 21zM405 80l7 -7l-8 -73h-321l4 150l-4 351h324l6 -8l-7 -73l-127 5l-100 -1l-2 -130l96 -1l87 3l5 -8l-6 -74l-94 3l-89 -1l-1 -57l2 -82
l93 -1z" />
    <glyph glyph-name="Ecircumflexacute" unicode="&#x1ebe;" horiz-adv-x="493" 
d="M367 825l-35 28l70 111l8 3l51 -24l1 -9l-87 -109h-8zM161 711l-20 43q66 44 124 96h24q54 -48 124 -96l-19 -43h-11q-79 49 -106 66q-28 -19 -105 -66h-11zM466 88l6 -9l-7 -79h-379l7 193l-7 449h381l6 -9l-8 -79l-152 4l-122 -1l-3 -187l116 -2l106 3l7 -8l-8 -79
l-113 3l-109 -2l-1 -83l3 -118l122 -1z" />
    <glyph glyph-name="ecircumflexacute" unicode="&#x1ebf;" horiz-adv-x="444" 
d="M334 684l-35 28l70 111l8 3l51 -24l1 -9l-87 -109h-8zM128 570l-20 43q66 44 124 96h24q54 -48 124 -96l-19 -43h-11q-79 49 -106 66q-28 -19 -105 -66h-11zM179 424l-2 -130l96 -1l87 3l5 -8l-6 -74l-94 3l-89 -1l-1 -57l2 -82l93 -1l135 4l7 -7l-8 -73h-321l4 150
l-4 351h324l6 -8l-7 -73l-127 5z" />
    <glyph glyph-name="Ecircumflexgrave" unicode="&#x1ec0;" horiz-adv-x="493" 
d="M382 825l-87 109l1 9l52 24l7 -3l70 -111l-35 -28h-8zM161 711l-20 43q66 44 124 96h24q54 -48 124 -96l-19 -43h-11q-79 49 -106 66q-28 -19 -105 -66h-11zM466 88l6 -9l-7 -79h-379l7 193l-7 449h381l6 -9l-8 -79l-152 4l-122 -1l-3 -187l116 -2l106 3l7 -8l-8 -79
l-113 3l-109 -2l-1 -83l3 -118l122 -1z" />
    <glyph glyph-name="ecircumflexgrave" unicode="&#x1ec1;" horiz-adv-x="444" 
d="M349 684l-87 109l1 9l52 24l7 -3l70 -111l-35 -28h-8zM128 570l-20 43q66 44 124 96h24q54 -48 124 -96l-19 -43h-11q-79 49 -106 66q-28 -19 -105 -66h-11zM405 80l7 -7l-8 -73h-321l4 150l-4 351h324l6 -8l-7 -73l-127 5l-100 -1l-2 -130l96 -1l87 3l5 -8l-6 -74l-94 3
l-89 -1l-1 -57l2 -82l93 -1z" />
    <glyph glyph-name="Ecircumflexhookabove" unicode="&#x1ec2;" horiz-adv-x="493" 
d="M361 959q-29 0 -57 -23l-18 28q42 44 89 44q29 0 48 -17t19 -43q0 -32 -51 -74l20 -35l-38 -22l-34 57q48 37 48 64q0 21 -26 21zM161 711l-20 43q66 44 124 96h24q54 -48 124 -96l-19 -43h-11q-79 49 -106 66q-28 -19 -105 -66h-11zM466 88l6 -9l-7 -79h-379l7 193
l-7 449h381l6 -9l-8 -79l-152 4l-122 -1l-3 -187l116 -2l106 3l7 -8l-8 -79l-113 3l-109 -2l-1 -83l3 -118l122 -1z" />
    <glyph glyph-name="ecircumflexhookabove" unicode="&#x1ec3;" horiz-adv-x="444" 
d="M328 818q-29 0 -57 -23l-18 28q42 44 89 44q29 0 48 -17t19 -43q0 -31 -51 -74l20 -35l-38 -22l-34 57q48 37 48 64q0 21 -26 21zM128 570l-20 43q66 44 124 96h24q54 -48 124 -96l-19 -43h-11q-79 49 -106 66q-28 -19 -105 -66h-11zM405 80l7 -7l-8 -73h-321l4 150
l-4 351h324l6 -8l-7 -73l-127 5l-100 -1l-2 -130l96 -1l87 3l5 -8l-6 -74l-94 3l-89 -1l-1 -57l2 -82l93 -1z" />
    <glyph glyph-name="Ecircumflextilde" unicode="&#x1ec4;" horiz-adv-x="493" 
d="M156 861l-29 30v9l61 74l10 4q21 -3 77 -19t67 -16q5 0 10 2t10.5 7.5l10 10t12.5 13.5t13 14h9l28 -30v-9l-60 -74l-11 -4q-20 2 -76 18.5t-68 16.5q-5 0 -9.5 -2t-10.5 -7.5t-10 -9.5t-12.5 -14t-12.5 -14h-9zM265 850h24q54 -48 124 -96l-19 -43h-11q-79 49 -106 66
q-28 -19 -105 -66h-11l-20 43q66 44 124 96zM466 88l6 -9l-7 -79h-379l7 193l-7 449h381l6 -9l-8 -79l-152 4l-122 -1l-3 -187l116 -2l106 3l7 -8l-8 -79l-113 3l-109 -2l-1 -83l3 -118l122 -1z" />
    <glyph glyph-name="ecircumflextilde" unicode="&#x1ec5;" horiz-adv-x="444" 
d="M123 720l-29 30v9l61 74l10 4q21 -3 77 -19t67 -16q5 0 10 2t10.5 7.5l10 10t12.5 13.5t13 14h9l28 -30v-9l-60 -74l-11 -4q-20 2 -76 18.5t-68 16.5q-5 0 -9.5 -2t-10.5 -7.5t-10 -9.5t-12.5 -14t-12.5 -14h-9zM232 709h24q54 -48 124 -96l-19 -43h-11q-79 49 -106 66
q-28 -19 -105 -66h-11l-20 43q66 44 124 96zM405 80l7 -7l-8 -73h-321l4 150l-4 351h324l6 -8l-7 -73l-127 5l-100 -1l-2 -130l96 -1l87 3l5 -8l-6 -74l-94 3l-89 -1l-1 -57l2 -82l93 -1z" />
    <glyph glyph-name="Ecircumflexdotbelow" unicode="&#x1ec6;" horiz-adv-x="493" 
d="M162 731l-20 43q66 44 124 96h24q54 -48 124 -96l-19 -43h-11q-79 49 -106 66q-28 -19 -105 -66h-11zM466 88l6 -9l-7 -79h-379l7 193l-7 449h381l6 -9l-8 -79l-152 4l-122 -1l-3 -187l116 -2l106 3l7 -8l-8 -79l-113 3l-109 -2l-1 -83l3 -118l122 -1zM288 -62
q25 0 39 -14.5t14 -40.5q0 -27 -15 -43t-41 -16t-40.5 15t-14.5 41t15.5 42t42.5 16z" />
    <glyph glyph-name="ecircumflexdotbelow" unicode="&#x1ec7;" horiz-adv-x="444" 
d="M130 564l-27 40q57 54 130 137h26q72 -83 129 -137l-27 -40h-10q-69 60 -105 100q-35 -37 -105 -100h-11zM405 80l7 -7l-8 -73h-321l4 150l-4 351h324l6 -8l-7 -73l-127 5l-100 -1l-2 -130l96 -1l87 3l5 -8l-6 -74l-94 3l-89 -1l-1 -57l2 -82l93 -1zM250 -62
q25 0 39 -14.5t14 -40.5q0 -27 -15 -43t-41 -16t-40.5 15t-14.5 41t15.5 42t42.5 16z" />
    <glyph glyph-name="Ihookabove" unicode="&#x1ec8;" horiz-adv-x="279" 
d="M132 905q30 0 50.5 -18t20.5 -45q0 -34 -54 -78l21 -37l-40 -22l-36 59q51 38 51 68q0 21 -28 21q-30 0 -60 -24l-19 30q46 46 94 46zM186 202l5 -202h-105l7 193l-7 449h106z" />
    <glyph glyph-name="ihookabove" unicode="&#x1ec9;" horiz-adv-x="267" 
d="M128 764q30 0 50.5 -18t20.5 -45q0 -34 -54 -78l21 -37l-40 -22l-36 59q51 38 51 68q0 21 -28 21q-30 0 -60 -24l-19 30q46 46 94 46zM175 159l4 -159h-96l4 150l-4 351h97z" />
    <glyph glyph-name="Idotbelow" unicode="&#x1eca;" horiz-adv-x="279" 
d="M186 202l5 -202h-105l7 193l-7 449h106zM135 -62q25 0 39 -14.5t14 -40.5q0 -27 -15 -43t-41 -16t-40.5 15t-14.5 41t15.5 42t42.5 16z" />
    <glyph glyph-name="idotbelow" unicode="&#x1ecb;" horiz-adv-x="267" 
d="M175 159l4 -159h-96l4 150l-4 351h97zM132 -62q25 0 39 -14.5t14 -40.5q0 -27 -15 -43t-41 -16t-40.5 15t-14.5 41t15.5 42t42.5 16z" />
    <glyph glyph-name="Odotbelow" unicode="&#x1ecc;" horiz-adv-x="639" 
d="M329 650q133 0 204.5 -82t71.5 -234q0 -164 -77 -253.5t-218 -89.5q-132 0 -204 84.5t-72 239.5q0 161 76.5 248t218.5 87zM320 565q-92 0 -136 -57.5t-44 -179.5q0 -131 43.5 -192.5t134.5 -61.5t135.5 58.5t44.5 182.5q0 130 -43.5 190t-134.5 60zM322 -62
q25 0 39 -14.5t14 -40.5q0 -27 -15 -43t-41 -16t-40.5 15t-14.5 41t15.5 42t42.5 16z" />
    <glyph glyph-name="odotbelow" unicode="&#x1ecd;" horiz-adv-x="558" 
d="M288 508q110 0 170.5 -64.5t60.5 -181.5q0 -130 -64.5 -200t-183.5 -70q-111 0 -171 66t-60 187q0 126 64.5 194.5t183.5 68.5zM279 429q-72 0 -105.5 -40.5t-33.5 -131.5q0 -101 33 -144t105 -43q73 0 107 40.5t34 132.5q0 100 -33 143t-107 43zM283 -62q25 0 39 -14.5
t14 -40.5q0 -27 -15 -43t-41 -16t-40.5 15t-14.5 41t15.5 42t42.5 16z" />
    <glyph glyph-name="Ohookabove" unicode="&#x1ece;" horiz-adv-x="639" 
d="M314 905q30 0 50.5 -18t20.5 -45q0 -34 -54 -78l21 -37l-40 -22l-36 59q51 38 51 68q0 21 -28 21q-30 0 -60 -24l-19 30q46 46 94 46zM329 650q133 0 204.5 -82t71.5 -234q0 -164 -77 -253.5t-218 -89.5q-132 0 -204 84.5t-72 239.5q0 161 76.5 248t218.5 87zM320 565
q-92 0 -136 -57.5t-44 -179.5q0 -131 43.5 -192.5t134.5 -61.5t135.5 58.5t44.5 182.5q0 130 -43.5 190t-134.5 60z" />
    <glyph glyph-name="ohookabove" unicode="&#x1ecf;" horiz-adv-x="558" 
d="M274 764q30 0 50.5 -18t20.5 -45q0 -34 -54 -78l21 -37l-40 -22l-36 59q51 38 51 68q0 21 -28 21q-30 0 -60 -24l-19 30q46 46 94 46zM288 508q110 0 170.5 -64.5t60.5 -181.5q0 -130 -64.5 -200t-183.5 -70q-111 0 -171 66t-60 187q0 126 64.5 194.5t183.5 68.5z
M279 429q-72 0 -105.5 -40.5t-33.5 -131.5q0 -101 33 -144t105 -43q73 0 107 40.5t34 132.5q0 100 -33 143t-107 43z" />
    <glyph glyph-name="Ocircumflexacute" unicode="&#x1ed0;" horiz-adv-x="639" 
d="M503 943l1 -9l-87 -109h-8l-35 28l70 111l8 3zM203 711l-20 43q66 44 124 96h24q54 -48 124 -96l-19 -43h-11q-79 49 -106 66q-28 -19 -105 -66h-11zM329 650q133 0 204.5 -82t71.5 -234q0 -164 -77 -253.5t-218 -89.5q-132 0 -204 84.5t-72 239.5q0 161 76.5 248
t218.5 87zM320 565q-92 0 -136 -57.5t-44 -179.5q0 -131 43.5 -192.5t134.5 -61.5t135.5 58.5t44.5 182.5q0 130 -43.5 190t-134.5 60z" />
    <glyph glyph-name="ocircumflexacute" unicode="&#x1ed1;" horiz-adv-x="558" 
d="M464 802l1 -9l-87 -109h-8l-35 28l70 111l8 3zM164 570l-20 43q66 44 124 96h24q54 -48 124 -96l-19 -43h-11q-79 49 -106 66q-28 -19 -105 -66h-11zM288 508q110 0 170.5 -64.5t60.5 -181.5q0 -130 -64.5 -200t-183.5 -70q-111 0 -171 66t-60 187q0 126 64.5 194.5
t183.5 68.5zM279 429q-72 0 -105.5 -40.5t-33.5 -131.5q0 -101 33 -144t105 -43q73 0 107 40.5t34 132.5q0 100 -33 143t-107 43z" />
    <glyph glyph-name="Ocircumflexgrave" unicode="&#x1ed2;" horiz-adv-x="639" 
d="M397 964l70 -111l-35 -28h-8l-87 109l1 9l52 24zM203 711l-20 43q66 44 124 96h24q54 -48 124 -96l-19 -43h-11q-79 49 -106 66q-28 -19 -105 -66h-11zM329 650q133 0 204.5 -82t71.5 -234q0 -164 -77 -253.5t-218 -89.5q-132 0 -204 84.5t-72 239.5q0 161 76.5 248
t218.5 87zM320 565q-92 0 -136 -57.5t-44 -179.5q0 -131 43.5 -192.5t134.5 -61.5t135.5 58.5t44.5 182.5q0 130 -43.5 190t-134.5 60z" />
    <glyph glyph-name="ocircumflexgrave" unicode="&#x1ed3;" horiz-adv-x="558" 
d="M358 823l70 -111l-35 -28h-8l-87 109l1 9l52 24zM164 570l-20 43q66 44 124 96h24q54 -48 124 -96l-19 -43h-11q-79 49 -106 66q-28 -19 -105 -66h-11zM288 508q110 0 170.5 -64.5t60.5 -181.5q0 -130 -64.5 -200t-183.5 -70q-111 0 -171 66t-60 187q0 126 64.5 194.5
t183.5 68.5zM279 429q-72 0 -105.5 -40.5t-33.5 -131.5q0 -101 33 -144t105 -43q73 0 107 40.5t34 132.5q0 100 -33 143t-107 43z" />
    <glyph glyph-name="Ocircumflexhookabove" unicode="&#x1ed4;" horiz-adv-x="639" 
d="M417 1008q29 0 48 -17t19 -43q0 -32 -51 -74l20 -35l-38 -22l-34 57q48 37 48 64q0 21 -26 21q-29 0 -57 -23l-18 28q42 44 89 44zM203 711l-20 43q66 44 124 96h24q54 -48 124 -96l-19 -43h-11q-79 49 -106 66q-28 -19 -105 -66h-11zM329 650q133 0 204.5 -82t71.5 -234
q0 -164 -77 -253.5t-218 -89.5q-132 0 -204 84.5t-72 239.5q0 161 76.5 248t218.5 87zM320 565q-92 0 -136 -57.5t-44 -179.5q0 -131 43.5 -192.5t134.5 -61.5t135.5 58.5t44.5 182.5q0 130 -43.5 190t-134.5 60z" />
    <glyph glyph-name="ocircumflexhookabove" unicode="&#x1ed5;" horiz-adv-x="558" 
d="M378 867q29 0 48 -17t19 -43q0 -31 -51 -74l20 -35l-38 -22l-34 57q48 37 48 64q0 21 -26 21q-29 0 -57 -23l-18 28q42 44 89 44zM164 570l-20 43q66 44 124 96h24q54 -48 124 -96l-19 -43h-11q-79 49 -106 66q-28 -19 -105 -66h-11zM288 508q110 0 170.5 -64.5
t60.5 -181.5q0 -130 -64.5 -200t-183.5 -70q-111 0 -171 66t-60 187q0 126 64.5 194.5t183.5 68.5zM279 429q-72 0 -105.5 -40.5t-33.5 -131.5q0 -101 33 -144t105 -43q73 0 107 40.5t34 132.5q0 100 -33 143t-107 43z" />
    <glyph glyph-name="Ocircumflextilde" unicode="&#x1ed6;" horiz-adv-x="639" 
d="M477 960v-9l-60 -74l-11 -4q-20 2 -76 18.5t-68 16.5q-5 0 -9.5 -2t-10.5 -7.5t-10 -9.5t-12.5 -14t-12.5 -14h-9l-29 30v9l61 74l10 4q21 -3 77 -19t67 -16q5 0 10 2t10.5 7.5l10 10t12.5 13.5t13 14h9zM203 711l-20 43q66 44 124 96h24q54 -48 124 -96l-19 -43h-11
q-79 49 -106 66q-28 -19 -105 -66h-11zM329 650q133 0 204.5 -82t71.5 -234q0 -164 -77 -253.5t-218 -89.5q-132 0 -204 84.5t-72 239.5q0 161 76.5 248t218.5 87zM320 565q-92 0 -136 -57.5t-44 -179.5q0 -131 43.5 -192.5t134.5 -61.5t135.5 58.5t44.5 182.5
q0 130 -43.5 190t-134.5 60z" />
    <glyph glyph-name="ocircumflextilde" unicode="&#x1ed7;" horiz-adv-x="558" 
d="M438 819v-9l-60 -74l-11 -4q-20 2 -76 18.5t-68 16.5q-5 0 -9.5 -2t-10.5 -7.5t-10 -9.5t-12.5 -14t-12.5 -14h-9l-29 30v9l61 74l10 4q21 -3 77 -19t67 -16q5 0 10 2t10.5 7.5l10 10t12.5 13.5t13 14h9zM164 570l-20 43q66 44 124 96h24q54 -48 124 -96l-19 -43h-11
q-79 49 -106 66q-28 -19 -105 -66h-11zM288 508q110 0 170.5 -64.5t60.5 -181.5q0 -130 -64.5 -200t-183.5 -70q-111 0 -171 66t-60 187q0 126 64.5 194.5t183.5 68.5zM279 429q-72 0 -105.5 -40.5t-33.5 -131.5q0 -101 33 -144t105 -43q73 0 107 40.5t34 132.5
q0 100 -33 143t-107 43z" />
    <glyph glyph-name="Ocircumflexdotbelow" unicode="&#x1ed8;" horiz-adv-x="639" 
d="M212 725l-20 43q66 44 124 96h24q54 -48 124 -96l-19 -43h-11q-79 49 -106 66q-28 -19 -105 -66h-11zM329 650q133 0 204.5 -82t71.5 -234q0 -164 -77 -253.5t-218 -89.5q-132 0 -204 84.5t-72 239.5q0 161 76.5 248t218.5 87zM320 565q-92 0 -136 -57.5t-44 -179.5
q0 -131 43.5 -192.5t134.5 -61.5t135.5 58.5t44.5 182.5q0 130 -43.5 190t-134.5 60zM322 -62q25 0 39 -14.5t14 -40.5q0 -27 -15 -43t-41 -16t-40.5 15t-14.5 41t15.5 42t42.5 16z" />
    <glyph glyph-name="ocircumflexdotbelow" unicode="&#x1ed9;" horiz-adv-x="558" 
d="M166 564l-27 40q57 54 130 137h26q72 -83 129 -137l-27 -40h-10q-69 60 -105 100q-35 -37 -105 -100h-11zM288 508q110 0 170.5 -64.5t60.5 -181.5q0 -130 -64.5 -200t-183.5 -70q-111 0 -171 66t-60 187q0 126 64.5 194.5t183.5 68.5zM279 429q-72 0 -105.5 -40.5
t-33.5 -131.5q0 -101 33 -144t105 -43q73 0 107 40.5t34 132.5q0 100 -33 143t-107 43zM283 -62q25 0 39 -14.5t14 -40.5q0 -27 -15 -43t-41 -16t-40.5 15t-14.5 41t15.5 42t42.5 16z" />
    <glyph glyph-name="Ohornacute" unicode="&#x1eda;" horiz-adv-x="644" 
d="M436 872l27 -61l-4 -10q-66 -29 -203 -82l-11 4l-17 44q130 67 198 107zM583 769q23 0 41.5 -25.5t18.5 -63.5q0 -48 -33 -77.5t-84 -34.5q79 -80 79 -238q0 -160 -77 -249.5t-216 -89.5q-134 0 -206 84.5t-72 238.5q0 161 76.5 248.5t211.5 87.5q51 0 104 -16.5
t70 -16.5q29 0 48 15t19 41q0 38 -32 68l2 8q25 20 50 20zM319 565q-91 0 -135 -58t-44 -181q0 -130 43.5 -191t135.5 -61q91 0 135 59t44 183q0 129 -43.5 189t-135.5 60z" />
    <glyph glyph-name="ohornacute" unicode="&#x1edb;" horiz-adv-x="564" 
d="M390 731l27 -61l-4 -10q-66 -29 -203 -82l-11 4l-17 44q130 67 198 107zM452 577l2 8q28 18 45 18q21 0 37.5 -21.5t16.5 -53.5q0 -38 -25 -63t-66 -33q57 -63 57 -174q0 -125 -64.5 -195.5t-181.5 -70.5q-112 0 -172.5 66t-60.5 187q0 125 64.5 194t179.5 69
q42 0 86.5 -11.5t58.5 -11.5q50 0 50 40q0 28 -27 52zM281 66q71 0 104.5 42.5t33.5 138.5q0 97 -33.5 139.5t-107.5 42.5q-72 0 -105 -41.5t-33 -136.5q0 -98 34 -141.5t107 -43.5z" />
    <glyph glyph-name="Ohorngrave" unicode="&#x1edc;" horiz-adv-x="644" 
d="M230 873l10 2q68 -40 198 -107l-17 -44l-11 -4q-137 53 -203 82l-4 10zM583 769q23 0 41.5 -25.5t18.5 -63.5q0 -48 -33 -77.5t-84 -34.5q79 -80 79 -238q0 -160 -77 -249.5t-216 -89.5q-134 0 -206 84.5t-72 238.5q0 161 76.5 248.5t211.5 87.5q51 0 104 -16.5t70 -16.5
q29 0 48 15t19 41q0 38 -32 68l2 8q25 20 50 20zM319 565q-91 0 -135 -58t-44 -181q0 -130 43.5 -191t135.5 -61q91 0 135 59t44 183q0 129 -43.5 189t-135.5 60z" />
    <glyph glyph-name="ohorngrave" unicode="&#x1edd;" horiz-adv-x="564" 
d="M184 732l10 2q68 -40 198 -107l-17 -44l-11 -4q-137 53 -203 82l-4 10zM452 577l2 8q28 18 45 18q21 0 37.5 -21.5t16.5 -53.5q0 -38 -25 -63t-66 -33q57 -63 57 -174q0 -125 -64.5 -195.5t-181.5 -70.5q-112 0 -172.5 66t-60.5 187q0 125 64.5 194t179.5 69
q42 0 86.5 -11.5t58.5 -11.5q50 0 50 40q0 28 -27 52zM281 66q71 0 104.5 42.5t33.5 138.5q0 97 -33.5 139.5t-107.5 42.5q-72 0 -105 -41.5t-33 -136.5q0 -98 34 -141.5t107 -43.5z" />
    <glyph glyph-name="Ohornhookabove" unicode="&#x1ede;" horiz-adv-x="644" 
d="M314 905q30 0 50.5 -18t20.5 -45q0 -34 -54 -78l21 -37l-40 -22l-36 59q51 38 51 68q0 21 -28 21q-30 0 -60 -24l-19 30q46 46 94 46zM583 769q23 0 41.5 -25.5t18.5 -63.5q0 -48 -33 -77.5t-84 -34.5q79 -80 79 -238q0 -160 -77 -249.5t-216 -89.5q-134 0 -206 84.5
t-72 238.5q0 161 76.5 248.5t211.5 87.5q51 0 104 -16.5t70 -16.5q29 0 48 15t19 41q0 38 -32 68l2 8q25 20 50 20zM319 565q-91 0 -135 -58t-44 -181q0 -130 43.5 -191t135.5 -61q91 0 135 59t44 183q0 129 -43.5 189t-135.5 60z" />
    <glyph glyph-name="ohornhookabove" unicode="&#x1edf;" horiz-adv-x="564" 
d="M268 764q30 0 50.5 -18t20.5 -45q0 -34 -54 -78l21 -37l-40 -22l-36 59q51 38 51 68q0 21 -28 21q-30 0 -60 -24l-19 30q46 46 94 46zM452 577l2 8q28 18 45 18q21 0 37.5 -21.5t16.5 -53.5q0 -38 -25 -63t-66 -33q57 -63 57 -174q0 -125 -64.5 -195.5t-181.5 -70.5
q-112 0 -172.5 66t-60.5 187q0 125 64.5 194t179.5 69q42 0 86.5 -11.5t58.5 -11.5q50 0 50 40q0 28 -27 52zM281 66q71 0 104.5 42.5t33.5 138.5q0 97 -33.5 139.5t-107.5 42.5q-72 0 -105 -41.5t-33 -136.5q0 -98 34 -141.5t107 -43.5z" />
    <glyph glyph-name="Ohorntilde" unicode="&#x1ee0;" horiz-adv-x="644" 
d="M484 831v-9l-65 -77l-10 -5q-21 3 -81.5 20t-73.5 17q-5 0 -10.5 -2.5t-11.5 -7.5t-10.5 -10t-13 -14t-13.5 -15h-10l-31 32v9l65 77l11 4q21 -3 81.5 -19.5t73.5 -16.5q4 0 7.5 1t7.5 4t7.5 5.5t8.5 8t8 9t9.5 10.5t10.5 11h10zM583 769q23 0 41.5 -25.5t18.5 -63.5
q0 -48 -33 -77.5t-84 -34.5q79 -80 79 -238q0 -160 -77 -249.5t-216 -89.5q-134 0 -206 84.5t-72 238.5q0 161 76.5 248.5t211.5 87.5q51 0 104 -16.5t70 -16.5q29 0 48 15t19 41q0 38 -32 68l2 8q25 20 50 20zM319 565q-91 0 -135 -58t-44 -181q0 -130 43.5 -191t135.5 -61
q91 0 135 59t44 183q0 129 -43.5 189t-135.5 60z" />
    <glyph glyph-name="ohorntilde" unicode="&#x1ee1;" horiz-adv-x="564" 
d="M439 690v-9l-65 -77l-10 -5q-21 3 -81.5 20t-73.5 17q-5 0 -10.5 -2.5t-11.5 -7.5t-10.5 -10t-13 -14t-13.5 -15h-10l-31 32v9l65 77l11 4q21 -3 81.5 -19.5t73.5 -16.5q4 0 7.5 1t7.5 4t7.5 5.5t8.5 8t8 9t9.5 10.5t10.5 11h10zM452 577l2 8q28 18 45 18
q21 0 37.5 -21.5t16.5 -53.5q0 -38 -25 -63t-66 -33q57 -63 57 -174q0 -125 -64.5 -195.5t-181.5 -70.5q-112 0 -172.5 66t-60.5 187q0 125 64.5 194t179.5 69q42 0 86.5 -11.5t58.5 -11.5q50 0 50 40q0 28 -27 52zM281 66q71 0 104.5 42.5t33.5 138.5q0 97 -33.5 139.5
t-107.5 42.5q-72 0 -105 -41.5t-33 -136.5q0 -98 34 -141.5t107 -43.5z" />
    <glyph glyph-name="Ohorndotbelow" unicode="&#x1ee2;" horiz-adv-x="644" 
d="M583 769q23 0 41.5 -25.5t18.5 -63.5q0 -48 -33 -77.5t-84 -34.5q79 -80 79 -238q0 -160 -77 -249.5t-216 -89.5q-134 0 -206 84.5t-72 238.5q0 161 76.5 248.5t211.5 87.5q51 0 104 -16.5t70 -16.5q29 0 48 15t19 41q0 38 -32 68l2 8q25 20 50 20zM319 565
q-91 0 -135 -58t-44 -181q0 -130 43.5 -191t135.5 -61q91 0 135 59t44 183q0 129 -43.5 189t-135.5 60zM322 -62q25 0 39 -14.5t14 -40.5q0 -27 -15 -43t-41 -16t-40.5 15t-14.5 41t15.5 42t42.5 16z" />
    <glyph glyph-name="ohorndotbelow" unicode="&#x1ee3;" horiz-adv-x="564" 
d="M452 577l2 8q28 18 45 18q21 0 37.5 -21.5t16.5 -53.5q0 -38 -25 -63t-66 -33q57 -63 57 -174q0 -125 -64.5 -195.5t-181.5 -70.5q-112 0 -172.5 66t-60.5 187q0 125 64.5 194t179.5 69q42 0 86.5 -11.5t58.5 -11.5q50 0 50 40q0 28 -27 52zM281 66q71 0 104.5 42.5
t33.5 138.5q0 97 -33.5 139.5t-107.5 42.5q-72 0 -105 -41.5t-33 -136.5q0 -98 34 -141.5t107 -43.5zM283 -62q25 0 39 -14.5t14 -40.5q0 -27 -15 -43t-41 -16t-40.5 15t-14.5 41t15.5 42t42.5 16z" />
    <glyph glyph-name="Udotbelow" unicode="&#x1ee4;" horiz-adv-x="631" 
d="M560 316l-1 -76q2 -118 -64 -183t-187 -65q-117 0 -179 62.5t-60 177.5l2 89l-2 321h102l-4 -396q-1 -166 148 -166q150 0 149 156l-5 406h104zM315 -62q25 0 39 -14.5t14 -40.5q0 -27 -15 -43t-41 -16t-40.5 15t-14.5 41t15.5 42t42.5 16z" />
    <glyph glyph-name="udotbelow" unicode="&#x1ee5;" horiz-adv-x="552" 
d="M482 246l-1 -74q1 -85 -54 -132t-156 -47q-100 0 -152 46.5t-50 132.5l1 77l-3 252h97l-5 -314q-1 -57 28 -85.5t88 -28.5q58 0 88 28.5t29 85.5l-4 314h97zM278 -62q25 0 39 -14.5t14 -40.5q0 -27 -15 -43t-41 -16t-40.5 15t-14.5 41t15.5 42t42.5 16z" />
    <glyph glyph-name="Uhookabove" unicode="&#x1ee6;" horiz-adv-x="631" 
d="M311 905q30 0 50.5 -18t20.5 -45q0 -34 -54 -78l21 -37l-40 -22l-36 59q51 38 51 68q0 21 -28 21q-30 0 -60 -24l-19 30q46 46 94 46zM560 316l-1 -76q2 -118 -64 -183t-187 -65q-117 0 -179 62.5t-60 177.5l2 89l-2 321h102l-4 -396q-1 -166 148 -166q150 0 149 156
l-5 406h104z" />
    <glyph glyph-name="uhookabove" unicode="&#x1ee7;" horiz-adv-x="552" 
d="M271 764q30 0 50.5 -18t20.5 -45q0 -34 -54 -78l21 -37l-40 -22l-36 59q51 38 51 68q0 21 -28 21q-30 0 -60 -24l-19 30q46 46 94 46zM482 246l-1 -74q1 -85 -54 -132t-156 -47q-100 0 -152 46.5t-50 132.5l1 77l-3 252h97l-5 -314q-1 -57 28 -85.5t88 -28.5
q58 0 88 28.5t29 85.5l-4 314h97z" />
    <glyph glyph-name="Uhornacute" unicode="&#x1ee8;" horiz-adv-x="641" 
d="M243 723l-17 44q130 67 198 107l10 -2l27 -61l-4 -10q-66 -29 -203 -82zM651 700q0 -35 -23.5 -62.5t-64.5 -40.5l-3 -281l-1 -76q2 -118 -64 -183t-187 -65q-117 0 -179 62.5t-60 177.5l2 89l-2 321h102l-4 -396q-1 -166 148 -166q150 0 149 156l-5 406h48q64 0 64 50
q0 32 -32 60l3 9q27 20 49 20t41 -23.5t19 -57.5z" />
    <glyph glyph-name="uhornacute" unicode="&#x1ee9;" horiz-adv-x="562" 
d="M193 582l-17 44q130 67 198 107l10 -2l27 -61l-4 -10q-66 -29 -203 -82zM479 246v-74q1 -86 -54 -132.5t-156 -46.5q-100 0 -152.5 46.5t-50.5 132.5l1 77l-2 252h97l-6 -314q-2 -114 117 -114q58 0 87.5 28.5t28.5 85.5l-4 314h48q51 0 51 39q0 26 -25 47l2 8
q25 17 46 17q20 0 36 -18.5t16 -45.5q0 -30 -20.5 -53.5t-56.5 -34.5z" />
    <glyph glyph-name="Uhorngrave" unicode="&#x1eea;" horiz-adv-x="641" 
d="M419 724l-11 -4q-137 53 -203 82l-4 10l27 61l10 2q68 -40 198 -107zM651 700q0 -35 -23.5 -62.5t-64.5 -40.5l-3 -281l-1 -76q2 -118 -64 -183t-187 -65q-117 0 -179 62.5t-60 177.5l2 89l-2 321h102l-4 -396q-1 -166 148 -166q150 0 149 156l-5 406h48q64 0 64 50
q0 32 -32 60l3 9q27 20 49 20t41 -23.5t19 -57.5z" />
    <glyph glyph-name="uhorngrave" unicode="&#x1eeb;" horiz-adv-x="562" 
d="M369 583l-11 -4q-137 53 -203 82l-4 10l27 61l10 2q68 -40 198 -107zM479 246v-74q1 -86 -54 -132.5t-156 -46.5q-100 0 -152.5 46.5t-50.5 132.5l1 77l-2 252h97l-6 -314q-2 -114 117 -114q58 0 87.5 28.5t28.5 85.5l-4 314h48q51 0 51 39q0 26 -25 47l2 8q25 17 46 17
q20 0 36 -18.5t16 -45.5q0 -30 -20.5 -53.5t-56.5 -34.5z" />
    <glyph glyph-name="Uhornhookabove" unicode="&#x1eec;" horiz-adv-x="641" 
d="M296 853q-30 0 -60 -24l-19 30q46 46 94 46q30 0 50.5 -18t20.5 -45q0 -34 -54 -78l21 -37l-40 -22l-36 59q51 38 51 68q0 21 -28 21zM651 700q0 -35 -23.5 -62.5t-64.5 -40.5l-3 -281l-1 -76q2 -118 -64 -183t-187 -65q-117 0 -179 62.5t-60 177.5l2 89l-2 321h102
l-4 -396q-1 -166 148 -166q150 0 149 156l-5 406h48q64 0 64 50q0 32 -32 60l3 9q27 20 49 20t41 -23.5t19 -57.5z" />
    <glyph glyph-name="uhornhookabove" unicode="&#x1eed;" horiz-adv-x="562" 
d="M246 712q-30 0 -60 -24l-19 30q46 46 94 46q30 0 50.5 -18t20.5 -45q0 -34 -54 -78l21 -37l-40 -22l-36 59q51 38 51 68q0 21 -28 21zM479 246v-74q1 -86 -54 -132.5t-156 -46.5q-100 0 -152.5 46.5t-50.5 132.5l1 77l-2 252h97l-6 -314q-2 -114 117 -114q58 0 87.5 28.5
t28.5 85.5l-4 314h48q51 0 51 39q0 26 -25 47l2 8q25 17 46 17q20 0 36 -18.5t16 -45.5q0 -30 -20.5 -53.5t-56.5 -34.5z" />
    <glyph glyph-name="Uhorntilde" unicode="&#x1eee;" horiz-adv-x="641" 
d="M183 728l-31 32v9l65 77l11 4q21 -3 81.5 -19.5t73.5 -16.5q4 0 7.5 1t7.5 4t7.5 5.5t8.5 8t8 9t9.5 10.5t10.5 11h10l30 -32v-9l-65 -77l-10 -5q-21 3 -81.5 20t-73.5 17q-5 0 -10.5 -2.5t-11.5 -7.5t-10.5 -10t-13 -14t-13.5 -15h-10zM651 700q0 -35 -23.5 -62.5
t-64.5 -40.5l-3 -281l-1 -76q2 -118 -64 -183t-187 -65q-117 0 -179 62.5t-60 177.5l2 89l-2 321h102l-4 -396q-1 -166 148 -166q150 0 149 156l-5 406h48q64 0 64 50q0 32 -32 60l3 9q27 20 49 20t41 -23.5t19 -57.5z" />
    <glyph glyph-name="uhorntilde" unicode="&#x1eef;" horiz-adv-x="562" 
d="M133 587l-31 32v9l65 77l11 4q21 -3 81.5 -19.5t73.5 -16.5q4 0 7.5 1t7.5 4t7.5 5.5t8.5 8t8 9t9.5 10.5t10.5 11h10l30 -32v-9l-65 -77l-10 -5q-21 3 -81.5 20t-73.5 17q-5 0 -10.5 -2.5t-11.5 -7.5t-10.5 -10t-13 -14t-13.5 -15h-10zM479 246v-74q1 -86 -54 -132.5
t-156 -46.5q-100 0 -152.5 46.5t-50.5 132.5l1 77l-2 252h97l-6 -314q-2 -114 117 -114q58 0 87.5 28.5t28.5 85.5l-4 314h48q51 0 51 39q0 26 -25 47l2 8q25 17 46 17q20 0 36 -18.5t16 -45.5q0 -30 -20.5 -53.5t-56.5 -34.5z" />
    <glyph glyph-name="Uhorndotbelow" unicode="&#x1ef0;" horiz-adv-x="641" 
d="M651 700q0 -35 -23.5 -62.5t-64.5 -40.5l-3 -281l-1 -76q2 -118 -64 -183t-187 -65q-117 0 -179 62.5t-60 177.5l2 89l-2 321h102l-4 -396q-1 -166 148 -166q150 0 149 156l-5 406h48q64 0 64 50q0 32 -32 60l3 9q27 20 49 20t41 -23.5t19 -57.5zM317 -62q25 0 39 -14.5
t14 -40.5q0 -27 -15 -43t-41 -16t-40.5 15t-14.5 41t15.5 42t42.5 16z" />
    <glyph glyph-name="uhorndotbelow" unicode="&#x1ef1;" horiz-adv-x="562" 
d="M479 246v-74q1 -86 -54 -132.5t-156 -46.5q-100 0 -152.5 46.5t-50.5 132.5l1 77l-2 252h97l-6 -314q-2 -114 117 -114q58 0 87.5 28.5t28.5 85.5l-4 314h48q51 0 51 39q0 26 -25 47l2 8q25 17 46 17q20 0 36 -18.5t16 -45.5q0 -30 -20.5 -53.5t-56.5 -34.5zM279 -62
q25 0 39 -14.5t14 -40.5q0 -27 -15 -43t-41 -16t-40.5 15t-14.5 41t15.5 42t42.5 16z" />
    <glyph glyph-name="Ygrave" unicode="&#x1ef2;" horiz-adv-x="541" 
d="M367 724l-11 -4q-137 53 -203 82l-4 10l27 61l10 2q68 -40 198 -107zM309 184l5 -184h-104l6 184l-1 41l-204 417h110l13 -40l127 -269h9l140 267l16 42h108l-224 -418z" />
    <glyph glyph-name="ygrave" unicode="&#x1ef3;" horiz-adv-x="483" 
d="M329 560l-10 -1q-102 66 -181 124l-2 10l38 54l10 1q66 -63 171 -148zM278 140l4 -140h-96l4 140l-1 28l-169 333h102l12 -32l99 -199h7l110 195l15 36h100l-186 -330z" />
    <glyph glyph-name="Ydotbelow" unicode="&#x1ef4;" horiz-adv-x="541" 
d="M215 225l-204 417h110l13 -40l127 -269h9l140 267l16 42h108l-224 -418l-1 -40l5 -184h-104l6 184zM264 -62q25 0 39 -14.5t14 -40.5q0 -27 -15 -43t-41 -16t-40.5 15t-14.5 41t15.5 42t42.5 16z" />
    <glyph glyph-name="ydotbelow" unicode="&#x1ef5;" horiz-adv-x="483" 
d="M189 168l-169 333h102l12 -32l99 -199h7l110 195l15 36h100l-186 -330l-1 -31l4 -140h-96l4 140zM235 -62q25 0 39 -14.5t14 -40.5q0 -27 -15 -43t-41 -16t-40.5 15t-14.5 41t15.5 42t42.5 16z" />
    <glyph glyph-name="Yhookabove" unicode="&#x1ef6;" horiz-adv-x="541" 
d="M244 853q-30 0 -60 -24l-19 30q46 46 94 46q30 0 50.5 -18t20.5 -45q0 -34 -54 -78l21 -37l-40 -22l-36 59q51 38 51 68q0 21 -28 21zM309 184l5 -184h-104l6 184l-1 41l-204 417h110l13 -40l127 -269h9l140 267l16 42h108l-224 -418z" />
    <glyph glyph-name="yhookabove" unicode="&#x1ef7;" horiz-adv-x="483" 
d="M224 712q-30 0 -60 -24l-19 30q46 46 94 46q30 0 50.5 -18t20.5 -45q0 -34 -54 -78l21 -37l-40 -22l-36 59q51 38 51 68q0 21 -28 21zM278 140l4 -140h-96l4 140l-1 28l-169 333h102l12 -32l99 -199h7l110 195l15 36h100l-186 -330z" />
    <glyph glyph-name="endash" unicode="&#x2013;" horiz-adv-x="473" 
d="M488 284l-5 -63h-491l-7 8l6 63h490z" />
    <glyph glyph-name="emdash" unicode="&#x2014;" horiz-adv-x="912" 
d="M930 284l-6 -63h-934l-6 8l5 63h933z" />
    <glyph glyph-name="quoteleft" unicode="&#x2018;" horiz-adv-x="183" 
d="M88 417q-55 25 -55 83q0 68 81 146l37 -25l2 -8q-42 -43 -42 -84q0 -43 39 -62v-9q-24 -21 -62 -41z" />
    <glyph glyph-name="quoteright" unicode="&#x2019;" horiz-adv-x="183" 
d="M98 645q55 -25 55 -82q0 -69 -81 -147l-37 25l-1 8q41 44 41 84q0 43 -39 62v9q28 25 62 41z" />
    <glyph glyph-name="quotesinglbase" unicode="&#x201a;" horiz-adv-x="229" 
d="M130 106q43 -31 43 -75q0 -74 -106 -150l-34 30v8q55 46 55 92q0 30 -31 53v9q37 24 73 33z" />
    <glyph glyph-name="quotedblleft" unicode="&#x201c;" horiz-adv-x="321" 
d="M83 417q-55 25 -55 82q0 69 81 147l37 -25l1 -8q-41 -44 -41 -84q0 -43 39 -62v-9q-28 -25 -62 -41zM229 417q-55 25 -55 82q0 69 81 147l37 -25l1 -8q-41 -44 -41 -84q0 -43 39 -62v-9q-28 -25 -62 -41z" />
    <glyph glyph-name="quotedblright" unicode="&#x201d;" horiz-adv-x="324" 
d="M95 645q55 -25 55 -82q0 -69 -81 -147l-37 25l-1 8q42 43 42 84q0 43 -40 62v9q32 27 62 41zM237 645q55 -25 55 -82q0 -69 -81 -147l-37 25l-1 8q41 44 41 84q0 43 -39 62v9q28 25 62 41z" />
    <glyph glyph-name="quotedblbase" unicode="&#x201e;" horiz-adv-x="374" 
d="M130 106q43 -31 43 -75q0 -74 -106 -150l-34 30v8q55 46 55 92q0 30 -31 53v9q37 24 73 33zM274 106q43 -31 43 -75q0 -75 -105 -150l-34 30v8q55 46 55 92q0 30 -31 53v9q37 24 72 33z" />
    <glyph glyph-name="dagger" unicode="&#x2020;" horiz-adv-x="490" 
d="M444 337h-165v-49v-378l-64 -4l-7 8v423h-160l-7 8l6 62h161v178l66 5l6 -5l-1 -178h163l8 -7z" />
    <glyph glyph-name="daggerdbl" unicode="&#x2021;" horiz-adv-x="490" 
d="M442 147l8 -7l-6 -63h-165v-167l-64 -4l-7 8v163h-160l-7 8l6 62h161v198h-160l-7 8l6 61h161v171l66 5l6 -5l-1 -171h163l8 -7l-6 -62h-165v-57v-141h163z" />
    <glyph glyph-name="bullet" unicode="&#x2022;" horiz-adv-x="264" 
d="M134 307q29 0 45.5 -17t16.5 -46q0 -32 -18 -51t-49 -19q-30 0 -46.5 17t-16.5 48t18.5 49.5t49.5 18.5z" />
    <glyph glyph-name="onedotenleader" unicode="&#x2024;" horiz-adv-x="229" 
d="M116 108q25 0 39 -14.5t14 -40.5q0 -27 -15 -43t-41 -16t-40.5 15t-14.5 41t15.5 42t42.5 16z" />
    <glyph glyph-name="twodotenleader" unicode="&#x2025;" horiz-adv-x="416" 
d="M112 108q25 0 39 -14.5t14 -40.5q0 -27 -15.5 -43t-41.5 -16q-25 0 -39.5 15t-14.5 41t15.5 42t42.5 16zM299 108q25 0 39 -14.5t14 -40.5q0 -27 -15.5 -43t-41.5 -16q-54 0 -54 56q0 26 15.5 42t42.5 16z" />
    <glyph glyph-name="ellipsis" unicode="&#x2026;" horiz-adv-x="602" 
d="M112 108q25 0 39 -14.5t14 -40.5q0 -27 -15.5 -43t-41.5 -16q-25 0 -39.5 15t-14.5 41t15.5 42t42.5 16zM299 108q25 0 39 -14.5t14 -40.5q0 -27 -15.5 -43t-41.5 -16q-54 0 -54 56q0 26 15.5 42t42.5 16zM485 108q25 0 39 -14.5t14 -40.5q0 -27 -15.5 -43t-41.5 -16
q-54 0 -54 56q0 26 15.5 42t42.5 16z" />
    <glyph glyph-name="perthousand" unicode="&#x2030;" horiz-adv-x="1211" 
d="M653 655l7 -15l-469 -731l-45 26l-5 13l469 733zM193 648q70 0 107 -45t37 -128q0 -90 -39.5 -137.5t-115.5 -47.5q-71 0 -108.5 44.5t-37.5 129.5q0 89 40.5 136.5t116.5 47.5zM186 577q-82 0 -82 -107q0 -114 83 -114t83 109q0 112 -84 112zM655 353q70 0 107 -45
t37 -128q0 -90 -39.5 -137.5t-115.5 -47.5q-70 0 -108 45t-38 129q0 89 40.5 136.5t116.5 47.5zM1029 353q70 0 107.5 -45t37.5 -128q0 -90 -40 -137.5t-116 -47.5q-70 0 -107.5 45t-37.5 129q0 89 40 136.5t116 47.5zM648 282q-81 0 -81 -107q0 -114 82 -114q83 0 83 109
q0 112 -84 112zM1022 282q-81 0 -81 -107q0 -114 82 -114q83 0 83 109q0 112 -84 112z" />
    <glyph glyph-name="minute" unicode="&#x2032;" horiz-adv-x="182" 
d="M141 632l-28 -198l-50 -7l-8 7l1 200l78 6z" />
    <glyph glyph-name="second" unicode="&#x2033;" horiz-adv-x="315" 
d="M141 632l-28 -198l-50 -7l-8 7l1 200l78 6zM274 632l-28 -198l-50 -7l-8 7l1 200l78 6z" />
    <glyph glyph-name="guilsinglleft" unicode="&#x2039;" horiz-adv-x="235" 
d="M22 216v18l141 176l49 -27l1 -11l-115 -145l115 -146l-1 -11l-49 -26z" />
    <glyph glyph-name="guilsinglright" unicode="&#x203a;" horiz-adv-x="240" 
d="M217 239v-19l-141 -175l-48 27l-2 11l116 145l-116 145l2 11l48 27z" />
    <glyph glyph-name="fraction" unicode="&#x2044;" horiz-adv-x="88" 
d="M279 655l6 -15l-468 -731l-45 26l-5 13l469 733z" />
    <glyph glyph-name="zerosuperior" unicode="&#x2070;" horiz-adv-x="374" 
d="M193 707q70 0 107 -49t37 -140q0 -99 -39.5 -150.5t-115.5 -51.5q-71 0 -108.5 49t-37.5 140q0 98 40.5 150t116.5 52zM186 629q-82 0 -82 -117q0 -124 83 -124t83 119q0 122 -84 122z" />
    <glyph glyph-name="foursuperior" unicode="&#x2074;" horiz-adv-x="358" 
d="M322 412l-55 2l4 -88l-5 -6l-68 -3l-5 4l2 94h-108l-57 -3l-6 8v53l163 229h80l-2 -224h56l5 -7zM99 478h97v130h-6z" />
    <glyph glyph-name="fivesuperior" unicode="&#x2075;" horiz-adv-x="311" 
d="M275 700l-8 -64l-7 -5l-55 5h-82l-2 -74l42 -10q110 -22 110 -105q0 -60 -46.5 -96t-122.5 -36q-34 0 -72 7l-6 59l7 7q30 -10 72 -10q40 0 62.5 16t22.5 45q0 41 -66 55l-64 11l-5 7l2 181l9 10l38 -1h101l65 2z" />
    <glyph glyph-name="sixsuperior" unicode="&#x2076;" horiz-adv-x="342" 
d="M199 554q52 0 81.5 -31.5t29.5 -79.5q0 -56 -36 -92t-104 -36q-64 0 -100.5 38.5t-36.5 106.5q0 80 50.5 144t143.5 103h5l54 -36v-8q-68 -26 -106.5 -55t-54.5 -68l6 -6q31 20 68 20zM172 368q60 0 60 67q0 61 -58 61q-30 0 -62 -19v-16q0 -47 13.5 -70t46.5 -23z" />
    <glyph glyph-name="sevensuperior" unicode="&#x2077;" horiz-adv-x="304" 
d="M100 702h146l32 1l1 -61l-109 -234l-38 -95l-70 18l-5 13l136 289h-107l-61 -6l-4 9l6 67z" />
    <glyph glyph-name="eightsuperior" unicode="&#x2078;" horiz-adv-x="349" 
d="M183 707q53 0 83 -25.5t30 -68.5q0 -56 -62 -89v-5q35 -17 54 -36.5t19 -54.5q0 -53 -38.5 -83t-102.5 -30q-61 0 -94.5 26.5t-33.5 70.5q0 63 77 93v4q-64 33 -64 91q0 50 36 78.5t96 28.5zM177 650q-25 0 -39.5 -12.5t-14.5 -35.5q0 -21 15 -34t44 -25q46 25 46 61
q0 21 -14 33.5t-37 12.5zM167 484q-57 -20 -57 -61q0 -24 16 -38.5t46 -14.5q31 0 48 14.5t17 36.5q0 16 -11.5 29t-23.5 19t-35 15z" />
    <glyph glyph-name="ninesuperior" unicode="&#x2079;" horiz-adv-x="343" 
d="M175 708q64 0 100.5 -39t36.5 -108q0 -79 -51 -143t-144 -103h-4l-54 36v9q68 25 106.5 53.5t54.5 67.5l-6 6q-33 -20 -68 -20q-52 0 -81.5 32.5t-29.5 80.5q0 55 36.5 91.5t103.5 36.5zM171 526q31 0 63 20v15q0 93 -61 93t-61 -66q0 -62 59 -62z" />
    <glyph glyph-name="franc" unicode="&#x20a3;" horiz-adv-x="398" 
d="M169 434l-2 -153h87l93 1l5 -7l-6 -61l-98 1h-82l-1 -57v-19h115l4 -5l-3 -40h-115l2 -94h-84l2 94h-62l-5 4l4 41h64v11l-3 350h307l6 -8l-7 -60l-128 2h-93z" />
    <glyph glyph-name="Euro" unicode="&#x20ac;" horiz-adv-x="478" 
d="M312 64q68 0 123 36l9 -6l-7 -66q-61 -34 -129 -34q-183 0 -218 166h-73l-4 6l4 49h66q-1 9 -1 27q0 21 1 31h-66l-4 6l4 49h73q20 86 78 131.5t151 45.5q69 0 132 -33l-16 -69l-7 -2q-52 34 -114 34q-109 0 -135 -107h170l6 -5l-5 -50h-179v-23q0 -24 1 -35h177l6 -6
l-5 -49h-168q30 -96 130 -96z" />
    <glyph glyph-name="literSign" unicode="&#x2113;" horiz-adv-x="382" 
d="M365 72l-7 -72h-278l4 150l-4 351h98l-5 -342l1 -79h185z" />
    <glyph glyph-name="trademark" unicode="&#x2122;" horiz-adv-x="585" 
d="M211 641l4 -5l-4 -39l-47 2h-17l-2 -119l2 -75h-53l3 70l-2 124h-17l-49 -2l-3 5l3 39h182zM533 405h-48l-4 71l-9 85h-4l-57 -132h-42l-52 132h-3l-10 -79l-6 -77h-46l26 236h63l11 -35l39 -107h3l43 106l12 36h61z" />
    <glyph glyph-name="Ohm" unicode="&#x2126;" horiz-adv-x="748" 
d="M381 650q136 0 208.5 -79.5t72.5 -198.5q0 -78 -32.5 -154.5t-95.5 -134.5l2 -5h91l82 9l6 -7l-12 -85l-106 5h-136l-37 -2l-6 4v75q66 51 101.5 127.5t35.5 156.5q0 91 -46 148t-136 57t-135 -56t-45 -147q0 -80 35.5 -157t99.5 -129v-75l-5 -4l-38 2h-154l-92 -3l-7 7
l13 81l88 -7h78l1 5q-62 56 -94 129t-32 149q0 123 77.5 206t217.5 83z" />
    <glyph glyph-name="estimated" unicode="&#x212e;" horiz-adv-x="788" 
d="M405 649q152 0 259 -96.5t107 -233.5v-6h-595q-7 0 -7 -6v-181q0 -10 10 -22q92 -94 227 -94q72 0 136.5 28t109.5 77h41q-51 -58 -126.5 -91.5t-161.5 -33.5q-152 0 -259.5 96.5t-107.5 232.5q0 137 107.5 233.5t259.5 96.5zM406 629q-135 0 -226 -93q-11 -9 -11 -24
v-174q0 -6 7 -6h458q7 0 7 6v178q0 12 -11 23q-92 90 -224 90z" />
    <glyph glyph-name="oneeighth" unicode="&#x215b;" horiz-adv-x="726" 
d="M568 655l6 -15l-468 -731l-45 26l-5 13l469 733zM182 639l-3 -241l3 -136h-87l2 126v166l-78 -20l-7 4v68l158 43zM560 387q53 0 83 -25.5t30 -68.5q0 -56 -62 -89v-5q35 -17 54 -36.5t19 -54.5q0 -53 -38.5 -83t-102.5 -30q-61 0 -94.5 26.5t-33.5 70.5q0 63 77 93v4
q-64 33 -64 91q0 50 36 78.5t96 28.5zM554 330q-25 0 -39.5 -12.5t-14.5 -35.5q0 -21 15 -34t44 -25q46 25 46 61q0 21 -14 33.5t-37 12.5zM544 164q-57 -20 -57 -61q0 -24 16 -38.5t46 -14.5q31 0 48 14.5t17 36.5q0 16 -11.5 29t-23.5 19t-35 15z" />
    <glyph glyph-name="threeeighths" unicode="&#x215c;" horiz-adv-x="764" 
d="M606 655l6 -15l-468 -731l-45 26l-5 13l469 733zM146 649q52 0 83.5 -24.5t31.5 -65.5q0 -61 -61 -91v-4q74 -20 74 -90q0 -52 -46 -84.5t-120 -32.5q-37 0 -72 8l-5 60l6 6q37 -10 72 -10q38 0 59.5 14.5t21.5 40.5q0 47 -61 49h-47l-4 5l1 57h30q25 1 45 17t20 39
q0 39 -47 39q-34 0 -78 -29h-9l-14 57q56 39 120 39zM598 387q53 0 83 -25.5t30 -68.5q0 -56 -62 -89v-5q35 -17 54 -36.5t19 -54.5q0 -53 -38.5 -83t-102.5 -30q-61 0 -94.5 26.5t-33.5 70.5q0 63 77 93v4q-64 33 -64 91q0 50 36 78.5t96 28.5zM592 330q-25 0 -39.5 -12.5
t-14.5 -35.5q0 -21 15 -34t44 -25q46 25 46 61q0 21 -14 33.5t-37 12.5zM582 164q-57 -20 -57 -61q0 -24 16 -38.5t46 -14.5q31 0 48 14.5t17 36.5q0 16 -11.5 29t-23.5 19t-35 15z" />
    <glyph glyph-name="fiveeighths" unicode="&#x215d;" horiz-adv-x="745" 
d="M587 655l6 -15l-468 -731l-45 26l-5 13l469 733zM275 642l-8 -64l-7 -5l-55 5h-82l-2 -74l42 -10q110 -22 110 -105q0 -60 -46.5 -96t-122.5 -36q-34 0 -72 7l-6 59l7 7q30 -10 72 -10q40 0 62.5 16t22.5 45q0 41 -66 55l-64 11l-5 7l2 181l9 10l38 -1h101l65 2zM579 387
q53 0 83 -25.5t30 -68.5q0 -56 -62 -89v-5q35 -17 54 -36.5t19 -54.5q0 -53 -38.5 -83t-102.5 -30q-61 0 -94.5 26.5t-33.5 70.5q0 63 77 93v4q-64 33 -64 91q0 50 36 78.5t96 28.5zM573 330q-25 0 -39.5 -12.5t-14.5 -35.5q0 -21 15 -34t44 -25q46 25 46 61q0 21 -14 33.5
t-37 12.5zM563 164q-57 -20 -57 -61q0 -24 16 -38.5t46 -14.5q31 0 48 14.5t17 36.5q0 16 -11.5 29t-23.5 19t-35 15z" />
    <glyph glyph-name="seveneighths" unicode="&#x215e;" horiz-adv-x="724" 
d="M566 655l6 -15l-468 -731l-45 26l-5 13l469 733zM100 644h146l32 1l1 -61l-109 -234l-38 -95l-70 18l-5 13l136 289h-107l-61 -6l-4 9l6 67zM558 387q53 0 83 -25.5t30 -68.5q0 -56 -62 -89v-5q35 -17 54 -36.5t19 -54.5q0 -53 -38.5 -83t-102.5 -30q-61 0 -94.5 26.5
t-33.5 70.5q0 63 77 93v4q-64 33 -64 91q0 50 36 78.5t96 28.5zM552 330q-25 0 -39.5 -12.5t-14.5 -35.5q0 -21 15 -34t44 -25q46 25 46 61q0 21 -14 33.5t-37 12.5zM542 164q-57 -20 -57 -61q0 -24 16 -38.5t46 -14.5q31 0 48 14.5t17 36.5q0 16 -11.5 29t-23.5 19t-35 15z
" />
    <glyph glyph-name="arrowleft" unicode="&#x2190;" horiz-adv-x="523" 
d="M492 198l-360 4l142 -147v-15l-56 -14l-195 199v16l195 200l56 -14v-15l-141 -146l356 4l7 -7z" />
    <glyph glyph-name="arrowup" unicode="&#x2191;" horiz-adv-x="523" 
d="M469 278l-15 -56h-14l-147 142l4 -357l-7 -7l-65 4l4 360l-147 -142h-15l-14 56l200 195h15z" />
    <glyph glyph-name="arrowright" unicode="&#x2192;" horiz-adv-x="523" 
d="M498 243v-15l-195 -201l-56 15v14l142 147l-357 -4l-7 7l4 65l360 -4l-142 147v15l56 14z" />
    <glyph glyph-name="arrowdown" unicode="&#x2193;" horiz-adv-x="523" 
d="M469 190l-199 -195h-16l-200 195l14 56h15l146 -141l-4 356l7 7l65 -4l-4 -360l147 142h15z" />
    <glyph glyph-name="arrowupleft" unicode="&#x2196;" horiz-adv-x="523" 
d="M460 99l-1 -10l-49 -42l-251 257l-4 -205l-10 -10l-50 29l3 279l11 11l280 4l29 -49l-10 -11l-203 -4z" />
    <glyph glyph-name="arrowupright" unicode="&#x2197;" horiz-adv-x="523" 
d="M427 122l-50 -30l-10 11l-4 204l-249 -256l-10 1l-43 48l257 252l-204 4l-11 10l30 50l279 -3l11 -11z" />
    <glyph glyph-name="arrowdownright" unicode="&#x2198;" horiz-adv-x="523" 
d="M426 346l-3 -279l-11 -11l-280 -4l-29 50l10 10l204 4l-256 249l1 10l49 43l251 -258l4 205l10 10z" />
    <glyph glyph-name="arrowdownleft" unicode="&#x2199;" horiz-adv-x="523" 
d="M408 115l11 -10l-30 -50l-279 4l-11 11l-4 279l50 30l10 -11l4 -204l249 256h10l43 -49l-257 -252z" />
    <glyph glyph-name="partialdiff" unicode="&#x2202;" horiz-adv-x="515" 
d="M129 717h9q165 -71 253 -185.5t88 -269.5q0 -128 -60 -199.5t-170 -71.5q-105 0 -160.5 60t-55.5 159q0 96 53.5 157t147.5 61q60 -3 119 -42l9 8q-60 178 -303 261v11zM251 64q132 0 132 192q0 14 -2 40q-64 53 -126 53q-127 0 -127 -140q0 -71 31.5 -108t91.5 -37z" />
    <glyph glyph-name="increment" unicode="&#x2206;" horiz-adv-x="587" 
d="M568 0h-557l228 642h121zM294 541l-161 -458h310l-142 458h-7z" />
    <glyph glyph-name="product" unicode="&#x220f;" horiz-adv-x="677" 
d="M572 558l-5 -356l5 -202h-105l7 193l-6 367h-261l-5 -358l4 -202h-104l7 193l-6 365l-50 -1l-7 9l8 76h571l6 -9l-7 -76z" />
    <glyph glyph-name="summation" unicode="&#x2211;" horiz-adv-x="499" 
d="M478 634l-7 -79l-101 5h-213l192 -228v-17l-193 -234h203l113 6l7 -9l-7 -79l-357 1l-84 -1v72l205 253l-202 240v78l437 1z" />
    <glyph glyph-name="minus" unicode="&#x2212;" horiz-adv-x="480" 
d="M452 291l-5 -63h-412l-7 7l5 63h412z" />
    <glyph glyph-name="divisionslash" unicode="&#x2215;" horiz-adv-x="286" 
d="M295 669l-205 -783h-71l-6 9l205 784h69z" />
    <glyph glyph-name="bulletoperator" unicode="&#x2219;" horiz-adv-x="264" 
d="M134 307q29 0 45.5 -17t16.5 -46q0 -32 -18 -51t-49 -19q-30 0 -46.5 17t-16.5 48t18.5 49.5t49.5 18.5z" />
    <glyph glyph-name="radical" unicode="&#x221a;" horiz-adv-x="508" 
d="M291 0h-108l-115 390h-91l-4 5l3 66h158l6 -5l103 -364h6l213 611l9 7h69z" />
    <glyph glyph-name="infinity" unicode="&#x221e;" horiz-adv-x="480" 
d="M360 407q59 0 92.5 -40t33.5 -106q0 -67 -34 -104t-90 -37q-71 0 -118 85q-45 -85 -125 -85q-59 0 -93 39.5t-34 104.5q0 67 34 105t91 38q71 0 119 -80q43 80 124 80zM122 342q-34 0 -52.5 -20.5t-18.5 -56.5t18.5 -57t48.5 -21q33 0 53.5 22.5t38.5 63.5
q-18 33 -37.5 51t-50.5 18zM358 340q-34 0 -53.5 -22.5t-35.5 -61.5q18 -35 38.5 -53.5t51.5 -18.5t49.5 20.5t18.5 56.5t-18 57.5t-51 21.5z" />
    <glyph glyph-name="integral" unicode="&#x222b;" horiz-adv-x="282" 
d="M263 713q39 0 75 -9l-6 -71l-8 -5q-38 15 -69 15q-72 0 -74 -80l1 -510q0 -71 -24 -114.5t-89 -86.5l-44 41v10q39 34 54 65t14 82l-2 499q-1 79 44 121.5t128 42.5z" />
    <glyph glyph-name="approxequal" unicode="&#x2248;" horiz-adv-x="480" 
d="M162 338q-6 0 -11.5 -2t-13.5 -8.5t-12.5 -10.5t-16 -15.5l-16.5 -16.5h-11l-27 34v10l77 81l11 6q22 -4 103.5 -27.5t99.5 -23.5q4 0 8 1t9 4t8.5 6t10 8.5t10.5 9.5t11.5 12t12.5 12h10l27 -34v-10l-77 -82l-11 -4q-24 3 -104.5 26.5t-97.5 23.5zM162 163
q-6 0 -12 -2.5t-13.5 -8.5t-12.5 -11l-15.5 -15.5l-16.5 -16.5h-11l-27 34v11l77 81l11 5q22 -4 103.5 -27.5t99.5 -23.5q4 0 8 1t9 4t8.5 6t10 8.5t10.5 9.5t11.5 12t12.5 12h10l27 -34v-10l-77 -82l-11 -3q-25 3 -105.5 26.5t-96.5 23.5z" />
    <glyph glyph-name="notequal" unicode="&#x2260;" horiz-adv-x="480" 
d="M445 210l7 -7l-5 -63h-208l-34 -146h-65l-6 8l33 138h-132l-7 7l5 63h150l25 106h-173l-7 7l5 62h191l34 142h64l6 -8l-31 -134h148l7 -7l-5 -62h-167l-24 -106h189z" />
    <glyph glyph-name="lessequal" unicode="&#x2264;" horiz-adv-x="480" 
d="M443 408l-5 -9l-327 -131v-6l329 -124l-15 -58l-10 -7l-380 148v83l8 10l378 152zM452 -39l-5 -63h-412l-7 7l5 63h412z" />
    <glyph glyph-name="greaterequal" unicode="&#x2265;" horiz-adv-x="480" 
d="M437 314l8 -10v-83l-380 -148l-10 7l-15 58l329 124v6l-327 131l-5 9l22 58zM452 -39l-5 -63h-412l-7 7l5 63h412z" />
    <glyph glyph-name="lozenge" unicode="&#x25ca;" horiz-adv-x="504" 
d="M293 641l158 -344v-31l-157 -347l-78 -3l-8 5l-158 344v29l158 347l78 4zM245 567l-127 -290l131 -282h6l128 286l-132 286h-6z" />
    <glyph glyph-name="uniA78B" unicode="&#xa78b;" horiz-adv-x="129" 
d="M113 607l-28 -275l-50 -10l-8 11l2 277l78 7z" />
    <glyph glyph-name="uniA78C" unicode="&#xa78c;" horiz-adv-x="129" 
d="M113 520l-28 -261l-50 -10l-8 10l2 264l78 8z" />
    <glyph glyph-name="dieresisacute" unicode="&#xf6d7;" 
d="M296 810l16 -64l-5 -9q-105 -25 -215 -45l-10 5l-9 47q115 34 214 71zM114 642q23 0 35.5 -13t12.5 -36t-14 -37.5t-38 -14.5q-23 0 -35.5 13t-12.5 36t14 37.5t38 14.5zM278 642q23 0 35.5 -13t12.5 -36t-14 -37.5t-38 -14.5q-23 0 -35.5 13t-12.5 36t14 37.5t38 14.5z
" />
    <glyph glyph-name="dieresisgrave" unicode="&#xf6d8;" 
d="M88 810l10 5q99 -37 214 -71l-10 -47l-10 -5q-119 22 -213 45l-6 9zM114 642q23 0 35.5 -13t12.5 -36t-14 -37.5t-38 -14.5q-23 0 -35.5 13t-12.5 36t14 37.5t38 14.5zM278 642q23 0 35.5 -13t12.5 -36t-14 -37.5t-38 -14.5q-23 0 -35.5 13t-12.5 36t14 37.5t38 14.5z
" />
    <glyph glyph-name="Iacute_J.loclNLD" horiz-adv-x="601" 
d="M255 872l27 -61l-4 -10q-66 -29 -203 -82l-11 4l-17 44q130 67 198 107zM562 811l-4 -10q-66 -29 -203 -82l-11 4l-17 44q130 67 198 107l10 -2zM192 642l-6 -440l5 -202h-105l7 193l-7 449h106zM514 642l-6 -430l2 -93q0 -78 -40.5 -128.5t-140.5 -94.5l-36 57v11
q67 35 94.5 68.5t27.5 86.5v83l-4 360l-117 -1l-9 8l6 73h223z" />
    <glyph glyph-name="C.ss01" horiz-adv-x="458" 
d="M277 423q-134 0 -134 -167q0 -176 137 -176q69 0 126 39l10 -5l-7 -74h149v-40h-658v40h234q-89 61 -89 207q0 151 96 214h-241v40h658v-40h-136l-16 -75l-9 -3q-52 40 -120 40z" />
    <glyph glyph-name="D.ss01" horiz-adv-x="567" 
d="M667 461h-236q90 -58 90 -194q0 -161 -103 -227h249v-40h-767v40h190l3 112l-4 309h-189v40h767v-40zM282 75q143 0 143 172q0 90 -35 131.5t-108 41.5q-40 0 -100 -4l-3 -255l2 -80q62 -6 101 -6z" />
    <glyph glyph-name="I.ss01" horiz-adv-x="267" 
d="M175 159l3 -119h189v-40h-467v40h184l3 110l-4 311h-183v40h467v-40h-188z" />
    <glyph glyph-name="L.ss01" horiz-adv-x="384" 
d="M177 461l-4 -300l2 -78h181l6 -7l-4 -36h126v-40h-584v40h184l3 112l-4 309h-183v40h584v-40h-307z" />
    <glyph glyph-name="M.ss01" horiz-adv-x="684" 
d="M568 461l41 -421h175v-40h-884v40h170l45 421h-215v40h884v-40h-216zM451 461h-217l13 -37l89 -221h7l94 221zM529 40l-8 127l-20 193h-6l-124 -275h-73l-115 275h-6l-21 -187l-9 -133h382z" />
    <glyph glyph-name="V.ss01" horiz-adv-x="508" 
d="M474 461l-156 -421h290v-40h-708v40h284l-142 421h-142v40h708v-40h-134zM386 461h-253l6 -28l111 -338h6l124 333z" />
    <glyph glyph-name="X.ss01" horiz-adv-x="527" 
d="M322 263l150 -223h155v-40h-727v40h160l148 210l-145 211h-163v40h727v-40h-168zM268 319l91 125l8 17h-198l10 -20zM261 193l-101 -135l-10 -18h217l-12 23z" />
    <glyph glyph-name="idotaccent" horiz-adv-x="267" 
d="M137 716q25 0 39 -14.5t14 -40.5q0 -27 -15 -43t-41 -16t-40.5 15t-14.5 41t15.5 42t42.5 16zM175 159l4 -159h-96l4 150l-4 351h97z" />
    <glyph glyph-name="germandbls.calt" horiz-adv-x="647" 
d="M328 649q108 0 246 -65l4 -18l-157 -196q105 -40 152.5 -82.5t47.5 -113.5q0 -85 -59 -133.5t-148 -48.5q-90 0 -171 43l14 102l12 6q78 -70 153 -70q43 0 70 25.5t27 64.5q0 47 -50 81.5t-170 72.5l-5 19l155 199q-66 30 -126 30q-74 0 -113.5 -37.5t-40.5 -107.5
l-2 -218l4 -202h-104l7 190l-3 230q-2 104 67 166.5t190 62.5z" />
    <glyph glyph-name="iacute_j.loclNLD" horiz-adv-x="567" 
d="M233 747l38 -54l-2 -10q-79 -58 -181 -124l-10 1l-26 40q105 85 171 148zM502 692l-3 -10q-87 -64 -180 -124l-10 1l-27 40q112 91 172 148l10 -1zM180 501l-5 -342l4 -159h-96l4 150l-4 351h97zM481 501l-4 -336v-71q0 -64 -30.5 -103.5t-107.5 -73.5l-35 49v9
q46 24 65 51t19 67v62l-2 274l-92 -1l-6 6l6 67h187z" />
    <glyph glyph-name="a.sups" horiz-adv-x="328" 
d="M170 650q52 0 80 -23t28 -65q0 -10 -3 -74t-3 -72q0 -24 15 -24q11 0 17 5l7 -5l-9 -47q-21 -15 -46 -15q-23 0 -34.5 10.5t-17.5 37.5h-4q-34 -40 -73 -49q-45 1 -71 25t-26 67q0 65 69 77l99 18l1 30q0 44 -43 44q-38 0 -93 -36l-7 3l-10 56q61 37 124 37zM198 476
l-63 -14q-27 -4 -27 -33q0 -40 36 -40q28 0 53 30z" />
    <glyph glyph-name="b.sups" horiz-adv-x="352" 
d="M206 646q56 0 87 -39.5t31 -110.5q0 -80 -40 -124t-111 -44q-38 0 -82 13l-38 -12l-8 9l2 123l-2 335l86 5l-3 -203h2q37 45 76 48zM167 384q77 0 77 103q0 92 -64 92q-28 0 -53 -24l-1 -82l1 -81q24 -8 40 -8z" />
    <glyph glyph-name="c.sups" horiz-adv-x="261" 
d="M174 650q43 0 83 -20l-15 -66l-8 -4q-32 20 -60 20q-31 0 -48 -22.5t-17 -64.5q0 -96 70 -96q30 0 68 16l6 -4l-9 -65q-44 -16 -85 -16q-62 0 -96.5 41.5t-34.5 115.5q0 78 39 121.5t107 43.5z" />
    <glyph glyph-name="d.sups" horiz-adv-x="358" 
d="M309 801l-3 -385q0 -24 15 -24q9 0 18 5l6 -5l-10 -47q-23 -15 -51 -15q-41 0 -53 45h-4q-34 -41 -72 -44q-59 0 -93 40.5t-34 111.5q0 81 41.5 124t113.5 43q10 0 42 -6l-1 152zM181 590q-74 0 -74 -96q0 -100 63 -100q30 0 58 31l-3 158q-25 7 -44 7z" />
    <glyph glyph-name="e.sups" horiz-adv-x="316" 
d="M172 650q59 0 91 -33.5t32 -92.5q0 -14 -2 -36l-6 -10h-180q6 -86 79 -86q47 0 94 22l6 -5l-8 -61q-50 -20 -99 -20q-72 0 -111.5 42.5t-39.5 117.5q0 76 38.5 119t105.5 43zM108 520l113 1q1 7 1 13q0 27 -14.5 42.5t-38.5 15.5q-53 0 -61 -72z" />
    <glyph glyph-name="f.sups" horiz-adv-x="199" 
d="M203 803q27 0 54 -6l-4 -62l-7 -6q-29 13 -52 13q-41 0 -41 -48v-53h72l2 -4l-3 -47h-71l-1 -120l3 -135h-85l4 126l-2 129h-44l-3 5l4 46h43l-1 38q0 60 34.5 92t97.5 32z" />
    <glyph glyph-name="g.sups" horiz-adv-x="336" 
d="M344 658v-56q-23 -5 -51 -8l-1 -1q13 -20 13 -48q0 -51 -35.5 -80t-97.5 -29q-26 0 -42 4q-12 -10 -12 -19q0 -14 31 -20t69 -8.5t69 -22t31 -57.5q0 -47 -42.5 -77.5t-109.5 -30.5q-59 0 -92.5 23.5t-33.5 60.5q6 27 56 55v4q-48 17 -48 60q14 21 45 42v3q-49 28 -49 88
q0 50 35 79t96 29q39 0 70 -14q34 5 92 27zM173 488q57 0 57 55q0 52 -55 52t-55 -53q0 -54 53 -54zM244 299q0 6 -2.5 11.5t-9 9t-12.5 6t-17 4.5t-18.5 3t-21.5 2.5t-21 2.5q-33 -20 -33 -43q0 -19 16.5 -30t47.5 -11t51 12t20 33z" />
    <glyph glyph-name="h.sups" horiz-adv-x="350" 
d="M216 646q46 0 71 -22.5t24 -65.5l-2 -88l2 -135h-85l5 189q0 54 -46 54q-27 0 -56 -24l-1 -84l3 -135h-86l4 127l-3 334l85 5l-2 -204h3q45 47 84 49z" />
    <glyph glyph-name="i.sups" horiz-adv-x="171" 
d="M92 795q41 0 41 -45q0 -47 -46 -47q-42 0 -42 45q0 21 12.5 34t34.5 13zM128 470l4 -135h-86l4 127l-3 176l85 7z" />
    <glyph glyph-name="j.sups" horiz-adv-x="195" 
d="M83 795q20 0 31.5 -12t11.5 -33q0 -22 -12 -34.5t-33 -12.5q-44 0 -44 45q0 21 12.5 34t33.5 13zM130 644l-5 -174l4 -118q0 -52 -21.5 -86t-69.5 -61l-29 39v7q39 32 39 98v113l-1 115l-38 -2l-4 7l4 59h39l79 5z" />
    <glyph glyph-name="k.sups" horiz-adv-x="316" 
d="M127 470l4 -135h-86l4 127l-3 334l85 5zM307 644l-95 -140q18 -30 102 -155v-10q-15 -3 -43 -6.5l-36 -4.5l-10 4q-59 89 -95 164v6l74 109l15 33h88z" />
    <glyph glyph-name="l.sups" horiz-adv-x="172" 
d="M127 470l3 -135h-85l4 127l-3 334l84 5z" />
    <glyph glyph-name="m.sups" horiz-adv-x="539" 
d="M416 335l4 190q0 55 -47 55q-28 0 -58 -24l-3 -86l3 -135h-84l4 190q0 55 -48 55q-27 0 -60 -28v-82l2 -135h-84l4 127l-3 176l81 7v-48h4q46 46 88 49q72 0 90 -51h4q43 48 91 51q96 0 96 -88l-1 -88l2 -135h-85z" />
    <glyph glyph-name="n.sups" horiz-adv-x="350" 
d="M226 335l5 189q0 54 -46 54q-28 0 -57 -25v-83l3 -135h-86l4 127l-3 176l82 7v-48h4q45 46 86 49q45 0 69.5 -22.5t23.5 -65.5l-1 -88l2 -135h-86z" />
    <glyph glyph-name="o.sups" horiz-adv-x="342" 
d="M176 650q68 0 103.5 -40t35.5 -116q0 -80 -38 -123t-110 -43q-68 0 -103.5 40t-35.5 116q0 81 37.5 123.5t110.5 42.5zM172 590q-33 0 -48 -23t-15 -74q0 -56 15 -81.5t48 -25.5t48.5 23t15.5 75q0 56 -15.5 81t-48.5 25z" />
    <glyph glyph-name="p.sups" horiz-adv-x="354" 
d="M205 646q56 0 87.5 -39t31.5 -110q0 -81 -41 -125t-112 -44q-24 0 -43 4l1 -120h-84l2 250l-2 176l81 7v-46h4q36 44 75 47zM167 384q76 0 76 103q0 91 -64 91q-29 0 -53 -23v-85l1 -78q24 -8 40 -8z" />
    <glyph glyph-name="q.sups" horiz-adv-x="344" 
d="M300 650l5 -5l-2 -179l2 -254h-84l3 146v13h-4q-34 -38 -66 -40q-59 0 -92.5 41t-33.5 112q0 80 40.5 123t109.5 43q33 0 80 -15zM179 590q-72 0 -72 -96q0 -100 60 -100q30 0 57 30v158q-21 8 -45 8z" />
    <glyph glyph-name="r.sups" horiz-adv-x="226" 
d="M207 644q9 0 16 -1v-75l-10 -4q-10 3 -20 3q-36 0 -66 -44v-53l4 -135h-86l4 127l-3 176l81 7v-64h4q29 63 76 63z" />
    <glyph glyph-name="s.sups" horiz-adv-x="265" 
d="M147 649q42 0 82 -15l-11 -61l-10 -5q-42 25 -71 25q-16 0 -25.5 -9t-9.5 -23q0 -15 21 -27t46 -20.5t46 -31t21 -55.5q0 -41 -30.5 -70.5t-88.5 -29.5q-48 0 -97 20l10 66l8 5q43 -35 87 -35q18 0 28.5 9.5t10.5 22.5q0 16 -21 28.5t-46.5 21.5t-46.5 31t-21 54
q0 44 32 71.5t86 27.5z" />
    <glyph glyph-name="t.sups" horiz-adv-x="220" 
d="M172 398q20 0 37 10l6 -8l-7 -48q-37 -20 -62 -21q-43 0 -67.5 22.5t-22.5 61.5l1 70v105h-40l-3 5l3 46h40v68l79 18l5 -5l-2 -81h75l2 -4l-4 -47h-74l-3 -143q0 -49 37 -49z" />
    <glyph glyph-name="u.sups" horiz-adv-x="349" 
d="M302 645l-4 -228q0 -25 15 -25q9 0 18 5l6 -5l-8 -47q-23 -15 -48 -15q-45 0 -58 53h-4q-43 -48 -86 -51q-45 0 -69 23t-24 65l1 65l-2 153l81 7v-193q0 -52 42 -52q30 0 59 29v209z" />
    <glyph glyph-name="v.sups" horiz-adv-x="290" 
d="M100 596l46 -179h5l55 173l11 54h75l-101 -309h-94l-86 307l81 4z" />
    <glyph glyph-name="w.sups" horiz-adv-x="463" 
d="M98 598l39 -175h5l46 170l10 51h86l6 -46l40 -173h5l45 168l12 51h72l-95 -309h-82l-48 200h-7l-55 -200h-85l-80 307l78 4z" />
    <glyph glyph-name="x.sups" horiz-adv-x="304" 
d="M116 610l42 -70l42 71l16 32h75l-88 -152l91 -153l-91 -7l-15 39l-43 72l-46 -77l-14 -30h-77l89 156l-86 150l92 5z" />
    <glyph glyph-name="y.sups" horiz-adv-x="282" 
d="M82 598l56 -176h5l55 168l12 54h73l-99 -289q-23 -65 -56 -95.5t-102 -52.5h-7q-22 20 -37 51l2 9q41 8 67.5 22.5t50.5 45.5l-112 307l82 4z" />
    <glyph glyph-name="z.sups" horiz-adv-x="289" 
d="M91 644h138l34 1l1 -53l-150 -204h98l52 3l4 -5l-5 -52l-73 1h-126l-42 -3v52l150 206h-93l-50 -3l-5 7l6 51z" />
    <glyph glyph-name="zero.lf" horiz-adv-x="527" 
d="M270 592q100 0 154 -76t54 -217q0 -148 -57 -227.5t-164 -79.5q-101 0 -155 76t-54 218q0 147 57.5 226.5t164.5 79.5zM261 497q-134 0 -134 -204q0 -211 136 -211t136 205q0 210 -138 210z" />
    <glyph glyph-name="one.lf" horiz-adv-x="363" 
d="M249 583l-6 -376l5 -207h-103l5 196v281l-133 -33l-9 5v81l226 64z" />
    <glyph glyph-name="two.lf" horiz-adv-x="493" 
d="M250 593q67 0 110.5 -36.5t43.5 -97.5q0 -45 -29 -99t-95 -139l-103 -136l2 -4h188l94 7l7 -8l-13 -85l-117 5h-246l-40 -2l-6 4v64l146 179q42 54 61 79.5t35 57t16 54.5q0 31 -20 50.5t-58 19.5q-77 0 -147 -79h-12l-16 79q93 87 199 87z" />
    <glyph glyph-name="three.lf" horiz-adv-x="433" 
d="M200 595q73 0 117.5 -36t44.5 -95q0 -41 -24 -80.5t-74 -65.5v-4q117 -30 117 -132q0 -84 -65.5 -136.5t-171.5 -52.5q-51 0 -103 10l-6 83l7 7q54 -21 107 -21q62 0 98.5 27.5t36.5 74.5q0 85 -113 90h-64l-5 7l2 70l44 1q41 0 76 29t35 72q0 32 -21.5 50.5t-57.5 18.5
q-54 0 -122 -55h-11l-15 78q78 60 168 60z" />
    <glyph glyph-name="four.lf" horiz-adv-x="497" 
d="M455 155l-89 2l4 -149l-6 -8l-78 -6l-6 7l3 156h-175l-75 -2l-7 9v65l248 357h93l-2 -350h88l7 -10zM115 236h169l-1 231h-7z" />
    <glyph glyph-name="five.lf" horiz-adv-x="429" 
d="M385 584l-10 -80l-7 -8l-82 8h-134l-3 -137l62 -13q91 -18 130 -56.5t39 -101.5q0 -92 -68 -148t-177 -56q-42 0 -101 11l-7 86l8 7q58 -24 115 -24q61 0 97.5 29t36.5 79q0 41 -27.5 64.5t-89.5 35.5l-90 16l-7 9l4 270l14 13l55 -2h139l97 5z" />
    <glyph glyph-name="six.lf" horiz-adv-x="476" 
d="M274 354q76 0 119 -47.5t43 -123.5q0 -83 -54 -137.5t-148 -54.5q-95 0 -144 58t-49 163q0 126 76.5 225.5t216.5 157.5h6l75 -46v-10q-114 -41 -178 -92t-88 -122l7 -8q55 37 118 37zM240 60q49 0 77 28t28 81q0 54 -26 83t-74 29q-57 0 -111 -43l-1 -24q0 -78 25 -116
t82 -38z" />
    <glyph glyph-name="seven.lf" horiz-adv-x="421" 
d="M126 586h220l45 1v-74l-175 -393l-51 -131l-81 23l-6 16l215 473h-184l-81 -6l-7 10l7 83z" />
    <glyph glyph-name="eight.lf" horiz-adv-x="482" 
d="M250 593q76 0 119.5 -38t43.5 -104q0 -89 -101 -139v-6q56 -25 87.5 -57t31.5 -88q0 -78 -55.5 -123.5t-147.5 -45.5q-86 0 -134.5 41.5t-48.5 109.5q0 100 122 147v5q-100 47 -100 140q0 73 50.5 115.5t132.5 42.5zM245 521q-44 0 -69 -22.5t-25 -60.5q0 -39 25 -61
t72 -40q40 19 62.5 42.5t22.5 61.5q0 37 -23.5 58.5t-64.5 21.5zM230 262q-47 -17 -73 -41t-26 -66t28.5 -67t77.5 -25q51 0 80 25.5t29 65.5q0 22 -8.5 39t-29 30t-34 20t-44.5 19z" />
    <glyph glyph-name="nine.lf" horiz-adv-x="474" 
d="M246 595q95 0 144.5 -57.5t49.5 -163.5q0 -125 -77 -224.5t-217 -157.5h-6l-75 46v10q115 41 178.5 92t87.5 122l-7 8q-55 -37 -118 -37q-76 0 -119 47.5t-43 123.5q0 83 53.5 137t148.5 54zM236 306q57 0 110 42l1 25q0 78 -25 116t-82 38q-49 0 -77 -28t-28 -81
q0 -54 26 -83t75 -29z" />
    <glyph glyph-name="zero.sinf" horiz-adv-x="374" 
d="M193 266q70 0 107 -49t37 -140q0 -99 -39.5 -150.5t-115.5 -51.5q-71 0 -108.5 49t-37.5 140q0 98 40.5 150t116.5 52zM186 188q-82 0 -82 -117q0 -124 83 -124t83 119q0 122 -84 122z" />
    <glyph glyph-name="one.sinf" horiz-adv-x="265" 
d="M182 257l-3 -241l3 -136h-87l2 126v166l-78 -20l-7 4v68l158 43z" />
    <glyph glyph-name="two.sinf" horiz-adv-x="354" 
d="M180 266q49 0 80.5 -24t31.5 -66q0 -29 -19 -63t-64 -89l-59 -75l2 -2h108l66 3l3 -6l-9 -67l-86 3h-166l-27 -1l-4 3v51l96 109q39 46 55.5 70.5t16.5 44.5q0 17 -12 28t-34 11q-52 0 -96 -49h-10l-14 65q72 54 141 54z" />
    <glyph glyph-name="three.sinf" horiz-adv-x="313" 
d="M146 267q52 0 83.5 -24.5t31.5 -65.5q0 -61 -61 -91v-4q74 -20 74 -90q0 -52 -46 -84.5t-120 -32.5q-37 0 -72 8l-5 60l6 6q37 -10 72 -10q38 0 59.5 14.5t21.5 40.5q0 47 -61 49h-47l-4 5l1 57h30q25 1 45 17t20 39q0 39 -47 39q-34 0 -78 -29h-9l-14 57q55 39 120 39z
" />
    <glyph glyph-name="four.sinf" horiz-adv-x="358" 
d="M322 -28l-55 2l4 -88l-5 -6l-68 -3l-5 4l2 94h-108l-57 -3l-6 8v53l163 229h80l-2 -224h56l5 -7zM99 38h97v130h-6z" />
    <glyph glyph-name="five.sinf" horiz-adv-x="311" 
d="M275 260l-8 -64l-7 -5l-55 5h-82l-2 -74l42 -10q110 -22 110 -105q0 -60 -46.5 -96t-122.5 -36q-34 0 -72 7l-6 59l7 7q30 -10 72 -10q40 0 62.5 16t22.5 45q0 41 -66 55l-64 11l-5 7l2 181l9 10l38 -1h101l65 2z" />
    <glyph glyph-name="six.sinf" horiz-adv-x="342" 
d="M199 114q52 0 81.5 -31.5t29.5 -79.5q0 -56 -36 -92t-104 -36q-64 0 -100.5 38.5t-36.5 106.5q0 80 50.5 144t143.5 103h5l54 -36v-8q-68 -26 -106.5 -55t-54.5 -68l6 -6q31 20 68 20zM172 -72q60 0 60 67q0 61 -58 61q-30 0 -62 -19v-16q0 -47 13.5 -70t46.5 -23z" />
    <glyph glyph-name="seven.sinf" horiz-adv-x="304" 
d="M100 262h146l32 1l1 -61l-109 -234l-38 -95l-70 18l-5 13l136 289h-107l-61 -6l-4 9l6 67z" />
    <glyph glyph-name="eight.sinf" horiz-adv-x="349" 
d="M183 267q53 0 83 -25.5t30 -68.5q0 -56 -62 -89v-5q35 -17 54 -36.5t19 -54.5q0 -53 -38.5 -83t-102.5 -30q-61 0 -94.5 26.5t-33.5 70.5q0 63 77 93v4q-64 33 -64 91q0 50 36 78.5t96 28.5zM177 210q-25 0 -39.5 -12.5t-14.5 -35.5q0 -21 15 -34t44 -25q46 25 46 61
q0 21 -14 33.5t-37 12.5zM167 44q-57 -20 -57 -61q0 -24 16 -38.5t46 -14.5q31 0 48 14.5t17 36.5q0 16 -11.5 29t-23.5 19t-35 15z" />
    <glyph glyph-name="nine.sinf" horiz-adv-x="343" 
d="M175 268q64 0 100.5 -39t36.5 -108q0 -79 -51 -143t-144 -103h-4l-54 36v9q68 25 106.5 53.5t54.5 67.5l-6 6q-33 -20 -68 -20q-52 0 -81.5 32.5t-29.5 80.5q0 55 36.5 91.5t103.5 36.5zM171 86q31 0 63 20v15q0 93 -61 93t-61 -66q0 -62 59 -62z" />
    <glyph glyph-name="zero.tf" horiz-adv-x="475" 
d="M244 592q94 0 144.5 -76t50.5 -217q0 -148 -53.5 -227.5t-153.5 -79.5q-95 0 -146 76t-51 218q0 147 54.5 226.5t154.5 79.5zM236 497q-122 0 -122 -204q0 -211 124 -211q122 0 122 205q0 210 -124 210z" />
    <glyph glyph-name="one.tf" horiz-adv-x="475" 
d="M307 583l-6 -376l5 -207h-103l6 196l-1 281l-163 -33l-9 5v81l256 64z" />
    <glyph glyph-name="two.tf" horiz-adv-x="475" 
d="M241 593q66 0 108.5 -36.5t42.5 -97.5q0 -45 -28 -99t-92 -139l-100 -136l2 -4h181l92 5l6 -9l-12 -82l-115 5h-239l-40 -2l-5 4v64l142 179q59 77 83.5 117.5t24.5 73.5q0 30 -20 50t-55 20q-76 0 -142 -79h-12l-17 79q93 87 195 87z" />
    <glyph glyph-name="three.tf" horiz-adv-x="475" 
d="M220 595q74 0 120 -36t46 -95q0 -41 -25.5 -80.5t-76.5 -65.5v-4q123 -31 123 -132q0 -84 -67.5 -136.5t-176.5 -52.5q-53 0 -106 10l-6 83l7 7q54 -21 109 -21q65 0 103.5 27.5t38.5 74.5q0 85 -119 90h-65l-6 7l2 70l45 1q43 0 80 29t37 72q0 32 -22.5 50.5t-60.5 18.5
q-56 0 -127 -55h-11l-15 78q80 60 173 60z" />
    <glyph glyph-name="four.tf" horiz-adv-x="475" 
d="M438 155l-86 2l5 -149l-6 -8l-79 -6l-6 7l3 156h-168l-73 -2l-6 9v65l239 357h92l-2 -350h85l7 -10zM110 236h160v231h-8z" />
    <glyph glyph-name="five.tf" horiz-adv-x="475" 
d="M419 584l-10 -78l-7 -7l-76 7h-156l-5 -137l68 -14q93 -20 137.5 -59t44.5 -102q0 -91 -71.5 -146.5t-189.5 -55.5q-43 0 -104 11l-8 73l8 8q53 -13 104 -13q75 0 120 31t45 83q0 37 -31.5 60t-98.5 36l-95 18l-7 9l3 267l14 13l59 -2h156l93 5z" />
    <glyph glyph-name="six.tf" horiz-adv-x="475" 
d="M272 354q76 0 119 -47.5t43 -123.5q0 -83 -54 -137.5t-148 -54.5q-95 0 -143.5 58t-48.5 163q0 126 76.5 225.5t215.5 157.5h6l76 -46v-10q-114 -41 -178 -92t-88 -122l7 -8q55 37 117 37zM239 60q49 0 76.5 28t27.5 81q0 54 -26 83t-74 29q-54 0 -110 -43l-1 -24
q0 -78 25 -116t82 -38z" />
    <glyph glyph-name="seven.tf" horiz-adv-x="475" 
d="M144 586h239l48 1l1 -74l-195 -393l-53 -131l-82 23l-6 16l237 473h-207l-85 -6l-6 10l7 83z" />
    <glyph glyph-name="eight.tf" horiz-adv-x="475" 
d="M247 593q76 0 119 -38t43 -104q0 -89 -101 -139v-6q56 -25 87 -57t31 -88q0 -78 -55 -123.5t-146 -45.5q-85 0 -134 42t-49 109q0 99 121 147v5q-99 48 -99 140q0 73 50.5 115.5t132.5 42.5zM241 521q-43 0 -68 -22.5t-25 -60.5q0 -39 25 -61t71 -40q39 18 61 42t22 62
t-23 59t-63 21zM227 262q-46 -17 -72 -41t-26 -66t28 -67t77 -25q50 0 78.5 25.5t28.5 65.5q0 22 -8.5 39t-28 30t-33.5 20t-44 19z" />
    <glyph glyph-name="nine.tf" horiz-adv-x="475" 
d="M245 595q95 0 144 -57.5t49 -163.5q0 -125 -77 -224.5t-216 -157.5h-5l-76 46v10q114 41 177.5 92t87.5 122l-7 8q-53 -37 -117 -37q-76 0 -118.5 47.5t-42.5 123.5q0 83 53.5 137t147.5 54zM234 306q57 0 110 42l1 25q0 78 -25 116t-82 38q-49 0 -76 -28t-27 -81
q0 -54 25.5 -83t73.5 -29z" />
    <glyph glyph-name="zero.tosf" horiz-adv-x="475" 
d="M245 508q95 0 146.5 -65.5t51.5 -186.5q0 -126 -55 -195t-156 -69q-95 0 -147.5 65.5t-52.5 184.5q0 127 55.5 196.5t157.5 69.5zM237 414q-125 0 -125 -165q0 -167 127 -167q125 0 125 162q0 170 -127 170z" />
    <glyph glyph-name="one.tosf" horiz-adv-x="475" 
d="M304 495l-4 -288l3 -207h-101l4 196v194l-156 -34l-9 6v81l248 63z" />
    <glyph glyph-name="two.tosf" horiz-adv-x="475" 
d="M241 506q64 0 105 -31.5t41 -84.5q0 -77 -116 -206l-90 -101l2 -5h164l88 8l6 -7l-12 -84l-111 5h-227l-37 -2l-5 4v63l138 144q100 106 100 156q0 24 -18 39t-51 15q-73 0 -135 -64h-11l-17 79q92 72 186 72z" />
    <glyph glyph-name="three.tosf" horiz-adv-x="475" 
d="M222 507q77 0 125 -36t48 -96q0 -41 -27.5 -81t-79.5 -65v-4q128 -34 128 -143q0 -80 -70.5 -129t-185.5 -49q-50 0 -109 9l-6 75l7 7q55 -13 111 -13q73 0 114.5 27.5t41.5 75.5q0 85 -129 90h-69l-5 7l3 70l48 1q46 0 85.5 29t39.5 72q0 33 -24 51.5t-66 18.5
q-60 0 -134 -49h-11l-15 71q85 61 180 61z" />
    <glyph glyph-name="four.tosf" horiz-adv-x="475" 
d="M444 66l-88 2l4 -151l-6 -8l-78 -6l-6 7l3 158h-172l-73 -2l-7 9v66l243 360h93l-2 -354h87l7 -9zM109 147h165l-1 235h-7z" />
    <glyph glyph-name="five.tosf" horiz-adv-x="475" 
d="M423 499l-11 -78l-8 -7l-76 8h-159l-5 -140l69 -14q94 -20 138.5 -59t44.5 -103q0 -92 -73.5 -148t-193.5 -56q-42 0 -104 11l-6 73l8 8q49 -12 105 -12q77 0 122.5 31t45.5 84q0 37 -31.5 60t-99.5 37l-96 18l-8 8l6 270l14 14l59 -3h158l95 5z" />
    <glyph glyph-name="six.tosf" horiz-adv-x="475" 
d="M272 354q77 0 120.5 -47.5t43.5 -122.5q0 -85 -52 -139t-149 -54q-91 0 -142.5 58.5t-51.5 162.5q0 126 76.5 225.5t217.5 157.5h6l60 -46v-10q-107 -41 -168 -92t-84 -122l7 -8q55 37 116 37zM237 60q53 0 80.5 29.5t27.5 85.5q0 106 -100 106q-58 0 -111 -39l-1 -28
q0 -154 104 -154z" />
    <glyph glyph-name="seven.tosf" horiz-adv-x="475" 
d="M142 501h245l49 2v-75l-201 -398l-53 -131l-82 22l-6 17l243 479h-213l-87 -6l-6 9l7 85z" />
    <glyph glyph-name="eight.tosf" horiz-adv-x="475" 
d="M247 593q76 0 119 -38t43 -104q0 -89 -101 -139v-6q56 -25 87 -57t31 -88q0 -78 -55 -123.5t-146 -45.5q-85 0 -134 42t-49 109q0 99 121 147v5q-99 48 -99 140q0 73 50.5 115.5t132.5 42.5zM241 521q-43 0 -68 -22.5t-25 -60.5q0 -39 25 -61t71 -40q39 18 61 42t22 62
t-23 59t-63 21zM227 262q-46 -17 -72 -41t-26 -66t28 -67t77 -25q50 0 78.5 25.5t28.5 65.5q0 22 -8.5 39t-28 30t-33.5 20t-44 19z" />
    <glyph glyph-name="nine.tosf" horiz-adv-x="475" 
d="M240 510q92 0 143 -58.5t51 -162.5q0 -126 -76.5 -225.5t-217.5 -157.5h-5l-61 46v11q108 41 168.5 91.5t83.5 121.5l-7 8q-57 -37 -116 -37q-77 0 -120.5 47.5t-43.5 123.5q0 84 52 138t149 54zM230 220q55 0 111 38q1 10 1 29q0 154 -104 154q-53 0 -80.5 -29.5
t-27.5 -84.5q0 -107 100 -107z" />
    <glyph glyph-name="zero.dnom" horiz-adv-x="374" 
d="M193 386q70 0 107 -49t37 -140q0 -99 -39.5 -150.5t-115.5 -51.5q-71 0 -108.5 49t-37.5 140q0 98 40.5 150t116.5 52zM186 308q-82 0 -82 -117q0 -124 83 -124t83 119q0 122 -84 122z" />
    <glyph glyph-name="one.dnom" horiz-adv-x="265" 
d="M182 377l-3 -241l3 -136h-87l2 126v166l-78 -20l-7 4v68l158 43z" />
    <glyph glyph-name="two.dnom" horiz-adv-x="354" 
d="M180 386q49 0 80.5 -24t31.5 -66q0 -29 -19 -63t-64 -89l-59 -75l2 -2h108l66 3l3 -6l-9 -67l-86 3h-166l-27 -1l-4 3v51l96 109q39 46 55.5 70.5t16.5 44.5q0 17 -12 28t-34 11q-52 0 -96 -49h-10l-14 65q72 54 141 54z" />
    <glyph glyph-name="three.dnom" horiz-adv-x="313" 
d="M146 387q52 0 83.5 -24.5t31.5 -65.5q0 -61 -61 -91v-4q74 -20 74 -90q0 -52 -46 -84.5t-120 -32.5q-37 0 -72 8l-5 60l6 6q37 -10 72 -10q38 0 59.5 14.5t21.5 40.5q0 47 -61 49h-47l-4 5l1 57h30q25 1 45 17t20 39q0 39 -47 39q-34 0 -78 -29h-9l-14 57q55 39 120 39z
" />
    <glyph glyph-name="four.dnom" horiz-adv-x="358" 
d="M322 92l-55 2l4 -88l-5 -6l-68 -3l-5 4l2 94h-108l-57 -3l-6 8v53l163 229h80l-2 -224h56l5 -7zM99 158h97v130h-6z" />
    <glyph glyph-name="five.dnom" horiz-adv-x="311" 
d="M275 380l-8 -64l-7 -5l-55 5h-82l-2 -74l42 -10q110 -22 110 -105q0 -60 -46.5 -96t-122.5 -36q-34 0 -72 7l-6 59l7 7q30 -10 72 -10q40 0 62.5 16t22.5 45q0 41 -66 55l-64 11l-5 7l2 181l9 10l38 -1h101l65 2z" />
    <glyph glyph-name="six.dnom" horiz-adv-x="342" 
d="M199 234q52 0 81.5 -31.5t29.5 -79.5q0 -56 -36 -92t-104 -36q-64 0 -100.5 38.5t-36.5 106.5q0 80 50.5 144t143.5 103h5l54 -36v-8q-68 -26 -106.5 -55t-54.5 -68l6 -6q31 20 68 20zM172 48q60 0 60 67q0 61 -58 61q-30 0 -62 -19v-16q0 -47 13.5 -70t46.5 -23z" />
    <glyph glyph-name="seven.dnom" horiz-adv-x="304" 
d="M100 382h146l32 1l1 -61l-109 -234l-38 -95l-70 18l-5 13l136 289h-107l-61 -6l-4 9l6 67z" />
    <glyph glyph-name="eight.dnom" horiz-adv-x="349" 
d="M183 387q53 0 83 -25.5t30 -68.5q0 -56 -62 -89v-5q35 -17 54 -36.5t19 -54.5q0 -53 -38.5 -83t-102.5 -30q-61 0 -94.5 26.5t-33.5 70.5q0 63 77 93v4q-64 33 -64 91q0 50 36 78.5t96 28.5zM177 330q-25 0 -39.5 -12.5t-14.5 -35.5q0 -21 15 -34t44 -25q46 25 46 61
q0 21 -14 33.5t-37 12.5zM167 164q-57 -20 -57 -61q0 -24 16 -38.5t46 -14.5q31 0 48 14.5t17 36.5q0 16 -11.5 29t-23.5 19t-35 15z" />
    <glyph glyph-name="nine.dnom" horiz-adv-x="343" 
d="M175 388q64 0 100.5 -39t36.5 -108q0 -79 -51 -143t-144 -103h-4l-54 36v9q68 25 106.5 53.5t54.5 67.5l-6 6q-33 -20 -68 -20q-52 0 -81.5 32.5t-29.5 80.5q0 55 36.5 91.5t103.5 36.5zM171 206q31 0 63 20v15q0 93 -61 93t-61 -66q0 -62 59 -62z" />
    <glyph glyph-name="zero.numr" horiz-adv-x="374" 
d="M193 648q70 0 107 -49t37 -140q0 -99 -39.5 -150.5t-115.5 -51.5q-71 0 -108.5 49t-37.5 140q0 98 40.5 150t116.5 52zM186 570q-82 0 -82 -117q0 -124 83 -124t83 119q0 122 -84 122z" />
    <glyph glyph-name="one.numr" horiz-adv-x="265" 
d="M182 639l-3 -241l3 -136h-87l2 126v166l-78 -20l-7 4v68l158 43z" />
    <glyph glyph-name="two.numr" horiz-adv-x="354" 
d="M180 648q49 0 80.5 -24t31.5 -66q0 -29 -19 -63t-64 -89l-59 -75l2 -2h108l66 3l3 -6l-9 -67l-86 3h-166l-27 -1l-4 3v51l96 109q39 46 55.5 70.5t16.5 44.5q0 17 -12 28t-34 11q-52 0 -96 -49h-10l-14 65q72 54 141 54z" />
    <glyph glyph-name="three.numr" horiz-adv-x="313" 
d="M146 649q52 0 83.5 -24.5t31.5 -65.5q0 -61 -61 -91v-4q74 -20 74 -90q0 -52 -46 -84.5t-120 -32.5q-37 0 -72 8l-5 60l6 6q37 -10 72 -10q38 0 59.5 14.5t21.5 40.5q0 47 -61 49h-47l-4 5l1 57h30q25 1 45 17t20 39q0 39 -47 39q-34 0 -78 -29h-9l-14 57q56 39 120 39z
" />
    <glyph glyph-name="four.numr" horiz-adv-x="358" 
d="M322 354l-55 2l4 -88l-5 -6l-68 -3l-5 4l2 94h-108l-57 -3l-6 8v53l163 229h80l-2 -224h56l5 -7zM99 420h97v130h-6z" />
    <glyph glyph-name="five.numr" horiz-adv-x="311" 
d="M275 642l-8 -64l-7 -5l-55 5h-82l-2 -74l42 -10q110 -22 110 -105q0 -60 -46.5 -96t-122.5 -36q-34 0 -72 7l-6 59l7 7q30 -10 72 -10q40 0 62.5 16t22.5 45q0 41 -66 55l-64 11l-5 7l2 181l9 10l38 -1h101l65 2z" />
    <glyph glyph-name="six.numr" horiz-adv-x="342" 
d="M199 496q52 0 81.5 -31.5t29.5 -79.5q0 -56 -36 -92t-104 -36q-64 0 -100.5 38.5t-36.5 106.5q0 80 50.5 144t143.5 103h5l54 -36v-8q-68 -26 -106.5 -55t-54.5 -68l6 -6q31 20 68 20zM172 310q60 0 60 67q0 61 -58 61q-30 0 -62 -19v-16q0 -47 13.5 -70t46.5 -23z" />
    <glyph glyph-name="seven.numr" horiz-adv-x="304" 
d="M100 644h146l32 1l1 -61l-109 -234l-38 -95l-70 18l-5 13l136 289h-107l-61 -6l-4 9l6 67z" />
    <glyph glyph-name="eight.numr" horiz-adv-x="349" 
d="M183 649q53 0 83 -25.5t30 -68.5q0 -56 -62 -89v-5q35 -17 54 -36.5t19 -54.5q0 -53 -38.5 -83t-102.5 -30q-61 0 -94.5 26.5t-33.5 70.5q0 63 77 93v4q-64 33 -64 91q0 50 36 78.5t96 28.5zM177 592q-25 0 -39.5 -12.5t-14.5 -35.5q0 -21 15 -34t44 -25q46 25 46 61
q0 21 -14 33.5t-37 12.5zM167 426q-57 -20 -57 -61q0 -24 16 -38.5t46 -14.5q31 0 48 14.5t17 36.5q0 16 -11.5 29t-23.5 19t-35 15z" />
    <glyph glyph-name="nine.numr" horiz-adv-x="343" 
d="M175 650q64 0 100.5 -39t36.5 -108q0 -79 -51 -143t-144 -103h-4l-54 36v9q68 25 106.5 53.5t54.5 67.5l-6 6q-33 -20 -68 -20q-52 0 -81.5 32.5t-29.5 80.5q0 55 36.5 91.5t103.5 36.5zM171 468q31 0 63 20v15q0 93 -61 93t-61 -66q0 -62 59 -62z" />
    <glyph glyph-name="acute.cap" 
d="M285 691l27 -61l-4 -10q-66 -29 -203 -82l-11 4l-17 44q130 67 198 107z" />
    <glyph glyph-name="breve.cap" 
d="M306 672l25 -33q-16 -46 -52 -71.5t-86 -25.5q-102 0 -135 97l26 33h15q24 -58 97 -58q70 0 95 58h15z" />
    <glyph glyph-name="caron.cap" 
d="M311 679l20 -43q-66 -44 -124 -96h-24q-54 48 -124 96l19 43h11q79 -49 106 -66q28 19 105 66h11z" />
    <glyph glyph-name="circumflex.cap" 
d="M77 550l-19 42q68 46 123 96h25q53 -46 124 -96l-20 -42h-10q-93 57 -106 65l-105 -65h-12z" />
    <glyph glyph-name="grave.cap" 
d="M104 691l11 3q86 -52 198 -107l-17 -44l-11 -4q-137 53 -203 82l-4 10z" />
    <glyph glyph-name="hungarumlaut.cap" 
d="M71 536l-33 28q72 81 108 126l9 2l46 -32l1 -10q-78 -74 -121 -112zM219 536l-33 28l108 126l7 2l48 -32l1 -10q-3 -3 -121 -112z" />
    <glyph glyph-name="caron.alt" 
d="M238 694l-27 -183l-47 -7l-8 6l2 187l73 5z" />
    <glyph glyph-name="dieresis.i" 
d="M128 665q23 0 36.5 -13.5t13.5 -37.5q0 -26 -14.5 -41t-39.5 -15q-24 0 -37.5 14t-13.5 38q0 25 15 40t40 15zM266 665q23 0 36.5 -13.5t13.5 -37.5q0 -26 -14.5 -41t-39.5 -15q-24 0 -37.5 14t-13.5 38q0 25 15 40t40 15z" />
    <glyph glyph-name="macron.i" 
d="M311 638l-5 -59h-220l-7 8l5 58h220z" />
    <glyph glyph-name="tilde.i" 
d="M339 647v-9l-58 -77l-10 -3q-20 3 -70.5 19t-60.5 16q-5 0 -9.5 -2t-10.5 -7.5t-9.5 -9.5t-11 -14t-11.5 -14h-9l-31 31v9l59 76l10 4q20 -3 70 -19t60 -16q5 0 10 2t10.5 7.5t9.5 10t11.5 14t11.5 14.5h9z" />
    <glyph glyph-name="Gdieresis" horiz-adv-x="599" 
d="M247 846q50 0 50 -51q0 -26 -14 -40.5t-39 -14.5q-51 0 -51 52q0 25 14.5 39.5t39.5 14.5zM411 846q50 0 50 -51q0 -26 -14 -40.5t-39 -14.5q-51 0 -51 52q0 25 14.5 39.5t39.5 14.5zM356 649q101 0 188 -43l-21 -96l-11 -1q-92 54 -173 54q-100 0 -149 -60.5t-49 -190.5
q0 -124 46 -179.5t146 -55.5q44 0 111 20l3 65l-3 96l97 7l-2 -87l3 -147q-124 -39 -215 -39q-147 0 -220 81.5t-73 233.5q0 166 83.5 254t238.5 88z" />
    <glyph glyph-name="breveacute" 
d="M296 757l1 -9q-44 -46 -104 -102l-9 -2l-33 28q53 66 89 115l9 2zM306 652l25 -33q-16 -46 -52 -71.5t-86 -25.5q-102 0 -135 97l26 33h15q24 -58 97 -58q70 0 95 58h15z" />
    <glyph glyph-name="brevegrave" 
d="M140 789l8 -2q62 -82 90 -115l-34 -28l-10 2q-11 11 -32 31.5t-38 37.5t-32 33v9zM306 652l25 -33q-16 -46 -52 -71.5t-86 -25.5q-102 0 -135 97l26 33h15q24 -58 97 -58q70 0 95 58h15z" />
    <glyph glyph-name="brevehookabove" 
d="M193 840q30 0 50.5 -17.5t20.5 -44.5q0 -34 -54 -79l21 -36l-40 -23l-36 60q51 38 51 67q0 22 -28 22q-29 0 -60 -25l-19 30q44 46 94 46zM306 652l25 -33q-16 -46 -52 -71.5t-86 -25.5q-102 0 -135 97l26 33h15q24 -58 97 -58q70 0 95 58h15z" />
    <glyph glyph-name="brevetilde" 
d="M352 779v-9l-60 -74l-11 -4q-20 2 -76 18.5t-68 16.5q-5 0 -9.5 -2t-10.5 -7.5t-10 -9.5t-12 -13t-13 -14h-9l-29 30v8l61 74l10 4q21 -3 77 -18.5t67 -15.5q5 0 10 2t10.5 7t10 9.5t12.5 13.5t13 14h8zM305 649l24 -33q-33 -94 -134 -94q-99 0 -130 94l25 33h15
q22 -57 94 -57q67 0 91 57h15z" />
    <glyph glyph-name="circle1" horiz-adv-x="455" 
d="M228 464q98 0 168 -70t70 -168t-70 -168t-168 -70t-168 70t-70 168t70 168t168 70z" />
    <glyph glyph-name="circle2" horiz-adv-x="639" 
d="M319 649q137 0 234.5 -97.5t97.5 -234.5t-97.5 -234t-234.5 -97t-234 97t-97 234t97 234.5t234 97.5z" />
    <glyph glyph-name="circumflexacute" 
d="M378 762l1 -9l-87 -109h-8l-35 28l70 111l8 3zM77 530l-19 42q68 46 123 96h25q53 -46 124 -96l-20 -42h-10q-93 57 -106 65l-105 -65h-12z" />
    <glyph glyph-name="circumflexgrave" 
d="M272 783l70 -111l-35 -28h-8l-87 109l1 9l52 24zM77 530l-19 42q68 46 123 96h25q53 -46 124 -96l-20 -42h-10q-93 57 -106 65l-105 -65h-12z" />
    <glyph glyph-name="circumflexhookabove" 
d="M292 826q29 0 48 -17t19 -42q0 -33 -51 -75l20 -34l-38 -22l-34 57q48 37 48 64q0 20 -26 20q-31 0 -57 -23l-18 29q41 43 89 43zM77 530l-19 42q68 46 123 96h25q53 -46 124 -96l-20 -42h-10q-93 57 -106 65l-105 -65h-12z" />
    <glyph glyph-name="circumflextilde" 
d="M352 779v-9l-60 -74l-11 -4q-20 2 -76 18.5t-68 16.5q-5 0 -9.5 -2t-10.5 -7.5t-10 -9.5t-12 -13t-13 -14h-9l-29 30v8l61 74l10 4q21 -3 77 -18.5t67 -15.5q5 0 10 2t10.5 7t10 9.5t12.5 13.5t13 14h8zM77 530l-19 42q68 46 123 96h25q53 -46 124 -96l-20 -42h-10
q-93 57 -106 65l-105 -65h-12z" />
    <glyph glyph-name="dieresiscaron" 
d="M311 799l20 -42q-55 -38 -124 -96h-24q-63 53 -124 96l19 42h11q93 -57 106 -65q23 15 105 65h11zM114 642q23 0 35.5 -13t12.5 -36t-14 -37.5t-38 -14.5q-23 0 -35.5 13t-12.5 36t14 37.5t38 14.5zM278 642q23 0 35.5 -13t12.5 -36t-14 -37.5t-38 -14.5q-23 0 -35.5 13
t-12.5 36t14 37.5t38 14.5z" />
    <glyph glyph-name="dieresismacron" 
d="M335 763l-6 -59h-266l-8 8l6 59h267zM114 642q23 0 35.5 -13t12.5 -36t-14 -37.5t-38 -14.5q-23 0 -35.5 13t-12.5 36t14 37.5t38 14.5zM278 642q23 0 35.5 -13t12.5 -36t-14 -37.5t-38 -14.5q-23 0 -35.5 13t-12.5 36t14 37.5t38 14.5z" />
    <glyph glyph-name="down" horiz-adv-x="415" 
d="M208 73l-145 289h289z" />
    <glyph glyph-name="firstofchinese" 
d="M342 638l-5 -59h-282l-7 8l5 58h282z" />
    <glyph glyph-name="foundryicon" horiz-adv-x="783" 
d="M180 524h423q80 0 80 -80v-423q0 -80 -80 -80h-423q-80 0 -80 80v423q0 80 80 80zM191 437v-344h74v180q0 12 24 12q43 0 43 -56v-136h74v178q0 32 -22 52.5t-56 20.5l-48 -28q-6 -4 -9 -4q-6 0 -6 9v116h-74zM524 376l-89 -56v-18h26q10 0 10 -10v-132q0 -32 22 -52.5
t56 -20.5l63 37v25q-12 -4 -26 -4q-41 0 -41 57v90q0 10 10 10h58v36h-58q-10 0 -10 10v28h-21z" />
    <glyph glyph-name="gdieresis" horiz-adv-x="523" 
d="M199 705q50 0 50 -51q0 -26 -14 -40.5t-39 -14.5q-51 0 -51 52q0 25 14.5 39.5t39.5 14.5zM363 705q50 0 50 -51q0 -26 -14 -40.5t-39 -14.5q-51 0 -51 52q0 25 14.5 39.5t39.5 14.5zM310 507q78 0 158 -31l-29 -91h-10q-69 43 -136 43q-78 0 -115 -43.5t-37 -140.5
q0 -94 35 -133.5t115 -39.5q38 0 87 18v42l-1 75l88 6l-1 -66v-122q-102 -31 -178 -31q-122 0 -184 64t-62 183q0 129 70.5 198t199.5 69z" />
    <glyph glyph-name="hookabove" 
d="M189 725q30 0 50.5 -18t20.5 -45q0 -34 -54 -78l21 -37l-40 -22l-36 59q51 38 51 68q0 21 -28 21q-30 0 -60 -24l-19 30q46 46 94 46z" />
    <glyph glyph-name="left" horiz-adv-x="415" 
d="M324 83l-289 144l289 145v-289z" />
    <glyph glyph-name="right" horiz-adv-x="415" 
d="M381 228l-289 -145v289z" />
    <glyph glyph-name="ringacute" 
d="M320 825l16 -63l-5 -10q-86 -22 -213 -49l-11 5l-10 47q116 35 213 74zM196 688q42 0 64.5 -23t22.5 -62q0 -43 -25 -66.5t-66 -23.5q-39 0 -63 23t-24 64t24 64.5t67 23.5zM193 642q-42 0 -42 -40q0 -44 43 -44q44 0 44 41q0 43 -45 43z" />
    <glyph glyph-name="square1" horiz-adv-x="455" 
d="M456 0h-456v456h456v-456z" />
    <glyph glyph-name="square2" horiz-adv-x="639" 
d="M639 0h-639v639h639v-639z" />
    <glyph glyph-name="up" horiz-adv-x="415" 
d="M352 103h-289l144 289z" />
    <glyph glyph-name="gdieresis.sc" horiz-adv-x="523" 
d="M199 705q50 0 50 -51q0 -26 -14 -40.5t-39 -14.5q-51 0 -51 52q0 25 14.5 39.5t39.5 14.5zM363 705q50 0 50 -51q0 -26 -14 -40.5t-39 -14.5q-51 0 -51 52q0 25 14.5 39.5t39.5 14.5zM310 507q78 0 158 -31l-29 -91h-10q-69 43 -136 43q-78 0 -115 -43.5t-37 -140.5
q0 -94 35 -133.5t115 -39.5q38 0 87 18v42l-1 75l88 6l-1 -66v-122q-102 -31 -178 -31q-122 0 -184 64t-62 183q0 129 70.5 198t199.5 69z" />
    <glyph glyph-name="gtilde.sc" horiz-adv-x="523" 
d="M442 690v-9l-65 -77l-10 -5q-21 3 -81.5 20t-73.5 17q-5 0 -10.5 -2.5t-11.5 -7.5t-10.5 -10t-13 -14t-13.5 -15h-10l-31 32v9l65 77l11 4q21 -3 81.5 -19.5t73.5 -16.5q4 0 7.5 1t7.5 4t7.5 5.5t8.5 8t8 9t9.5 10.5t10.5 11h10zM310 507q78 0 158 -31l-29 -91h-10
q-69 43 -136 43q-78 0 -115 -43.5t-37 -140.5q0 -94 35 -133.5t115 -39.5q38 0 87 18v42l-1 75l88 6l-1 -66v-122q-102 -31 -178 -31q-122 0 -184 64t-62 183q0 129 70.5 198t199.5 69z" />
    </font>
</defs>
</svg>
